<?xml version="1.0" encoding="UTF-8" standalone="no"?>
<!-- Created with Inkscape (http://www.inkscape.org/) -->

<svg
   xmlns:dc="http://purl.org/dc/elements/1.1/"
   xmlns:cc="http://creativecommons.org/ns#"
   xmlns:rdf="http://www.w3.org/1999/02/22-rdf-syntax-ns#"
   xmlns:svg="http://www.w3.org/2000/svg"
   xmlns="http://www.w3.org/2000/svg"
   xmlns:xlink="http://www.w3.org/1999/xlink"
   xmlns:sodipodi="http://sodipodi.sourceforge.net/DTD/sodipodi-0.dtd"
   xmlns:inkscape="http://www.inkscape.org/namespaces/inkscape"
   version="1.0"
   width="96"
   height="96"
   id="svg2408"
   style="display:inline"
   inkscape:version="0.48.0 r9654"
   sodipodi:docname="empty.svg">
  <sodipodi:namedview
     pagecolor="#ffffff"
     bordercolor="#666666"
     borderopacity="1"
     objecttolerance="10"
     gridtolerance="10"
     guidetolerance="10"
     inkscape:pageopacity="0"
     inkscape:pageshadow="2"
     inkscape:window-width="1280"
     inkscape:window-height="681"
     id="namedview58"
     showgrid="false"
     inkscape:zoom="2.1802459"
     inkscape:cx="23.549608"
     inkscape:cy="25.475676"
     inkscape:window-x="0"
     inkscape:window-y="24"
     inkscape:window-maximized="1"
     inkscape:current-layer="svg2408" />
  <defs
     id="defs2410">
    <linearGradient
       x1="45.447727"
       y1="92.539597"
       x2="45.447727"
       y2="7.0165396"
       id="ButtonShadow"
       gradientUnits="userSpaceOnUse"
       gradientTransform="scale(1.0058652,0.994169)">
      <stop
         id="stop3750"
         style="stop-color:#000000;stop-opacity:1"
         offset="0" />
      <stop
         id="stop3752"
         style="stop-color:#000000;stop-opacity:0.58823532"
         offset="1" />
    </linearGradient>
    <linearGradient
       id="linearGradient3700">
      <stop
         id="stop3702"
         style="stop-color:#e6e6e6;stop-opacity:1"
         offset="0" />
      <stop
         id="stop3704"
         style="stop-color:#f5f5f5;stop-opacity:1"
         offset="1" />
    </linearGradient>
    <linearGradient
       x1="48"
       y1="90"
       x2="48"
       y2="5.9877172"
       id="linearGradient3706"
       xlink:href="#linearGradient3700"
       gradientUnits="userSpaceOnUse" />
    <filter
       color-interpolation-filters="sRGB"
       id="filter3174">
      <feGaussianBlur
         id="feGaussianBlur3176"
         stdDeviation="1.71" />
    </filter>
    <linearGradient
       x1="45.447727"
       y1="92.539597"
       x2="45.447727"
       y2="7.0165396"
       id="ButtonShadow-0"
       gradientUnits="userSpaceOnUse"
       gradientTransform="matrix(1.0058652,0,0,0.994169,100,0)">
      <stop
         id="stop3750-8"
         style="stop-color:#000000;stop-opacity:1"
         offset="0" />
      <stop
         id="stop3752-5"
         style="stop-color:#000000;stop-opacity:0.58823532"
         offset="1" />
    </linearGradient>
    <linearGradient
       x1="32.251034"
       y1="6.1317081"
       x2="32.251034"
       y2="90.238609"
       id="linearGradient3780"
       xlink:href="#ButtonShadow-0"
       gradientUnits="userSpaceOnUse"
       gradientTransform="matrix(1.0238095,0,0,1.0119048,-1.1428571,-98.071429)" />
    <linearGradient
       x1="32.251034"
       y1="6.1317081"
       x2="32.251034"
       y2="90.238609"
       id="linearGradient3772"
       xlink:href="#ButtonShadow-0"
       gradientUnits="userSpaceOnUse"
       gradientTransform="matrix(1.0238095,0,0,1.0119048,-1.1428571,-98.071429)" />
    <linearGradient
       x1="32.251034"
       y1="6.1317081"
       x2="32.251034"
       y2="90.238609"
       id="linearGradient3725"
       xlink:href="#ButtonShadow-0"
       gradientUnits="userSpaceOnUse"
       gradientTransform="matrix(1.0238095,0,0,1.0119048,-1.1428571,-98.071429)" />
    <linearGradient
       x1="32.251034"
       y1="6.1317081"
       x2="32.251034"
       y2="90.238609"
       id="linearGradient3721"
       xlink:href="#ButtonShadow-0"
       gradientUnits="userSpaceOnUse"
       gradientTransform="translate(0,-97)" />
    <linearGradient
       x1="32.251034"
       y1="6.1317081"
       x2="32.251034"
       y2="90.238609"
       id="linearGradient3760"
       xlink:href="#ButtonShadow-0"
       gradientUnits="userSpaceOnUse"
       gradientTransform="matrix(1.0238095,0,0,1.0119048,-1.1428571,-98.071429)" />
    <linearGradient
       id="linearGradient3737-1">
      <stop
         id="stop3739-9"
         style="stop-color:#ffffff;stop-opacity:1"
         offset="0" />
      <stop
         id="stop3741-3"
         style="stop-color:#ffffff;stop-opacity:0"
         offset="1" />
    </linearGradient>
    <radialGradient
       cx="48"
       cy="90.171875"
       r="42"
       fx="48"
       fy="90.171875"
       id="radialGradient2886"
       xlink:href="#linearGradient3737-0"
       gradientUnits="userSpaceOnUse"
       gradientTransform="matrix(1.1573129,0,0,0.99590774,-7.551021,0.1971319)" />
    <linearGradient
       id="linearGradient3737-0">
      <stop
         id="stop3739-6"
         style="stop-color:#ffffff;stop-opacity:1"
         offset="0" />
      <stop
         id="stop3741-0"
         style="stop-color:#ffffff;stop-opacity:0"
         offset="1" />
    </linearGradient>
    <linearGradient
       x1="36.357143"
       y1="6"
       x2="36.357143"
       y2="63.893143"
       id="linearGradient3923"
       xlink:href="#linearGradient3737-1"
       gradientUnits="userSpaceOnUse" />
    <linearGradient
       id="linearGradient3737-9">
      <stop
         id="stop3739-2"
         style="stop-color:#ffffff;stop-opacity:1"
         offset="0" />
      <stop
         id="stop3741-1"
         style="stop-color:#ffffff;stop-opacity:0"
         offset="1" />
    </linearGradient>
    <clipPath
       id="clipPath3613">
      <rect
         width="84"
         height="84"
         rx="6"
         ry="6"
         x="6"
         y="6"
         id="rect3615"
         style="fill:#ffffff;fill-opacity:1;fill-rule:nonzero;stroke:none" />
    </clipPath>
    <filter
       x="-0.192"
       y="-0.192"
       width="1.3839999"
       height="1.3839999"
       color-interpolation-filters="sRGB"
       id="filter3794">
      <feGaussianBlur
         id="feGaussianBlur3796"
         stdDeviation="5.28" />
    </filter>
    <linearGradient
       x1="48"
       y1="20.220806"
       x2="48"
       y2="138.66119"
       id="linearGradient2890"
       xlink:href="#linearGradient3737-9"
       gradientUnits="userSpaceOnUse" />
    <clipPath
       id="clipPath3732">
      <path
         d="m -100,-74 0,96 96,0 0,-96 -96,0 z m 40,16 16,0 c 4.432,0 8,3.568 8,8 l 0,16 c 4.432,0 8,3.568 8,8 l 0,24 c 0,4.432 -3.568,8 -8,8 l -32,0 c -4.432,0 -8,-3.568 -8,-8 l 0,-24 c 0,-4.432 3.568,-8 8,-8 l 0,-16 c 0,-4.432 3.568,-8 8,-8 z m 4,8 c -2.216,0 -4,1.784 -4,4 l 0,12 16,0 0,-12 c 0,-2.216 -1.784,-4 -4,-4 l -8,0 z"
         inkscape:connector-curvature="0"
         id="path3734"
         style="opacity:0.3;color:#000000;fill:#ff0000;fill-opacity:1;fill-rule:nonzero;stroke:none;stroke-width:4;marker:none;visibility:visible;display:inline;overflow:visible;enable-background:accumulate" />
    </clipPath>
    <filter
       color-interpolation-filters="sRGB"
       id="filter3736">
      <feGaussianBlur
         id="feGaussianBlur3738"
         stdDeviation="0.84" />
    </filter>
    <linearGradient
       x1="7.1904788"
       y1="6.9551144"
       x2="7.1904788"
       y2="18.319494"
       id="linearGradient5560"
       gradientUnits="userSpaceOnUse"
       gradientTransform="scale(1.1467263,0.8720476)">
      <stop
         id="stop5562"
         style="stop-color:#323232;stop-opacity:1"
         offset="0" />
      <stop
         id="stop5564"
         style="stop-color:#787878;stop-opacity:1"
         offset="1" />
    </linearGradient>
    <linearGradient
       inkscape:collect="always"
       xlink:href="#linearGradient5560"
       id="linearGradient4077"
       gradientUnits="userSpaceOnUse"
       gradientTransform="matrix(3.7848882,0,0,3.0432713,6.265644,14.396426)"
       x1="11"
       y1="3"
       x2="11"
       y2="19" />
  </defs>
  <metadata
     id="metadata2413">
    <rdf:RDF>
      <cc:Work
         rdf:about="">
        <dc:format>image/svg+xml</dc:format>
        <dc:type
           rdf:resource="http://purl.org/dc/dcmitype/StillImage" />
        <dc:title></dc:title>
      </cc:Work>
    </rdf:RDF>
  </metadata>
  <g
     id="layer2"
     style="display:none">
    <rect
       width="86"
       height="85"
       rx="6"
       ry="6"
       x="5"
       y="7"
       id="rect3745"
       style="opacity:0.9;fill:url(#ButtonShadow);fill-opacity:1;fill-rule:nonzero;stroke:none;filter:url(#filter3174)" />
  </g>
  <g
     id="layer6"
     style="display:inline">
    <path
       d="m 12,-95.03125 c -5.5110903,0 -10.03125,4.52016 -10.03125,10.03125 l 0,71 c 0,5.5110902 4.5201598,10.03125 10.03125,10.03125 l 72,0 c 5.51109,0 10.03125,-4.5201597 10.03125,-10.03125 l 0,-71 c 0,-5.51109 -4.52016,-10.03125 -10.03125,-10.03125 l -72,0 z"
       transform="scale(1,-1)"
       id="path3786"
       style="opacity:0.07999998;fill:url(#linearGradient3760);fill-opacity:1;fill-rule:nonzero;stroke:none;display:inline" />
    <path
       d="m 12,-94.03125 c -4.971633,0 -9.03125,4.059617 -9.03125,9.03125 l 0,71 c 0,4.9716329 4.0596171,9.03125 9.03125,9.03125 l 72,0 c 4.971633,0 9.03125,-4.059617 9.03125,-9.03125 l 0,-71 c 0,-4.971633 -4.059617,-9.03125 -9.03125,-9.03125 l -72,0 z"
       transform="scale(1,-1)"
       id="path3778"
       style="opacity:0.1;fill:url(#linearGradient3780);fill-opacity:1;fill-rule:nonzero;stroke:none;display:inline" />
    <path
       d="m 12,-93 c -4.4091333,0 -8,3.590867 -8,8 l 0,71 c 0,4.4091333 3.5908667,8 8,8 l 72,0 c 4.409133,0 8,-3.5908667 8,-8 l 0,-71 c 0,-4.409133 -3.590867,-8 -8,-8 l -72,0 z"
       transform="scale(1,-1)"
       id="path3770"
       style="opacity:0.2;fill:url(#linearGradient3772);fill-opacity:1;fill-rule:nonzero;stroke:none;display:inline" />
    <rect
       width="86"
       height="85"
       rx="7"
       ry="7"
       x="5"
       y="-92"
       transform="scale(1,-1)"
       id="rect3723"
       style="opacity:0.3;fill:url(#linearGradient3725);fill-opacity:1;fill-rule:nonzero;stroke:none;display:inline" />
    <rect
       width="84"
       height="84"
       rx="6"
       ry="6"
       x="6"
       y="-91"
       transform="scale(1,-1)"
       id="rect3716"
       style="opacity:0.45;fill:url(#linearGradient3721);fill-opacity:1;fill-rule:nonzero;stroke:none;display:inline" />
  </g>
  <g
     id="layer1"
     style="display:inline">
    <rect
       width="84"
       height="84"
       rx="6"
       ry="6"
       x="6"
       y="6"
       id="rect2419"
       style="fill:url(#linearGradient3706);fill-opacity:1;fill-rule:nonzero;stroke:none" />
    <path
       d="M 12,6 C 8.676,6 6,8.676 6,12 l 0,2 0,68 0,2 c 0,0.334721 0.04135,0.6507 0.09375,0.96875 0.0487,0.295596 0.09704,0.596915 0.1875,0.875 0.0099,0.03038 0.02089,0.0636 0.03125,0.09375 0.09886,0.287771 0.23488,0.547452 0.375,0.8125 0.144592,0.273507 0.315616,0.535615 0.5,0.78125 0.184384,0.245635 0.373776,0.473472 0.59375,0.6875 0.439947,0.428056 0.94291,0.814526 1.5,1.09375 0.278545,0.139612 0.573473,0.246947 0.875,0.34375 -0.256202,-0.100222 -0.486711,-0.236272 -0.71875,-0.375 -0.0074,-0.0044 -0.02387,0.0045 -0.03125,0 -0.03193,-0.0193 -0.06229,-0.04251 -0.09375,-0.0625 -0.120395,-0.0767 -0.231023,-0.163513 -0.34375,-0.25 -0.106173,-0.0808 -0.213281,-0.161112 -0.3125,-0.25 C 8.47832,88.557317 8.30879,88.373362 8.15625,88.1875 8.048671,88.057245 7.937856,87.922215 7.84375,87.78125 7.81866,87.74287 7.8053,87.69538 7.78125,87.65625 7.71649,87.553218 7.651022,87.451733 7.59375,87.34375 7.492742,87.149044 7.388075,86.928049 7.3125,86.71875 7.3045,86.69694 7.28891,86.6782 7.28125,86.65625 7.24942,86.5643 7.24545,86.469419 7.21875,86.375 7.188418,86.268382 7.148361,86.171969 7.125,86.0625 7.052121,85.720988 7,85.364295 7,85 L 7,83 7,15 7,13 C 7,10.218152 9.218152,8 12,8 l 2,0 68,0 2,0 c 2.781848,0 5,2.218152 5,5 l 0,2 0,68 0,2 c 0,0.364295 -0.05212,0.720988 -0.125,1.0625 -0.04415,0.206893 -0.08838,0.397658 -0.15625,0.59375 -0.0077,0.02195 -0.0233,0.04069 -0.03125,0.0625 -0.06274,0.173739 -0.138383,0.367449 -0.21875,0.53125 -0.04158,0.0828 -0.07904,0.169954 -0.125,0.25 -0.0546,0.09721 -0.126774,0.18835 -0.1875,0.28125 -0.09411,0.140965 -0.204921,0.275995 -0.3125,0.40625 -0.143174,0.17445 -0.303141,0.346998 -0.46875,0.5 -0.01117,0.0102 -0.01998,0.02115 -0.03125,0.03125 -0.138386,0.125556 -0.285091,0.234436 -0.4375,0.34375 -0.102571,0.07315 -0.204318,0.153364 -0.3125,0.21875 -0.0074,0.0045 -0.02384,-0.0044 -0.03125,0 -0.232039,0.138728 -0.462548,0.274778 -0.71875,0.375 0.301527,-0.0968 0.596455,-0.204138 0.875,-0.34375 0.55709,-0.279224 1.060053,-0.665694 1.5,-1.09375 0.219973,-0.214028 0.409366,-0.441865 0.59375,-0.6875 0.184384,-0.245635 0.355408,-0.507743 0.5,-0.78125 0.14012,-0.265048 0.276135,-0.524729 0.375,-0.8125 0.01041,-0.03078 0.02133,-0.06274 0.03125,-0.09375 0.09046,-0.278085 0.1388,-0.579404 0.1875,-0.875 C 89.95865,84.6507 90,84.334721 90,84 l 0,-2 0,-68 0,-2 C 90,8.676 87.324,6 84,6 L 12,6 z"
       inkscape:connector-curvature="0"
       id="rect3728"
       style="opacity:0.5;fill:url(#linearGradient3923);fill-opacity:1;fill-rule:nonzero;stroke:none;display:inline" />
    <path
       d="M 12,90 C 8.676,90 6,87.324 6,84 L 6,82 6,14 6,12 c 0,-0.334721 0.04135,-0.6507 0.09375,-0.96875 0.0487,-0.295596 0.09704,-0.596915 0.1875,-0.875 C 6.29113,10.12587 6.302142,10.09265 6.3125,10.0625 6.411365,9.774729 6.5473802,9.515048 6.6875,9.25 6.8320918,8.976493 7.0031161,8.714385 7.1875,8.46875 7.3718839,8.223115 7.5612765,7.995278 7.78125,7.78125 8.221197,7.353194 8.72416,6.966724 9.28125,6.6875 9.559795,6.547888 9.8547231,6.440553 10.15625,6.34375 9.9000482,6.443972 9.6695391,6.580022 9.4375,6.71875 c -0.00741,0.0044 -0.023866,-0.0045 -0.03125,0 -0.031933,0.0193 -0.062293,0.04251 -0.09375,0.0625 -0.120395,0.0767 -0.2310226,0.163513 -0.34375,0.25 -0.1061728,0.0808 -0.2132809,0.161112 -0.3125,0.25 C 8.4783201,7.442683 8.3087904,7.626638 8.15625,7.8125 8.0486711,7.942755 7.9378561,8.077785 7.84375,8.21875 7.818661,8.25713 7.805304,8.30462 7.78125,8.34375 7.716487,8.446782 7.6510225,8.548267 7.59375,8.65625 7.4927417,8.850956 7.3880752,9.071951 7.3125,9.28125 7.30454,9.30306 7.288911,9.3218 7.28125,9.34375 7.2494249,9.4357 7.2454455,9.530581 7.21875,9.625 7.1884177,9.731618 7.1483606,9.828031 7.125,9.9375 7.0521214,10.279012 7,10.635705 7,11 l 0,2 0,68 0,2 c 0,2.781848 2.2181517,5 5,5 l 2,0 68,0 2,0 c 2.781848,0 5,-2.218152 5,-5 l 0,-2 0,-68 0,-2 C 89,10.635705 88.94788,10.279012 88.875,9.9375 88.83085,9.730607 88.78662,9.539842 88.71875,9.34375 88.71105,9.3218 88.69545,9.30306 88.6875,9.28125 88.62476,9.107511 88.549117,8.913801 88.46875,8.75 88.42717,8.6672 88.38971,8.580046 88.34375,8.5 88.28915,8.40279 88.216976,8.31165 88.15625,8.21875 88.06214,8.077785 87.951329,7.942755 87.84375,7.8125 87.700576,7.63805 87.540609,7.465502 87.375,7.3125 87.36383,7.3023 87.35502,7.29135 87.34375,7.28125 87.205364,7.155694 87.058659,7.046814 86.90625,6.9375 86.803679,6.86435 86.701932,6.784136 86.59375,6.71875 c -0.0074,-0.0045 -0.02384,0.0044 -0.03125,0 -0.232039,-0.138728 -0.462548,-0.274778 -0.71875,-0.375 0.301527,0.0968 0.596455,0.204138 0.875,0.34375 0.55709,0.279224 1.060053,0.665694 1.5,1.09375 0.219973,0.214028 0.409366,0.441865 0.59375,0.6875 0.184384,0.245635 0.355408,0.507743 0.5,0.78125 0.14012,0.265048 0.276135,0.524729 0.375,0.8125 0.01041,0.03078 0.02133,0.06274 0.03125,0.09375 0.09046,0.278085 0.1388,0.579404 0.1875,0.875 C 89.95865,11.3493 90,11.665279 90,12 l 0,2 0,68 0,2 c 0,3.324 -2.676,6 -6,6 l -72,0 z"
       inkscape:connector-curvature="0"
       id="path3615"
       style="opacity:0.4;fill:url(#radialGradient2886);fill-opacity:1;fill-rule:nonzero;stroke:none;display:inline" />
    <rect
       width="84"
       height="84"
       rx="6"
       ry="6"
       x="-94"
       y="6"
       id="rect3654"
       style="fill:#ff00ff;fill-opacity:1;fill-rule:nonzero;stroke:none" />
    <rect
       width="16"
       height="16"
       x="112"
       y="8"
       id="rect3797"
       style="color:#000000;fill:#ffffff;stroke:#000000;stroke-width:0.5;stroke-linecap:round;stroke-linejoin:miter;stroke-miterlimit:4;stroke-opacity:1;stroke-dasharray:none;stroke-dashoffset:8.6;marker:none;visibility:visible;display:inline;overflow:visible;enable-background:accumulate" />
    <text
       x="131.39261"
       y="11.969256"
       id="text3799"
       xml:space="preserve"
       style="font-size:4px;font-style:normal;font-variant:normal;font-weight:normal;font-stretch:normal;text-align:start;line-height:125%;writing-mode:lr-tb;text-anchor:start;fill:#000000;fill-opacity:1;stroke:none;display:inline;font-family:Liberation Sans;-inkscape-font-specification:Liberation Sans"><tspan
         x="131.39261"
         y="11.969256"
         id="tspan3801">Width: 2px</tspan><tspan
         x="131.39261"
         y="16.969257"
         id="tspan3803">Blur: 12</tspan><tspan
         x="131.39261"
         y="21.969257"
         id="tspan3807">Opacity: 60</tspan></text>
  </g>
  <g
     id="layer3"
     transform="translate(-0.32432432,0)">
    <rect
       width="66"
       height="66"
       rx="12"
       ry="12"
       x="15"
       y="15"
       clip-path="url(#clipPath3613)"
       id="rect3171"
       style="opacity:0.5;fill:url(#linearGradient2890);fill-opacity:1;fill-rule:nonzero;stroke:#ffffff;stroke-width:0.5;stroke-linecap:round;stroke-linejoin:miter;stroke-miterlimit:4;stroke-opacity:1;stroke-dasharray:none;stroke-dashoffset:0;filter:url(#filter3794)" />
  </g>
  <path
     style="opacity:0.11029508;color:#000000;fill:none;stroke:#ffffff;stroke-width:4;stroke-miterlimit:4;stroke-dasharray:none;marker:none;visibility:visible;display:inline;overflow:visible;filter:url(#filter3736);enable-background:accumulate"
     id="path3725"
     clip-path="url(#clipPath3732)"
     transform="matrix(0.94622204,0,0,0.76081782,97.10296,67.653674)"
     inkscape:connector-curvature="0"
     d="m -60,-58 c -4.432,0 -8,3.568 -8,8 l 0,16 c -4.432,0 -8,3.568 -8,8 l 0,24 c 0,4.432 3.568,8 8,8 l 32,0 c 4.432,0 8,-3.568 8,-8 l 0,-24 c 0,-4.432 -3.568,-8 -8,-8 l 0,-16 c 0,-4.432 -3.568,-8 -8,-8 l -16,0 z m 4,8 8,0 c 2.216,0 4,1.784 4,4 l 0,12 -16,0 0,-12 c 0,-2.216 1.784,-4 4,-4 z" />
  <path
     style="opacity:0.55147548999999996;color:#000000;fill:url(#linearGradient4077);fill-opacity:1;stroke:none;stroke-width:1;marker:none;visibility:visible;display:inline;overflow:visible;enable-background:accumulate"
     d="M 40.34375 23.53125 C 36.150094 23.53125 32.75 26.253055 32.75 29.625 L 32.75 41.78125 C 28.556344 41.78125 25.1875 44.503056 25.1875 47.875 L 25.1875 66.125 C 25.1875 69.496945 28.556344 72.21875 32.75 72.21875 L 63.03125 72.21875 C 67.224906 72.21875 70.59375 69.496945 70.59375 66.125 L 70.59375 47.875 C 70.59375 44.503056 67.224906 41.78125 63.03125 41.78125 L 63.03125 29.625 C 63.03125 26.253055 59.662406 23.53125 55.46875 23.53125 L 40.34375 23.53125 z M 44.125 29.625 L 51.6875 29.625 C 53.784328 29.625 55.46875 30.970278 55.46875 32.65625 L 55.46875 41.78125 L 40.34375 41.78125 L 40.34375 32.65625 C 40.34375 30.970278 42.028172 29.625 44.125 29.625 z M 31.84375 49.71875 L 35.84375 49.71875 C 37.72918 49.718765 39.132135 50.095901 40.03125 50.84375 C 40.930345 51.584766 41.374989 52.702452 41.375 54.21875 C 41.374989 54.733345 41.321684 55.20648 41.1875 55.625 C 41.053294 56.043538 40.85312 56.420674 40.625 56.75 C 40.403568 57.072481 40.170219 57.346757 39.875 57.59375 C 39.586471 57.833897 39.259558 58.05409 38.9375 58.21875 C 39.682272 59.440037 40.347032 60.508196 40.9375 61.46875 C 41.192459 61.880421 41.452647 62.296418 41.6875 62.6875 C 41.929039 63.078586 42.124615 63.44125 42.3125 63.75 C 42.50036 64.058752 42.660462 64.2835 42.78125 64.46875 L 42.96875 64.78125 L 39.5 64.78125 L 36.3125 59 L 34.9375 59 L 34.9375 64.78125 L 31.84375 64.78125 L 31.84375 49.71875 z M 42.96875 49.71875 L 46.125 49.71875 L 48.625 58.78125 C 48.658543 58.897895 48.696316 59.10056 48.75 59.375 C 48.810382 59.64945 48.877106 59.95192 48.9375 60.28125 C 49.004591 60.610589 49.064606 60.920669 49.125 61.25 C 49.185381 61.579338 49.247695 61.867335 49.28125 62.09375 C 49.314792 61.867335 49.345856 61.579338 49.40625 61.25 C 49.466631 60.920669 49.526646 60.603727 49.59375 60.28125 C 49.660841 59.95192 49.720856 59.64945 49.78125 59.375 C 49.848341 59.10056 49.903944 58.904756 49.9375 58.78125 L 52.40625 49.71875 L 55.5625 49.71875 L 50.96875 64.78125 L 47.5625 64.78125 L 42.96875 49.71875 z M 57.40625 49.71875 L 60.5 49.71875 L 60.5 62.125 L 65.875 62.125 L 65.875 64.78125 L 57.40625 64.78125 L 57.40625 49.71875 z M 34.9375 52.34375 L 34.9375 56.40625 L 35.78125 56.40625 C 36.6468 56.406258 37.280497 56.224926 37.65625 55.875 C 38.031988 55.51823 38.218742 54.998623 38.21875 54.3125 C 38.218742 53.598953 38.027577 53.083152 37.625 52.78125 C 37.222408 52.479372 36.595421 52.343762 35.75 52.34375 L 34.9375 52.34375 z "
     id="rect2941" />
  <path
     style="opacity:0.16544267;color:#000000;fill:#000000;fill-opacity:1;stroke:none;stroke-width:1;marker:none;visibility:visible;display:inline;overflow:visible;enable-background:accumulate"
     id="path3731"
     inkscape:connector-curvature="0"
     d="m 40.329639,23.52624 c -4.19366,0 -7.56978,2.714598 -7.56978,6.086543 l 0,3.043271 c 0,-3.371945 3.37612,-6.086543 7.56978,-6.086543 l 15.13955,0 c 4.19366,0 7.56978,2.714598 7.56978,6.086543 l 0,-3.043271 c 0,-3.371945 -3.37612,-6.086543 -7.56978,-6.086543 l -15.13955,0 z m -7.56978,18.259628 c -4.19365,0 -7.56977,2.714598 -7.56977,6.086542 l 0,3.043272 c 0,-3.371945 3.37612,-6.086543 7.56977,-6.086543 l 0,-3.043271 z m 7.56978,0 0,3.043271 15.13955,0 0,-3.043271 -15.13955,0 z m 22.70933,0 0,3.043271 c 4.19365,0 7.56977,2.714598 7.56977,6.086543 l 0,-3.043272 c 0,-3.371944 -3.37612,-6.086542 -7.56977,-6.086542 z" />
  <path
     style="opacity:0.16544267;color:#000000;fill:#ffffff;fill-opacity:1;stroke:none;stroke-width:1;marker:none;visibility:visible;display:inline;overflow:visible;enable-background:accumulate"
     id="path3740"
     inkscape:connector-curvature="0"
     d="m 44.114526,29.612783 c -2.096828,0 -3.784889,1.357299 -3.784889,3.043271 l 0,3.043271 c 0,-1.685972 1.688061,-3.043271 3.784889,-3.043271 l 7.569776,0 c 2.096828,0 3.784888,1.357299 3.784888,3.043271 l 0,-3.043271 c 0,-1.685972 -1.68806,-3.043271 -3.784888,-3.043271 l -7.569776,0 z m -18.924441,36.519255 0,3.043271 c 0,3.371945 3.37612,6.086543 7.569776,6.086543 l 30.279105,0 c 4.193656,0 7.569777,-2.714598 7.569777,-6.086543 l 0,-3.043271 c 0,3.371945 -3.376121,6.086543 -7.569777,6.086543 l -30.279105,0 c -4.193656,0 -7.569776,-2.714598 -7.569776,-6.086543 z" />
  <path
     style="opacity:0.16544267;color:#000000;fill:#000000;fill-opacity:1;stroke:none;stroke-width:1;marker:none;visibility:visible;display:inline;overflow:visible;enable-background:accumulate"
     id="path3741"
     inkscape:connector-curvature="0"
     d="m 40.329633,23.52624 c -4.19365,0 -7.56977,2.714598 -7.56977,6.086543 l 0,12.173085 c -4.19366,0 -7.56978,2.714598 -7.56978,6.086542 l 0,18.259628 c 0,3.371945 3.37612,6.086543 7.56978,6.086543 l 30.2791,0 c 4.19366,0 7.56978,-2.714598 7.56978,-6.086543 l 0,-18.259628 c 0,-3.371944 -3.37612,-6.086542 -7.56978,-6.086542 l 0,-12.173085 c 0,-3.371945 -3.37612,-6.086543 -7.56977,-6.086543 l -15.13956,0 z m 0,1.569187 15.13956,0 c 3.15087,0 5.61819,1.983872 5.61819,4.517356 l 0,12.173085 a 1.9431426,1.5624002 0 0 0 1.95158,1.569187 c 3.15087,0 5.6182,1.983872 5.6182,4.517355 l 0,18.259628 c 0,2.533484 -2.46733,4.517356 -5.6182,4.517356 l -30.2791,0 c -3.15087,0 -5.61819,-1.983872 -5.61819,-4.517356 l 0,-18.259628 c 0,-2.533483 2.46732,-4.517355 5.61819,-4.517355 a 1.9431426,1.5624002 0 0 0 1.95158,-1.569187 l 0,-12.173085 c 0,-2.533484 2.46732,-4.517356 5.61819,-4.517356 z m 3.78489,2.948169 c -3.13961,0 -5.73647,2.088025 -5.73647,4.612458 l 0,9.129814 a 1.9431426,1.5624002 0 0 0 1.95158,1.569187 l 15.13956,0 a 1.9431426,1.5624002 0 0 0 1.95158,-1.569187 l 0,-9.129814 c 0,-2.524433 -2.59686,-4.612458 -5.73647,-4.612458 l -7.56978,0 z m 0,1.569187 7.56978,0 c 2.09683,0 3.78489,1.357299 3.78489,3.043271 l 0,9.129814 -15.13956,0 0,-9.129814 c 0,-1.685972 1.68807,-3.043271 3.78489,-3.043271 z" />
  <path
     style="opacity:0.67213111;fill:#787878;fill-opacity:1;stroke:none;display:inline"
     d="m 126.57072,48.249521 c -2.27563,0.25893 -4.03125,2.46412 -4.03125,5.78125 l 0,8.875 c 0,3.20331 2.00566,5.75 4.5,5.75 l 25.375,0 c 2.49434,0 4.44755,-2.54712 4.5,-5.75 l 0.15625,-9.90625 c 0.0525,-3.20289 -2.16191,-4.75 -4.65625,-4.75 l -25.375,0 c -0.1559,0 -0.31705,-0.0173 -0.46875,0 z m -1.4375,2.96875 3.5,0 c 1.64648,10e-6 2.87109,0.3404 3.65625,1 0.78515,0.65357 1.18749,1.63137 1.1875,2.96875 -1e-5,0.45387 -0.0703,0.88087 -0.1875,1.25 -0.1172,0.36915 -0.26954,0.67829 -0.46875,0.96875 -0.19337,0.28443 -0.4297,0.56341 -0.6875,0.78125 -0.25196,0.21181 -0.50001,0.35477 -0.78125,0.5 0.65038,1.07717 1.23437,2.05905 1.75,2.90625 0.22265,0.3631 0.41991,0.71757 0.625,1.0625 0.21093,0.34494 0.39843,0.63394 0.5625,0.90625 0.16405,0.27232 0.30077,0.49286 0.40625,0.65625 l 0.15625,0.25 -3.03125,0 -2.78125,-5.0625 -1.1875,0 0,5.0625 -2.71875,0 0,-13.25 z m 9.71875,0 2.75,0 2.1875,8 c 0.0293,0.10287 0.0781,0.25795 0.125,0.5 0.0527,0.24207 0.10351,0.49079 0.15625,0.78125 0.0586,0.29048 0.10351,0.58453 0.15625,0.875 0.0527,0.29048 0.0957,0.5503 0.125,0.75 0.0293,-0.1997 0.0723,-0.45952 0.125,-0.75 0.0527,-0.29047 0.0977,-0.55933 0.15625,-0.84375 0.0586,-0.29047 0.13476,-0.57043 0.1875,-0.8125 0.0586,-0.24205 0.0957,-0.39107 0.125,-0.5 l 2.15625,-8 2.75,0 -4.03125,13.25 -2.96875,0 -4,-13.25 z m 12.59375,0 2.71875,0 0,10.9375 4.6875,0 0,2.3125 -7.40625,0 0,-13.25 z m -19.59375,2.3125 0,3.59375 0.75,0 c 0.75585,10e-6 1.29687,-0.19137 1.625,-0.5 0.32812,-0.31467 0.46874,-0.73859 0.46875,-1.34375 -1e-5,-0.62935 -0.17969,-1.10872 -0.53125,-1.375 -0.35157,-0.26626 -0.88672,-0.37499 -1.625,-0.375 l -0.6875,0 z"
     id="rect3840-1"
     inkscape:connector-curvature="0" />
  <path
     style="font-size:18px;font-style:normal;font-variant:normal;font-weight:bold;font-stretch:normal;line-height:125%;letter-spacing:0px;word-spacing:0px;opacity:0.672;fill:#787878;fill-opacity:1;stroke:none;display:inline;font-family:Droid Sans;-inkscape-font-specification:Droid Sans Bold"
     d="m 31.655574,48.615539 0,0.794662 4.076244,0 c 1.900577,1.5e-5 3.278114,0.399712 4.184463,1.173071 0.843576,0.713239 1.276278,1.770839 1.334699,3.178647 0.01224,-0.150941 0.03601,-0.29418 0.03601,-0.454092 -1.1e-5,-1.568023 -0.464458,-2.752926 -1.370772,-3.519216 -0.906349,-0.77336 -2.283886,-1.173056 -4.184463,-1.173072 l -4.076244,0 z m 11.254762,0 0.252511,0.794662 2.921909,0 2.525107,9.384576 c 0.03382,0.120618 0.05414,0.321654 0.108161,0.605455 0.06083,0.283815 0.119485,0.567616 0.180365,0.908186 0.06764,0.340568 0.155558,0.681138 0.216438,1.021707 0.06083,0.34057 0.110469,0.636201 0.144291,0.870344 0.03382,-0.234143 0.04733,-0.529774 0.108162,-0.870344 0.06083,-0.340569 0.148793,-0.650392 0.216437,-0.983867 0.06764,-0.340568 0.119485,-0.662211 0.180365,-0.946026 0.06764,-0.283801 0.11047,-0.477741 0.144292,-0.605455 l 2.489034,-9.384576 2.921909,0 0.252511,-0.794662 -3.17442,0 -2.489034,9.384576 c -0.03382,0.127714 -0.07665,0.321655 -0.144292,0.605456 -0.06083,0.283815 -0.112778,0.605457 -0.180365,0.946025 -0.06764,0.333475 -0.155569,0.68114 -0.216437,1.021709 -0.06083,0.340569 -0.07446,0.59836 -0.108162,0.832503 -0.03382,-0.234143 -0.08346,-0.491934 -0.144291,-0.832503 -0.06083,-0.340569 -0.148806,-0.681139 -0.216438,-1.021709 -0.06083,-0.340568 -0.119497,-0.66221 -0.180365,-0.946025 -0.05414,-0.283801 -0.07446,-0.484837 -0.108161,-0.605456 l -2.525107,-9.384576 -3.17442,0 z m 14.537401,0 0,0.794662 3.138347,0 0,-0.794662 -3.138347,0 z M 38.07656,53.875443 c -0.07099,0.468284 -0.257036,0.858523 -0.541095,1.13523 -0.378771,0.361869 -1.003289,0.529787 -1.875793,0.529775 l -0.865751,0 0,0.794662 0.865751,0 c 0.872504,1.1e-5 1.497022,-0.205747 1.875793,-0.567616 0.378749,-0.368941 0.577156,-0.879789 0.577168,-1.589323 0,-0.10582 -0.0277,-0.205675 -0.03601,-0.302728 z m 1.118261,4.124672 c -0.118019,0.07563 -0.237873,0.12476 -0.360729,0.189204 0.750756,1.262947 1.424864,2.412369 2.020085,3.405694 0.257001,0.425708 0.484717,0.844332 0.72146,1.248754 0.243472,0.404432 0.459921,0.740266 0.649313,1.059549 0.07492,0.126249 0.116057,0.196446 0.180365,0.302728 l 0.468948,0 -0.180365,-0.302728 c -0.121759,-0.191567 -0.27958,-0.475381 -0.468948,-0.794662 -0.189392,-0.319282 -0.405841,-0.655116 -0.649313,-1.059549 -0.236743,-0.404421 -0.464459,-0.823045 -0.72146,-1.248754 -0.489276,-0.816507 -1.064989,-1.801536 -1.659356,-2.800236 z m 21.391263,3.481374 0,0.75682 5.374871,0 0,-0.75682 -5.374871,0 z"
     id="text3836-0"
     inkscape:connector-curvature="0" />
  <text
     xml:space="preserve"
     style="font-size:18px;font-style:normal;font-variant:normal;font-weight:bold;font-stretch:normal;line-height:125%;letter-spacing:0px;word-spacing:0px;fill:#ffffff;fill-opacity:1;stroke:none;display:inline;font-family:Droid Sans;-inkscape-font-specification:Droid Sans Bold"
     x="19.196188"
     y="121.23563"
     id="text3836-0-5"
     sodipodi:linespacing="125%"><tspan
       sodipodi:role="line"
       id="tspan3838-6-6"
       x="19.196188"
       y="121.23563">RVL</tspan></text>
  <text
     xml:space="preserve"
     style="font-size:21.20676994px;font-style:normal;font-variant:normal;font-weight:bold;font-stretch:normal;line-height:125%;letter-spacing:0px;word-spacing:0px;opacity:0.16499999;fill:none;stroke:#000000;stroke-width:1.51201689;stroke-linejoin:round;stroke-miterlimit:4;stroke-opacity:1;stroke-dasharray:none;font-family:Droid Sans;-inkscape-font-specification:Droid Sans Bold"
     x="32.369179"
     y="61.580975"
     id="text4102"
     sodipodi:linespacing="125%"
     transform="scale(0.94660306,1.056409)"><tspan
       sodipodi:role="line"
       id="tspan4104"
       x="32.369179"
       y="61.580975"
       style="stroke-width:1.51201689;stroke-linejoin:round;stroke-miterlimit:4;stroke-dasharray:none">RVL</tspan></text>
</svg>
