<?xml version="1.0" encoding="utf-8"?>
<!-- Generator: Adobe Illustrator 15.0.0, SVG Export Plug-In . SVG Version: 6.00 Build 0)  -->
<!DOCTYPE svg PUBLIC "-//W3C//DTD SVG 1.1//EN" "http://www.w3.org/Graphics/SVG/1.1/DTD/svg11.dtd">
<svg version="1.1"
	 id="svg2408" xmlns:inkscape="http://www.inkscape.org/namespaces/inkscape" xmlns:svg="http://www.w3.org/2000/svg" xmlns:cc="http://creativecommons.org/ns#" xmlns:rdf="http://www.w3.org/1999/02/22-rdf-syntax-ns#" xmlns:dc="http://purl.org/dc/elements/1.1/"
	 xmlns="http://www.w3.org/2000/svg" xmlns:xlink="http://www.w3.org/1999/xlink" x="0px" y="0px" width="96px" height="96px"
	 viewBox="0 0 96 96" enable-background="new 0 0 96 96" xml:space="preserve">
<filter  width="1.3839999" height="1.3839999" x="-0.192" y="-0.192" id="filter3794-7" color-interpolation-filters="sRGB">
	<feGaussianBlur  id="feGaussianBlur3796-7" stdDeviation="5.28"></feGaussianBlur>
</filter>
<filter  id="filter3174" color-interpolation-filters="sRGB">
	<feGaussianBlur  id="feGaussianBlur3176" stdDeviation="1.71"></feGaussianBlur>
</filter>
<g id="layer2" display="none">
	<g id="rect3745" display="inline" opacity="0.9" filter="url(#filter3174)" enable-background="new    ">
		
			<linearGradient id="SVGID_1_" gradientUnits="userSpaceOnUse" x1="41.6934" y1="-3.0483" x2="41.6934" y2="82.4497" gradientTransform="matrix(1.0059 0 0 -0.9942 6.0616 88.9679)">
			<stop  offset="0" style="stop-color:#000000"/>
			<stop  offset="1" style="stop-color:#000000;stop-opacity:0.5882"/>
		</linearGradient>
		<path fill="url(#SVGID_1_)" d="M11,7h74c3.313,0,6,2.687,6,6v73c0,3.313-2.687,6-6,6H11c-3.313,0-6-2.687-6-6V13
			C5,9.687,7.687,7,11,7z"/>
	</g>
</g>
<g id="layer5">
	
		<linearGradient id="path3786_1_" gradientUnits="userSpaceOnUse" x1="35.918" y1="596.8389" x2="35.918" y2="512.732" gradientTransform="matrix(1.0238 0 0 1.0119 11.226 -512.0775)">
		<stop  offset="0" style="stop-color:#000000"/>
		<stop  offset="1" style="stop-color:#000000;stop-opacity:0.5882"/>
	</linearGradient>
	<path id="path3786" opacity="0.08" fill="url(#path3786_1_)" enable-background="new    " d="M12,95.031
		c-5.511,0-10.031-4.52-10.031-10.031V14C1.969,8.489,6.489,3.969,12,3.969h72c5.512,0,10.031,4.52,10.031,10.031v71
		c0,5.512-4.52,10.031-10.031,10.031H12z"/>
	
		<linearGradient id="path3778_1_" gradientUnits="userSpaceOnUse" x1="35.9185" y1="596.8389" x2="35.9185" y2="512.732" gradientTransform="matrix(1.0238 0 0 1.0119 11.226 -512.0775)">
		<stop  offset="0" style="stop-color:#000000"/>
		<stop  offset="1" style="stop-color:#000000;stop-opacity:0.5882"/>
	</linearGradient>
	<path id="path3778" opacity="0.1" fill="url(#path3778_1_)" enable-background="new    " d="M12,94.031
		c-4.972,0-9.031-4.06-9.031-9.031V14c0-4.972,4.06-9.031,9.031-9.031h72c4.972,0,9.031,4.06,9.031,9.031v71
		c0,4.972-4.06,9.031-9.031,9.031H12z"/>
	
		<linearGradient id="path3770_1_" gradientUnits="userSpaceOnUse" x1="35.9185" y1="596.8389" x2="35.9185" y2="512.732" gradientTransform="matrix(1.0238 0 0 1.0119 11.226 -512.0775)">
		<stop  offset="0" style="stop-color:#000000"/>
		<stop  offset="1" style="stop-color:#000000;stop-opacity:0.5882"/>
	</linearGradient>
	<path id="path3770" opacity="0.2" fill="url(#path3770_1_)" enable-background="new    " d="M12,93c-4.409,0-8-3.591-8-8V14
		c0-4.409,3.591-8,8-8h72c4.409,0,8,3.591,8,8v71c0,4.409-3.591,8-8,8H12z"/>
	
		<linearGradient id="rect3723_1_" gradientUnits="userSpaceOnUse" x1="35.9185" y1="596.8389" x2="35.9185" y2="512.732" gradientTransform="matrix(1.0238 0 0 1.0119 11.226 -512.0775)">
		<stop  offset="0" style="stop-color:#000000"/>
		<stop  offset="1" style="stop-color:#000000;stop-opacity:0.5882"/>
	</linearGradient>
	<path id="rect3723" opacity="0.3" fill="url(#rect3723_1_)" enable-background="new    " d="M12,92h72c3.866,0,7-3.134,7-7V14
		c0-3.866-3.134-7-7-7H12c-3.866,0-7,3.134-7,7v71C5,88.866,8.134,92,12,92z"/>
	
		<linearGradient id="rect3716_1_" gradientUnits="userSpaceOnUse" x1="44.0005" y1="599.8682" x2="44.0005" y2="515.7613" gradientTransform="matrix(1 0 0 1 4 -509)">
		<stop  offset="0" style="stop-color:#000000"/>
		<stop  offset="1" style="stop-color:#000000;stop-opacity:0.5882"/>
	</linearGradient>
	<path id="rect3716" opacity="0.45" fill="url(#rect3716_1_)" enable-background="new    " d="M12,91h72c3.313,0,6-2.687,6-6V13
		c0-3.313-2.687-6-6-6H12c-3.313,0-6,2.687-6,6v72C6,88.313,8.687,91,12,91z"/>
</g>
<g id="layer1">
	
		<linearGradient id="rect2419_2_" gradientUnits="userSpaceOnUse" x1="44" y1="1.0005" x2="44" y2="85.0005" gradientTransform="matrix(1 0 0 -1 4 91)">
		<stop  offset="0" style="stop-color:#970303"/>
		<stop  offset="1" style="stop-color:#F31D0C"/>
	</linearGradient>
	<path id="rect2419" fill="url(#rect2419_2_)" d="M12,6h72c3.313,0,6,2.687,6,6v72c0,3.313-2.687,6-6,6H12c-3.313,0-6-2.687-6-6V12
		C6,8.687,8.687,6,12,6z"/>
	<g>
		
			<linearGradient id="rect2419_3_" gradientUnits="userSpaceOnUse" x1="44.0015" y1="1.0005" x2="44.0015" y2="85.0005" gradientTransform="matrix(1 0 0 -1 4 91)">
			<stop  offset="0" style="stop-color:#330000"/>
			<stop  offset="0.3339" style="stop-color:#430807"/>
			<stop  offset="0.9817" style="stop-color:#6C1B17"/>
			<stop  offset="1" style="stop-color:#6D1C18"/>
		</linearGradient>
		<path id="rect2419_1_" fill="url(#rect2419_3_)" d="M12.001,6h72c3.314,0,6,2.687,6,6v72c0,3.314-2.686,6-6,6h-72
			c-3.313,0-6-2.686-6-6V12C6.001,8.686,8.688,6,12.001,6z"/>
		<linearGradient id="SVGID_2_" gradientUnits="userSpaceOnUse" x1="23.7603" y1="5.9995" x2="23.7603" y2="67.0688">
			<stop  offset="0" style="stop-color:#6D1C18"/>
			<stop  offset="0.0183" style="stop-color:#6C1B17"/>
			<stop  offset="0.6661" style="stop-color:#430807"/>
			<stop  offset="1" style="stop-color:#330000"/>
		</linearGradient>
		<path fill="url(#SVGID_2_)" d="M41.52,6H12.001c-3.313,0-6,2.687-6,6v55.069c5.106-3.301,10.299-6.424,15.568-9.381
			C21.714,38.612,27.355,19.36,41.52,6z"/>
		<linearGradient id="SVGID_3_" gradientUnits="userSpaceOnUse" x1="56.2754" y1="5.9995" x2="56.2754" y2="42.0186">
			<stop  offset="0" style="stop-color:#6D1C18"/>
			<stop  offset="0.0183" style="stop-color:#6C1B17"/>
			<stop  offset="0.6661" style="stop-color:#430807"/>
			<stop  offset="1" style="stop-color:#330000"/>
		</linearGradient>
		<path fill="url(#SVGID_3_)" d="M84.002,6H42.16c-8.551,9.587-20.561,23.981-19.552,36.019
			c21.286-9.091,44.072-15.755,67.394-17.834V12C90.002,8.686,87.316,6,84.002,6z"/>
		<linearGradient id="SVGID_4_" gradientUnits="userSpaceOnUse" x1="48.9355" y1="-18.9131" x2="105.8568" y2="62.1236">
			<stop  offset="0" style="stop-color:#FF4C00"/>
			<stop  offset="0.7301" style="stop-color:#D81E17"/>
			<stop  offset="1" style="stop-color:#871C18"/>
		</linearGradient>
		<path fill="url(#SVGID_4_)" d="M84.002,6h-3.721c-7.367,4.557-15.576,15.702-18.285,23.131c0,0,16.922,18.249,28.006,21.525V12
			C90.002,8.686,87.316,6,84.002,6z"/>
		<linearGradient id="SVGID_5_" gradientUnits="userSpaceOnUse" x1="29.6494" y1="-6.1729" x2="88.2242" y2="77.218">
			<stop  offset="0" style="stop-color:#FF4C00"/>
			<stop  offset="0.7301" style="stop-color:#D81E17"/>
			<stop  offset="1" style="stop-color:#871C18"/>
		</linearGradient>
		<path fill="url(#SVGID_5_)" d="M48.988,32.478c2.004-6.748,10.67-20,15.062-26.479c-0.771,0-1.814,0-2.547,0
			c-10.219,8.832-27.351,31.042-27.351,31.042c30.253,20.2,47.064,23.202,55.849,22.415v-1.016
			C72.979,57.084,48.988,32.478,48.988,32.478z"/>
		<linearGradient id="SVGID_6_" gradientUnits="userSpaceOnUse" x1="11.8447" y1="5.0752" x2="72.1177" y2="90.8836">
			<stop  offset="0" style="stop-color:#FF4C00"/>
			<stop  offset="0.7301" style="stop-color:#D81E17"/>
			<stop  offset="1" style="stop-color:#871C18"/>
		</linearGradient>
		<path fill="url(#SVGID_6_)" d="M24.416,40.999C30.843,22.375,38.141,11.69,43.743,6c-0.833,0-1.75,0-2.583,0
			C24.053,20.857,10.571,54.084,10.571,54.084c38.304,20.838,68.791,15.551,79.431,12.404v-0.965
			C63.59,69.178,24.416,40.999,24.416,40.999z"/>
		<linearGradient id="SVGID_7_" gradientUnits="userSpaceOnUse" x1="5.999" y1="48" x2="90.002" y2="48">
			<stop  offset="0" style="stop-color:#FF4C00"/>
			<stop  offset="0.7301" style="stop-color:#D81E17"/>
			<stop  offset="1" style="stop-color:#871C18"/>
		</linearGradient>
		<path fill="url(#SVGID_7_)" d="M6.125,12L6.001,84c-0.081,2.408,1.747,5.705,5.622,6h72.378c3.314,0,6-2.686,6-6V71.043
			C45.983,90.709,8.358,64.949,8.371,64.977C5.813,32.779,20.087,13.935,28.171,6H12.125C8.812,6,6.125,8.686,6.125,12z"/>
	</g>
	
		<linearGradient id="rect3728-1_1_" gradientUnits="userSpaceOnUse" x1="44" y1="85" x2="44" y2="27.1069" gradientTransform="matrix(1 0 0 -1 4 91)">
		<stop  offset="0" style="stop-color:#FFFFFF"/>
		<stop  offset="1" style="stop-color:#FFFFFF;stop-opacity:0"/>
	</linearGradient>
	<path id="rect3728-1" inkscape:connector-curvature="0" opacity="0.4" fill="url(#rect3728-1_1_)" enable-background="new    " d="
		M12,6c-3.324,0-6,2.676-6,6v2v68v2c0,0.335,0.042,0.65,0.094,0.969c0.049,0.295,0.097,0.597,0.188,0.875
		c0.01,0.03,0.021,0.063,0.031,0.094c0.099,0.287,0.235,0.547,0.375,0.812c0.145,0.273,0.315,0.535,0.5,0.781
		s0.374,0.474,0.594,0.688c0.44,0.428,0.943,0.814,1.5,1.094c0.278,0.14,0.573,0.247,0.875,0.344
		c-0.256-0.1-0.487-0.236-0.719-0.375c-0.007-0.004-0.024,0.004-0.031,0c-0.032-0.02-0.062-0.043-0.094-0.062
		c-0.121-0.076-0.231-0.164-0.344-0.25c-0.106-0.081-0.213-0.161-0.312-0.25c-0.178-0.162-0.348-0.346-0.5-0.531
		c-0.107-0.131-0.218-0.266-0.312-0.406c-0.025-0.039-0.039-0.086-0.062-0.125c-0.065-0.104-0.13-0.205-0.188-0.312
		c-0.101-0.195-0.206-0.416-0.281-0.625c-0.008-0.021-0.023-0.041-0.031-0.062c-0.032-0.092-0.036-0.188-0.062-0.281
		c-0.03-0.106-0.07-0.203-0.094-0.312C7.052,85.721,7,85.364,7,85v-2V15v-2c0-2.782,2.218-5,5-5h2h68h2c2.781,0,5,2.218,5,5v2v68v2
		c0,0.364-0.053,0.721-0.125,1.062c-0.044,0.207-0.088,0.397-0.156,0.594c-0.008,0.021-0.023,0.041-0.031,0.062
		c-0.062,0.174-0.139,0.367-0.219,0.531c-0.041,0.083-0.079,0.17-0.125,0.25c-0.055,0.098-0.127,0.188-0.188,0.281
		c-0.094,0.141-0.205,0.275-0.312,0.406c-0.143,0.174-0.303,0.348-0.469,0.5c-0.012,0.01-0.02,0.021-0.031,0.031
		c-0.139,0.125-0.285,0.234-0.438,0.344c-0.103,0.073-0.204,0.153-0.312,0.219c-0.008,0.004-0.023-0.004-0.031,0
		c-0.232,0.139-0.463,0.275-0.719,0.375c0.302-0.097,0.597-0.204,0.875-0.344c0.557-0.279,1.061-0.666,1.5-1.094
		c0.22-0.214,0.409-0.441,0.594-0.688s0.355-0.508,0.5-0.781c0.141-0.266,0.276-0.525,0.375-0.812
		c0.01-0.031,0.021-0.062,0.031-0.094c0.09-0.278,0.139-0.58,0.188-0.875C89.959,84.65,90,84.335,90,84v-2V14v-2
		c0-3.324-2.676-6-6-6H12z"/>
	
		<radialGradient id="rect3819_1_" cx="-44.1641" cy="710.1934" r="41.9998" gradientTransform="matrix(0 0.9929 1.0017 0 -663.4083 49.9581)" gradientUnits="userSpaceOnUse">
		<stop  offset="0" style="stop-color:#FF3920"/>
		<stop  offset="1" style="stop-color:#FF3920;stop-opacity:0"/>
	</radialGradient>
	<path id="rect3819" inkscape:connector-curvature="0" opacity="0.8" fill="url(#rect3819_1_)" enable-background="new    " d="
		M12,6c-3.324,0-6,2.676-6,6v36h84V12c0-3.324-2.676-6-6-6H12z"/>
	
		<radialGradient id="path3615_1_" cx="-3.2354" cy="-0.2305" r="42.0004" gradientTransform="matrix(1.1573 0 0 -0.9959 51.7447 89.7711)" gradientUnits="userSpaceOnUse">
		<stop  offset="0" style="stop-color:#FFFFFF"/>
		<stop  offset="1" style="stop-color:#FFFFFF;stop-opacity:0"/>
	</radialGradient>
	<path id="path3615" inkscape:connector-curvature="0" opacity="0.2" fill="url(#path3615_1_)" enable-background="new    " d="
		M12,90c-3.324,0-6-2.676-6-6v-2V14v-2c0-0.335,0.042-0.651,0.094-0.969c0.049-0.295,0.097-0.597,0.188-0.875
		c0.01-0.03,0.021-0.063,0.031-0.094C6.411,9.775,6.547,9.515,6.688,9.25c0.145-0.273,0.315-0.536,0.5-0.781
		s0.374-0.474,0.594-0.688c0.44-0.428,0.943-0.814,1.5-1.094c0.278-0.14,0.573-0.247,0.875-0.344C9.9,6.444,9.669,6.58,9.438,6.719
		c-0.007,0.004-0.024-0.004-0.031,0c-0.032,0.02-0.062,0.042-0.094,0.062c-0.121,0.077-0.231,0.164-0.344,0.25
		c-0.106,0.081-0.213,0.161-0.312,0.25c-0.178,0.162-0.348,0.345-0.5,0.531c-0.107,0.13-0.218,0.265-0.312,0.406
		C7.819,8.257,7.805,8.305,7.781,8.344c-0.065,0.103-0.13,0.205-0.188,0.312C7.493,8.851,7.388,9.072,7.312,9.281
		C7.305,9.303,7.289,9.322,7.281,9.344C7.25,9.436,7.246,9.531,7.219,9.625c-0.03,0.106-0.07,0.203-0.094,0.312
		C7.052,10.279,7,10.636,7,11v2v68v2c0,2.781,2.218,5,5,5h2h68h2c2.781,0,5-2.219,5-5v-2V13v-2c0-0.364-0.053-0.721-0.125-1.062
		c-0.044-0.207-0.088-0.397-0.156-0.594c-0.008-0.022-0.023-0.041-0.031-0.062c-0.062-0.174-0.139-0.367-0.219-0.531
		c-0.041-0.083-0.079-0.17-0.125-0.25c-0.055-0.097-0.127-0.188-0.188-0.281c-0.094-0.141-0.205-0.276-0.312-0.406
		c-0.143-0.174-0.303-0.347-0.469-0.5c-0.012-0.01-0.02-0.021-0.031-0.031c-0.139-0.125-0.285-0.234-0.438-0.344
		c-0.103-0.073-0.204-0.153-0.312-0.219c-0.008-0.004-0.023,0.004-0.031,0C86.33,6.58,86.1,6.444,85.844,6.344
		c0.302,0.097,0.597,0.204,0.875,0.344c0.557,0.279,1.061,0.666,1.5,1.094c0.22,0.214,0.409,0.442,0.594,0.688
		s0.355,0.508,0.5,0.781c0.141,0.265,0.276,0.525,0.375,0.812c0.01,0.031,0.021,0.062,0.031,0.094
		c0.09,0.278,0.139,0.58,0.188,0.875C89.959,11.349,90,11.665,90,12v2v68v2c0,3.324-2.676,6-6,6H12z"/>
</g>
<g id="layer4">
	<g>
		<defs>
			<path id="SVGID_8_" d="M12,6h72c3.313,0,6,2.687,6,6v72c0,3.313-2.687,6-6,6H12c-3.313,0-6-2.687-6-6V12C6,8.687,8.687,6,12,6z"
				/>
		</defs>
		<clipPath id="SVGID_9_">
			<use xlink:href="#SVGID_8_"  overflow="visible"/>
		</clipPath>
		<g id="rect3171" opacity="0.1" clip-path="url(#SVGID_9_)" filter="url(#filter3794-7)" enable-background="new    ">
			
				<linearGradient id="SVGID_10_" gradientUnits="userSpaceOnUse" x1="44" y1="70.7793" x2="44" y2="-47.6611" gradientTransform="matrix(1 0 0 -1 4 91)">
				<stop  offset="0" style="stop-color:#FFFFFF"/>
				<stop  offset="1" style="stop-color:#FFFFFF;stop-opacity:0"/>
			</linearGradient>
			<path fill="url(#SVGID_10_)" d="M27,15h42c6.627,0,12,5.373,12,12v42c0,6.627-5.373,12-12,12H27c-6.627,0-12-5.373-12-12V27
				C15,20.373,20.373,15,27,15z"/>
			<path fill="none" stroke="#FFFFFF" stroke-width="0.5" stroke-linecap="round" d="M27,15h42c6.627,0,12,5.373,12,12v42
				c0,6.627-5.373,12-12,12H27c-6.627,0-12-5.373-12-12V27C15,20.373,20.373,15,27,15z"/>
		</g>
	</g>
</g>
</svg>
