<?xml version="1.0" encoding="UTF-8" standalone="no"?>
<!-- Created with Inkscape (http://www.inkscape.org/) -->

<svg
   xmlns:dc="http://purl.org/dc/elements/1.1/"
   xmlns:cc="http://creativecommons.org/ns#"
   xmlns:rdf="http://www.w3.org/1999/02/22-rdf-syntax-ns#"
   xmlns:svg="http://www.w3.org/2000/svg"
   xmlns="http://www.w3.org/2000/svg"
   xmlns:xlink="http://www.w3.org/1999/xlink"
   xmlns:sodipodi="http://sodipodi.sourceforge.net/DTD/sodipodi-0.dtd"
   xmlns:inkscape="http://www.inkscape.org/namespaces/inkscape"
   width="512"
   height="512"
   id="svg2"
   version="1.1"
   inkscape:version="0.48.0 r9654"
   sodipodi:docname="cs.svg">
  <defs
     id="defs4">
    <linearGradient
       gradientTransform="matrix(1.0238095,0,0,1.0119048,-1.1428571,-98.071429)"
       gradientUnits="userSpaceOnUse"
       xlink:href="#ButtonShadow-0"
       id="linearGradient3059"
       y2="90.238609"
       x2="32.251034"
       y1="6.1317081"
       x1="32.251034" />
    <linearGradient
       gradientTransform="translate(0,-97)"
       gradientUnits="userSpaceOnUse"
       xlink:href="#ButtonShadow-0"
       id="linearGradient3721"
       y2="90.238609"
       x2="32.251034"
       y1="6.1317081"
       x1="32.251034" />
    <linearGradient
       gradientTransform="matrix(1.0238095,0,0,1.0119048,-1.1428571,-98.071429)"
       gradientUnits="userSpaceOnUse"
       xlink:href="#ButtonShadow-0"
       id="linearGradient3725"
       y2="90.238609"
       x2="32.251034"
       y1="6.1317081"
       x1="32.251034" />
    <linearGradient
       gradientTransform="matrix(1.0238095,0,0,1.0119048,-1.1428571,-98.071429)"
       gradientUnits="userSpaceOnUse"
       xlink:href="#ButtonShadow-0"
       id="linearGradient3772"
       y2="90.238609"
       x2="32.251034"
       y1="6.1317081"
       x1="32.251034" />
    <linearGradient
       gradientTransform="matrix(1.0238095,0,0,1.0119048,-1.1428571,-98.071429)"
       gradientUnits="userSpaceOnUse"
       xlink:href="#ButtonShadow-0"
       id="linearGradient3780"
       y2="90.238609"
       x2="32.251034"
       y1="6.1317081"
       x1="32.251034" />
    <linearGradient
       gradientTransform="matrix(1.0058652,0,0,0.994169,100,0)"
       gradientUnits="userSpaceOnUse"
       id="ButtonShadow-0"
       y2="7.0165396"
       x2="45.447727"
       y1="92.539597"
       x1="45.447727">
      <stop
         offset="0"
         style="stop-color:#000000;stop-opacity:1"
         id="stop3750-8" />
      <stop
         offset="1"
         style="stop-color:#000000;stop-opacity:0.58823532"
         id="stop3752-5" />
    </linearGradient>
    <linearGradient
       gradientTransform="matrix(0,1,-1,0,96,0)"
       gradientUnits="userSpaceOnUse"
       xlink:href="#linearGradient3985"
       id="linearGradient3991"
       y2="48"
       x2="82.8125"
       y1="48"
       x1="13.1875" />
    <radialGradient
       gradientTransform="matrix(0.08428564,0,0,0.08428564,12.002509,12.007534)"
       gradientUnits="userSpaceOnUse"
       xlink:href="#XMLID_22_"
       id="radialGradient3972"
       fy="649.22662"
       fx="663.91144"
       r="427.12018"
       cy="649.22662"
       cx="663.91144" />
    <radialGradient
       gradientTransform="matrix(0.09487444,0,0,0.09487444,8.473189,8.6743156)"
       gradientUnits="userSpaceOnUse"
       xlink:href="#radialGradient29545"
       id="radialGradient3959"
       fy="783.16357"
       fx="375.21439"
       r="300.5752"
       cy="783.16357"
       cx="375.21439" />
    <linearGradient
       gradientTransform="matrix(-0.09487444,0,0,0.09487444,98.72485,8.6743156)"
       gradientUnits="userSpaceOnUse"
       xlink:href="#XMLID_4_"
       id="linearGradient3955"
       y2="643.30768"
       x2="480.12021"
       y1="815.45459"
       x1="429.84909" />
    <linearGradient
       gradientTransform="matrix(0.09487444,0,0,0.09487444,8.473189,8.6743156)"
       gradientUnits="userSpaceOnUse"
       xlink:href="#XMLID_5_"
       id="linearGradient3952"
       y2="560.35498"
       x2="278.14471"
       y1="634.63232"
       x1="220.9512" />
    <linearGradient
       gradientTransform="matrix(0.09487444,0,0,0.09487444,8.473189,8.6743156)"
       gradientUnits="userSpaceOnUse"
       xlink:href="#XMLID_5_"
       id="linearGradient3949"
       y2="565.86761"
       x2="328.18469"
       y1="684.01898"
       x1="237.20799" />
    <linearGradient
       gradientTransform="matrix(0.09487444,0,0,0.09487444,8.473189,8.6743156)"
       gradientUnits="userSpaceOnUse"
       xlink:href="#XMLID_5_"
       id="linearGradient3946"
       y2="612.60522"
       x2="335.09619"
       y1="704.23578"
       x1="264.5405" />
    <linearGradient
       gradientTransform="matrix(0.09487444,0,0,0.09487444,8.473189,8.6743156)"
       gradientUnits="userSpaceOnUse"
       xlink:href="#XMLID_5_"
       id="linearGradient3943"
       y2="626.00598"
       x2="373.12509"
       y1="713.54639"
       x1="319.186" />
    <linearGradient
       gradientTransform="matrix(0.09487444,0,0,0.09487444,8.473189,8.6743156)"
       gradientUnits="userSpaceOnUse"
       xlink:href="#XMLID_5_"
       id="linearGradient3940"
       y2="688.75092"
       x2="409.85471"
       y1="790.51508"
       x1="331.49609" />
    <linearGradient
       gradientTransform="matrix(0.08428564,0,0,0.08428564,12.002509,12.007535)"
       gradientUnits="userSpaceOnUse"
       xlink:href="#linearGradient5498"
       id="linearGradient3937"
       y2="630.52039"
       x2="361.1441"
       y1="-363.42487"
       x1="1508.4957" />
    <linearGradient
       gradientTransform="matrix(0.08428564,0,0,0.08428564,12.002509,12.007535)"
       gradientUnits="userSpaceOnUse"
       xlink:href="#linearGradient5498"
       id="linearGradient3934"
       y2="458.38397"
       x2="370.20648"
       y1="-309.6048"
       x1="370.62177" />
    <linearGradient
       gradientTransform="matrix(0.08428564,0,0,0.08428564,12.002509,12.007535)"
       gradientUnits="userSpaceOnUse"
       xlink:href="#linearGradient5498"
       id="linearGradient3931"
       y2="580.54669"
       x2="130.31757"
       y1="274.88394"
       x1="247.47713" />
    <linearGradient
       gradientTransform="matrix(0.08428564,0,0,0.08428564,12.002509,12.007535)"
       gradientUnits="userSpaceOnUse"
       xlink:href="#linearGradient5498"
       id="linearGradient3928"
       y2="491.06723"
       x2="185.21225"
       y1="756.76105"
       x1="220.36789" />
    <radialGradient
       gradientTransform="matrix(1.12563,0,0,1.12563,-41.8734,-39.5467)"
       gradientUnits="userSpaceOnUse"
       id="radialGradient29545"
       fy="783.16357"
       fx="375.21439"
       r="300.5752"
       cy="783.16357"
       cx="375.21439">
      <stop
         offset="0.0112"
         style="stop-color:#eeeeef;stop-opacity:0.941176"
         id="stop29547" />
      <stop
         offset="0.29210001"
         style="stop-color:#6193cf;stop-opacity:1"
         id="stop29549" />
      <stop
         offset="0.45750001"
         style="stop-color:#2c72c7;stop-opacity:1"
         id="stop29551" />
      <stop
         offset="0.6767"
         style="stop-color:#0057ae;stop-opacity:1"
         id="stop29553" />
      <stop
         offset="0.8653"
         style="stop-color:#004d9a;stop-opacity:1"
         id="stop29555" />
      <stop
         offset="1"
         style="stop-color:#00438a;stop-opacity:1"
         id="stop29557" />
    </radialGradient>
    <linearGradient
       id="linearGradient5498">
      <stop
         offset="0"
         style="stop-color:#eeeeee;stop-opacity:1"
         id="stop5500" />
      <stop
         offset="1"
         style="stop-color:#eeeeee;stop-opacity:0"
         id="stop5502" />
    </linearGradient>
    <mask
       id="XMLID_26_">
      <g
         id="g69">
        <linearGradient
           gradientUnits="userSpaceOnUse"
           id="XMLID_1_"
           y2="466.75449"
           x2="200.0733"
           y1="562.85791"
           x1="211.7222">
          <stop
             offset="0"
             style="stop-color:#ffffff;stop-opacity:1"
             id="stop72" />
          <stop
             offset="1"
             style="stop-color:#000000;stop-opacity:1"
             id="stop74" />
        </linearGradient>
        <ellipse
           style="fill:url(#XMLID_1_) #000000"
           id="ellipse76"
           ry="59.682999"
           rx="80.542"
           cy="495.98801"
           cx="203.617"
           sodipodi:cx="203.617"
           sodipodi:cy="495.98801"
           sodipodi:rx="80.542"
           sodipodi:ry="59.682999" />
      </g>
    </mask>
    <mask
       id="XMLID_2_">
      <g
         id="g86">
        <linearGradient
           gradientUnits="userSpaceOnUse"
           id="XMLID_3_"
           y2="563.47321"
           x2="186.92191"
           y1="397.62061"
           x1="206.09081">
          <stop
             offset="0"
             style="stop-color:#ffffff;stop-opacity:1"
             id="stop89" />
          <stop
             offset="0.1111"
             style="stop-color:#cbcbcb;stop-opacity:1"
             id="stop91" />
          <stop
             offset="0.2396"
             style="stop-color:#969696;stop-opacity:1"
             id="stop93" />
          <stop
             offset="0.3698"
             style="stop-color:#686868;stop-opacity:1"
             id="stop95" />
          <stop
             offset="0.4991"
             style="stop-color:#424242;stop-opacity:1"
             id="stop97" />
          <stop
             offset="0.62730002"
             style="stop-color:#252525;stop-opacity:1"
             id="stop99" />
          <stop
             offset="0.75419998"
             style="stop-color:#111111;stop-opacity:1"
             id="stop101" />
          <stop
             offset="0.87919998"
             style="stop-color:#040404;stop-opacity:1"
             id="stop103" />
          <stop
             offset="1"
             style="stop-color:#000000;stop-opacity:1"
             id="stop105" />
        </linearGradient>
        <ellipse
           style="fill:url(#XMLID_3_) #000000"
           id="ellipse107"
           ry="123.604"
           rx="160.94"
           cy="495.62299"
           cx="194.76401"
           sodipodi:cx="194.76401"
           sodipodi:cy="495.62299"
           sodipodi:rx="160.94"
           sodipodi:ry="123.604" />
      </g>
    </mask>
    <linearGradient
       gradientTransform="matrix(-1.12563,0,0,1.12563,1028.91,-39.5467)"
       gradientUnits="userSpaceOnUse"
       id="XMLID_4_"
       y2="643.30768"
       x2="480.12021"
       y1="815.45459"
       x1="429.84909">
      <stop
         offset="0"
         style="stop-color:#ffffff;stop-opacity:1"
         id="stop112" />
      <stop
         offset="1"
         style="stop-color:#e5eaf2;stop-opacity:1"
         id="stop114" />
    </linearGradient>
    <linearGradient
       gradientUnits="userSpaceOnUse"
       id="XMLID_5_"
       y2="560.35498"
       x2="278.14471"
       y1="634.63232"
       x1="220.9512">
      <stop
         offset="0"
         style="stop-color:#ffffff;stop-opacity:1"
         id="stop119" />
      <stop
         offset="1"
         style="stop-color:#193d6b;stop-opacity:1"
         id="stop121" />
    </linearGradient>
    <mask
       id="XMLID_10_">
      <g
         id="g159">
        <radialGradient
           gradientTransform="matrix(0.931,0,0,0.9299,28.7459,21.6629)"
           gradientUnits="userSpaceOnUse"
           id="XMLID_11_"
           fy="155.23289"
           fx="657.2124"
           r="606.95343"
           cy="155.23289"
           cx="657.2124">
          <stop
             offset="0"
             style="stop-color:#c9c9c8;stop-opacity:1"
             id="stop162" />
          <stop
             offset="0.0881"
             style="stop-color:#c4c4c4;stop-opacity:1"
             id="stop164" />
          <stop
             offset="0.2192"
             style="stop-color:#b8b8b7;stop-opacity:1"
             id="stop166" />
          <stop
             offset="0.37689999"
             style="stop-color:#a1a0a0;stop-opacity:1"
             id="stop168" />
          <stop
             offset="0.55559999"
             style="stop-color:#7f7f7e;stop-opacity:1"
             id="stop170" />
          <stop
             offset="0.75169998"
             style="stop-color:#4f4f4e;stop-opacity:1"
             id="stop172" />
          <stop
             offset="0.95950001"
             style="stop-color:#121212;stop-opacity:1"
             id="stop174" />
          <stop
             offset="1"
             style="stop-color:#000000;stop-opacity:1"
             id="stop176" />
        </radialGradient>
        <circle
           style="fill:url(#XMLID_11_) #000000"
           id="circle178"
           r="302.95401"
           cy="444.22601"
           cx="408.427"
           sodipodi:cx="408.427"
           sodipodi:cy="444.22601"
           sodipodi:rx="302.95401"
           sodipodi:ry="302.95401" />
      </g>
    </mask>
    <mask
       id="XMLID_13_">
      <g
         style="filter:url(#Adobe_OpacityMaskFilter_4_)"
         id="g193">
        <linearGradient
           gradientUnits="userSpaceOnUse"
           id="XMLID_14_"
           y2="417.81519"
           x2="372.38071"
           y1="266.93359"
           x1="340.0488">
          <stop
             offset="0"
             style="stop-color:#ffffff;stop-opacity:1"
             id="stop196" />
          <stop
             offset="0.0867"
             style="stop-color:#f8f8f8;stop-opacity:1"
             id="stop198" />
          <stop
             offset="0.2156"
             style="stop-color:#e4e4e4;stop-opacity:1"
             id="stop200" />
          <stop
             offset="0.37079999"
             style="stop-color:#c2c2c2;stop-opacity:1"
             id="stop202" />
          <stop
             offset="0.54650003"
             style="stop-color:#949494;stop-opacity:1"
             id="stop204" />
          <stop
             offset="0.73940003"
             style="stop-color:#595959;stop-opacity:1"
             id="stop206" />
          <stop
             offset="0.94379997"
             style="stop-color:#151515;stop-opacity:1"
             id="stop208" />
          <stop
             offset="0.99440002"
             style="stop-color:#000000;stop-opacity:1"
             id="stop210" />
        </linearGradient>
        <ellipse
           style="fill:url(#XMLID_14_) #000000"
           id="ellipse212"
           ry="183.32201"
           rx="215.32401"
           cy="374.28201"
           cx="363.052"
           sodipodi:cx="363.052"
           sodipodi:cy="374.28201"
           sodipodi:rx="215.32401"
           sodipodi:ry="183.32201" />
      </g>
    </mask>
    <mask
       id="XMLID_23_">
      <g
         style="filter:url(#Adobe_OpacityMaskFilter)"
         id="g31">
        <radialGradient
           gradientUnits="userSpaceOnUse"
           id="XMLID_24_"
           fy="-20.899401"
           fx="88.977501"
           r="673.11609"
           cy="-20.899401"
           cx="88.977501">
          <stop
             offset="0.30899999"
             style="stop-color:#ffffff;stop-opacity:1"
             id="stop34" />
          <stop
             offset="1"
             style="stop-color:#000000;stop-opacity:1"
             id="stop36" />
        </radialGradient>
        <ellipse
           style="fill:url(#XMLID_24_) #000000"
           id="ellipse38"
           ry="349.10599"
           rx="512.93402"
           cy="286.172"
           cx="295.89499"
           sodipodi:cx="295.89499"
           sodipodi:cy="286.172"
           sodipodi:rx="512.93402"
           sodipodi:ry="349.10599" />
      </g>
    </mask>
    <radialGradient
       gradientUnits="userSpaceOnUse"
       id="XMLID_22_"
       fy="621.17328"
       fx="622.72803"
       r="510.71881"
       cy="621.17328"
       cx="622.72803">
      <stop
         offset="0"
         style="stop-color:#ffffff;stop-opacity:1"
         id="stop14" />
      <stop
         offset="0.2814"
         style="stop-color:#e6e6e6;stop-opacity:1"
         id="stop16" />
      <stop
         offset="0.75150001"
         style="stop-color:#c0c0c0;stop-opacity:1"
         id="stop18" />
      <stop
         offset="1"
         style="stop-color:#b2b2b2;stop-opacity:1"
         id="stop20" />
    </radialGradient>
    <linearGradient
       gradientTransform="translate(0,-96)"
       gradientUnits="userSpaceOnUse"
       xlink:href="#radialGradient3809"
       id="linearGradient3617"
       y2="5.9877172"
       x2="48"
       y1="90"
       x1="48" />
    <clipPath
       id="clipPath3613">
      <rect
         style="fill:#ffffff;fill-opacity:1;fill-rule:nonzero;stroke:none"
         id="rect3615"
         y="6"
         x="6"
         ry="6"
         rx="6"
         height="84"
         width="84" />
    </clipPath>
    <radialGradient
       gradientTransform="matrix(1.1573129,0,0,0.99590774,-7.5510206,0.19713193)"
       gradientUnits="userSpaceOnUse"
       xlink:href="#linearGradient3737"
       id="radialGradient3619"
       fy="90.171875"
       fx="48"
       r="42"
       cy="90.171875"
       cx="48" />
    <linearGradient
       gradientUnits="userSpaceOnUse"
       xlink:href="#linearGradient3737"
       id="linearGradient3613"
       y2="138.66119"
       x2="48"
       y1="20.220806"
       x1="48" />
    <filter
       id="filter3794"
       color-interpolation-filters="sRGB"
       height="1.3839999"
       width="1.3839999"
       y="-0.192"
       x="-0.192">
      <feGaussianBlur
         stdDeviation="5.28"
         id="feGaussianBlur3796" />
    </filter>
    <linearGradient
       gradientUnits="userSpaceOnUse"
       xlink:href="#linearGradient3737"
       id="linearGradient3188"
       y2="63.893143"
       x2="36.357143"
       y1="6"
       x1="36.357143" />
    <filter
       id="filter3174"
       color-interpolation-filters="sRGB">
      <feGaussianBlur
         stdDeviation="1.71"
         id="feGaussianBlur3176" />
    </filter>
    <linearGradient
       id="linearGradient3737">
      <stop
         offset="0"
         style="stop-color:#ffffff;stop-opacity:1"
         id="stop3739" />
      <stop
         offset="1"
         style="stop-color:#ffffff;stop-opacity:0"
         id="stop3741" />
    </linearGradient>
    <linearGradient
       gradientTransform="scale(1.0058652,0.994169)"
       gradientUnits="userSpaceOnUse"
       id="ButtonShadow"
       y2="7.0165396"
       x2="45.447727"
       y1="92.539597"
       x1="45.447727">
      <stop
         offset="0"
         style="stop-color:#000000;stop-opacity:1"
         id="stop3750" />
      <stop
         offset="1"
         style="stop-color:#000000;stop-opacity:0.58823532"
         id="stop3752" />
    </linearGradient>
    <linearGradient
       id="linearGradient3985">
      <stop
         offset="0"
         style="stop-color:#000000;stop-opacity:1"
         id="stop3987" />
      <stop
         offset="1"
         style="stop-color:#000000;stop-opacity:0"
         id="stop3989" />
    </linearGradient>
    <radialGradient
       gradientUnits="userSpaceOnUse"
       id="radialGradient3809"
       fy="621.17328"
       fx="622.72803"
       r="510.71881"
       cy="621.17328"
       cx="622.72803">
      <stop
         offset="0"
         style="stop-color:#f0f0f0;stop-opacity:1"
         id="stop3811" />
      <stop
         offset="0.2814"
         style="stop-color:#e1e1e1;stop-opacity:1"
         id="stop3813" />
      <stop
         offset="0.75150001"
         style="stop-color:#c0c0c0;stop-opacity:1"
         id="stop3815" />
      <stop
         offset="1"
         style="stop-color:#b2b2b2;stop-opacity:1"
         id="stop3817" />
    </radialGradient>
    <linearGradient
       inkscape:collect="always"
       xlink:href="#linearGradient12117-6"
       id="linearGradient12123-9"
       x1="315.16757"
       y1="395.76303"
       x2="309.10669"
       y2="674.56512"
       gradientUnits="userSpaceOnUse"
       gradientTransform="matrix(1.2545834,0,0,1.2545834,-84.356356,-142.69323)" />
    <linearGradient
       inkscape:collect="always"
       id="linearGradient12117-6">
      <stop
         style="stop-color:#1c1c24;stop-opacity:1"
         offset="0"
         id="stop12119-3" />
      <stop
         style="stop-color:#373748;stop-opacity:1"
         offset="1"
         id="stop12121-4" />
    </linearGradient>
    <linearGradient
       inkscape:collect="always"
       xlink:href="#linearGradient12117-3"
       id="linearGradient13233-2"
       gradientUnits="userSpaceOnUse"
       gradientTransform="matrix(1.2094511,0,0,1.2094511,-114.61477,142.67254)"
       x1="315.16757"
       y1="395.76303"
       x2="309.10669"
       y2="674.56512" />
    <linearGradient
       inkscape:collect="always"
       id="linearGradient12117-3">
      <stop
         style="stop-color:#1c1c24;stop-opacity:1"
         offset="0"
         id="stop12119-4" />
      <stop
         style="stop-color:#373748;stop-opacity:1"
         offset="1"
         id="stop12121-2" />
    </linearGradient>
    <linearGradient
       gradientUnits="userSpaceOnUse"
       xlink:href="#linearGradient3737-0"
       id="linearGradient3613-4"
       y2="138.66119"
       x2="48"
       y1="20.220806"
       x1="48" />
    <linearGradient
       id="linearGradient3737-0">
      <stop
         offset="0"
         style="stop-color:#ffffff;stop-opacity:1"
         id="stop3739-1" />
      <stop
         offset="1"
         style="stop-color:#ffffff;stop-opacity:0"
         id="stop3741-4" />
    </linearGradient>
    <clipPath
       id="clipPath3613-8">
      <rect
         style="fill:#ffffff;fill-opacity:1;fill-rule:nonzero;stroke:none"
         id="rect3615-7"
         y="6"
         x="6"
         ry="6"
         rx="6"
         height="84"
         width="84" />
    </clipPath>
    <filter
       id="filter3794-2"
       color-interpolation-filters="sRGB"
       height="1.3839999"
       width="1.3839999"
       y="-0.192"
       x="-0.192">
      <feGaussianBlur
         stdDeviation="5.28"
         id="feGaussianBlur3796-3" />
    </filter>
    <linearGradient
       gradientTransform="translate(0,-96)"
       gradientUnits="userSpaceOnUse"
       xlink:href="#radialGradient3809-6"
       id="linearGradient3617-2"
       y2="5.9877172"
       x2="48"
       y1="90"
       x1="48" />
    <radialGradient
       gradientUnits="userSpaceOnUse"
       id="radialGradient3809-6"
       fy="621.17328"
       fx="622.72803"
       r="510.71881"
       cy="621.17328"
       cx="622.72803">
      <stop
         offset="0"
         style="stop-color:#f0f0f0;stop-opacity:1"
         id="stop3811-1" />
      <stop
         offset="0.2814"
         style="stop-color:#e1e1e1;stop-opacity:1"
         id="stop3813-8" />
      <stop
         offset="0.75150001"
         style="stop-color:#c0c0c0;stop-opacity:1"
         id="stop3815-4" />
      <stop
         offset="1"
         style="stop-color:#b2b2b2;stop-opacity:1"
         id="stop3817-1" />
    </radialGradient>
    <linearGradient
       gradientUnits="userSpaceOnUse"
       xlink:href="#linearGradient3737-0"
       id="linearGradient3188-9"
       y2="63.893143"
       x2="36.357143"
       y1="6"
       x1="36.357143" />
    <linearGradient
       id="linearGradient13264">
      <stop
         offset="0"
         style="stop-color:#ffffff;stop-opacity:1"
         id="stop13266" />
      <stop
         offset="1"
         style="stop-color:#ffffff;stop-opacity:0"
         id="stop13268" />
    </linearGradient>
    <radialGradient
       gradientTransform="matrix(1.1573129,0,0,0.99590774,-7.5510206,0.19713193)"
       gradientUnits="userSpaceOnUse"
       xlink:href="#linearGradient3737-0"
       id="radialGradient3619-1"
       fy="90.171875"
       fx="48"
       r="42"
       cy="90.171875"
       cx="48" />
    <linearGradient
       id="linearGradient13271">
      <stop
         offset="0"
         style="stop-color:#ffffff;stop-opacity:1"
         id="stop13273" />
      <stop
         offset="1"
         style="stop-color:#ffffff;stop-opacity:0"
         id="stop13275" />
    </linearGradient>
    <linearGradient
       gradientTransform="matrix(1.0238095,0,0,1.0119048,-1.1428571,-98.071429)"
       gradientUnits="userSpaceOnUse"
       xlink:href="#ButtonShadow-0-7"
       id="linearGradient3059-7"
       y2="90.238609"
       x2="32.251034"
       y1="6.1317081"
       x1="32.251034" />
    <linearGradient
       gradientTransform="matrix(1.0058652,0,0,0.994169,100,0)"
       gradientUnits="userSpaceOnUse"
       id="ButtonShadow-0-7"
       y2="7.0165396"
       x2="45.447727"
       y1="92.539597"
       x1="45.447727">
      <stop
         offset="0"
         style="stop-color:#000000;stop-opacity:1"
         id="stop3750-8-0" />
      <stop
         offset="1"
         style="stop-color:#000000;stop-opacity:0.58823532"
         id="stop3752-5-8" />
    </linearGradient>
    <linearGradient
       gradientTransform="matrix(1.0238095,0,0,1.0119048,-1.1428571,-98.071429)"
       gradientUnits="userSpaceOnUse"
       xlink:href="#ButtonShadow-0-7"
       id="linearGradient3780-7"
       y2="90.238609"
       x2="32.251034"
       y1="6.1317081"
       x1="32.251034" />
    <linearGradient
       gradientTransform="matrix(1.0058652,0,0,0.994169,100,0)"
       gradientUnits="userSpaceOnUse"
       id="linearGradient13282"
       y2="7.0165396"
       x2="45.447727"
       y1="92.539597"
       x1="45.447727">
      <stop
         offset="0"
         style="stop-color:#000000;stop-opacity:1"
         id="stop13284" />
      <stop
         offset="1"
         style="stop-color:#000000;stop-opacity:0.58823532"
         id="stop13286" />
    </linearGradient>
    <linearGradient
       gradientTransform="matrix(1.0238095,0,0,1.0119048,-1.1428571,-98.071429)"
       gradientUnits="userSpaceOnUse"
       xlink:href="#ButtonShadow-0-7"
       id="linearGradient3772-3"
       y2="90.238609"
       x2="32.251034"
       y1="6.1317081"
       x1="32.251034" />
    <linearGradient
       gradientTransform="matrix(1.0058652,0,0,0.994169,100,0)"
       gradientUnits="userSpaceOnUse"
       id="linearGradient13289"
       y2="7.0165396"
       x2="45.447727"
       y1="92.539597"
       x1="45.447727">
      <stop
         offset="0"
         style="stop-color:#000000;stop-opacity:1"
         id="stop13291" />
      <stop
         offset="1"
         style="stop-color:#000000;stop-opacity:0.58823532"
         id="stop13293" />
    </linearGradient>
    <linearGradient
       gradientTransform="matrix(1.0238095,0,0,1.0119048,-1.1428571,-98.071429)"
       gradientUnits="userSpaceOnUse"
       xlink:href="#ButtonShadow-0-7"
       id="linearGradient3725-2"
       y2="90.238609"
       x2="32.251034"
       y1="6.1317081"
       x1="32.251034" />
    <linearGradient
       gradientTransform="matrix(1.0058652,0,0,0.994169,100,0)"
       gradientUnits="userSpaceOnUse"
       id="linearGradient13296"
       y2="7.0165396"
       x2="45.447727"
       y1="92.539597"
       x1="45.447727">
      <stop
         offset="0"
         style="stop-color:#000000;stop-opacity:1"
         id="stop13298" />
      <stop
         offset="1"
         style="stop-color:#000000;stop-opacity:0.58823532"
         id="stop13300" />
    </linearGradient>
    <linearGradient
       gradientTransform="translate(0,-97)"
       gradientUnits="userSpaceOnUse"
       xlink:href="#ButtonShadow-0-7"
       id="linearGradient3721-8"
       y2="90.238609"
       x2="32.251034"
       y1="6.1317081"
       x1="32.251034" />
    <linearGradient
       gradientTransform="matrix(1.0058652,0,0,0.994169,100,0)"
       gradientUnits="userSpaceOnUse"
       id="linearGradient13303"
       y2="7.0165396"
       x2="45.447727"
       y1="92.539597"
       x1="45.447727">
      <stop
         offset="0"
         style="stop-color:#000000;stop-opacity:1"
         id="stop13305" />
      <stop
         offset="1"
         style="stop-color:#000000;stop-opacity:0.58823532"
         id="stop13307" />
    </linearGradient>
    <linearGradient
       y2="90.238609"
       x2="32.251034"
       y1="6.1317081"
       x1="32.251034"
       gradientTransform="translate(0,-97)"
       gradientUnits="userSpaceOnUse"
       id="linearGradient13323"
       xlink:href="#ButtonShadow-0-7"
       inkscape:collect="always" />
    <linearGradient
       inkscape:collect="always"
       xlink:href="#linearGradient12117-3-2"
       id="linearGradient13233-2-3"
       gradientUnits="userSpaceOnUse"
       gradientTransform="matrix(1.2094511,0,0,1.2094511,-114.61477,142.67254)"
       x1="315.16757"
       y1="395.76303"
       x2="309.10669"
       y2="674.56512" />
    <linearGradient
       inkscape:collect="always"
       id="linearGradient12117-3-2">
      <stop
         style="stop-color:#1c1c24;stop-opacity:1"
         offset="0"
         id="stop12119-4-9" />
      <stop
         style="stop-color:#373748;stop-opacity:1"
         offset="1"
         id="stop12121-2-4" />
    </linearGradient>
    <filter
       id="filter14028"
       inkscape:label="Inner Shadow"
       inkscape:menu="Shadows and Glows"
       inkscape:menu-tooltip="Adds a colorizable drop shadow inside"
       color-interpolation-filters="sRGB">
      <feMorphology
         id="feMorphology14030"
         radius="4.3"
         in="SourceAlpha"
         result="result91" />
      <feComposite
         id="feComposite14032"
         in2="result91"
         operator="out"
         in="SourceGraphic" />
      <feGaussianBlur
         id="feGaussianBlur14034"
         result="result0"
         stdDeviation="1.2" />
      <feDiffuseLighting
         id="feDiffuseLighting14036"
         diffuseConstant="1"
         result="result92">
        <feDistantLight
           id="feDistantLight14038"
           elevation="66"
           azimuth="225" />
      </feDiffuseLighting>
      <feBlend
         id="feBlend14040"
         in2="SourceGraphic"
         mode="multiply"
         result="result93" />
      <feComposite
         id="feComposite14042"
         in2="SourceAlpha"
         operator="in"
         result="fbSourceGraphic" />
      <feColorMatrix
         result="fbSourceGraphicAlpha"
         in="fbSourceGraphic"
         values="0 0 0 -1 0 0 0 0 -1 0 0 0 0 -1 0 0 0 0 1 0"
         id="feColorMatrix14100" />
      <feGaussianBlur
         id="feGaussianBlur14102"
         stdDeviation="4"
         result="result8"
         in="fbSourceGraphic" />
      <feOffset
         id="feOffset14104"
         dx="4"
         dy="4"
         result="result11" />
      <feComposite
         id="feComposite14106"
         in2="result11"
         result="result6"
         in="fbSourceGraphic"
         operator="in" />
      <feFlood
         id="feFlood14108"
         result="result10"
         in="result6"
         flood-opacity="1"
         flood-color="rgb(0,0,0)" />
      <feBlend
         id="feBlend14110"
         in2="result10"
         mode="normal"
         in="result6"
         result="result94" />
      <feComposite
         id="feComposite14112"
         in2="fbSourceGraphic"
         result="result2"
         operator="in" />
    </filter>
    <filter
       id="filter14114"
       inkscape:label="Inner Shadow"
       inkscape:menu="Shadows and Glows"
       inkscape:menu-tooltip="Adds a colorizable drop shadow inside"
       color-interpolation-filters="sRGB">
      <feGaussianBlur
         id="feGaussianBlur14116"
         stdDeviation="4"
         result="result8" />
      <feOffset
         id="feOffset14118"
         dx="4"
         dy="4"
         result="result11" />
      <feComposite
         id="feComposite14120"
         in2="result11"
         result="result6"
         in="SourceGraphic"
         operator="in" />
      <feFlood
         id="feFlood14122"
         result="result10"
         in="result6"
         flood-opacity="1"
         flood-color="rgb(0,0,0)" />
      <feBlend
         id="feBlend14124"
         in2="result10"
         mode="normal"
         in="result6"
         result="result12" />
      <feComposite
         id="feComposite14126"
         in2="SourceGraphic"
         result="result2"
         operator="in" />
    </filter>
  </defs>
  <sodipodi:namedview
     id="base"
     pagecolor="#ffffff"
     bordercolor="#666666"
     borderopacity="1.0"
     inkscape:pageopacity="0.0"
     inkscape:pageshadow="2"
     inkscape:zoom="0.175"
     inkscape:cx="-1435.2543"
     inkscape:cy="144.17028"
     inkscape:document-units="px"
     inkscape:current-layer="layer1"
     showgrid="false"
     inkscape:snap-page="true"
     inkscape:window-width="1366"
     inkscape:window-height="648"
     inkscape:window-x="0"
     inkscape:window-y="24"
     inkscape:window-maximized="1" />
  <metadata
     id="metadata7">
    <rdf:RDF>
      <cc:Work
         rdf:about="">
        <dc:format>image/svg+xml</dc:format>
        <dc:type
           rdf:resource="http://purl.org/dc/dcmitype/StillImage" />
        <dc:title></dc:title>
      </cc:Work>
    </rdf:RDF>
  </metadata>
  <g
     inkscape:label="Layer 1"
     inkscape:groupmode="layer"
     id="layer1"
     transform="translate(0,-540.36218)">
    <g
       id="layer2"
       style="display:none"
       transform="matrix(5.5494656,0,0,5.5494656,34.471814,270.52077)">
      <rect
         width="86"
         height="85"
         rx="6"
         ry="6"
         x="5"
         y="7"
         id="rect3745"
         style="opacity:0.9;fill:url(#ButtonShadow);fill-opacity:1;fill-rule:nonzero;stroke:none;filter:url(#filter3174)" />
    </g>
    <path
       sodipodi:type="arc"
       style="opacity:0;fill:#4d4d4d;fill-opacity:1;stroke:#4d4d4d"
       id="path11881"
       sodipodi:cx="-180.31223"
       sodipodi:cy="478.59555"
       sodipodi:rx="114.65231"
       sodipodi:ry="45.456863"
       d="m -65.659912,478.59555 c 0,25.10513 -51.331588,45.45686 -114.652318,45.45686 -63.32072,0 -114.65231,-20.35173 -114.65231,-45.45686 0,-25.10513 51.33159,-45.45686 114.65231,-45.45686 63.32073,0 114.652318,20.35173 114.652318,45.45686 z" />
    <g
       id="layer4"
       style="display:inline"
       transform="matrix(5.3498296,0,0,5.3498296,-0.06131455,541.3094)">
      <path
         inkscape:connector-curvature="0"
         d="m 12,-95.03125 c -5.5110903,0 -10.03125,4.52016 -10.03125,10.03125 l 0,71 c 0,5.5110902 4.5201598,10.03125 10.03125,10.03125 l 72,0 c 5.51109,0 10.03125,-4.5201597 10.03125,-10.03125 l 0,-71 c 0,-5.51109 -4.52016,-10.03125 -10.03125,-10.03125 l -72,0 z"
         transform="scale(1,-1)"
         id="path3786"
         style="opacity:0.07999998;fill:url(#linearGradient3059-7);fill-opacity:1;fill-rule:nonzero;stroke:none;display:inline" />
      <path
         inkscape:connector-curvature="0"
         d="m 12,-94.03125 c -4.971633,0 -9.03125,4.059617 -9.03125,9.03125 l 0,71 c 0,4.9716329 4.0596171,9.03125 9.03125,9.03125 l 72,0 c 4.971633,0 9.03125,-4.059617 9.03125,-9.03125 l 0,-71 c 0,-4.971633 -4.059617,-9.03125 -9.03125,-9.03125 l -72,0 z"
         transform="scale(1,-1)"
         id="path3778"
         style="opacity:0.1;fill:url(#linearGradient3780-7);fill-opacity:1;fill-rule:nonzero;stroke:none;display:inline" />
      <path
         inkscape:connector-curvature="0"
         d="m 12,-93 c -4.4091333,0 -8,3.590867 -8,8 l 0,71 c 0,4.4091333 3.5908667,8 8,8 l 72,0 c 4.409133,0 8,-3.5908667 8,-8 l 0,-71 c 0,-4.409133 -3.590867,-8 -8,-8 l -72,0 z"
         transform="scale(1,-1)"
         id="path3770"
         style="opacity:0.2;fill:url(#linearGradient3772-3);fill-opacity:1;fill-rule:nonzero;stroke:none;display:inline" />
      <rect
         width="86"
         height="85"
         rx="7"
         ry="7"
         x="5"
         y="-92"
         transform="scale(1,-1)"
         id="rect3723"
         style="opacity:0.3;fill:url(#linearGradient3725-2);fill-opacity:1;fill-rule:nonzero;stroke:none;display:inline" />
      <rect
         width="84"
         height="84"
         rx="6"
         ry="6"
         x="6"
         y="-91"
         transform="scale(1,-1)"
         id="rect3716"
         style="opacity:0.45;fill:url(#linearGradient13323);fill-opacity:1;fill-rule:nonzero;stroke:none;display:inline" />
    </g>
    <g
       id="layer1-3"
       transform="matrix(5.3498296,0,0,5.3498296,-0.06131455,541.3094)">
      <rect
         width="84"
         height="84"
         rx="6"
         ry="6"
         x="6"
         y="-90"
         transform="scale(1,-1)"
         id="rect2419"
         style="fill:url(#linearGradient3617-2);fill-opacity:1;fill-rule:nonzero;stroke:none" />
      <path
         inkscape:connector-curvature="0"
         d="M 12,6 C 8.676,6 6,8.676 6,12 l 0,2 0,68 0,2 c 0,0.334721 0.04135,0.6507 0.09375,0.96875 0.0487,0.295596 0.09704,0.596915 0.1875,0.875 0.00988,0.03038 0.020892,0.0636 0.03125,0.09375 0.098865,0.287771 0.2348802,0.547452 0.375,0.8125 0.1445918,0.273507 0.3156161,0.535615 0.5,0.78125 0.1843839,0.245635 0.3737765,0.473472 0.59375,0.6875 0.439947,0.428056 0.94291,0.814526 1.5,1.09375 0.278545,0.139612 0.5734731,0.246947 0.875,0.34375 -0.2562018,-0.100222 -0.4867109,-0.236272 -0.71875,-0.375 -0.00741,-0.0044 -0.023866,0.0045 -0.03125,0 -0.031933,-0.0193 -0.062293,-0.04251 -0.09375,-0.0625 -0.120395,-0.0767 -0.2310226,-0.163513 -0.34375,-0.25 -0.1061728,-0.0808 -0.2132809,-0.161112 -0.3125,-0.25 C 8.4783201,88.557317 8.3087904,88.373362 8.15625,88.1875 8.0486711,88.057245 7.9378561,87.922215 7.84375,87.78125 7.818661,87.74287 7.805304,87.69538 7.78125,87.65625 7.716487,87.553218 7.6510225,87.451733 7.59375,87.34375 7.4927417,87.149044 7.3880752,86.928049 7.3125,86.71875 7.30454,86.69694 7.288911,86.6782 7.28125,86.65625 7.2494249,86.5643 7.2454455,86.469419 7.21875,86.375 7.1884177,86.268382 7.1483606,86.171969 7.125,86.0625 7.0521214,85.720988 7,85.364295 7,85 L 7,83 7,15 7,13 C 7,10.218152 9.2181517,8 12,8 l 2,0 68,0 2,0 c 2.781848,0 5,2.218152 5,5 l 0,2 0,68 0,2 c 0,0.364295 -0.05212,0.720988 -0.125,1.0625 -0.04415,0.206893 -0.08838,0.397658 -0.15625,0.59375 -0.0077,0.02195 -0.0233,0.04069 -0.03125,0.0625 -0.06274,0.173739 -0.138383,0.367449 -0.21875,0.53125 -0.04158,0.0828 -0.07904,0.169954 -0.125,0.25 -0.0546,0.09721 -0.126774,0.18835 -0.1875,0.28125 -0.09411,0.140965 -0.204921,0.275995 -0.3125,0.40625 -0.143174,0.17445 -0.303141,0.346998 -0.46875,0.5 -0.01117,0.0102 -0.01998,0.02115 -0.03125,0.03125 -0.138386,0.125556 -0.285091,0.234436 -0.4375,0.34375 -0.102571,0.07315 -0.204318,0.153364 -0.3125,0.21875 -0.0074,0.0045 -0.02384,-0.0044 -0.03125,0 -0.232039,0.138728 -0.462548,0.274778 -0.71875,0.375 0.301527,-0.0968 0.596455,-0.204138 0.875,-0.34375 0.55709,-0.279224 1.060053,-0.665694 1.5,-1.09375 0.219973,-0.214028 0.409366,-0.441865 0.59375,-0.6875 0.184384,-0.245635 0.355408,-0.507743 0.5,-0.78125 0.14012,-0.265048 0.276135,-0.524729 0.375,-0.8125 0.01041,-0.03078 0.02133,-0.06274 0.03125,-0.09375 0.09046,-0.278085 0.1388,-0.579404 0.1875,-0.875 C 89.95865,84.6507 90,84.334721 90,84 l 0,-2 0,-68 0,-2 C 90,8.676 87.324,6 84,6 L 12,6 z"
         id="rect3728"
         style="opacity:0.5;fill:url(#linearGradient3188-9);fill-opacity:1;fill-rule:nonzero;stroke:none" />
      <path
         inkscape:connector-curvature="0"
         d="M 12,90 C 8.676,90 6,87.324 6,84 L 6,82 6,14 6,12 c 0,-0.334721 0.04135,-0.6507 0.09375,-0.96875 0.0487,-0.295596 0.09704,-0.596915 0.1875,-0.875 C 6.29113,10.12587 6.302142,10.09265 6.3125,10.0625 6.411365,9.774729 6.5473802,9.515048 6.6875,9.25 6.8320918,8.976493 7.0031161,8.714385 7.1875,8.46875 7.3718839,8.223115 7.5612765,7.995278 7.78125,7.78125 8.221197,7.353194 8.72416,6.966724 9.28125,6.6875 9.559795,6.547888 9.8547231,6.440553 10.15625,6.34375 9.9000482,6.443972 9.6695391,6.580022 9.4375,6.71875 c -0.00741,0.0044 -0.023866,-0.0045 -0.03125,0 -0.031933,0.0193 -0.062293,0.04251 -0.09375,0.0625 -0.120395,0.0767 -0.2310226,0.163513 -0.34375,0.25 -0.1061728,0.0808 -0.2132809,0.161112 -0.3125,0.25 C 8.4783201,7.442683 8.3087904,7.626638 8.15625,7.8125 8.0486711,7.942755 7.9378561,8.077785 7.84375,8.21875 7.818661,8.25713 7.805304,8.30462 7.78125,8.34375 7.716487,8.446782 7.6510225,8.548267 7.59375,8.65625 7.4927417,8.850956 7.3880752,9.071951 7.3125,9.28125 7.30454,9.30306 7.288911,9.3218 7.28125,9.34375 7.2494249,9.4357 7.2454455,9.530581 7.21875,9.625 7.1884177,9.731618 7.1483606,9.828031 7.125,9.9375 7.0521214,10.279012 7,10.635705 7,11 l 0,2 0,68 0,2 c 0,2.781848 2.2181517,5 5,5 l 2,0 68,0 2,0 c 2.781848,0 5,-2.218152 5,-5 l 0,-2 0,-68 0,-2 C 89,10.635705 88.94788,10.279012 88.875,9.9375 88.83085,9.730607 88.78662,9.539842 88.71875,9.34375 88.71105,9.3218 88.69545,9.30306 88.6875,9.28125 88.62476,9.107511 88.549117,8.913801 88.46875,8.75 88.42717,8.6672 88.38971,8.580046 88.34375,8.5 88.28915,8.40279 88.216976,8.31165 88.15625,8.21875 88.06214,8.077785 87.951329,7.942755 87.84375,7.8125 87.700576,7.63805 87.540609,7.465502 87.375,7.3125 87.36383,7.3023 87.35502,7.29135 87.34375,7.28125 87.205364,7.155694 87.058659,7.046814 86.90625,6.9375 86.803679,6.86435 86.701932,6.784136 86.59375,6.71875 c -0.0074,-0.0045 -0.02384,0.0044 -0.03125,0 -0.232039,-0.138728 -0.462548,-0.274778 -0.71875,-0.375 0.301527,0.0968 0.596455,0.204138 0.875,0.34375 0.55709,0.279224 1.060053,0.665694 1.5,1.09375 0.219973,0.214028 0.409366,0.441865 0.59375,0.6875 0.184384,0.245635 0.355408,0.507743 0.5,0.78125 0.14012,0.265048 0.276135,0.524729 0.375,0.8125 0.01041,0.03078 0.02133,0.06274 0.03125,0.09375 0.09046,0.278085 0.1388,0.579404 0.1875,0.875 C 89.95865,11.3493 90,11.665279 90,12 l 0,2 0,68 0,2 c 0,3.324 -2.676,6 -6,6 l -72,0 z"
         id="path3615"
         style="opacity:0.25;fill:url(#radialGradient3619-1);fill-opacity:1;fill-rule:nonzero;stroke:none" />
    </g>
    <g
       id="layer5"
       transform="matrix(5.3498296,0,0,5.3498296,-0.06131455,541.3094)">
      <rect
         width="66"
         height="66"
         rx="12"
         ry="12"
         x="15"
         y="15"
         clip-path="url(#clipPath3613-8)"
         id="rect3171"
         style="opacity:0.1;fill:url(#linearGradient3613-4);fill-opacity:1;fill-rule:nonzero;stroke:#ffffff;stroke-width:0.5;stroke-linecap:round;stroke-linejoin:miter;stroke-miterlimit:4;stroke-opacity:1;stroke-dasharray:none;stroke-dashoffset:0;filter:url(#filter3794-2)" />
    </g>
    <path
       style="fill:url(#linearGradient13233-2);fill-opacity:1;filter:url(#filter14114)"
       d="m 312.49802,986.11151 c -13.75303,-9.01648 -14.37257,-10.00866 -16.19219,-25.93157 -0.81313,-7.11519 -4.72915,-25.78363 -8.70227,-41.48545 -6.72676,-26.58424 -7.91353,-29.32903 -17.24654,-39.88825 -5.51248,-6.23671 -14.55458,-17.40903 -20.09358,-24.82737 -9.55715,-12.79991 -17.09503,-19.93198 -21.06608,-19.93198 -2.97781,0 -25.27504,54.37967 -25.27504,61.64212 0,1.4308 -4.93838,12.88813 -10.97417,25.46076 l -10.97416,22.85929 -10.04802,0.0329 c -13.43917,0.044 -16.21073,1.96691 -13.41911,9.30939 5.31543,13.98066 -8.1857,23.01223 -22.70884,15.19099 -5.9512,-3.2049 -8.14295,-6.4418 -11.79697,-17.4221 -2.46828,-7.41721 -3.9136,-15.29502 -3.2118,-17.50618 2.64117,-8.32159 18.78198,-27.54293 27.59489,-32.8615 8.71658,-5.26043 9.3426,-6.3417 13.10707,-22.63928 2.1743,-9.41323 7.85574,-29.0951 12.62549,-43.73744 6.31052,-19.37245 8.28761,-28.4736 7.25996,-33.41989 -0.77672,-3.73855 -1.74007,-9.87647 -2.14078,-13.63978 -0.40069,-3.7633 -1.29071,-7.75199 -1.97784,-8.86377 -0.6871,-1.11175 1.1454,-11.61625 4.07224,-23.34329 2.92685,-11.72703 5.94737,-29.56907 6.7123,-39.64894 1.63005,-21.48035 5.74509,-30.01536 23.26082,-48.24497 9.53205,-9.92056 11.77474,-13.75632 13.03568,-22.29575 2.43162,-16.46713 8.14869,-23.73712 21.78391,-27.70098 6.42238,-1.86701 13.54321,-2.80228 15.82412,-2.07836 7.18976,2.28196 15.25098,9.87137 19.65572,18.5054 5.0682,9.93452 5.3013,14.61576 1.12823,22.65932 -4.72807,9.11337 -0.0465,13.10191 7.43331,6.33291 1.96407,-1.77746 9.10763,-4.34363 15.87463,-5.70264 10.95898,-2.20086 12.60426,-2.0598 15.05434,1.2909 4.01156,5.48612 29.49191,7.39273 33.54423,2.50999 3.92421,-4.7284 8.83768,-4.41167 8.83768,0.5697 0,5.50893 7.96442,7.25173 14.26721,3.12198 4.62082,-3.02767 5.21755,-3.0156 6.42466,0.13 1.54971,4.03842 13.00964,4.77901 14.29473,0.92373 1.50781,-4.52347 8.13582,0.0251 8.13582,5.58329 0,2.9319 0.97025,5.93036 2.15612,6.66327 1.18586,0.73291 2.1561,2.59786 2.1561,4.14431 0,1.90639 -4.49064,3.17219 -13.94674,3.93126 -13.01843,1.04497 -14.51109,1.72467 -22.42462,10.21118 -6.58366,7.06032 -9.48924,8.77062 -13.00474,7.65484 -2.48978,-0.79023 -4.52691,-0.52313 -4.52691,0.59355 0,4.43096 6.63652,20.46998 11.01314,26.61639 4.18868,5.88246 4.31311,6.83246 1.29064,9.85493 -1.83971,1.83969 -4.75113,2.80529 -6.46983,2.14577 -2.83328,-1.08725 -9.53659,-13.30496 -13.23655,-24.12551 -1.12168,-3.2804 -1.86131,-3.59251 -3.23729,-1.36614 -1.22232,1.97774 -4.74736,2.56559 -11.20366,1.8683 -8.61535,-0.93045 -10.1663,-0.30489 -18.15327,7.32194 -8.04929,7.68638 -10.24382,8.55653 -28.02955,11.1138 l -19.2965,2.77449 -1.89336,13.19072 c -1.45287,10.12189 -2.83232,13.43628 -5.92934,14.24616 -5.73983,1.50098 -5.93088,18.70811 -0.20763,18.70811 4.23955,0 34.98191,37.08834 34.98191,42.20302 0,1.72372 -1.13669,4.95416 -2.52598,7.17877 -2.11456,3.38596 -1.46383,5.40047 3.99535,12.36845 17.06226,21.77796 23.25815,33.5409 24.71071,46.91342 0.78603,7.23645 2.52461,23.24196 3.86353,35.56785 2.06177,18.98035 3.57906,24.45756 9.91272,35.78319 9.65991,17.27353 9.84859,23.80367 0.74045,25.62524 -10.71784,2.1436 -13.09435,1.5559 -24.83427,-6.14066 z M 286.93296,696.05516 c 3.55761,-2.35609 8.59417,-4.29023 11.19239,-4.29802 7.92276,-0.0237 7.57885,-3.76322 -0.48525,-5.27603 -7.1455,-1.34052 -10.13044,-0.16862 -22.24269,8.73236 -1.13793,0.83626 1.86868,5.15603 3.57736,5.13973 0.81942,-0.008 4.4006,-1.94195 7.95819,-4.29804 z"
       id="path12115"
       inkscape:connector-curvature="0" />
  </g>
</svg>
