<?xml version="1.0" encoding="UTF-8" standalone="no"?>
<!-- Created with Inkscape (http://www.inkscape.org/) -->

<svg
   xmlns:dc="http://purl.org/dc/elements/1.1/"
   xmlns:cc="http://creativecommons.org/ns#"
   xmlns:rdf="http://www.w3.org/1999/02/22-rdf-syntax-ns#"
   xmlns:svg="http://www.w3.org/2000/svg"
   xmlns="http://www.w3.org/2000/svg"
   xmlns:xlink="http://www.w3.org/1999/xlink"
   xmlns:sodipodi="http://sodipodi.sourceforge.net/DTD/sodipodi-0.dtd"
   xmlns:inkscape="http://www.inkscape.org/namespaces/inkscape"
   version="1.0"
   width="96"
   height="96"
   id="svg2408"
   inkscape:version="0.48.1 r9760"
   sodipodi:docname="soundkonverter.svg">
  <sodipodi:namedview
     pagecolor="#ffffff"
     bordercolor="#666666"
     borderopacity="1"
     objecttolerance="10"
     gridtolerance="10"
     guidetolerance="10"
     inkscape:pageopacity="0"
     inkscape:pageshadow="2"
     inkscape:window-width="640"
     inkscape:window-height="480"
     id="namedview116"
     showgrid="false"
     inkscape:zoom="3.1875"
     inkscape:cx="48"
     inkscape:cy="48"
     inkscape:window-x="408"
     inkscape:window-y="198"
     inkscape:window-maximized="0"
     inkscape:current-layer="svg2408" />
  <defs
     id="defs2410">
    <linearGradient
       id="linearGradient3696">
      <stop
         id="stop3698"
         style="stop-color:#2458a6;stop-opacity:1"
         offset="0" />
      <stop
         id="stop3700"
         style="stop-color:#598ad4;stop-opacity:1"
         offset="1" />
    </linearGradient>
    <linearGradient
       id="linearGradient4099">
      <stop
         id="stop4101"
         style="stop-color:#9ebe1c;stop-opacity:1"
         offset="0" />
      <stop
         id="stop4103"
         style="stop-color:#dae54d;stop-opacity:1"
         offset="1" />
    </linearGradient>
    <linearGradient
       id="linearGradient4091">
      <stop
         id="stop4093"
         style="stop-color:#000000;stop-opacity:1"
         offset="0" />
      <stop
         id="stop4095"
         style="stop-color:#000000;stop-opacity:0"
         offset="1" />
    </linearGradient>
    <linearGradient
       id="linearGradient4012">
      <stop
         id="stop4014"
         style="stop-color:#f5f5f5;stop-opacity:1"
         offset="0" />
      <stop
         id="stop4016"
         style="stop-color:#d7d7d7;stop-opacity:1"
         offset="1" />
    </linearGradient>
    <linearGradient
       id="linearGradient3749">
      <stop
         id="stop3751"
         style="stop-color:#989898;stop-opacity:1"
         offset="0" />
      <stop
         id="stop3757"
         style="stop-color:#616161;stop-opacity:1"
         offset="0.375" />
      <stop
         id="stop3753"
         style="stop-color:#1a1a1a;stop-opacity:1"
         offset="1" />
    </linearGradient>
    <linearGradient
       x1="45.447727"
       y1="92.539597"
       x2="45.447727"
       y2="7.0165396"
       id="ButtonShadow"
       gradientUnits="userSpaceOnUse"
       gradientTransform="scale(1.0058652,0.994169)">
      <stop
         id="stop3750"
         style="stop-color:#000000;stop-opacity:1"
         offset="0" />
      <stop
         id="stop3752"
         style="stop-color:#000000;stop-opacity:0.58823532"
         offset="1" />
    </linearGradient>
    <linearGradient
       id="linearGradient3737">
      <stop
         id="stop3739"
         style="stop-color:#ffffff;stop-opacity:1"
         offset="0" />
      <stop
         id="stop3741"
         style="stop-color:#ffffff;stop-opacity:0"
         offset="1" />
    </linearGradient>
    <filter
       color-interpolation-filters="sRGB"
       id="filter3174">
      <feGaussianBlur
         id="feGaussianBlur3176"
         stdDeviation="1.71" />
    </filter>
    <linearGradient
       x1="36.357143"
       y1="6"
       x2="36.357143"
       y2="63.893143"
       id="linearGradient3188"
       xlink:href="#linearGradient3737"
       gradientUnits="userSpaceOnUse" />
    <filter
       x="-0.192"
       y="-0.192"
       width="1.3839999"
       height="1.3839999"
       color-interpolation-filters="sRGB"
       id="filter3794">
      <feGaussianBlur
         id="feGaussianBlur3796"
         stdDeviation="5.28" />
    </filter>
    <linearGradient
       x1="48"
       y1="20.220806"
       x2="48"
       y2="138.66119"
       id="linearGradient3613"
       xlink:href="#linearGradient3737"
       gradientUnits="userSpaceOnUse" />
    <radialGradient
       cx="48"
       cy="90.171875"
       r="42"
       fx="48"
       fy="90.171875"
       id="radialGradient3619"
       xlink:href="#linearGradient3737"
       gradientUnits="userSpaceOnUse"
       gradientTransform="matrix(1.1573129,0,0,0.99590774,-7.5510206,0.19713193)" />
    <clipPath
       id="clipPath3613">
      <rect
         width="84"
         height="84"
         rx="6"
         ry="6"
         x="6"
         y="6"
         id="rect3615"
         style="fill:#ffffff;fill-opacity:1;fill-rule:nonzero;stroke:none" />
    </clipPath>
    <linearGradient
       x1="45.447727"
       y1="92.539597"
       x2="45.447727"
       y2="7.0165396"
       id="ButtonShadow-0"
       gradientUnits="userSpaceOnUse"
       gradientTransform="matrix(1.0058652,0,0,0.994169,100,0)">
      <stop
         id="stop3750-8"
         style="stop-color:#000000;stop-opacity:1"
         offset="0" />
      <stop
         id="stop3752-5"
         style="stop-color:#000000;stop-opacity:0.58823532"
         offset="1" />
    </linearGradient>
    <linearGradient
       x1="32.251034"
       y1="6.1317081"
       x2="32.251034"
       y2="90.238609"
       id="linearGradient3780"
       xlink:href="#ButtonShadow-0"
       gradientUnits="userSpaceOnUse"
       gradientTransform="matrix(1.0238095,0,0,1.0119048,-1.1428571,-98.071429)" />
    <linearGradient
       x1="32.251034"
       y1="6.1317081"
       x2="32.251034"
       y2="90.238609"
       id="linearGradient3772"
       xlink:href="#ButtonShadow-0"
       gradientUnits="userSpaceOnUse"
       gradientTransform="matrix(1.0238095,0,0,1.0119048,-1.1428571,-98.071429)" />
    <linearGradient
       x1="32.251034"
       y1="6.1317081"
       x2="32.251034"
       y2="90.238609"
       id="linearGradient3725"
       xlink:href="#ButtonShadow-0"
       gradientUnits="userSpaceOnUse"
       gradientTransform="matrix(1.0238095,0,0,1.0119048,-1.1428571,-98.071429)" />
    <linearGradient
       x1="32.251034"
       y1="6.1317081"
       x2="32.251034"
       y2="90.238609"
       id="linearGradient3721"
       xlink:href="#ButtonShadow-0"
       gradientUnits="userSpaceOnUse"
       gradientTransform="translate(0,-97)" />
    <linearGradient
       x1="32.251034"
       y1="6.1317081"
       x2="32.251034"
       y2="90.238609"
       id="linearGradient3026"
       xlink:href="#ButtonShadow-0"
       gradientUnits="userSpaceOnUse"
       gradientTransform="matrix(1.0238095,0,0,1.0119048,-1.1428571,-98.071429)" />
    <radialGradient
       cx="49.60294"
       cy="61.284744"
       r="10"
       fx="49.60294"
       fy="61.284744"
       id="radialGradient3763"
       xlink:href="#linearGradient3749"
       gradientUnits="userSpaceOnUse"
       gradientTransform="matrix(0.91804726,0.10129281,-0.08144708,0.78887573,9.05656,8.2573273)" />
    <linearGradient
       x1="67"
       y1="35"
       x2="57"
       y2="19"
       id="linearGradient3830-8"
       xlink:href="#linearGradient3811-7"
       gradientUnits="userSpaceOnUse"
       gradientTransform="translate(1,0)" />
    <linearGradient
       id="linearGradient3811-7">
      <stop
         id="stop3813-4"
         style="stop-color:#ffffff;stop-opacity:1"
         offset="0" />
      <stop
         id="stop3815-4"
         style="stop-color:#ffffff;stop-opacity:0"
         offset="1" />
    </linearGradient>
    <radialGradient
       cx="55.5"
       cy="36"
       r="0.5"
       fx="55.5"
       fy="36"
       id="radialGradient3817-3"
       xlink:href="#linearGradient3811-7"
       gradientUnits="userSpaceOnUse"
       gradientTransform="matrix(1,0,0,26,1,-900)" />
    <linearGradient
       x1="49.659111"
       y1="55.023781"
       x2="50.133987"
       y2="72.838806"
       id="linearGradient3775-9"
       xlink:href="#linearGradient3769-3"
       gradientUnits="userSpaceOnUse" />
    <linearGradient
       id="linearGradient3769-3">
      <stop
         id="stop3771-7"
         style="stop-color:#ffffff;stop-opacity:1"
         offset="0" />
      <stop
         id="stop3773-8"
         style="stop-color:#ffffff;stop-opacity:0"
         offset="1" />
    </linearGradient>
    <radialGradient
       cx="49.170681"
       cy="69.609459"
       r="10"
       fx="49.170681"
       fy="69.609459"
       id="radialGradient3755-8"
       xlink:href="#linearGradient3784-2"
       gradientUnits="userSpaceOnUse"
       gradientTransform="matrix(0.85251736,0.16517015,-0.12915082,0.69789091,15.599342,11.44984)" />
    <linearGradient
       id="linearGradient3784-2">
      <stop
         id="stop3786-4"
         style="stop-color:#828282;stop-opacity:1"
         offset="0" />
      <stop
         id="stop3790-2"
         style="stop-color:#1a1a1a;stop-opacity:1"
         offset="1" />
    </linearGradient>
    <linearGradient
       x1="56.037025"
       y1="49.333305"
       x2="56.037025"
       y2="13.593002"
       id="linearGradient3805-6"
       xlink:href="#linearGradient3799-3"
       gradientUnits="userSpaceOnUse" />
    <linearGradient
       id="linearGradient3799-3">
      <stop
         id="stop3801-3"
         style="stop-color:#1a1a1a;stop-opacity:1"
         offset="0" />
      <stop
         id="stop3803-2"
         style="stop-color:#000000;stop-opacity:1"
         offset="1" />
    </linearGradient>
    <linearGradient
       x1="40"
       y1="32"
       x2="40"
       y2="80"
       id="linearGradient4081"
       xlink:href="#linearGradient4012"
       gradientUnits="userSpaceOnUse"
       gradientTransform="translate(0,-90)" />
    <linearGradient
       x1="59"
       y1="38.001213"
       x2="67"
       y2="38.001213"
       id="linearGradient4097"
       xlink:href="#linearGradient4091"
       gradientUnits="userSpaceOnUse" />
    <linearGradient
       x1="38"
       y1="74"
       x2="70"
       y2="49"
       id="linearGradient4105"
       xlink:href="#linearGradient4099"
       gradientUnits="userSpaceOnUse" />
    <linearGradient
       x1="22.111456"
       y1="62.983868"
       x2="40"
       y2="32"
       id="linearGradient4113"
       xlink:href="#linearGradient4099"
       gradientUnits="userSpaceOnUse" />
    <linearGradient
       x1="72"
       y1="47"
       x2="47.979176"
       y2="71.020821"
       id="linearGradient4128"
       xlink:href="#linearGradient3811-7"
       gradientUnits="userSpaceOnUse" />
    <linearGradient
       x1="37"
       y1="29"
       x2="26"
       y2="57"
       id="linearGradient4155"
       xlink:href="#linearGradient3769-3"
       gradientUnits="userSpaceOnUse" />
    <linearGradient
       x1="6"
       y1="48"
       x2="90"
       y2="48"
       id="linearGradient4163"
       xlink:href="#linearGradient3696"
       gradientUnits="userSpaceOnUse"
       gradientTransform="translate(-96,0)" />
    <linearGradient
       inkscape:collect="always"
       xlink:href="#linearGradient3169"
       id="linearGradient2874"
       gradientUnits="userSpaceOnUse"
       x1="-1.92"
       y1="14.274782"
       x2="64.695656"
       y2="27.798262" />
    <linearGradient
       id="linearGradient3169">
      <stop
         style="stop-color:#0000ff;stop-opacity:1;"
         offset="0"
         id="stop3171" />
      <stop
         style="stop-color:#ffffff;stop-opacity:1;"
         offset="1"
         id="stop3173" />
    </linearGradient>
  </defs>
  <metadata
     id="metadata2413">
    <rdf:RDF>
      <cc:Work
         rdf:about="">
        <dc:format>image/svg+xml</dc:format>
        <dc:type
           rdf:resource="http://purl.org/dc/dcmitype/StillImage" />
        <dc:title />
      </cc:Work>
    </rdf:RDF>
  </metadata>
  <g
     id="layer2"
     style="display:none">
    <rect
       width="86"
       height="85"
       rx="6"
       ry="6"
       x="5"
       y="7"
       id="rect3745"
       style="opacity:0.9;fill:url(#ButtonShadow);fill-opacity:1;fill-rule:nonzero;stroke:none;filter:url(#filter3174)" />
  </g>
  <g
     id="layer3">
    <path
       d="m 12,-95.03125 c -5.5110903,0 -10.03125,4.52016 -10.03125,10.03125 l 0,71 c 0,5.5110902 4.5201598,10.03125 10.03125,10.03125 l 72,0 c 5.51109,0 10.03125,-4.5201597 10.03125,-10.03125 l 0,-71 c 0,-5.51109 -4.52016,-10.03125 -10.03125,-10.03125 l -72,0 z"
       transform="scale(1,-1)"
       id="path3786"
       style="opacity:0.07999998;fill:url(#linearGradient3026);fill-opacity:1;fill-rule:nonzero;stroke:none;display:inline" />
    <path
       d="m 12,-94.03125 c -4.971633,0 -9.03125,4.059617 -9.03125,9.03125 l 0,71 c 0,4.9716329 4.0596171,9.03125 9.03125,9.03125 l 72,0 c 4.971633,0 9.03125,-4.059617 9.03125,-9.03125 l 0,-71 c 0,-4.971633 -4.059617,-9.03125 -9.03125,-9.03125 l -72,0 z"
       transform="scale(1,-1)"
       id="path3778"
       style="opacity:0.1;fill:url(#linearGradient3780);fill-opacity:1;fill-rule:nonzero;stroke:none;display:inline" />
    <path
       d="m 12,-93 c -4.4091333,0 -8,3.590867 -8,8 l 0,71 c 0,4.4091333 3.5908667,8 8,8 l 72,0 c 4.409133,0 8,-3.5908667 8,-8 l 0,-71 c 0,-4.409133 -3.590867,-8 -8,-8 l -72,0 z"
       transform="scale(1,-1)"
       id="path3770"
       style="opacity:0.2;fill:url(#linearGradient3772);fill-opacity:1;fill-rule:nonzero;stroke:none;display:inline" />
    <rect
       width="86"
       height="85"
       rx="7"
       ry="7"
       x="5"
       y="-92"
       transform="scale(1,-1)"
       id="rect3723"
       style="opacity:0.3;fill:url(#linearGradient3725);fill-opacity:1;fill-rule:nonzero;stroke:none;display:inline" />
    <rect
       width="84"
       height="84"
       rx="6"
       ry="6"
       x="6"
       y="-91"
       transform="scale(1,-1)"
       id="rect3716"
       style="opacity:0.45;fill:url(#linearGradient3721);fill-opacity:1;fill-rule:nonzero;stroke:none;display:inline" />
  </g>
  <g
     id="layer1">
    <rect
       width="84"
       height="84"
       rx="6"
       ry="6"
       x="-90"
       y="6"
       transform="matrix(0,-1,1,0,0,0)"
       id="rect2419"
       style="fill:url(#linearGradient4163);fill-opacity:1;fill-rule:nonzero;stroke:none" />
    <path
       d="M 12,6 C 8.676,6 6,8.676 6,12 l 0,2 0,68 0,2 c 0,0.334721 0.04135,0.6507 0.09375,0.96875 0.0487,0.295596 0.09704,0.596915 0.1875,0.875 0.00988,0.03038 0.020892,0.0636 0.03125,0.09375 0.098865,0.287771 0.2348802,0.547452 0.375,0.8125 0.1445918,0.273507 0.3156161,0.535615 0.5,0.78125 0.1843839,0.245635 0.3737765,0.473472 0.59375,0.6875 0.439947,0.428056 0.94291,0.814526 1.5,1.09375 0.278545,0.139612 0.5734731,0.246947 0.875,0.34375 -0.2562018,-0.100222 -0.4867109,-0.236272 -0.71875,-0.375 -0.00741,-0.0044 -0.023866,0.0045 -0.03125,0 -0.031933,-0.0193 -0.062293,-0.04251 -0.09375,-0.0625 -0.120395,-0.0767 -0.2310226,-0.163513 -0.34375,-0.25 -0.1061728,-0.0808 -0.2132809,-0.161112 -0.3125,-0.25 C 8.4783201,88.557317 8.3087904,88.373362 8.15625,88.1875 8.0486711,88.057245 7.9378561,87.922215 7.84375,87.78125 7.818661,87.74287 7.805304,87.69538 7.78125,87.65625 7.716487,87.553218 7.6510225,87.451733 7.59375,87.34375 7.4927417,87.149044 7.3880752,86.928049 7.3125,86.71875 7.30454,86.69694 7.288911,86.6782 7.28125,86.65625 7.2494249,86.5643 7.2454455,86.469419 7.21875,86.375 7.1884177,86.268382 7.1483606,86.171969 7.125,86.0625 7.0521214,85.720988 7,85.364295 7,85 L 7,83 7,15 7,13 C 7,10.218152 9.2181517,8 12,8 l 2,0 68,0 2,0 c 2.781848,0 5,2.218152 5,5 l 0,2 0,68 0,2 c 0,0.364295 -0.05212,0.720988 -0.125,1.0625 -0.04415,0.206893 -0.08838,0.397658 -0.15625,0.59375 -0.0077,0.02195 -0.0233,0.04069 -0.03125,0.0625 -0.06274,0.173739 -0.138383,0.367449 -0.21875,0.53125 -0.04158,0.0828 -0.07904,0.169954 -0.125,0.25 -0.0546,0.09721 -0.126774,0.18835 -0.1875,0.28125 -0.09411,0.140965 -0.204921,0.275995 -0.3125,0.40625 -0.143174,0.17445 -0.303141,0.346998 -0.46875,0.5 -0.01117,0.0102 -0.01998,0.02115 -0.03125,0.03125 -0.138386,0.125556 -0.285091,0.234436 -0.4375,0.34375 -0.102571,0.07315 -0.204318,0.153364 -0.3125,0.21875 -0.0074,0.0045 -0.02384,-0.0044 -0.03125,0 -0.232039,0.138728 -0.462548,0.274778 -0.71875,0.375 0.301527,-0.0968 0.596455,-0.204138 0.875,-0.34375 0.55709,-0.279224 1.060053,-0.665694 1.5,-1.09375 0.219973,-0.214028 0.409366,-0.441865 0.59375,-0.6875 0.184384,-0.245635 0.355408,-0.507743 0.5,-0.78125 0.14012,-0.265048 0.276135,-0.524729 0.375,-0.8125 0.01041,-0.03078 0.02133,-0.06274 0.03125,-0.09375 0.09046,-0.278085 0.1388,-0.579404 0.1875,-0.875 C 89.95865,84.6507 90,84.334721 90,84 l 0,-2 0,-68 0,-2 C 90,8.676 87.324,6 84,6 L 12,6 z"
       inkscape:connector-curvature="0"
       id="rect3728"
       style="opacity:0.35;fill:url(#linearGradient3188);fill-opacity:1;fill-rule:nonzero;stroke:none" />
    <path
       d="M 12,90 C 8.676,90 6,87.324 6,84 L 6,82 6,14 6,12 c 0,-0.334721 0.04135,-0.6507 0.09375,-0.96875 0.0487,-0.295596 0.09704,-0.596915 0.1875,-0.875 C 6.29113,10.12587 6.302142,10.09265 6.3125,10.0625 6.411365,9.774729 6.5473802,9.515048 6.6875,9.25 6.8320918,8.976493 7.0031161,8.714385 7.1875,8.46875 7.3718839,8.223115 7.5612765,7.995278 7.78125,7.78125 8.221197,7.353194 8.72416,6.966724 9.28125,6.6875 9.559795,6.547888 9.8547231,6.440553 10.15625,6.34375 9.9000482,6.443972 9.6695391,6.580022 9.4375,6.71875 c -0.00741,0.0044 -0.023866,-0.0045 -0.03125,0 -0.031933,0.0193 -0.062293,0.04251 -0.09375,0.0625 -0.120395,0.0767 -0.2310226,0.163513 -0.34375,0.25 -0.1061728,0.0808 -0.2132809,0.161112 -0.3125,0.25 C 8.4783201,7.442683 8.3087904,7.626638 8.15625,7.8125 8.0486711,7.942755 7.9378561,8.077785 7.84375,8.21875 7.818661,8.25713 7.805304,8.30462 7.78125,8.34375 7.716487,8.446782 7.6510225,8.548267 7.59375,8.65625 7.4927417,8.850956 7.3880752,9.071951 7.3125,9.28125 7.30454,9.30306 7.288911,9.3218 7.28125,9.34375 7.2494249,9.4357 7.2454455,9.530581 7.21875,9.625 7.1884177,9.731618 7.1483606,9.828031 7.125,9.9375 7.0521214,10.279012 7,10.635705 7,11 l 0,2 0,68 0,2 c 0,2.781848 2.2181517,5 5,5 l 2,0 68,0 2,0 c 2.781848,0 5,-2.218152 5,-5 l 0,-2 0,-68 0,-2 C 89,10.635705 88.94788,10.279012 88.875,9.9375 88.83085,9.730607 88.78662,9.539842 88.71875,9.34375 88.71105,9.3218 88.69545,9.30306 88.6875,9.28125 88.62476,9.107511 88.549117,8.913801 88.46875,8.75 88.42717,8.6672 88.38971,8.580046 88.34375,8.5 88.28915,8.40279 88.216976,8.31165 88.15625,8.21875 88.06214,8.077785 87.951329,7.942755 87.84375,7.8125 87.700576,7.63805 87.540609,7.465502 87.375,7.3125 87.36383,7.3023 87.35502,7.29135 87.34375,7.28125 87.205364,7.155694 87.058659,7.046814 86.90625,6.9375 86.803679,6.86435 86.701932,6.784136 86.59375,6.71875 c -0.0074,-0.0045 -0.02384,0.0044 -0.03125,0 -0.232039,-0.138728 -0.462548,-0.274778 -0.71875,-0.375 0.301527,0.0968 0.596455,0.204138 0.875,0.34375 0.55709,0.279224 1.060053,0.665694 1.5,1.09375 0.219973,0.214028 0.409366,0.441865 0.59375,0.6875 0.184384,0.245635 0.355408,0.507743 0.5,0.78125 0.14012,0.265048 0.276135,0.524729 0.375,0.8125 0.01041,0.03078 0.02133,0.06274 0.03125,0.09375 0.09046,0.278085 0.1388,0.579404 0.1875,0.875 C 89.95865,11.3493 90,11.665279 90,12 l 0,2 0,68 0,2 c 0,3.324 -2.676,6 -6,6 l -72,0 z"
       inkscape:connector-curvature="0"
       id="path3615"
       style="opacity:0.2;fill:url(#radialGradient3619);fill-opacity:1;fill-rule:nonzero;stroke:none" />
    <path
       d="m -59.247964,68.903788 5.656854,-9.797959 -3.863703,1.035276 c -2.287069,-8.535458 2.778251,-17.308849 11.313708,-19.595918 1.350616,-0.361897 2.753867,-0.562568 4.152127,-0.562569 l -0.0055,-7.989554 c -2.097391,0 -4.191218,0.281871 -6.217142,0.824716 -12.803224,3.430604 -20.401203,16.590691 -16.9706,29.393877 l -3.863703,1.035276 9.797959,5.656855 z"
       inkscape:connector-curvature="0"
       id="path3692"
       style="opacity:0.44672134;color:#000000;fill:#ff00ff;fill-opacity:1;fill-rule:nonzero;stroke:none;stroke-width:1;marker:none;visibility:visible;display:inline;overflow:visible;enable-background:accumulate" />
    <path
       d="m 66,64 a 18,18 0 1 1 -36,0 18,18 0 1 1 36,0 z"
       transform="matrix(0.05555555,0,0,0.05555555,-44.666666,52.444445)"
       id="path3698"
       style="opacity:0.4;color:#000000;fill:#ff0000;fill-opacity:1;fill-rule:nonzero;stroke:none;stroke-width:1;marker:none;visibility:visible;display:inline;overflow:visible;enable-background:accumulate" />
    <path
       d="m -22,48 -8,8 4,0 c 0,2.918394 -0.791337,5.644372 -2.15625,8 -0.01903,0.03284 -0.04324,0.06106 -0.0625,0.09375 -0.233068,0.397238 -0.457735,0.786832 -0.71875,1.15625 -0.02987,0.04228 -0.06353,0.08309 -0.09375,0.125 -0.05179,0.07145 -0.103317,0.148195 -0.15625,0.21875 -0.269062,0.360269 -0.580829,0.699488 -0.875,1.03125 -0.332652,0.37516 -0.66938,0.72456 -1.03125,1.0625 -0.0216,0.02017 -0.0408,0.04246 -0.0625,0.0625 -0.03265,0.03013 -0.06085,0.06389 -0.09375,0.09375 -0.326858,0.296767 -0.652519,0.577382 -1,0.84375 -0.02974,0.0228 -0.06387,0.03993 -0.09375,0.0625 -0.04085,0.03099 -0.08385,0.06314 -0.125,0.09375 -0.344761,0.255125 -0.700406,0.493548 -1.0625,0.71875 -0.0318,0.01978 -0.06182,0.04295 -0.09375,0.0625 -0.05994,0.03697 -0.127035,0.05756 -0.1875,0.09375 -0.344089,0.204563 -0.705321,0.41621 -1.0625,0.59375 -0.04099,0.02037 -0.08385,0.04249 -0.125,0.0625 -0.02909,0.01421 -0.06456,0.01721 -0.09375,0.03125 -0.432854,0.207228 -0.863902,0.39529 -1.3125,0.5625 -0.479549,0.178747 -0.974742,0.33667 -1.46875,0.46875 -0.452654,0.121023 -0.913142,0.231438 -1.375,0.3125 -0.04219,0.0074 -0.08274,0.02418 -0.125,0.03125 -0.330421,0.0548 -0.663068,0.09078 -1,0.125 -0.465707,0.0473 -0.929604,0.08727 -1.40625,0.09375 -0.07386,0.001 -0.144651,0 -0.21875,0 -0.144107,6.6e-5 -0.293221,0.0038 -0.4375,0 -0.08255,-0.0021 -0.167446,-0.02798 -0.25,-0.03125 -0.431221,-0.01835 -0.850336,-0.04 -1.28125,-0.09375 C -46.030143,71.617879 -48.08683,70.948319 -50,69.84375 l -4,6.9375 c 1.862125,1.075098 3.798924,1.873936 5.78125,2.40625 0.166283,0.04456 0.332818,0.08412 0.5,0.125 0.143944,0.03535 0.293237,0.06116 0.4375,0.09375 0.197711,0.04438 0.394994,0.08571 0.59375,0.125 0.363838,0.07253 0.728617,0.132259 1.09375,0.1875 0.207491,0.03117 0.416759,0.06802 0.625,0.09375 0.146347,0.01808 0.290839,0.0471 0.4375,0.0625 0.323398,0.03407 0.64521,0.0417 0.96875,0.0625 0.523354,0.03364 1.040144,0.06323 1.5625,0.0625 0.167076,-2.33e-4 0.333141,0.0037 0.5,0 0.144443,-0.0029 0.293695,-0.02578 0.4375,-0.03125 0.103837,-0.0042 0.208784,0.0056 0.3125,0 0.136354,-0.0069 0.270506,-0.02207 0.40625,-0.03125 0.269897,-0.01904 0.543706,-0.0344 0.8125,-0.0625 0.116161,-0.0118 0.228085,-0.0178 0.34375,-0.03125 0.278049,-0.03308 0.567254,-0.08229 0.84375,-0.125 0.104833,-0.01602 0.208118,-0.04513 0.3125,-0.0625 0.293788,-0.0493 0.583396,-0.09614 0.875,-0.15625 0.08504,-0.0174 0.16529,-0.0442 0.25,-0.0625 0.30122,-0.06546 0.60782,-0.110565 0.90625,-0.1875 0.244882,-0.06301 0.476958,-0.148275 0.71875,-0.21875 0.136619,-0.0398 0.270343,-0.08278 0.40625,-0.125 0.06263,-0.01948 0.125095,-0.04252 0.1875,-0.0625 0.312515,-0.0999 0.629161,-0.199874 0.9375,-0.3125 0.053,-0.01941 0.103424,-0.04273 0.15625,-0.0625 0.315899,-0.117881 0.62654,-0.212592 0.9375,-0.34375 0.0427,-0.01806 0.08242,-0.0442 0.125,-0.0625 0.311395,-0.133496 0.631615,-0.29077 0.9375,-0.4375 0.04213,-0.0203 0.08301,-0.04196 0.125,-0.0625 0.304591,-0.148258 0.607681,-0.307444 0.90625,-0.46875 0.04137,-0.02248 0.08378,-0.03979 0.125,-0.0625 0.297303,-0.162861 0.584232,-0.324268 0.875,-0.5 0.03975,-0.02415 0.0854,-0.03812 0.125,-0.0625 0.285959,-0.175137 0.564665,-0.37497 0.84375,-0.5625 0.04197,-0.02836 0.08322,-0.06514 0.125,-0.09375 0.182273,-0.124205 0.35212,-0.245518 0.53125,-0.375 0.130891,-0.09478 0.277366,-0.183909 0.40625,-0.28125 0.265392,-0.200512 0.554775,-0.412729 0.8125,-0.625 0.04552,-0.03757 0.07976,-0.0871 0.125,-0.125 0.04593,-0.03839 0.07933,-0.08624 0.125,-0.125 0.496302,-0.421214 0.973205,-0.847513 1.4375,-1.3125 0.05212,-0.05212 0.104605,-0.10365 0.15625,-0.15625 0.21562,-0.219964 0.41698,-0.458097 0.625,-0.6875 0.05951,-0.06547 0.128709,-0.121369 0.1875,-0.1875 0.704715,-0.794731 1.362623,-1.628364 1.96875,-2.53125 0.07621,-0.112811 0.144415,-0.229584 0.21875,-0.34375 0.132764,-0.20521 0.278911,-0.414493 0.40625,-0.625 0.08803,-0.144875 0.164974,-0.290634 0.25,-0.4375 C -19.174112,64.468282 -18,60.374439 -18,56 l 4,0 -8,-8 z"
       inkscape:connector-curvature="0"
       id="path3704"
       style="opacity:0.44672134;color:#000000;fill:#ff00ff;fill-opacity:1;fill-rule:nonzero;stroke:none;stroke-width:1;marker:none;visibility:visible;display:inline;overflow:visible;enable-background:accumulate" />
    <path
       d="M 158,49 151.3125,55.6875 151,56 l 2.875,0 c -1.52168,6.954377 -9.59454,12.695509 -18.25,12.90625 l -1.21875,6.65625 C 147.52364,75.243121 159.74516,66.537623 162.0625,56 L 165,56 158,49 z"
       inkscape:connector-curvature="0"
       id="path3708"
       style="opacity:0.4;color:#000000;fill:#000000;fill-opacity:1;fill-rule:nonzero;stroke:none;stroke-width:1;marker:none;visibility:visible;display:inline;overflow:visible;enable-background:accumulate" />
    <path
       d="m 135.1875,37.25 c -2.12371,0.49224 -4.19962,1.194307 -6.1875,2.09375 -12.56275,5.684191 -18.72056,17.743005 -13.75,26.9375 l 1.9375,-0.875 L 112,68 l 11,3 3,-10 -3.09375,1.5625 c -3.07046,-6.034785 0.96879,-13.826719 9.15625,-17.53125 1.31087,-0.593121 2.69331,-1.081652 4.09375,-1.40625 L 135.1875,37.25 z"
       inkscape:connector-curvature="0"
       id="path3710"
       style="opacity:0.4;color:#000000;fill:#000000;fill-opacity:1;fill-rule:nonzero;stroke:none;stroke-width:1;marker:none;visibility:visible;display:inline;overflow:visible;enable-background:accumulate" />
    <path
       d="m 124.15625,10 0,39.4375 c 1.32164,0.825929 2.40284,1.914151 3.125,3.25 0.26664,0.493237 0.56622,1.01271 0.71875,1.53125 l 0,-33.03125 c 3.72681,2.658135 12.67074,12.968337 8.34375,25.125 2.39632,-6.237329 2.61464,-12.926833 1.71875,-16.53125 -1.0841,-4.361655 -4.74543,-8.856964 -8.53125,-12.90625 -3.97703,-4.253811 -5.375,-6.875 -5.375,-6.875 z m 11.75,37.40625 c -0.40183,0.933587 -0.8668,1.858794 -1.375,2.75 0.53876,-0.921986 0.99568,-1.843815 1.375,-2.75 z"
       inkscape:connector-curvature="0"
       id="path3759"
       style="fill:#1a1a1a;fill-opacity:1;stroke:none" />
    <path
       d="m 60,63 a 10,8 0 1 1 -20,0 10,8 0 1 1 20,0 z"
       transform="matrix(0.92961385,-0.42061661,0.45976226,0.8504635,42.554285,23.45163)"
       id="path3761"
       style="color:#000000;fill:url(#radialGradient3763);fill-opacity:1;fill-rule:nonzero;stroke:none;stroke-width:1;marker:none;visibility:visible;display:inline;overflow:visible;enable-background:accumulate" />
  </g>
  <g
     id="layer5">
    <rect
       width="66"
       height="66"
       rx="12"
       ry="12"
       x="15"
       y="15"
       clip-path="url(#clipPath3613)"
       id="rect3171"
       style="opacity:0.1;fill:url(#linearGradient3613);fill-opacity:1;fill-rule:nonzero;stroke:#ffffff;stroke-width:0.5;stroke-linecap:round;stroke-linejoin:miter;stroke-miterlimit:4;stroke-opacity:1;stroke-dasharray:none;stroke-dashoffset:0;filter:url(#filter3794)" />
  </g>
  <g
     transform="matrix(1.4364494,0,0,1.4338155,19.499914,35.581911)"
     id="picturebottom">
    <path
       inkscape:connector-curvature="0"
       style="fill:#3d5630;fill-opacity:1;stroke:none"
       d="m 1.1603479,22.884556 0.083478,-4.204137 2.9008696,0.111084 c 6.0121145,-0.145009 9.8476275,-0.435179 12.3339125,-0.893699 1.027157,-0.189427 3.585627,-0.860211 4.071472,-1.054268 0.378444,-0.151158 0.993844,-0.401595 1.138325,-0.834495 0.05785,-0.173319 0.220817,-0.907824 0.260129,-1.734258 0.07996,-1.680885 0.482463,-2.009237 0.8383,-2.414513 0.337153,-0.383994 0.707846,-0.879666 1.610049,-0.937083 2.197225,-0.13983 5.115947,0.870026 7.673602,2.143457 2.074093,1.032672 3.87558,1.829363 6.645993,4.286065 1.417997,1.257426 2.568827,1.805551 3.006052,1.805551 l 0.0083,3.840001 -0.166957,4.090435 -20.118261,-0.08348 -20.2852173,0 0,-4.120662 z"
       id="path3165"
       sodipodi:nodetypes="cccsssssssscccccc" />
    <path
       inkscape:connector-curvature="0"
       style="fill:#d5c985;fill-opacity:1;stroke:none"
       d="M 40.128966,18.451626 C 39.839181,18.210788 39.086608,17.544571 38.558608,17.073171 34.68385,13.613782 31.686629,11.390084 27.895645,10.585882 26.94632,10.384497 26.647548,10.359337 25.160348,10.355553 c -1.570933,-0.004 -1.615274,0.508383 -2.080141,0.695704 -0.634729,0.255767 -1.231632,0.276503 -1.471663,0.909426 -0.149297,0.393677 0.140829,0.751675 0.08468,2.037792 -0.07641,1.750067 -0.166254,2.584602 -0.615561,2.786898 -0.320621,0.144357 -3.36061,0.905369 -4.265874,1.076559 -2.245024,0.424545 -5.864209,0.635803 -10.7262217,0.75258 -1.0330435,0.02481 -2.7370435,0.06445 -3.2765218,0.08808 l -1.4817391,-0.04051 0,-8.016262 L 1.5777412,2.3791234 21.445567,2.1286886 41.48035,2.4626017 41.647307,10.800691 c 0,8.944282 0.755626,9.098578 -0.182687,8.318753 l -1.335652,-0.667825 z"
       id="path3167"
       sodipodi:nodetypes="csssssssssccccccccc" />
    <rect
       style="fill:none;stroke:#000000;stroke-width:1;stroke-miterlimit:4;stroke-opacity:1;stroke-dasharray:none;stroke-dashoffset:0"
       id="rect2383"
       width="40.403477"
       height="24.626087"
       x="1.2521737"
       y="2.3373916" />
    <path
       inkscape:connector-curvature="0"
       style="fill:none;stroke:#000000;stroke-width:1px;stroke-linecap:butt;stroke-linejoin:miter;stroke-opacity:1"
       d="m 1.6695652,18.782609 c 15.4434778,-0.250435 15.5269568,-1.168696 18.9495658,-1.92 2.733616,-0.600062 -0.780071,-5.934093 3.756521,-6.093913 9.339805,-0.329033 16.194783,8.681738 17.113044,8.514782"
       id="path3155"
       sodipodi:nodetypes="csss" />
  </g>
  <g
     transform="matrix(1.4364494,0,0,1.4338155,13.923992,18.406049)"
     id="picturetop">
    <path
       inkscape:connector-curvature="0"
       style="fill:#8baeff;fill-opacity:1;stroke:none"
       d="m 27.895645,10.585882 c -1.142674,-0.29806 -5.963473,0.533242 -5.953188,1.291323 0.0057,0.420997 -0.694082,0.91323 -0.249235,2.12127 1.259242,3.419632 -4.262526,3.474937 -5.13187,3.779978 -2.161546,0.758458 -5.947687,0.635804 -10.8096998,0.752581 -1.0330435,0.02481 -2.4866087,-0.01903 -3.026087,0.0046 l -1.5652173,0.126449 0.1669565,-8.09974 0.083478,-8.0997403 19.9513046,0.083478 20.201739,0 -0.08348,8.0876543 c 0,8.944282 0.0043,8.681187 -0.933991,7.901362 0,0 -8.900838,-6.971089 -12.650712,-7.949221 z"
       id="path3235"
       sodipodi:nodetypes="cssssccccccccs" />
    <path
       inkscape:connector-curvature="0"
       style="fill:url(#linearGradient2874);fill-opacity:1;stroke:none"
       d="m 1.2438261,22.884556 0,-3.953702 2.8173913,-0.139351 c 6.0121146,-0.145009 9.8476276,-0.351701 12.3339126,-0.810221 1.027157,-0.189427 3.91954,-1.027167 4.405385,-1.221224 0.378444,-0.151158 1.1608,-0.234639 1.305281,-0.667539 0.05785,-0.173319 -0.363531,-0.907824 -0.324219,-1.734258 0.07996,-1.680885 0.315507,-2.426628 0.671344,-2.831904 0.337153,-0.383994 1.041759,-0.796188 1.943962,-0.853605 2.197225,-0.13983 5.533338,0.870026 8.090993,2.143457 2.074093,1.032672 4.042537,2.49719 6.81295,4.953892 1.417997,1.257426 1.567087,1.388159 2.004312,1.388159 l 0.342167,0.417392 -0.08348,3.673044 -0.166956,3.673043 -19.951305,0 -20.2017389,0 0,-4.037183 z"
       id="path3233"
       sodipodi:nodetypes="cccssssssssccccccc" />
    <path
       inkscape:connector-curvature="0"
       style="fill:none;stroke:#000000;stroke-width:1px;stroke-linecap:butt;stroke-linejoin:miter;stroke-opacity:1"
       d="m 1.6695652,18.782609 c 15.4434778,-0.250435 15.5269568,-1.168696 18.9495658,-1.92 2.733616,-0.600062 -0.780071,-5.934093 3.756521,-6.093913 9.339805,-0.329033 16.194783,8.514782 17.113044,8.347826"
       id="path3231"
       sodipodi:nodetypes="csss" />
    <rect
       style="fill:none;stroke:#000000;stroke-width:1;stroke-miterlimit:4;stroke-opacity:1;stroke-dasharray:none;stroke-dashoffset:0"
       id="rect3229"
       width="40.403477"
       height="24.626087"
       x="1.2521737"
       y="2.3373916" />
  </g>
  <g
     transform="matrix(1.4364494,0,0,1.4338155,13.504299,13.797891)"
     id="arrows">
    <path
       inkscape:connector-curvature="0"
       id="arrowleft"
       d="M 27.3125,24.71875 C 12.512742,28.331319 17.001122,31.987683 23.0625,34 l -0.53125,0.46875 4.4375,0.59375 -2.6875,-2.09375 -0.5625,0.46875 c -3.976784,-2.449017 -7.486515,-4.693121 3.59375,-4.71875 l 0,-4 z"
       style="fill:#d7ff35;fill-opacity:1;fill-rule:evenodd;stroke:none" />
    <path
       inkscape:connector-curvature="0"
       style="fill:#d7ff35;fill-opacity:1;fill-rule:evenodd;stroke:none"
       d="m 31.080465,35.469075 c 14.799758,-3.612569 10.311378,-7.268933 4.25,-9.28125 l 0.53125,-0.46875 -4.4375,-0.59375 2.6875,2.09375 0.5625,-0.46875 c 3.976784,2.449017 7.486515,4.693121 -3.59375,4.71875 l 0,4 z"
       id="arrowright" />
  </g>
</svg>
