<?xml version="1.0" encoding="utf-8"?>
<!-- Generator: Adobe Illustrator 13.0.2, SVG Export Plug-In . SVG Version: 6.00 Build 14948)  -->
<!DOCTYPE svg PUBLIC "-//W3C//DTD SVG 1.0//EN" "http://www.w3.org/TR/2001/REC-SVG-20010904/DTD/svg10.dtd">
<svg version="1.0"
	 id="svg2408" xmlns:dc="http://purl.org/dc/elements/1.1/" xmlns:cc="http://creativecommons.org/ns#" xmlns:rdf="http://www.w3.org/1999/02/22-rdf-syntax-ns#" xmlns:svg="http://www.w3.org/2000/svg" xmlns:inkscape="http://www.inkscape.org/namespaces/inkscape"
	 xmlns="http://www.w3.org/2000/svg" xmlns:xlink="http://www.w3.org/1999/xlink" x="0px" y="0px" width="96px" height="96px"
	 viewBox="0 0 96 96" enable-background="new 0 0 96 96" xml:space="preserve">
<filter  x="-0.192" y="-0.192" width="1.3839999" height="1.3839999" id="filter3794" color-interpolation-filters="sRGB">
	<feGaussianBlur  id="feGaussianBlur3796" stdDeviation="5.28"></feGaussianBlur>
</filter>
<filter  id="filter3174" color-interpolation-filters="sRGB">
	<feGaussianBlur  id="feGaussianBlur3176" stdDeviation="1.71"></feGaussianBlur>
</filter>
<g id="layer2" display="none">
	<g id="rect3745" display="inline" opacity="0.9" filter="url(#filter3174)" enable-background="new    ">
		
			<linearGradient id="SVGID_1_" gradientUnits="userSpaceOnUse" x1="-160.0034" y1="843.8252" x2="-160.0034" y2="758.3291" gradientTransform="matrix(1.0059 0 0 0.9942 208.9468 -746.9305)">
			<stop  offset="0" style="stop-color:#000000"/>
			<stop  offset="1" style="stop-color:#000000"/>
		</linearGradient>
		<path fill="url(#SVGID_1_)" d="M11,7h74c3.313,0,6,2.687,6,6v73c0,3.313-2.688,6-6,6H11c-3.313,0-6-2.688-6-6V13
			C5,9.687,7.687,7,11,7z"/>
	</g>
</g>
<g>
	<g id="layer3">
		
			<linearGradient id="path3786_1_" gradientUnits="userSpaceOnUse" x1="-168.4307" y1="-732.0015" x2="-168.4307" y2="-647.8955" gradientTransform="matrix(1.0238 0 0 -1.0119 220.4395 -648.8506)">
			<stop  offset="0" style="stop-color:#000000"/>
			<stop  offset="1" style="stop-color:#000000"/>
		</linearGradient>
		<path id="path3786" opacity="0.08" fill="url(#path3786_1_)" enable-background="new    " d="M12,95.031
			C6.489,95.031,1.969,90.511,1.969,85V14C1.969,8.489,6.489,3.969,12,3.969h72c5.512,0,10.031,4.521,10.031,10.031v71
			c0,5.512-4.52,10.031-10.031,10.031H12z"/>
		
			<linearGradient id="path3778_1_" gradientUnits="userSpaceOnUse" x1="-168.4312" y1="-732.0024" x2="-168.4312" y2="-647.8945" gradientTransform="matrix(1.0238 0 0 -1.0119 220.4395 -648.8506)">
			<stop  offset="0" style="stop-color:#000000"/>
			<stop  offset="1" style="stop-color:#000000"/>
		</linearGradient>
		<path id="path3778" opacity="0.1" fill="url(#path3778_1_)" enable-background="new    " d="M12,94.031
			c-4.972,0-9.031-4.061-9.031-9.031V14c0-4.972,4.06-9.031,9.031-9.031h72c4.973,0,9.031,4.06,9.031,9.031v71
			c0,4.973-4.061,9.031-9.031,9.031H12z"/>
		
			<linearGradient id="path3770_1_" gradientUnits="userSpaceOnUse" x1="-168.4312" y1="-732.0024" x2="-168.4312" y2="-647.8955" gradientTransform="matrix(1.0238 0 0 -1.0119 220.4395 -648.8506)">
			<stop  offset="0" style="stop-color:#000000"/>
			<stop  offset="1" style="stop-color:#000000"/>
		</linearGradient>
		<path id="path3770" opacity="0.2" fill="url(#path3770_1_)" enable-background="new    " d="M12,93c-4.409,0-8-3.591-8-8V14
			c0-4.409,3.591-8,8-8h72c4.409,0,8,3.591,8,8v71c0,4.409-3.591,8-8,8H12z"/>
		
			<linearGradient id="rect3723_1_" gradientUnits="userSpaceOnUse" x1="-168.4312" y1="-732.0024" x2="-168.4312" y2="-647.8953" gradientTransform="matrix(1.0238 0 0 -1.0119 220.4395 -648.8506)">
			<stop  offset="0" style="stop-color:#000000"/>
			<stop  offset="1" style="stop-color:#000000"/>
		</linearGradient>
		<path id="rect3723" opacity="0.3" fill="url(#rect3723_1_)" enable-background="new    " d="M12,92h72c3.866,0,7-3.134,7-7V14
			c0-3.866-3.134-7-7-7H12c-3.866,0-7,3.134-7,7v71C5,88.866,8.134,92,12,92z"/>
		
			<linearGradient id="rect3716_1_" gradientUnits="userSpaceOnUse" x1="-156.7998" y1="-740.7881" x2="-156.7998" y2="-656.6814" gradientTransform="matrix(1 0 0 -1 204.7998 -649.9199)">
			<stop  offset="0" style="stop-color:#000000"/>
			<stop  offset="1" style="stop-color:#000000"/>
		</linearGradient>
		<path id="rect3716" opacity="0.45" fill="url(#rect3716_1_)" enable-background="new    " d="M12,91h72c3.313,0,6-2.688,6-6V13
			c0-3.313-2.688-6-6-6H12c-3.313,0-6,2.687-6,6v72C6,88.313,8.687,91,12,91z"/>
	</g>
	<g id="layer1">
		
			<linearGradient id="rect2419_1_" gradientUnits="userSpaceOnUse" x1="-156.7998" y1="836.9199" x2="-156.7998" y2="752.9199" gradientTransform="matrix(1 0 0 1 204.7998 -746.9199)">
			<stop  offset="0" style="stop-color:#0A30EB"/>
			<stop  offset="1" style="stop-color:#17BDCC"/>
		</linearGradient>
		<path id="rect2419" fill="url(#rect2419_1_)" d="M12,6h72c3.313,0,6,2.687,6,6v72c0,3.313-2.688,6-6,6H12c-3.313,0-6-2.688-6-6V12
			C6,8.687,8.687,6,12,6z"/>
		
			<linearGradient id="rect3728_1_" gradientUnits="userSpaceOnUse" x1="-156.7998" y1="752.9199" x2="-156.7998" y2="810.813" gradientTransform="matrix(1 0 0 1 204.7998 -746.9199)">
			<stop  offset="0" style="stop-color:#FFFFFF"/>
			<stop  offset="1" style="stop-color:#FFFFFF"/>
		</linearGradient>
		<path id="rect3728" inkscape:connector-curvature="0" opacity="0.35" fill="url(#rect3728_1_)" enable-background="new    " d="
			M12,6c-3.324,0-6,2.676-6,6v2v68v2c0,0.335,0.042,0.65,0.094,0.969c0.049,0.295,0.097,0.598,0.188,0.875
			c0.01,0.03,0.021,0.063,0.031,0.094c0.099,0.287,0.235,0.547,0.375,0.813c0.145,0.272,0.315,0.535,0.5,0.781
			c0.185,0.245,0.374,0.474,0.594,0.688c0.44,0.428,0.943,0.813,1.5,1.094c0.278,0.14,0.573,0.246,0.875,0.344
			c-0.256-0.1-0.487-0.236-0.719-0.375c-0.007-0.004-0.024,0.004-0.031,0c-0.032-0.02-0.063-0.043-0.094-0.063
			c-0.121-0.076-0.231-0.164-0.344-0.25c-0.106-0.082-0.213-0.162-0.313-0.25c-0.178-0.162-0.348-0.347-0.5-0.531
			c-0.107-0.131-0.218-0.267-0.313-0.406c-0.025-0.039-0.039-0.086-0.063-0.125c-0.065-0.104-0.13-0.205-0.188-0.313
			c-0.101-0.195-0.206-0.416-0.281-0.625c-0.008-0.021-0.023-0.041-0.031-0.063c-0.032-0.093-0.036-0.188-0.063-0.281
			c-0.03-0.106-0.07-0.203-0.094-0.313C7.052,85.721,7,85.364,7,85v-2V15v-2c0-2.782,2.218-5,5-5h2h68h2c2.781,0,5,2.218,5,5v2v68v2
			c0,0.364-0.053,0.721-0.125,1.063c-0.044,0.207-0.088,0.397-0.156,0.595c-0.008,0.021-0.023,0.041-0.031,0.063
			c-0.063,0.174-0.139,0.366-0.219,0.53c-0.041,0.083-0.078,0.17-0.125,0.25c-0.055,0.099-0.127,0.188-0.188,0.281
			c-0.094,0.141-0.205,0.274-0.313,0.405c-0.143,0.174-0.303,0.349-0.469,0.5c-0.013,0.011-0.021,0.021-0.031,0.031
			c-0.139,0.125-0.284,0.234-0.438,0.344c-0.102,0.073-0.203,0.153-0.313,0.22c-0.008,0.004-0.023-0.005-0.031,0
			c-0.231,0.139-0.463,0.274-0.719,0.375c0.303-0.097,0.598-0.204,0.875-0.345c0.557-0.278,1.061-0.666,1.5-1.094
			c0.221-0.214,0.409-0.441,0.594-0.688c0.186-0.247,0.355-0.508,0.5-0.781c0.142-0.266,0.276-0.525,0.375-0.813
			c0.01-0.031,0.021-0.063,0.031-0.095c0.09-0.278,0.139-0.579,0.188-0.875C89.959,84.65,90,84.335,90,84v-2V14v-2
			c0-3.324-2.676-6-6-6H12z"/>
		
			<radialGradient id="path3615_1_" cx="-224.79" cy="840.1631" r="42.0006" gradientTransform="matrix(1.1573 0 0 0.9959 308.1503 -746.7196)" gradientUnits="userSpaceOnUse">
			<stop  offset="0" style="stop-color:#FFFFFF"/>
			<stop  offset="1" style="stop-color:#FFFFFF"/>
		</radialGradient>
		<path id="path3615" inkscape:connector-curvature="0" opacity="0.2" fill="url(#path3615_1_)" enable-background="new    " d="
			M12,90c-3.324,0-6-2.676-6-6v-2V14v-2c0-0.335,0.042-0.651,0.094-0.969c0.049-0.295,0.097-0.597,0.188-0.875
			c0.01-0.03,0.021-0.063,0.031-0.094C6.411,9.775,6.547,9.515,6.688,9.25c0.145-0.273,0.315-0.536,0.5-0.781
			c0.185-0.245,0.374-0.474,0.594-0.688c0.44-0.428,0.943-0.814,1.5-1.094c0.278-0.14,0.573-0.247,0.875-0.344
			C9.9,6.444,9.669,6.58,9.438,6.719c-0.007,0.004-0.024-0.004-0.031,0C9.375,6.739,9.344,6.761,9.313,6.782
			c-0.121,0.077-0.231,0.164-0.344,0.25c-0.106,0.081-0.213,0.161-0.313,0.25c-0.178,0.162-0.348,0.345-0.5,0.531
			c-0.107,0.13-0.218,0.265-0.313,0.406C7.819,8.257,7.805,8.305,7.781,8.344c-0.065,0.104-0.13,0.205-0.188,0.313
			c-0.1,0.194-0.205,0.415-0.28,0.624C7.305,9.303,7.289,9.322,7.281,9.344C7.25,9.436,7.246,9.531,7.219,9.625
			c-0.03,0.106-0.07,0.203-0.094,0.313C7.052,10.279,7,10.636,7,11v2v68v2c0,2.781,2.218,5,5,5h2h68h2c2.781,0,5-2.219,5-5v-2V13v-2
			c0-0.364-0.053-0.721-0.125-1.063c-0.044-0.207-0.088-0.397-0.156-0.594c-0.008-0.022-0.023-0.041-0.031-0.063
			c-0.063-0.174-0.139-0.367-0.219-0.531c-0.041-0.083-0.078-0.17-0.125-0.25c-0.055-0.097-0.127-0.188-0.188-0.281
			c-0.094-0.141-0.205-0.276-0.313-0.406c-0.143-0.174-0.303-0.347-0.469-0.5c-0.013-0.01-0.021-0.021-0.031-0.031
			c-0.139-0.125-0.284-0.234-0.438-0.344c-0.102-0.073-0.203-0.153-0.313-0.219c-0.008-0.004-0.023,0.004-0.031,0
			C86.33,6.58,86.1,6.444,85.844,6.344c0.303,0.097,0.598,0.204,0.875,0.344c0.557,0.279,1.061,0.666,1.5,1.094
			c0.221,0.214,0.409,0.442,0.594,0.688c0.186,0.246,0.355,0.508,0.5,0.781c0.142,0.265,0.276,0.525,0.375,0.813
			c0.01,0.031,0.021,0.063,0.031,0.094c0.09,0.278,0.139,0.58,0.188,0.875C89.959,11.349,90,11.665,90,12v2v68v2
			c0,3.324-2.676,6-6,6H12z"/>
	</g>
	<g id="layer5">
		<g>
			<g>
				<defs>
					<path id="SVGID_2_" d="M12,6h72c3.313,0,6,2.687,6,6v72c0,3.313-2.688,6-6,6H12c-3.313,0-6-2.688-6-6V12C6,8.687,8.687,6,12,6z
						"/>
				</defs>
				<clipPath id="SVGID_3_">
					<use xlink:href="#SVGID_2_"  overflow="visible"/>
				</clipPath>
				<g id="rect3171" opacity="0.1" clip-path="url(#SVGID_3_)" filter="url(#filter3794)" enable-background="new    ">
					
						<linearGradient id="SVGID_4_" gradientUnits="userSpaceOnUse" x1="-156.7998" y1="767.1406" x2="-156.7998" y2="885.5809" gradientTransform="matrix(1 0 0 1 204.7998 -746.9199)">
						<stop  offset="0" style="stop-color:#FFFFFF"/>
						<stop  offset="1" style="stop-color:#FFFFFF"/>
					</linearGradient>
					<path fill="url(#SVGID_4_)" d="M27,15h42c6.627,0,12,5.373,12,12v42c0,6.627-5.373,12-12,12H27c-6.627,0-12-5.373-12-12V27
						C15,20.373,20.373,15,27,15z"/>
					<path fill="none" stroke="#FFFFFF" stroke-width="0.5" stroke-linecap="round" d="M27,15h42c6.627,0,12,5.373,12,12v42
						c0,6.627-5.373,12-12,12H27c-6.627,0-12-5.373-12-12V27C15,20.373,20.373,15,27,15z"/>
				</g>
			</g>
		</g>
	</g>
	<g>
		<path fill="#FFD864" d="M48.813,62.256c-0.629,0.922-1.312,1.807-1.926,2.734c-1.805,2.734-3.437,6.418-4.377,8.637
			c-1.667,0.854-1.89,0.408-3.501-0.244c-0.776-0.313-1.476-0.361-2.067-0.41c-0.912-0.082-2.573,0.48-3.349,0.936
			c-1.023,0.607-1.678,1.207-2.255,2.074c-0.459,0.688-0.776,1.41-1.005,2.174c-0.188,0.623-0.866,2.668,0.204,2.816
			c3.741,0.521,6.253,0.508,9.339,0.408c3.066-0.107,9.479-0.59,14.674-0.621c5.197-0.039,13.016,0.377,16.484,0.41
			c2.535,0.027,4.762,0.053,7.223-0.465c0.383-0.08,0.529-0.131,0.582-0.465c0.098-0.602-0.023-1.285-0.188-1.857
			c-0.5-1.783-2.168-3.637-4-4.156c-1.113-0.314-2.195-0.307-3.33-0.104c-0.922,0.166-1.645,0.529-2.369,1.111l-4.129-1.857
			c0.066-1.5,0.023-2.721-0.492-4.129c-0.803-2.203-1.95-4.182-3.098-6.219c-0.664-1.186-1.154-2.322-1.984-3.408L48.813,62.256
			L48.813,62.256z"/>
		<path d="M48.26,61.885l-0.002-0.004l0.145-0.211l0.25-0.066l10.434-2.629l0.424-0.109l0.271,0.35
			c0.615,0.809,1.049,1.633,1.494,2.48c0.16,0.305,0.321,0.611,0.541,1.006l0.229,0.402c1.081,1.918,2.145,3.803,2.912,5.914
			c0.277,0.758,0.43,1.473,0.502,2.193c0.061,0.564,0.066,1.135,0.045,1.736l3.361,1.512c0.297-0.213,0.6-0.393,0.914-0.543
			c0.436-0.209,0.903-0.357,1.426-0.453c0.607-0.107,1.205-0.164,1.801-0.15c0.613,0.012,1.217,0.098,1.828,0.27
			c1.479,0.42,2.854,1.6,3.709,2.957c0.162,0.264,0.313,0.535,0.438,0.813c0.129,0.283,0.234,0.564,0.314,0.844v0.004
			c0.09,0.318,0.17,0.67,0.213,1.02c0.045,0.371,0.051,0.756-0.01,1.125c-0.059,0.367-0.191,0.596-0.441,0.771
			c-0.191,0.133-0.391,0.184-0.662,0.242c-2.506,0.525-4.752,0.506-7.299,0.479h-0.063c-1.375-0.012-3.381-0.084-5.629-0.162
			c-3.518-0.125-7.639-0.27-10.781-0.252h-0.066c-3.4,0.023-7.375,0.24-10.558,0.42c-1.594,0.084-2.986,0.166-4.063,0.199
			l-0.039,0.004c-1.555,0.051-2.965,0.08-4.465,0.031c-1.51-0.051-3.095-0.18-4.987-0.443c-1.105-0.152-1.262-1.135-1.122-2.146
			c0.077-0.547,0.246-1.102,0.346-1.43l0.029-0.092l-0.003-0.004c0.122-0.4,0.27-0.801,0.45-1.197
			c0.181-0.395,0.393-0.777,0.642-1.152c0.32-0.479,0.662-0.885,1.063-1.252c0.4-0.367,0.854-0.697,1.41-1.025
			c0.639-0.375,1.677-0.643,2.578-0.721c0.176-0.02,0.347-0.029,0.513-0.029c0.185-0.004,0.345,0,0.479,0.012h0.006l0.091,0.01
			c0.615,0.055,1.335,0.113,2.167,0.453c0.737,0.299,1.196,0.482,1.582,0.492c0.342,0.008,0.721-0.115,1.32-0.41
			c0.47-1.094,1.083-2.49,1.786-3.93c0.757-1.553,1.626-3.18,2.554-4.588c0.354-0.533,0.718-1.037,1.081-1.541
			C47.688,62.697,47.962,62.318,48.26,61.885L48.26,61.885z M48.705,62.738L48.705,62.738c-1.086,0.277-4.323,7.133-5.582,11.146
			l-0.094,0.219l-0.218,0.115c-0.939,0.477-1.54,0.676-2.173,0.658c-0.63-0.014,0.075-0.43-0.798-0.783
			c-3.552-2.219-6.672-0.146-8.039,1.934c-0.354,0.535-0.829,1.729-1.008,2.328l-0.004,0.004l-0.028,0.094
			c-0.056,0.186-0.587,2.098-0.285,2.141c1.924,0.482,3.34,0.635,4.794,0.686c1.521,0.051,3.395,0.137,4.648-0.25
			c0.991-0.035,2.384-0.436,4.002-0.521c3.181-0.178,7.148-0.395,10.626-0.42h0.068c3.189-0.018,7.313,0.129,10.834,0.252
			c2.256,0.076,4.287,0.459,5.613,0.469c1.975,0.244,5.299,0.35,7.18-0.625c0.043-0.332-0.049-0.658-0.063-0.805
			c-0.854-5.328-5.889-6.631-9.209-4.012c-1.271,1.021-2.783-0.277-4.25-0.938l-0.59-0.633l0.021-0.453
			c0.035-0.723,0.041-1.371-0.021-2c-0.061-0.613-0.189-1.221-0.428-1.871c-0.961-2.625-1.826-5.756-4.375-9.736L48.705,62.738
			L48.705,62.738z"/>
		<path fill="#FFD864" d="M68.252,72.041c0.32-0.203,0.607-0.32,0.967-0.604c2.402-1.924,2.865-4.875,2.053-8.123
			c2.168,1.711,3.184,3.807,1.701,6.551c1.191-1.189,1.424-1.891,1.457-3.803c1.809,4.467-0.721,7.893-5.113,8.74
			C68.941,74.223,68.428,73.225,68.252,72.041L68.252,72.041z"/>
		<path d="M68.059,71.725c0.137-0.084,0.23-0.135,0.326-0.189c0.195-0.109,0.395-0.221,0.602-0.387h0.002
			c0.318-0.26,0.6-0.529,0.846-0.818c0.246-0.291,0.461-0.596,0.641-0.918c0.934-1.67,1.002-3.758,0.438-6.008l-0.268-1.059
			l0.857,0.676c1.145,0.9,1.98,1.91,2.348,3.07c0.084,0.275,0.143,0.557,0.174,0.848c0.295-0.449,0.355-1.146,0.316-2.1l0.438,1.082
			c0.227,0.555,0.383,1.09,0.482,1.611c0.318,1.65,0.049,3.127-0.682,4.344c-0.723,1.213-1.896,2.16-3.385,2.766
			c-0.561,0.227-1.162,0.402-1.806,0.523l-0.243,0.051l-0.141-0.209v-0.004c-0.063-0.098-0.119-0.191-0.174-0.283
			c-0.051-0.086-0.109-0.191-0.18-0.328c-0.316-0.604-0.635-1.4-0.768-2.297l-0.035-0.24L68.059,71.725L68.059,71.725z
			 M68.748,72.182L68.748,72.182L68.66,72.23c0.135,0.707,0.393,1.33,0.646,1.82c0.044,0.09,0.104,0.191,0.164,0.297l0.021,0.039
			c0.504-0.107,0.979-0.254,1.422-0.432c1.34-0.545,2.385-1.387,3.025-2.457c0.586-0.975,0.984-2.588,0.648-3.949
			c-0.244,0.896-0.623,1.74-1.617,2.316c0.604-1.012,0.504-2.473,0.164-3.553c-0.223-0.715-0.668-1.371-1.273-1.98
			c0.33,2.008,0.133,3.879-0.742,5.441c-0.202,0.361-0.441,0.707-0.723,1.035c-0.275,0.322-0.592,0.629-0.945,0.914h-0.002h-0.002
			C69.184,71.939,68.967,72.061,68.748,72.182L68.748,72.182z"/>
		<path fill="#FFD864" d="M67.57,71.008c1.396,0,2.523,0.986,2.523,2.203c0,1.219-1.127,2.207-2.523,2.207
			c-1.391,0-2.521-0.988-2.521-2.207C65.049,71.994,66.18,71.008,67.57,71.008L67.57,71.008z"/>
		<path d="M67.57,70.635h0.002c0.789,0,1.506,0.281,2.027,0.74c0.534,0.467,0.865,1.115,0.865,1.836l0,0l0,0
			c0,0.727-0.331,1.373-0.865,1.842c-0.521,0.453-1.238,0.736-2.027,0.736H67.57c-0.791,0-1.504-0.283-2.025-0.736
			c-0.533-0.471-0.865-1.115-0.865-1.838v-0.004c0-0.721,0.332-1.369,0.866-1.836C66.066,70.916,66.779,70.635,67.57,70.635
			L67.57,70.635z M67.572,71.377L67.572,71.377H67.57c-0.602,0-1.146,0.213-1.539,0.555c-0.375,0.33-0.61,0.783-0.61,1.279v0.004
			c0,0.496,0.233,0.949,0.61,1.277c0.395,0.344,0.939,0.557,1.539,0.557v-0.002h0.002v0.002c0.604,0,1.146-0.213,1.539-0.553
			c0.379-0.332,0.613-0.785,0.613-1.285h-0.002h0.002c0-0.496-0.234-0.949-0.613-1.279C68.717,71.59,68.176,71.377,67.572,71.377
			L67.572,71.377z"/>
		<path fill="#FFD864" d="M58.277,68.082c0.121,2.682,0.373,7.002-0.223,9.541c2.293-2.225,8.014-6.186,10.916-1.805
			c0.65,0.982,1.91,4.799,1.582,6.277c-0.232,1.057-4.688,1.328-5.748,1.34c-2.598,0.041-5.146-0.307-7.527-1.418
			c-0.797-0.373-1.326-0.684-1.975-1.262c1.006-4.211,1.348-7.164,1.596-11.129C56.902,69.596,58.275,68.115,58.277,68.082
			L58.277,68.082z"/>
		<path fill="#E1AA2D" d="M59.055,70.82l-0.096,5.129c1.01-0.68,2.072-1.258,3.145-2.156c-0.566,0.258-1.488,0.695-2.035,0.777
			c-0.232,0.031-0.473-0.094-0.549-0.381C59.182,72.904,59.064,71.303,59.055,70.82L59.055,70.82z"/>
		<path d="M76.535,69.244c-0.238-0.156-0.309-0.477-0.156-0.713c0.154-0.242,0.477-0.313,0.719-0.162
			c0.08,0.053,0.15,0.117,0.213,0.186c0.303,0.344,0.389,0.898,0.293,1.496c-0.08,0.52-0.297,1.102-0.609,1.598
			c-0.172,0.273-0.379,0.52-0.605,0.721c-0.174,0.156-0.469,0.225-0.613,0.057c-0.225-0.262-0.059-0.514,0.162-0.709
			c0.153-0.141,0.295-0.309,0.416-0.506C76.771,70.756,76.766,69.502,76.535,69.244L76.535,69.244z"/>
		<path d="M78.518,69.785c0.254-0.109,0.537,0.033,0.625,0.322l0.004-0.002c0.039,0.117,0.057,0.25,0.057,0.393
			c-0.002,0.119-0.018,0.24-0.043,0.363c-0.111,0.561-0.512,1.27-1.027,1.584c-0.51,0.307-0.955-0.375-0.275-0.783
			c0.357-0.158,0.357-0.859,0.363-1.148c0-0.004,0-0.004,0,0h0.002C78.139,70.221,78.256,69.898,78.518,69.785L78.518,69.785z
			 M78.223,70.514L78.223,70.514h-0.004c0.004,0,0.004,0.012,0.004,0.004V70.514L78.223,70.514z"/>
		<path fill="#E1AA2D" d="M76.679,76.391c1.009,1.518,1.147,2.096,1.222,3.697c-1.928,0.756-4.834,0.725-6.752,0.514
			C73.924,79.639,75.628,78.512,76.679,76.391L76.679,76.391z"/>
		<path d="M75.99,76.01c0.189,0.139,0.369,0.275,0.533,0.443c0.158,0.156,0.309,0.332,0.445,0.525
			c0.699,0.951,1.119,2.518,1.076,3.766l-1.035-0.033C77.152,79.279,77.039,78.521,75.99,76.01L75.99,76.01z"/>
		<path d="M75.109,77.133c1.098,0.834,1.537,2.539,1.502,3.848l-1.035-0.025C75.602,80.076,75.716,78.723,75.109,77.133
			L75.109,77.133z"/>
		<path fill="#E1AA2D" d="M68.645,77.334c0.68,0.854,1.15,3.107,1.107,4.619c-3.221,0.734-5.379,1.064-9.408,0.35
			C64.521,81.68,67.238,78.922,68.645,77.334L68.645,77.334z"/>
		<path fill="#E1AA2D" d="M52.383,73.453l1.85,5.906c0.254,0.121,0.504,0.131,0.768,0.086l1.229-7.799
			c-0.525,3.295-1.043,5.555-1.678,5.703C54.094,77.459,53.389,76.35,52.383,73.453L52.383,73.453z"/>
		<path fill="#E1AA2D" d="M47.996,64.318c-1.782,2.57-2.626,4.186-3.58,7.227c1.546-0.25,2.967-0.021,3.891,1.211
			C47.015,69.279,46.839,68.715,47.996,64.318L47.996,64.318z"/>
		<path fill="#E1AA2D" d="M33.464,78.932c-0.283,0.629-0.401,1.313-0.257,1.957c1.408,0.25,3.2,0.277,4.469,0.184
			c-0.106-0.893,0.335-2.254,1.221-3.73C37.041,79.479,35.718,80.594,33.464,78.932L33.464,78.932z"/>
		<path d="M33.141,76.777c-0.615,0.455-1.048,1.512-1.267,2.053c-0.242,0.598-0.336,1.313-0.342,2.229
			c-0.002,0.203-0.17,0.367-0.374,0.367c-0.205,0-0.37-0.168-0.367-0.373C30.803,79.627,31.255,77.545,33.141,76.777L33.141,76.777z
			"/>
		<path d="M33.871,77.721c-0.38,0.254-0.718,1.172-0.866,1.977c-0.121,0.65-0.092,1.227-0.092,1.336c0,0.217-0.165,0.387-0.37,0.387
			c-0.206,0-0.371-0.17-0.371-0.387C32.178,79.473,32.753,78.295,33.871,77.721L33.871,77.721z"/>
		<path fill="#FFD864" d="M41.785,71.105c1.394,0,2.522,0.988,2.522,2.207s-1.128,2.207-2.522,2.207
			c-1.393,0-2.522-0.988-2.522-2.207S40.393,71.105,41.785,71.105L41.785,71.105z"/>
		<path d="M41.785,70.734c0.788,0,1.505,0.283,2.026,0.738c0.534,0.471,0.864,1.117,0.864,1.84h0.003h-0.003
			c0,0.723-0.33,1.369-0.864,1.838c-0.521,0.455-1.239,0.738-2.024,0.738h-0.001h-0.002c-0.789,0-1.506-0.283-2.026-0.738
			c-0.534-0.469-0.865-1.115-0.865-1.838s0.332-1.369,0.868-1.84C40.279,71.018,40.995,70.734,41.785,70.734L41.785,70.734
			L41.785,70.734z M41.785,71.473L41.785,71.473v0.004h-0.002v-0.004c-0.602,0-1.146,0.217-1.538,0.557
			c-0.378,0.33-0.612,0.785-0.612,1.283h0.001h-0.001c0,0.496,0.233,0.947,0.612,1.279c0.392,0.342,0.936,0.557,1.538,0.557h0.002
			h0.001c0.602,0,1.146-0.215,1.537-0.557c0.379-0.332,0.615-0.783,0.615-1.279h-0.004h0.004c-0.002-0.498-0.235-0.953-0.615-1.283
			C42.934,71.689,42.388,71.473,41.785,71.473L41.785,71.473z"/>
		<path d="M58.781,76.305c0.057-0.045,0.119-0.094,0.183-0.146c0.386-0.305,0.81-0.615,1.253-0.906h0.002l0.004-0.006
			c0.17-0.113,0.355-0.229,0.547-0.348c0.186-0.113,0.379-0.223,0.566-0.328c0.996-0.543,2.068-0.977,3.129-1.145l0.002-0.006
			c0.213-0.031,0.428-0.057,0.641-0.068c0.211-0.012,0.424-0.012,0.637-0.004c1.082,0.063,2.113,0.467,2.99,1.369
			c0.033,0.037,0.068,0.07,0.096,0.104c0.029,0.031,0.063,0.066,0.098,0.107c0.135,0.152,0.27,0.322,0.391,0.508v-0.004l0.072,0.107
			l0.004,0.002l0.023,0.031v0.004l0.021,0.037c0.018,0.031,0.033,0.059,0.045,0.082c0.078,0.131,0.164,0.295,0.252,0.479
			l0.043,0.105h0.002l0.049,0.109c0.082,0.191,0.172,0.406,0.258,0.631v0.004v0.002c0.09,0.229,0.172,0.469,0.252,0.715
			c0.084,0.252,0.164,0.514,0.242,0.777c0.383,1.33,0.641,2.771,0.477,3.625l0.01,0.004l-0.035,0.121v0.002
			c-0.01,0.039-0.025,0.074-0.043,0.111c-0.018,0.039-0.035,0.076-0.057,0.111c-0.104,0.172-0.264,0.322-0.467,0.449l-0.002,0.002
			c-0.033,0.021-0.066,0.041-0.102,0.057c-0.031,0.018-0.064,0.041-0.104,0.057c-0.178,0.092-0.393,0.174-0.625,0.246v0.002
			l-0.059,0.02c-0.217,0.064-0.451,0.127-0.695,0.18c-0.24,0.051-0.498,0.096-0.762,0.145c-1.322,0.211-2.756,0.281-3.305,0.293
			c-0.668,0.012-1.33-0.006-1.982-0.049c-0.66-0.047-1.313-0.121-1.957-0.234c-0.648-0.113-1.291-0.268-1.926-0.459
			c-0.637-0.197-1.264-0.436-1.881-0.727c-0.211-0.098-0.406-0.193-0.584-0.283c-0.182-0.098-0.35-0.195-0.518-0.299
			s-0.33-0.215-0.494-0.346c-0.164-0.123-0.334-0.262-0.504-0.416l-0.17-0.146l-0.055-0.053l0.018-0.076l0.053-0.215
			c0.248-1.047,0.459-2.02,0.635-2.953c0.178-0.93,0.324-1.814,0.443-2.693c0.119-0.881,0.217-1.752,0.299-2.654
			c0.08-0.898,0.148-1.832,0.213-2.832l0.029-0.482l0.215,0.43l0.004,0.004c0.078,0.164,0.146,0.369,0.199,0.604
			c0.053,0.23,0.092,0.488,0.121,0.766c0.154,1.414,0.051,3.332-0.082,4.301c-0.119,0.863-0.26,1.734-0.434,2.643
			c-0.166,0.891-0.361,1.813-0.598,2.805c0.104,0.082,0.197,0.16,0.295,0.229c0.113,0.086,0.232,0.164,0.35,0.236
			c0.146,0.094,0.301,0.182,0.461,0.268c0.168,0.088,0.34,0.172,0.529,0.26c0.572,0.268,1.152,0.488,1.748,0.67
			c0.59,0.182,1.191,0.322,1.809,0.43c0.613,0.109,1.234,0.182,1.859,0.225c0.627,0.045,1.262,0.061,1.893,0.051l0.029-0.004
			c0.105,0,0.244-0.006,0.41-0.014c0.162-0.008,0.353-0.018,0.564-0.033c1.049-0.068,2.545-0.229,3.523-0.541h0.004
			c0.02-0.006,0.053-0.016,0.1-0.031c0.029-0.012,0.061-0.021,0.096-0.035c0.16-0.061,0.293-0.121,0.398-0.186h0.002v-0.004
			c0.018-0.012,0.031-0.021,0.039-0.025c0.01-0.006,0.021-0.016,0.031-0.023c0.039-0.027,0.061-0.049,0.064-0.059V81.98
			c0.027-0.131,0.043-0.279,0.043-0.443c0.002-0.174-0.01-0.369-0.033-0.576c-0.113-1.076-0.521-2.498-0.934-3.578v-0.002
			l-0.045-0.121l-0.047-0.113c-0.078-0.195-0.154-0.379-0.232-0.541h0.002h-0.002l-0.039-0.092l-0.041-0.08
			c-0.055-0.111-0.105-0.205-0.156-0.283l-0.028-0.045h-0.001l-0.021-0.031V76.07c-0.018-0.021-0.031-0.047-0.053-0.074
			c-0.027-0.041-0.052-0.074-0.07-0.104c-0.129-0.172-0.26-0.326-0.393-0.469h-0.002c-0.136-0.137-0.273-0.26-0.416-0.367
			c-0.143-0.109-0.287-0.201-0.439-0.283c-0.77-0.42-1.645-0.496-2.533-0.352h-0.002v0.004c-0.182,0.027-0.363,0.066-0.551,0.111
			c-0.188,0.051-0.371,0.104-0.553,0.166c-0.953,0.318-1.895,0.83-2.744,1.389l-0.002,0.004c-0.131,0.086-0.26,0.174-0.389,0.268
			c-0.125,0.09-0.252,0.18-0.377,0.27c-0.627,0.471-1.176,0.945-1.598,1.355l-0.918,0.891l-0.318,0.313l0.102-0.436l0.291-1.242
			c0.271-1.15,0.361-2.695,0.365-4.281c0.01-1.59-0.068-3.23-0.131-4.564v-0.004l-0.023-0.926l-0.014-0.48l0.254,0.408v0.004
			c0.174,0.275,0.313,0.623,0.432,1.023c0.111,0.391,0.201,0.836,0.27,1.305C59.037,72.189,58.91,75.029,58.781,76.305
			L58.781,76.305z"/>
		<path d="M68.848,82.91l-1.037-0.025c0.357-1.314,0.273-3.432-0.119-5.896C69.172,79.055,69.176,81.045,68.848,82.91L68.848,82.91z
			"/>
		<path d="M67.057,82.744c-0.02,0.266-0.033,0.492-0.035,0.611l-1.039-0.033c0.008-0.191,0.02-0.396,0.035-0.645
			c0.09-1.408,0.129-2.953,0.133-4.52C67.275,80.119,67.09,82.227,67.057,82.744L67.057,82.744z"/>
		<path fill="#FFD864" d="M51.117,68.137c0.002,0.061-1.49,1.201-1.49,1.258c0.104,2.641,0.455,4.943,1.596,7.418
			c-0.086,0.154-1.301-1.498-1.471-1.707c-0.791-0.977-2.264-2.514-3.588-2.764c-0.978-0.184-2.095,0.104-2.941,0.596
			c-0.968,0.561-1.81,1.49-2.45,2.396c-0.844,1.195-1.446,2.441-1.912,3.822c-0.228,0.668-0.862,2.293-0.387,2.939
			c0.487,0.668,2.611,0.988,3.381,1.109c0.736,0.117,1.603,0.219,2.452,0.229c2.636,0.041,5.224-0.307,7.636-1.418
			c0.811-0.373,1.43-0.914,2.088-1.494c-0.215-0.584-0.424-1.133-0.643-1.756C52.141,75.238,51.301,71.873,51.117,68.137
			L51.117,68.137z"/>
		<path fill="#E1AA2D" d="M40.865,76.93c-0.9,1.357-1.606,3.137-1.66,4.645c3.55,1.666,8.757,1.119,11.637-0.031
			C46.78,82.043,43.168,80.982,40.865,76.93L40.865,76.93z"/>
		<path d="M41.334,82.723l-1.019,0.189c-0.196-2.48-0.221-4.379,1.757-6.006C41.315,78.602,40.987,80.861,41.334,82.723
			L41.334,82.723z"/>
		<path d="M43.29,83.016l0,0.008l-1.037,0.082v-0.01c-0.065-0.828-0.102-4.158,0.97-5.41C43.021,78.898,43.198,81.859,43.29,83.016
			L43.29,83.016z"/>
		<path d="M50.123,69.203c0.021,0.666,0.061,1.307,0.121,1.938c0.063,0.623,0.147,1.236,0.268,1.85
			c0.119,0.604,0.27,1.203,0.457,1.803c0.193,0.596,0.428,1.197,0.711,1.811l0.08,0.174l0.025,0.061l-0.033,0.061l-0.096,0.164
			c-0.084,0.15-0.193,0.24-0.326,0.27c-0.129,0.029-0.264,0-0.408-0.086c-0.154-0.086-0.414-0.373-0.682-0.697
			c-0.262-0.32-0.533-0.672-0.711-0.908v-0.002h-0.002l-0.039-0.051c-0.039-0.055-0.07-0.098-0.094-0.125l-0.031-0.035v-0.006
			l-0.004-0.002l-0.006-0.006l-0.037-0.051l-0.047-0.055v0.002c-0.076-0.098-0.168-0.199-0.267-0.311l-0.001-0.004l-0.059-0.064
			l-0.057-0.064c-0.104-0.113-0.205-0.223-0.307-0.324v-0.002c-0.109-0.113-0.217-0.221-0.324-0.322
			c-0.11-0.104-0.224-0.209-0.344-0.316c-0.595-0.518-1.249-0.951-1.842-1.064h-0.003h-0.005l-0.051-0.008l-0.048-0.008
			c-0.083-0.014-0.167-0.021-0.249-0.025c-0.045-0.002-0.086-0.008-0.123-0.008h-0.046h-0.067c-0.042,0-0.087,0.006-0.135,0.008
			h-0.008c-0.091,0.004-0.185,0.014-0.275,0.029c-0.092,0.012-0.183,0.029-0.274,0.047c-0.467,0.096-0.922,0.271-1.314,0.498v0.004
			l-0.054,0.031h-0.001l-0.048,0.029c-0.083,0.053-0.17,0.107-0.261,0.172l-0.047,0.031l-0.05,0.039
			c-0.081,0.061-0.165,0.125-0.252,0.195c-0.086,0.07-0.168,0.145-0.251,0.217c-0.083,0.078-0.164,0.156-0.24,0.232
			c-0.408,0.404-0.773,0.854-1.087,1.299c-0.199,0.283-0.387,0.572-0.565,0.871c-0.177,0.297-0.339,0.598-0.491,0.904
			c-0.151,0.307-0.293,0.617-0.421,0.938c-0.13,0.314-0.252,0.646-0.366,0.982h-0.003l-0.07,0.207l0,0.002
			c-0.23,0.658-0.653,1.881-0.391,2.266v0.004l0.009,0.008l0,0.004l0.007,0.006c0.18,0.23,0.729,0.422,1.322,0.57
			c0.625,0.156,1.294,0.26,1.671,0.32l0.05,0.008c0.181,0.029,0.366,0.057,0.559,0.082c0.191,0.025,0.391,0.051,0.597,0.07
			c0.201,0.02,0.403,0.037,0.611,0.049c0.21,0.014,0.416,0.023,0.613,0.025c0.643,0.01,1.282-0.006,1.921-0.047
			c0.636-0.047,1.267-0.117,1.893-0.225c0.619-0.109,1.229-0.248,1.832-0.43c0.604-0.184,1.195-0.404,1.777-0.672
			c0.188-0.09,0.361-0.184,0.527-0.285s0.328-0.213,0.482-0.33c0.121-0.096,0.25-0.195,0.379-0.305
			c0.109-0.092,0.215-0.184,0.32-0.273c-0.063-0.172-0.072-0.189-0.08-0.215l-0.012-0.037c-0.092-0.242-0.18-0.479-0.226-0.605
			c-0.071-0.191-0.144-0.385-0.212-0.582c-0.605-1.711-1.127-3.459-1.43-5.254c-0.307-1.803-0.393-3.652-0.127-5.574l0.189-1.385
			l0.066,1.395c0.047,0.92,0.131,1.818,0.254,2.699c0.119,0.885,0.279,1.75,0.471,2.607c0.189,0.859,0.416,1.717,0.674,2.58
			c0.252,0.859,0.537,1.723,0.846,2.6c0.166,0.463,0.295,0.816,0.424,1.166l0.004,0.004l0.215,0.578h0.004l0.086,0.24l0.029,0.082
			l-0.067,0.063l-0.188,0.166c-0.162,0.143-0.32,0.281-0.496,0.432c-0.166,0.137-0.338,0.277-0.523,0.418
			c-0.182,0.141-0.369,0.268-0.566,0.391c-0.197,0.121-0.402,0.232-0.621,0.336c-0.631,0.289-1.264,0.527-1.906,0.723
			c-0.643,0.191-1.297,0.344-1.957,0.457c-0.653,0.113-1.313,0.189-1.98,0.236c-0.663,0.043-1.335,0.057-2.012,0.047
			c-0.225-0.004-0.446-0.014-0.664-0.025c-0.217-0.01-0.435-0.029-0.647-0.051c-0.21-0.025-0.419-0.049-0.621-0.072
			c-0.202-0.027-0.4-0.059-0.589-0.088l-0.049-0.008h-0.003c-0.862-0.137-3.033-0.479-3.645-1.287l-0.005-0.004l-0.006-0.008
			l-0.002-0.004l-0.083-0.113l0.009-0.006c-0.222-0.4-0.22-0.947-0.125-1.492c0.1-0.584,0.306-1.17,0.449-1.586l0.003-0.012h0.001
			c0.01-0.033,0.023-0.066,0.065-0.188c0.119-0.352,0.246-0.697,0.388-1.041c0.138-0.34,0.289-0.672,0.45-0.998
			c0.161-0.326,0.335-0.648,0.525-0.971c0.19-0.314,0.396-0.627,0.613-0.939l0.002-0.002c0.07-0.102,0.14-0.195,0.207-0.287
			c0.077-0.096,0.149-0.195,0.224-0.287h0.001c0.392-0.49,0.836-0.967,1.322-1.365h0.002V73.1l0.054-0.043h0.001l0.056-0.045
			c0.1-0.082,0.201-0.156,0.3-0.227h0.001l0.059-0.041h0.001l0.059-0.041h0.001c0.104-0.07,0.208-0.137,0.313-0.195l0.003-0.006
			l0.004-0.002c0.094-0.053,0.191-0.107,0.292-0.158c0.098-0.045,0.201-0.096,0.306-0.139c0.535-0.225,1.128-0.375,1.713-0.41
			c0.051,0,0.104-0.002,0.16-0.008h0.001h0.057h0.003h0.064c0.068,0,0.134,0.006,0.196,0.008h0.008h0l0.067,0.008h0.001l0.066,0.002
			c0.117,0.012,0.229,0.025,0.339,0.051h0.003h0.001c0.153,0.029,0.308,0.07,0.462,0.125c0.153,0.057,0.304,0.123,0.454,0.201
			c0.77,0.389,1.514,1.031,2.127,1.662l0.002,0.002l0.068,0.072l0.066,0.07v0.004c0.118,0.123,0.223,0.236,0.316,0.344l0.057,0.064
			l0.004,0.008c-0.201-0.793-0.291-1.525-0.295-2.271c-0.006-0.924,0.123-1.863,0.342-2.949l0.221-1.08L50.123,69.203L50.123,69.203
			z"/>
		<path fill-rule="evenodd" clip-rule="evenodd" d="M56.514,25.238c0.168-2.17,0.648-5.445,1.418-7.509
			c0.275-0.766,0.604-1.198,1.494-1.284c1.377-0.132,3.697,0.979,4.893,1.566l0.566,0.278l-0.102,0.622
			c-0.176,1.077-0.475,2.17-0.559,3.256c-0.048,0.639,0.02,1.404,0.197,2.019l0.789,2.714l-1.25-0.122
			c-0.344-0.034-0.688-0.067-1.03-0.101c-1.23-0.12-2.46-0.241-3.691-0.357c-0.603-0.057-1.282-0.149-1.882-0.166h-0.914
			L56.514,25.238L56.514,25.238z"/>
		<path fill="#F4B1B6" d="M63.943,18.776c-0.176,1.081-0.488,2.245-0.566,3.328c-0.059,0.728,0.025,1.615,0.229,2.32l0.439,1.508
			c-3.006-0.294-6.41-0.628-6.684-0.628c0.281-3.633,1.14-6.661,1.367-7.277C58.9,17.571,58.861,16.28,63.943,18.776L63.943,18.776z
			"/>
		<path fill="#FFD864" d="M22.536,31.625c6.594-4.314,15.535-7.491,23.322-8.269l-1.216-2.826c-1.386,0.262-2.66,0.558-3.623,0.758
			c-0.96,0.2-1.707,0.36-2.147,0.439c-0.597,0.104-1.339,0.234-1.931,0.178c-0.587-0.057-1.333-0.228-1.465-0.926
			c-0.241-1.272,1.232-1.76,2.02-2.291c0.371-0.25,1.053-0.758,1.364-1.065c0.625-0.624,0.88-1.667,1.166-2.488
			c0.333-0.96,0.652-1.678,1.908-1.573c1.669,0.139,2.54,0.642,4.289,0.175c0.602-0.159,1.892-0.812,2.471-0.563
			c0.889,0.38,1.701,1.373,2.143,2.193c0.357,0.663,0.695,1.511,0.955,2.22c0.158,0.434,0.229,0.592,0.439,1.443l0.133,4.22
			c0.304,0.014,0.602,0.029,0.895,0.049l-0.35-0.134c0.345-0.57,2.307-3.991,2.613-4.569c0.701-1.319,1.336-2.661,2.049-4.004
			c0.645-1.207,5.725,0.996,9.703,0.032c0.115-0.027,0.484-0.008,0.594,0.017c0.697,0.146,1.195,1.021,1.521,1.578
			c0.418,0.718,0.549,1.623,0.93,2.373c0.385,0.77,0.988,1.533,1.522,2.207c1.298,1.626,1.911,3.064-0.746,2.974
			c-1.399-0.051-2.788-0.285-4.056-0.897c-1.955-0.94-4.029-2.365-5.393-4.076c-0.479-0.598-1.082-1.579-1.963-1.601
			c-0.383-0.009-0.789,0.541-0.955,0.826c-0.148,0.259-0.555,1.121-0.617,1.393l-0.986,4.283c5.189,0.797,9.051,2.688,12.682,7.405
			c3.525,4.589,4.865,11.799,3.205,17.378c-1.123,3.777-3.609,6.322-6.932,8.381c-2.518,1.557-4.957,2.49-8.033,3.006
			c-2.797,1.762-6.867,2.871-10.134,3.043c-6.179,0.33-11.125-1.113-14.854-4.301c0-0.004,0.007-0.004,0.024-0.004
			c-0.955-0.227-2.306-0.563-2.687-0.711c-0.911-0.361-3.75-1.271-5.482-2.174c-3.549-1.846-5.955-3.621-7.937-7.059
			C12.574,41.03,15.006,36.55,22.536,31.625L22.536,31.625z"/>
		<path d="M57.178,14.385c0.455-0.854,1.906-0.634,3.807-0.345c1.855,0.282,4.191,0.636,6.186,0.154l0.004-0.001v-0.001l0.004-0.001
			c0.043-0.01,0.084-0.017,0.125-0.019c0.018-0.003,0.059-0.003,0.113-0.005c0.186-0.002,0.441,0.018,0.543,0.039h0.002h0.002
			c0.871,0.188,1.418,1.123,1.783,1.748l0.023,0.041l0.002,0.002c0.248,0.422,0.398,0.89,0.549,1.357
			c0.117,0.359,0.232,0.722,0.396,1.038c0.176,0.358,0.416,0.724,0.67,1.08c0.268,0.37,0.543,0.722,0.807,1.05
			c0.705,0.887,1.223,1.744,1.203,2.421c-0.025,0.823-0.664,1.331-2.314,1.271c-0.723-0.024-1.443-0.099-2.152-0.243
			c-0.716-0.148-1.416-0.37-2.084-0.694c-0.273-0.131-0.555-0.275-0.846-0.434c-0.287-0.156-0.57-0.32-0.846-0.489
			c-1.445-0.887-2.842-2.002-3.857-3.277l-0.006-0.013h-0.006c-0.023-0.032-0.109-0.147-0.197-0.263
			c-0.385-0.507-0.861-1.136-1.402-1.158v0.002h-0.011L59.66,17.65c-0.02,0.008-0.041,0.021-0.068,0.039
			c-0.193,0.13-0.381,0.396-0.477,0.559v0.002v0.004l-0.006,0.009l-0.064,0.118c-0.041,0.079-0.072,0.144-0.096,0.186
			c-0.168,0.329-0.377,0.772-0.396,0.92l-0.256,1.703c-0.039,0.242-0.266,0.411-0.51,0.375c-0.021-0.004-0.045-0.011-0.068-0.018
			l-3.271-0.792c-0.24-0.058-0.385-0.298-0.326-0.536c0.01-0.046,0.025-0.088,0.051-0.125c0.727-1.206,1.338-2.42,1.947-3.64
			C56.465,15.764,56.809,15.073,57.178,14.385L57.178,14.385z M60.851,14.921L60.851,14.921c-1.55-0.235-2.731-0.416-2.89-0.119
			c-0.365,0.688-0.707,1.369-1.051,2.048c-0.537,1.073-1.07,2.142-1.67,3.183l2.246,0.544l0.182-1.224
			c0.039-0.248,0.285-0.799,0.484-1.189c0.051-0.1,0.084-0.168,0.104-0.201c0.014-0.027,0.039-0.073,0.074-0.132
			c0.002-0.007,0.008-0.018,0.012-0.024l0.004-0.003c0.139-0.239,0.424-0.638,0.756-0.856c0.077-0.052,0.158-0.097,0.248-0.13
			c0.08-0.029,0.162-0.049,0.248-0.057c0.023-0.004,0.045-0.006,0.066-0.006h0.02v0.002h0.014c0.971,0.023,1.596,0.85,2.098,1.509
			c0.047,0.063,0.09,0.118,0.191,0.245h-0.004l0.012,0.015c0.947,1.188,2.256,2.235,3.623,3.071
			c0.275,0.168,0.545,0.322,0.809,0.469c0.26,0.142,0.529,0.278,0.807,0.409v0.004c0.602,0.291,1.23,0.489,1.875,0.624
			c0.656,0.136,1.326,0.202,2.004,0.228c1.006,0.035,1.387-0.131,1.395-0.41c0.016-0.423-0.42-1.1-1.012-1.842
			c-0.273-0.345-0.564-0.71-0.83-1.083c-0.275-0.384-0.535-0.786-0.744-1.198c-0.191-0.375-0.319-0.772-0.445-1.168
			c-0.133-0.415-0.268-0.83-0.469-1.179v-0.004v-0.001l-0.023-0.04c-0.287-0.489-0.717-1.223-1.203-1.327
			c-0.059-0.012-0.224-0.023-0.346-0.021c-0.008,0-0.025,0-0.057,0.004c-0.006,0-0.004-0.001,0-0.003h-0.004
			C65.203,15.583,62.779,15.213,60.851,14.921L60.851,14.921z M67.375,15.061L67.375,15.061
			C67.375,15.06,67.379,15.058,67.375,15.061L67.375,15.061z"/>
		<path d="M22.21,31.127l0.004-0.002c0.935-0.611,1.918-1.202,2.945-1.769c1.008-0.555,2.063-1.094,3.16-1.606
			c5.566-2.606,11.856-4.431,17.533-4.991h0.021h0.001c0.366-0.036,0.73-0.063,1.093-0.086c0.355-0.021,0.737-0.04,1.142-0.052
			c1.993-0.065,4.13,0,5.913,0.137c3.486,0.271,6.426,0.816,9.057,2.022c2.65,1.211,4.969,3.073,7.193,5.967h0.004v0.001
			c0.508,0.661,0.978,1.381,1.398,2.146c0.422,0.764,0.795,1.562,1.113,2.376c1.656,4.235,2.023,9.242,0.789,13.386
			c-0.586,1.973-1.529,3.625-2.764,5.053c-1.219,1.414-2.715,2.604-4.424,3.662c-2.508,1.553-5.457,2.449-8.492,2.98l-0.051,0.033
			c-2.082,1.314-4.84,2.271-7.469,2.773c-0.527,0.102-1.033,0.18-1.518,0.24c-0.484,0.063-0.974,0.105-1.46,0.133h-0.009
			c-6.41,0.34-11.543-1.188-15.412-4.545c-0.751-0.186-1.37-0.365-1.802-0.533v-0.002h-0.003c-0.253-0.102-0.612-0.229-1.045-0.381
			c-1.282-0.459-3.183-1.137-4.49-1.818c-1.81-0.939-3.332-1.867-4.669-3.008c-1.342-1.146-2.481-2.502-3.509-4.285
			c-2.297-3.985-2.799-7.173-1.735-10.038C15.776,36.095,18.343,33.658,22.21,31.127L22.21,31.127z M44.372,62.281L44.372,62.281
			c5.909,0.037,9.306-1.393,9.306-1.393l3.414-1.604l0.045-0.031h0.004c0.279-0.174,0.559-0.369,0.842-0.574
			c0.281-0.201,0.586-0.438,0.904-0.695c1.582-1.277,3.232-2.91,4.293-4.227c0.078-0.096,0.148-0.191,0.229-0.293
			c1.863-2.432,2.904-5.293,2.838-8.049c-0.066-2.724-1.227-5.36-3.754-7.394c-0.055-0.042-0.111-0.087-0.17-0.132
			c-0.76,0.334-1.418,0.871-1.984,1.583c-0.234,0.287-0.652,0.331-0.939,0.102c-0.289-0.232-0.336-0.65-0.104-0.939
			c0.785-0.982,1.729-1.705,2.852-2.11c1.113-0.405,2.389-0.494,3.854-0.218c0.363,0.069,0.604,0.417,0.535,0.779
			c-0.066,0.364-0.416,0.602-0.779,0.535c-0.658-0.125-1.266-0.163-1.82-0.121c2.443,2.227,3.572,5.007,3.645,7.882
			c0.076,3.071-1.066,6.229-3.109,8.895c-0.074,0.102-0.16,0.209-0.246,0.314c-1.014,1.262-2.531,2.789-4.043,4.061
			c2.002-0.52,3.912-1.25,5.592-2.293c1.607-0.994,3.014-2.107,4.15-3.426c1.121-1.303,1.984-2.811,2.52-4.619
			c1.16-3.89,0.809-8.608-0.758-12.611c-0.307-0.785-0.652-1.538-1.043-2.238c-0.391-0.702-0.824-1.371-1.305-1.993l-0.002-0.002
			v-0.001c-2.102-2.729-4.271-4.482-6.744-5.61c-2.484-1.139-5.295-1.656-8.654-1.915c-1.762-0.134-3.854-0.201-5.786-0.139
			c-0.358,0.011-0.73,0.028-1.109,0.053c-0.373,0.022-0.721,0.05-1.046,0.08v0.002l-0.022,0.002
			c-5.549,0.547-11.699,2.331-17.149,4.883c-1.047,0.491-2.082,1.017-3.09,1.574c-0.991,0.549-1.949,1.123-2.866,1.722l-0.002,0.003
			c-3.663,2.396-6.077,4.662-7.024,7.213c-0.935,2.517-0.451,5.384,1.653,9.035c0.954,1.658,2.01,2.91,3.254,3.975
			c1.249,1.066,2.705,1.951,4.444,2.855c1.245,0.646,3.093,1.307,4.339,1.75c0.238,0.086,0.457,0.166,0.644,0.229
			c-0.746-0.855-1.43-1.789-2.053-2.809c-0.647-1.063-1.229-2.209-1.75-3.445l0-0.008c-0.142-0.344,0.019-0.732,0.36-0.875
			c0.341-0.145,0.732,0.02,0.874,0.359l0.001,0.01c0.493,1.176,1.046,2.264,1.657,3.264c0.611,0.998,1.278,1.91,2.005,2.729
			c0.501,0.566,1.032,1.094,1.588,1.576l2.321,1.676C35.174,59.654,38.464,62.244,44.372,62.281L44.372,62.281z"/>
		<path d="M51.785,19.091c-0.17-0.693-0.248-0.894-0.365-1.226l-0.049-0.125c-0.131-0.359-0.279-0.746-0.434-1.106
			c-0.154-0.368-0.322-0.731-0.494-1.056c-0.059-0.108-0.125-0.218-0.193-0.326c-0.066-0.107-0.145-0.221-0.227-0.334
			c-0.412-0.561-0.949-1.095-1.506-1.334c-0.262-0.11-0.969,0.152-1.53,0.361c-0.25,0.091-0.476,0.176-0.651,0.223
			c-1.303,0.345-2.137,0.197-3.11,0.026c-0.403-0.071-0.834-0.146-1.331-0.188c-0.475-0.04-0.761,0.062-0.944,0.252
			c-0.218,0.226-0.361,0.596-0.507,1.021l-0.002,0.003l-0.001,0.005h0.001c-0.003,0.01-0.007,0.016-0.011,0.024
			c-0.029,0.086-0.078,0.234-0.127,0.387c-0.255,0.778-0.536,1.643-1.13,2.237c-0.046,0.045-0.102,0.1-0.171,0.157
			c-0.057,0.055-0.124,0.108-0.193,0.167c-0.341,0.282-0.784,0.607-1.067,0.796l-0.001,0.004l-0.002,0.002h-0.003l-0.001,0.002
			c-0.168,0.111-0.354,0.218-0.546,0.325c-0.647,0.367-1.41,0.799-1.274,1.508c0.035,0.186,0.161,0.307,0.322,0.388
			c0.218,0.105,0.5,0.154,0.75,0.176c0.256,0.024,0.562,0.008,0.87-0.026c0.336-0.04,0.654-0.098,0.939-0.147h0.002
			c0.321-0.058,0.865-0.172,1.557-0.316l0.574-0.119h0.004c0.253-0.053,0.645-0.139,1.071-0.231c0.75-0.161,1.609-0.349,2.555-0.531
			c0.209-0.037,0.412,0.076,0.493,0.263l1.333,3.098l5.537-0.097L51.785,19.091L51.785,19.091z M52.256,17.56L52.256,17.56
			c0.131,0.355,0.209,0.567,0.398,1.354c0.01,0.032,0.018,0.067,0.02,0.105l0.15,4.754v0.006c0.002,0.248-0.193,0.449-0.438,0.452
			l-6.251,0.111c-0.188,0.016-0.373-0.087-0.45-0.269l-1.31-3.04c-0.765,0.15-1.517,0.313-2.185,0.458
			c-0.352,0.077-0.681,0.147-1.076,0.231v-0.001l-0.003,0.001l-0.575,0.121c-0.676,0.141-1.209,0.25-1.583,0.316l-0.003,0.001
			c-0.312,0.056-0.663,0.118-0.995,0.156c-0.357,0.043-0.721,0.062-1.055,0.029c-0.337-0.032-0.723-0.101-1.06-0.266
			c-0.392-0.195-0.705-0.51-0.801-1.021c-0.253-1.333,0.806-1.934,1.708-2.442c0.181-0.104,0.355-0.202,0.494-0.294l0.009-0.008
			h0.001c0.256-0.171,0.663-0.472,0.99-0.741c0.06-0.05,0.117-0.099,0.169-0.146c0.046-0.042,0.09-0.082,0.133-0.123l0-0.001
			c0.443-0.445,0.692-1.201,0.913-1.883c0.037-0.111,0.073-0.224,0.134-0.398c0.004-0.016,0.011-0.028,0.014-0.042v-0.002
			l0.001,0.001c0.182-0.53,0.369-0.996,0.704-1.345c0.371-0.38,0.876-0.586,1.658-0.521c0.535,0.043,0.986,0.124,1.41,0.198
			c0.872,0.152,1.616,0.285,2.729-0.01c0.146-0.039,0.347-0.112,0.568-0.195c0.703-0.262,1.59-0.59,2.174-0.354l0.016,0.007
			c0.721,0.309,1.383,0.957,1.873,1.626c0.094,0.125,0.184,0.257,0.268,0.387c0.08,0.129,0.152,0.257,0.22,0.38
			c0.181,0.339,0.362,0.73,0.532,1.13c0.172,0.406,0.322,0.8,0.449,1.146L52.256,17.56L52.256,17.56z M40.932,20.853L40.932,20.853"
			/>
		<path d="M41.193,17.097c-0.156,0.19-0.438,0.218-0.627,0.06c-0.189-0.156-0.215-0.438-0.058-0.627l0.005-0.006l0.011-0.015
			c0.056-0.063,0.122-0.125,0.194-0.186c0.069-0.061,0.145-0.112,0.224-0.159c0.378-0.233,0.87-0.368,1.225-0.39
			c1.311-0.078,1.515,1.007,1.656,1.765c0.018,0.097,0.036,0.19,0.052,0.255c0.057,0.239-0.089,0.479-0.328,0.536
			c-0.239,0.06-0.479-0.087-0.538-0.327c-0.022-0.097-0.042-0.197-0.061-0.302c-0.083-0.438-0.201-1.069-0.729-1.037
			c-0.235,0.014-0.561,0.104-0.814,0.259c-0.047,0.028-0.087,0.059-0.123,0.086c-0.027,0.022-0.054,0.051-0.081,0.08L41.2,17.09
			L41.193,17.097L41.193,17.097z"/>
		<path fill-rule="evenodd" clip-rule="evenodd" d="M11.517,32.173c3.2-2.21,9.335-2.192,13.151-2.229
			c4.87-0.047,9.863,0.347,14.609,1.473c0.698,0.166,1.399,0.312,2.093,0.498c1.31,0.352,3.178,0.957,3.66,2.381
			c0.338,0.999-0.142,1.965-0.788,2.714c-1.473,1.706-2.942,3.418-4.46,5.084c-2.81,3.085-8.466,8.436-12.667,9.053
			c-1.645,0.242-3.673-1.031-4.949-1.949c-1.943-1.398-3.779-3.154-5.399-4.912C15.149,42.533,8.103,34.531,11.517,32.173
			L11.517,32.173z"/>
		<path fill="#727270" d="M12.08,32.991c-3.244,2.24,10.444,17.828,14.889,17.175c3.958-0.582,9.598-6.019,12.078-8.74
			c1.486-1.633,2.996-3.391,4.443-5.064c2.333-2.703-2.112-3.426-4.443-3.979c-4.642-1.101-9.617-1.492-14.37-1.445
			C21.127,30.97,15.033,30.952,12.08,32.991L12.08,32.991z"/>
		<path fill-rule="evenodd" clip-rule="evenodd" d="M33.457,33.096c0.704,0,1.275,0.571,1.275,1.274
			c0,0.704-0.571,1.274-1.275,1.274c-0.703,0-1.274-0.571-1.274-1.274S32.753,33.096,33.457,33.096L33.457,33.096z"/>
		<path fill="#FFFDED" d="M33.457,33.38c0.547,0,0.991,0.444,0.991,0.991s-0.444,0.991-0.991,0.991
			c-0.547,0-0.991-0.444-0.991-0.991S32.91,33.38,33.457,33.38L33.457,33.38z"/>
		<path fill-rule="evenodd" clip-rule="evenodd" d="M34.709,34.499c0.121-1.033,2.068-1.039,2.799-0.953
			c0.73,0.085,2.623,0.542,2.501,1.575c-0.122,1.034-2.068,1.04-2.799,0.954C36.48,35.99,34.588,35.532,34.709,34.499L34.709,34.499
			z"/>
		<path fill="#FFFDED" d="M34.991,34.532c0.063-0.543,1.176-0.858,2.484-0.705c1.308,0.154,2.317,0.719,2.253,1.262
			c-0.063,0.543-1.176,0.858-2.484,0.705C35.936,35.64,34.927,35.075,34.991,34.532L34.991,34.532z"/>
		<path d="M17.65,33.21c-1.204,0.154-5.317,0.715-4.428,2.215c1.29,2.174,4.765,6.485,6.495,8.401
			c1.377,1.527,4.229,4.382,6.437,4.673c0.938,0.121,2.103-0.48,3.183-1.271c1.082-0.791,2.076-1.767,2.662-2.396
			c-0.835-0.042-1.777-0.038-2.502-0.127c-3.614-0.452-7.856-2.479-10.346-5.212c-0.869-0.958-1.636-2.181-1.996-3.429
			C16.952,35.357,17.252,33.836,17.65,33.21L17.65,33.21z"/>
		<path fill="#FFFDED" d="M46.268,17.298c3.837,0,6.948,2.567,6.948,5.733s-3.11,5.732-6.948,5.732
			c-3.837,0-6.948-2.566-6.948-5.732S42.431,17.298,46.268,17.298L46.268,17.298z"/>
		<path d="M46.266,16.925c1.002,0,1.957,0.17,2.826,0.474c0.143,0.05,0.281,0.102,0.418,0.159c0.709,0.292,1.35,0.678,1.906,1.136
			c0.189,0.155,0.365,0.317,0.529,0.485c0.162,0.169,0.32,0.346,0.463,0.531c0.746,0.958,1.183,2.097,1.183,3.32H53.59
			c0,0.854-0.211,1.667-0.588,2.405c-0.059,0.112-0.125,0.228-0.197,0.352c-0.359,0.591-0.832,1.127-1.389,1.586l-0.002,0.001
			c-0.188,0.155-0.383,0.3-0.588,0.434c-0.201,0.137-0.418,0.264-0.639,0.38c-1.133,0.601-2.48,0.95-3.921,0.95h0v-0.003
			c-1.003,0-1.958-0.168-2.83-0.47c-0.14-0.049-0.28-0.102-0.417-0.159c-0.708-0.29-1.352-0.674-1.904-1.131
			c-0.19-0.155-0.367-0.317-0.529-0.486c-0.17-0.173-0.325-0.349-0.466-0.53c-0.743-0.955-1.173-2.099-1.173-3.327h-0.002h0.002
			c0-0.852,0.208-1.663,0.585-2.399c0.063-0.12,0.127-0.237,0.198-0.354c0.357-0.59,0.827-1.126,1.385-1.587h0.001
			c0.188-0.155,0.385-0.302,0.587-0.436c0.203-0.135,0.416-0.263,0.64-0.38C43.475,17.276,44.823,16.925,46.266,16.925
			L46.266,16.925z M39.949,24.957L39.949,24.957c1.129,3.127,3.71,3.482,6.316,3.438c2.123-0.041,3.174-0.651,3.576-0.863
			c0.197-0.104,0.391-0.22,0.576-0.342s0.361-0.252,0.523-0.388v-0.002c0.496-0.405,0.91-0.879,1.229-1.396
			c0.055-0.097,0.113-0.197,0.17-0.309c0.324-0.635,0.506-1.332,0.506-2.063h-0.001c0-1.051-0.376-2.036-1.021-2.862
			c-0.125-0.16-0.264-0.317-0.412-0.469c-0.146-0.151-0.305-0.297-0.471-0.431c-0.619-0.513-1.338-0.905-2.094-1.168
			c-2.236-0.783-5.563-0.174-7.564,1.867C39.784,21.504,39.261,23.048,39.949,24.957L39.949,24.957z"/>
		<path d="M45.342,21.135c2.06,0,3.73,1.269,3.73,2.833c0,1.565-1.67,2.833-3.73,2.833c-2.06,0-3.73-1.268-3.73-2.833
			C41.612,22.404,43.283,21.135,45.342,21.135L45.342,21.135z"/>
		<path fill="#FFFDED" d="M45.489,24.045c-0.157-0.358,0.148-0.84,0.683-1.074s1.095-0.135,1.252,0.224
			c0.158,0.359-0.147,0.84-0.683,1.074C46.208,24.504,45.647,24.404,45.489,24.045L45.489,24.045z"/>
		<path fill="#FFFDED" d="M54.564,18.667c3.842,0,6.953,2.568,6.953,5.733c0,3.166-3.111,5.73-6.953,5.73
			c-3.836,0-6.948-2.564-6.948-5.73S50.729,18.667,54.564,18.667L54.564,18.667z"/>
		<path d="M54.564,18.293v0.002c2.01,0,3.832,0.673,5.152,1.763c1.342,1.108,2.17,2.642,2.17,4.341h0.004v0.002h-0.004
			c0,1.698-0.828,3.231-2.17,4.34c-1.32,1.088-3.143,1.763-5.148,1.763v0.001h-0.004v-0.001c-2.008,0-3.828-0.675-5.15-1.763
			c-1.339-1.108-2.169-2.642-2.169-4.34h-0.004h0.004c0-1.701,0.83-3.235,2.173-4.343c1.318-1.089,3.14-1.763,5.146-1.763V18.293
			L54.564,18.293z M54.564,19.038L54.564,19.038c-3.041,0.104-6.428,1.853-6.596,5.394c-0.067,1.44,0.457,2.891,1.758,3.963
			c2.498,2.06,7.043,1.735,9.48-0.274c2.46-2.029,2.533-4.727,1.061-6.791C59.174,19.797,56.834,18.961,54.564,19.038L54.564,19.038
			z"/>
		<path d="M53.996,22.306c2.01,0,3.637,1.309,3.637,2.919c0,1.611-1.627,2.919-3.637,2.919c-2.004,0-3.631-1.308-3.631-2.919
			C50.365,23.615,51.992,22.306,53.996,22.306L53.996,22.306z"/>
		<path fill="#FFFDED" d="M55.104,24.137c0.648-0.221,1.293-0.05,1.439,0.386c0.15,0.431-0.254,0.963-0.896,1.185
			c-0.645,0.223-1.289,0.051-1.439-0.382C54.061,24.89,54.459,24.361,55.104,24.137L55.104,24.137z"/>
		<path fill="#E1AA2D" d="M15.846,43.003c2.099,3.317,6.763,7.444,10.141,8.065c0.719,1.777,1.816,3.641,3.083,5.314
			C21.883,54.348,17.608,49.682,15.846,43.003L15.846,43.003z"/>
		<path fill="#E1AA2D" d="M28.794,51.039c3.571-1.168,6.639-3.557,8.907-6.316c0.117,4.085,0.632,9.095,3.361,12.316
			c1.286,1.52,2.683,2.564,4.162,3.215c0.879,0.387,1.788,0.635,2.723,0.756c1.361,0.184,2.777,0.102,4.232-0.191
			c-0.992,0.279-1.938,0.488-2.869,0.639c-0.85,0.139-1.686,0.219-2.538,0.248c-2.527,0.088-5.29-0.242-7.726-0.951
			C34.537,59.438,30.587,55.465,28.794,51.039L28.794,51.039z"/>
		<path d="M36.169,50.414c0.358,0,0.646,0.291,0.646,0.645c0,0.355-0.289,0.646-0.646,0.646c-0.354,0-0.644-0.291-0.644-0.646
			C35.526,50.705,35.816,50.414,36.169,50.414L36.169,50.414z"/>
		<path d="M34.511,53.166c0.356,0,0.645,0.287,0.645,0.645c0,0.355-0.289,0.645-0.645,0.645c-0.356,0-0.645-0.289-0.645-0.645
			C33.866,53.453,34.155,53.166,34.511,53.166L34.511,53.166z"/>
		<path d="M32.788,50.76c0.357,0,0.646,0.289,0.646,0.646s-0.289,0.646-0.646,0.646c-0.356,0-0.646-0.289-0.646-0.646
			S32.432,50.76,32.788,50.76L32.788,50.76z"/>
		<path d="M24.867,50.822c0.297,0,0.538,0.289,0.538,0.646c0,0.355-0.241,0.645-0.538,0.645c-0.297,0-0.538-0.289-0.538-0.645
			C24.329,51.111,24.57,50.822,24.867,50.822L24.867,50.822z"/>
		<path d="M23.442,51.719c0.297,0,0.538,0.289,0.538,0.645c0,0.357-0.241,0.646-0.538,0.646c-0.297,0-0.538-0.289-0.538-0.646
			C22.904,52.008,23.145,51.719,23.442,51.719L23.442,51.719z"/>
		<path d="M25.621,52.984c0.298,0,0.54,0.289,0.54,0.646s-0.241,0.646-0.54,0.646c-0.297,0-0.539-0.289-0.539-0.646
			S25.324,52.984,25.621,52.984L25.621,52.984z"/>
		<path fill="#E1AA2D" d="M62.094,18.203c1.338,1.326,2.656,2.531,3.895,3.222c1.252,0.7,2.57,1.278,3.68,1.452
			c2.068,0.33,2.361-0.793,0.605-2.711C70.588,23.937,63.805,19.533,62.094,18.203L62.094,18.203z"/>
		<path fill="#E1AA2D" d="M42.676,17.537c-0.018-0.279-0.184-0.412-0.356-0.472c-1.008-0.359-2.186,1.206-2.441,2.287
			C40.837,18.149,41.279,17.491,42.676,17.537L42.676,17.537z"/>
		<path fill-rule="evenodd" clip-rule="evenodd" d="M85.779,30.878l3.234,2.737v34.339L83.23,71.33L63.041,54.037l0.747-0.863
			c2.405-2.779,3.149-6.561,2.478-10.126l-0.148-0.79L85.779,30.878L85.779,30.878z"/>
		<path fill="#FFFDED" d="M85.805,32.295L67.262,42.966c0.832,4.406-0.176,8.297-2.508,10.987L83.5,69.98l5.564-3.24V35.049
			L85.805,32.295L85.805,32.295z"/>
		
			<linearGradient id="SVGID_5_" gradientUnits="userSpaceOnUse" x1="-108.2949" y1="311.8789" x2="-102.2086" y2="289.1645" gradientTransform="matrix(1 0 0 1 186.1138 -249.0635)">
			<stop  offset="0.05" style="stop-color:#0CA860"/>
			<stop  offset="0.104" style="stop-color:#AFCA1F"/>
			<stop  offset="0.185" style="stop-color:#4FA5CF"/>
			<stop  offset="0.302" style="stop-color:#D1CDE6"/>
			<stop  offset="0.374" style="stop-color:#0ECDFF"/>
			<stop  offset="0.455" style="stop-color:#4FA5CF"/>
			<stop  offset="0.599" style="stop-color:#C6D654"/>
			<stop  offset="0.752" style="stop-color:#FFDF49"/>
			<stop  offset="0.869" style="stop-color:#F6AA46"/>
			<stop  offset="0.95" style="stop-color:#E9523D"/>
		</linearGradient>
		<path fill="url(#SVGID_5_)" d="M89.047,40.714v-0.278c-0.771-0.163-1.553-0.298-2.338-0.379c-3.98-0.412-8.023,0.25-11.195,2.087
			c-3.174,1.841-4.879,4.507-5.064,7.344c-0.185,2.834,1.145,5.836,4.047,8.328c2.912,2.504,6.848,4.018,10.855,4.445
			c1.236,0.131,2.475,0.146,3.695,0.066v-9.883c-0.771,1.594-3.045,2.318-5.318,1.615c-2.448-0.756-3.966-2.875-3.392-4.73
			c0.573-1.858,3.021-2.752,5.468-1.998c1.557,0.482,2.736,1.515,3.242,2.679V40.714L89.047,40.714z"/>
		<path d="M74.473,45.378c-0.59,0.318-1.184,0.641-1.784,0.967c0.282,0.232,0.563,0.463,0.843,0.695
			c0.281,0.23,0.563,0.461,0.842,0.692c-0.549,0.309-1.1,0.619-1.656,0.932c-0.76-0.625-1.522-1.252-2.284-1.879
			c-0.763-0.625-1.526-1.254-2.291-1.881c1.394-0.713,2.759-1.41,4.091-2.092c0.352,0.291,0.703,0.58,1.054,0.869
			c-0.772,0.404-1.556,0.813-2.346,1.227c0.245,0.201,0.489,0.402,0.734,0.604c0.606-0.32,1.206-0.641,1.8-0.955
			C73.808,44.83,74.141,45.105,74.473,45.378L74.473,45.378z M74.404,41.703c0.724,0.598,1.447,1.195,2.17,1.793
			c0.721,0.596,1.441,1.191,2.161,1.785c-0.522,0.293-1.046,0.588-1.575,0.887c-0.731-0.604-1.464-1.207-2.195-1.811
			s-1.465-1.211-2.199-1.816C73.315,42.259,73.861,41.98,74.404,41.703L74.404,41.703z M79.617,44.787
			c-0.715-0.59-1.432-1.182-2.146-1.773c-0.717-0.592-1.434-1.184-2.151-1.777c0.666-0.34,1.325-0.678,1.978-1.01
			c0.836-0.428,1.664-0.57,2.484-0.436c0.408,0.066,0.779,0.174,1.117,0.318c0.336,0.145,0.643,0.328,0.912,0.553
			c0.309,0.256,0.533,0.518,0.678,0.781c0.146,0.266,0.213,0.537,0.195,0.814c-0.035,0.557-0.391,1.027-1.078,1.412
			C80.951,44.037,80.288,44.41,79.617,44.787L79.617,44.787z M80.154,43.134c0.131-0.072,0.262-0.145,0.392-0.217
			c0.247-0.135,0.351-0.336,0.313-0.598c-0.038-0.264-0.236-0.541-0.59-0.836c-0.305-0.254-0.644-0.43-1.017-0.533
			c-0.374-0.104-0.707-0.08-0.997,0.07c-0.133,0.07-0.268,0.141-0.4,0.209c0.384,0.318,0.769,0.635,1.151,0.953
			C79.39,42.5,79.773,42.818,80.154,43.134L80.154,43.134z M86.488,41.013c-0.621,0.352-1.326,0.482-2.107,0.393
			c-0.393-0.047-0.77-0.146-1.127-0.303c-0.355-0.158-0.697-0.369-1.02-0.635c-0.307-0.256-0.537-0.516-0.692-0.777
			c-0.154-0.262-0.229-0.527-0.229-0.797c-0.001-0.535,0.349-0.982,1.045-1.336c0.633-0.324,1.33-0.432,2.086-0.33
			c0.375,0.051,0.732,0.154,1.07,0.305s0.66,0.352,0.963,0.604c0.313,0.26,0.545,0.521,0.699,0.783
			c0.156,0.26,0.232,0.523,0.23,0.785C87.404,40.232,87.102,40.669,86.488,41.013L86.488,41.013z M85.57,40.259
			c0.23-0.127,0.303-0.293,0.223-0.5c-0.078-0.203-0.361-0.506-0.84-0.904c-0.348-0.289-0.662-0.479-0.939-0.568
			c-0.279-0.09-0.525-0.08-0.734,0.029c-0.229,0.119-0.303,0.293-0.219,0.52c0.086,0.227,0.332,0.508,0.732,0.842
			c0.377,0.313,0.711,0.52,1.008,0.615C85.098,40.39,85.355,40.376,85.57,40.259L85.57,40.259z"/>
		
			<path fill-rule="evenodd" clip-rule="evenodd" fill="none" stroke="#B3B3B3" stroke-width="0.2251" stroke-miterlimit="2.4142" d="
			M83.52,49.16c0.934-0.381,2.273-0.043,2.99,0.754c0.719,0.797,0.543,1.75-0.389,2.133c-0.936,0.381-2.273,0.043-2.992-0.754
			C82.412,50.498,82.586,49.543,83.52,49.16L83.52,49.16z"/>
		
			<path fill-rule="evenodd" clip-rule="evenodd" fill="none" stroke="#B3B3B3" stroke-width="0.2223" stroke-miterlimit="2.4142" d="
			M88.959,52.471c-0.85,1.521-3.107,2.439-5.246,1.68c-2.301-0.818-3.908-2.818-3.428-4.631c0.479-1.813,3.027-2.913,5.49-2.257
			c1.471,0.39,2.666,1.589,3.225,2.652"/>
	</g>
</g>
</svg>
