<?xml version="1.0" encoding="UTF-8" standalone="no"?>
<!-- Created with Inkscape (http://www.inkscape.org/) -->

<svg
   xmlns:dc="http://purl.org/dc/elements/1.1/"
   xmlns:cc="http://creativecommons.org/ns#"
   xmlns:rdf="http://www.w3.org/1999/02/22-rdf-syntax-ns#"
   xmlns:svg="http://www.w3.org/2000/svg"
   xmlns="http://www.w3.org/2000/svg"
   xmlns:xlink="http://www.w3.org/1999/xlink"
   xmlns:sodipodi="http://sodipodi.sourceforge.net/DTD/sodipodi-0.dtd"
   xmlns:inkscape="http://www.inkscape.org/namespaces/inkscape"
   version="1.0"
   width="96"
   height="96"
   id="svg2408"
   inkscape:version="0.48.1 r9760"
   sodipodi:docname="fluxgui_3.svg">
  <sodipodi:namedview
     pagecolor="#ffffff"
     bordercolor="#666666"
     borderopacity="1"
     objecttolerance="10"
     gridtolerance="10"
     guidetolerance="10"
     inkscape:pageopacity="0"
     inkscape:pageshadow="2"
     inkscape:window-width="640"
     inkscape:window-height="480"
     id="namedview156"
     showgrid="false"
     inkscape:zoom="2.9895833"
     inkscape:cx="48"
     inkscape:cy="48"
     inkscape:window-x="0"
     inkscape:window-y="1"
     inkscape:window-maximized="0"
     inkscape:current-layer="svg2408" />
  <defs
     id="defs2410">
    <radialGradient
       cx="622.72803"
       cy="621.17328"
       r="510.71881"
       fx="622.72803"
       fy="621.17328"
       id="radialGradient3809"
       gradientUnits="userSpaceOnUse">
      <stop
         id="stop3811"
         style="stop-color:#f0f0f0;stop-opacity:1"
         offset="0" />
      <stop
         id="stop3813"
         style="stop-color:#e1e1e1;stop-opacity:1"
         offset="0.2814" />
      <stop
         id="stop3815"
         style="stop-color:#c0c0c0;stop-opacity:1"
         offset="0.75150001" />
      <stop
         id="stop3817"
         style="stop-color:#b2b2b2;stop-opacity:1"
         offset="1" />
    </radialGradient>
    <linearGradient
       id="linearGradient3985">
      <stop
         id="stop3987"
         style="stop-color:#000000;stop-opacity:1"
         offset="0" />
      <stop
         id="stop3989"
         style="stop-color:#000000;stop-opacity:0"
         offset="1" />
    </linearGradient>
    <linearGradient
       x1="45.447727"
       y1="92.539597"
       x2="45.447727"
       y2="7.0165396"
       id="ButtonShadow"
       gradientUnits="userSpaceOnUse"
       gradientTransform="scale(1.0058652,0.994169)">
      <stop
         id="stop3750"
         style="stop-color:#000000;stop-opacity:1"
         offset="0" />
      <stop
         id="stop3752"
         style="stop-color:#000000;stop-opacity:0.58823532"
         offset="1" />
    </linearGradient>
    <linearGradient
       id="linearGradient3737">
      <stop
         id="stop3739"
         style="stop-color:#ffffff;stop-opacity:1"
         offset="0" />
      <stop
         id="stop3741"
         style="stop-color:#ffffff;stop-opacity:0"
         offset="1" />
    </linearGradient>
    <filter
       color-interpolation-filters="sRGB"
       id="filter3174">
      <feGaussianBlur
         id="feGaussianBlur3176"
         stdDeviation="1.71" />
    </filter>
    <linearGradient
       x1="36.357143"
       y1="6"
       x2="36.357143"
       y2="63.893143"
       id="linearGradient3188"
       xlink:href="#linearGradient3737"
       gradientUnits="userSpaceOnUse" />
    <filter
       x="-0.192"
       y="-0.192"
       width="1.3839999"
       height="1.3839999"
       color-interpolation-filters="sRGB"
       id="filter3794">
      <feGaussianBlur
         id="feGaussianBlur3796"
         stdDeviation="5.28" />
    </filter>
    <linearGradient
       x1="48"
       y1="20.220806"
       x2="48"
       y2="138.66119"
       id="linearGradient3613"
       xlink:href="#linearGradient3737"
       gradientUnits="userSpaceOnUse" />
    <radialGradient
       cx="48"
       cy="90.171875"
       r="42"
       fx="48"
       fy="90.171875"
       id="radialGradient3619"
       xlink:href="#linearGradient3737"
       gradientUnits="userSpaceOnUse"
       gradientTransform="matrix(1.1573129,0,0,0.99590774,-7.5510206,0.19713193)" />
    <clipPath
       id="clipPath3613">
      <rect
         width="84"
         height="84"
         rx="6"
         ry="6"
         x="6"
         y="6"
         id="rect3615"
         style="fill:#ffffff;fill-opacity:1;fill-rule:nonzero;stroke:none" />
    </clipPath>
    <linearGradient
       x1="48"
       y1="90"
       x2="48"
       y2="5.9877172"
       id="linearGradient3617"
       xlink:href="#radialGradient3809"
       gradientUnits="userSpaceOnUse"
       gradientTransform="translate(0,-96)" />
    <radialGradient
       cx="622.72803"
       cy="621.17328"
       r="510.71881"
       fx="622.72803"
       fy="621.17328"
       id="XMLID_22_"
       gradientUnits="userSpaceOnUse">
      <stop
         id="stop14"
         style="stop-color:#ffffff;stop-opacity:1"
         offset="0" />
      <stop
         id="stop16"
         style="stop-color:#e6e6e6;stop-opacity:1"
         offset="0.2814" />
      <stop
         id="stop18"
         style="stop-color:#c0c0c0;stop-opacity:1"
         offset="0.75150001" />
      <stop
         id="stop20"
         style="stop-color:#b2b2b2;stop-opacity:1"
         offset="1" />
    </radialGradient>
    <mask
       id="XMLID_23_">
      <g
         id="g31"
         style="filter:url(#Adobe_OpacityMaskFilter)">
        <radialGradient
           cx="88.977501"
           cy="-20.899401"
           r="673.11609"
           fx="88.977501"
           fy="-20.899401"
           id="XMLID_24_"
           gradientUnits="userSpaceOnUse">
          <stop
             id="stop34"
             style="stop-color:#ffffff;stop-opacity:1"
             offset="0.30899999" />
          <stop
             id="stop36"
             style="stop-color:#000000;stop-opacity:1"
             offset="1" />
        </radialGradient>
        <ellipse
           cx="295.89499"
           cy="286.172"
           rx="512.93402"
           ry="349.10599"
           id="ellipse38"
           style="fill:url(#XMLID_24_) #000000" />
      </g>
    </mask>
    <mask
       id="XMLID_13_">
      <g
         id="g193"
         style="filter:url(#Adobe_OpacityMaskFilter_4_)">
        <linearGradient
           x1="340.0488"
           y1="266.93359"
           x2="372.38071"
           y2="417.81519"
           id="XMLID_14_"
           gradientUnits="userSpaceOnUse">
          <stop
             id="stop196"
             style="stop-color:#ffffff;stop-opacity:1"
             offset="0" />
          <stop
             id="stop198"
             style="stop-color:#f8f8f8;stop-opacity:1"
             offset="0.0867" />
          <stop
             id="stop200"
             style="stop-color:#e4e4e4;stop-opacity:1"
             offset="0.2156" />
          <stop
             id="stop202"
             style="stop-color:#c2c2c2;stop-opacity:1"
             offset="0.37079999" />
          <stop
             id="stop204"
             style="stop-color:#949494;stop-opacity:1"
             offset="0.54650003" />
          <stop
             id="stop206"
             style="stop-color:#595959;stop-opacity:1"
             offset="0.73940003" />
          <stop
             id="stop208"
             style="stop-color:#151515;stop-opacity:1"
             offset="0.94379997" />
          <stop
             id="stop210"
             style="stop-color:#000000;stop-opacity:1"
             offset="0.99440002" />
        </linearGradient>
        <ellipse
           cx="363.052"
           cy="374.28201"
           rx="215.32401"
           ry="183.32201"
           id="ellipse212"
           style="fill:url(#XMLID_14_) #000000" />
      </g>
    </mask>
    <mask
       id="XMLID_10_">
      <g
         id="g159">
        <radialGradient
           cx="657.2124"
           cy="155.23289"
           r="606.95343"
           fx="657.2124"
           fy="155.23289"
           id="XMLID_11_"
           gradientUnits="userSpaceOnUse"
           gradientTransform="matrix(0.931,0,0,0.9299,28.7459,21.6629)">
          <stop
             id="stop162"
             style="stop-color:#c9c9c8;stop-opacity:1"
             offset="0" />
          <stop
             id="stop164"
             style="stop-color:#c4c4c4;stop-opacity:1"
             offset="0.0881" />
          <stop
             id="stop166"
             style="stop-color:#b8b8b7;stop-opacity:1"
             offset="0.2192" />
          <stop
             id="stop168"
             style="stop-color:#a1a0a0;stop-opacity:1"
             offset="0.37689999" />
          <stop
             id="stop170"
             style="stop-color:#7f7f7e;stop-opacity:1"
             offset="0.55559999" />
          <stop
             id="stop172"
             style="stop-color:#4f4f4e;stop-opacity:1"
             offset="0.75169998" />
          <stop
             id="stop174"
             style="stop-color:#121212;stop-opacity:1"
             offset="0.95950001" />
          <stop
             id="stop176"
             style="stop-color:#000000;stop-opacity:1"
             offset="1" />
        </radialGradient>
        <circle
           cx="408.427"
           cy="444.22601"
           r="302.95401"
           id="circle178"
           style="fill:url(#XMLID_11_) #000000" />
      </g>
    </mask>
    <linearGradient
       x1="220.9512"
       y1="634.63232"
       x2="278.14471"
       y2="560.35498"
       id="XMLID_5_"
       gradientUnits="userSpaceOnUse">
      <stop
         id="stop119"
         style="stop-color:#ffffff;stop-opacity:1"
         offset="0" />
      <stop
         id="stop121"
         style="stop-color:#193d6b;stop-opacity:1"
         offset="1" />
    </linearGradient>
    <linearGradient
       x1="429.84909"
       y1="815.45459"
       x2="480.12021"
       y2="643.30768"
       id="XMLID_4_"
       gradientUnits="userSpaceOnUse"
       gradientTransform="matrix(-1.12563,0,0,1.12563,1028.91,-39.5467)">
      <stop
         id="stop112"
         style="stop-color:#ffffff;stop-opacity:1"
         offset="0" />
      <stop
         id="stop114"
         style="stop-color:#e5eaf2;stop-opacity:1"
         offset="1" />
    </linearGradient>
    <mask
       id="XMLID_2_">
      <g
         id="g86">
        <linearGradient
           x1="206.09081"
           y1="397.62061"
           x2="186.92191"
           y2="563.47321"
           id="XMLID_3_"
           gradientUnits="userSpaceOnUse">
          <stop
             id="stop89"
             style="stop-color:#ffffff;stop-opacity:1"
             offset="0" />
          <stop
             id="stop91"
             style="stop-color:#cbcbcb;stop-opacity:1"
             offset="0.1111" />
          <stop
             id="stop93"
             style="stop-color:#969696;stop-opacity:1"
             offset="0.2396" />
          <stop
             id="stop95"
             style="stop-color:#686868;stop-opacity:1"
             offset="0.3698" />
          <stop
             id="stop97"
             style="stop-color:#424242;stop-opacity:1"
             offset="0.4991" />
          <stop
             id="stop99"
             style="stop-color:#252525;stop-opacity:1"
             offset="0.62730002" />
          <stop
             id="stop101"
             style="stop-color:#111111;stop-opacity:1"
             offset="0.75419998" />
          <stop
             id="stop103"
             style="stop-color:#040404;stop-opacity:1"
             offset="0.87919998" />
          <stop
             id="stop105"
             style="stop-color:#000000;stop-opacity:1"
             offset="1" />
        </linearGradient>
        <ellipse
           cx="194.76401"
           cy="495.62299"
           rx="160.94"
           ry="123.604"
           id="ellipse107"
           style="fill:url(#XMLID_3_) #000000" />
      </g>
    </mask>
    <mask
       id="XMLID_26_">
      <g
         id="g69">
        <linearGradient
           x1="211.7222"
           y1="562.85791"
           x2="200.0733"
           y2="466.75449"
           id="XMLID_1_"
           gradientUnits="userSpaceOnUse">
          <stop
             id="stop72"
             style="stop-color:#ffffff;stop-opacity:1"
             offset="0" />
          <stop
             id="stop74"
             style="stop-color:#000000;stop-opacity:1"
             offset="1" />
        </linearGradient>
        <ellipse
           cx="203.617"
           cy="495.98801"
           rx="80.542"
           ry="59.682999"
           id="ellipse76"
           style="fill:url(#XMLID_1_) #000000" />
      </g>
    </mask>
    <linearGradient
       id="linearGradient5498">
      <stop
         id="stop5500"
         style="stop-color:#eeeeee;stop-opacity:1"
         offset="0" />
      <stop
         id="stop5502"
         style="stop-color:#eeeeee;stop-opacity:0"
         offset="1" />
    </linearGradient>
    <radialGradient
       cx="375.21439"
       cy="783.16357"
       r="300.5752"
       fx="375.21439"
       fy="783.16357"
       id="radialGradient29545"
       gradientUnits="userSpaceOnUse"
       gradientTransform="matrix(1.12563,0,0,1.12563,-41.8734,-39.5467)">
      <stop
         id="stop29547"
         style="stop-color:#eeeeef;stop-opacity:0.941176"
         offset="0.0112" />
      <stop
         id="stop29549"
         style="stop-color:#6193cf;stop-opacity:1"
         offset="0.29210001" />
      <stop
         id="stop29551"
         style="stop-color:#2c72c7;stop-opacity:1"
         offset="0.45750001" />
      <stop
         id="stop29553"
         style="stop-color:#0057ae;stop-opacity:1"
         offset="0.6767" />
      <stop
         id="stop29555"
         style="stop-color:#004d9a;stop-opacity:1"
         offset="0.8653" />
      <stop
         id="stop29557"
         style="stop-color:#00438a;stop-opacity:1"
         offset="1" />
    </radialGradient>
    <linearGradient
       x1="220.36789"
       y1="756.76105"
       x2="185.21225"
       y2="491.06723"
       id="linearGradient3928"
       xlink:href="#linearGradient5498"
       gradientUnits="userSpaceOnUse"
       gradientTransform="matrix(0.08428564,0,0,0.08428564,12.002509,12.007535)" />
    <linearGradient
       x1="247.47713"
       y1="274.88394"
       x2="130.31757"
       y2="580.54669"
       id="linearGradient3931"
       xlink:href="#linearGradient5498"
       gradientUnits="userSpaceOnUse"
       gradientTransform="matrix(0.08428564,0,0,0.08428564,12.002509,12.007535)" />
    <linearGradient
       x1="370.62177"
       y1="-309.6048"
       x2="370.20648"
       y2="458.38397"
       id="linearGradient3934"
       xlink:href="#linearGradient5498"
       gradientUnits="userSpaceOnUse"
       gradientTransform="matrix(0.08428564,0,0,0.08428564,12.002509,12.007535)" />
    <linearGradient
       x1="1508.4957"
       y1="-363.42487"
       x2="361.1441"
       y2="630.52039"
       id="linearGradient3937"
       xlink:href="#linearGradient5498"
       gradientUnits="userSpaceOnUse"
       gradientTransform="matrix(0.08428564,0,0,0.08428564,12.002509,12.007535)" />
    <linearGradient
       x1="331.49609"
       y1="790.51508"
       x2="409.85471"
       y2="688.75092"
       id="linearGradient3940"
       xlink:href="#XMLID_5_"
       gradientUnits="userSpaceOnUse"
       gradientTransform="matrix(0.09487444,0,0,0.09487444,8.473189,8.6743156)" />
    <linearGradient
       x1="319.186"
       y1="713.54639"
       x2="373.12509"
       y2="626.00598"
       id="linearGradient3943"
       xlink:href="#XMLID_5_"
       gradientUnits="userSpaceOnUse"
       gradientTransform="matrix(0.09487444,0,0,0.09487444,8.473189,8.6743156)" />
    <linearGradient
       x1="264.5405"
       y1="704.23578"
       x2="335.09619"
       y2="612.60522"
       id="linearGradient3946"
       xlink:href="#XMLID_5_"
       gradientUnits="userSpaceOnUse"
       gradientTransform="matrix(0.09487444,0,0,0.09487444,8.473189,8.6743156)" />
    <linearGradient
       x1="237.20799"
       y1="684.01898"
       x2="328.18469"
       y2="565.86761"
       id="linearGradient3949"
       xlink:href="#XMLID_5_"
       gradientUnits="userSpaceOnUse"
       gradientTransform="matrix(0.09487444,0,0,0.09487444,8.473189,8.6743156)" />
    <linearGradient
       x1="220.9512"
       y1="634.63232"
       x2="278.14471"
       y2="560.35498"
       id="linearGradient3952"
       xlink:href="#XMLID_5_"
       gradientUnits="userSpaceOnUse"
       gradientTransform="matrix(0.09487444,0,0,0.09487444,8.473189,8.6743156)" />
    <linearGradient
       x1="429.84909"
       y1="815.45459"
       x2="480.12021"
       y2="643.30768"
       id="linearGradient3955"
       xlink:href="#XMLID_4_"
       gradientUnits="userSpaceOnUse"
       gradientTransform="matrix(-0.09487444,0,0,0.09487444,98.72485,8.6743156)" />
    <radialGradient
       cx="375.21439"
       cy="783.16357"
       r="300.5752"
       fx="375.21439"
       fy="783.16357"
       id="radialGradient3959"
       xlink:href="#radialGradient29545"
       gradientUnits="userSpaceOnUse"
       gradientTransform="matrix(0.09487444,0,0,0.09487444,8.473189,8.6743156)" />
    <radialGradient
       cx="663.91144"
       cy="649.22662"
       r="427.12018"
       fx="663.91144"
       fy="649.22662"
       id="radialGradient3972"
       xlink:href="#XMLID_22_"
       gradientUnits="userSpaceOnUse"
       gradientTransform="matrix(0.08428564,0,0,0.08428564,12.002509,12.007534)" />
    <linearGradient
       x1="13.1875"
       y1="48"
       x2="82.8125"
       y2="48"
       id="linearGradient3991"
       xlink:href="#linearGradient3985"
       gradientUnits="userSpaceOnUse"
       gradientTransform="matrix(0,1,-1,0,96,0)" />
    <linearGradient
       x1="45.447727"
       y1="92.539597"
       x2="45.447727"
       y2="7.0165396"
       id="ButtonShadow-0"
       gradientUnits="userSpaceOnUse"
       gradientTransform="matrix(1.0058652,0,0,0.994169,100,0)">
      <stop
         id="stop3750-8"
         style="stop-color:#000000;stop-opacity:1"
         offset="0" />
      <stop
         id="stop3752-5"
         style="stop-color:#000000;stop-opacity:0.58823532"
         offset="1" />
    </linearGradient>
    <linearGradient
       x1="32.251034"
       y1="6.1317081"
       x2="32.251034"
       y2="90.238609"
       id="linearGradient3780"
       xlink:href="#ButtonShadow-0"
       gradientUnits="userSpaceOnUse"
       gradientTransform="matrix(1.0238095,0,0,1.0119048,-1.1428571,-98.071429)" />
    <linearGradient
       x1="32.251034"
       y1="6.1317081"
       x2="32.251034"
       y2="90.238609"
       id="linearGradient3772"
       xlink:href="#ButtonShadow-0"
       gradientUnits="userSpaceOnUse"
       gradientTransform="matrix(1.0238095,0,0,1.0119048,-1.1428571,-98.071429)" />
    <linearGradient
       x1="32.251034"
       y1="6.1317081"
       x2="32.251034"
       y2="90.238609"
       id="linearGradient3725"
       xlink:href="#ButtonShadow-0"
       gradientUnits="userSpaceOnUse"
       gradientTransform="matrix(1.0238095,0,0,1.0119048,-1.1428571,-98.071429)" />
    <linearGradient
       x1="32.251034"
       y1="6.1317081"
       x2="32.251034"
       y2="90.238609"
       id="linearGradient3721"
       xlink:href="#ButtonShadow-0"
       gradientUnits="userSpaceOnUse"
       gradientTransform="translate(0,-97)" />
    <linearGradient
       x1="32.251034"
       y1="6.1317081"
       x2="32.251034"
       y2="90.238609"
       id="linearGradient3059"
       xlink:href="#ButtonShadow-0"
       gradientUnits="userSpaceOnUse"
       gradientTransform="matrix(1.0238095,0,0,1.0119048,-1.1428571,-98.071429)" />
  </defs>
  <metadata
     id="metadata2413">
    <rdf:RDF>
      <cc:Work
         rdf:about="">
        <dc:format>image/svg+xml</dc:format>
        <dc:type
           rdf:resource="http://purl.org/dc/dcmitype/StillImage" />
      </cc:Work>
    </rdf:RDF>
  </metadata>
  <g
     id="layer2"
     style="display:none">
    <rect
       width="86"
       height="85"
       rx="6"
       ry="6"
       x="5"
       y="7"
       id="rect3745"
       style="opacity:0.9;fill:url(#ButtonShadow);fill-opacity:1;fill-rule:nonzero;stroke:none;filter:url(#filter3174)" />
  </g>
  <g
     id="layer4"
     style="display:inline">
    <path
       d="m 12,-95.03125 c -5.5110903,0 -10.03125,4.52016 -10.03125,10.03125 l 0,71 c 0,5.5110902 4.5201598,10.03125 10.03125,10.03125 l 72,0 c 5.51109,0 10.03125,-4.5201597 10.03125,-10.03125 l 0,-71 c 0,-5.51109 -4.52016,-10.03125 -10.03125,-10.03125 l -72,0 z"
       transform="scale(1,-1)"
       id="path3786"
       style="opacity:0.07999998;fill:url(#linearGradient3059);fill-opacity:1;fill-rule:nonzero;stroke:none;display:inline" />
    <path
       d="m 12,-94.03125 c -4.971633,0 -9.03125,4.059617 -9.03125,9.03125 l 0,71 c 0,4.9716329 4.0596171,9.03125 9.03125,9.03125 l 72,0 c 4.971633,0 9.03125,-4.059617 9.03125,-9.03125 l 0,-71 c 0,-4.971633 -4.059617,-9.03125 -9.03125,-9.03125 l -72,0 z"
       transform="scale(1,-1)"
       id="path3778"
       style="opacity:0.1;fill:url(#linearGradient3780);fill-opacity:1;fill-rule:nonzero;stroke:none;display:inline" />
    <path
       d="m 12,-93 c -4.4091333,0 -8,3.590867 -8,8 l 0,71 c 0,4.4091333 3.5908667,8 8,8 l 72,0 c 4.409133,0 8,-3.5908667 8,-8 l 0,-71 c 0,-4.409133 -3.590867,-8 -8,-8 l -72,0 z"
       transform="scale(1,-1)"
       id="path3770"
       style="opacity:0.2;fill:url(#linearGradient3772);fill-opacity:1;fill-rule:nonzero;stroke:none;display:inline" />
    <rect
       width="86"
       height="85"
       rx="7"
       ry="7"
       x="5"
       y="-92"
       transform="scale(1,-1)"
       id="rect3723"
       style="opacity:0.3;fill:url(#linearGradient3725);fill-opacity:1;fill-rule:nonzero;stroke:none;display:inline" />
    <rect
       width="84"
       height="84"
       rx="6"
       ry="6"
       x="6"
       y="-91"
       transform="scale(1,-1)"
       id="rect3716"
       style="opacity:0.45;fill:url(#linearGradient3721);fill-opacity:1;fill-rule:nonzero;stroke:none;display:inline" />
  </g>
  <g
     id="layer1">
    <rect
       width="84"
       height="84"
       rx="6"
       ry="6"
       x="6"
       y="-90"
       transform="scale(1,-1)"
       id="rect2419"
       style="fill:url(#linearGradient3617);fill-opacity:1;fill-rule:nonzero;stroke:none" />
    <path
       d="M 12,6 C 8.676,6 6,8.676 6,12 l 0,2 0,68 0,2 c 0,0.334721 0.04135,0.6507 0.09375,0.96875 0.0487,0.295596 0.09704,0.596915 0.1875,0.875 0.00988,0.03038 0.020892,0.0636 0.03125,0.09375 0.098865,0.287771 0.2348802,0.547452 0.375,0.8125 0.1445918,0.273507 0.3156161,0.535615 0.5,0.78125 0.1843839,0.245635 0.3737765,0.473472 0.59375,0.6875 0.439947,0.428056 0.94291,0.814526 1.5,1.09375 0.278545,0.139612 0.5734731,0.246947 0.875,0.34375 -0.2562018,-0.100222 -0.4867109,-0.236272 -0.71875,-0.375 -0.00741,-0.0044 -0.023866,0.0045 -0.03125,0 -0.031933,-0.0193 -0.062293,-0.04251 -0.09375,-0.0625 -0.120395,-0.0767 -0.2310226,-0.163513 -0.34375,-0.25 -0.1061728,-0.0808 -0.2132809,-0.161112 -0.3125,-0.25 C 8.4783201,88.557317 8.3087904,88.373362 8.15625,88.1875 8.0486711,88.057245 7.9378561,87.922215 7.84375,87.78125 7.818661,87.74287 7.805304,87.69538 7.78125,87.65625 7.716487,87.553218 7.6510225,87.451733 7.59375,87.34375 7.4927417,87.149044 7.3880752,86.928049 7.3125,86.71875 7.30454,86.69694 7.288911,86.6782 7.28125,86.65625 7.2494249,86.5643 7.2454455,86.469419 7.21875,86.375 7.1884177,86.268382 7.1483606,86.171969 7.125,86.0625 7.0521214,85.720988 7,85.364295 7,85 L 7,83 7,15 7,13 C 7,10.218152 9.2181517,8 12,8 l 2,0 68,0 2,0 c 2.781848,0 5,2.218152 5,5 l 0,2 0,68 0,2 c 0,0.364295 -0.05212,0.720988 -0.125,1.0625 -0.04415,0.206893 -0.08838,0.397658 -0.15625,0.59375 -0.0077,0.02195 -0.0233,0.04069 -0.03125,0.0625 -0.06274,0.173739 -0.138383,0.367449 -0.21875,0.53125 -0.04158,0.0828 -0.07904,0.169954 -0.125,0.25 -0.0546,0.09721 -0.126774,0.18835 -0.1875,0.28125 -0.09411,0.140965 -0.204921,0.275995 -0.3125,0.40625 -0.143174,0.17445 -0.303141,0.346998 -0.46875,0.5 -0.01117,0.0102 -0.01998,0.02115 -0.03125,0.03125 -0.138386,0.125556 -0.285091,0.234436 -0.4375,0.34375 -0.102571,0.07315 -0.204318,0.153364 -0.3125,0.21875 -0.0074,0.0045 -0.02384,-0.0044 -0.03125,0 -0.232039,0.138728 -0.462548,0.274778 -0.71875,0.375 0.301527,-0.0968 0.596455,-0.204138 0.875,-0.34375 0.55709,-0.279224 1.060053,-0.665694 1.5,-1.09375 0.219973,-0.214028 0.409366,-0.441865 0.59375,-0.6875 0.184384,-0.245635 0.355408,-0.507743 0.5,-0.78125 0.14012,-0.265048 0.276135,-0.524729 0.375,-0.8125 0.01041,-0.03078 0.02133,-0.06274 0.03125,-0.09375 0.09046,-0.278085 0.1388,-0.579404 0.1875,-0.875 C 89.95865,84.6507 90,84.334721 90,84 l 0,-2 0,-68 0,-2 C 90,8.676 87.324,6 84,6 L 12,6 z"
       inkscape:connector-curvature="0"
       id="rect3728"
       style="opacity:0.5;fill:url(#linearGradient3188);fill-opacity:1;fill-rule:nonzero;stroke:none" />
    <path
       d="M 12,90 C 8.676,90 6,87.324 6,84 L 6,82 6,14 6,12 c 0,-0.334721 0.04135,-0.6507 0.09375,-0.96875 0.0487,-0.295596 0.09704,-0.596915 0.1875,-0.875 C 6.29113,10.12587 6.302142,10.09265 6.3125,10.0625 6.411365,9.774729 6.5473802,9.515048 6.6875,9.25 6.8320918,8.976493 7.0031161,8.714385 7.1875,8.46875 7.3718839,8.223115 7.5612765,7.995278 7.78125,7.78125 8.221197,7.353194 8.72416,6.966724 9.28125,6.6875 9.559795,6.547888 9.8547231,6.440553 10.15625,6.34375 9.9000482,6.443972 9.6695391,6.580022 9.4375,6.71875 c -0.00741,0.0044 -0.023866,-0.0045 -0.03125,0 -0.031933,0.0193 -0.062293,0.04251 -0.09375,0.0625 -0.120395,0.0767 -0.2310226,0.163513 -0.34375,0.25 -0.1061728,0.0808 -0.2132809,0.161112 -0.3125,0.25 C 8.4783201,7.442683 8.3087904,7.626638 8.15625,7.8125 8.0486711,7.942755 7.9378561,8.077785 7.84375,8.21875 7.818661,8.25713 7.805304,8.30462 7.78125,8.34375 7.716487,8.446782 7.6510225,8.548267 7.59375,8.65625 7.4927417,8.850956 7.3880752,9.071951 7.3125,9.28125 7.30454,9.30306 7.288911,9.3218 7.28125,9.34375 7.2494249,9.4357 7.2454455,9.530581 7.21875,9.625 7.1884177,9.731618 7.1483606,9.828031 7.125,9.9375 7.0521214,10.279012 7,10.635705 7,11 l 0,2 0,68 0,2 c 0,2.781848 2.2181517,5 5,5 l 2,0 68,0 2,0 c 2.781848,0 5,-2.218152 5,-5 l 0,-2 0,-68 0,-2 C 89,10.635705 88.94788,10.279012 88.875,9.9375 88.83085,9.730607 88.78662,9.539842 88.71875,9.34375 88.71105,9.3218 88.69545,9.30306 88.6875,9.28125 88.62476,9.107511 88.549117,8.913801 88.46875,8.75 88.42717,8.6672 88.38971,8.580046 88.34375,8.5 88.28915,8.40279 88.216976,8.31165 88.15625,8.21875 88.06214,8.077785 87.951329,7.942755 87.84375,7.8125 87.700576,7.63805 87.540609,7.465502 87.375,7.3125 87.36383,7.3023 87.35502,7.29135 87.34375,7.28125 87.205364,7.155694 87.058659,7.046814 86.90625,6.9375 86.803679,6.86435 86.701932,6.784136 86.59375,6.71875 c -0.0074,-0.0045 -0.02384,0.0044 -0.03125,0 -0.232039,-0.138728 -0.462548,-0.274778 -0.71875,-0.375 0.301527,0.0968 0.596455,0.204138 0.875,0.34375 0.55709,0.279224 1.060053,0.665694 1.5,1.09375 0.219973,0.214028 0.409366,0.441865 0.59375,0.6875 0.184384,0.245635 0.355408,0.507743 0.5,0.78125 0.14012,0.265048 0.276135,0.524729 0.375,0.8125 0.01041,0.03078 0.02133,0.06274 0.03125,0.09375 0.09046,0.278085 0.1388,0.579404 0.1875,0.875 C 89.95865,11.3493 90,11.665279 90,12 l 0,2 0,68 0,2 c 0,3.324 -2.676,6 -6,6 l -72,0 z"
       inkscape:connector-curvature="0"
       id="path3615"
       style="opacity:0.25;fill:url(#radialGradient3619);fill-opacity:1;fill-rule:nonzero;stroke:none" />
  </g>
  <g
     id="layer5">
    <rect
       width="66"
       height="66"
       rx="12"
       ry="12"
       x="15"
       y="15"
       clip-path="url(#clipPath3613)"
       id="rect3171"
       style="opacity:0.1;fill:url(#linearGradient3613);fill-opacity:1;fill-rule:nonzero;stroke:#ffffff;stroke-width:0.5;stroke-linecap:round;stroke-linejoin:miter;stroke-miterlimit:4;stroke-opacity:1;stroke-dasharray:none;stroke-dashoffset:0;filter:url(#filter3794)" />
  </g>
  <g
     inkscape:label="Layer 1"
     id="layer1-3"
     transform="matrix(1.4914175,0,0,1.4400665,1.1108739,2.08512)">
    <g
       transform="matrix(0.76512314,0,0,0.76512314,7.5160599,7.5160593)"
       id="g2820">
      <path
         sodipodi:type="arc"
         style="fill:#ffce7b;fill-opacity:1;fill-rule:nonzero;stroke:#666666;stroke-width:1;stroke-linecap:butt;stroke-linejoin:miter;stroke-miterlimit:4;stroke-opacity:1;stroke-dasharray:none;stroke-dashoffset:0"
         id="path2496"
         sodipodi:cx="-72.625"
         sodipodi:cy="8.75"
         sodipodi:rx="28.75"
         sodipodi:ry="28.75"
         d="m -43.875,8.75 c 0,15.878187 -12.871813,28.75 -28.75,28.75 -15.878187,0 -28.75,-12.871813 -28.75,-28.75 0,-15.8781866 12.871813,-28.75 28.75,-28.75 15.878187,0 28.75,12.8718134 28.75,28.75 z"
         transform="matrix(1.0189009,0,0,1.0189009,105.99768,23.084617)" />
      <path
         style="fill:#ff9f30;fill-opacity:1;fill-rule:evenodd;stroke:none"
         d="m 37.4375,28.9375 2,-2 3.3125,-1.5625 4.125,0.4375 2.5625,1.125 2.6875,2.6875 0.9375,2.9375 0.125,3.3125 -0.5,1.5625 -1.8125,3.125 -4.125,-4.375 -3.8125,-3.25 -5.5,-4 z"
         id="path3912"
         inkscape:connector-curvature="0" />
      <path
         style="fill:#869fcb;fill-opacity:1;fill-rule:evenodd;stroke:none"
         d="M 3.3125,38 5.5,34.5 l 4.1875,-4.375 4.1875,-3 6.0625,-2 4.8125,0 4.5,0.6875 L 33.9375,27.5 40,30.75 46.3125,36 l 4.25,4.125 3.875,4.125 2.625,3.1875 -3.3125,4.375 -3.9375,3.4375 -7.1875,4.3125 -6.625,1.5 -5.4375,0.25 -7.625,-1.25 -6.8125,-3.25 -4.9375,-4 -3.75,-4.875 L 4.8125,43 l -1.5,-5 z"
         id="path3916"
         inkscape:connector-curvature="0" />
      <path
         style="fill:none;stroke:#eae3d0;stroke-width:0.89632642px;stroke-linecap:butt;stroke-linejoin:miter;stroke-opacity:1"
         d="M 3.5416325,38.386326 C 6.3676959,29.727552 26.559787,9.1422814 56.761013,47.125508"
         id="path3272"
         sodipodi:nodetypes="cs"
         inkscape:connector-curvature="0" />
      <path
         style="fill:#eae3d0;fill-opacity:1;fill-rule:nonzero;stroke:none"
         d="m 50.429157,40.345481 0.627867,0.627872 c 0.423936,-0.423935 0.80751,-0.888233 1.144403,-1.38658 0.336902,-0.498346 0.627115,-1.03074 0.864345,-1.590868 0.237222,-0.560127 0.421462,-1.147988 0.546383,-1.757268 0.12493,-0.609279 0.19055,-1.239978 0.19055,-1.88578 0,-0.645802 -0.06562,-1.276501 -0.19055,-1.88578 -0.124921,-0.60928 -0.309161,-1.197141 -0.546383,-1.757268 -0.23723,-0.560128 -0.527443,-1.092522 -0.864345,-1.590868 -0.336893,-0.498347 -0.720467,-0.962645 -1.144403,-1.38658 -0.423935,-0.423936 -0.888232,-0.807509 -1.386581,-1.144405 -0.498339,-0.336895 -1.030739,-0.627114 -1.590863,-0.86434 -0.560132,-0.237226 -1.147988,-0.421461 -1.757274,-0.546389 -0.609278,-0.124928 -1.239978,-0.190549 -1.885773,-0.190549 -0.645803,0 -1.276503,0.06562 -1.885781,0.190549 -0.609286,0.124928 -1.197142,0.309163 -1.757274,0.546389 -0.560124,0.237226 -1.092515,0.527445 -1.590863,0.86434 -0.498349,0.336896 -0.962646,0.720469 -1.386581,1.144405 -0.423936,0.423935 -0.80751,0.888233 -1.144403,1.38658 l 0.73765,0.49536 c 0.304518,-0.450815 0.651288,-0.870729 1.03462,-1.254069 0.383341,-0.38334 0.803261,-0.730105 1.254077,-1.034626 0.450808,-0.304521 0.93253,-0.566795 1.439474,-0.781152 0.506953,-0.214357 1.039129,-0.380797 1.590863,-0.493647 0.551742,-0.112851 1.123034,-0.172112 1.708218,-0.172112 0.585176,0 1.156477,0.05926 1.70821,0.172112 0.551734,0.11285 1.08391,0.27929 1.590863,0.493647 0.506944,0.214357 0.988666,0.476631 1.439482,0.781152 0.450817,0.304521 0.870728,0.651286 1.254069,1.034626 0.383341,0.38334 0.730102,0.803254 1.03462,1.254069 0.304527,0.450815 0.566801,0.932534 0.781158,1.439481 0.214356,0.506948 0.380795,1.039126 0.493642,1.590862 0.112857,0.551737 0.172113,1.123032 0.172113,1.708213 0,0.585181 -0.05926,1.156476 -0.172113,1.708212 -0.112847,0.551736 -0.279286,1.083915 -0.493642,1.590862 -0.214357,0.506947 -0.476631,0.988666 -0.781158,1.439481 -0.304518,0.450815 -0.651279,0.870729 -1.03462,1.254069 z"
         id="path3291"
         sodipodi:nodetypes="ccssssssssssscssssccsssscsssssssssssc"
         inkscape:connector-curvature="0" />
      <path
         transform="matrix(1.0189009,0,0,1.0189009,105.99768,23.084617)"
         d="m -43.875,8.75 c 0,15.878187 -12.871813,28.75 -28.75,28.75 -15.878187,0 -28.75,-12.871813 -28.75,-28.75 0,-15.8781866 12.871813,-28.75 28.75,-28.75 15.878187,0 28.75,12.8718134 28.75,28.75 z"
         sodipodi:ry="28.75"
         sodipodi:rx="28.75"
         sodipodi:cy="8.75"
         sodipodi:cx="-72.625"
         id="path3914"
         style="fill:none;stroke:#666666;stroke-width:1;stroke-linecap:butt;stroke-linejoin:miter;stroke-miterlimit:4;stroke-opacity:1;stroke-dasharray:none;stroke-dashoffset:0"
         sodipodi:type="arc" />
    </g>
  </g>
</svg>
