<?xml version="1.0" encoding="utf-8"?>
<!-- Generator: Adobe Illustrator 15.0.2, SVG Export Plug-In . SVG Version: 6.00 Build 0)  -->
<!DOCTYPE svg PUBLIC "-//W3C//DTD SVG 1.1//EN" "http://www.w3.org/Graphics/SVG/1.1/DTD/svg11.dtd">
<svg version="1.1" id="Capa_1" xmlns="http://www.w3.org/2000/svg" xmlns:xlink="http://www.w3.org/1999/xlink" x="0px" y="0px"
	 width="200px" height="200px" viewBox="0 0 200 200" enable-background="new 0 0 200 200" xml:space="preserve">
<g id="svg2408" xmlns:inkscape="http://www.inkscape.org/namespaces/inkscape" xmlns:svg="http://www.w3.org/2000/svg" xmlns:dc="http://purl.org/dc/elements/1.1/" xmlns:cc="http://creativecommons.org/ns#" xmlns:rdf="http://www.w3.org/1999/02/22-rdf-syntax-ns#">
	<g id="layer2" display="none">
		<g id="rect3745" display="inline" opacity="0.9" enable-background="new    ">
			
				<linearGradient id="SVGID_1_" gradientUnits="userSpaceOnUse" x1="546.668" y1="1931.7207" x2="546.668" y2="1748.0391" gradientTransform="matrix(1.0059 0 0 0.9942 -449.8945 -1725.9863)">
				<stop  offset="0" style="stop-color:#000000"/>
				<stop  offset="1" style="stop-color:#000000;stop-opacity:0.5882"/>
			</linearGradient>
			<path fill="url(#SVGID_1_)" d="M20.508,11.914h158.983c7.117,0,12.891,5.772,12.891,12.891V181.64
				c0,7.117-5.773,12.891-12.891,12.891H20.508c-7.118,0-12.891-5.773-12.891-12.891V24.805
				C7.617,17.687,13.39,11.914,20.508,11.914z"/>
		</g>
	</g>
	<g>
		<g id="layer6_1_">
			
				<linearGradient id="path3786_2_" gradientUnits="userSpaceOnUse" x1="513.8301" y1="-1693.4463" x2="513.8301" y2="-1512.7493" gradientTransform="matrix(1.0238 0 0 -1.0119 -426.0596 -1522.5874)">
				<stop  offset="0" style="stop-color:#000000"/>
				<stop  offset="1" style="stop-color:#000000;stop-opacity:0.5882"/>
			</linearGradient>
			<path id="path3786_1_" opacity="0.08" fill="url(#path3786_2_)" enable-background="new    " d="M22.656,197.82
				c-11.843,0-21.551-9.714-21.551-21.552V23.73c0-11.841,9.708-21.551,21.551-21.551h154.687c11.842,0,21.552,9.712,21.552,21.551
				v152.538c0,11.842-9.71,21.552-21.552,21.552H22.656z"/>
			
				<linearGradient id="path3778_2_" gradientUnits="userSpaceOnUse" x1="513.8311" y1="-1693.4507" x2="513.8311" y2="-1512.7493" gradientTransform="matrix(1.0238 0 0 -1.0119 -426.0596 -1522.5874)">
				<stop  offset="0" style="stop-color:#000000"/>
				<stop  offset="1" style="stop-color:#000000;stop-opacity:0.5882"/>
			</linearGradient>
			<path id="path3778_1_" opacity="0.1" fill="url(#path3778_2_)" enable-background="new    " d="M22.656,195.672
				c-10.685,0-19.402-8.724-19.402-19.403V23.73c0-10.683,8.724-19.402,19.402-19.402h154.687c10.684,0,19.403,8.722,19.403,19.402
				v152.538c0,10.684-8.724,19.403-19.403,19.403H22.656z"/>
			
				<linearGradient id="path3770_2_" gradientUnits="userSpaceOnUse" x1="513.8301" y1="-1693.4429" x2="513.8301" y2="-1512.7521" gradientTransform="matrix(1.0238 0 0 -1.0119 -426.0596 -1522.5874)">
				<stop  offset="0" style="stop-color:#000000"/>
				<stop  offset="1" style="stop-color:#000000;stop-opacity:0.5882"/>
			</linearGradient>
			<path id="path3770_1_" opacity="0.2" fill="url(#path3770_2_)" enable-background="new    " d="M22.656,193.456
				c-9.473,0-17.188-7.712-17.188-17.188V23.73c0-9.473,7.715-17.188,17.188-17.188h154.687c9.473,0,17.188,7.715,17.188,17.188
				v152.538c0,9.476-7.715,17.188-17.188,17.188H22.656z"/>
			
				<linearGradient id="rect3723_2_" gradientUnits="userSpaceOnUse" x1="513.8301" y1="-1693.4429" x2="513.8301" y2="-1512.7517" gradientTransform="matrix(1.0238 0 0 -1.0119 -426.0596 -1522.5874)">
				<stop  offset="0" style="stop-color:#000000"/>
				<stop  offset="1" style="stop-color:#000000;stop-opacity:0.5882"/>
			</linearGradient>
			<path id="rect3723_1_" opacity="0.3" fill="url(#rect3723_2_)" enable-background="new    " d="M22.656,191.308h154.687
				c8.307,0,15.039-6.73,15.039-15.039V23.73c0-8.307-6.732-15.039-15.039-15.039H22.656c-8.307,0-15.039,6.732-15.039,15.039
				v152.538C7.617,184.577,14.35,191.308,22.656,191.308z"/>
			
				<linearGradient id="rect3716_2_" gradientUnits="userSpaceOnUse" x1="558.1094" y1="-1713.1533" x2="558.1094" y2="-1532.4584" gradientTransform="matrix(1 0 0 -1 -458.1094 -1524.2812)">
				<stop  offset="0" style="stop-color:#000000"/>
				<stop  offset="1" style="stop-color:#000000;stop-opacity:0.5882"/>
			</linearGradient>
			<path id="rect3716_1_" opacity="0.45" fill="url(#rect3716_2_)" enable-background="new    " d="M22.656,189.159h154.687
				c7.117,0,12.891-5.773,12.891-12.891V21.582c0-7.118-5.773-12.891-12.891-12.891H22.656c-7.116,0-12.891,5.772-12.891,12.891
				v154.687C9.766,183.386,15.54,189.159,22.656,189.159z"/>
		</g>
		<g id="layer1_1_">
			
				<linearGradient id="rect2419_2_" gradientUnits="userSpaceOnUse" x1="558.1094" y1="1916.5137" x2="558.1094" y2="1736.0469" gradientTransform="matrix(1 0 0 1 -458.1094 -1726.2812)">
				<stop  offset="0" style="stop-color:#2A5AA6"/>
				<stop  offset="0.4479" style="stop-color:#2E63B6"/>
				<stop  offset="0.7772" style="stop-color:#3D83F3"/>
				<stop  offset="1" style="stop-color:#8BB5F8"/>
			</linearGradient>
			<path id="rect2419_1_" fill="url(#rect2419_2_)" d="M22.656,9.766h154.687c7.117,0,12.891,5.772,12.891,12.891v154.687
				c0,7.117-5.773,12.891-12.891,12.891H22.656c-7.116,0-12.891-5.773-12.891-12.891V22.656C9.766,15.538,15.54,9.766,22.656,9.766z
				"/>
			
				<linearGradient id="rect3728_2_" gradientUnits="userSpaceOnUse" x1="558.1094" y1="1736.0459" x2="558.1094" y2="1860.4302" gradientTransform="matrix(1 0 0 1 -458.1094 -1726.2812)">
				<stop  offset="0" style="stop-color:#FFFFFF"/>
				<stop  offset="1" style="stop-color:#FFFFFF;stop-opacity:0"/>
			</linearGradient>
			
				<path id="rect3728_1_" inkscape:connector-curvature="0" opacity="0.4" fill="url(#rect3728_2_)" enable-background="new    " d="
				M22.656,9.766c-7.142,0-12.891,5.75-12.891,12.891v4.297v146.093v4.297c0,0.722,0.09,1.397,0.202,2.082
				c0.105,0.633,0.21,1.283,0.404,1.88c0.021,0.066,0.045,0.138,0.063,0.201c0.216,0.616,0.503,1.175,0.806,1.745
				c0.313,0.588,0.675,1.15,1.074,1.679c0.4,0.528,0.806,1.02,1.279,1.478c0.945,0.919,2.023,1.749,3.223,2.35
				c0.597,0.311,1.23,0.532,1.88,0.751c-0.553-0.223-1.047-0.508-1.548-0.806c-0.013-0.021-0.049,0.009-0.063,0
				c-0.069-0.046-0.134-0.093-0.205-0.135c-0.26-0.163-0.494-0.353-0.741-0.537c-0.224-0.176-0.458-0.348-0.671-0.537
				c-0.386-0.348-0.751-0.746-1.074-1.141c-0.229-0.281-0.47-0.575-0.67-0.869c-0.054-0.084-0.083-0.185-0.133-0.269
				c-0.14-0.222-0.283-0.44-0.404-0.671c-0.218-0.42-0.443-0.894-0.604-1.343c-0.017-0.044-0.047-0.088-0.063-0.133
				c-0.069-0.207-0.078-0.404-0.134-0.602c-0.062-0.227-0.15-0.433-0.204-0.672c-0.157-0.755-0.269-1.519-0.269-2.304v-4.297V29.102
				v-4.297c0-5.977,4.765-10.742,10.742-10.742h4.297h146.093h4.297c5.976,0,10.742,4.766,10.742,10.742v4.297v146.093v4.297
				c0,0.785-0.113,1.549-0.269,2.283c-0.094,0.444-0.188,0.85-0.335,1.275c-0.018,0.046-0.051,0.088-0.067,0.135
				c-0.133,0.373-0.298,0.784-0.47,1.137c-0.089,0.176-0.168,0.365-0.269,0.537c-0.118,0.214-0.273,0.403-0.403,0.596
				c-0.201,0.311-0.44,0.588-0.671,0.873c-0.307,0.373-0.65,0.755-1.008,1.074c-0.024,0.021-0.042,0.046-0.066,0.062
				c-0.299,0.269-0.613,0.504-0.94,0.743c-0.223,0.155-0.438,0.327-0.671,0.47c-0.018,0.017-0.051-0.008-0.067,0
				c-0.491,0.307-0.995,0.588-1.544,0.806c0.65-0.205,1.283-0.432,1.88-0.738c1.195-0.596,2.278-1.431,3.223-2.354
				c0.474-0.457,0.879-0.943,1.275-1.477c0.404-0.529,0.764-1.091,1.074-1.677c0.312-0.572,0.594-1.126,0.806-1.743
				c0.031-0.067,0.046-0.135,0.067-0.208c0.192-0.589,0.298-1.246,0.404-1.88c0.111-0.665,0.199-1.341,0.199-2.062v-4.297V26.953
				v-4.297c0-7.141-5.748-12.891-12.891-12.891H22.656z"/>
			
				<radialGradient id="path3615_2_" cx="299.2324" cy="1923.9854" r="90.2374" gradientTransform="matrix(1.1573 0 0 0.9959 -246.3018 -1725.8667)" gradientUnits="userSpaceOnUse">
				<stop  offset="0" style="stop-color:#FFFFFF"/>
				<stop  offset="1" style="stop-color:#FFFFFF;stop-opacity:0"/>
			</radialGradient>
			
				<path id="path3615_1_" inkscape:connector-curvature="0" opacity="0.2" fill="url(#path3615_2_)" enable-background="new    " d="
				M22.656,190.233c-7.142,0-12.891-5.748-12.891-12.891v-4.297V26.953v-4.297c0-0.72,0.09-1.398,0.202-2.082
				c0.105-0.636,0.21-1.282,0.404-1.88c0.021-0.064,0.045-0.133,0.063-0.204c0.213-0.617,0.501-1.175,0.806-1.744
				c0.313-0.585,0.675-1.152,1.074-1.678c0.4-0.526,0.806-1.019,1.279-1.479c0.945-0.921,2.023-1.748,3.223-2.352
				c0.597-0.301,1.23-0.528,1.88-0.739c-0.553,0.219-1.049,0.51-1.546,0.808c-0.012,0.012-0.049-0.009-0.063,0
				c-0.071,0.045-0.134,0.09-0.207,0.133c-0.26,0.166-0.494,0.351-0.741,0.537c-0.224,0.175-0.455,0.347-0.668,0.537
				c-0.387,0.347-0.752,0.742-1.074,1.14c-0.23,0.281-0.469,0.571-0.67,0.872c-0.061,0.083-0.088,0.189-0.141,0.271
				c-0.137,0.223-0.281,0.44-0.401,0.67c-0.214,0.418-0.436,0.894-0.6,1.343c-0.017,0.045-0.051,0.088-0.068,0.134
				c-0.066,0.2-0.075,0.403-0.133,0.604c-0.062,0.228-0.15,0.436-0.202,0.671c-0.157,0.74-0.269,1.511-0.269,2.292v4.297v146.093
				v4.297c0,5.976,4.765,10.742,10.742,10.742h4.297h146.093h4.297c5.976,0,10.742-4.767,10.742-10.742v-4.297V24.805v-4.297
				c0-0.781-0.113-1.552-0.269-2.282c-0.094-0.444-0.188-0.853-0.335-1.277c-0.018-0.046-0.051-0.088-0.067-0.134
				c-0.133-0.374-0.298-0.788-0.47-1.141c-0.089-0.179-0.168-0.365-0.269-0.537c-0.118-0.211-0.273-0.404-0.403-0.604
				c-0.201-0.303-0.44-0.592-0.671-0.873c-0.307-0.373-0.65-0.745-1.008-1.074c-0.024-0.021-0.042-0.045-0.066-0.063
				c-0.299-0.269-0.613-0.504-0.94-0.742c-0.223-0.153-0.438-0.326-0.671-0.47c-0.018-0.009-0.051,0.009-0.067,0
				c-0.491-0.301-0.995-0.592-1.544-0.808c0.65,0.208,1.283,0.438,1.88,0.74c1.195,0.598,2.278,1.432,3.223,2.351
				c0.474,0.46,0.879,0.948,1.275,1.479c0.404,0.528,0.764,1.092,1.074,1.678c0.312,0.571,0.594,1.128,0.806,1.744
				c0.031,0.065,0.046,0.134,0.067,0.202c0.192,0.596,0.298,1.246,0.404,1.88c0.111,0.682,0.199,1.36,0.199,2.08v4.297v146.093
				v4.297c0,7.143-5.748,12.891-12.891,12.891H22.656z"/>
		</g>
		<g id="layer5_1_">
			<g>
				<g>
					<g>
						<g>
							<g>
								<g>
									<defs>
										<path id="SVGID_2_" d="M22.656,9.766h154.687c7.117,0,12.891,5.772,12.891,12.891v154.687
											c0,7.117-5.773,12.891-12.891,12.891H22.656c-7.116,0-12.891-5.773-12.891-12.891V22.656
											C9.766,15.538,15.54,9.766,22.656,9.766z"/>
									</defs>
									<clipPath id="SVGID_3_">
										<use xlink:href="#SVGID_2_"  overflow="visible"/>
									</clipPath>
									<g id="rect3171_1_" opacity="0.1" clip-path="url(#SVGID_3_)" enable-background="new    ">
										
											<linearGradient id="SVGID_4_" gradientUnits="userSpaceOnUse" x1="558.1094" y1="1766.5977" x2="558.1094" y2="2021.0612" gradientTransform="matrix(1 0 0 1 -458.1094 -1726.2812)">
											<stop  offset="0" style="stop-color:#FFFFFF"/>
											<stop  offset="1" style="stop-color:#FFFFFF;stop-opacity:0"/>
										</linearGradient>
										<path fill="url(#SVGID_4_)" d="M54.883,29.102h90.233c14.238,0,25.781,11.543,25.781,25.781v90.233
											c0,14.238-11.543,25.781-25.781,25.781H54.883c-14.238,0-25.781-11.543-25.781-25.781V54.883
											C29.102,40.645,40.645,29.102,54.883,29.102z"/>
										<path fill="none" stroke="#FFFFFF" stroke-width="0.5" stroke-linecap="round" d="M54.883,29.102h90.233
											c14.238,0,25.781,11.543,25.781,25.781v90.233c0,14.238-11.543,25.781-25.781,25.781H54.883
											c-14.238,0-25.781-11.543-25.781-25.781V54.883C29.102,40.645,40.645,29.102,54.883,29.102z"/>
									</g>
								</g>
							</g>
						</g>
					</g>
				</g>
			</g>
		</g>
		<g>
			<g id="layer3_1_">
				<path id="path3964_1_" opacity="0.05" enable-background="new    " d="M12.818,84.922
					c-8.306,46.843,23.119,91.807,69.955,100.112c46.845,8.309,91.8-23.116,100.11-69.958c8.307-46.84-23.118-91.806-69.956-100.111
					C66.086,6.659,21.124,38.082,12.818,84.922z M76.724,96.252c2.091-11.777,13.092-19.471,24.873-17.382
					c11.776,2.086,19.468,13.099,17.385,24.877c-2.092,11.778-13.095,19.47-24.878,17.38
					C82.324,119.042,74.633,108.035,76.724,96.252z"/>
				<path id="path3960_1_" opacity="0.08" enable-background="new    " d="M15.268,85.356
					c-8.069,45.513,22.428,89.158,67.944,97.231c45.513,8.069,89.154-22.433,97.224-67.943
					c8.065-45.522-22.431-89.165-67.944-97.236C66.98,9.341,23.331,39.844,15.268,85.356z M74.276,95.817
					c2.32-13.089,14.669-21.714,27.754-19.395c13.09,2.322,21.709,14.665,19.395,27.756c-2.32,13.09-14.669,21.72-27.754,19.399
					C80.584,121.258,71.956,108.908,74.276,95.817z"/>
				<path id="path3956_1_" opacity="0.15" enable-background="new    " d="M17.64,85.774c-7.844,44.244,21.744,86.597,65.99,94.438
					c44.245,7.848,86.593-21.748,94.435-65.992c7.843-44.241-21.746-86.593-65.992-94.437C67.831,11.94,25.479,41.534,17.64,85.774z
					 M71.906,95.396c2.544-14.347,16.197-23.891,30.544-21.347c14.351,2.544,23.897,16.201,21.353,30.55
					c-2.545,14.351-16.199,23.897-30.55,21.353C78.906,123.406,69.358,109.747,71.906,95.396z"/>
				<path id="path3950_1_" inkscape:connector-curvature="0" opacity="0.3" enable-background="new    " d="M19.54,86.114
					c-7.665,43.212,21.193,84.502,64.408,92.165c43.209,7.659,84.499-21.195,92.159-64.405
					c7.662-43.215-21.188-84.504-64.404-92.165C68.484,14.048,27.2,42.9,19.54,86.114z M69.965,95.051
					c2.73-15.378,17.421-25.647,32.807-22.921c15.383,2.729,25.648,17.425,22.921,32.809c-2.731,15.379-17.418,25.651-32.805,22.92
					C77.503,125.135,67.236,110.439,69.965,95.051z"/>
				<path id="path3307_1_" inkscape:connector-curvature="0" opacity="0.3" fill="#FFFFFF" enable-background="new    " d="
					M59.302,93.163c-3.538,19.958,9.79,39.033,29.742,42.564c19.952,3.54,39.028-9.785,42.567-29.742
					c3.535-19.961-9.796-39.03-29.748-42.569C81.91,59.878,62.834,73.206,59.302,93.163z M84.838,97.692
					c1.035-5.861,6.637-9.773,12.493-8.731c5.862,1.036,9.772,6.639,8.728,12.494c-1.038,5.862-6.635,9.773-12.489,8.732
					C87.712,109.151,83.798,103.554,84.838,97.692z"/>
				
					<radialGradient id="path3328_2_" cx="5269.1328" cy="781.6221" r="72.459" gradientTransform="matrix(0.2947 0.0523 -0.0526 0.2965 -1416.1382 -407.6084)" gradientUnits="userSpaceOnUse">
					<stop  offset="0" style="stop-color:#000000;stop-opacity:0"/>
					<stop  offset="0.85" style="stop-color:#000000;stop-opacity:0"/>
					<stop  offset="1" style="stop-color:#000000"/>
				</radialGradient>
				<path id="path3328_1_" opacity="0.3" fill="url(#path3328_2_)" enable-background="new    " d="M116.146,103.243
					c-2.017,11.431-12.931,19.055-24.354,17.032c-11.431-2.019-19.055-12.933-17.031-24.355c0-0.004,0-0.009,0-0.009
					c2.023-11.426,12.932-19.05,24.358-17.031c11.431,2.026,19.056,12.932,17.039,24.367h-0.013V103.243z"/>
				<linearGradient id="path3352_2_" gradientUnits="userSpaceOnUse" x1="-1369.2798" y1="114.4219" x2="-1299.9326" y2="114.4219">
					<stop  offset="0" style="stop-color:#4D4D4D"/>
					<stop  offset="1" style="stop-color:#FFFFFF"/>
				</linearGradient>
				
					<path id="path3352_1_" opacity="0.6" fill="none" stroke="url(#path3352_2_)" stroke-width="8.2201" stroke-linecap="round" enable-background="new    " d="
					M105.103,101.283c-0.94,5.334-6.031,8.888-11.359,7.943c-5.328-0.943-8.888-6.029-7.938-11.363v-0.004
					c0.943-5.328,6.033-8.883,11.359-7.938c5.33,0.941,8.887,6.03,7.94,11.358C105.103,101.283,105.103,101.283,105.103,101.283z"/>
				
					<linearGradient id="path3170_2_" gradientUnits="userSpaceOnUse" x1="-1525.104" y1="1428.2031" x2="-1771.4601" y2="1604.6884" gradientTransform="matrix(0.1746 -0.9846 0.9846 0.1746 -1097.0088 -1761.2451)">
					<stop  offset="0" style="stop-color:#CCCCCC"/>
					<stop  offset="0.5215" style="stop-color:#E6E6E6"/>
					<stop  offset="1" style="stop-color:#CCCCCC"/>
				</linearGradient>
				<path id="path3170_1_" inkscape:connector-curvature="0" fill="url(#path3170_2_)" d="M17.166,85.69
					c-7.661,43.217,21.195,84.507,64.408,92.169c43.212,7.658,84.5-21.19,92.16-64.407c7.662-43.219-21.188-84.505-64.409-92.165
					C66.119,13.628,24.831,42.479,17.166,85.69z M67.591,94.633c2.727-15.38,17.423-25.65,32.804-22.924
					c15.381,2.729,25.648,17.426,22.923,32.806c-2.728,15.379-17.416,25.651-32.801,22.924
					C75.131,124.713,64.862,110.016,67.591,94.633z"/>
				
					<linearGradient id="SVGID_5_" gradientUnits="userSpaceOnUse" x1="-1536.4409" y1="1438.3379" x2="-1649.0819" y2="1517.2471" gradientTransform="matrix(0.1746 -0.9846 0.9846 0.1746 -1097.0088 -1761.2451)">
					<stop  offset="0" style="stop-color:#FFFFFF"/>
					<stop  offset="1" style="stop-color:#FFFFFF;stop-opacity:0"/>
				</linearGradient>
				<path opacity="0.42" fill="url(#SVGID_5_)" enable-background="new    " d="M27.363,58.532
					C41.219,69.258,54.769,80.424,68.268,91.72c3.952-13.741,17.736-22.562,32.123-20.011c0.893,0.156,1.758,0.365,2.618,0.602
					c1.955-17.028,3.99-34.046,6.115-51.051C75.883,15.459,43.829,31.248,27.363,58.532z"/>
				
					<linearGradient id="SVGID_6_" gradientUnits="userSpaceOnUse" x1="-1713.0659" y1="1553.8096" x2="-1638.3734" y2="1501.4043" gradientTransform="matrix(0.1746 -0.9846 0.9846 0.1746 -1097.0088 -1761.2451)">
					<stop  offset="0" style="stop-color:#FFFFFF"/>
					<stop  offset="1" style="stop-color:#FFFFFF;stop-opacity:0"/>
				</linearGradient>
				<path opacity="0.42" fill="url(#SVGID_6_)" enable-background="new    " d="M149.632,157.743c-0.477-0.361-0.94-0.73-1.414-1.1
					c-13.757-10.226-27.088-20.896-40.237-31.731c-3.417,1.687-7.19,2.707-11.115,2.908c-1.835,17.058-3.642,34.114-5.416,51.155
					C113.426,180.108,134.262,172.031,149.632,157.743z"/>
				
					<path id="path3304_1_" opacity="0.15" fill="none" stroke="#000000" stroke-width="6.8066" stroke-linecap="round" enable-background="new    " d="
					M101.886,64.651c19.317,3.421,32.199,21.845,28.779,41.16c-3.42,19.319-21.85,32.197-41.151,28.781
					c-0.012-0.004-0.021-0.004-0.024-0.004c-19.312-3.425-32.194-21.85-28.776-41.168c3.428-19.314,21.85-32.193,41.16-28.776
					C101.878,64.649,101.882,64.649,101.886,64.651z"/>
				<path id="path3933_1_" inkscape:connector-curvature="0" opacity="0.8" fill="#CCCCCC" enable-background="new    " d="
					M17.192,85.694c-7.661,43.217,21.194,84.511,64.408,92.173c0.797,0.139,1.585,0.231,2.387,0.349
					c-41.911-8.715-69.572-49.25-62.053-91.679C29.46,44.11,69.37,15.56,111.718,21.782c-0.791-0.164-1.563-0.353-2.36-0.493
					C66.149,13.628,24.85,42.484,17.192,85.694z"/>
				
					<linearGradient id="path3942_2_" gradientUnits="userSpaceOnUse" x1="5362.2178" y1="956.2021" x2="5524.6792" y2="956.2021" gradientTransform="matrix(0.278 0.0493 -0.0592 0.334 -1361.2438 -488.1641)">
					<stop  offset="0" style="stop-color:#FFFFFF;stop-opacity:0.2031"/>
					<stop  offset="1" style="stop-color:#FFFFFF;stop-opacity:0.6797"/>
				</linearGradient>
				
					<path id="path3942_1_" inkscape:connector-curvature="0" opacity="0.5" fill="url(#path3942_2_)" enable-background="new    " d="
					M99.577,76.379c-12.58-2.229-24.805,6.199-27.1,19.135c-2.29,12.938,6.298,25.03,18.875,27.259
					c12.577,2.232,24.773-6.173,27.072-19.109C120.716,90.723,112.151,78.609,99.577,76.379z M99.11,78.994
					c11.603,2.059,19.146,13.032,17.153,24.287c-1.993,11.239-12.846,18.931-24.452,16.873
					c-11.605-2.059-19.176-13.013-17.179-24.263C76.627,84.648,87.509,76.938,99.11,78.994z"/>
			</g>
			<g>
				<g>
					<path fill="#F90018" d="M162.086,167.28c4.721-4.548,14.71-16.377,14.796-18.903c0.084-2.528-0.844-12.217,1.349-15.083
						c2.192-2.861,6.233-3.707,6.065-6.825c-0.168-3.115-3.117-3.115-3.033-7.832v-5.476c0,0,0.432-3.034,3.038-3.957
						c2.607-0.926,3.784-2.192,3.784-3.875v-7.525c0-1.683-1.177-2.95-3.784-3.876c-2.606-0.926-3.038-3.959-3.038-3.959v-5.478
						c-0.084-4.715,2.865-4.715,3.033-7.832s-3.877-3.962-6.065-6.823c-2.192-2.866-1.265-12.554-1.349-15.082
						c-0.086-2.526-12.472-15.923-17.188-20.471c-4.717-4.548-8.426-2.863-8.426-2.863s-1.348-1.936-2.866-0.589
						c-1.513,1.347-1.849,4.55,0,9.773c1.854,5.223,0.676,26.03,0.676,31.087s1.854,5.307,2.865,6.231
						c1.008,0.927,0.672,2.53-0.675,1.519c-1.343-1.013-1.18,0.587-1.18,0.587v5.392c0.084,1.097-0.419,2.021,2.95,3.452
						c3.367,1.434,2.777,2.275,3.201,4.381c0.42,2.105-0.335,2.866-2.106,3.625c-1.769,0.758-1.601,2.191-1.601,2.191v4.996
						c0,0-0.208,2.276,1.563,3.034c1.771,0.762,2.565,0.671,2.144,2.777c-0.419,2.109,0.168,2.95-3.201,4.381
						c-3.367,1.432-2.861,2.358-2.945,3.454v5.392c0,0-0.294,1.419,1.387,1.511c1.074,0.059,0.656,2.052-0.357,2.979
						c-1.011,0.927-1.729,0.369-1.729,5.421c0,5.057,0,37.006,0,37.006S157.369,171.829,162.086,167.28z"/>
					<g opacity="0.48">
						
							<linearGradient id="SVGID_7_" gradientUnits="userSpaceOnUse" x1="-1.5854" y1="816.7568" x2="-2.3943" y2="793.8458" gradientTransform="matrix(-4.371139e-08 1 1 4.371139e-08 -629.0962 82.3184)">
							<stop  offset="0" style="stop-color:#FFFFFF;stop-opacity:0"/>
							<stop  offset="0.9877" style="stop-color:#FFFFFF"/>
						</linearGradient>
						<path fill="url(#SVGID_7_)" d="M151.428,79.529c-0.055-0.034-0.101-0.045-0.155-0.088c-0.688-0.516-0.978-0.353-1.1-0.067
							c0.038,0.026,0.065,0.035,0.109,0.067C150.869,79.882,151.247,79.811,151.428,79.529z"/>
						<path fill="#FFFFFF" d="M159.43,34.268c4.717,4.549,17.167,18.018,17.255,20.544c0.084,2.526-1.087,12.142,1.104,15.005
							c2.19,2.864,6.517,3.769,6.349,6.885c-0.168,3.118-3.273,2.966-3.189,7.684l-0.101,5.472c0,0-0.143,3.146,2.463,4.071
							c2.606,0.926,4.486,2.168,4.486,3.852l0.033,7.437c0,1.685-1.221,2.799-3.827,3.724c-2.605,0.93-3.155,4.178-3.155,4.178
							l0.135,5.472c-0.084,4.721,3.009,4.861,3.122,7.983c0.101,2.794-4.201,4.028-6.392,6.89
							c-2.189,2.866-1.146,12.445-1.229,14.972c-0.083,2.532-10.224,14.354-14.938,18.899c-2.48,2.392-6.303,2.969-8.951,3.03
							c2.747,0.071,6.689-0.385,9.492-3.087c4.721-4.549,14.71-16.377,14.796-18.903c0.084-2.526-0.844-12.215,1.349-15.081
							c2.192-2.862,6.233-3.705,6.065-6.823c-0.168-3.117-3.117-3.117-3.033-7.834v-5.476c0,0,0.432-3.034,3.038-3.957
							c2.607-0.924,3.784-2.19,3.784-3.873v-7.525c0-1.683-1.177-2.95-3.784-3.876c-2.606-0.926-3.038-3.959-3.038-3.959v-5.478
							c-0.084-4.715,2.865-4.715,3.033-7.832s-3.877-3.962-6.065-6.823c-2.192-2.866-1.265-12.554-1.349-15.082
							c-0.086-2.526-12.472-15.923-17.188-20.471c-3.03-2.919-5.636-3.27-7.117-3.146C154.104,31.252,156.992,31.918,159.43,34.268z
							"/>
						
							<linearGradient id="SVGID_8_" gradientUnits="userSpaceOnUse" x1="-50.0342" y1="818.4062" x2="-50.8416" y2="795.5341" gradientTransform="matrix(-4.371139e-08 1 1 4.371139e-08 -629.0962 82.3184)">
							<stop  offset="0" style="stop-color:#FFFFFF;stop-opacity:0"/>
							<stop  offset="0.9877" style="stop-color:#FFFFFF"/>
						</linearGradient>
						<path fill="url(#SVGID_8_)" d="M150.278,31.42c0,0,0.296-0.129,0.81-0.22c-0.329-0.375-1.112-1.076-2.041-0.75
							C149.776,30.711,150.278,31.42,150.278,31.42z"/>
					</g>
					<g opacity="0.49">
						
							<linearGradient id="SVGID_9_" gradientUnits="userSpaceOnUse" x1="-27.5586" y1="776.2354" x2="-27.5586" y2="790.2158" gradientTransform="matrix(-4.371139e-08 1 1 4.371139e-08 -629.0962 82.3184)">
							<stop  offset="0.0123" style="stop-color:#770000"/>
							<stop  offset="0.0798" style="stop-color:#6B0000;stop-opacity:0.9317"/>
							<stop  offset="0.3753" style="stop-color:#3D0000;stop-opacity:0.6325"/>
							<stop  offset="0.6377" style="stop-color:#1C0000;stop-opacity:0.3668"/>
							<stop  offset="0.855" style="stop-color:#070000;stop-opacity:0.1468"/>
							<stop  offset="1" style="stop-color:#000000;stop-opacity:0"/>
						</linearGradient>
						<path fill="url(#SVGID_9_)" d="M151.264,72.701c-0.373-2.161,0.869-3.828,0.869-3.828s-0.785-17.763-0.864-19.529
							c-0.076-1.766,0.864-1.474,0.864-1.474c4.221-1.081,8.927,0.981,8.927,0.981c0.59-6.673-3.336-11.775-4.902-13.15
							c-1.57-1.375-4.889-4.281-4.889-4.281s-1.348-1.936-2.866-0.589c-1.513,1.347-1.849,4.55,0,9.773
							c1.854,5.223,0.676,26.03,0.676,31.087s1.854,5.307,2.865,6.231c0.399,0.369,0.582,0.835,0.582,1.209l0.044,0.033
							C153.505,77.365,151.631,74.796,151.264,72.701z"/>
					</g>
					<g>
						
							<linearGradient id="SVGID_10_" gradientUnits="userSpaceOnUse" x1="40.5776" y1="779.168" x2="40.5776" y2="781.2266" gradientTransform="matrix(-4.371139e-08 1 1 4.371139e-08 -629.0962 82.3184)">
							<stop  offset="0.0123" style="stop-color:#770000"/>
							<stop  offset="0.0798" style="stop-color:#6B0000;stop-opacity:0.9317"/>
							<stop  offset="0.3753" style="stop-color:#3D0000;stop-opacity:0.6325"/>
							<stop  offset="0.6377" style="stop-color:#1C0000;stop-opacity:0.3668"/>
							<stop  offset="0.855" style="stop-color:#070000;stop-opacity:0.1468"/>
							<stop  offset="1" style="stop-color:#000000;stop-opacity:0"/>
						</linearGradient>
						<path fill="url(#SVGID_10_)" d="M150.089,123.104c0,0-0.294,1.419,1.39,1.511c0.096,0.004,0.167,0.042,0.241,0.075
							c0.209-0.516,0.409-1.057,0.409-1.246c0-0.234-1.134-1.427-2.04-2.341V123.104L150.089,123.104z"/>
						
							<linearGradient id="SVGID_11_" gradientUnits="userSpaceOnUse" x1="66.7915" y1="778.4902" x2="66.7915" y2="797.6191" gradientTransform="matrix(-4.371139e-08 1 1 4.371139e-08 -629.0962 82.3184)">
							<stop  offset="0.0123" style="stop-color:#770000"/>
							<stop  offset="0.0798" style="stop-color:#6B0000;stop-opacity:0.9317"/>
							<stop  offset="0.3753" style="stop-color:#3D0000;stop-opacity:0.6325"/>
							<stop  offset="0.6377" style="stop-color:#1C0000;stop-opacity:0.3668"/>
							<stop  offset="0.855" style="stop-color:#070000;stop-opacity:0.1468"/>
							<stop  offset="1" style="stop-color:#000000;stop-opacity:0"/>
						</linearGradient>
						<path opacity="0.49" fill="url(#SVGID_11_)" enable-background="new    " d="M155.993,170.146
							c4.582-3.755,12.529-15.786,12.529-15.786s-6.577,0.391-12.27,0.976c-5.691,0.59-4.124-1.471-4.124-1.471
							c-0.294-6.281-0.586-17.957-1.567-19.629c-0.632-1.074-0.166-4.253,0.245-6.391c-0.841,0.612-1.412,0.658-1.412,5.165
							c0,5.057,0,37.006,0,37.006S152.506,170.726,155.993,170.146z"/>
					</g>
					<g>
						
							<linearGradient id="SVGID_12_" gradientUnits="userSpaceOnUse" x1="0.1865" y1="783.333" x2="4.6465" y2="783.333" gradientTransform="matrix(-4.371139e-08 1 1 4.371139e-08 -629.0962 82.3184)">
							<stop  offset="0.0123" style="stop-color:#770000"/>
							<stop  offset="0.0798" style="stop-color:#6B0000;stop-opacity:0.9317"/>
							<stop  offset="0.3753" style="stop-color:#3D0000;stop-opacity:0.6325"/>
							<stop  offset="0.6377" style="stop-color:#1C0000;stop-opacity:0.3668"/>
							<stop  offset="0.855" style="stop-color:#070000;stop-opacity:0.1468"/>
							<stop  offset="1" style="stop-color:#000000;stop-opacity:0"/>
						</linearGradient>
						<path fill="url(#SVGID_12_)" d="M156.933,84.161c0-0.634-0.247-1.19-0.6-1.656c0.132,0.322,0.21,0.672,0.21,1.045
							c0,1.548-1.255,2.803-2.803,2.803c-0.915,0-1.688-0.468-2.199-1.146c0.415,1.03,1.414,1.758,2.589,1.758
							C155.679,86.965,156.933,85.711,156.933,84.161z"/>
						<path opacity="0.54" fill="#FFFFFF" enable-background="new    " d="M151.247,83.998c0,0.634,0.252,1.188,0.603,1.656
							c-0.133-0.324-0.21-0.675-0.21-1.044c0-1.55,1.255-2.805,2.801-2.805c0.915,0,1.691,0.467,2.203,1.144
							c-0.415-1.029-1.414-1.755-2.593-1.755C152.502,81.196,151.247,82.451,151.247,83.998z"/>
					</g>
					<g>
						<g>
							
								<linearGradient id="SVGID_13_" gradientUnits="userSpaceOnUse" x1="-804.4819" y1="-27.1162" x2="-799.1606" y2="-27.1162" gradientTransform="matrix(-0.0313 -0.9995 -0.9995 0.0313 130.9814 -699.5786)">
								<stop  offset="0.0123" style="stop-color:#770000"/>
								<stop  offset="0.0798" style="stop-color:#6B0000;stop-opacity:0.9317"/>
								<stop  offset="0.3753" style="stop-color:#3D0000;stop-opacity:0.6325"/>
								<stop  offset="0.6377" style="stop-color:#1C0000;stop-opacity:0.3668"/>
								<stop  offset="0.855" style="stop-color:#070000;stop-opacity:0.1468"/>
								<stop  offset="1" style="stop-color:#000000;stop-opacity:0"/>
							</linearGradient>
							<path fill="url(#SVGID_13_)" d="M179.986,101.783c0.025,0.755,0.34,1.41,0.781,1.955c-0.168-0.382-0.277-0.797-0.292-1.237
								c-0.057-1.848,1.391-3.394,3.239-3.449c1.093-0.036,2.031,0.492,2.667,1.282c-0.533-1.208-1.75-2.042-3.16-1.997
								C181.38,98.393,179.93,99.936,179.986,101.783z"/>
							<path opacity="0.54" fill="#FFFFFF" enable-background="new    " d="M186.776,101.767c-0.023-0.757-0.34-1.41-0.781-1.956
								c0.173,0.382,0.548,1.119,0.561,1.562c0.057,1.849-1.307,3.535-3.157,3.592c-1.091,0.038-2.38-0.961-3.016-1.75
								c0.533,1.213,1.752,2.044,3.158,2.002C185.385,105.157,186.835,103.612,186.776,101.767z"/>
						</g>
						<g>
							
								<linearGradient id="SVGID_14_" gradientUnits="userSpaceOnUse" x1="-803.5083" y1="-27.209" x2="-800.9357" y2="-27.209" gradientTransform="matrix(-0.0313 -0.9995 -0.9995 0.0313 130.9814 -699.5786)">
								<stop  offset="0.0123" style="stop-color:#770000"/>
								<stop  offset="0.0798" style="stop-color:#6B0000;stop-opacity:0.9317"/>
								<stop  offset="0.3753" style="stop-color:#3D0000;stop-opacity:0.6325"/>
								<stop  offset="0.6377" style="stop-color:#1C0000;stop-opacity:0.3668"/>
								<stop  offset="0.855" style="stop-color:#070000;stop-opacity:0.1468"/>
								<stop  offset="1" style="stop-color:#000000;stop-opacity:0"/>
							</linearGradient>
							<path fill="url(#SVGID_14_)" d="M181.743,101.779c0.015,0.364,0.165,0.68,0.379,0.943c-0.083-0.185-0.134-0.388-0.14-0.596
								c-0.027-0.894,0.669-1.64,1.562-1.668c0.526-0.017,0.982,0.239,1.288,0.619c-0.256-0.585-0.846-0.986-1.523-0.964
								C182.416,100.141,181.716,100.887,181.743,101.779z"/>
							<path opacity="0.54" fill="#FFFFFF" enable-background="new    " d="M185.022,101.771c-0.013-0.365-0.166-0.68-0.378-0.943
								c0.08,0.183,0.26,0.54,0.269,0.755c0.029,0.89-0.634,1.707-1.523,1.732c-0.528,0.017-1.149-0.461-1.456-0.843
								c0.254,0.581,0.844,0.985,1.523,0.965C184.351,103.407,185.05,102.664,185.022,101.771z"/>
						</g>
					</g>
					<g>
						
							<linearGradient id="SVGID_15_" gradientUnits="userSpaceOnUse" x1="35.188" y1="783.4795" x2="39.6489" y2="783.4795" gradientTransform="matrix(-4.371139e-08 1 1 4.371139e-08 -629.0962 82.3184)">
							<stop  offset="0.0123" style="stop-color:#770000"/>
							<stop  offset="0.0798" style="stop-color:#6B0000;stop-opacity:0.9317"/>
							<stop  offset="0.3753" style="stop-color:#3D0000;stop-opacity:0.6325"/>
							<stop  offset="0.6377" style="stop-color:#1C0000;stop-opacity:0.3668"/>
							<stop  offset="0.855" style="stop-color:#070000;stop-opacity:0.1468"/>
							<stop  offset="1" style="stop-color:#000000;stop-opacity:0"/>
						</linearGradient>
						<path fill="url(#SVGID_15_)" d="M157.08,119.163c0-0.633-0.248-1.188-0.603-1.657c0.133,0.323,0.212,0.676,0.212,1.045
							c0,1.549-1.255,2.803-2.805,2.803c-0.917,0-1.688-0.466-2.197-1.146c0.414,1.032,1.412,1.759,2.59,1.759
							C155.825,121.967,157.08,120.712,157.08,119.163z"/>
						<path opacity="0.54" fill="#FFFFFF" enable-background="new    " d="M151.392,119c0,0.634,0.25,1.188,0.604,1.657
							c-0.132-0.323-0.212-0.676-0.212-1.045c0-1.548,1.255-2.803,2.803-2.803c0.915,0,1.688,0.466,2.199,1.146
							c-0.415-1.03-1.414-1.758-2.589-1.758C152.646,116.197,151.392,117.451,151.392,119z"/>
					</g>
					<g>
						
							<linearGradient id="SVGID_16_" gradientUnits="userSpaceOnUse" x1="-7.4971" y1="808.6924" x2="-3.7314" y2="808.6924" gradientTransform="matrix(-4.371139e-08 1 1 4.371139e-08 -629.0962 82.3184)">
							<stop  offset="0.0123" style="stop-color:#770000"/>
							<stop  offset="0.0798" style="stop-color:#6B0000;stop-opacity:0.9317"/>
							<stop  offset="0.3753" style="stop-color:#3D0000;stop-opacity:0.6325"/>
							<stop  offset="0.6377" style="stop-color:#1C0000;stop-opacity:0.3668"/>
							<stop  offset="0.855" style="stop-color:#070000;stop-opacity:0.1468"/>
							<stop  offset="1" style="stop-color:#000000;stop-opacity:0"/>
						</linearGradient>
						<circle fill="url(#SVGID_16_)" cx="179.597" cy="76.704" r="1.883"/>
						<circle fill="#4D4D4D" cx="179.597" cy="76.704" r="1.541"/>
						<path fill="#FFFFFF" d="M181.137,76.703c0-0.484-0.239-0.899-0.59-1.183c0.212,0.262,0.356,0.584,0.356,0.947
							c0,0.851-0.69,1.543-1.542,1.543c-0.365,0-0.684-0.147-0.946-0.356c0.281,0.353,0.694,0.59,1.184,0.59
							C180.444,78.247,181.137,77.556,181.137,76.703z"/>
						<circle fill="#FFFFFF" cx="179.774" cy="76.882" r="0.655"/>
					</g>
					<g>
						
							<linearGradient id="SVGID_17_" gradientUnits="userSpaceOnUse" x1="42.3716" y1="808.8711" x2="46.1362" y2="808.8711" gradientTransform="matrix(-4.371139e-08 1 1 4.371139e-08 -629.0962 82.3184)">
							<stop  offset="0.0123" style="stop-color:#770000"/>
							<stop  offset="0.0798" style="stop-color:#6B0000;stop-opacity:0.9317"/>
							<stop  offset="0.3753" style="stop-color:#3D0000;stop-opacity:0.6325"/>
							<stop  offset="0.6377" style="stop-color:#1C0000;stop-opacity:0.3668"/>
							<stop  offset="0.855" style="stop-color:#070000;stop-opacity:0.1468"/>
							<stop  offset="1" style="stop-color:#000000;stop-opacity:0"/>
						</linearGradient>
						<circle fill="url(#SVGID_17_)" cx="179.774" cy="126.572" r="1.882"/>
						<circle fill="#4D4D4D" cx="179.774" cy="126.574" r="1.54"/>
						<path fill="#FFFFFF" d="M181.316,126.574c0-0.487-0.238-0.902-0.591-1.184c0.212,0.265,0.356,0.581,0.356,0.948
							c0,0.848-0.69,1.54-1.54,1.54c-0.365,0-0.687-0.143-0.948-0.356c0.281,0.353,0.696,0.589,1.184,0.589
							C180.624,128.114,181.316,127.426,181.316,126.574z"/>
						<circle fill="#FFFFFF" cx="179.953" cy="126.75" r="0.654"/>
					</g>
					<g opacity="0.48">
						
							<linearGradient id="SVGID_18_" gradientUnits="userSpaceOnUse" x1="21.5137" y1="815.8789" x2="20.7058" y2="793.0027" gradientTransform="matrix(-4.371139e-08 1 1 4.371139e-08 -629.0962 82.3184)">
							<stop  offset="0" style="stop-color:#FFFFFF;stop-opacity:0"/>
							<stop  offset="0.9877" style="stop-color:#FFFFFF"/>
						</linearGradient>
						<path fill="url(#SVGID_18_)" d="M161.88,51.69c1.36,1.866,2.707,3.737,4.012,5.644c0.588,0.941,1.498,1.898,1.41,3.153
							c0.038,1.16,0.021,2.311,0.292,3.412c0.229,1.1,0.879,2.069,1.343,3.142c0.476,1.057,0.938,2.135,1.149,3.311
							c0.199,1.205-0.101,2.365-0.088,3.491c-0.023,1.136,0.101,2.271,0.413,3.355c1.452,4.281,4.702,7.885,6.005,12.45
							c0.314,1.134,0.388,2.424,0.022,3.577c-0.333,1.153-0.841,2.191-1.206,3.266c-0.776,2.133-1.012,4.415-0.877,6.681
							c0.151,2.272,0.353,4.597,1.188,6.676c0.482,1.008,0.868,2.292,0.729,3.487c-0.186,1.297-0.867,2.283-1.492,3.265
							c-1.288,1.924-2.726,3.747-3.466,5.883c-0.396,1.07-0.475,2.165-0.485,3.332c-0.026,1.146-0.012,2.295,0.02,3.447
							c0.025,1.151,0.084,2.314-0.042,3.491c-0.107,1.188-0.531,2.302-0.906,3.38c-0.778,2.184-1.633,4.332-2.572,6.441
							c-0.953,2.106-1.985,4.184-3.166,6.172c-1.194,1.964-2.49,3.937-4.295,5.398c1.763-1.502,3.004-3.495,4.144-5.486
							c1.127-2.01,2.101-4.098,2.998-6.221c0.906-2.113,1.748-4.262,2.501-6.437c0.369-1.1,0.764-2.17,0.852-3.292
							c0.109-1.125,0.047-2.276,0.011-3.431c-0.04-1.154-0.064-2.31-0.048-3.473c0-1.137,0.075-2.375,0.484-3.491
							c0.762-2.259,2.229-4.135,3.477-6.04c0.604-0.948,1.233-1.964,1.366-2.981c0.103-1.127-0.204-2.127-0.712-3.195
							c-0.906-2.216-1.12-4.576-1.296-6.886c-0.133-2.331,0.143-4.735,0.969-6.941c0.389-1.107,0.906-2.153,1.219-3.217
							c0.343-1.063,0.288-2.163,0.005-3.253c-0.581-2.177-1.728-4.204-2.826-6.218c-1.062-2.034-2.434-3.953-3.06-6.257
							c-0.314-1.136-0.437-2.321-0.4-3.493c0.004-1.177,0.3-2.319,0.124-3.411c-0.189-1.104-0.63-2.176-1.091-3.221
							c-0.433-1.046-1.1-2.038-1.335-3.223c-0.252-1.158-0.201-2.337-0.212-3.48c0.124-1.171-0.711-2.079-1.29-3.065
							C164.49,55.497,163.189,53.591,161.88,51.69z"/>
					</g>
					
						<linearGradient id="SVGID_19_" gradientUnits="userSpaceOnUse" x1="-5.5576" y1="816.8389" x2="-6.3654" y2="793.9655" gradientTransform="matrix(-4.371139e-08 1 1 4.371139e-08 -629.0962 82.3184)">
						<stop  offset="0" style="stop-color:#FFFFFF;stop-opacity:0"/>
						<stop  offset="0.9877" style="stop-color:#FFFFFF"/>
					</linearGradient>
					<path opacity="0.48" fill="url(#SVGID_19_)" enable-background="new    " d="M173.044,69.408
						c1.929,0.711,3.816,1.536,5.625,2.537c0.908,0.492,1.79,1.04,2.618,1.676c0.812,0.643,1.653,1.325,2.115,2.374
						c0.23,0.542,0.172,1.192-0.093,1.7c-0.251,0.504-0.616,0.91-1.002,1.275c-0.781,0.718-1.658,1.289-2.566,1.787
						c-1.823,0.99-3.745,1.747-5.709,2.354c1.889-0.804,3.747-1.685,5.497-2.727c0.862-0.529,1.725-1.083,2.438-1.773
						c0.714-0.668,1.299-1.578,0.944-2.425c-0.835-1.724-2.775-2.814-4.439-3.897C176.718,71.242,174.896,70.289,173.044,69.408z"/>
					
						<linearGradient id="SVGID_20_" gradientUnits="userSpaceOnUse" x1="44.8687" y1="815.0586" x2="44.0611" y2="792.1862" gradientTransform="matrix(-4.371139e-08 1 1 4.371139e-08 -629.0962 82.3184)">
						<stop  offset="0" style="stop-color:#FFFFFF;stop-opacity:0"/>
						<stop  offset="0.9877" style="stop-color:#FFFFFF"/>
					</linearGradient>
					<path opacity="0.48" fill="url(#SVGID_20_)" enable-background="new    " d="M173.164,133.603
						c1.926-0.709,3.816-1.536,5.622-2.534c0.911-0.495,1.79-1.041,2.619-1.675c0.813-0.642,1.653-1.33,2.114-2.377
						c0.231-0.543,0.172-1.193-0.09-1.699c-0.254-0.504-0.619-0.913-1.003-1.278c-0.782-0.717-1.659-1.283-2.568-1.783
						c-1.823-0.99-3.745-1.747-5.709-2.354c1.889,0.801,3.748,1.683,5.497,2.723c0.864,0.533,1.725,1.085,2.44,1.775
						c0.711,0.669,1.299,1.582,0.942,2.426c-0.835,1.722-2.774,2.817-4.439,3.897C176.835,131.769,175.017,132.726,173.164,133.603z
						"/>
					
						<linearGradient id="SVGID_21_" gradientUnits="userSpaceOnUse" x1="19.1196" y1="815.9639" x2="18.3123" y2="793.098" gradientTransform="matrix(-4.371139e-08 1 1 4.371139e-08 -629.0962 82.3184)">
						<stop  offset="0" style="stop-color:#FFFFFF;stop-opacity:0"/>
						<stop  offset="0.9877" style="stop-color:#FFFFFF"/>
					</linearGradient>
					<path opacity="0.48" fill="url(#SVGID_21_)" enable-background="new    " d="M182.995,95.465
						c0.968,0.031,2.203-0.218,0.672-1.06c-1.532-0.843-2.959-1.348-3.681-1.602c-0.722-0.252-1.984-1.093-2.562-1.703
						c0,0,0.137,2.557-1.074,5.002c-1.206,2.444-1.527,4.241-1.443,6.411c0.082,2.169,1.617,9,2.81,8.581
						c0.479-0.173,6.529-1.947,6.524-3.043c-0.002-1.095-6.747,1.134-6.524-6.634C177.893,95.163,181.934,95.432,182.995,95.465z"/>
					
						<linearGradient id="SVGID_22_" gradientUnits="userSpaceOnUse" x1="19.3975" y1="815.96" x2="18.5896" y2="793.0803" gradientTransform="matrix(-4.371139e-08 1 1 4.371139e-08 -629.0962 82.3184)">
						<stop  offset="0" style="stop-color:#FFFFFF;stop-opacity:0"/>
						<stop  offset="0.9877" style="stop-color:#FFFFFF"/>
					</linearGradient>
					<path opacity="0.48" fill="url(#SVGID_22_)" enable-background="new    " d="M178.314,101.577c0-3.074,2.113-5.561,4.742-5.645
						c-0.045,0-0.087-0.013-0.133-0.013c-2.689,0-4.869,2.53-4.869,5.657c0,3.122,2.18,5.656,4.869,5.656
						c0.046,0,0.088-0.017,0.133-0.017C180.428,107.138,178.314,104.649,178.314,101.577z"/>
					
						<linearGradient id="SVGID_23_" gradientUnits="userSpaceOnUse" x1="-20.4082" y1="808.3174" x2="-21.2163" y2="785.4345" gradientTransform="matrix(-4.371139e-08 1 1 4.371139e-08 -629.0962 82.3184)">
						<stop  offset="0" style="stop-color:#FFFFFF;stop-opacity:0"/>
						<stop  offset="0.9877" style="stop-color:#FFFFFF"/>
					</linearGradient>
					<path opacity="0.48" fill="url(#SVGID_23_)" enable-background="new    " d="M168.275,55.329c0,0,1.783,0.992,1.555,3.36
						c-0.229,2.37-0.078,7.865,2.368,9.168c0,0-3.055-0.766-3.283-3.743C168.683,61.135,169.396,56.933,168.275,55.329z"/>
					
						<linearGradient id="SVGID_24_" gradientUnits="userSpaceOnUse" x1="-19.9775" y1="817.3516" x2="-20.7857" y2="794.4655" gradientTransform="matrix(-4.371139e-08 1 1 4.371139e-08 -629.0962 82.3184)">
						<stop  offset="0" style="stop-color:#FFFFFF;stop-opacity:0"/>
						<stop  offset="0.9877" style="stop-color:#FFFFFF"/>
					</linearGradient>
					<path opacity="0.48" fill="url(#SVGID_24_)" enable-background="new    " d="M174.408,56.556
						c0.85,0.51,1.475,1.479,1.454,2.525l-0.186,2.749c-0.048,0.914-0.079,1.824-0.046,2.733c0.055,0.902,0.076,1.836,0.462,2.677
						c-0.46-0.804-0.604-1.749-0.707-2.659c-0.095-0.918-0.124-1.839-0.137-2.762l0.005-2.745c0.041-0.821-0.508-1.543-1.142-2.073
						L174.1,56.99c-0.113-0.095-0.13-0.265-0.033-0.378C174.149,56.511,174.297,56.489,174.408,56.556z"/>
					
						<linearGradient id="SVGID_25_" gradientUnits="userSpaceOnUse" x1="4.3047" y1="816.4873" x2="3.4968" y2="793.611" gradientTransform="matrix(-4.371139e-08 1 1 4.371139e-08 -629.0962 82.3184)">
						<stop  offset="0" style="stop-color:#FFFFFF;stop-opacity:0"/>
						<stop  offset="0.9877" style="stop-color:#FFFFFF"/>
					</linearGradient>
					<path opacity="0.48" fill="url(#SVGID_25_)" enable-background="new    " d="M180.556,91.101v-9.702
						c-1.399-0.167-5.382,2.183-5.508,3.188c-0.128,1.005,0.193,1.175,1.268,2.954c1.074,1.778,0.369,1.812,1.153,3.035
						C178.283,91.847,180.556,91.101,180.556,91.101z M177.788,89.825c-0.185-1.242,0.272-2.52-1.104-3.659
						c-1.377-1.142-1.049-2.093-0.202-2.721c1.729-1.275,3.896-1.778,3.896-1.778l-0.137,9.13
						C180.242,90.797,177.971,91.065,177.788,89.825z"/>
					
						<linearGradient id="SVGID_26_" gradientUnits="userSpaceOnUse" x1="34.3809" y1="815.4268" x2="33.5731" y2="792.5566" gradientTransform="matrix(-4.371139e-08 1 1 4.371139e-08 -629.0962 82.3184)">
						<stop  offset="0" style="stop-color:#FFFFFF;stop-opacity:0"/>
						<stop  offset="0.9877" style="stop-color:#FFFFFF"/>
					</linearGradient>
					<path opacity="0.48" fill="url(#SVGID_26_)" enable-background="new    " d="M177.394,112.244
						c-0.782,1.221-0.08,1.255-1.154,3.034c-1.074,1.778-1.395,1.946-1.267,2.954c0.126,1.007,4.107,3.354,5.507,3.188v-9.703
						C180.481,111.72,178.207,110.977,177.394,112.244z M180.167,112.021l0.139,9.131c0,0-2.17-0.503-3.898-1.779
						c-0.848-0.625-1.175-1.575,0.204-2.719c1.376-1.142,0.919-2.417,1.104-3.659C177.897,111.753,180.167,112.021,180.167,112.021z
						"/>
					
						<linearGradient id="SVGID_27_" gradientUnits="userSpaceOnUse" x1="58.8867" y1="814.5586" x2="58.0793" y2="791.6907" gradientTransform="matrix(-4.371139e-08 1 1 4.371139e-08 -629.0962 82.3184)">
						<stop  offset="0" style="stop-color:#FFFFFF;stop-opacity:0"/>
						<stop  offset="0.9877" style="stop-color:#FFFFFF"/>
					</linearGradient>
					<path opacity="0.48" fill="url(#SVGID_27_)" enable-background="new    " d="M174.604,146.74c0,0,1.842-1.393,1.475-3.356
						c-0.371-1.968-0.164-8.562,1.188-10.159c0,0-1.194,0.327-2.314,0.613c-1.124,0.285-4.523,1.968-5.141,3.768
						c-0.614,1.805-0.318,9.299-1.288,10.692c0,0,2.053-1.507,1.819-6.71c-0.199-4.441,3.237-6.767,6.062-7.664
						c0,0-1.553,4.317-0.524,9.311C175.879,143.232,176.113,144.944,174.604,146.74z"/>
					
						<linearGradient id="SVGID_28_" gradientUnits="userSpaceOnUse" x1="67.4873" y1="808.2627" x2="66.6796" y2="785.3911" gradientTransform="matrix(-4.371139e-08 1 1 4.371139e-08 -629.0962 82.3184)">
						<stop  offset="0" style="stop-color:#FFFFFF;stop-opacity:0"/>
						<stop  offset="0.9877" style="stop-color:#FFFFFF"/>
					</linearGradient>
					<path opacity="0.48" fill="url(#SVGID_28_)" enable-background="new    " d="M166.647,144.462c0,0-2.932,6.781-6.45,9.576
						c0,0,7.071-1.07,7.616-2.312C168.359,150.483,166.345,147.635,166.647,144.462z"/>
				</g>
				<g>
					<g opacity="0.49">
						<path fill="#9A0018" d="M169.072,102.001v-0.629h-0.629h-1.941c0.025-0.164,0.036-0.324,0.036-0.48
							c0-0.902-0.311-1.663-0.915-2.257c-0.524-0.507-1.195-0.756-1.951-0.822c0.69-0.005,1.215-0.095,1.584-0.275
							c0.393-0.195,0.707-0.485,0.934-0.863c0.225-0.37,0.338-0.778,0.338-1.212c0-0.315-0.057-0.618-0.174-0.907h0.071v-0.627
							v-1.029v-0.627h-0.627h-3.259l-0.252-0.363h1.478c0.474,0,0.801-0.013,0.971-0.045c0.225-0.035,0.454-0.117,0.67-0.242
							c0.22-0.125,0.4-0.273,0.541-0.443c0.384-0.44,0.581-1.024,0.581-1.728c0-0.921-0.312-1.654-0.917-2.167l-0.174-0.146h3.007
							h0.629V86.51v-1.108v-0.628h-0.629h-2.724v-3.096h2.724h0.629v-0.627v-1.117v-0.627h-0.629h-7.746h-0.628v0.627v1.108v0.628
							h0.628h2.74v3.096h-2.74h-0.628v0.627V86.5v0.628h0.628h0.642c-0.302,0.084-0.587,0.217-0.812,0.442
							c-0.353,0.353-0.537,0.815-0.537,1.332c0,0.415,0.094,0.812,0.278,1.191c-0.163,0.205-0.287,0.507-0.287,0.942
							c0,0.228,0.04,0.453,0.124,0.667c0.053,0.139,0.168,0.343,0.304,0.563h-0.34v0.628v1.029v0.627h0.628h3.433
							c0.264,0.234,0.298,0.444,0.298,0.589c0,0.054-0.005,0.239-0.074,0.284c-0.026,0.022-0.199,0.125-0.753,0.125h-2.903h-0.628
							v0.627v1.009v0.628h0.628h2.238c-0.774,0.071-1.447,0.305-1.953,0.78c-0.604,0.568-0.913,1.329-0.913,2.262v2.158v0.625h0.628
							h7.746h0.629v-0.625V102.001z M162.398,87.131h0.09l0.021,0.019C162.474,87.135,162.435,87.14,162.398,87.131z
							 M162.187,101.372v-0.151c0-0.558,0.051-0.721,0.059-0.735c0.021-0.073,0.084-0.153,0.172-0.236
							c0.162-0.146,0.429-0.219,0.791-0.219c0.401,0,0.697,0.092,0.907,0.281c0.128,0.113,0.291,0.309,0.291,0.733
							c0,0.11-0.017,0.22-0.044,0.327H162.187z"/>
						<path fill="#9A0018" d="M165.594,129.444c0.617-0.533,0.934-1.234,0.934-2.103c0-0.726-0.267-1.322-0.694-1.836l0.592,0.51
							v-1.38v-1.196v-0.281l-0.206-0.185l-1.343-1.221h3.567h0.629v-0.63v-1.007v-0.625h-0.629h-5.883l-0.271-0.391h1.476
							c0.474,0,0.801-0.015,0.971-0.044c0.225-0.04,0.454-0.12,0.674-0.248c0.219-0.123,0.4-0.272,0.537-0.44
							c0.384-0.435,0.581-1.02,0.581-1.729c0-0.736-0.249-1.313-0.644-1.792c0.406-0.493,0.644-0.981,0.644-1.475
							c0-0.312-0.09-0.608-0.267-0.894h0.164v-0.621v-1.016v-0.625h-0.627h-1.956c0.239-0.109,0.477-0.244,0.682-0.433
							c0.164-0.159,0.307-0.331,0.429-0.517c0.48,0.405,1.027,0.513,1.479,0.513c0.513,0,0.976-0.126,1.379-0.374
							c0.402-0.256,0.718-0.616,0.942-1.087c0.216-0.448,0.32-1.027,0.32-1.771v-2.026v-0.626h-0.629h-7.746h-0.628v0.626v2.624
							c0,0.687,0.124,1.28,0.357,1.757c0.247,0.493,0.576,0.877,0.981,1.141c0.115,0.08,0.245,0.118,0.371,0.173h-1.082h-0.628
							v0.625v1.016v0.629h0.628h2.666c0.288,0,0.522,0.071,0.718,0.227c0.225,0.172,0.225,0.294,0.225,0.349
							c0,0.046-0.025,0.227-0.327,0.541l-0.537,0.57l0.26,0.16h-1.213l0.021,0.017c-0.203-0.075-0.42-0.117-0.652-0.117
							c-0.517,0-0.976,0.188-1.328,0.545c-0.349,0.349-0.537,0.811-0.537,1.33c0,0.411,0.095,0.811,0.281,1.188
							c-0.168,0.21-0.29,0.513-0.29,0.944c0,0.227,0.042,0.453,0.122,0.663c0.059,0.146,0.172,0.353,0.318,0.592h-0.354v0.625v1.007
							v0.63h0.628h1.116l-1.557,1.523l-0.188,0.185v0.264v1.352v1.523l0.032-0.029c-0.071,0.272-0.111,0.579-0.111,0.91
							c0,0.462,0.057,0.886,0.157,1.246c0.109,0.365,0.285,0.73,0.526,1.096l0.185,0.281h0.338h0.986h0.348v0.088h0.63h0.128
							C164.23,130.195,165.004,129.943,165.594,129.444z M162.119,124.543l1.213-1.217l1.8,1.569
							c-0.528-0.336-1.128-0.55-1.856-0.55C162.855,124.346,162.479,124.426,162.119,124.543z"/>
					</g>
					<g>
						<path fill="#FFFFFF" d="M168.833,85.067v1.111h-7.746v-1.111h3.372v-4.351h-3.372v-1.108h7.746v1.108h-3.353v4.351H168.833z"
							/>
						<path fill="#FFFFFF" d="M164.15,90.952h-2.165c-0.177,0-0.265,0.061-0.265,0.177c0,0.125,0.093,0.313,0.277,0.576h-0.617
							c-0.148-0.231-0.247-0.416-0.302-0.556c-0.055-0.135-0.084-0.28-0.084-0.433c0-0.435,0.172-0.69,0.51-0.766
							c-0.329-0.43-0.497-0.885-0.497-1.368c0-0.356,0.119-0.651,0.353-0.888c0.232-0.238,0.528-0.356,0.885-0.356
							c0.319,0,0.608,0.118,0.858,0.348c0.256,0.23,0.457,0.559,0.603,0.984l0.44,1.294h0.276c0.613,0,0.919-0.31,0.919-0.923
							c0-0.55-0.285-1.084-0.852-1.606h1.104c0.462,0.391,0.692,0.954,0.692,1.69c0,0.552-0.143,0.995-0.432,1.326
							c-0.093,0.111-0.217,0.21-0.37,0.298c-0.15,0.088-0.308,0.147-0.461,0.172C164.872,90.942,164.583,90.952,164.15,90.952z
							 M162.095,89.96h1.515l-0.261-0.677c-0.138-0.344-0.276-0.589-0.413-0.73s-0.312-0.211-0.514-0.211
							c-0.214,0-0.387,0.066-0.521,0.202c-0.132,0.136-0.197,0.31-0.197,0.526C161.704,89.391,161.834,89.685,162.095,89.96z"/>
						<path fill="#FFFFFF" d="M166.189,93.602h-0.648c0.493,0.451,0.749,0.965,0.749,1.533c0,0.318-0.084,0.617-0.247,0.89
							c-0.162,0.275-0.391,0.481-0.678,0.623c-0.285,0.142-0.738,0.216-1.359,0.216h-2.914v-1.011h2.903
							c0.521,0,0.896-0.078,1.12-0.236c0.223-0.16,0.336-0.425,0.336-0.799c0-0.479-0.239-0.883-0.718-1.216h-3.642V92.57h5.103
							v1.031H166.189z"/>
						<path fill="#FFFFFF" d="M168.833,101.678v1.012h-7.746v-2.155c0-0.756,0.239-1.355,0.718-1.804
							c0.475-0.449,1.118-0.673,1.918-0.673c0.751,0,1.368,0.236,1.851,0.706c0.484,0.471,0.729,1.072,0.729,1.806
							c0,0.339-0.073,0.71-0.218,1.108H168.833L168.833,101.678z M161.954,101.678h3.229c0.161-0.314,0.239-0.635,0.239-0.959
							c0-0.5-0.161-0.901-0.491-1.196c-0.331-0.301-0.776-0.447-1.334-0.447c-0.524,0-0.928,0.129-1.211,0.39
							c-0.17,0.154-0.283,0.317-0.342,0.491c-0.059,0.175-0.088,0.486-0.088,0.938v0.784H161.954z"/>
						<path fill="#FFFFFF" d="M161.087,106.822V104.2h7.746v2.026c0,0.643-0.086,1.138-0.256,1.503
							c-0.174,0.356-0.407,0.629-0.711,0.817c-0.305,0.185-0.65,0.281-1.047,0.281c-0.76,0-1.303-0.396-1.637-1.179
							c-0.104,0.566-0.34,1.016-0.696,1.351c-0.356,0.332-0.785,0.498-1.286,0.498c-0.396,0-0.749-0.105-1.06-0.309
							c-0.311-0.197-0.564-0.497-0.76-0.894C161.184,107.905,161.087,107.414,161.087,106.822z M167.845,106.261v-0.953h-2.328
							v0.738c0,0.592,0.111,1.014,0.338,1.26c0.222,0.251,0.52,0.375,0.877,0.375C167.476,107.679,167.845,107.209,167.845,106.261z
							 M164.53,106.345v-1.037h-2.457v1.091c0,0.608,0.044,1.022,0.139,1.238c0.095,0.214,0.243,0.386,0.442,0.521
							c0.199,0.13,0.413,0.192,0.643,0.192c0.236,0,0.453-0.066,0.652-0.205c0.192-0.135,0.338-0.336,0.437-0.592
							C164.481,107.301,164.53,106.894,164.53,106.345z"/>
						<path fill="#FFFFFF" d="M166.189,111.535h-1.171l0.093,0.055c0.782,0.49,1.179,0.978,1.179,1.469
							c0,0.377-0.192,0.771-0.579,1.191l-0.887-0.537c0.333-0.353,0.501-0.676,0.501-0.974c0-0.327-0.157-0.612-0.47-0.844
							c-0.312-0.243-0.674-0.36-1.104-0.36h-2.665v-1.016h5.099v1.016H166.189z"/>
						<path fill="#FFFFFF" d="M164.15,118.156h-2.165c-0.177,0-0.265,0.055-0.265,0.172c0,0.126,0.093,0.315,0.277,0.575h-0.617
							c-0.148-0.23-0.247-0.411-0.302-0.554c-0.055-0.139-0.084-0.277-0.084-0.433c0-0.432,0.172-0.684,0.51-0.764
							c-0.329-0.43-0.497-0.89-0.497-1.368c0-0.36,0.119-0.654,0.353-0.889c0.232-0.233,0.528-0.357,0.885-0.357
							c0.319,0,0.608,0.118,0.858,0.349c0.256,0.23,0.457,0.558,0.603,0.986l0.44,1.288h0.276c0.613,0,0.919-0.311,0.919-0.923
							c0-0.546-0.285-1.083-0.852-1.604h1.104c0.462,0.396,0.692,0.953,0.692,1.687c0,0.555-0.143,0.999-0.432,1.326
							c-0.093,0.113-0.217,0.21-0.37,0.298c-0.15,0.093-0.308,0.147-0.461,0.173C164.872,118.144,164.583,118.156,164.15,118.156z
							 M162.095,117.162h1.515l-0.261-0.676c-0.138-0.344-0.276-0.588-0.413-0.73s-0.312-0.214-0.514-0.214
							c-0.214,0-0.387,0.071-0.521,0.202c-0.132,0.138-0.197,0.31-0.197,0.524C161.704,116.596,161.834,116.89,162.095,117.162z"/>
						<path fill="#FFFFFF" d="M168.833,119.797v1.008h-7.746v-1.008H168.833z M166.189,123.116v1.2l-2.496-2.178l-2.606,2.618
							v-1.355l2.606-2.553L166.189,123.116z"/>
						<path fill="#FFFFFF" d="M163.548,129.242v-3.587c-0.488,0.029-0.874,0.192-1.164,0.49c-0.289,0.307-0.43,0.692-0.43,1.167
							c0,0.667,0.207,1.284,0.618,1.842h-0.985c-0.206-0.312-0.354-0.621-0.443-0.923c-0.088-0.309-0.132-0.665-0.132-1.07
							c0-0.564,0.113-1.021,0.349-1.365c0.23-0.347,0.545-0.63,0.939-0.84c0.395-0.207,0.852-0.312,1.368-0.312
							c0.774,0,1.407,0.219,1.893,0.659c0.488,0.44,0.729,1.013,0.729,1.714c0,0.674-0.236,1.215-0.709,1.62
							c-0.474,0.404-1.107,0.602-1.9,0.602h-0.133V129.242z M164.15,125.68v2.564c0.403-0.021,0.718-0.147,0.934-0.356
							c0.221-0.217,0.325-0.504,0.325-0.869c0-0.36-0.104-0.658-0.325-0.885C164.868,125.902,164.556,125.747,164.15,125.68z"/>
					</g>
				</g>
			</g>
		</g>
	</g>
</g>
<g id="Capa_3">
</g>
</svg>
