<?xml version="1.0" encoding="UTF-8" standalone="no"?>
<!-- Created with Inkscape (http://www.inkscape.org/) -->

<svg
   xmlns:dc="http://purl.org/dc/elements/1.1/"
   xmlns:cc="http://creativecommons.org/ns#"
   xmlns:rdf="http://www.w3.org/1999/02/22-rdf-syntax-ns#"
   xmlns:svg="http://www.w3.org/2000/svg"
   xmlns="http://www.w3.org/2000/svg"
   xmlns:xlink="http://www.w3.org/1999/xlink"
   xmlns:sodipodi="http://sodipodi.sourceforge.net/DTD/sodipodi-0.dtd"
   xmlns:inkscape="http://www.inkscape.org/namespaces/inkscape"
   version="1.0"
   width="96"
   height="96"
   id="svg2408"
   inkscape:version="0.47 r22583"
   sodipodi:docname="deluge.svg">
  <sodipodi:namedview
     pagecolor="#ffffff"
     bordercolor="#666666"
     borderopacity="1"
     objecttolerance="10"
     gridtolerance="10"
     guidetolerance="10"
     inkscape:pageopacity="0"
     inkscape:pageshadow="2"
     inkscape:window-width="1440"
     inkscape:window-height="875"
     id="namedview3044"
     showgrid="false"
     inkscape:zoom="2.5208333"
     inkscape:cx="-1.3884298"
     inkscape:cy="48"
     inkscape:window-x="1440"
     inkscape:window-y="0"
     inkscape:window-maximized="1"
     inkscape:current-layer="svg2408" />
  <defs
     id="defs2410">
    <inkscape:perspective
       sodipodi:type="inkscape:persp3d"
       inkscape:vp_x="0 : 48 : 1"
       inkscape:vp_y="0 : 1000 : 0"
       inkscape:vp_z="96 : 48 : 1"
       inkscape:persp3d-origin="48 : 32 : 1"
       id="perspective3046" />
    <linearGradient
       id="linearGradient3782">
      <stop
         id="stop3784"
         style="stop-color:#697c84;stop-opacity:1"
         offset="0" />
      <stop
         id="stop3786"
         style="stop-color:#697c84;stop-opacity:0"
         offset="1" />
    </linearGradient>
    <linearGradient
       id="linearGradient3756">
      <stop
         id="stop3758"
         style="stop-color:#ffffff;stop-opacity:1"
         offset="0" />
      <stop
         id="stop3760"
         style="stop-color:#ffffff;stop-opacity:0"
         offset="1" />
    </linearGradient>
    <linearGradient
       id="linearGradient3744">
      <stop
         id="stop3746"
         style="stop-color:#ffffff;stop-opacity:1"
         offset="0" />
      <stop
         id="stop3748"
         style="stop-color:#ffffff;stop-opacity:0"
         offset="1" />
    </linearGradient>
    <linearGradient
       id="linearGradient3717">
      <stop
         id="stop3719"
         style="stop-color:#ffffff;stop-opacity:1"
         offset="0" />
      <stop
         id="stop3721"
         style="stop-color:#93a3aa;stop-opacity:1"
         offset="1" />
    </linearGradient>
    <linearGradient
       id="linearGradient3692">
      <stop
         id="stop3694"
         style="stop-color:#000000;stop-opacity:1"
         offset="0" />
      <stop
         id="stop3696"
         style="stop-color:#000000;stop-opacity:0"
         offset="1" />
    </linearGradient>
    <linearGradient
       x1="45.447727"
       y1="92.539597"
       x2="45.447727"
       y2="7.0165396"
       id="ButtonShadow"
       gradientUnits="userSpaceOnUse"
       gradientTransform="scale(1.0058652,0.994169)">
      <stop
         id="stop3750"
         style="stop-color:#000000;stop-opacity:1"
         offset="0" />
      <stop
         id="stop3752"
         style="stop-color:#000000;stop-opacity:0.58823532"
         offset="1" />
    </linearGradient>
    <linearGradient
       id="linearGradient3737">
      <stop
         id="stop3739"
         style="stop-color:#ffffff;stop-opacity:1"
         offset="0" />
      <stop
         id="stop3741"
         style="stop-color:#ffffff;stop-opacity:0"
         offset="1" />
    </linearGradient>
    <linearGradient
       id="linearGradient3700">
      <stop
         id="stop3702"
         style="stop-color:#667981;stop-opacity:1"
         offset="0" />
      <stop
         id="stop3704"
         style="stop-color:#a4b2b8;stop-opacity:1"
         offset="1" />
    </linearGradient>
    <filter
       color-interpolation-filters="sRGB"
       id="filter3174">
      <feGaussianBlur
         id="feGaussianBlur3176"
         stdDeviation="1.71" />
    </filter>
    <linearGradient
       x1="36.357143"
       y1="6"
       x2="36.357143"
       y2="63.893143"
       id="linearGradient3188"
       xlink:href="#linearGradient3737"
       gradientUnits="userSpaceOnUse" />
    <filter
       x="-0.192"
       y="-0.192"
       width="1.3839999"
       height="1.3839999"
       color-interpolation-filters="sRGB"
       id="filter3794">
      <feGaussianBlur
         id="feGaussianBlur3796"
         stdDeviation="5.28" />
    </filter>
    <linearGradient
       x1="48"
       y1="20.220806"
       x2="48"
       y2="138.66119"
       id="linearGradient3613"
       xlink:href="#linearGradient3737"
       gradientUnits="userSpaceOnUse" />
    <radialGradient
       cx="48"
       cy="90.171875"
       r="42"
       fx="48"
       fy="90.171875"
       id="radialGradient3619"
       xlink:href="#linearGradient3737"
       gradientUnits="userSpaceOnUse"
       gradientTransform="matrix(1.1573129,0,0,0.99590774,-7.5510206,0.19713193)" />
    <clipPath
       id="clipPath3613">
      <rect
         width="84"
         height="84"
         rx="6"
         ry="6"
         x="6"
         y="6"
         id="rect3615"
         style="fill:#ffffff;fill-opacity:1;fill-rule:nonzero;stroke:none" />
    </clipPath>
    <linearGradient
       x1="48"
       y1="90"
       x2="48"
       y2="5.9877172"
       id="linearGradient3617"
       xlink:href="#linearGradient3700"
       gradientUnits="userSpaceOnUse" />
    <linearGradient
       x1="45.447727"
       y1="92.539597"
       x2="45.447727"
       y2="7.0165396"
       id="ButtonShadow-0"
       gradientUnits="userSpaceOnUse"
       gradientTransform="matrix(1.0058652,0,0,0.994169,100,0)">
      <stop
         id="stop3750-8"
         style="stop-color:#000000;stop-opacity:1"
         offset="0" />
      <stop
         id="stop3752-5"
         style="stop-color:#000000;stop-opacity:0.58823532"
         offset="1" />
    </linearGradient>
    <linearGradient
       x1="32.251034"
       y1="6.1317081"
       x2="32.251034"
       y2="90.238609"
       id="linearGradient3780"
       xlink:href="#ButtonShadow-0"
       gradientUnits="userSpaceOnUse"
       gradientTransform="matrix(1.0238095,0,0,1.0119048,-1.1428571,-98.071429)" />
    <linearGradient
       x1="32.251034"
       y1="6.1317081"
       x2="32.251034"
       y2="90.238609"
       id="linearGradient3772"
       xlink:href="#ButtonShadow-0"
       gradientUnits="userSpaceOnUse"
       gradientTransform="matrix(1.0238095,0,0,1.0119048,-1.1428571,-98.071429)" />
    <linearGradient
       x1="32.251034"
       y1="6.1317081"
       x2="32.251034"
       y2="90.238609"
       id="linearGradient3725"
       xlink:href="#ButtonShadow-0"
       gradientUnits="userSpaceOnUse"
       gradientTransform="matrix(1.0238095,0,0,1.0119048,-1.1428571,-98.071429)" />
    <linearGradient
       x1="32.251034"
       y1="6.1317081"
       x2="32.251034"
       y2="90.238609"
       id="linearGradient3721"
       xlink:href="#ButtonShadow-0"
       gradientUnits="userSpaceOnUse"
       gradientTransform="translate(0,-97)" />
    <linearGradient
       x1="32.251034"
       y1="6.1317081"
       x2="32.251034"
       y2="90.238609"
       id="linearGradient3026"
       xlink:href="#ButtonShadow-0"
       gradientUnits="userSpaceOnUse"
       gradientTransform="matrix(1.0238095,0,0,1.0119048,-1.1428571,-98.071429)" />
    <linearGradient
       x1="49"
       y1="75"
       x2="49"
       y2="22.990385"
       id="linearGradient3698"
       xlink:href="#linearGradient3692"
       gradientUnits="userSpaceOnUse" />
    <linearGradient
       x1="47"
       y1="74"
       x2="47"
       y2="24"
       id="linearGradient3707"
       xlink:href="#linearGradient3692"
       gradientUnits="userSpaceOnUse" />
    <linearGradient
       x1="51"
       y1="73"
       x2="52"
       y2="26"
       id="linearGradient3715"
       xlink:href="#linearGradient3692"
       gradientUnits="userSpaceOnUse" />
    <radialGradient
       cx="48"
       cy="58.666668"
       r="16"
       fx="48"
       fy="58.666668"
       id="radialGradient3723"
       xlink:href="#linearGradient3717"
       gradientUnits="userSpaceOnUse"
       gradientTransform="matrix(1,0,0,1.5,0,-24)" />
    <linearGradient
       x1="41.646389"
       y1="71.088478"
       x2="41.864433"
       y2="22.682728"
       id="linearGradient3750"
       xlink:href="#linearGradient3744"
       gradientUnits="userSpaceOnUse" />
    <radialGradient
       cx="55.598351"
       cy="46.454388"
       r="2.6136763"
       fx="55.598351"
       fy="46.454388"
       id="radialGradient3762"
       xlink:href="#linearGradient3756"
       gradientUnits="userSpaceOnUse"
       gradientTransform="matrix(0.94969259,-0.31318364,1.2096513,3.6681255,-53.396602,-103.87465)" />
    <radialGradient
       cx="55.598351"
       cy="46.454388"
       r="2.6136763"
       fx="55.598351"
       fy="46.454388"
       id="radialGradient3776"
       xlink:href="#linearGradient3756"
       gradientUnits="userSpaceOnUse"
       gradientTransform="matrix(0.39510098,-0.13029391,0.5032517,1.5260517,6.3824423,-26.002402)" />
    <linearGradient
       x1="48.353294"
       y1="24.342234"
       x2="48.353294"
       y2="46.270821"
       id="linearGradient3789"
       xlink:href="#linearGradient3782"
       gradientUnits="userSpaceOnUse" />
    <linearGradient
       inkscape:collect="always"
       xlink:href="#linearGradient1722"
       id="linearGradient3213"
       gradientUnits="userSpaceOnUse"
       gradientTransform="matrix(-0.188222,0,0,0.212221,6.753654,-27.74224)"
       spreadMethod="reflect"
       x1="-775.59320"
       y1="594.75525"
       x2="-968.44397"
       y2="430.69949" />
    <linearGradient
       inkscape:collect="always"
       xlink:href="#linearGradient1722"
       id="linearGradient3210"
       gradientUnits="userSpaceOnUse"
       gradientTransform="matrix(0.13366,0,0,0.298854,6.753654,-27.74224)"
       spreadMethod="reflect"
       x1="579.23877"
       y1="460.85092"
       x2="458.53732"
       y2="213.73424" />
    <linearGradient
       inkscape:collect="always"
       xlink:href="#linearGradient1707"
       id="linearGradient1792"
       gradientUnits="userSpaceOnUse"
       gradientTransform="scale(0.965134,1.036126)"
       spreadMethod="pad"
       x1="377.88629"
       y1="303.11639"
       x2="377.88629"
       y2="1061.7183" />
    <linearGradient
       inkscape:collect="always"
       xlink:href="#linearGradient1702"
       id="linearGradient1791"
       gradientUnits="userSpaceOnUse"
       gradientTransform="scale(0.964123,1.037212)"
       spreadMethod="reflect"
       x1="633.39215"
       y1="677.12762"
       x2="595.70337"
       y2="1481.7957" />
    <linearGradient
       id="linearGradient1702">
      <stop
         style="stop-color:#e66eed;stop-opacity:1.0000000;"
         offset="0.0000000"
         id="stop1703" />
      <stop
         style="stop-color:#3757d5;stop-opacity:0.0000000;"
         offset="1.0000000"
         id="stop1704" />
    </linearGradient>
    <linearGradient
       id="linearGradient1707">
      <stop
         style="stop-color:#f0f0f0;stop-opacity:1.0000000;"
         offset="0.00000000"
         id="stop1708" />
      <stop
         style="stop-color:#7f309f;stop-opacity:1.0000000;"
         offset="1.0000000"
         id="stop1709" />
    </linearGradient>
    <linearGradient
       id="linearGradient1722">
      <stop
         style="stop-color:#ffffff;stop-opacity:0.68750000;"
         offset="0.0000000"
         id="stop1723" />
      <stop
         style="stop-color:#ffffff;stop-opacity:0.0000000;"
         offset="1.0000000"
         id="stop1724" />
    </linearGradient>
    <inkscape:perspective
       id="perspective3144"
       inkscape:persp3d-origin="80 : 53.333333 : 1"
       inkscape:vp_z="160 : 80 : 1"
       inkscape:vp_y="0 : 1000 : 0"
       inkscape:vp_x="0 : 80 : 1"
       sodipodi:type="inkscape:persp3d" />
  </defs>
  <metadata
     id="metadata2413">
    <rdf:RDF>
      <cc:Work
         rdf:about="">
        <dc:format>image/svg+xml</dc:format>
        <dc:type
           rdf:resource="http://purl.org/dc/dcmitype/StillImage" />
        <dc:title></dc:title>
      </cc:Work>
    </rdf:RDF>
  </metadata>
  <g
     id="layer2"
     style="display:none">
    <rect
       width="86"
       height="85"
       rx="6"
       ry="6"
       x="5"
       y="7"
       id="rect3745"
       style="opacity:0.9;fill:url(#ButtonShadow);fill-opacity:1;fill-rule:nonzero;stroke:none;filter:url(#filter3174)" />
  </g>
  <g
     id="layer3">
    <path
       d="m 12,-95.03125 c -5.5110903,0 -10.03125,4.52016 -10.03125,10.03125 l 0,71 c 0,5.5110902 4.5201598,10.03125 10.03125,10.03125 l 72,0 c 5.51109,0 10.03125,-4.5201597 10.03125,-10.03125 l 0,-71 c 0,-5.51109 -4.52016,-10.03125 -10.03125,-10.03125 l -72,0 z"
       transform="scale(1,-1)"
       id="path3786"
       style="opacity:0.07999998;fill:url(#linearGradient3026);fill-opacity:1;fill-rule:nonzero;stroke:none;display:inline" />
    <path
       d="m 12,-94.03125 c -4.971633,0 -9.03125,4.059617 -9.03125,9.03125 l 0,71 c 0,4.9716329 4.0596171,9.03125 9.03125,9.03125 l 72,0 c 4.971633,0 9.03125,-4.059617 9.03125,-9.03125 l 0,-71 c 0,-4.971633 -4.059617,-9.03125 -9.03125,-9.03125 l -72,0 z"
       transform="scale(1,-1)"
       id="path3778"
       style="opacity:0.1;fill:url(#linearGradient3780);fill-opacity:1;fill-rule:nonzero;stroke:none;display:inline" />
    <path
       d="m 12,-93 c -4.4091333,0 -8,3.590867 -8,8 l 0,71 c 0,4.4091333 3.5908667,8 8,8 l 72,0 c 4.409133,0 8,-3.5908667 8,-8 l 0,-71 c 0,-4.409133 -3.590867,-8 -8,-8 l -72,0 z"
       transform="scale(1,-1)"
       id="path3770"
       style="opacity:0.2;fill:url(#linearGradient3772);fill-opacity:1;fill-rule:nonzero;stroke:none;display:inline" />
    <rect
       width="86"
       height="85"
       rx="7"
       ry="7"
       x="5"
       y="-92"
       transform="scale(1,-1)"
       id="rect3723"
       style="opacity:0.3;fill:url(#linearGradient3725);fill-opacity:1;fill-rule:nonzero;stroke:none;display:inline" />
    <rect
       width="84"
       height="84"
       rx="6"
       ry="6"
       x="6"
       y="-91"
       transform="scale(1,-1)"
       id="rect3716"
       style="opacity:0.45;fill:url(#linearGradient3721);fill-opacity:1;fill-rule:nonzero;stroke:none;display:inline" />
  </g>
  <g
     id="layer1">
    <rect
       width="84"
       height="84"
       rx="6"
       ry="6"
       x="6"
       y="6"
       id="rect2419"
       style="fill:url(#linearGradient3617);fill-opacity:1;fill-rule:nonzero;stroke:none" />
    <path
       d="M 12,6 C 8.676,6 6,8.676 6,12 l 0,2 0,68 0,2 c 0,0.334721 0.04135,0.6507 0.09375,0.96875 0.0487,0.295596 0.09704,0.596915 0.1875,0.875 0.00988,0.03038 0.020892,0.0636 0.03125,0.09375 0.098865,0.287771 0.2348802,0.547452 0.375,0.8125 0.1445918,0.273507 0.3156161,0.535615 0.5,0.78125 0.1843839,0.245635 0.3737765,0.473472 0.59375,0.6875 0.439947,0.428056 0.94291,0.814526 1.5,1.09375 0.278545,0.139612 0.5734731,0.246947 0.875,0.34375 -0.2562018,-0.100222 -0.4867109,-0.236272 -0.71875,-0.375 -0.00741,-0.0044 -0.023866,0.0045 -0.03125,0 -0.031933,-0.0193 -0.062293,-0.04251 -0.09375,-0.0625 -0.120395,-0.0767 -0.2310226,-0.163513 -0.34375,-0.25 -0.1061728,-0.0808 -0.2132809,-0.161112 -0.3125,-0.25 C 8.4783201,88.557317 8.3087904,88.373362 8.15625,88.1875 8.0486711,88.057245 7.9378561,87.922215 7.84375,87.78125 7.818661,87.74287 7.805304,87.69538 7.78125,87.65625 7.716487,87.553218 7.6510225,87.451733 7.59375,87.34375 7.4927417,87.149044 7.3880752,86.928049 7.3125,86.71875 7.30454,86.69694 7.288911,86.6782 7.28125,86.65625 7.2494249,86.5643 7.2454455,86.469419 7.21875,86.375 7.1884177,86.268382 7.1483606,86.171969 7.125,86.0625 7.0521214,85.720988 7,85.364295 7,85 L 7,83 7,15 7,13 C 7,10.218152 9.2181517,8 12,8 l 2,0 68,0 2,0 c 2.781848,0 5,2.218152 5,5 l 0,2 0,68 0,2 c 0,0.364295 -0.05212,0.720988 -0.125,1.0625 -0.04415,0.206893 -0.08838,0.397658 -0.15625,0.59375 -0.0077,0.02195 -0.0233,0.04069 -0.03125,0.0625 -0.06274,0.173739 -0.138383,0.367449 -0.21875,0.53125 -0.04158,0.0828 -0.07904,0.169954 -0.125,0.25 -0.0546,0.09721 -0.126774,0.18835 -0.1875,0.28125 -0.09411,0.140965 -0.204921,0.275995 -0.3125,0.40625 -0.143174,0.17445 -0.303141,0.346998 -0.46875,0.5 -0.01117,0.0102 -0.01998,0.02115 -0.03125,0.03125 -0.138386,0.125556 -0.285091,0.234436 -0.4375,0.34375 -0.102571,0.07315 -0.204318,0.153364 -0.3125,0.21875 -0.0074,0.0045 -0.02384,-0.0044 -0.03125,0 -0.232039,0.138728 -0.462548,0.274778 -0.71875,0.375 0.301527,-0.0968 0.596455,-0.204138 0.875,-0.34375 0.55709,-0.279224 1.060053,-0.665694 1.5,-1.09375 0.219973,-0.214028 0.409366,-0.441865 0.59375,-0.6875 0.184384,-0.245635 0.355408,-0.507743 0.5,-0.78125 0.14012,-0.265048 0.276135,-0.524729 0.375,-0.8125 0.01041,-0.03078 0.02133,-0.06274 0.03125,-0.09375 0.09046,-0.278085 0.1388,-0.579404 0.1875,-0.875 C 89.95865,84.6507 90,84.334721 90,84 l 0,-2 0,-68 0,-2 C 90,8.676 87.324,6 84,6 L 12,6 z"
       inkscape:connector-curvature="0"
       id="rect3728"
       style="opacity:0.4;fill:url(#linearGradient3188);fill-opacity:1;fill-rule:nonzero;stroke:none" />
    <path
       d="M 12,90 C 8.676,90 6,87.324 6,84 L 6,82 6,14 6,12 c 0,-0.334721 0.04135,-0.6507 0.09375,-0.96875 0.0487,-0.295596 0.09704,-0.596915 0.1875,-0.875 C 6.29113,10.12587 6.302142,10.09265 6.3125,10.0625 6.411365,9.774729 6.5473802,9.515048 6.6875,9.25 6.8320918,8.976493 7.0031161,8.714385 7.1875,8.46875 7.3718839,8.223115 7.5612765,7.995278 7.78125,7.78125 8.221197,7.353194 8.72416,6.966724 9.28125,6.6875 9.559795,6.547888 9.8547231,6.440553 10.15625,6.34375 9.9000482,6.443972 9.6695391,6.580022 9.4375,6.71875 c -0.00741,0.0044 -0.023866,-0.0045 -0.03125,0 -0.031933,0.0193 -0.062293,0.04251 -0.09375,0.0625 -0.120395,0.0767 -0.2310226,0.163513 -0.34375,0.25 -0.1061728,0.0808 -0.2132809,0.161112 -0.3125,0.25 C 8.4783201,7.442683 8.3087904,7.626638 8.15625,7.8125 8.0486711,7.942755 7.9378561,8.077785 7.84375,8.21875 7.818661,8.25713 7.805304,8.30462 7.78125,8.34375 7.716487,8.446782 7.6510225,8.548267 7.59375,8.65625 7.4927417,8.850956 7.3880752,9.071951 7.3125,9.28125 7.30454,9.30306 7.288911,9.3218 7.28125,9.34375 7.2494249,9.4357 7.2454455,9.530581 7.21875,9.625 7.1884177,9.731618 7.1483606,9.828031 7.125,9.9375 7.0521214,10.279012 7,10.635705 7,11 l 0,2 0,68 0,2 c 0,2.781848 2.2181517,5 5,5 l 2,0 68,0 2,0 c 2.781848,0 5,-2.218152 5,-5 l 0,-2 0,-68 0,-2 C 89,10.635705 88.94788,10.279012 88.875,9.9375 88.83085,9.730607 88.78662,9.539842 88.71875,9.34375 88.71105,9.3218 88.69545,9.30306 88.6875,9.28125 88.62476,9.107511 88.549117,8.913801 88.46875,8.75 88.42717,8.6672 88.38971,8.580046 88.34375,8.5 88.28915,8.40279 88.216976,8.31165 88.15625,8.21875 88.06214,8.077785 87.951329,7.942755 87.84375,7.8125 87.700576,7.63805 87.540609,7.465502 87.375,7.3125 87.36383,7.3023 87.35502,7.29135 87.34375,7.28125 87.205364,7.155694 87.058659,7.046814 86.90625,6.9375 86.803679,6.86435 86.701932,6.784136 86.59375,6.71875 c -0.0074,-0.0045 -0.02384,0.0044 -0.03125,0 -0.232039,-0.138728 -0.462548,-0.274778 -0.71875,-0.375 0.301527,0.0968 0.596455,0.204138 0.875,0.34375 0.55709,0.279224 1.060053,0.665694 1.5,1.09375 0.219973,0.214028 0.409366,0.441865 0.59375,0.6875 0.184384,0.245635 0.355408,0.507743 0.5,0.78125 0.14012,0.265048 0.276135,0.524729 0.375,0.8125 0.01041,0.03078 0.02133,0.06274 0.03125,0.09375 0.09046,0.278085 0.1388,0.579404 0.1875,0.875 C 89.95865,11.3493 90,11.665279 90,12 l 0,2 0,68 0,2 c 0,3.324 -2.676,6 -6,6 l -72,0 z"
       inkscape:connector-curvature="0"
       id="path3615"
       style="opacity:0.2;fill:url(#radialGradient3619);fill-opacity:1;fill-rule:nonzero;stroke:none" />
  </g>
  <g
     id="layer5">
    <rect
       width="66"
       height="66"
       rx="12"
       ry="12"
       x="15"
       y="15"
       clip-path="url(#clipPath3613)"
       id="rect3171"
       style="opacity:0.1;fill:url(#linearGradient3613);fill-opacity:1;fill-rule:nonzero;stroke:#ffffff;stroke-width:0.5;stroke-linecap:round;stroke-linejoin:miter;stroke-miterlimit:4;stroke-opacity:1;stroke-dasharray:none;stroke-dashoffset:0;filter:url(#filter3794)" />
  </g>
  <g
     inkscape:label="Layer 1"
     id="layer1-8"
     transform="matrix(0.54685004,0,0,0.50503533,4.1943574,7.5053436)">
    <path
       style="fill:#000000;fill-opacity:1;fill-rule:nonzero;stroke:none"
       d="m 375.61152,167.51743 c -0.9739,-0.0646 -1.73837,0.33306 -2.34124,1.0797 -11.92715,1.05619 -51.8982,56.42427 -140.26271,50.85337 C 123.97804,212.57685 90.296995,178.20671 82.280123,185.08039 72.185979,193.73517 -26.756969,214.29191 59.82532,518.45267 c 83.19604,292.26507 301.69656,414.8954 316.60212,400.81691 33.09387,-0.014 233.76558,-124.53048 312.70002,-401.82462 86.58225,-304.16077 -12.32518,-324.71752 -22.41935,-333.37229 -8.01688,-6.87368 -41.69789,27.49645 -150.72744,34.37014 -88.58653,5.58488 -128.55324,-50.14099 -140.36915,-50.92538 z"
       id="path3215"
       transform="matrix(0.202815,0,0,0.202815,4.155199,-30.13565)" />
    <path
       style="fill:url(#linearGradient1791);fill-opacity:1;fill-rule:nonzero;stroke:url(#linearGradient1792);stroke-width:16.45588303;stroke-linecap:square;stroke-linejoin:round;stroke-miterlimit:4;stroke-opacity:1;stroke-dasharray:none;stroke-dashoffset:0"
       d="m 375.61152,167.51743 c -0.9739,-0.0646 -1.73837,0.33306 -2.34124,1.0797 -11.92715,1.05619 -51.8982,56.42427 -140.26271,50.85337 C 123.97804,212.57685 90.296995,178.20671 82.280123,185.08039 72.185979,193.73517 -26.756969,214.29191 59.82532,518.45267 c 83.19604,292.26507 301.69656,414.8954 316.60212,400.81691 33.09387,-0.014 233.76558,-124.53048 312.70002,-401.82462 86.58225,-304.16077 -12.32518,-324.71752 -22.41935,-333.37229 -8.01688,-6.87368 -41.69789,27.49645 -150.72744,34.37014 -88.58653,5.58488 -128.55324,-50.14099 -140.36915,-50.92538 z"
       id="path1067"
       transform="matrix(0.202815,0,0,0.202815,4.155199,-30.13565)" />
    <path
       style="opacity:0.75916233;fill:url(#linearGradient3213);fill-opacity:1;fill-rule:nonzero;stroke:none"
       d="m 80.455569,16.185818 c 0.166979,-0.01162 0.295597,0.0604 0.398962,0.194558 2.044866,0.189784 8.901168,10.138719 24.050949,9.137725 18.69271,-1.235086 24.46884,-7.415524 25.84331,-6.18045 1.7306,1.555126 18.69094,5.251749 3.84672,59.904302 -14.26366,52.515107 -54.406488,71.989217 -54.455539,71.986327 l 0,-134.945183 c 0.111962,-0.045 0.223786,-0.09089 0.315598,-0.09728 z"
       id="path1786"
       sodipodi:nodetypes="cccccccc" />
    <path
       style="opacity:0.75916233;fill:url(#linearGradient3210);fill-opacity:1;fill-rule:nonzero;stroke:none"
       d="m 79.825208,16.088944 c -0.166979,-0.01162 -0.295597,0.06041 -0.398962,0.19456 -2.044867,0.189782 -8.901168,10.138719 -24.05095,9.137724 -18.69271,-1.235085 -24.468849,-7.415524 -25.843309,-6.18045 -1.730602,1.555127 -18.690932,5.251749 -3.846722,59.904302 14.263667,52.51509 54.40649,71.98922 54.455541,71.98635 l 0,-134.945204 c -0.111962,-0.045 -0.223786,-0.09089 -0.315598,-0.09728 z"
       id="path1716"
       sodipodi:nodetypes="cccccccc" />
    <path
       transform="matrix(9.468875,0,0,9.468875,-3477.114,-5217.575)"
       style="font-size:12px;font-style:normal;font-variant:normal;font-weight:normal;font-stretch:normal;writing-mode:lr-tb;text-anchor:start;fill:#000000;fill-opacity:0.41666667;stroke:none;font-family:Palatino Linotype"
       d="m 373.99225,558.66724 c 0.98046,-0.88672 1.68749,-1.54687 2.12109,-1.98047 0.4375,-0.4375 0.79687,-0.79687 1.07813,-1.07813 0.28515,-0.28515 0.45507,-0.46874 0.50976,-0.55078 l 0,-0.38086 0.0586,-0.0469 c 0.29687,0.0156 0.62108,0.0234 0.97265,0.0234 0.0781,10e-6 0.38671,-0.006 0.92578,-0.0176 l 0.0586,0.0527 0,0.27539 -0.0469,0.0469 c -0.36329,0 -0.61133,0.0215 -0.74414,0.0644 -0.13282,0.0391 -0.32813,0.16407 -0.58594,0.375 -0.25391,0.20704 -0.54688,0.4629 -0.8789,0.76758 l -2.37305,2.16797 3.52735,3.26367 c 0.56639,0.52734 0.8828,0.81445 0.94921,0.86133 0.0703,0.0469 0.21289,0.0742 0.42774,0.082 l 0.041,0.0469 0,0.2461 -0.041,0.0469 c -0.22657,-0.0156 -0.46095,-0.0234 -0.70313,-0.0234 -0.14454,0 -0.46094,0.008 -0.94922,0.0234 -0.35547,-0.33594 -0.66797,-0.63281 -0.9375,-0.89062 -0.26563,-0.25782 -1.40234,-1.30469 -3.41015,-3.14063 l 0,1.24805 0.006,1.14258 c 0.004,0.4414 0.0156,0.72656 0.0351,0.85547 0.0195,0.1289 0.0469,0.21484 0.082,0.25781 0.0391,0.043 0.11132,0.0801 0.21679,0.11133 0.10547,0.0273 0.36523,0.0488 0.7793,0.0645 l 0.0469,0.0352 0,0.29296 -0.0469,0.0469 c -0.0195,0 -0.36329,-0.0117 -1.03125,-0.0352 -0.27735,-0.008 -0.49414,-0.0117 -0.65039,-0.0117 -0.1211,0 -0.67969,0.0156 -1.67578,0.0469 l -0.0469,-0.0469 0,-0.29296 0.0469,-0.0352 c 0.36328,-0.0156 0.60547,-0.0352 0.72656,-0.0586 0.12109,-0.0234 0.20117,-0.0527 0.24023,-0.0879 0.043,-0.0391 0.0762,-0.11914 0.0996,-0.24023 0.0273,-0.12109 0.043,-0.39062 0.0469,-0.80859 l 0.006,-1.23633 0,-2.71289 -0.0117,-1.14258 c -0.004,-0.44531 -0.0156,-0.73242 -0.0352,-0.86133 -0.0156,-0.1289 -0.043,-0.21483 -0.082,-0.25781 -0.0352,-0.043 -0.10547,-0.0781 -0.21094,-0.10547 -0.10547,-0.0273 -0.36523,-0.0488 -0.77929,-0.0644 l -0.0469,-0.041 0,-0.29297 0.0469,-0.041 0.73242,0.0234 c 0.48047,0.0156 0.79492,0.0235 0.94336,0.0234 0.13281,10e-6 0.69336,-0.0156 1.68164,-0.0469 l 0.0469,0.041 0,0.29297 -0.0469,0.041 c -0.26954,0.008 -0.47852,0.0195 -0.62695,0.0352 -0.14454,0.0156 -0.25001,0.0449 -0.31641,0.0879 -0.0664,0.043 -0.11133,0.14454 -0.13477,0.30469 -0.0195,0.15626 -0.0293,0.37501 -0.0293,0.65625 l -0.0117,1.34766 0,1.23047"
       id="text1712" />
    <path
       style="font-size:12px;font-style:normal;font-variant:normal;font-weight:normal;font-stretch:normal;writing-mode:lr-tb;text-anchor:start;fill:#ffffff;fill-opacity:1;stroke:none;font-family:Palatino Linotype"
       d="m 295.15881,512.3771 c 45.77498,-41.39852 78.78427,-72.21911 99.02786,-92.4627 20.42567,-20.42567 37.20367,-37.20367 50.33492,-50.33492 13.31287,-13.31287 21.24597,-21.88418 23.79929,-25.71441 l 0,-17.7813 2.73588,-2.18823 c 13.86004,0.72972 28.99651,1.09435 45.41035,1.09388 3.64721,4.7e-4 18.05443,-0.27312 43.22212,-0.8203 l 2.73588,2.46182 0,12.8572 -2.1887,2.1887 c -16.96101,0 -28.54132,1.00331 -34.74185,3.009 -6.201,1.82407 -15.31949,7.65997 -27.35593,17.50771 -11.85436,9.66613 -25.53232,21.61153 -41.03342,35.8362 L 346.31403,499.24631 510.9963,651.61809 c 26.44319,24.62005 41.2155,38.02443 44.316,40.21313 3.28258,2.18823 9.93925,3.46513 19.97001,3.82975 l 1.91464,2.18823 0,11.48974 -1.91464,2.18823 c -10.57793,-0.72926 -21.52049,-1.09435 -32.82721,-1.09435 -6.74817,0 -21.52002,0.36509 -44.31647,1.09435 -16.59592,-15.68412 -31.18568,-29.54416 -43.7693,-41.5806 C 441.9678,657.90966 388.89794,609.03418 295.15881,523.31919 l 0,58.26802 0.27358,53.34392 c 0.18209,20.60775 0.72926,33.92109 1.64106,39.93954 0.9118,6.01799 2.1887,10.03029 3.83022,12.03644 1.82361,2.00615 5.19723,3.73872 10.12133,5.1977 4.92411,1.27642 17.05159,2.27927 36.38338,3.00899 l 2.18823,1.64152 0,13.6775 -2.18823,2.1887 c -0.91227,0 -16.96101,-0.54718 -48.14623,-1.64153 -12.94871,-0.36462 -23.07004,-0.54717 -30.36492,-0.54717 -5.65383,0 -31.73286,0.72972 -78.23756,2.1887 l -2.1887,-2.1887 0,-13.6775 2.1887,-1.64152 c 16.96054,-0.72972 28.26773,-1.64153 33.92109,-2.73541 5.65336,-1.09435 9.39207,-2.46228 11.21568,-4.10381 2.00615,-1.8236 3.55616,-5.56232 4.65051,-11.21567 1.2769,-5.65336 2.00615,-18.23698 2.1887,-37.75085 l 0.27359,-57.72085 0,-126.65737 -0.54718,-53.34392 c -0.18254,-20.7903 -0.72972,-34.19467 -1.64152,-40.21313 -0.72925,-6.01798 -2.00615,-10.02982 -3.82975,-12.03644 -1.64153,-2.00568 -4.92411,-3.6472 -9.84821,-4.9241 -4.92411,-1.27643 -17.05159,-2.27927 -36.38291,-3.00899 l -2.1887,-1.91512 0,-13.67796 2.1887,-1.91464 34.19468,1.09388 c 22.43182,0.73019 37.11262,1.09482 44.04288,1.09435 6.20053,4.7e-4 32.37107,-0.72879 78.51115,-2.18823 l 2.18823,1.91464 0,13.67796 -2.18823,1.91512 c -12.58408,0.36509 -22.34079,0.91226 -29.27057,1.64105 -6.74818,0.73019 -11.67228,2.09766 -14.77232,4.10334 -3.1005,2.00662 -5.19769,6.74818 -6.29204,14.22514 -0.9118,7.29535 -1.36793,17.50819 -1.36747,30.63851 l -0.54717,62.91854 0,57.44726"
       id="text1694"
       transform="matrix(0.202815,0,0,0.202815,4.155199,-35.39103)" />
    <text
       xml:space="preserve"
       style="font-size:12px;font-style:normal;font-weight:normal;fill:#000000;fill-opacity:1;stroke:none;font-family:Bitstream Vera Sans"
       x="357.0126"
       y="522.60156"
       id="text1691"><tspan
         sodipodi:role="line"
         id="tspan1692"
         x="357.0126"
         y="522.60156" /></text>
  </g>
</svg>
