<?xml version="1.0" encoding="utf-8"?>
<!-- Generator: Adobe Illustrator 15.0.2, SVG Export Plug-In . SVG Version: 6.00 Build 0)  -->
<!DOCTYPE svg PUBLIC "-//W3C//DTD SVG 1.1//EN" "http://www.w3.org/Graphics/SVG/1.1/DTD/svg11.dtd">
<svg version="1.1" id="Capa_1" xmlns="http://www.w3.org/2000/svg" xmlns:xlink="http://www.w3.org/1999/xlink" x="0px" y="0px"
	 width="200px" height="200px" viewBox="0 0 200 200" enable-background="new 0 0 200 200" xml:space="preserve">
<g id="svg2408" xmlns:dc="http://purl.org/dc/elements/1.1/" xmlns:rdf="http://www.w3.org/1999/02/22-rdf-syntax-ns#" xmlns:cc="http://creativecommons.org/ns#" xmlns:inkscape="http://www.inkscape.org/namespaces/inkscape" xmlns:svg="http://www.w3.org/2000/svg">
	<g id="layer2" display="none">
		<g id="rect3745" display="inline" opacity="0.9" enable-background="new    ">
			
				<linearGradient id="SVGID_1_" gradientUnits="userSpaceOnUse" x1="1056.2578" y1="2526.1699" x2="1056.2578" y2="2342.4883" gradientTransform="matrix(1.0059 0 0 0.9942 -962.4904 -2316.9866)">
				<stop  offset="0" style="stop-color:#000000"/>
				<stop  offset="1" style="stop-color:#000000;stop-opacity:0.5882"/>
			</linearGradient>
			<path fill="url(#SVGID_1_)" d="M20.508,11.914h158.983c7.116,0,12.891,5.772,12.891,12.891v156.835
				c0,7.115-5.772,12.891-12.891,12.891H20.508c-7.118,0-12.891-5.773-12.891-12.891V24.805
				C7.617,17.687,13.39,11.914,20.508,11.914z"/>
		</g>
	</g>
	<g>
		<g id="layer6_1_">
			
				<linearGradient id="path3786_2_" gradientUnits="userSpaceOnUse" x1="1016.2754" y1="-2277.4961" x2="1016.2754" y2="-2096.7986" gradientTransform="matrix(1.0238 0 0 -1.0119 -940.4636 -2113.5869)">
				<stop  offset="0" style="stop-color:#000000"/>
				<stop  offset="1" style="stop-color:#000000;stop-opacity:0.5882"/>
			</linearGradient>
			<path id="path3786_1_" opacity="0.08" fill="url(#path3786_2_)" enable-background="new    " d="M22.656,197.82
				c-11.843,0-21.551-9.715-21.551-21.553V23.73c0-11.841,9.708-21.551,21.551-21.551h154.687c11.843,0,21.552,9.712,21.552,21.551
				v152.538c0,11.842-9.709,21.553-21.552,21.553H22.656L22.656,197.82z"/>
			
				<linearGradient id="path3778_2_" gradientUnits="userSpaceOnUse" x1="1016.2764" y1="-2277.5015" x2="1016.2764" y2="-2096.8" gradientTransform="matrix(1.0238 0 0 -1.0119 -940.4636 -2113.5869)">
				<stop  offset="0" style="stop-color:#000000"/>
				<stop  offset="1" style="stop-color:#000000;stop-opacity:0.5882"/>
			</linearGradient>
			<path id="path3778_1_" opacity="0.1" fill="url(#path3778_2_)" enable-background="new    " d="M22.656,195.672
				c-10.685,0-19.402-8.724-19.402-19.402V23.73c0-10.683,8.724-19.402,19.402-19.402h154.687c10.685,0,19.403,8.722,19.403,19.402
				v152.538c0,10.686-8.725,19.403-19.403,19.403L22.656,195.672L22.656,195.672z"/>
			
				<linearGradient id="path3770_2_" gradientUnits="userSpaceOnUse" x1="1016.2754" y1="-2277.4927" x2="1016.2754" y2="-2096.8018" gradientTransform="matrix(1.0238 0 0 -1.0119 -940.4636 -2113.5869)">
				<stop  offset="0" style="stop-color:#000000"/>
				<stop  offset="1" style="stop-color:#000000;stop-opacity:0.5882"/>
			</linearGradient>
			<path id="path3770_1_" opacity="0.2" fill="url(#path3770_2_)" enable-background="new    " d="M22.656,193.456
				c-9.473,0-17.188-7.712-17.188-17.188V23.73c0-9.473,7.715-17.188,17.188-17.188h154.687c9.474,0,17.188,7.715,17.188,17.188
				v152.538c0,9.478-7.715,17.188-17.188,17.188H22.656z"/>
			
				<linearGradient id="rect3723_2_" gradientUnits="userSpaceOnUse" x1="1016.2754" y1="-2277.4932" x2="1016.2754" y2="-2096.8025" gradientTransform="matrix(1.0238 0 0 -1.0119 -940.4636 -2113.5869)">
				<stop  offset="0" style="stop-color:#000000"/>
				<stop  offset="1" style="stop-color:#000000;stop-opacity:0.5882"/>
			</linearGradient>
			<path id="rect3723_1_" opacity="0.3" fill="url(#rect3723_2_)" enable-background="new    " d="M22.656,191.309h154.687
				c8.308,0,15.039-6.729,15.039-15.039V23.73c0-8.307-6.731-15.039-15.039-15.039H22.656c-8.307,0-15.039,6.732-15.039,15.039
				v152.538C7.617,184.577,14.35,191.309,22.656,191.309z"/>
			
				<linearGradient id="rect3716_2_" gradientUnits="userSpaceOnUse" x1="1070.1094" y1="-2304.1519" x2="1070.1094" y2="-2123.4585" gradientTransform="matrix(1 0 0 -1 -970.1094 -2115.2812)">
				<stop  offset="0" style="stop-color:#000000"/>
				<stop  offset="1" style="stop-color:#000000;stop-opacity:0.5882"/>
			</linearGradient>
			<path id="rect3716_1_" opacity="0.45" fill="url(#rect3716_2_)" enable-background="new    " d="M22.656,189.159h154.687
				c7.117,0,12.892-5.773,12.892-12.892V21.582c0-7.118-5.772-12.891-12.892-12.891H22.656c-7.116,0-12.891,5.772-12.891,12.891
				V176.27C9.766,183.386,15.54,189.159,22.656,189.159z"/>
		</g>
		<g id="layer1_1_">
			
				<linearGradient id="rect2419_2_" gradientUnits="userSpaceOnUse" x1="1070.1094" y1="2507.5156" x2="1070.1094" y2="2327.0479" gradientTransform="matrix(1 0 0 1 -970.1094 -2317.2812)">
				<stop  offset="0" style="stop-color:#A8A51D"/>
				<stop  offset="1" style="stop-color:#898A25"/>
			</linearGradient>
			<path id="rect2419_1_" fill="url(#rect2419_2_)" d="M22.656,9.766h154.687c7.117,0,12.892,5.772,12.892,12.891v154.687
				c0,7.117-5.772,12.891-12.892,12.891H22.656c-7.116,0-12.891-5.771-12.891-12.891V22.656C9.766,15.538,15.54,9.766,22.656,9.766z
				"/>
			
				<linearGradient id="rect3728_2_" gradientUnits="userSpaceOnUse" x1="1070.1084" y1="2327.0459" x2="1070.1084" y2="2451.4312" gradientTransform="matrix(1 0 0 1 -970.1094 -2317.2812)">
				<stop  offset="0" style="stop-color:#FFFFFF"/>
				<stop  offset="1" style="stop-color:#FFFFFF;stop-opacity:0"/>
			</linearGradient>
			
				<path id="rect3728_1_" inkscape:connector-curvature="0" opacity="0.4" fill="url(#rect3728_2_)" enable-background="new    " d="
				M22.656,9.766c-7.142,0-12.891,5.75-12.891,12.891v4.297v146.093v4.297c0,0.723,0.09,1.397,0.202,2.082
				c0.105,0.633,0.21,1.283,0.404,1.881c0.021,0.065,0.045,0.137,0.063,0.2c0.216,0.616,0.503,1.175,0.806,1.745
				c0.313,0.588,0.675,1.15,1.074,1.68c0.4,0.527,0.806,1.021,1.279,1.479c0.945,0.919,2.023,1.749,3.223,2.35
				c0.597,0.312,1.23,0.532,1.88,0.751c-0.553-0.223-1.047-0.508-1.548-0.806c-0.013-0.021-0.049,0.009-0.063,0
				c-0.069-0.046-0.134-0.094-0.205-0.137c-0.26-0.161-0.494-0.353-0.741-0.535c-0.224-0.178-0.458-0.35-0.671-0.537
				c-0.386-0.35-0.751-0.746-1.074-1.143c-0.229-0.279-0.47-0.574-0.67-0.869c-0.054-0.084-0.083-0.185-0.133-0.269
				c-0.14-0.222-0.283-0.44-0.404-0.671c-0.218-0.42-0.443-0.895-0.604-1.343c-0.017-0.044-0.047-0.089-0.063-0.134
				c-0.069-0.207-0.078-0.403-0.134-0.603c-0.062-0.228-0.15-0.433-0.204-0.672c-0.157-0.755-0.269-1.521-0.269-2.304v-4.299V29.102
				v-4.297c0-5.977,4.765-10.742,10.742-10.742h4.297h146.093h4.297c5.977,0,10.742,4.766,10.742,10.742v4.297v146.093v4.297
				c0,0.785-0.113,1.549-0.27,2.283c-0.094,0.442-0.188,0.85-0.334,1.273c-0.02,0.047-0.051,0.09-0.067,0.137
				c-0.134,0.373-0.298,0.782-0.47,1.137c-0.09,0.176-0.168,0.365-0.271,0.537c-0.116,0.214-0.272,0.401-0.401,0.596
				c-0.201,0.311-0.44,0.588-0.672,0.873c-0.308,0.373-0.649,0.755-1.009,1.074c-0.022,0.021-0.042,0.046-0.065,0.062
				c-0.299,0.269-0.612,0.504-0.939,0.743c-0.223,0.154-0.438,0.327-0.671,0.47c-0.019,0.017-0.052-0.008-0.067,0
				c-0.49,0.308-0.994,0.589-1.543,0.806c0.649-0.205,1.282-0.432,1.879-0.736c1.195-0.598,2.278-1.432,3.225-2.354
				c0.474-0.457,0.879-0.942,1.273-1.478c0.404-0.529,0.764-1.092,1.074-1.679c0.312-0.57,0.594-1.125,0.807-1.741
				c0.03-0.067,0.045-0.136,0.066-0.208c0.191-0.589,0.299-1.246,0.404-1.88c0.111-0.665,0.199-1.343,0.199-2.062v-4.298V26.953
				v-4.297c0-7.141-5.748-12.891-12.893-12.891L22.656,9.766L22.656,9.766z"/>
			
				<radialGradient id="path3615_2_" cx="755.3691" cy="2517.416" r="90.2383" gradientTransform="matrix(1.1573 0 0 0.9959 -774.1888 -2316.8665)" gradientUnits="userSpaceOnUse">
				<stop  offset="0" style="stop-color:#FFFFFF"/>
				<stop  offset="1" style="stop-color:#FFFFFF;stop-opacity:0"/>
			</radialGradient>
			
				<path id="path3615_1_" inkscape:connector-curvature="0" opacity="0.2" fill="url(#path3615_2_)" enable-background="new    " d="
				M22.656,190.232c-7.142,0-12.891-5.748-12.891-12.892v-4.297V26.953v-4.297c0-0.72,0.09-1.398,0.202-2.082
				c0.105-0.636,0.21-1.282,0.404-1.88c0.021-0.064,0.045-0.133,0.063-0.204c0.213-0.617,0.501-1.175,0.806-1.744
				c0.313-0.585,0.675-1.152,1.074-1.678c0.4-0.526,0.806-1.019,1.279-1.479c0.945-0.921,2.023-1.748,3.223-2.352
				c0.597-0.301,1.23-0.528,1.88-0.739c-0.553,0.219-1.049,0.51-1.546,0.808c-0.012,0.012-0.049-0.009-0.063,0
				c-0.071,0.045-0.134,0.09-0.207,0.133c-0.26,0.166-0.494,0.351-0.741,0.537c-0.224,0.175-0.455,0.347-0.668,0.537
				c-0.387,0.347-0.752,0.742-1.074,1.14c-0.23,0.281-0.469,0.571-0.67,0.872c-0.061,0.083-0.088,0.189-0.141,0.271
				c-0.137,0.223-0.281,0.44-0.401,0.67c-0.214,0.418-0.436,0.894-0.6,1.343c-0.017,0.045-0.051,0.088-0.068,0.134
				c-0.066,0.2-0.075,0.403-0.133,0.604c-0.062,0.228-0.15,0.436-0.202,0.671c-0.157,0.74-0.269,1.511-0.269,2.292v4.297V170.9
				v4.297c0,5.976,4.765,10.742,10.742,10.742h4.297h146.093h4.297c5.977,0,10.742-4.769,10.742-10.742V170.9V24.805v-4.297
				c0-0.781-0.113-1.552-0.27-2.282c-0.094-0.444-0.188-0.853-0.334-1.277c-0.02-0.046-0.051-0.088-0.067-0.134
				c-0.134-0.374-0.298-0.788-0.47-1.141c-0.09-0.179-0.168-0.365-0.271-0.537c-0.116-0.211-0.272-0.404-0.401-0.604
				c-0.201-0.303-0.44-0.592-0.672-0.873c-0.308-0.373-0.649-0.745-1.009-1.074c-0.022-0.021-0.042-0.045-0.065-0.063
				c-0.299-0.269-0.612-0.504-0.939-0.742c-0.223-0.153-0.438-0.326-0.671-0.47c-0.019-0.009-0.052,0.009-0.067,0
				c-0.49-0.301-0.994-0.592-1.543-0.808c0.649,0.208,1.282,0.438,1.879,0.74c1.195,0.598,2.278,1.432,3.225,2.351
				c0.474,0.46,0.879,0.948,1.273,1.479c0.404,0.528,0.764,1.092,1.074,1.678c0.312,0.571,0.594,1.128,0.807,1.744
				c0.03,0.065,0.045,0.134,0.066,0.202c0.191,0.596,0.299,1.246,0.404,1.88c0.111,0.682,0.199,1.36,0.199,2.08v4.297v146.093v4.297
				c0,7.143-5.748,12.891-12.893,12.891H22.656V190.232z"/>
		</g>
		<g id="layer5_1_">
			<g>
				<g>
					<g>
						<g>
							<g>
								<g>
									<g>
										<g>
											<defs>
												<path id="SVGID_2_" d="M22.656,9.766h154.687c7.117,0,12.892,5.772,12.892,12.891v154.687
													c0,7.117-5.772,12.891-12.892,12.891H22.656c-7.116,0-12.891-5.771-12.891-12.891V22.656
													C9.766,15.538,15.54,9.766,22.656,9.766z"/>
											</defs>
											<clipPath id="SVGID_3_">
												<use xlink:href="#SVGID_2_"  overflow="visible"/>
											</clipPath>
											<g id="rect3171_1_" opacity="0.1" clip-path="url(#SVGID_3_)" enable-background="new    ">
												
													<linearGradient id="SVGID_4_" gradientUnits="userSpaceOnUse" x1="1070.1094" y1="2357.5977" x2="1070.1094" y2="2612.0627" gradientTransform="matrix(1 0 0 1 -970.1094 -2317.2812)">
													<stop  offset="0" style="stop-color:#FFFFFF"/>
													<stop  offset="1" style="stop-color:#FFFFFF;stop-opacity:0"/>
												</linearGradient>
												<path fill="url(#SVGID_4_)" d="M54.883,29.102h90.233c14.237,0,25.78,11.543,25.78,25.781v90.233
													c0,14.237-11.543,25.78-25.78,25.78H54.883c-14.238,0-25.781-11.543-25.781-25.78V54.883
													C29.102,40.645,40.645,29.102,54.883,29.102z"/>
												<path fill="none" stroke="#FFFFFF" stroke-width="0.5" stroke-linecap="round" d="M54.883,29.102h90.233
													c14.237,0,25.78,11.543,25.78,25.781v90.233c0,14.237-11.543,25.78-25.78,25.78H54.883
													c-14.238,0-25.781-11.543-25.781-25.78V54.883C29.102,40.645,40.645,29.102,54.883,29.102z"/>
											</g>
										</g>
									</g>
								</g>
							</g>
						</g>
					</g>
				</g>
			</g>
		</g>
	</g>
</g>
<g id="Capa_3">
</g>
<g>
	<path fill="#3D3E0A" d="M13.136,102.706c-0.082,0.2-0.163,0.399-0.244,0.599c0.03,0.222,0.245,0.437,0.492,0.65
		c0.176,0.8,0.378,1.588,0.606,2.36c-0.191,0.516-0.367,0.967-0.009,1.559c0.259,0.248,0.519,0.495,0.777,0.741
		c0.302,0.809,0.631,1.596,0.987,2.364c-0.094,0.395-0.142,0.769,0.126,1.104c0.173,0.071,0.348,0.141,0.521,0.212
		c0.404,0.78,0.839,1.538,1.3,2.272c-0.067,0.386,0.022,0.758,0.82,1.242c0.361,0.52,0.735,1.026,1.124,1.518
		c-0.048,0.119-0.096,0.239-0.144,0.356c3.305,4.495,6.882,6.683,12.175,8.745c0.322,0.177,1.339,0.392,2.515,0.587
		c2.48,0.619,5.069,0.844,7.714,0.618c2.312-0.197,4.525-0.729,6.608-1.548c0.7-0.117,1.335-0.286,1.957-0.874
		c0.511-0.256,1.013-0.528,1.507-0.819c0.152,0.062,0.305,0.124,0.457,0.188c1.301-1.222,2.915-1.825,4.094-2.801
		c0.183-0.45,0.367-0.901,0.55-1.353c0.436-0.435,0.859-0.884,1.268-1.351c0.303-0.092,0.602-0.198,0.748-0.376
		c0.064-0.253,0.128-0.503,0.194-0.756c0.357-0.451,0.703-0.913,1.035-1.39c0.098,0.006,0.196,0.011,0.294,0.016
		c0.62-0.565,0.814-1.263,0.956-1.968c0.164-0.279,0.323-0.561,0.479-0.846c0.159-0.237,0.289-0.495,0.404-0.764
		c0.1-0.196,0.198-0.395,0.293-0.593c0.078-0.008,0.155-0.015,0.233-0.021c0.436-0.529,0.476-1.016,0.423-1.424
		c0.336-0.797,0.644-1.615,0.918-2.448c0.504-0.383,0.986-0.772,0.942-1.729c0-0.03-0.16-0.216-0.313-0.417
		c0.158-0.619,0.296-1.243,0.422-1.874c0.256-0.492,0.514-0.982,0.77-1.475c0.009-0.307-0.208-0.894-0.329-1.463
		c0.053-0.501,0.095-1.007,0.125-1.515c0.211-0.507,0.486-0.92,0.362-1.429c-0.099-0.087-0.198-0.174-0.297-0.261
		c0.007-0.611,0-1.228-0.023-1.845c0.091-0.335,0.185-0.67,0.276-1.006c-0.017-0.322-0.185-0.603-0.4-0.869
		c-0.22-2.371-0.668-4.656-1.32-6.831c0.085-0.215,0.165-0.445,0.267-0.799c-0.11-0.112-0.217-0.23-0.32-0.354
		c0,0-0.002-0.01-0.002-0.014c0.947-0.519,2.14-1.525,2.879-2.303c1.056,0.096,2.112,0.191,3.167,0.289
		c0.769-1.583,0.954-3.8,3.167-4.03c0,0.191,0,0.383,0,0.575c0.761,1.167,0.349,2.519,0.863,4.031
		c0.233,0.684,1.222,1.616,1.44,2.303c-0.096,3.55-0.192,7.102-0.288,10.651c0.739,0.521,0.471,0.699,1.729,0.865
		c1.438,0.548,4.843-0.837,6.333,0.288c0.217,0.308,0.172,0.271,0.288,0.863c-0.919,1.011-2.59,3.974-3.167,5.183
		c0,0.384,0,0.767,0,1.152c-0.114,0.178-1.032,0.397-1.151,0.574c0,0.384,0,0.769,0,1.152c-0.192,0-0.384,0-0.577,0
		c0,0.385,0,0.769,0,1.152c-0.191,0.096-0.384,0.191-0.575,0.286c-0.918,2.051-0.321,4.077,1.727,4.32
		c0.277,0.17,0.55,0.029,1.439,0c0.652-0.937,1.85-2.331,3.167-2.592c-0.084,1.312-0.613,2.777-0.29,3.456
		c0.295,0.231,0.08,0.101,0.578,0.287c0-0.287,0-0.576,0-0.864c0.384,0,0.767,0,1.151,0c0.262,0.312-0.022,0.024,0.287,0.288
		c0.165,4.717,5.855,11.578,8.925,13.531c0.725,0.461,1.44,0.309,2.016,0.864c0.391,0.376,0.405,1.12,0.864,1.438
		c0.752,0.523,4.312,2.682,4.894,2.88c1.378,0.468,4.022,0.564,5.471,0.576c0.354-0.519,0.747-0.716,1.152-1.152
		c2.861,1.025,8.637,9.354,11.316,12.173c-0.812,3.974-0.718,8.254,0.319,12.495c-0.058,0.186-0.102,0.403-0.121,0.667
		c0.118,0.069,0.236,0.141,0.354,0.211c0.241,0.871,0.521,1.74,0.843,2.604c-0.015,0.117-0.03,0.235-0.044,0.353
		c0.059,0.206,0.21,0.388,0.398,0.556c0.335,0.825,0.707,1.642,1.116,2.449c-0.025,0.15-0.049,0.3-0.074,0.449
		c0.112,0.423,0.472,0.641,0.575,1.44c0.201,0.039,0.4,0.08,0.601,0.121c0.269,0.449,0.546,0.895,0.84,1.337
		c0,0.283,0,0.563,0,0.845c0.132,0.221,0.52,0.333,0.899,0.449c0.366,0.499,0.743,0.986,1.131,1.46
		c0.035,0.595-0.048,1.115,0.562,1.547c0.402,0.15,0.806,0.302,1.209,0.453c0.467,0.484,0.942,0.952,1.429,1.401
		c0.062,0.415,0.127,0.811,0.529,1.023c0.212,0,0.424,0,0.636,0c0.604,0.504,1.218,0.981,1.845,1.434
		c0.074,0.352,0.271,0.64,1.135,0.779c0.516,0.338,1.036,0.658,1.565,0.961c0,0.094,0,0.188,0,0.28
		c2.66,1.556,5.118,2.402,7.791,2.822c2.744,0.644,5.521,0.849,8.226,0.59c0.132,0.014,0.263,0.028,0.394,0.043
		c0.158-0.036,0.326-0.086,0.501-0.147c2.563-0.347,5.05-1.119,7.36-2.343c0.271-0.097,0.532-0.223,0.775-0.389
		c0.06-0.04,0.115-0.09,0.173-0.143c0.559-0.332,1.105-0.691,1.641-1.081c2.871-2.085,5.084-4.774,6.631-7.832
		c0.174-0.241,0.34-0.483,0.481-0.733c0-0.091,0-0.181,0-0.271c0.775-1.733,1.343-3.572,1.706-5.478
		c0.007-0.004,0.014-0.007,0.021-0.009c0.25-0.502,0.274-0.985,0.217-1.461c0.121-0.917,0.195-1.849,0.222-2.788
		c0.045-0.022,0.091-0.047,0.138-0.069c0.192-0.588,0.055-1.007-0.135-1.329c-0.015-0.755-0.058-1.514-0.134-2.272
		c0.325-0.529,0.675-1.032,0.27-1.869c-0.016-0.032-0.33-0.18-0.577-0.331c-0.062-0.354-0.131-0.707-0.206-1.062
		c0.069-0.687,0.138-1.375,0.206-2.062c-0.152-0.383-0.955-1.108-1.15-1.728c-0.251-0.789,0.135-1.462-0.288-2.017
		c-0.232-0.077-0.464-0.153-0.696-0.231c-0.069-0.162-0.148-0.322-0.222-0.483c-0.077-0.625-0.155-1.249-0.234-1.875
		c-0.198-0.409-0.686-0.611-1.144-0.821c-0.381-0.668-0.78-1.329-1.215-1.98c0.064-0.376,0.166-0.553-0.669-0.966
		c-0.045-0.061-0.085-0.125-0.131-0.188c-0.362-0.498-0.736-0.982-1.12-1.455c0.019-0.403,0.022-0.651-0.04-1.213
		c-2.227-0.915-4.203-3.438-6.046-5.469c-0.424,0-0.849,0-1.272,0c-0.282-0.187-0.565-0.367-0.853-0.544
		c-0.059-0.298-0.118-0.598-0.178-0.896c-0.359-0.12-1.05-0.078-1.677-0.153c-0.42-0.218-0.845-0.425-1.27-0.622
		c-0.352-0.37-0.688-0.819-1.084-0.953c-0.421-0.142-0.754-0.052-1.054,0.067c-0.566-0.211-1.138-0.399-1.711-0.571
		c-0.128-0.165-0.259-0.306-0.401-0.358c-0.307,0-0.61,0-0.917,0c-5.364-1.318-10.875-0.954-15.715,1.284
		c-0.532-0.009-1.04-0.046-1.507-0.133c0-2.112,0-4.224,0-6.334c-0.713-1.032-0.855-2.818-0.864-4.509
		c10.764,7.133,14.862,7.676,15.979,7.676c1.15,0,12.955-9.213,14.396-10.651c1.438-1.44,3.741-2.016,7.483-0.577
		c1.894,0.729,4.892,1.897,7.766,2.803c2.042,0.811,4.237,1.447,6.774,1.517c0.132-0.13,0.274-0.246,0.421-0.354
		c2.653-0.628,3.465-2.266,3.465-3.101c-13.3-10.75-30.979-17.462-42.169-20.943c-0.126-0.119-0.228-0.24-0.296-0.361
		c1.017-0.548,2.543-0.985,3.455-1.728c1.764-1.435,8.78-6.046,9.213-12.956c0,0-1.084-8.753-1.151-8.925
		c-0.265-0.675-1.327-1.294-0.865-2.878c0.167-0.574,1-1.565,1.152-2.304c0.342-1.662-9.19-26.903-12.235-29.078
		c-1.106-0.789-2.643-1.286-3.536-1.47c0.386-0.041-0.256-2.257-0.806-2.089c0.873-3.045,0.51-9.605-3.946-13.08
		c-0.69-0.457-2.043-0.96-3.084-1.209c-5.487-1.319-11.438-0.146-15.832,2.878c-0.812,0.558-1.482,1.724-2.306,2.303
		c-1.649,1.162-5.015,2.076-5.47,4.319c0.288,0.097,0.576,0.192,0.864,0.288c1.557,1.18,4.87,0.559,6.621,0.864
		c1.062,2.173,1.726,4.065,1.728,7.485c-1.081,0.741-1.155,1.537-2.879,1.728c-0.31,0.217-0.271,0.173-0.864,0.288
		c-0.195,1.629-0.086,2.875,0,4.606c1.587,1.125,2.494,3.134,4.03,4.318c0,0.096,0,0.192,0,0.288
		c-1.934,0.419-3.216,1.593-4.605,2.302c-0.891,0.456-1.997-0.364-2.591-0.287c-2.82,0.366-6.211,1.37-8.925,2.015
		c-3.714,0.883-8.948-1.095-13.242,0.288c-1.773,0.571-3.437,1.856-4.895,2.591c-0.672,0.095-1.344,0.192-2.015,0.288
		c-2.046,1.204-2.479,3.247-5.758,3.455c-0.708-1.477-2.206-1.919-3.455-2.879c-3.75-2.88-11.851-8.151-18.142-6.909
		c-1.571,0.311-4.063-0.042-5.182-0.288c-3.385-0.743-5.979,1.297-7.484,2.59c0.181,0.504,0.055,0.28,0.286,0.576
		c0.522,1.297,6.009,3.573,7.486,4.03c2.235,0.692,3.893-1.194,5.758-0.575c3.611,1.196,10.881,8.08,12.509,11.704l-11.479,8.826
		c-0.143-0.154-0.287-0.309-0.432-0.459c-0.211-0.543-0.35-1.203-0.703-1.521c-0.397-0.353-0.81-0.36-1.188-0.348
		c-0.392-0.344-0.802-0.679-1.239-0.999c-0.07-0.322-0.141-0.643-0.306-0.798c-0.757-0.309-1.514-0.617-2.271-0.924
		c-0.666-0.403-1.346-0.775-2.042-1.115c-1.023-0.569-2.143-1.042-3.32-1.759c-0.268,0.007-0.661,0.033-1.154,0.08
		c-2.602-0.695-5.33-0.958-8.116-0.719c-11.924,1.02-21.243,10.888-23.553,23.58c-0.137,0.168-0.272,0.375-0.402,0.64
		c0.081,0.112,0.16,0.224,0.241,0.335c-0.159,1.042-0.27,2.101-0.332,3.175c-0.036,0.063-0.073,0.127-0.106,0.191
		c-0.021,0.167,0.012,0.341,0.073,0.517c-0.042,1.107-0.03,2.227,0.035,3.358c-0.048,0.079-0.096,0.158-0.143,0.237
		c-0.064,0.477,0.195,0.844-0.039,1.702c0.126,0.085,0.25,0.171,0.377,0.256C12.908,101.329,13.011,102.022,13.136,102.706z
		 M146.525,135.858c0.866,0.672,2.211,0.294,3.743,0.864c1.769,0.656,5.237,2.542,6.62,3.741c6.62,5.736,10.577,18.336,4.031,27.062
		c-2.325,3.101-8.267,6.485-13.004,5.375c-1.535-0.288-2.016-0.48-3.406-0.769c-4.377-1.926-12.301-7.588-12.956-12.955
		c0.437-0.153,0.488-0.193,1.152-0.287c0.644,1.84,2.533,1.937,3.741,3.166c1.518,1.542,2.763,3.397,4.896,4.318
		c2.669,1.151,7.2,0.642,9.211-0.576c0.778-0.47,1.04-1.773,1.729-2.303c0.492-0.38,1.398-0.388,1.729-0.863
		c0.095-0.767,0.191-1.536,0.287-2.304c0.191,0,0.385,0,0.577,0c1.025-1.032,2.558-2.375,3.166-3.742
		c-0.426-1.199,0.486-4.857-0.287-6.909c-0.534-1.416-1.866-3.003-2.879-4.03c-0.289-0.095-0.577-0.191-0.864-0.288
		c-0.189-0.301-0.489-4.474-0.576-4.896c-1.553-0.478-2.517-1.505-4.318-1.727c-0.151,0.362-0.345,0.872-0.577,1.151
		c-0.478-0.238-0.743-0.068-1.726,0c-1.193-1.498-3.271-2.079-4.319-3.742c0.461-0.161,0.691-0.231,1.439-0.288
		C144.34,136.06,145.418,135.897,146.525,135.858z M137.888,147.374c-1.465-0.438-5.012-3.793-5.182-5.47
		c0.191-0.096,0.385-0.191,0.575-0.288c0.546-0.439,1.034-0.515,2.017-0.576c1.366,1.94,4.668,2.521,4.894,5.471
		C139.542,146.757,138.158,147.715,137.888,147.374z M140.191,147.661c0.189,0.541,0.275,1.127,0.287,2.017
		c-0.191,0-0.384,0-0.575,0c-0.353-0.657-0.471-0.648-0.575-1.727C139.616,147.854,139.903,147.759,140.191,147.661z
		 M104.491,63.021c-0.234-1.539-1.621-2.364-2.015-3.742c0.096,0,0.192,0,0.289,0c0-0.096,0-0.193,0-0.289
		c5.144-0.025,9.287-1.375,14.683-1.439c-0.193,0.864-0.386,1.728-0.577,2.592c0.602,0.321,0.528,0.412,1.44,0.575
		c2.043-2.071,6.732-2.279,10.077-2.303c1.583,6.045,7.256,5.489,8.203,12.09c-3.486,0.316-12.313-0.086-16.554,0.866
		c-0.959,0-1.918,0-2.879,0c-2.247,0.536-4.614,1.423-6.908,2.015c-1.004-2.164-4.06-1.758-4.608-4.319
		c0.839-1.603-0.822-1.447-1.438-2.303C103.29,65.495,104.672,64.188,104.491,63.021z M95.855,62.156
		c1.61-0.181,0.896-0.565,1.729-1.151c1.343-0.287,2.687-0.576,4.03-0.862c1.121,1.229,2.352,2.398,1.729,4.317
		c-0.233,0.294-0.103,0.078-0.289,0.576c-0.934,0.293-1.811-0.26-2.878,0.288c-0.477,0.243-0.827,1.28-1.44,1.439
		C96.507,67.34,95.937,63.817,95.855,62.156z M41.153,118.959c-10.508,0.9-19.861-8.141-20.894-20.193
		c-1.032-12.053,6.65-22.553,17.156-23.452c2.008-0.172,3.974,0.022,5.847,0.527c0.164,0.033,0.327,0.075,0.484,0.135
		c0.022,0.008,0.046,0.018,0.07,0.027c2.807,0.859,5.394,2.423,7.582,4.533l-9.507,7.221c-1.547-0.887-3.311-1.323-5.142-1.167
		c-5.356,0.458-9.27,5.81-8.743,11.952c0.526,6.142,5.292,10.75,10.648,10.291c4.328-0.37,7.714-3.937,8.575-8.534l10.553-8.194
		c0.249,1.101,0.429,2.237,0.528,3.402C59.34,107.56,51.661,118.06,41.153,118.959z M71.186,67.2
		c0.34,0.559,0.568,0.794,0.728,1.604l-12.318,9.471c-0.005,0.001-0.01,0.002-0.015,0.004c-0.351-0.654-0.47-0.649-0.574-1.712
		l0.149-0.115c0.604-0.396,1.171-0.845,1.717-1.32L71.186,67.2z"/>
</g>
<g>
	<path fill="none" stroke="#FFFFFF" stroke-width="0.5" stroke-miterlimit="10" d="M13.085,98.933
		c-0.091,0.196-0.18,0.392-0.27,0.587c0.021,0.223,0.226,0.447,0.463,0.671c0.141,0.807,0.309,1.603,0.503,2.384
		c-0.213,0.507-0.409,0.95-0.077,1.557c0.248,0.26,0.497,0.518,0.744,0.774c0.267,0.821,0.562,1.622,0.883,2.405
		c-0.111,0.39-0.175,0.762,0.079,1.107c0.17,0.079,0.342,0.156,0.511,0.234c0.37,0.798,0.772,1.573,1.201,2.327
		c-0.084,0.383-0.011,0.758,0.766,1.276c0.338,0.535,0.69,1.058,1.057,1.565c-0.054,0.116-0.106,0.234-0.16,0.35
		c3.106,4.634,6.586,6.975,11.784,9.266c0.314,0.19,1.321,0.449,2.487,0.695c2.451,0.727,5.028,1.062,7.68,0.952
		c2.318-0.097,4.553-0.531,6.669-1.26c0.704-0.086,1.346-0.228,1.993-0.788c0.522-0.233,1.035-0.483,1.542-0.753
		c0.149,0.068,0.299,0.138,0.448,0.207c1.354-1.164,2.992-1.696,4.212-2.62c0.202-0.442,0.406-0.885,0.608-1.327
		c0.454-0.416,0.897-0.846,1.325-1.295c0.307-0.078,0.61-0.172,0.764-0.343c0.076-0.25,0.15-0.497,0.227-0.747
		c0.377-0.435,0.742-0.882,1.095-1.343c0.097,0.01,0.195,0.019,0.293,0.028c0.644-0.538,0.868-1.227,1.041-1.925
		c0.176-0.271,0.347-0.546,0.515-0.824c0.169-0.23,0.311-0.481,0.437-0.745c0.108-0.191,0.215-0.386,0.319-0.579
		c0.078-0.005,0.155-0.009,0.234-0.012c0.458-0.51,0.519-0.994,0.484-1.404c0.37-0.781,0.713-1.586,1.023-2.406
		c0.52-0.36,1.019-0.729,1.016-1.687c0.001-0.03-0.15-0.223-0.295-0.431c0.185-0.611,0.35-1.229,0.503-1.854
		c0.277-0.48,0.556-0.959,0.833-1.44c0.023-0.306-0.169-0.901-0.265-1.475c0.075-0.499,0.138-1.002,0.19-1.508
		c0.233-0.498,0.525-0.898,0.423-1.412c-0.095-0.091-0.19-0.183-0.285-0.273c0.034-0.611,0.053-1.227,0.057-1.845
		c0.105-0.331,0.214-0.661,0.32-0.993c-0.003-0.322-0.159-0.61-0.362-0.885c-0.117-2.378-0.466-4.681-1.023-6.881
		c0.094-0.212,0.185-0.438,0.302-0.787c-0.105-0.117-0.207-0.239-0.304-0.367c0,0-0.001-0.01-0.001-0.014
		c0.968-0.477,2.204-1.431,2.977-2.176c1.051,0.142,2.102,0.283,3.152,0.426c0.837-1.547,1.118-3.754,3.339-3.889
		c-0.008,0.191-0.017,0.382-0.025,0.574c0.709,1.198,0.239,2.531,0.687,4.064c0.203,0.693,1.151,1.667,1.338,2.363
		c-0.25,3.543-0.5,7.086-0.75,10.629c0.716,0.553,0.44,0.719,1.689,0.939c1.413,0.61,4.875-0.626,6.314,0.562
		c0.203,0.317,0.16,0.279,0.25,0.875c-0.962,0.97-2.76,3.858-3.389,5.041c-0.017,0.384-0.033,0.766-0.05,1.151
		c-0.121,0.173-1.048,0.353-1.175,0.523c-0.017,0.384-0.033,0.768-0.05,1.151c-0.192-0.009-0.384-0.017-0.576-0.025
		c-0.017,0.385-0.033,0.769-0.05,1.151c-0.195,0.088-0.392,0.175-0.587,0.261c-1.006,2.01-0.498,4.06,1.538,4.392
		c0.269,0.182,0.548,0.053,1.438,0.062c0.692-0.907,1.95-2.249,3.277-2.452c-0.141,1.307-0.733,2.748-0.439,3.44
		c0.285,0.244,0.076,0.104,0.564,0.312c0.013-0.286,0.025-0.575,0.038-0.863c0.384,0.017,0.766,0.033,1.15,0.05
		c0.248,0.324-0.023,0.023,0.274,0.301c-0.041,4.72,5.347,11.821,8.329,13.906c0.705,0.491,1.426,0.37,1.977,0.95
		c0.374,0.393,0.356,1.137,0.8,1.475c0.729,0.556,4.191,2.866,4.764,3.09c1.356,0.527,3.994,0.738,5.44,0.813
		c0.377-0.503,0.777-0.683,1.201-1.102c2.814,1.148,8.223,9.72,10.777,12.652c-0.984,3.935-1.075,8.215-0.224,12.498
		c-0.065,0.183-0.119,0.398-0.149,0.66c0.115,0.075,0.229,0.151,0.344,0.227c0.203,0.881,0.444,1.761,0.729,2.638
		c-0.02,0.116-0.04,0.233-0.059,0.351c0.05,0.208,0.192,0.396,0.374,0.572c0.299,0.839,0.635,1.671,1.009,2.495
		c-0.032,0.149-0.062,0.298-0.094,0.445c0.094,0.428,0.443,0.661,0.512,1.465c0.199,0.047,0.396,0.097,0.595,0.146
		c0.249,0.461,0.507,0.918,0.781,1.372c-0.012,0.283-0.024,0.563-0.036,0.844c0.122,0.227,0.504,0.355,0.879,0.488
		c0.344,0.515,0.699,1.018,1.066,1.508c0.009,0.596-0.097,1.112,0.493,1.569c0.396,0.168,0.792,0.337,1.188,0.506
		c0.445,0.504,0.9,0.991,1.366,1.462c0.044,0.417,0.092,0.815,0.484,1.045c0.212,0.01,0.424,0.019,0.636,0.027
		c0.581,0.53,1.174,1.034,1.78,1.513c0.06,0.354,0.244,0.651,1.101,0.828c0.5,0.359,1.006,0.702,1.521,1.027
		c-0.004,0.094-0.008,0.188-0.012,0.28c2.59,1.67,5.009,2.622,7.661,3.158c2.714,0.762,5.479,1.087,8.192,0.946
		c0.131,0.02,0.261,0.039,0.391,0.06c0.16-0.029,0.33-0.071,0.508-0.125c2.575-0.235,5.093-0.899,7.455-2.021
		c0.275-0.085,0.541-0.199,0.791-0.354c0.062-0.037,0.119-0.085,0.179-0.135c0.573-0.308,1.135-0.643,1.687-1.009
		c2.959-1.959,5.286-4.55,6.964-7.537c0.185-0.233,0.361-0.468,0.514-0.712c0.004-0.091,0.008-0.181,0.012-0.271
		c0.85-1.697,1.496-3.51,1.942-5.397c0.007-0.004,0.014-0.007,0.021-0.009c0.271-0.49,0.316-0.972,0.28-1.449
		c0.16-0.911,0.275-1.839,0.342-2.776c0.046-0.021,0.093-0.043,0.141-0.063c0.218-0.579,0.099-1.003-0.076-1.333
		c0.018-0.755,0.008-1.516-0.035-2.276c0.348-0.515,0.719-1.002,0.351-1.855c-0.015-0.033-0.322-0.194-0.562-0.356
		c-0.046-0.355-0.101-0.712-0.16-1.069c0.1-0.683,0.197-1.367,0.296-2.051c-0.136-0.389-0.906-1.148-1.075-1.775
		c-0.216-0.8,0.198-1.455-0.2-2.027c-0.229-0.087-0.456-0.174-0.686-0.262c-0.062-0.165-0.134-0.328-0.2-0.492
		c-0.05-0.628-0.101-1.255-0.152-1.884c-0.181-0.417-0.659-0.641-1.107-0.87c-0.352-0.684-0.722-1.361-1.128-2.031
		c0.081-0.373,0.19-0.545-0.626-0.994c-0.042-0.062-0.079-0.128-0.122-0.192c-0.341-0.514-0.693-1.014-1.057-1.503
		c0.036-0.402,0.051-0.649,0.013-1.213c-2.185-1.011-4.05-3.618-5.803-5.727c-0.423-0.019-0.848-0.037-1.271-0.055
		c-0.273-0.199-0.549-0.392-0.828-0.581c-0.045-0.3-0.092-0.602-0.139-0.902c-0.354-0.136-1.045-0.123-1.668-0.226
		c-0.41-0.236-0.826-0.461-1.241-0.677c-0.336-0.385-0.652-0.849-1.042-0.999c-0.414-0.16-0.751-0.085-1.056,0.021
		c-0.557-0.235-1.119-0.448-1.685-0.646c-0.12-0.17-0.245-0.316-0.386-0.375c-0.306-0.014-0.609-0.026-0.916-0.04
		c-5.302-1.55-10.823-1.425-15.756,0.601c-0.531-0.031-1.036-0.091-1.499-0.198c0.092-2.11,0.184-4.22,0.274-6.327
		c-0.667-1.062-0.732-2.854-0.667-4.543c10.443,7.594,14.515,8.314,15.631,8.362c1.149,0.051,13.343-8.642,14.845-10.016
		c1.499-1.377,3.825-1.852,7.501-0.252c1.86,0.81,4.805,2.107,7.637,3.137c2.005,0.898,4.17,1.63,6.702,1.81
		c0.138-0.124,0.285-0.234,0.436-0.336c2.679-0.512,3.561-2.113,3.597-2.947c-12.82-11.317-30.191-18.791-41.221-22.754
		c-0.12-0.125-0.217-0.25-0.279-0.373c1.039-0.504,2.583-0.874,3.526-1.576c1.824-1.357,9.035-5.659,9.767-12.544
		c0,0-0.703-8.792-0.763-8.966c-0.235-0.686-1.27-1.35-0.739-2.913c0.191-0.566,1.066-1.521,1.251-2.251
		c0.414-1.646-8.014-27.276-10.961-29.582c-1.071-0.836-2.585-1.399-3.47-1.622c0.388-0.024-0.157-2.267-0.714-2.123
		c1.004-3.004,0.926-9.574-3.375-13.239c-0.67-0.486-1.999-1.047-3.028-1.342c-5.425-1.557-11.422-0.643-15.942,2.188
		c-0.835,0.522-1.556,1.657-2.403,2.2c-1.698,1.089-5.1,1.856-5.652,4.077c0.284,0.109,0.567,0.217,0.852,0.325
		c1.504,1.247,4.841,0.77,6.577,1.151c0.967,2.217,1.548,4.136,1.401,7.553c-1.112,0.693-1.222,1.485-2.951,1.602
		c-0.319,0.203-0.279,0.161-0.876,0.25c-0.267,1.619-0.211,2.868-0.2,4.602c1.536,1.193,2.355,3.24,3.839,4.489
		c-0.004,0.096-0.009,0.192-0.013,0.288c-1.95,0.335-3.282,1.452-4.701,2.1c-0.909,0.417-1.979-0.45-2.575-0.399
		c-2.834,0.243-6.265,1.099-9.004,1.625c-3.75,0.721-8.892-1.482-13.243-0.287c-1.796,0.493-3.514,1.705-5.003,2.376
		c-0.676,0.066-1.351,0.134-2.025,0.2c-2.097,1.114-2.617,3.136-5.903,3.201c-0.644-1.506-2.121-2.013-3.327-3.026
		c-3.622-3.04-11.485-8.658-17.824-7.69c-1.583,0.242-4.058-0.219-5.165-0.513c-3.35-0.889-6.029,1.037-7.589,2.263
		c0.159,0.512,0.042,0.282,0.261,0.587c0.465,1.319,5.848,3.83,7.304,4.352c2.203,0.788,3.94-1.024,5.777-0.325
		c3.556,1.352,10.52,8.544,11.989,12.236l-11.851,8.32c-0.136-0.161-0.273-0.321-0.412-0.478c-0.188-0.552-0.297-1.217-0.636-1.549
		c-0.382-0.37-0.794-0.396-1.171-0.399c-0.376-0.361-0.771-0.713-1.195-1.052c-0.056-0.325-0.113-0.649-0.271-0.811
		c-0.743-0.341-1.485-0.682-2.229-1.022c-0.647-0.432-1.311-0.833-1.991-1.203c-0.997-0.612-2.096-1.134-3.241-1.901
		c-0.268-0.004-0.661,0.004-1.157,0.029c-2.569-0.807-5.283-1.188-8.077-1.07c-11.958,0.501-21.695,9.956-24.555,22.535
		c-0.144,0.162-0.289,0.363-0.429,0.622c0.076,0.116,0.15,0.231,0.227,0.346c-0.205,1.034-0.361,2.087-0.469,3.158
		c-0.038,0.062-0.078,0.124-0.115,0.187c-0.028,0.166-0.003,0.341,0.05,0.519c-0.09,1.104-0.127,2.224-0.111,3.356
		c-0.052,0.077-0.103,0.154-0.153,0.23c-0.084,0.473,0.158,0.851-0.113,1.699c0.123,0.09,0.243,0.182,0.365,0.272
		C12.917,97.547,12.989,98.244,13.085,98.933z M144.909,137.844c0.836,0.709,2.196,0.39,3.702,1.026
		c1.738,0.732,5.122,2.767,6.451,4.024c6.365,6.019,9.771,18.778,2.853,27.213c-2.457,2.996-8.54,6.12-13.225,4.805
		c-1.521-0.354-1.993-0.567-3.369-0.915c-4.29-2.114-11.96-8.115-12.382-13.506c0.442-0.134,0.496-0.172,1.164-0.236
		c0.562,1.866,2.446,2.044,3.6,3.325c1.449,1.606,2.613,3.514,4.704,4.526c2.616,1.267,7.165,0.954,9.227-0.176
		c0.798-0.436,1.116-1.727,1.827-2.226c0.508-0.357,1.414-0.326,1.765-0.787c0.128-0.762,0.258-1.526,0.387-2.289
		c0.191,0.009,0.384,0.017,0.576,0.025c1.069-0.987,2.658-2.262,3.325-3.602c-0.373-1.217,0.697-4.832,0.014-6.915
		c-0.473-1.438-1.734-3.081-2.701-4.151c-0.285-0.107-0.568-0.217-0.852-0.325c-0.176-0.309-0.294-4.491-0.362-4.916
		c-1.531-0.545-2.449-1.613-4.239-1.912c-0.167,0.355-0.383,0.855-0.627,1.125c-0.467-0.259-0.739-0.101-1.724-0.075
		c-1.128-1.548-3.178-2.219-4.153-3.926c0.468-0.142,0.701-0.201,1.451-0.226C142.717,137.95,143.801,137.835,144.909,137.844z
		 M135.779,148.974c-1.444-0.501-4.842-4.007-4.938-5.689c0.195-0.087,0.393-0.175,0.587-0.263c0.564-0.415,1.056-0.47,2.04-0.488
		c1.28,1.998,4.554,2.721,4.651,5.678C137.459,148.429,136.035,149.326,135.779,148.974z M138.068,149.36
		c0.166,0.549,0.227,1.138,0.2,2.027c-0.191-0.008-0.384-0.017-0.575-0.024c-0.323-0.673-0.442-0.669-0.5-1.75
		C137.485,149.529,137.776,149.445,138.068,149.36z M106.076,63.25c-0.167-1.548-1.517-2.432-1.85-3.826
		c0.096,0.004,0.191,0.008,0.288,0.013c0.005-0.096,0.009-0.193,0.013-0.289c5.14,0.198,9.338-0.97,14.731-0.8
		c-0.23,0.854-0.46,1.709-0.689,2.564c0.587,0.347,0.511,0.435,1.414,0.637c2.131-1.98,6.825-1.984,10.168-1.864
		c1.319,6.109,7.011,5.799,7.671,12.435c-3.497,0.165-12.299-0.62-16.576,0.146c-0.958-0.042-1.916-0.083-2.876-0.125
		c-2.269,0.438-4.672,1.222-6.989,1.713c-0.909-2.206-3.979-1.933-4.417-4.515c0.908-1.565-0.758-1.482-1.336-2.363
		C104.77,65.669,106.206,64.425,106.076,63.25z M97.486,62.012c1.616-0.111,0.92-0.525,1.777-1.075
		c1.354-0.229,2.71-0.458,4.063-0.687c1.066,1.277,2.245,2.498,1.539,4.388c-0.245,0.284-0.105,0.074-0.313,0.563
		c-0.945,0.252-1.798-0.338-2.888,0.163c-0.486,0.222-0.882,1.243-1.501,1.375C97.913,67.219,97.496,63.675,97.486,62.012z
		 M40.37,116.387c-10.537,0.443-19.489-8.995-19.998-21.082C19.864,83.218,27.995,73.062,38.53,72.62
		c2.014-0.085,3.97,0.194,5.818,0.781c0.163,0.04,0.324,0.089,0.478,0.156c0.022,0.009,0.046,0.02,0.069,0.03
		c2.767,0.98,5.283,2.655,7.377,4.858l-9.812,6.801c-1.507-0.953-3.25-1.466-5.086-1.389c-5.371,0.226-9.513,5.402-9.254,11.562
		c0.259,6.159,4.821,10.969,10.191,10.743c4.34-0.182,7.878-3.598,8.938-8.154l10.898-7.729c0.201,1.111,0.332,2.254,0.38,3.422
		C59.035,105.787,50.907,115.943,40.37,116.387z M72.621,65.98c0.315,0.573,0.534,0.818,0.658,1.634l-12.717,8.927
		c-0.005,0.001-0.01,0.002-0.015,0.003c-0.322-0.669-0.441-0.669-0.5-1.736l0.154-0.108c0.621-0.37,1.207-0.793,1.773-1.245
		L72.621,65.98z"/>
</g>
<g>
	<path fill="none" stroke="#C9D02B" stroke-width="0.5" stroke-miterlimit="10" d="M13.219,104.509
		c-0.078,0.202-0.155,0.402-0.232,0.604c0.035,0.221,0.254,0.432,0.505,0.64c0.193,0.797,0.412,1.58,0.655,2.348
		c-0.18,0.52-0.347,0.974,0.023,1.558c0.264,0.244,0.529,0.485,0.792,0.726c0.319,0.803,0.665,1.583,1.036,2.344
		c-0.085,0.396-0.126,0.771,0.149,1.1c0.175,0.068,0.351,0.135,0.525,0.201c0.42,0.772,0.871,1.521,1.347,2.245
		c-0.06,0.388,0.038,0.758,0.846,1.226c0.372,0.512,0.756,1.011,1.155,1.494c-0.046,0.119-0.091,0.24-0.137,0.359
		c3.397,4.425,7.02,6.537,12.354,8.49c0.326,0.17,1.348,0.363,2.526,0.534c2.493,0.568,5.085,0.738,7.726,0.458
		c2.307-0.245,4.509-0.822,6.575-1.686c0.697-0.131,1.329-0.312,1.938-0.914c0.506-0.267,1.001-0.549,1.49-0.85
		c0.153,0.059,0.308,0.118,0.46,0.178c1.276-1.249,2.877-1.885,4.036-2.885c0.173-0.455,0.348-0.909,0.522-1.364
		c0.426-0.444,0.841-0.901,1.239-1.377c0.302-0.098,0.598-0.211,0.74-0.391c0.06-0.255,0.118-0.506,0.178-0.761
		c0.348-0.457,0.684-0.927,1.006-1.41c0.098,0.004,0.196,0.006,0.295,0.01c0.607-0.578,0.787-1.279,0.915-1.987
		c0.158-0.282,0.312-0.567,0.461-0.855c0.154-0.241,0.279-0.501,0.388-0.772c0.096-0.197,0.19-0.398,0.281-0.598
		c0.078-0.01,0.154-0.019,0.233-0.027c0.424-0.538,0.455-1.025,0.394-1.432c0.319-0.804,0.61-1.629,0.867-2.468
		c0.496-0.393,0.97-0.792,0.906-1.748c0-0.03-0.165-0.212-0.322-0.411c0.145-0.621,0.271-1.248,0.383-1.882
		c0.246-0.497,0.493-0.992,0.739-1.49c0.003-0.307-0.227-0.889-0.359-1.455c0.042-0.503,0.074-1.009,0.093-1.518
		c0.201-0.511,0.466-0.93,0.332-1.436c-0.101-0.084-0.201-0.17-0.302-0.254c-0.005-0.612-0.025-1.228-0.061-1.845
		c0.084-0.337,0.171-0.673,0.255-1.011c-0.023-0.321-0.197-0.599-0.418-0.86c-0.27-2.366-0.765-4.642-1.462-6.801
		c0.081-0.218,0.156-0.449,0.25-0.804c-0.113-0.11-0.221-0.226-0.327-0.347c0,0-0.002-0.01-0.002-0.014
		c0.936-0.538,2.108-1.569,2.831-2.362c1.058,0.074,2.116,0.148,3.173,0.223c0.736-1.598,0.875-3.818,3.083-4.095
		c0.004,0.191,0.008,0.383,0.012,0.575c0.785,1.15,0.401,2.511,0.946,4.012c0.248,0.679,1.255,1.59,1.487,2.272
		c-0.021,3.552-0.045,7.104-0.066,10.655c0.75,0.506,0.485,0.689,1.746,0.829c1.449,0.518,4.825-0.938,6.337,0.156
		c0.223,0.304,0.178,0.268,0.306,0.857c-0.898,1.03-2.507,4.027-3.059,5.248c0.008,0.384,0.016,0.767,0.024,1.152
		c-0.11,0.181-1.024,0.419-1.139,0.598c0.008,0.384,0.016,0.769,0.024,1.152c-0.192,0.004-0.384,0.008-0.577,0.012
		c0.008,0.385,0.016,0.769,0.024,1.152c-0.189,0.1-0.38,0.199-0.569,0.298c-0.875,2.07-0.236,4.083,1.817,4.283
		c0.28,0.164,0.55,0.018,1.439-0.029c0.632-0.95,1.801-2.369,3.113-2.657c-0.057,1.312-0.555,2.789-0.217,3.461
		c0.299,0.226,0.082,0.1,0.583,0.275c-0.006-0.287-0.012-0.576-0.018-0.864c0.384-0.008,0.767-0.016,1.15-0.024
		c0.269,0.308-0.021,0.025,0.293,0.283c0.262,4.712,6.094,11.454,9.204,13.343c0.735,0.445,1.447,0.278,2.034,0.822
		c0.398,0.367,0.428,1.111,0.893,1.42c0.763,0.508,4.366,2.592,4.952,2.777c1.388,0.439,4.033,0.481,5.481,0.463
		c0.345-0.525,0.732-0.73,1.128-1.176c2.883,0.966,8.83,9.172,11.567,11.935c-0.73,3.99-0.546,8.268,0.578,12.487
		c-0.054,0.187-0.093,0.405-0.106,0.668c0.119,0.067,0.238,0.137,0.357,0.204c0.259,0.866,0.557,1.729,0.896,2.586
		c-0.013,0.117-0.025,0.235-0.036,0.354c0.062,0.204,0.217,0.383,0.41,0.547c0.352,0.818,0.74,1.627,1.166,2.425
		c-0.022,0.151-0.042,0.302-0.064,0.451c0.121,0.421,0.484,0.631,0.604,1.429c0.202,0.034,0.401,0.071,0.603,0.108
		c0.278,0.443,0.564,0.883,0.868,1.318c0.006,0.284,0.012,0.564,0.018,0.845c0.137,0.218,0.526,0.322,0.908,0.431
		c0.377,0.492,0.764,0.971,1.161,1.437c0.047,0.594-0.025,1.116,0.593,1.534c0.405,0.143,0.812,0.286,1.219,0.429
		c0.477,0.475,0.962,0.932,1.457,1.371c0.07,0.414,0.144,0.809,0.551,1.012c0.212-0.004,0.424-0.009,0.636-0.013
		c0.614,0.491,1.238,0.956,1.874,1.395c0.082,0.351,0.285,0.635,1.151,0.756c0.521,0.327,1.049,0.637,1.584,0.928
		c0.002,0.094,0.004,0.188,0.007,0.28c2.691,1.501,5.166,2.296,7.848,2.661c2.757,0.586,5.538,0.732,8.236,0.419
		c0.132,0.011,0.263,0.021,0.394,0.034c0.158-0.04,0.324-0.093,0.499-0.157c2.555-0.4,5.024-1.225,7.31-2.496
		c0.27-0.103,0.527-0.233,0.767-0.404c0.06-0.041,0.113-0.093,0.17-0.146c0.552-0.344,1.091-0.715,1.618-1.115
		c2.827-2.145,4.983-4.88,6.466-7.969c0.17-0.244,0.331-0.489,0.467-0.743c-0.002-0.091-0.003-0.181-0.005-0.271
		c0.738-1.748,1.268-3.599,1.592-5.511c0.007-0.005,0.014-0.008,0.02-0.01c0.24-0.507,0.254-0.99,0.188-1.465
		c0.101-0.919,0.156-1.853,0.163-2.792c0.044-0.023,0.09-0.049,0.136-0.073c0.181-0.592,0.034-1.007-0.161-1.325
		c-0.031-0.754-0.09-1.513-0.182-2.27c0.314-0.535,0.653-1.046,0.231-1.874c-0.017-0.032-0.334-0.173-0.585-0.319
		c-0.068-0.352-0.146-0.704-0.228-1.057c0.055-0.688,0.108-1.377,0.163-2.065c-0.16-0.38-0.978-1.088-1.187-1.703
		c-0.267-0.784,0.104-1.465-0.33-2.011c-0.233-0.071-0.466-0.144-0.701-0.217c-0.071-0.161-0.154-0.319-0.231-0.479
		c-0.09-0.623-0.181-1.246-0.272-1.87c-0.207-0.404-0.699-0.597-1.161-0.797c-0.395-0.66-0.808-1.312-1.256-1.955
		c0.058-0.377,0.155-0.556-0.688-0.952c-0.046-0.06-0.087-0.122-0.134-0.184c-0.373-0.491-0.757-0.968-1.151-1.433
		c0.011-0.403,0.01-0.651-0.064-1.211c-2.245-0.868-4.273-3.351-6.158-5.343c-0.423,0.009-0.849,0.018-1.272,0.027
		c-0.286-0.182-0.573-0.355-0.863-0.527c-0.064-0.296-0.131-0.594-0.196-0.892c-0.362-0.112-1.051-0.056-1.68-0.117
		c-0.424-0.21-0.854-0.407-1.282-0.597c-0.359-0.362-0.705-0.805-1.104-0.93c-0.424-0.133-0.755-0.036-1.052,0.089
		c-0.571-0.199-1.146-0.375-1.723-0.536c-0.131-0.161-0.265-0.3-0.409-0.35c-0.306,0.007-0.609,0.014-0.917,0.02
		c-5.39-1.207-10.892-0.728-15.685,1.609c-0.532,0.003-1.04-0.024-1.509-0.102c-0.044-2.111-0.087-4.223-0.132-6.332
		c-0.733-1.018-0.914-2.8-0.957-4.49c10.909,6.908,15.018,7.366,16.135,7.343c1.15-0.023,12.762-9.48,14.172-10.947
		c1.408-1.471,3.698-2.094,7.47-0.732c1.908,0.688,4.93,1.795,7.822,2.64c2.058,0.769,4.266,1.359,6.804,1.376
		c0.13-0.132,0.27-0.252,0.413-0.363c2.641-0.682,3.418-2.337,3.4-3.172c-13.52-10.472-31.334-16.815-42.595-20.063
		c-0.128-0.117-0.232-0.235-0.303-0.354c1.004-0.57,2.521-1.038,3.418-1.799c1.733-1.471,8.653-6.227,8.941-13.145
		c0,0-1.266-8.729-1.336-8.899c-0.279-0.669-1.354-1.266-0.925-2.859c0.155-0.577,0.967-1.586,1.104-2.327
		c0.308-1.669-9.747-26.707-12.836-28.818c-1.123-0.766-2.669-1.23-3.566-1.396c0.385-0.049-0.303-2.252-0.849-2.072
		c0.809-3.063,0.31-9.614-4.218-12.996c-0.699-0.442-2.062-0.917-3.107-1.145c-5.514-1.206-11.439,0.091-15.77,3.206
		c-0.8,0.575-1.446,1.754-2.257,2.35c-1.625,1.196-4.971,2.18-5.38,4.431c0.291,0.091,0.58,0.18,0.871,0.27
		c1.581,1.147,4.88,0.458,6.638,0.727c1.106,2.15,1.81,4.028,1.883,7.447c-1.065,0.763-1.124,1.56-2.843,1.788
		c-0.306,0.223-0.269,0.178-0.858,0.305c-0.162,1.633-0.026,2.876,0.096,4.605c1.609,1.092,2.559,3.082,4.119,4.234
		c0.002,0.096,0.003,0.192,0.006,0.288c-1.925,0.459-3.183,1.66-4.557,2.397c-0.881,0.474-2.005-0.322-2.596-0.233
		c-2.812,0.424-6.182,1.498-8.881,2.2c-3.696,0.959-8.969-0.909-13.234,0.562c-1.761,0.607-3.397,1.927-4.84,2.692
		c-0.67,0.109-1.339,0.22-2.008,0.33c-2.021,1.246-2.411,3.297-5.685,3.573c-0.739-1.462-2.246-1.873-3.515-2.807
		c-3.809-2.801-12.017-7.903-18.281-6.531c-1.564,0.343-4.063,0.042-5.187-0.18c-3.4-0.672-5.951,1.421-7.429,2.745
		c0.191,0.5,0.061,0.278,0.298,0.569c0.549,1.287,6.081,3.447,7.568,3.875c2.249,0.645,3.867-1.275,5.745-0.695
		c3.635,1.121,11.046,7.852,12.749,11.442L56.946,76.09c-0.146-0.151-0.293-0.303-0.442-0.451c-0.222-0.539-0.374-1.195-0.734-1.505
		c-0.405-0.345-0.817-0.344-1.194-0.323c-0.399-0.336-0.816-0.663-1.26-0.973c-0.077-0.321-0.154-0.64-0.323-0.792
		c-0.763-0.293-1.526-0.585-2.29-0.876c-0.673-0.39-1.362-0.747-2.064-1.073c-1.034-0.547-2.164-0.998-3.356-1.689
		c-0.268,0.013-0.66,0.047-1.152,0.104c-2.616-0.641-5.349-0.847-8.129-0.55C24.1,69.228,14.989,79.288,12.942,92.025
		c-0.133,0.171-0.265,0.381-0.389,0.647c0.083,0.111,0.165,0.221,0.249,0.331c-0.138,1.045-0.227,2.106-0.266,3.182
		c-0.034,0.063-0.07,0.128-0.103,0.193c-0.018,0.167,0.019,0.34,0.083,0.515c-0.019,1.107,0.016,2.227,0.105,3.356
		c-0.047,0.08-0.093,0.16-0.138,0.24c-0.054,0.478,0.212,0.839-0.004,1.702c0.128,0.082,0.254,0.166,0.382,0.248
		C12.962,103.137,13.079,103.828,13.219,104.509z M147.268,134.885c0.879,0.653,2.217,0.248,3.76,0.787
		c1.782,0.619,5.289,2.432,6.696,3.602c6.738,5.599,10.956,18.113,4.592,26.975c-2.26,3.147-8.13,6.655-12.889,5.643
		c-1.541-0.256-2.025-0.438-3.421-0.697c-4.417-1.835-12.456-7.331-13.223-12.684c0.433-0.162,0.483-0.203,1.146-0.311
		c0.681,1.826,2.572,1.883,3.806,3.088c1.549,1.51,2.833,3.339,4.984,4.215c2.692,1.097,7.212,0.492,9.196-0.768
		c0.769-0.485,1.003-1.794,1.681-2.338c0.483-0.389,1.391-0.416,1.711-0.898c0.078-0.769,0.159-1.54,0.238-2.31
		c0.192-0.003,0.385-0.008,0.577-0.012c1.004-1.054,2.508-2.427,3.087-3.807c-0.45-1.19,0.386-4.867-0.43-6.902
		c-0.563-1.404-1.929-2.963-2.962-3.97c-0.291-0.089-0.581-0.18-0.87-0.27c-0.195-0.297-0.582-4.463-0.678-4.883
		c-1.562-0.445-2.547-1.452-4.353-1.636c-0.145,0.365-0.327,0.878-0.554,1.163c-0.482-0.229-0.744-0.054-1.725,0.035
		c-1.226-1.473-3.313-2.011-4.396-3.651c0.457-0.171,0.687-0.246,1.434-0.318C145.086,135.132,146.16,134.947,147.268,134.885z
		 M138.87,146.577c-1.474-0.407-5.089-3.688-5.293-5.361c0.189-0.099,0.38-0.199,0.568-0.3c0.537-0.45,1.023-0.536,2.005-0.618
		c1.405,1.912,4.719,2.424,5.006,5.368C140.512,145.926,139.148,146.912,138.87,146.577z M141.179,146.816
		c0.201,0.537,0.3,1.121,0.33,2.01c-0.191,0.005-0.384,0.009-0.575,0.013c-0.366-0.65-0.484-0.639-0.611-1.714
		C140.608,147.022,140.894,146.92,141.179,146.816z M103.729,62.935c-0.266-1.534-1.669-2.33-2.091-3.7
		c0.096-0.001,0.191-0.004,0.288-0.006c-0.001-0.096-0.004-0.193-0.006-0.289c5.142-0.132,9.257-1.566,14.65-1.743
		c-0.176,0.868-0.35,1.735-0.524,2.603c0.608,0.309,0.538,0.401,1.452,0.545c2-2.113,6.685-2.418,10.027-2.512
		c1.709,6.012,7.368,5.337,8.453,11.917c-3.479,0.388-12.313,0.17-16.532,1.209c-0.959,0.02-1.918,0.04-2.879,0.06
		c-2.235,0.582-4.584,1.519-6.864,2.158c-1.049-2.143-4.096-1.673-4.698-4.222c0.807-1.62-0.851-1.43-1.484-2.273
		C102.581,65.434,103.935,64.099,103.729,62.935z M95.078,62.25c1.606-0.215,0.885-0.583,1.704-1.187
		c1.337-0.315,2.675-0.631,4.011-0.946c1.146,1.206,2.4,2.349,1.817,4.281c-0.227,0.299-0.101,0.08-0.276,0.582
		c-0.928,0.312-1.816-0.222-2.872,0.348c-0.471,0.253-0.8,1.297-1.41,1.469C95.837,67.419,95.194,63.91,95.078,62.25z
		 M41.567,120.177c-10.487,1.118-20.026-7.727-21.309-19.755c-1.283-12.029,6.18-22.686,16.665-23.803
		c2.004-0.214,3.974-0.061,5.856,0.406c0.165,0.029,0.329,0.068,0.487,0.125c0.022,0.007,0.047,0.016,0.07,0.025
		c2.824,0.801,5.443,2.311,7.674,4.375l-9.355,7.417c-1.565-0.854-3.337-1.254-5.165-1.06c-5.345,0.57-9.146,6.001-8.493,12.131
		c0.653,6.129,5.515,10.637,10.859,10.067c4.32-0.46,7.631-4.096,8.396-8.71l10.38-8.412c0.272,1.096,0.476,2.228,0.599,3.391
		C59.514,108.402,52.054,119.059,41.567,120.177z M70.518,67.805c0.352,0.552,0.585,0.782,0.761,1.589l-12.119,9.725
		c-0.005,0.002-0.01,0.002-0.014,0.004c-0.364-0.647-0.483-0.64-0.61-1.7l0.146-0.118c0.596-0.409,1.153-0.869,1.689-1.355
		L70.518,67.805z"/>
</g>
</svg>
