<?xml version="1.0" encoding="UTF-8" standalone="no"?>
<!-- Created with Inkscape (http://www.inkscape.org/) -->

<svg
   xmlns:dc="http://purl.org/dc/elements/1.1/"
   xmlns:cc="http://creativecommons.org/ns#"
   xmlns:rdf="http://www.w3.org/1999/02/22-rdf-syntax-ns#"
   xmlns:svg="http://www.w3.org/2000/svg"
   xmlns="http://www.w3.org/2000/svg"
   xmlns:xlink="http://www.w3.org/1999/xlink"
   xmlns:sodipodi="http://sodipodi.sourceforge.net/DTD/sodipodi-0.dtd"
   xmlns:inkscape="http://www.inkscape.org/namespaces/inkscape"
   version="1.0"
   width="96"
   height="96"
   id="svg2408"
   inkscape:version="0.48.0 r9654"
   sodipodi:docname="icon.svg">
  <sodipodi:namedview
     pagecolor="#ffffff"
     bordercolor="#666666"
     borderopacity="1"
     objecttolerance="10"
     gridtolerance="10"
     guidetolerance="10"
     inkscape:pageopacity="0"
     inkscape:pageshadow="2"
     inkscape:window-width="1280"
     inkscape:window-height="743"
     id="namedview86"
     showgrid="false"
     inkscape:zoom="2.4527767"
     inkscape:cx="87.094761"
     inkscape:cy="32.811671"
     inkscape:window-x="0"
     inkscape:window-y="24"
     inkscape:window-maximized="1"
     inkscape:current-layer="svg2408" />
  <defs
     id="defs2410">
    <linearGradient
       inkscape:collect="always"
       id="linearGradient4272">
      <stop
         style="stop-color:#500000;stop-opacity:1;"
         offset="0"
         id="stop4274" />
      <stop
         style="stop-color:#500000;stop-opacity:0;"
         offset="1"
         id="stop4276" />
    </linearGradient>
    <linearGradient
       inkscape:collect="always"
       id="linearGradient3879">
      <stop
         style="stop-color:#500000;stop-opacity:1"
         offset="0"
         id="stop3881" />
      <stop
         style="stop-color:#500000;stop-opacity:0;"
         offset="1"
         id="stop3883" />
    </linearGradient>
    <linearGradient
       id="linearGradient3945">
      <stop
         id="stop3947"
         style="stop-color:#e66b19;stop-opacity:1"
         offset="0" />
      <stop
         id="stop3949"
         style="stop-color:#e69e19;stop-opacity:1"
         offset="1" />
    </linearGradient>
    <linearGradient
       id="linearGradient3922">
      <stop
         id="stop3924"
         style="stop-color:#323232;stop-opacity:1"
         offset="0" />
      <stop
         id="stop3926"
         style="stop-color:#5a5a5a;stop-opacity:1"
         offset="1" />
    </linearGradient>
    <linearGradient
       id="linearGradient3889">
      <stop
         id="stop3891"
         style="stop-color:#464646;stop-opacity:1"
         offset="0" />
      <stop
         id="stop3893"
         style="stop-color:#464646;stop-opacity:0"
         offset="1" />
    </linearGradient>
    <linearGradient
       id="linearGradient3825">
      <stop
         id="stop3827"
         style="stop-color:#000000;stop-opacity:1"
         offset="0" />
      <stop
         id="stop3833"
         style="stop-color:#000000;stop-opacity:1"
         offset="0.60000002" />
      <stop
         id="stop3829"
         style="stop-color:#000000;stop-opacity:0"
         offset="1" />
    </linearGradient>
    <linearGradient
       x1="45.447727"
       y1="92.539597"
       x2="45.447727"
       y2="7.0165396"
       id="ButtonShadow"
       gradientUnits="userSpaceOnUse"
       gradientTransform="scale(1.0058652,0.994169)">
      <stop
         id="stop3750"
         style="stop-color:#000000;stop-opacity:1"
         offset="0" />
      <stop
         id="stop3752"
         style="stop-color:#000000;stop-opacity:0.58823532"
         offset="1" />
    </linearGradient>
    <linearGradient
       id="linearGradient3737">
      <stop
         id="stop3739"
         style="stop-color:#ffffff;stop-opacity:1"
         offset="0" />
      <stop
         id="stop3741"
         style="stop-color:#ffffff;stop-opacity:0"
         offset="1" />
    </linearGradient>
    <linearGradient
       id="linearGradient3700">
      <stop
         id="stop3702"
         style="stop-color:#dcdcdc;stop-opacity:1"
         offset="0" />
      <stop
         id="stop3704"
         style="stop-color:#f0f0f0;stop-opacity:1"
         offset="1" />
    </linearGradient>
    <filter
       color-interpolation-filters="sRGB"
       id="filter3174">
      <feGaussianBlur
         id="feGaussianBlur3176"
         stdDeviation="1.71" />
    </filter>
    <linearGradient
       x1="36.357143"
       y1="6"
       x2="36.357143"
       y2="63.893143"
       id="linearGradient3188"
       xlink:href="#linearGradient3737"
       gradientUnits="userSpaceOnUse" />
    <filter
       x="-0.192"
       y="-0.192"
       width="1.3839999"
       height="1.3839999"
       color-interpolation-filters="sRGB"
       id="filter3794">
      <feGaussianBlur
         id="feGaussianBlur3796"
         stdDeviation="5.28" />
    </filter>
    <linearGradient
       x1="48"
       y1="20.220806"
       x2="48"
       y2="138.66119"
       id="linearGradient3613"
       xlink:href="#linearGradient3737"
       gradientUnits="userSpaceOnUse" />
    <radialGradient
       cx="48"
       cy="90.171875"
       r="42"
       fx="48"
       fy="90.171875"
       id="radialGradient3619"
       xlink:href="#linearGradient3737"
       gradientUnits="userSpaceOnUse"
       gradientTransform="matrix(1.1573129,0,0,0.99590774,-7.5510206,0.19713193)" />
    <clipPath
       id="clipPath3613">
      <rect
         width="84"
         height="84"
         rx="6"
         ry="6"
         x="6"
         y="6"
         id="rect3615"
         style="fill:#ffffff;fill-opacity:1;fill-rule:nonzero;stroke:none" />
    </clipPath>
    <linearGradient
       x1="48"
       y1="90"
       x2="48"
       y2="5.9877172"
       id="linearGradient3617"
       xlink:href="#linearGradient3700"
       gradientUnits="userSpaceOnUse" />
    <linearGradient
       x1="45.447727"
       y1="92.539597"
       x2="45.447727"
       y2="7.0165396"
       id="ButtonShadow-0"
       gradientUnits="userSpaceOnUse"
       gradientTransform="matrix(1.0058652,0,0,0.994169,100,0)">
      <stop
         id="stop3750-8"
         style="stop-color:#000000;stop-opacity:1"
         offset="0" />
      <stop
         id="stop3752-5"
         style="stop-color:#000000;stop-opacity:0.58823532"
         offset="1" />
    </linearGradient>
    <linearGradient
       x1="32.251034"
       y1="6.1317081"
       x2="32.251034"
       y2="90.238609"
       id="linearGradient3780"
       xlink:href="#ButtonShadow-0"
       gradientUnits="userSpaceOnUse"
       gradientTransform="matrix(1.0238095,0,0,1.0119048,-1.1428571,-98.071429)" />
    <linearGradient
       x1="32.251034"
       y1="6.1317081"
       x2="32.251034"
       y2="90.238609"
       id="linearGradient3772"
       xlink:href="#ButtonShadow-0"
       gradientUnits="userSpaceOnUse"
       gradientTransform="matrix(1.0238095,0,0,1.0119048,-1.1428571,-98.071429)" />
    <linearGradient
       x1="32.251034"
       y1="6.1317081"
       x2="32.251034"
       y2="90.238609"
       id="linearGradient3725"
       xlink:href="#ButtonShadow-0"
       gradientUnits="userSpaceOnUse"
       gradientTransform="matrix(1.0238095,0,0,1.0119048,-1.1428571,-98.071429)" />
    <linearGradient
       x1="32.251034"
       y1="6.1317081"
       x2="32.251034"
       y2="90.238609"
       id="linearGradient3721"
       xlink:href="#ButtonShadow-0"
       gradientUnits="userSpaceOnUse"
       gradientTransform="translate(0,-97)" />
    <linearGradient
       x1="32.251034"
       y1="6.1317081"
       x2="32.251034"
       y2="90.238609"
       id="linearGradient3026"
       xlink:href="#ButtonShadow-0"
       gradientUnits="userSpaceOnUse"
       gradientTransform="matrix(1.0238095,0,0,1.0119048,-1.1428571,-98.071429)" />
    <linearGradient
       x1="15"
       y1="48"
       x2="15"
       y2="8"
       id="linearGradient3831"
       xlink:href="#linearGradient3825"
       gradientUnits="userSpaceOnUse"
       gradientTransform="translate(3,0)"
       spreadMethod="reflect" />
    <linearGradient
       x1="15"
       y1="48"
       x2="15"
       y2="8"
       id="linearGradient3862"
       xlink:href="#linearGradient3825"
       gradientUnits="userSpaceOnUse"
       gradientTransform="matrix(0,1,-1,0,96.5,3)"
       spreadMethod="reflect" />
    <linearGradient
       x1="42"
       y1="49"
       x2="54"
       y2="49"
       id="linearGradient3895"
       xlink:href="#linearGradient3889"
       gradientUnits="userSpaceOnUse"
       gradientTransform="translate(-68,0)" />
    <linearGradient
       x1="42"
       y1="49"
       x2="54"
       y2="49"
       id="linearGradient3919"
       xlink:href="#linearGradient3889"
       gradientUnits="userSpaceOnUse"
       gradientTransform="translate(12,0)" />
    <linearGradient
       x1="32"
       y1="80"
       x2="32"
       y2="16"
       id="linearGradient3928"
       xlink:href="#linearGradient3922"
       gradientUnits="userSpaceOnUse" />
    <linearGradient
       x1="45"
       y1="56"
       x2="45"
       y2="36"
       id="linearGradient3951"
       xlink:href="#linearGradient3945"
       gradientUnits="userSpaceOnUse" />
    <radialGradient
       inkscape:collect="always"
       xlink:href="#linearGradient3737"
       id="radialGradient3072"
       gradientUnits="userSpaceOnUse"
       gradientTransform="matrix(1.1573129,0,0,0.99590774,-7.5510206,0.19713193)"
       cx="48"
       cy="90.171875"
       fx="48"
       fy="90.171875"
       r="42" />
    <linearGradient
       inkscape:collect="always"
       xlink:href="#linearGradient3737"
       id="linearGradient3075"
       gradientUnits="userSpaceOnUse"
       x1="36.357143"
       y1="6"
       x2="36.357143"
       y2="63.893143" />
    <linearGradient
       inkscape:collect="always"
       xlink:href="#linearGradient3700"
       id="linearGradient3078"
       gradientUnits="userSpaceOnUse"
       x1="48"
       y1="90"
       x2="48"
       y2="5.9877172" />
    <linearGradient
       inkscape:collect="always"
       xlink:href="#linearGradient3879"
       id="linearGradient3885"
       x1="30.036037"
       y1="25.633339"
       x2="-28.092642"
       y2="-33.465763"
       gradientUnits="userSpaceOnUse" />
    <linearGradient
       inkscape:collect="always"
       xlink:href="#linearGradient3879-3"
       id="linearGradient3885-3"
       x1="30.036037"
       y1="25.633339"
       x2="-28.092642"
       y2="-33.465763"
       gradientUnits="userSpaceOnUse" />
    <linearGradient
       inkscape:collect="always"
       id="linearGradient3879-3">
      <stop
         style="stop-color:#500000;stop-opacity:1"
         offset="0"
         id="stop3881-6" />
      <stop
         style="stop-color:#500000;stop-opacity:0;"
         offset="1"
         id="stop3883-1" />
    </linearGradient>
    <linearGradient
       inkscape:collect="always"
       xlink:href="#linearGradient3879"
       id="linearGradient3925"
       gradientUnits="userSpaceOnUse"
       x1="30.036037"
       y1="25.633339"
       x2="-28.092642"
       y2="-33.465763" />
    <linearGradient
       inkscape:collect="always"
       xlink:href="#linearGradient3879"
       id="linearGradient4245"
       gradientUnits="userSpaceOnUse"
       x1="30.036037"
       y1="25.633339"
       x2="-28.092642"
       y2="-33.465763" />
    <linearGradient
       inkscape:collect="always"
       xlink:href="#linearGradient4272"
       id="linearGradient4278"
       x1="167.47285"
       y1="78.150757"
       x2="123.95596"
       y2="31.265114"
       gradientUnits="userSpaceOnUse" />
    <linearGradient
       inkscape:collect="always"
       xlink:href="#linearGradient4272"
       id="linearGradient4284"
       gradientUnits="userSpaceOnUse"
       x1="167.47285"
       y1="78.150757"
       x2="123.95596"
       y2="31.265114" />
  </defs>
  <metadata
     id="metadata2413">
    <rdf:RDF>
      <cc:Work
         rdf:about="">
        <dc:format>image/svg+xml</dc:format>
        <dc:type
           rdf:resource="http://purl.org/dc/dcmitype/StillImage" />
        <dc:title />
      </cc:Work>
    </rdf:RDF>
  </metadata>
  <g
     id="layer2"
     style="display:none">
    <rect
       width="86"
       height="85"
       rx="6"
       ry="6"
       x="5"
       y="7"
       id="rect3745"
       style="opacity:0.9;fill:url(#ButtonShadow);fill-opacity:1;fill-rule:nonzero;stroke:none;filter:url(#filter3174)" />
  </g>
  <g
     id="layer3">
    <path
       d="m 12,-95.03125 c -5.5110903,0 -10.03125,4.52016 -10.03125,10.03125 l 0,71 c 0,5.5110902 4.5201598,10.03125 10.03125,10.03125 l 72,0 c 5.51109,0 10.03125,-4.5201597 10.03125,-10.03125 l 0,-71 c 0,-5.51109 -4.52016,-10.03125 -10.03125,-10.03125 l -72,0 z"
       transform="scale(1,-1)"
       id="path3786"
       style="opacity:0.07999998;fill:url(#linearGradient3026);fill-opacity:1;fill-rule:nonzero;stroke:none;display:inline" />
    <path
       d="m 12,-94.03125 c -4.971633,0 -9.03125,4.059617 -9.03125,9.03125 l 0,71 c 0,4.9716329 4.0596171,9.03125 9.03125,9.03125 l 72,0 c 4.971633,0 9.03125,-4.059617 9.03125,-9.03125 l 0,-71 c 0,-4.971633 -4.059617,-9.03125 -9.03125,-9.03125 l -72,0 z"
       transform="scale(1,-1)"
       id="path3778"
       style="opacity:0.1;fill:url(#linearGradient3780);fill-opacity:1;fill-rule:nonzero;stroke:none;display:inline" />
    <path
       d="m 12,-93 c -4.4091333,0 -8,3.590867 -8,8 l 0,71 c 0,4.4091333 3.5908667,8 8,8 l 72,0 c 4.409133,0 8,-3.5908667 8,-8 l 0,-71 c 0,-4.409133 -3.590867,-8 -8,-8 l -72,0 z"
       transform="scale(1,-1)"
       id="path3770"
       style="opacity:0.2;fill:url(#linearGradient3772);fill-opacity:1;fill-rule:nonzero;stroke:none;display:inline" />
    <rect
       width="86"
       height="85"
       rx="7"
       ry="7"
       x="5"
       y="-92"
       transform="scale(1,-1)"
       id="rect3723"
       style="opacity:0.3;fill:url(#linearGradient3725);fill-opacity:1;fill-rule:nonzero;stroke:none;display:inline" />
    <rect
       width="84"
       height="84"
       rx="6"
       ry="6"
       x="6"
       y="-91"
       transform="scale(1,-1)"
       id="rect3716"
       style="opacity:0.45;fill:url(#linearGradient3721);fill-opacity:1;fill-rule:nonzero;stroke:none;display:inline" />
  </g>
  <g
     id="layer5">
    <rect
       width="66"
       height="66"
       rx="12"
       ry="12"
       x="15"
       y="15"
       clip-path="url(#clipPath3613)"
       id="rect3171"
       style="opacity:0.1;fill:url(#linearGradient3613);fill-opacity:1;fill-rule:nonzero;stroke:#ffffff;stroke-width:0.5;stroke-linecap:round;stroke-linejoin:miter;stroke-miterlimit:4;stroke-opacity:1;stroke-dasharray:none;stroke-dashoffset:0;filter:url(#filter3794)" />
  </g>
  <rect
     style="fill:url(#linearGradient3078);fill-opacity:1;fill-rule:nonzero;stroke:none"
     id="rect2419"
     y="6"
     x="6"
     ry="6"
     rx="6"
     height="84"
     width="84" />
  <path
     style="opacity:0.5;fill:url(#linearGradient3075);fill-opacity:1;fill-rule:nonzero;stroke:none"
     id="rect3728"
     inkscape:connector-curvature="0"
     d="M 12,6 C 8.676,6 6,8.676 6,12 l 0,2 0,68 0,2 c 0,0.334721 0.04135,0.6507 0.09375,0.96875 0.0487,0.295596 0.09704,0.596915 0.1875,0.875 0.00988,0.03038 0.020892,0.0636 0.03125,0.09375 0.098865,0.287771 0.2348802,0.547452 0.375,0.8125 0.1445918,0.273507 0.3156161,0.535615 0.5,0.78125 0.1843839,0.245635 0.3737765,0.473472 0.59375,0.6875 0.439947,0.428056 0.94291,0.814526 1.5,1.09375 0.278545,0.139612 0.5734731,0.246947 0.875,0.34375 -0.2562018,-0.100222 -0.4867109,-0.236272 -0.71875,-0.375 -0.00741,-0.0044 -0.023866,0.0045 -0.03125,0 -0.031933,-0.0193 -0.062293,-0.04251 -0.09375,-0.0625 -0.120395,-0.0767 -0.2310226,-0.163513 -0.34375,-0.25 -0.1061728,-0.0808 -0.2132809,-0.161112 -0.3125,-0.25 C 8.4783201,88.557317 8.3087904,88.373362 8.15625,88.1875 8.0486711,88.057245 7.9378561,87.922215 7.84375,87.78125 7.818661,87.74287 7.805304,87.69538 7.78125,87.65625 7.716487,87.553218 7.6510225,87.451733 7.59375,87.34375 7.4927417,87.149044 7.3880752,86.928049 7.3125,86.71875 7.30454,86.69694 7.288911,86.6782 7.28125,86.65625 7.2494249,86.5643 7.2454455,86.469419 7.21875,86.375 7.1884177,86.268382 7.1483606,86.171969 7.125,86.0625 7.0521214,85.720988 7,85.364295 7,85 L 7,83 7,15 7,13 C 7,10.218152 9.2181517,8 12,8 l 2,0 68,0 2,0 c 2.781848,0 5,2.218152 5,5 l 0,2 0,68 0,2 c 0,0.364295 -0.05212,0.720988 -0.125,1.0625 -0.04415,0.206893 -0.08838,0.397658 -0.15625,0.59375 -0.0077,0.02195 -0.0233,0.04069 -0.03125,0.0625 -0.06274,0.173739 -0.138383,0.367449 -0.21875,0.53125 -0.04158,0.0828 -0.07904,0.169954 -0.125,0.25 -0.0546,0.09721 -0.126774,0.18835 -0.1875,0.28125 -0.09411,0.140965 -0.204921,0.275995 -0.3125,0.40625 -0.143174,0.17445 -0.303141,0.346998 -0.46875,0.5 -0.01117,0.0102 -0.01998,0.02115 -0.03125,0.03125 -0.138386,0.125556 -0.285091,0.234436 -0.4375,0.34375 -0.102571,0.07315 -0.204318,0.153364 -0.3125,0.21875 -0.0074,0.0045 -0.02384,-0.0044 -0.03125,0 -0.232039,0.138728 -0.462548,0.274778 -0.71875,0.375 0.301527,-0.0968 0.596455,-0.204138 0.875,-0.34375 0.55709,-0.279224 1.060053,-0.665694 1.5,-1.09375 0.219973,-0.214028 0.409366,-0.441865 0.59375,-0.6875 0.184384,-0.245635 0.355408,-0.507743 0.5,-0.78125 0.14012,-0.265048 0.276135,-0.524729 0.375,-0.8125 0.01041,-0.03078 0.02133,-0.06274 0.03125,-0.09375 0.09046,-0.278085 0.1388,-0.579404 0.1875,-0.875 C 89.95865,84.6507 90,84.334721 90,84 l 0,-2 0,-68 0,-2 C 90,8.676 87.324,6 84,6 L 12,6 z" />
  <path
     style="opacity:0.2;fill:url(#radialGradient3072);fill-opacity:1;fill-rule:nonzero;stroke:none"
     id="path3615"
     inkscape:connector-curvature="0"
     d="M 12,90 C 8.676,90 6,87.324 6,84 L 6,82 6,14 6,12 c 0,-0.334721 0.04135,-0.6507 0.09375,-0.96875 0.0487,-0.295596 0.09704,-0.596915 0.1875,-0.875 C 6.29113,10.12587 6.302142,10.09265 6.3125,10.0625 6.411365,9.774729 6.5473802,9.515048 6.6875,9.25 6.8320918,8.976493 7.0031161,8.714385 7.1875,8.46875 7.3718839,8.223115 7.5612765,7.995278 7.78125,7.78125 8.221197,7.353194 8.72416,6.966724 9.28125,6.6875 9.559795,6.547888 9.8547231,6.440553 10.15625,6.34375 9.9000482,6.443972 9.6695391,6.580022 9.4375,6.71875 c -0.00741,0.0044 -0.023866,-0.0045 -0.03125,0 -0.031933,0.0193 -0.062293,0.04251 -0.09375,0.0625 -0.120395,0.0767 -0.2310226,0.163513 -0.34375,0.25 -0.1061728,0.0808 -0.2132809,0.161112 -0.3125,0.25 C 8.4783201,7.442683 8.3087904,7.626638 8.15625,7.8125 8.0486711,7.942755 7.9378561,8.077785 7.84375,8.21875 7.818661,8.25713 7.805304,8.30462 7.78125,8.34375 7.716487,8.446782 7.6510225,8.548267 7.59375,8.65625 7.4927417,8.850956 7.3880752,9.071951 7.3125,9.28125 7.30454,9.30306 7.288911,9.3218 7.28125,9.34375 7.2494249,9.4357 7.2454455,9.530581 7.21875,9.625 7.1884177,9.731618 7.1483606,9.828031 7.125,9.9375 7.0521214,10.279012 7,10.635705 7,11 l 0,2 0,68 0,2 c 0,2.781848 2.2181517,5 5,5 l 2,0 68,0 2,0 c 2.781848,0 5,-2.218152 5,-5 l 0,-2 0,-68 0,-2 C 89,10.635705 88.94788,10.279012 88.875,9.9375 88.83085,9.730607 88.78662,9.539842 88.71875,9.34375 88.71105,9.3218 88.69545,9.30306 88.6875,9.28125 88.62476,9.107511 88.549117,8.913801 88.46875,8.75 88.42717,8.6672 88.38971,8.580046 88.34375,8.5 88.28915,8.40279 88.216976,8.31165 88.15625,8.21875 88.06214,8.077785 87.951329,7.942755 87.84375,7.8125 87.700576,7.63805 87.540609,7.465502 87.375,7.3125 87.36383,7.3023 87.35502,7.29135 87.34375,7.28125 87.205364,7.155694 87.058659,7.046814 86.90625,6.9375 86.803679,6.86435 86.701932,6.784136 86.59375,6.71875 c -0.0074,-0.0045 -0.02384,0.0044 -0.03125,0 -0.232039,-0.138728 -0.462548,-0.274778 -0.71875,-0.375 0.301527,0.0968 0.596455,0.204138 0.875,0.34375 0.55709,0.279224 1.060053,0.665694 1.5,1.09375 0.219973,0.214028 0.409366,0.441865 0.59375,0.6875 0.184384,0.245635 0.355408,0.507743 0.5,0.78125 0.14012,0.265048 0.276135,0.524729 0.375,0.8125 0.01041,0.03078 0.02133,0.06274 0.03125,0.09375 0.09046,0.278085 0.1388,0.579404 0.1875,0.875 C 89.95865,11.3493 90,11.665279 90,12 l 0,2 0,68 0,2 c 0,3.324 -2.676,6 -6,6 l -72,0 z" />
  <g
     id="g4280"
     transform="matrix(0.77599148,0,0,0.77599148,-65.835818,5.7986816)">
    <path
       inkscape:connector-curvature="0"
       id="path3463-5"
       d="m 117.84573,85.381764 c 0.14906,-0.06618 0.37655,-0.04899 0.50552,0.03826 0.12896,0.08723 0.35644,0.104453 0.50551,0.03826 0.14907,-0.06618 0.36773,-0.05492 0.48593,0.02503 0.11819,0.07995 0.33277,0.122603 0.47684,0.09479 0.14408,-0.02784 0.36451,0.01879 0.48988,0.1036 0.12535,0.08479 0.34989,0.100018 0.49895,0.03385 0.14907,-0.06618 0.36774,-0.05492 0.48594,0.02503 0.11819,0.07995 0.31987,0.130956 0.44817,0.113353 0.1283,-0.01757 0.32999,-0.04526 0.44821,-0.06139 0.11823,-0.0162 0.42395,-0.09975 0.67939,-0.185742 0.29866,-0.100528 0.5564,-0.09414 0.72204,0.01788 0.16346,0.110561 0.46567,0.120777 0.82699,0.02799 0.31317,-0.08044 0.6565,-0.08734 0.76297,-0.01537 0.20413,0.138069 0.26763,0.136646 1.35782,-0.0305 0.40577,-0.06223 0.79084,-0.03446 0.94224,0.06793 0.14082,0.09525 0.28163,0.135338 0.31292,0.08909 0.14719,-0.217631 1.07715,-0.363496 1.31062,-0.205581 0.13902,0.09403 0.37063,0.148209 0.5147,0.120397 0.14407,-0.02784 0.36452,0.01879 0.48988,0.103601 0.12536,0.0848 0.34989,0.100018 0.49895,0.03385 0.22204,-0.09859 0.38385,-0.04404 0.89517,0.301826 0.59574,0.402946 0.63213,0.410341 0.7997,0.162616 0.0992,-0.146725 0.30436,-0.254845 0.47189,-0.248736 0.21972,0.008 0.37266,-0.102011 0.59144,-0.425464 0.16835,-0.248896 0.40759,-0.457984 0.55703,-0.48683 0.17005,-0.03286 0.39944,-0.253848 0.65391,-0.630064 0.31565,-0.466679 0.44965,-0.577392 0.68831,-0.56869 0.16299,0.0061 0.36975,-0.09771 0.45946,-0.230342 0.23582,-0.348648 2.32596,-0.735141 2.68011,-0.495594 0.14642,0.09904 0.29649,0.135323 0.33347,0.08064 0.1431,-0.211568 0.96587,-0.264574 1.239,-0.07983 0.16991,0.11492 0.39087,0.143203 0.55375,0.0709 0.14907,-0.06618 0.36774,-0.05492 0.48593,0.02503 0.1182,0.07994 0.33277,0.122595 0.47684,0.09478 0.1987,-0.03834 0.51924,0.123463 1.32747,0.670138 1.10056,0.744406 1.26693,0.961649 1.01814,1.329474 -0.0705,0.104308 -0.0361,0.608954 0.0765,1.121435 0.11265,0.512474 0.14691,1.017378 0.0761,1.122006 -0.0708,0.104628 -0.10591,0.30811 -0.0781,0.45218 0.0278,0.14407 -0.0188,0.364516 -0.1036,0.489873 -0.0848,0.125365 -0.10002,0.349888 -0.0339,0.498956 0.0883,0.198788 0.044,0.383845 -0.16595,0.694275 -0.16051,0.237318 -0.26405,0.5383 -0.2357,0.685185 0.0374,0.193402 -0.11272,0.503352 -0.57351,1.184597 -0.46078,0.681236 -0.69261,0.935876 -0.88601,0.973219 -0.15644,0.0302 -0.39168,0.242369 -0.58405,0.526767 l -0.32209,0.47621 0.52828,0.35733 c 0.3307,0.22368 0.62627,0.33842 0.79023,0.30676 0.18426,-0.0355 0.48404,0.0996 1.01074,0.45591 0.63596,0.43015 0.78962,0.48833 1.01981,0.38612 0.24033,-0.1067 0.38384,-0.044 1.26721,0.55347 0.74659,0.50499 1.06179,0.66113 1.25811,0.62323 0.15398,-0.0298 0.4521,0.078 0.72327,0.26148 l 0.46133,0.31203 1.25133,-1.85001 c 1.17501,-1.73719 1.24398,-1.86654 1.13099,-2.121042 -0.0883,-0.198781 -0.044,-0.383846 0.16593,-0.694268 0.16053,-0.237318 0.26407,-0.538307 0.23572,-0.685184 -0.0279,-0.144071 0.0188,-0.364509 0.1036,-0.489873 0.0848,-0.125357 0.10001,-0.349888 0.0339,-0.498956 -0.0662,-0.149069 -0.049,-0.376551 0.0383,-0.505513 0.0872,-0.128971 0.10445,-0.356453 0.0383,-0.505521 -0.0695,-0.156501 -0.044,-0.383846 0.0602,-0.538011 0.0993,-0.146839 0.15783,-0.384857 0.13002,-0.528927 -0.0278,-0.144071 0.0188,-0.364516 0.1036,-0.489873 0.0848,-0.125365 0.10002,-0.349896 0.0339,-0.498964 -0.0662,-0.149061 -0.0558,-0.366364 0.023,-0.482882 0.15074,-0.222865 0.15347,-0.461354 0.0124,-1.084602 -0.0471,-0.208145 -0.0197,-0.475899 0.0608,-0.595026 0.0806,-0.119119 0.0924,-0.338545 0.0262,-0.487613 -0.0662,-0.149061 -0.0549,-0.367734 0.025,-0.485925 0.0799,-0.118199 0.1226,-0.332772 0.0948,-0.476842 -0.0278,-0.144071 0.015,-0.358902 0.0952,-0.477405 0.0802,-0.118503 0.10683,-0.334712 0.0593,-0.480463 -0.0823,-0.25238 -0.0733,-0.265875 0.19168,-0.283394 0.15298,-0.01012 0.34454,-0.116564 0.42571,-0.236558 0.21047,-0.311175 0.98129,-0.427183 1.3193,-0.198552 0.1699,0.11492 0.39087,0.143203 0.55375,0.0709 0.14907,-0.06618 0.37655,-0.04899 0.50551,0.03826 0.12897,0.08724 0.35645,0.10446 0.50552,0.03826 0.19878,-0.08826 0.38384,-0.04404 0.69427,0.165941 0.23732,0.160517 0.53831,0.264064 0.68518,0.235705 0.38383,-0.07409 3.43794,1.99167 3.51203,2.375493 0.0284,0.146877 0.23649,0.387702 0.47381,0.548219 0.31042,0.209971 0.42036,0.365269 0.41244,0.582626 -0.0139,0.381069 0.28251,0.581561 0.54876,0.371172 0.11387,-0.08999 0.25075,-0.134044 0.30419,-0.0979 0.0534,0.03613 0.17007,-0.04214 0.25921,-0.173882 0.20835,-0.308018 0.51603,-0.364554 0.82965,-0.152431 0.15304,0.103525 0.46716,0.1119 0.81787,0.02183 0.31318,-0.08044 0.66669,-0.08046 0.7856,-3e-5 0.11891,0.08043 0.33817,0.09209 0.48723,0.02586 0.19879,-0.08826 0.38385,-0.04404 0.69428,0.165948 0.23732,0.160517 0.53831,0.264057 0.68518,0.235698 0.14407,-0.02784 0.36452,0.01879 0.48988,0.103609 0.12536,0.08479 0.34989,0.100017 0.49895,0.03385 0.14908,-0.06618 0.36774,-0.05492 0.48593,0.02503 0.1182,0.07995 0.33278,0.122596 0.47685,0.09479 0.14406,-0.02784 0.38795,0.03469 0.54195,0.138829 0.1672,0.113095 0.38921,0.140914 0.55105,0.06907 0.14906,-0.06618 0.37655,-0.04899 0.50551,0.03826 0.12898,0.08724 0.35646,0.104461 0.50552,0.03826 0.14907,-0.06618 0.36773,-0.05492 0.48593,0.02503 0.11819,0.07994 0.33277,0.122596 0.47684,0.09478 0.14407,-0.02784 0.35022,0.0091 0.45812,0.08213 0.2535,0.171471 1.04639,0.01841 1.21787,-0.235104 0.0729,-0.107891 0.25055,-0.218924 0.39462,-0.246728 0.17006,-0.03286 0.39945,-0.253856 0.65392,-0.630064 0.31565,-0.466679 0.44964,-0.5774 0.68831,-0.56869 0.23532,0.0086 0.37265,-0.102011 0.66692,-0.537067 l 0.37058,-0.547885 -0.54789,-0.370578 c -0.43506,-0.294273 -0.60368,-0.345795 -0.8189,-0.250243 -0.24303,0.107906 -0.38385,0.04404 -1.36305,-0.618296 -0.97922,-0.662325 -1.09091,-0.769243 -1.08123,-1.034981 0.006,-0.162981 -0.0784,-0.356688 -0.18743,-0.430438 -0.22162,-0.149898 -0.48512,-1.210659 -0.35094,-1.412757 0.0471,-0.07181 0.21973,-0.125212 0.38272,-0.119263 0.22111,0.0081 0.37265,-0.102011 0.59693,-0.433596 0.23895,-0.353265 0.38987,-0.453854 0.73596,-0.490527 0.23946,-0.02533 0.60132,-0.0876 0.80416,-0.138297 0.20282,-0.05074 0.45605,-0.03317 0.56272,0.03902 0.18813,0.127251 0.45293,0.136776 0.9005,0.03241 0.22399,-0.05226 0.57618,-0.121294 1.55941,-0.305774 0.31499,-0.05911 0.74774,-0.142176 0.96166,-0.184601 0.21392,-0.04245 0.48954,-0.09637 0.61248,-0.119864 0.12294,-0.02351 0.39586,-0.07804 0.60647,-0.121196 0.21061,-0.04313 0.61388,-0.10904 0.89613,-0.146429 0.28227,-0.03735 0.57487,-0.159117 0.65023,-0.27053 0.0754,-0.111421 0.25489,-0.22533 0.39896,-0.253141 0.14408,-0.02784 0.31858,-0.134303 0.38781,-0.236641 0.0692,-0.102346 0.28239,-0.219251 0.47371,-0.25979 1.19761,-0.253802 1.64043,-0.396686 1.7552,-0.566362 0.0714,-0.105578 0.24771,-0.214717 0.39178,-0.242529 0.14407,-0.02784 0.32735,-0.147265 0.4073,-0.265464 0.0799,-0.118191 0.27871,-0.210031 0.4417,-0.20409 0.24054,0.0087 0.37266,-0.102011 0.70156,-0.588271 0.3289,-0.486267 0.46102,-0.597049 0.70156,-0.588278 0.24448,0.0089 0.37265,-0.102011 0.73235,-0.633799 0.29362,-0.43409 0.52155,-0.661123 0.69795,-0.695172 0.15643,-0.0302 0.39169,-0.242377 0.58405,-0.526775 0.31258,-0.462138 0.31262,-0.482624 0.002,-0.692617 -0.17598,-0.119028 -0.43784,-0.193669 -0.5819,-0.165857 -0.17144,0.03309 -0.46668,-0.08791 -0.85447,-0.3502 -0.4797,-0.324472 -0.64412,-0.377866 -0.86355,-0.280442 -0.19879,0.08826 -0.38385,0.04404 -0.69427,-0.165941 -0.23732,-0.160517 -0.53831,-0.264065 -0.6852,-0.235705 -0.19356,0.03735 -0.50376,-0.113004 -1.18836,-0.576054 -0.85941,-0.581302 -0.93071,-0.65735 -0.98591,-1.05161 -0.0327,-0.233743 -0.0969,-0.596943 -0.14267,-0.807103 -0.0457,-0.210169 -0.01,-0.490855 0.0803,-0.623758 0.13752,-0.203314 0.10959,-0.278069 -0.1761,-0.471304 -0.22672,-0.153344 -0.42959,-0.189667 -0.61056,-0.109314 -0.14907,0.06618 -0.36774,0.05492 -0.48594,-0.02503 -0.11819,-0.07994 -0.33277,-0.122603 -0.47685,-0.09479 -0.33779,0.06519 -0.94672,-0.346654 -1.01194,-0.684462 -0.0278,-0.14407 -0.13095,-0.316317 -0.22922,-0.382788 -0.0983,-0.06649 -0.23245,-0.379274 -0.29819,-0.695135 -0.0942,-0.452606 -0.0627,-0.658796 0.14861,-0.97312 0.14706,-0.219654 0.2454,-0.516703 0.21759,-0.660774 -0.0278,-0.14407 0.0188,-0.364516 0.1036,-0.489873 0.0848,-0.125364 0.10002,-0.349895 0.0339,-0.498956 -0.11468,-0.25826 -0.044,-0.383853 1.49904,-2.665185 1.54307,-2.28134 1.63331,-2.393666 1.91572,-2.383351 0.24448,0.0089 0.37265,-0.102003 0.73235,-0.633799 0.29361,-0.43409 0.52156,-0.661123 0.69795,-0.695172 0.14407,-0.02784 0.35933,-0.194551 0.47836,-0.370518 l 0.21641,-0.319954 -0.61759,-0.417728 c -0.41006,-0.277361 -0.63456,-0.505741 -0.66814,-0.679669 -0.0278,-0.144071 -0.13096,-0.316318 -0.22922,-0.382788 -0.23948,-0.161978 -0.45018,-1.220845 -0.2905,-1.45992 0.0695,-0.105054 0.10448,-0.308361 0.0767,-0.452431 -0.0278,-0.144071 0.0188,-0.364509 0.1036,-0.489873 0.0848,-0.125357 0.10001,-0.349888 0.0339,-0.498956 -0.0966,-0.217494 -0.044,-0.383846 0.266,-0.842195 0.31002,-0.458357 0.44487,-0.569047 0.68268,-0.560368 0.19788,0.0068 0.37265,-0.102011 0.52601,-0.328732 l 0.22965,-0.339534 -0.67779,-0.458456 c -0.60602,-0.409907 -0.68268,-0.504562 -0.72392,-0.893832 -0.0254,-0.239455 -0.0876,-0.601324 -0.13831,-0.804151 -0.0507,-0.202828 -0.0332,-0.45606 0.039,-0.562734 0.1391,-0.205657 0.13917,-0.453108 3.8e-4,-1.066703 -0.0471,-0.208137 -0.0197,-0.475898 0.0609,-0.595018 0.0806,-0.119119 0.0923,-0.338545 0.0262,-0.487613 -0.0883,-0.198788 -0.044,-0.383846 0.16593,-0.694268 0.16053,-0.237325 0.26407,-0.538307 0.23572,-0.685185 -0.0362,-0.187415 0.10357,-0.489827 0.49113,-1.062815 0.46538,-0.688045 0.52473,-0.839045 0.42135,-1.07189 -0.068,-0.153222 -0.044,-0.383854 0.0552,-0.530579 0.10907,-0.161255 0.11638,-0.299559 0.0193,-0.365231 -0.0971,-0.06565 -0.22273,-0.0076 -0.33181,0.153853 -0.0992,0.146726 -0.30437,0.254845 -0.4719,0.248737 -0.17969,-0.0068 -0.37266,0.10201 -0.49018,0.275764 -0.11752,0.173753 -0.3105,0.282314 -0.49017,0.275764 -0.20933,-0.0076 -0.37266,0.102011 -0.55621,0.37337 -0.14292,0.211302 -0.37773,0.406941 -0.5218,0.434753 -0.14407,0.02784 -0.32736,0.147273 -0.4073,0.265464 -0.0799,0.118199 -0.27872,0.210039 -0.4417,0.20409 -0.17809,-0.0068 -0.37266,0.102011 -0.48758,0.271915 -0.18474,0.273132 -0.96813,0.530168 -1.17969,0.387071 -0.0547,-0.03697 -0.17298,0.04146 -0.26287,0.174392 -0.0899,0.132896 -0.33585,0.269253 -0.54657,0.303005 -0.61999,0.09931 -0.85077,0.1916 -0.98855,0.395287 -0.16843,0.249025 -0.49624,0.308444 -0.75098,0.136136 -0.11113,-0.07516 -0.32132,-0.09777 -0.46707,-0.05021 -0.25238,0.08235 -0.26587,0.07318 -0.2834,-0.191684 -0.0106,-0.159931 -0.15739,-0.372161 -0.34546,-0.499366 -0.27913,-0.188793 -0.35279,-0.183179 -0.50262,0.03834 -0.0992,0.146726 -0.30437,0.254838 -0.47189,0.248737 -0.17095,-0.0061 -0.37266,0.102003 -0.47669,0.255811 -0.21299,0.314902 -0.52319,0.399105 -0.7944,0.21566 -0.10722,-0.0725 -0.31282,-0.109108 -0.45689,-0.0813 -0.14407,0.02784 -0.36451,-0.01879 -0.48987,-0.1036 -0.12536,-0.08479 -0.3499,-0.100018 -0.49895,-0.03385 -0.22901,0.101669 -0.38386,0.04404 -0.99847,-0.371689 -0.61461,-0.41572 -0.72575,-0.537988 -0.71662,-0.788368 0.006,-0.162989 -0.0917,-0.365717 -0.21711,-0.450513 -0.12537,-0.08479 -0.25069,-0.272045 -0.2785,-0.416115 -0.0279,-0.144071 -0.13829,-0.321278 -0.24551,-0.393803 -0.26634,-0.180144 -0.30948,-0.501254 -0.10748,-0.799908 0.0926,-0.136919 0.12242,-0.408264 0.0663,-0.603005 -0.20312,-0.704187 -0.285,-0.644875 -1.41416,1.024536 -0.97999,1.448852 -1.07771,1.560889 -1.35265,1.550863 -0.26782,-0.0098 -0.37265,0.102003 -1.08909,1.161205 -0.71643,1.05921 -0.82126,1.170981 -1.08908,1.161213 -0.2546,-0.0093 -0.37266,0.102011 -0.83804,0.790056 -0.37681,0.557097 -0.61802,0.8156 -0.79245,0.849269 -0.13791,0.02663 -0.40129,0.239258 -0.58529,0.472514 -0.44067,0.558611 -0.81684,0.566674 -0.93281,0.02001 -0.045,-0.212344 -0.16078,-0.749259 -0.2572,-1.19314 -0.10919,-0.502706 -0.11457,-0.896852 -0.0142,-1.045167 0.0886,-0.130956 0.1069,-0.360073 0.0407,-0.509134 -0.0662,-0.149068 -0.0549,-0.367741 0.025,-0.485933 0.0799,-0.118191 0.1226,-0.332771 0.0948,-0.476842 -0.0288,-0.149448 0.0762,-0.449312 0.24452,-0.698215 0.21878,-0.323453 0.26396,-0.506358 0.17475,-0.707299 -0.0897,-0.201983 -0.044,-0.383845 0.17919,-0.713856 0.22321,-0.33001 0.26886,-0.511872 0.17918,-0.713855 -0.0838,-0.188648 -0.044,-0.383846 0.13071,-0.642182 0.13808,-0.204136 0.2283,-0.489037 0.20048,-0.633099 -0.0288,-0.149449 0.0762,-0.44932 0.24452,-0.698216 0.21878,-0.323453 0.26397,-0.506358 0.17476,-0.707299 -0.0883,-0.198788 -0.044,-0.383845 0.16593,-0.694267 0.16052,-0.237318 0.26406,-0.538307 0.2357,-0.685185 -0.0288,-0.149448 0.0762,-0.449319 0.24453,-0.698215 0.21878,-0.323453 0.26397,-0.506358 0.17475,-0.707299 -0.0662,-0.149068 -0.0549,-0.367734 0.025,-0.485932 0.08,-0.118192 0.12261,-0.332772 0.0948,-0.476843 -0.0278,-0.14407 0.0188,-0.364508 0.10361,-0.489873 0.0848,-0.125357 0.10001,-0.349887 0.0339,-0.498955 -0.0662,-0.149069 -0.06,-0.360363 0.0139,-0.469547 0.0739,-0.109185 0.0845,-0.478432 0.0236,-0.820561 -0.0609,-0.34212 -0.0396,-0.727099 0.0472,-0.855514 0.0869,-0.128408 0.10377,-0.355433 0.0376,-0.504502 -0.068,-0.153222 -0.044,-0.383845 0.0552,-0.530571 0.0965,-0.142754 0.13183,-0.289114 0.0784,-0.325255 -0.0534,-0.03613 -0.0635,-0.179596 -0.0224,-0.318783 0.0514,-0.173974 -0.0167,-0.314948 -0.21794,-0.451069 -0.16101,-0.108903 -0.30354,-0.30779 -0.31673,-0.441971 -0.0371,-0.377829 -0.2892,-0.470315 -0.48655,-0.178553 -0.0992,0.146725 -0.30437,0.254844 -0.4719,0.248736 -0.20932,-0.0076 -0.37265,0.102011 -0.5562,0.37337 -0.14292,0.211302 -0.37773,0.406941 -0.5218,0.434752 -0.14407,0.02784 -0.34321,0.170711 -0.44253,0.31755 -0.10428,0.154173 -0.30581,0.262422 -0.47693,0.256176 -0.16299,-0.0061 -0.36339,0.08831 -0.44533,0.209454 -0.17887,0.264452 -1.10032,0.379973 -1.40219,0.175792 -0.1184,-0.0801 -0.33725,-0.09147 -0.48631,-0.02526 -0.14907,0.06618 -0.37655,0.04899 -0.50552,-0.03826 -0.12897,-0.08723 -0.35645,-0.104445 -0.50552,-0.03826 -0.19878,0.08826 -0.38384,0.04405 -0.69426,-0.165941 -0.23732,-0.160517 -0.53831,-0.264057 -0.68519,-0.235705 -0.33281,0.06428 -0.53102,-0.06983 -0.59526,-0.402628 -0.0278,-0.14407 -0.1383,-0.321285 -0.24552,-0.393803 -0.26633,-0.180151 -0.30948,-0.501253 -0.10747,-0.799907 0.1658,-0.245138 0.0739,-0.877978 -0.15099,-1.039979 -0.0633,-0.04557 -0.22104,-0.05203 -0.35049,-0.01438 -0.1551,0.04519 -0.42387,-0.05895 -0.78811,-0.305325 -0.35243,-0.238376 -0.57106,-0.468794 -0.60331,-0.635808 -0.0278,-0.14407 -0.14727,-0.327355 -0.26547,-0.407305 -0.11819,-0.07994 -0.21003,-0.278709 -0.20409,-0.441698 0.006,-0.162989 -0.0917,-0.365726 -0.21712,-0.450514 -0.12535,-0.0848 -0.25067,-0.272044 -0.27848,-0.416115 -0.0284,-0.146877 -0.23649,-0.387695 -0.47381,-0.548219 -0.31042,-0.209963 -0.42036,-0.365262 -0.41243,-0.582619 0.006,-0.162989 -0.0947,-0.367718 -0.22368,-0.454948 -0.12897,-0.08723 -0.22962,-0.29196 -0.22368,-0.454949 0.006,-0.16299 -0.0918,-0.365726 -0.21712,-0.450514 -0.12536,-0.0848 -0.25068,-0.272045 -0.27849,-0.416115 -0.0278,-0.144071 -0.14727,-0.327355 -0.26547,-0.407298 -0.11819,-0.07994 -0.21003,-0.278708 -0.20408,-0.441705 0.006,-0.162989 -0.0918,-0.365718 -0.21713,-0.450514 -0.12536,-0.08479 -0.25068,-0.272037 -0.27849,-0.416107 -0.0278,-0.144071 -0.16248,-0.337648 -0.29926,-0.430165 -0.1533,-0.103685 -0.27793,-0.391833 -0.32489,-0.751146 -0.0419,-0.320608 -0.17354,-0.648777 -0.29253,-0.72926 -0.11899,-0.08048 -0.21148,-0.27969 -0.20553,-0.442679 0.006,-0.162989 -0.0947,-0.367718 -0.22368,-0.454949 -0.12897,-0.08723 -0.22963,-0.291959 -0.22368,-0.454949 0.006,-0.176948 -0.10201,-0.372655 -0.26921,-0.48575 -0.154,-0.104163 -0.30277,-0.307265 -0.33057,-0.451335 -0.0278,-0.144071 -0.14727,-0.327356 -0.26547,-0.407306 -0.11819,-0.07994 -0.21003,-0.278708 -0.20409,-0.441697 0.006,-0.16299 -0.0918,-0.365726 -0.21711,-0.450514 -0.12537,-0.0848 -0.25069,-0.272045 -0.2785,-0.416115 -0.0284,-0.146878 -0.23649,-0.387695 -0.47381,-0.548219 -0.31042,-0.209963 -0.42036,-0.365269 -0.41243,-0.582619 0.008,-0.220849 -0.10201,-0.372655 -0.43201,-0.595869 -0.33001,-0.223214 -0.44008,-0.375021 -0.43202,-0.59587 0.006,-0.162989 -0.0482,-0.336278 -0.12039,-0.385085 -0.19429,-0.131405 -0.8595,0.897232 -0.7953,1.229789 0.0288,0.149441 -0.0762,0.449312 -0.24452,0.698216 -0.21877,0.323453 -0.26397,0.50635 -0.17475,0.707298 0.0977,0.219989 0.044,0.383846 -0.28487,0.870113 -0.32891,0.48626 -0.38255,0.650116 -0.28488,0.870113 0.1067,0.24033 0.044,0.383845 -0.55347,1.267202 -0.50499,0.746597 -0.66113,1.061804 -0.62323,1.258127 0.0376,0.194825 -0.11532,0.507187 -0.59682,1.219065 -0.57108,0.844302 -0.6332,0.989065 -0.52705,1.228147 0.0988,0.222622 0.044,0.383846 -0.30686,0.902611 -0.28578,0.422512 -0.41046,0.71829 -0.37663,0.893527 0.0376,0.194825 -0.11531,0.507187 -0.59681,1.219065 -0.57108,0.844302 -0.63321,0.989064 -0.52705,1.228147 0.11364,0.255971 0.044,0.383853 -1.25244,2.300594 -1.29646,1.91674 -1.38923,2.028952 -1.66911,2.018751 -0.17095,-0.0061 -0.37266,0.102003 -0.47668,0.255811 -0.27192,0.402003 -0.53897,0.38844 -1.20364,-0.06116 l -0.60419,-0.40866 -0.65666,0.97083 c -0.5892,0.871102 -0.69628,0.977518 -1.04227,1.035879 -0.21209,0.03575 -0.58408,0.105936 -0.82665,0.155922 -1.10266,0.227209 -1.12765,0.224881 -1.69343,-0.157809 -0.35059,-0.237135 -0.64584,-0.354094 -0.81261,-0.321901 -0.17393,0.03355 -0.46947,-0.08979 -0.87953,-0.367155 -0.52152,-0.352756 -0.637,-0.389034 -0.74237,-0.233241 -0.11918,0.176195 -0.0991,0.381609 0.13868,1.422387 0.058,0.253772 0.0465,0.548516 -0.0255,0.654977 -0.17109,0.252943 0.35458,2.980476 0.60738,3.15146 0.10708,0.07242 0.226,0.331288 0.26427,0.575224 0.18109,1.154656 0.42038,2.013465 0.59365,2.130659 0.14054,0.09507 0.33036,0.833439 0.64936,2.526007 0.48927,2.595922 0.56599,3.14186 0.46294,3.294214 -0.1172,0.173274 -0.12377,0.445121 -0.0214,0.884201 0.20287,0.869984 0.2301,1.05193 0.17062,1.139875 -0.037,0.05469 0.0502,0.178881 0.19376,0.275977 0.3044,0.205901 0.78129,2.232594 0.54981,2.336659 -0.0876,0.03941 -0.62121,-0.259356 -1.37928,-0.772103 -0.96018,-0.649454 -1.24776,-0.894851 -1.28703,-1.098272 -0.0379,-0.196316 -0.30014,-0.430758 -1.04674,-0.935747 -0.88336,-0.59749 -0.99495,-0.707359 -0.98537,-0.970146 0.006,-0.162989 -0.0867,-0.362271 -0.20578,-0.442838 -0.11912,-0.08057 -0.24017,-0.316181 -0.26901,-0.523572 -0.0288,-0.207392 -0.1069,-0.514581 -0.17348,-0.682644 -0.0666,-0.168064 -0.0912,-0.406736 -0.0546,-0.530381 0.0488,-0.165195 -0.0422,-0.298304 -0.34322,-0.501907 -0.36431,-0.246416 -0.4286,-0.249087 -0.58077,-0.02412 -0.0941,0.139141 -0.289,0.275742 -0.43307,0.303553 -0.18665,0.03606 -0.41509,0.276997 -0.79482,0.838399 -0.45658,0.675022 -0.57533,0.78629 -0.82924,0.777032 -0.16299,-0.0061 -0.36571,0.09176 -0.45051,0.217114 -0.0848,0.125365 -0.27204,0.250684 -0.41611,0.278495 -0.14407,0.02784 -0.33399,0.157094 -0.42206,0.287289 -0.21311,0.315062 -2.31567,0.691461 -2.63939,0.472499 -0.12833,-0.0868 -0.35529,-0.103662 -0.50436,-0.0375 -0.22581,0.100261 -0.38384,0.04405 -0.94725,-0.337055 -0.59404,-0.401798 -0.69244,-0.433421 -0.80961,-0.260192 -0.0733,0.108454 -0.0762,0.279096 -0.006,0.379205 0.11738,0.168056 0.10483,0.187005 -0.16366,0.247154 -0.15994,0.03583 -0.49839,0.112615 -0.75213,0.170634 l -0.46133,0.105495 -1.86289,-1.260044 c -1.51701,-1.02608 -1.87227,-1.308668 -1.91345,-1.521978 -0.0278,-0.144071 -0.14727,-0.327356 -0.26547,-0.407298 -0.11819,-0.07995 -0.21003,-0.278716 -0.20409,-0.441705 0.006,-0.16299 -0.0894,-0.364106 -0.21181,-0.446916 -0.12243,-0.08282 -0.23341,-0.26036 -0.2466,-0.394541 -0.0132,-0.134189 -0.11201,-0.303508 -0.21958,-0.376269 -0.29452,-0.199207 -0.91727,0.744451 -0.74594,1.130328 0.0897,0.201983 0.044,0.383853 -0.1792,0.713856 -0.22321,0.33001 -0.26886,0.51188 -0.17918,0.713863 0.0662,0.149061 0.0549,0.367734 -0.025,0.485925 -0.0799,0.118199 -0.12261,0.332772 -0.0948,0.476842 0.0278,0.144071 -0.0188,0.364516 -0.10359,0.489873 -0.0848,0.125365 -0.10002,0.349895 -0.0339,0.498964 0.0681,0.153282 0.044,0.383845 -0.0553,0.530715 -0.11794,0.174377 -0.11759,0.510899 7.6e-4,1.024301 0.19207,0.830875 0.20129,0.878511 0.5651,2.920486 0.16976,0.952764 0.32307,1.437799 0.49019,1.55084 0.14952,0.101128 0.25387,0.352907 0.27095,0.653744 0.0153,0.269093 0.0521,0.584391 0.0819,0.700658 0.18164,0.709573 0.23345,1.046985 0.1742,1.134573 -0.037,0.0547 0.064,0.188214 0.22442,0.296722 0.338,0.228615 0.42852,0.533712 0.24073,0.811348 -0.0725,0.107221 -0.10911,0.312826 -0.0813,0.456896 0.0716,0.370685 -1.01838,1.982085 -1.38906,2.053645 -0.14407,0.02784 -0.33714,0.161726 -0.42904,0.297596 -0.2149,0.317717 -0.51927,0.373211 -0.84363,0.153815 -0.31219,-0.211157 -0.82405,-0.157413 -1.00166,0.105168 -0.12165,0.179862 -0.007,0.275529 1.78972,1.490668 1.56751,1.060244 1.92899,1.346521 1.97028,1.560409 0.0284,0.146878 0.23649,0.387703 0.47381,0.54822 0.31042,0.20997 0.42035,0.365269 0.41243,0.582626 -0.008,0.220849 0.102,0.372655 0.43201,0.595862 0.33001,0.223215 0.44008,0.375022 0.43202,0.59587 -0.008,0.219715 0.10201,0.372656 0.42547,0.591435 0.24889,0.168353 0.45798,0.407588 0.48683,0.557029 0.0278,0.14407 0.20461,0.366143 0.39289,0.493494 0.19878,0.134455 0.37322,0.377448 0.41599,0.579492 0.0405,0.191363 0.1892,0.858945 0.33041,1.483501 l 0.25676,1.13557 -0.45805,0.67722 c -0.26233,0.387824 -0.54762,0.694496 -0.66763,0.717667 -0.11864,0.0229 -0.49428,-0.152142 -0.86583,-0.403441 l -0.65627,-0.443896 -0.26489,0.39162 c -0.18858,0.278807 -0.23022,0.469699 -0.14456,0.662652 0.0662,0.149069 0.049,0.376551 -0.0383,0.505521 -0.0872,0.128963 -0.10445,0.356445 -0.0383,0.505513 0.0662,0.149068 0.0733,0.340554 0.0158,0.425517 -0.0574,0.08497 -0.23785,0.149631 -0.40084,0.143683 -0.16299,-0.0061 -0.36771,0.09472 -0.45495,0.223678 -0.0872,0.128971 -0.29195,0.22962 -0.45495,0.223679 -0.16299,-0.0061 -0.36572,0.09176 -0.45051,0.217121 -0.0848,0.125357 -0.27204,0.250684 -0.41611,0.278495 -0.14407,0.02784 -0.33401,0.157086 -0.42207,0.287289 -0.10661,0.157619 -0.54424,0.298327 -1.30965,0.421082 -0.63226,0.101403 -1.30721,0.21188 -1.4999,0.245511 -0.19269,0.03362 -0.43876,0.0015 -0.54683,-0.07174 -0.25937,-0.175434 -0.77755,-0.09479 -0.94069,0.146399 -0.18922,0.27975 0.45159,0.6948 0.8201,0.531179 0.19879,-0.08826 0.38386,-0.04404 0.69428,0.165941 0.23732,0.160517 0.5383,0.264064 0.68518,0.235705 0.14407,-0.02784 0.43483,0.06641 0.64613,0.209294 0.27136,0.183551 0.46377,0.224515 0.65521,0.139521 0.19878,-0.08826 0.38385,-0.04404 0.69427,0.165941 0.23732,0.160517 0.53831,0.264057 0.68519,0.235705 0.14944,-0.02883 0.44931,0.07617 0.69821,0.244522 0.32345,0.21878 0.50635,0.263966 0.7073,0.17475 0.19878,-0.08826 0.38384,-0.04404 0.69427,0.165941 0.23731,0.160517 0.5383,0.264056 0.68518,0.235705 0.18741,-0.03621 0.48982,0.10357 1.06281,0.491128 0.68805,0.465386 0.83904,0.524744 1.07189,0.421364 0.24494,-0.108751 0.38385,-0.04404 1.44305,0.672405 1.0592,0.716427 1.19811,0.781155 1.44305,0.672397 0.22899,-0.101669 0.38385,-0.04404 0.99846,0.371689 0.61461,0.415719 0.72575,0.537988 0.71661,0.788367 -0.006,0.162997 0.0865,0.362158 0.2054,0.442588 0.11891,0.08043 0.25048,0.408553 0.29238,0.729161 0.0469,0.359046 0.17162,0.647476 0.32466,0.750994 0.35363,0.239189 0.37008,0.527025 0.0566,0.990472 -0.15003,0.221807 -0.25003,0.521168 -0.22222,0.665231 0.0278,0.14407 -0.0558,0.419317 -0.18598,0.611662 -0.13009,0.192345 -0.35441,0.372473 -0.49848,0.400285 -0.14407,0.02784 -0.32736,0.147265 -0.4073,0.265464 -0.0799,0.118191 -0.27871,0.210031 -0.4417,0.20409 -0.16299,-0.0061 -0.36772,0.09471 -0.45495,0.223679 -0.0872,0.128962 -0.29196,0.229619 -0.45495,0.223671 -0.16299,-0.0061 -0.35213,0.07166 -0.42032,0.172482 -0.18699,0.276464 0.56439,0.755193 0.93031,0.592721 z"
       style="fill:#e11e1e;fill-opacity:1" />
    <path
       inkscape:connector-curvature="0"
       id="path3463"
       d="m 117.84573,85.381764 c 0.14906,-0.06618 0.37655,-0.04899 0.50552,0.03826 0.12896,0.08723 0.35644,0.104453 0.50551,0.03826 0.14907,-0.06618 0.36773,-0.05492 0.48593,0.02503 0.11819,0.07995 0.33277,0.122603 0.47684,0.09479 0.14408,-0.02784 0.36451,0.01879 0.48988,0.1036 0.12535,0.08479 0.34989,0.100018 0.49895,0.03385 0.14907,-0.06618 0.36774,-0.05492 0.48594,0.02503 0.11819,0.07995 0.31987,0.130956 0.44817,0.113353 0.1283,-0.01757 0.32999,-0.04526 0.44821,-0.06139 0.11823,-0.0162 0.42395,-0.09975 0.67939,-0.185742 0.29866,-0.100528 0.5564,-0.09414 0.72204,0.01788 0.16346,0.110561 0.46567,0.120777 0.82699,0.02799 0.31317,-0.08044 0.6565,-0.08734 0.76297,-0.01537 0.20413,0.138069 0.26763,0.136646 1.35782,-0.0305 0.40577,-0.06223 0.79084,-0.03446 0.94224,0.06793 0.14082,0.09525 0.28163,0.135338 0.31292,0.08909 0.14719,-0.217631 1.07715,-0.363496 1.31062,-0.205581 0.13902,0.09403 0.37063,0.148209 0.5147,0.120397 0.14407,-0.02784 0.36452,0.01879 0.48988,0.103601 0.12536,0.0848 0.34989,0.100018 0.49895,0.03385 0.22204,-0.09859 0.38385,-0.04404 0.89517,0.301826 0.59574,0.402946 0.63213,0.410341 0.7997,0.162616 0.0992,-0.146725 0.30436,-0.254845 0.47189,-0.248736 0.21972,0.008 0.37266,-0.102011 0.59144,-0.425464 0.16835,-0.248896 0.40759,-0.457984 0.55703,-0.48683 0.17005,-0.03286 0.39944,-0.253848 0.65391,-0.630064 0.31565,-0.466679 0.44965,-0.577392 0.68831,-0.56869 0.16299,0.0061 0.36975,-0.09771 0.45946,-0.230342 0.23582,-0.348648 2.32596,-0.735141 2.68011,-0.495594 0.14642,0.09904 0.29649,0.135323 0.33347,0.08064 0.1431,-0.211568 0.96587,-0.264574 1.239,-0.07983 0.16991,0.11492 0.39087,0.143203 0.55375,0.0709 0.14907,-0.06618 0.36774,-0.05492 0.48593,0.02503 0.1182,0.07994 0.33277,0.122595 0.47684,0.09478 0.1987,-0.03834 0.51924,0.123463 1.32747,0.670138 1.10056,0.744406 1.26693,0.961649 1.01814,1.329474 -0.0705,0.104308 -0.0361,0.608954 0.0765,1.121435 0.11265,0.512474 0.14691,1.017378 0.0761,1.122006 -0.0708,0.104628 -0.10591,0.30811 -0.0781,0.45218 0.0278,0.14407 -0.0188,0.364516 -0.1036,0.489873 -0.0848,0.125365 -0.10002,0.349888 -0.0339,0.498956 0.0883,0.198788 0.044,0.383845 -0.16595,0.694275 -0.16051,0.237318 -0.26405,0.5383 -0.2357,0.685185 0.0374,0.193402 -0.11272,0.503352 -0.57351,1.184597 -0.46078,0.681236 -0.69261,0.935876 -0.88601,0.973219 -0.15644,0.0302 -0.39168,0.242369 -0.58405,0.526767 l -0.32209,0.47621 0.52828,0.35733 c 0.3307,0.22368 0.62627,0.33842 0.79023,0.30676 0.18426,-0.0355 0.48404,0.0996 1.01074,0.45591 0.63596,0.43015 0.78962,0.48833 1.01981,0.38612 0.24033,-0.1067 0.38384,-0.044 1.26721,0.55347 0.74659,0.50499 1.06179,0.66113 1.25811,0.62323 0.15398,-0.0298 0.4521,0.078 0.72327,0.26148 l 0.46133,0.31203 1.25133,-1.85001 c 1.17501,-1.73719 1.24398,-1.86654 1.13099,-2.121042 -0.0883,-0.198781 -0.044,-0.383846 0.16593,-0.694268 0.16053,-0.237318 0.26407,-0.538307 0.23572,-0.685184 -0.0279,-0.144071 0.0188,-0.364509 0.1036,-0.489873 0.0848,-0.125357 0.10001,-0.349888 0.0339,-0.498956 -0.0662,-0.149069 -0.049,-0.376551 0.0383,-0.505513 0.0872,-0.128971 0.10445,-0.356453 0.0383,-0.505521 -0.0695,-0.156501 -0.044,-0.383846 0.0602,-0.538011 0.0993,-0.146839 0.15783,-0.384857 0.13002,-0.528927 -0.0278,-0.144071 0.0188,-0.364516 0.1036,-0.489873 0.0848,-0.125365 0.10002,-0.349896 0.0339,-0.498964 -0.0662,-0.149061 -0.0558,-0.366364 0.023,-0.482882 0.15074,-0.222865 0.15347,-0.461354 0.0124,-1.084602 -0.0471,-0.208145 -0.0197,-0.475899 0.0608,-0.595026 0.0806,-0.119119 0.0924,-0.338545 0.0262,-0.487613 -0.0662,-0.149061 -0.0549,-0.367734 0.025,-0.485925 0.0799,-0.118199 0.1226,-0.332772 0.0948,-0.476842 -0.0278,-0.144071 0.015,-0.358902 0.0952,-0.477405 0.0802,-0.118503 0.10683,-0.334712 0.0593,-0.480463 -0.0823,-0.25238 -0.0733,-0.265875 0.19168,-0.283394 0.15298,-0.01012 0.34454,-0.116564 0.42571,-0.236558 0.21047,-0.311175 0.98129,-0.427183 1.3193,-0.198552 0.1699,0.11492 0.39087,0.143203 0.55375,0.0709 0.14907,-0.06618 0.37655,-0.04899 0.50551,0.03826 0.12897,0.08724 0.35645,0.10446 0.50552,0.03826 0.19878,-0.08826 0.38384,-0.04404 0.69427,0.165941 0.23732,0.160517 0.53831,0.264064 0.68518,0.235705 0.38383,-0.07409 3.43794,1.99167 3.51203,2.375493 0.0284,0.146877 0.23649,0.387702 0.47381,0.548219 0.31042,0.209971 0.42036,0.365269 0.41244,0.582626 -0.0139,0.381069 0.28251,0.581561 0.54876,0.371172 0.11387,-0.08999 0.25075,-0.134044 0.30419,-0.0979 0.0534,0.03613 0.17007,-0.04214 0.25921,-0.173882 0.20835,-0.308018 0.51603,-0.364554 0.82965,-0.152431 0.15304,0.103525 0.46716,0.1119 0.81787,0.02183 0.31318,-0.08044 0.66669,-0.08046 0.7856,-3e-5 0.11891,0.08043 0.33817,0.09209 0.48723,0.02586 0.19879,-0.08826 0.38385,-0.04404 0.69428,0.165948 0.23732,0.160517 0.53831,0.264057 0.68518,0.235698 0.14407,-0.02784 0.36452,0.01879 0.48988,0.103609 0.12536,0.08479 0.34989,0.100017 0.49895,0.03385 0.14908,-0.06618 0.36774,-0.05492 0.48593,0.02503 0.1182,0.07995 0.33278,0.122596 0.47685,0.09479 0.14406,-0.02784 0.38795,0.03469 0.54195,0.138829 0.1672,0.113095 0.38921,0.140914 0.55105,0.06907 0.14906,-0.06618 0.37655,-0.04899 0.50551,0.03826 0.12898,0.08724 0.35646,0.104461 0.50552,0.03826 0.14907,-0.06618 0.36773,-0.05492 0.48593,0.02503 0.11819,0.07994 0.33277,0.122596 0.47684,0.09478 0.14407,-0.02784 0.35022,0.0091 0.45812,0.08213 0.2535,0.171471 1.04639,0.01841 1.21787,-0.235104 0.0729,-0.107891 0.25055,-0.218924 0.39462,-0.246728 0.17006,-0.03286 0.39945,-0.253856 0.65392,-0.630064 0.31565,-0.466679 0.44964,-0.5774 0.68831,-0.56869 0.23532,0.0086 0.37265,-0.102011 0.66692,-0.537067 l 0.37058,-0.547885 -0.54789,-0.370578 c -0.43506,-0.294273 -0.60368,-0.345795 -0.8189,-0.250243 -0.24303,0.107906 -0.38385,0.04404 -1.36305,-0.618296 -0.97922,-0.662325 -1.09091,-0.769243 -1.08123,-1.034981 0.006,-0.162981 -0.0784,-0.356688 -0.18743,-0.430438 -0.22162,-0.149898 -0.48512,-1.210659 -0.35094,-1.412757 0.0471,-0.07181 0.21973,-0.125212 0.38272,-0.119263 0.22111,0.0081 0.37265,-0.102011 0.59693,-0.433596 0.23895,-0.353265 0.38987,-0.453854 0.73596,-0.490527 0.23946,-0.02533 0.60132,-0.0876 0.80416,-0.138297 0.20282,-0.05074 0.45605,-0.03317 0.56272,0.03902 0.18813,0.127251 0.45293,0.136776 0.9005,0.03241 0.22399,-0.05226 0.57618,-0.121294 1.55941,-0.305774 0.31499,-0.05911 0.74774,-0.142176 0.96166,-0.184601 0.21392,-0.04245 0.48954,-0.09637 0.61248,-0.119864 0.12294,-0.02351 0.39586,-0.07804 0.60647,-0.121196 0.21061,-0.04313 0.61388,-0.10904 0.89613,-0.146429 0.28227,-0.03735 0.57487,-0.159117 0.65023,-0.27053 0.0754,-0.111421 0.25489,-0.22533 0.39896,-0.253141 0.14408,-0.02784 0.31858,-0.134303 0.38781,-0.236641 0.0692,-0.102346 0.28239,-0.219251 0.47371,-0.25979 1.19761,-0.253802 1.64043,-0.396686 1.7552,-0.566362 0.0714,-0.105578 0.24771,-0.214717 0.39178,-0.242529 0.14407,-0.02784 0.32735,-0.147265 0.4073,-0.265464 0.0799,-0.118191 0.27871,-0.210031 0.4417,-0.20409 0.24054,0.0087 0.37266,-0.102011 0.70156,-0.588271 0.3289,-0.486267 0.46102,-0.597049 0.70156,-0.588278 0.24448,0.0089 0.37265,-0.102011 0.73235,-0.633799 0.29362,-0.43409 0.52155,-0.661123 0.69795,-0.695172 0.15643,-0.0302 0.39169,-0.242377 0.58405,-0.526775 0.31258,-0.462138 0.31262,-0.482624 0.002,-0.692617 -0.17598,-0.119028 -0.43784,-0.193669 -0.5819,-0.165857 -0.17144,0.03309 -0.46668,-0.08791 -0.85447,-0.3502 -0.4797,-0.324472 -0.64412,-0.377866 -0.86355,-0.280442 -0.19879,0.08826 -0.38385,0.04404 -0.69427,-0.165941 -0.23732,-0.160517 -0.53831,-0.264065 -0.6852,-0.235705 -0.19356,0.03735 -0.50376,-0.113004 -1.18836,-0.576054 -0.85941,-0.581302 -0.93071,-0.65735 -0.98591,-1.05161 -0.0327,-0.233743 -0.0969,-0.596943 -0.14267,-0.807103 -0.0457,-0.210169 -0.01,-0.490855 0.0803,-0.623758 0.13752,-0.203314 0.10959,-0.278069 -0.1761,-0.471304 -0.22672,-0.153344 -0.42959,-0.189667 -0.61056,-0.109314 -0.14907,0.06618 -0.36774,0.05492 -0.48594,-0.02503 -0.11819,-0.07994 -0.33277,-0.122603 -0.47685,-0.09479 -0.33779,0.06519 -0.94672,-0.346654 -1.01194,-0.684462 -0.0278,-0.14407 -0.13095,-0.316317 -0.22922,-0.382788 -0.0983,-0.06649 -0.23245,-0.379274 -0.29819,-0.695135 -0.0942,-0.452606 -0.0627,-0.658796 0.14861,-0.97312 0.14706,-0.219654 0.2454,-0.516703 0.21759,-0.660774 -0.0278,-0.14407 0.0188,-0.364516 0.1036,-0.489873 0.0848,-0.125364 0.10002,-0.349895 0.0339,-0.498956 -0.11468,-0.25826 -0.044,-0.383853 1.49904,-2.665185 1.54307,-2.28134 1.63331,-2.393666 1.91572,-2.383351 0.24448,0.0089 0.37265,-0.102003 0.73235,-0.633799 0.29361,-0.43409 0.52156,-0.661123 0.69795,-0.695172 0.14407,-0.02784 0.35933,-0.194551 0.47836,-0.370518 l 0.21641,-0.319954 -0.61759,-0.417728 c -0.41006,-0.277361 -0.63456,-0.505741 -0.66814,-0.679669 -0.0278,-0.144071 -0.13096,-0.316318 -0.22922,-0.382788 -0.23948,-0.161978 -0.45018,-1.220845 -0.2905,-1.45992 0.0695,-0.105054 0.10448,-0.308361 0.0767,-0.452431 -0.0278,-0.144071 0.0188,-0.364509 0.1036,-0.489873 0.0848,-0.125357 0.10001,-0.349888 0.0339,-0.498956 -0.0966,-0.217494 -0.044,-0.383846 0.266,-0.842195 0.31002,-0.458357 0.44487,-0.569047 0.68268,-0.560368 0.19788,0.0068 0.37265,-0.102011 0.52601,-0.328732 l 0.22965,-0.339534 -0.67779,-0.458456 c -0.60602,-0.409907 -0.68268,-0.504562 -0.72392,-0.893832 -0.0254,-0.239455 -0.0876,-0.601324 -0.13831,-0.804151 -0.0507,-0.202828 -0.0332,-0.45606 0.039,-0.562734 0.1391,-0.205657 0.13917,-0.453108 3.8e-4,-1.066703 -0.0471,-0.208137 -0.0197,-0.475898 0.0609,-0.595018 0.0806,-0.119119 0.0923,-0.338545 0.0262,-0.487613 -0.0883,-0.198788 -0.044,-0.383846 0.16593,-0.694268 0.16053,-0.237325 0.26407,-0.538307 0.23572,-0.685185 -0.0362,-0.187415 0.10357,-0.489827 0.49113,-1.062815 0.46538,-0.688045 0.52473,-0.839045 0.42135,-1.07189 -0.068,-0.153222 -0.044,-0.383854 0.0552,-0.530579 0.10907,-0.161255 0.11638,-0.299559 0.0193,-0.365231 -0.0971,-0.06565 -0.22273,-0.0076 -0.33181,0.153853 -0.0992,0.146726 -0.30437,0.254845 -0.4719,0.248737 -0.17969,-0.0068 -0.37266,0.10201 -0.49018,0.275764 -0.11752,0.173753 -0.3105,0.282314 -0.49017,0.275764 -0.20933,-0.0076 -0.37266,0.102011 -0.55621,0.37337 -0.14292,0.211302 -0.37773,0.406941 -0.5218,0.434753 -0.14407,0.02784 -0.32736,0.147273 -0.4073,0.265464 -0.0799,0.118199 -0.27872,0.210039 -0.4417,0.20409 -0.17809,-0.0068 -0.37266,0.102011 -0.48758,0.271915 -0.18474,0.273132 -0.96813,0.530168 -1.17969,0.387071 -0.0547,-0.03697 -0.17298,0.04146 -0.26287,0.174392 -0.0899,0.132896 -0.33585,0.269253 -0.54657,0.303005 -0.61999,0.09931 -0.85077,0.1916 -0.98855,0.395287 -0.16843,0.249025 -0.49624,0.308444 -0.75098,0.136136 -0.11113,-0.07516 -0.32132,-0.09777 -0.46707,-0.05021 -0.25238,0.08235 -0.26587,0.07318 -0.2834,-0.191684 -0.0106,-0.159931 -0.15739,-0.372161 -0.34546,-0.499366 -0.27913,-0.188793 -0.35279,-0.183179 -0.50262,0.03834 -0.0992,0.146726 -0.30437,0.254838 -0.47189,0.248737 -0.17095,-0.0061 -0.37266,0.102003 -0.47669,0.255811 -0.21299,0.314902 -0.52319,0.399105 -0.7944,0.21566 -0.10722,-0.0725 -0.31282,-0.109108 -0.45689,-0.0813 -0.14407,0.02784 -0.36451,-0.01879 -0.48987,-0.1036 -0.12536,-0.08479 -0.3499,-0.100018 -0.49895,-0.03385 -0.22901,0.101669 -0.38386,0.04404 -0.99847,-0.371689 -0.61461,-0.41572 -0.72575,-0.537988 -0.71662,-0.788368 0.006,-0.162989 -0.0917,-0.365717 -0.21711,-0.450513 -0.12537,-0.08479 -0.25069,-0.272045 -0.2785,-0.416115 -0.0279,-0.144071 -0.13829,-0.321278 -0.24551,-0.393803 -0.26634,-0.180144 -0.30948,-0.501254 -0.10748,-0.799908 0.0926,-0.136919 0.12242,-0.408264 0.0663,-0.603005 -0.20312,-0.704187 -0.285,-0.644875 -1.41416,1.024536 -0.97999,1.448852 -1.07771,1.560889 -1.35265,1.550863 -0.26782,-0.0098 -0.37265,0.102003 -1.08909,1.161205 -0.71643,1.05921 -0.82126,1.170981 -1.08908,1.161213 -0.2546,-0.0093 -0.37266,0.102011 -0.83804,0.790056 -0.37681,0.557097 -0.61802,0.8156 -0.79245,0.849269 -0.13791,0.02663 -0.40129,0.239258 -0.58529,0.472514 -0.44067,0.558611 -0.81684,0.566674 -0.93281,0.02001 -0.045,-0.212344 -0.16078,-0.749259 -0.2572,-1.19314 -0.10919,-0.502706 -0.11457,-0.896852 -0.0142,-1.045167 0.0886,-0.130956 0.1069,-0.360073 0.0407,-0.509134 -0.0662,-0.149068 -0.0549,-0.367741 0.025,-0.485933 0.0799,-0.118191 0.1226,-0.332771 0.0948,-0.476842 -0.0288,-0.149448 0.0762,-0.449312 0.24452,-0.698215 0.21878,-0.323453 0.26396,-0.506358 0.17475,-0.707299 -0.0897,-0.201983 -0.044,-0.383845 0.17919,-0.713856 0.22321,-0.33001 0.26886,-0.511872 0.17918,-0.713855 -0.0838,-0.188648 -0.044,-0.383846 0.13071,-0.642182 0.13808,-0.204136 0.2283,-0.489037 0.20048,-0.633099 -0.0288,-0.149449 0.0762,-0.44932 0.24452,-0.698216 0.21878,-0.323453 0.26397,-0.506358 0.17476,-0.707299 -0.0883,-0.198788 -0.044,-0.383845 0.16593,-0.694267 0.16052,-0.237318 0.26406,-0.538307 0.2357,-0.685185 -0.0288,-0.149448 0.0762,-0.449319 0.24453,-0.698215 0.21878,-0.323453 0.26397,-0.506358 0.17475,-0.707299 -0.0662,-0.149068 -0.0549,-0.367734 0.025,-0.485932 0.08,-0.118192 0.12261,-0.332772 0.0948,-0.476843 -0.0278,-0.14407 0.0188,-0.364508 0.10361,-0.489873 0.0848,-0.125357 0.10001,-0.349887 0.0339,-0.498955 -0.0662,-0.149069 -0.06,-0.360363 0.0139,-0.469547 0.0739,-0.109185 0.0845,-0.478432 0.0236,-0.820561 -0.0609,-0.34212 -0.0396,-0.727099 0.0472,-0.855514 0.0869,-0.128408 0.10377,-0.355433 0.0376,-0.504502 -0.068,-0.153222 -0.044,-0.383845 0.0552,-0.530571 0.0965,-0.142754 0.13183,-0.289114 0.0784,-0.325255 -0.0534,-0.03613 -0.0635,-0.179596 -0.0224,-0.318783 0.0514,-0.173974 -0.0167,-0.314948 -0.21794,-0.451069 -0.16101,-0.108903 -0.30354,-0.30779 -0.31673,-0.441971 -0.0371,-0.377829 -0.2892,-0.470315 -0.48655,-0.178553 -0.0992,0.146725 -0.30437,0.254844 -0.4719,0.248736 -0.20932,-0.0076 -0.37265,0.102011 -0.5562,0.37337 -0.14292,0.211302 -0.37773,0.406941 -0.5218,0.434752 -0.14407,0.02784 -0.34321,0.170711 -0.44253,0.31755 -0.10428,0.154173 -0.30581,0.262422 -0.47693,0.256176 -0.16299,-0.0061 -0.36339,0.08831 -0.44533,0.209454 -0.17887,0.264452 -1.10032,0.379973 -1.40219,0.175792 -0.1184,-0.0801 -0.33725,-0.09147 -0.48631,-0.02526 -0.14907,0.06618 -0.37655,0.04899 -0.50552,-0.03826 -0.12897,-0.08723 -0.35645,-0.104445 -0.50552,-0.03826 -0.19878,0.08826 -0.38384,0.04405 -0.69426,-0.165941 -0.23732,-0.160517 -0.53831,-0.264057 -0.68519,-0.235705 -0.33281,0.06428 -0.53102,-0.06983 -0.59526,-0.402628 -0.0278,-0.14407 -0.1383,-0.321285 -0.24552,-0.393803 -0.26633,-0.180151 -0.30948,-0.501253 -0.10747,-0.799907 0.1658,-0.245138 0.0739,-0.877978 -0.15099,-1.039979 -0.0633,-0.04557 -0.22104,-0.05203 -0.35049,-0.01438 -0.1551,0.04519 -0.42387,-0.05895 -0.78811,-0.305325 -0.35243,-0.238376 -0.57106,-0.468794 -0.60331,-0.635808 -0.0278,-0.14407 -0.14727,-0.327355 -0.26547,-0.407305 -0.11819,-0.07994 -0.21003,-0.278709 -0.20409,-0.441698 0.006,-0.162989 -0.0917,-0.365726 -0.21712,-0.450514 -0.12535,-0.0848 -0.25067,-0.272044 -0.27848,-0.416115 -0.0284,-0.146877 -0.23649,-0.387695 -0.47381,-0.548219 -0.31042,-0.209963 -0.42036,-0.365262 -0.41243,-0.582619 0.006,-0.162989 -0.0947,-0.367718 -0.22368,-0.454948 -0.12897,-0.08723 -0.22962,-0.29196 -0.22368,-0.454949 0.006,-0.16299 -0.0918,-0.365726 -0.21712,-0.450514 -0.12536,-0.0848 -0.25068,-0.272045 -0.27849,-0.416115 -0.0278,-0.144071 -0.14727,-0.327355 -0.26547,-0.407298 -0.11819,-0.07994 -0.21003,-0.278708 -0.20408,-0.441705 0.006,-0.162989 -0.0918,-0.365718 -0.21713,-0.450514 -0.12536,-0.08479 -0.25068,-0.272037 -0.27849,-0.416107 -0.0278,-0.144071 -0.16248,-0.337648 -0.29926,-0.430165 -0.1533,-0.103685 -0.27793,-0.391833 -0.32489,-0.751146 -0.0419,-0.320608 -0.17354,-0.648777 -0.29253,-0.72926 -0.11899,-0.08048 -0.21148,-0.27969 -0.20553,-0.442679 0.006,-0.162989 -0.0947,-0.367718 -0.22368,-0.454949 -0.12897,-0.08723 -0.22963,-0.291959 -0.22368,-0.454949 0.006,-0.176948 -0.10201,-0.372655 -0.26921,-0.48575 -0.154,-0.104163 -0.30277,-0.307265 -0.33057,-0.451335 -0.0278,-0.144071 -0.14727,-0.327356 -0.26547,-0.407306 -0.11819,-0.07994 -0.21003,-0.278708 -0.20409,-0.441697 0.006,-0.16299 -0.0918,-0.365726 -0.21711,-0.450514 -0.12537,-0.0848 -0.25069,-0.272045 -0.2785,-0.416115 -0.0284,-0.146878 -0.23649,-0.387695 -0.47381,-0.548219 -0.31042,-0.209963 -0.42036,-0.365269 -0.41243,-0.582619 0.008,-0.220849 -0.10201,-0.372655 -0.43201,-0.595869 -0.33001,-0.223214 -0.44008,-0.375021 -0.43202,-0.59587 0.006,-0.162989 -0.0482,-0.336278 -0.12039,-0.385085 -0.19429,-0.131405 -0.8595,0.897232 -0.7953,1.229789 0.0288,0.149441 -0.0762,0.449312 -0.24452,0.698216 -0.21877,0.323453 -0.26397,0.50635 -0.17475,0.707298 0.0977,0.219989 0.044,0.383846 -0.28487,0.870113 -0.32891,0.48626 -0.38255,0.650116 -0.28488,0.870113 0.1067,0.24033 0.044,0.383845 -0.55347,1.267202 -0.50499,0.746597 -0.66113,1.061804 -0.62323,1.258127 0.0376,0.194825 -0.11532,0.507187 -0.59682,1.219065 -0.57108,0.844302 -0.6332,0.989065 -0.52705,1.228147 0.0988,0.222622 0.044,0.383846 -0.30686,0.902611 -0.28578,0.422512 -0.41046,0.71829 -0.37663,0.893527 0.0376,0.194825 -0.11531,0.507187 -0.59681,1.219065 -0.57108,0.844302 -0.63321,0.989064 -0.52705,1.228147 0.11364,0.255971 0.044,0.383853 -1.25244,2.300594 -1.29646,1.91674 -1.38923,2.028952 -1.66911,2.018751 -0.17095,-0.0061 -0.37266,0.102003 -0.47668,0.255811 -0.27192,0.402003 -0.53897,0.38844 -1.20364,-0.06116 l -0.60419,-0.40866 -0.65666,0.97083 c -0.5892,0.871102 -0.69628,0.977518 -1.04227,1.035879 -0.21209,0.03575 -0.58408,0.105936 -0.82665,0.155922 -1.10266,0.227209 -1.12765,0.224881 -1.69343,-0.157809 -0.35059,-0.237135 -0.64584,-0.354094 -0.81261,-0.321901 -0.17393,0.03355 -0.46947,-0.08979 -0.87953,-0.367155 -0.52152,-0.352756 -0.637,-0.389034 -0.74237,-0.233241 -0.11918,0.176195 -0.0991,0.381609 0.13868,1.422387 0.058,0.253772 0.0465,0.548516 -0.0255,0.654977 -0.17109,0.252943 0.35458,2.980476 0.60738,3.15146 0.10708,0.07242 0.226,0.331288 0.26427,0.575224 0.18109,1.154656 0.42038,2.013465 0.59365,2.130659 0.14054,0.09507 0.33036,0.833439 0.64936,2.526007 0.48927,2.595922 0.56599,3.14186 0.46294,3.294214 -0.1172,0.173274 -0.12377,0.445121 -0.0214,0.884201 0.20287,0.869984 0.2301,1.05193 0.17062,1.139875 -0.037,0.05469 0.0502,0.178881 0.19376,0.275977 0.3044,0.205901 0.78129,2.232594 0.54981,2.336659 -0.0876,0.03941 -0.62121,-0.259356 -1.37928,-0.772103 -0.96018,-0.649454 -1.24776,-0.894851 -1.28703,-1.098272 -0.0379,-0.196316 -0.30014,-0.430758 -1.04674,-0.935747 -0.88336,-0.59749 -0.99495,-0.707359 -0.98537,-0.970146 0.006,-0.162989 -0.0867,-0.362271 -0.20578,-0.442838 -0.11912,-0.08057 -0.24017,-0.316181 -0.26901,-0.523572 -0.0288,-0.207392 -0.1069,-0.514581 -0.17348,-0.682644 -0.0666,-0.168064 -0.0912,-0.406736 -0.0546,-0.530381 0.0488,-0.165195 -0.0422,-0.298304 -0.34322,-0.501907 -0.36431,-0.246416 -0.4286,-0.249087 -0.58077,-0.02412 -0.0941,0.139141 -0.289,0.275742 -0.43307,0.303553 -0.18665,0.03606 -0.41509,0.276997 -0.79482,0.838399 -0.45658,0.675022 -0.57533,0.78629 -0.82924,0.777032 -0.16299,-0.0061 -0.36571,0.09176 -0.45051,0.217114 -0.0848,0.125365 -0.27204,0.250684 -0.41611,0.278495 -0.14407,0.02784 -0.33399,0.157094 -0.42206,0.287289 -0.21311,0.315062 -2.31567,0.691461 -2.63939,0.472499 -0.12833,-0.0868 -0.35529,-0.103662 -0.50436,-0.0375 -0.22581,0.100261 -0.38384,0.04405 -0.94725,-0.337055 -0.59404,-0.401798 -0.69244,-0.433421 -0.80961,-0.260192 -0.0733,0.108454 -0.0762,0.279096 -0.006,0.379205 0.11738,0.168056 0.10483,0.187005 -0.16366,0.247154 -0.15994,0.03583 -0.49839,0.112615 -0.75213,0.170634 l -0.46133,0.105495 -1.86289,-1.260044 c -1.51701,-1.02608 -1.87227,-1.308668 -1.91345,-1.521978 -0.0278,-0.144071 -0.14727,-0.327356 -0.26547,-0.407298 -0.11819,-0.07995 -0.21003,-0.278716 -0.20409,-0.441705 0.006,-0.16299 -0.0894,-0.364106 -0.21181,-0.446916 -0.12243,-0.08282 -0.23341,-0.26036 -0.2466,-0.394541 -0.0132,-0.134189 -0.11201,-0.303508 -0.21958,-0.376269 -0.29452,-0.199207 -0.91727,0.744451 -0.74594,1.130328 0.0897,0.201983 0.044,0.383853 -0.1792,0.713856 -0.22321,0.33001 -0.26886,0.51188 -0.17918,0.713863 0.0662,0.149061 0.0549,0.367734 -0.025,0.485925 -0.0799,0.118199 -0.12261,0.332772 -0.0948,0.476842 0.0278,0.144071 -0.0188,0.364516 -0.10359,0.489873 -0.0848,0.125365 -0.10002,0.349895 -0.0339,0.498964 0.0681,0.153282 0.044,0.383845 -0.0553,0.530715 -0.11794,0.174377 -0.11759,0.510899 7.6e-4,1.024301 0.19207,0.830875 0.20129,0.878511 0.5651,2.920486 0.16976,0.952764 0.32307,1.437799 0.49019,1.55084 0.14952,0.101128 0.25387,0.352907 0.27095,0.653744 0.0153,0.269093 0.0521,0.584391 0.0819,0.700658 0.18164,0.709573 0.23345,1.046985 0.1742,1.134573 -0.037,0.0547 0.064,0.188214 0.22442,0.296722 0.338,0.228615 0.42852,0.533712 0.24073,0.811348 -0.0725,0.107221 -0.10911,0.312826 -0.0813,0.456896 0.0716,0.370685 -1.01838,1.982085 -1.38906,2.053645 -0.14407,0.02784 -0.33714,0.161726 -0.42904,0.297596 -0.2149,0.317717 -0.51927,0.373211 -0.84363,0.153815 -0.31219,-0.211157 -0.82405,-0.157413 -1.00166,0.105168 -0.12165,0.179862 -0.007,0.275529 1.78972,1.490668 1.56751,1.060244 1.92899,1.346521 1.97028,1.560409 0.0284,0.146878 0.23649,0.387703 0.47381,0.54822 0.31042,0.20997 0.42035,0.365269 0.41243,0.582626 -0.008,0.220849 0.102,0.372655 0.43201,0.595862 0.33001,0.223215 0.44008,0.375022 0.43202,0.59587 -0.008,0.219715 0.10201,0.372656 0.42547,0.591435 0.24889,0.168353 0.45798,0.407588 0.48683,0.557029 0.0278,0.14407 0.20461,0.366143 0.39289,0.493494 0.19878,0.134455 0.37322,0.377448 0.41599,0.579492 0.0405,0.191363 0.1892,0.858945 0.33041,1.483501 l 0.25676,1.13557 -0.45805,0.67722 c -0.26233,0.387824 -0.54762,0.694496 -0.66763,0.717667 -0.11864,0.0229 -0.49428,-0.152142 -0.86583,-0.403441 l -0.65627,-0.443896 -0.26489,0.39162 c -0.18858,0.278807 -0.23022,0.469699 -0.14456,0.662652 0.0662,0.149069 0.049,0.376551 -0.0383,0.505521 -0.0872,0.128963 -0.10445,0.356445 -0.0383,0.505513 0.0662,0.149068 0.0733,0.340554 0.0158,0.425517 -0.0574,0.08497 -0.23785,0.149631 -0.40084,0.143683 -0.16299,-0.0061 -0.36771,0.09472 -0.45495,0.223678 -0.0872,0.128971 -0.29195,0.22962 -0.45495,0.223679 -0.16299,-0.0061 -0.36572,0.09176 -0.45051,0.217121 -0.0848,0.125357 -0.27204,0.250684 -0.41611,0.278495 -0.14407,0.02784 -0.33401,0.157086 -0.42207,0.287289 -0.10661,0.157619 -0.54424,0.298327 -1.30965,0.421082 -0.63226,0.101403 -1.30721,0.21188 -1.4999,0.245511 -0.19269,0.03362 -0.43876,0.0015 -0.54683,-0.07174 -0.25937,-0.175434 -0.77755,-0.09479 -0.94069,0.146399 -0.18922,0.27975 0.45159,0.6948 0.8201,0.531179 0.19879,-0.08826 0.38386,-0.04404 0.69428,0.165941 0.23732,0.160517 0.5383,0.264064 0.68518,0.235705 0.14407,-0.02784 0.43483,0.06641 0.64613,0.209294 0.27136,0.183551 0.46377,0.224515 0.65521,0.139521 0.19878,-0.08826 0.38385,-0.04404 0.69427,0.165941 0.23732,0.160517 0.53831,0.264057 0.68519,0.235705 0.14944,-0.02883 0.44931,0.07617 0.69821,0.244522 0.32345,0.21878 0.50635,0.263966 0.7073,0.17475 0.19878,-0.08826 0.38384,-0.04404 0.69427,0.165941 0.23731,0.160517 0.5383,0.264056 0.68518,0.235705 0.18741,-0.03621 0.48982,0.10357 1.06281,0.491128 0.68805,0.465386 0.83904,0.524744 1.07189,0.421364 0.24494,-0.108751 0.38385,-0.04404 1.44305,0.672405 1.0592,0.716427 1.19811,0.781155 1.44305,0.672397 0.22899,-0.101669 0.38385,-0.04404 0.99846,0.371689 0.61461,0.415719 0.72575,0.537988 0.71661,0.788367 -0.006,0.162997 0.0865,0.362158 0.2054,0.442588 0.11891,0.08043 0.25048,0.408553 0.29238,0.729161 0.0469,0.359046 0.17162,0.647476 0.32466,0.750994 0.35363,0.239189 0.37008,0.527025 0.0566,0.990472 -0.15003,0.221807 -0.25003,0.521168 -0.22222,0.665231 0.0278,0.14407 -0.0558,0.419317 -0.18598,0.611662 -0.13009,0.192345 -0.35441,0.372473 -0.49848,0.400285 -0.14407,0.02784 -0.32736,0.147265 -0.4073,0.265464 -0.0799,0.118191 -0.27871,0.210031 -0.4417,0.20409 -0.16299,-0.0061 -0.36772,0.09471 -0.45495,0.223679 -0.0872,0.128962 -0.29196,0.229619 -0.45495,0.223671 -0.16299,-0.0061 -0.35213,0.07166 -0.42032,0.172482 -0.18699,0.276464 0.56439,0.755193 0.93031,0.592721 z"
       style="fill:url(#linearGradient4284);fill-opacity:1" />
  </g>
  <path
     style="fill:#000000"
     d="m 428.65316,225.2027 c 0,-0.55 0.45,-1 1,-1 0.55,0 1,0.45 1,1 0,0.55 -0.45,1 -1,1 -0.55,0 -1,-0.45 -1,-1 z"
     id="path3457" />
</svg>
