<?xml version="1.0" encoding="UTF-8" standalone="no"?>
<!-- Created with Inkscape (http://www.inkscape.org/) -->

<svg
   xmlns:dc="http://purl.org/dc/elements/1.1/"
   xmlns:cc="http://creativecommons.org/ns#"
   xmlns:rdf="http://www.w3.org/1999/02/22-rdf-syntax-ns#"
   xmlns:svg="http://www.w3.org/2000/svg"
   xmlns="http://www.w3.org/2000/svg"
   xmlns:xlink="http://www.w3.org/1999/xlink"
   xmlns:sodipodi="http://sodipodi.sourceforge.net/DTD/sodipodi-0.dtd"
   xmlns:inkscape="http://www.inkscape.org/namespaces/inkscape"
   version="1.0"
   width="96"
   height="96"
   id="svg2408"
   inkscape:version="0.48.0 r9654"
   sodipodi:docname="n_icon2.svg">
  <sodipodi:namedview
     pagecolor="#ffffff"
     bordercolor="#666666"
     borderopacity="1"
     objecttolerance="10"
     gridtolerance="10"
     guidetolerance="10"
     inkscape:pageopacity="0"
     inkscape:pageshadow="2"
     inkscape:window-width="974"
     inkscape:window-height="636"
     id="namedview192"
     showgrid="false"
     inkscape:zoom="3.6203867"
     inkscape:cx="26.057212"
     inkscape:cy="54.303645"
     inkscape:window-x="0"
     inkscape:window-y="24"
     inkscape:window-maximized="0"
     inkscape:current-layer="svg2408" />
  <defs
     id="defs2410">
    <linearGradient
       id="linearGradient3921">
      <stop
         id="stop3923"
         style="stop-color:#5fd3bc;stop-opacity:0"
         offset="0" />
      <stop
         id="stop3929"
         style="stop-color:#5fd3bc;stop-opacity:1"
         offset="0.5" />
      <stop
         id="stop3925"
         style="stop-color:#5fd3bc;stop-opacity:0"
         offset="1" />
    </linearGradient>
    <linearGradient
       id="linearGradient3911">
      <stop
         id="stop3913"
         style="stop-color:#2a7fff;stop-opacity:0"
         offset="0" />
      <stop
         id="stop3919"
         style="stop-color:#2a7fff;stop-opacity:1"
         offset="0.5" />
      <stop
         id="stop3915"
         style="stop-color:#2a7fff;stop-opacity:0"
         offset="1" />
    </linearGradient>
    <linearGradient
       id="linearGradient3901">
      <stop
         id="stop3903"
         style="stop-color:#6600ff;stop-opacity:0"
         offset="0" />
      <stop
         id="stop3909"
         style="stop-color:#6600ff;stop-opacity:1"
         offset="0.5" />
      <stop
         id="stop3905"
         style="stop-color:#6600ff;stop-opacity:0"
         offset="1" />
    </linearGradient>
    <linearGradient
       id="linearGradient3891">
      <stop
         id="stop3893"
         style="stop-color:#d42aff;stop-opacity:0"
         offset="0" />
      <stop
         id="stop3899"
         style="stop-color:#d42aff;stop-opacity:1"
         offset="0.5" />
      <stop
         id="stop3895"
         style="stop-color:#d42aff;stop-opacity:0"
         offset="1" />
    </linearGradient>
    <linearGradient
       id="linearGradient3881">
      <stop
         id="stop3883"
         style="stop-color:#d40000;stop-opacity:0"
         offset="0" />
      <stop
         id="stop3889"
         style="stop-color:#d40000;stop-opacity:1"
         offset="0.5" />
      <stop
         id="stop3885"
         style="stop-color:#d40000;stop-opacity:0"
         offset="1" />
    </linearGradient>
    <linearGradient
       id="linearGradient3871">
      <stop
         id="stop3873"
         style="stop-color:#ff6600;stop-opacity:0"
         offset="0" />
      <stop
         id="stop3879"
         style="stop-color:#ff6600;stop-opacity:1"
         offset="0.5" />
      <stop
         id="stop3875"
         style="stop-color:#ff6600;stop-opacity:0"
         offset="1" />
    </linearGradient>
    <linearGradient
       id="linearGradient3861">
      <stop
         id="stop3863"
         style="stop-color:#ffcc00;stop-opacity:0"
         offset="0" />
      <stop
         id="stop3869"
         style="stop-color:#ffcc00;stop-opacity:1"
         offset="0.5" />
      <stop
         id="stop3865"
         style="stop-color:#ffcc00;stop-opacity:0"
         offset="1" />
    </linearGradient>
    <linearGradient
       id="linearGradient3851">
      <stop
         id="stop3853"
         style="stop-color:#55d400;stop-opacity:0"
         offset="0" />
      <stop
         id="stop3859"
         style="stop-color:#55d400;stop-opacity:1"
         offset="0.5" />
      <stop
         id="stop3855"
         style="stop-color:#55d400;stop-opacity:0"
         offset="1" />
    </linearGradient>
    <linearGradient
       id="linearGradient3797">
      <stop
         id="stop3799"
         style="stop-color:#ffffff;stop-opacity:1"
         offset="0" />
      <stop
         id="stop3805"
         style="stop-color:#ffffff;stop-opacity:1"
         offset="0.5" />
      <stop
         id="stop3801"
         style="stop-color:#ffffff;stop-opacity:0"
         offset="1" />
    </linearGradient>
    <linearGradient
       id="linearGradient3761">
      <stop
         id="stop3763"
         style="stop-color:#ffffff;stop-opacity:1"
         offset="0" />
      <stop
         id="stop3765"
         style="stop-color:#ffffff;stop-opacity:0"
         offset="1" />
    </linearGradient>
    <linearGradient
       id="linearGradient3727">
      <stop
         id="stop3729"
         style="stop-color:#ffffff;stop-opacity:1"
         offset="0" />
      <stop
         id="stop3731"
         style="stop-color:#ffffff;stop-opacity:0"
         offset="1" />
    </linearGradient>
    <linearGradient
       id="linearGradient3681">
      <stop
         id="stop3683"
         style="stop-color:#ffffff;stop-opacity:0.18548387"
         offset="0" />
      <stop
         id="stop3689"
         style="stop-color:#ffffff;stop-opacity:0.10887097"
         offset="0.3086735" />
      <stop
         id="stop3691"
         style="stop-color:#000000;stop-opacity:0"
         offset="0.43622452" />
      <stop
         id="stop3693"
         style="stop-color:#000000;stop-opacity:0"
         offset="0.54464293" />
      <stop
         id="stop3695"
         style="stop-color:#ffffff;stop-opacity:0"
         offset="0.58290821" />
      <stop
         id="stop3697"
         style="stop-color:#000000;stop-opacity:0.1814516"
         offset="0.61479598" />
      <stop
         id="stop3699"
         style="stop-color:#000000;stop-opacity:0.43145162"
         offset="0.69132656" />
      <stop
         id="stop3701"
         style="stop-color:#ffffff;stop-opacity:0.08064516"
         offset="0.78061229" />
      <stop
         id="stop3703"
         style="stop-color:#000000;stop-opacity:0"
         offset="0.87627554" />
      <stop
         id="stop3685"
         style="stop-color:#ffffff;stop-opacity:0"
         offset="1" />
    </linearGradient>
    <linearGradient
       id="linearGradient3746">
      <stop
         id="stop3748"
         style="stop-color:#5d5d5d;stop-opacity:1"
         offset="0" />
      <stop
         id="stop3753"
         style="stop-color:#0a0a0a;stop-opacity:1"
         offset="0.60000002" />
      <stop
         id="stop3751"
         style="stop-color:#4e4e4e;stop-opacity:1"
         offset="1" />
    </linearGradient>
    <linearGradient
       id="linearGradient3732">
      <stop
         id="stop3734"
         style="stop-color:#000000;stop-opacity:0"
         offset="0" />
      <stop
         id="stop3740"
         style="stop-color:#000000;stop-opacity:0"
         offset="0.94999999" />
      <stop
         id="stop3736"
         style="stop-color:#000000;stop-opacity:1"
         offset="1" />
    </linearGradient>
    <linearGradient
       id="linearGradient3719">
      <stop
         id="stop3721"
         style="stop-color:#4b4b4b;stop-opacity:1"
         offset="0" />
      <stop
         id="stop3723"
         style="stop-color:#232323;stop-opacity:1"
         offset="0.37373093" />
      <stop
         id="stop3725"
         style="stop-color:#5c5c5c;stop-opacity:1"
         offset="1" />
    </linearGradient>
    <linearGradient
       id="linearGradient3664">
      <stop
         id="stop3666"
         style="stop-color:#000000;stop-opacity:0.29838711"
         offset="0" />
      <stop
         id="stop3668"
         style="stop-color:#ffffff;stop-opacity:0.64516127"
         offset="1" />
    </linearGradient>
    <linearGradient
       id="linearGradient3650">
      <stop
         id="stop3709"
         style="stop-color:#141414;stop-opacity:1"
         offset="0" />
      <stop
         id="stop3654"
         style="stop-color:#616161;stop-opacity:1"
         offset="1" />
    </linearGradient>
    <linearGradient
       id="linearGradient3641">
      <stop
         id="stop3643"
         style="stop-color:#bdb8c4;stop-opacity:1"
         offset="0" />
      <stop
         id="stop3645"
         style="stop-color:#dbd9df;stop-opacity:1"
         offset="1" />
    </linearGradient>
    <linearGradient
       x1="45.447727"
       y1="92.539597"
       x2="45.447727"
       y2="7.0165396"
       id="ButtonShadow"
       gradientUnits="userSpaceOnUse"
       gradientTransform="scale(1.0058652,0.994169)">
      <stop
         id="stop3750"
         style="stop-color:#000000;stop-opacity:1"
         offset="0" />
      <stop
         id="stop3752"
         style="stop-color:#000000;stop-opacity:0.58823532"
         offset="1" />
    </linearGradient>
    <linearGradient
       id="linearGradient3737">
      <stop
         id="stop3739"
         style="stop-color:#ffffff;stop-opacity:1"
         offset="0" />
      <stop
         id="stop3741"
         style="stop-color:#ffffff;stop-opacity:0"
         offset="1" />
    </linearGradient>
    <filter
       color-interpolation-filters="sRGB"
       id="filter3174">
      <feGaussianBlur
         id="feGaussianBlur3176"
         stdDeviation="1.71" />
    </filter>
    <linearGradient
       x1="36.357143"
       y1="6"
       x2="36.357143"
       y2="63.893143"
       id="linearGradient3188"
       xlink:href="#linearGradient3737"
       gradientUnits="userSpaceOnUse" />
    <filter
       x="-0.192"
       y="-0.192"
       width="1.3839999"
       height="1.3839999"
       color-interpolation-filters="sRGB"
       id="filter3794">
      <feGaussianBlur
         id="feGaussianBlur3796"
         stdDeviation="5.28" />
    </filter>
    <linearGradient
       x1="48"
       y1="20.220806"
       x2="48"
       y2="138.66119"
       id="linearGradient3613"
       xlink:href="#linearGradient3737"
       gradientUnits="userSpaceOnUse" />
    <radialGradient
       cx="48"
       cy="90.171875"
       r="42"
       fx="48"
       fy="90.171875"
       id="radialGradient3619"
       xlink:href="#linearGradient3737"
       gradientUnits="userSpaceOnUse"
       gradientTransform="matrix(1.1573129,0,0,0.99590774,-7.5510206,0.19713193)" />
    <clipPath
       id="clipPath3613">
      <rect
         width="84"
         height="84"
         rx="6"
         ry="6"
         x="6"
         y="6"
         id="rect3615"
         style="fill:#ffffff;fill-opacity:1;fill-rule:nonzero;stroke:none" />
    </clipPath>
    <linearGradient
       x1="48"
       y1="90"
       x2="48"
       y2="5.9877172"
       id="linearGradient3617"
       xlink:href="#linearGradient3641"
       gradientUnits="userSpaceOnUse" />
    <linearGradient
       x1="16.162441"
       y1="52.098946"
       x2="76.838295"
       y2="52.098946"
       id="linearGradient3670"
       xlink:href="#linearGradient3664"
       gradientUnits="userSpaceOnUse" />
    <linearGradient
       x1="16.162441"
       y1="44.48222"
       x2="76.771591"
       y2="44.48222"
       id="linearGradient3674"
       xlink:href="#linearGradient3719"
       gradientUnits="userSpaceOnUse" />
    <linearGradient
       x1="16.162441"
       y1="44.48222"
       x2="76.771591"
       y2="44.48222"
       id="linearGradient3707"
       xlink:href="#linearGradient3650"
       gradientUnits="userSpaceOnUse" />
    <radialGradient
       cx="48"
       cy="48.000935"
       r="27.001867"
       fx="48"
       fy="48.000935"
       id="radialGradient3738"
       xlink:href="#linearGradient3732"
       gradientUnits="userSpaceOnUse"
       gradientTransform="matrix(1,0,0,0.99996543,0,0.00165947)" />
    <linearGradient
       x1="16.162441"
       y1="44.48222"
       x2="76.771591"
       y2="44.48222"
       id="linearGradient3744"
       xlink:href="#linearGradient3746"
       gradientUnits="userSpaceOnUse" />
    <clipPath
       id="clipPath3798">
      <path
         d="m 61.366765,45.997448 a 13.637059,13.637059 0 1 1 -27.274118,0 13.637059,13.637059 0 1 1 27.274118,0 z"
         transform="matrix(1.0266143,0,0,1.0266143,-0.999999,0.778362)"
         id="path3800"
         style="fill:#ff00ff;fill-opacity:1;stroke:none" />
    </clipPath>
    <filter
       x="-0.23999999"
       y="-0.24000001"
       width="1.48"
       height="1.48"
       color-interpolation-filters="sRGB"
       id="filter3833">
      <feGaussianBlur
         id="feGaussianBlur3835"
         stdDeviation="2.8000002" />
    </filter>
    <radialGradient
       cx="47.729706"
       cy="45.997448"
       r="13.637059"
       fx="47.729706"
       fy="45.997448"
       id="radialGradient3687"
       xlink:href="#linearGradient3681"
       gradientUnits="userSpaceOnUse" />
    <linearGradient
       x1="33.199345"
       y1="45.997448"
       x2="67.957489"
       y2="45.997448"
       id="linearGradient3733"
       xlink:href="#linearGradient3727"
       gradientUnits="userSpaceOnUse" />
    <linearGradient
       x1="40.068184"
       y1="58.17598"
       x2="31.793724"
       y2="49.665066"
       id="linearGradient3767"
       xlink:href="#linearGradient3761"
       gradientUnits="userSpaceOnUse" />
    <linearGradient
       x1="40.068184"
       y1="58.17598"
       x2="40.068184"
       y2="41.697067"
       id="linearGradient3771"
       xlink:href="#linearGradient3761"
       gradientUnits="userSpaceOnUse" />
    <linearGradient
       x1="40.068184"
       y1="58.17598"
       x2="40.068184"
       y2="41.697067"
       id="linearGradient3775"
       xlink:href="#linearGradient3761"
       gradientUnits="userSpaceOnUse" />
    <linearGradient
       x1="40.068184"
       y1="58.17598"
       x2="40.068184"
       y2="41.697067"
       id="linearGradient3779"
       xlink:href="#linearGradient3761"
       gradientUnits="userSpaceOnUse" />
    <linearGradient
       x1="40.068184"
       y1="58.17598"
       x2="40.068184"
       y2="41.697067"
       id="linearGradient3791"
       xlink:href="#linearGradient3761"
       gradientUnits="userSpaceOnUse" />
    <radialGradient
       cx="41"
       cy="52"
       r="9.7082043"
       fx="41"
       fy="52"
       id="radialGradient3803"
       xlink:href="#linearGradient3797"
       gradientUnits="userSpaceOnUse"
       gradientTransform="matrix(1,0,0,0.61803397,0,19.862234)" />
    <filter
       color-interpolation-filters="sRGB"
       id="filter3774">
      <feGaussianBlur
         id="feGaussianBlur3776"
         stdDeviation="0.27274118" />
    </filter>
    <linearGradient
       x1="53.510502"
       y1="59.608364"
       x2="61.49099"
       y2="39.92907"
       id="linearGradient3967"
       xlink:href="#linearGradient3881"
       gradientUnits="userSpaceOnUse"
       gradientTransform="matrix(1.0266143,0,0,1.0266143,-0.9999987,50.778362)" />
    <linearGradient
       x1="53.730709"
       y1="60.139374"
       x2="62.58559"
       y2="38.831467"
       id="linearGradient3969"
       xlink:href="#linearGradient3891"
       gradientUnits="userSpaceOnUse"
       gradientTransform="matrix(0.72592593,0.72592593,-0.72592593,0.72592593,46.742509,29.961028)" />
    <linearGradient
       x1="53.387505"
       y1="60.34634"
       x2="61.982975"
       y2="39.437084"
       id="linearGradient3971"
       xlink:href="#linearGradient3901"
       gradientUnits="userSpaceOnUse"
       gradientTransform="matrix(0,1.0266143,-1.0266143,0,95.221638,49.000001)" />
    <linearGradient
       x1="53.295853"
       y1="59.182693"
       x2="61.88982"
       y2="40.223007"
       id="linearGradient3973"
       xlink:href="#linearGradient3911"
       gradientUnits="userSpaceOnUse"
       gradientTransform="matrix(-0.72592593,0.72592593,-0.72592593,-0.72592593,116.03897,96.742509)" />
    <linearGradient
       x1="53.87949"
       y1="61.330303"
       x2="60.999012"
       y2="39.683075"
       id="linearGradient3975"
       xlink:href="#linearGradient3921"
       gradientUnits="userSpaceOnUse"
       gradientTransform="matrix(-1.0266143,0,0,-1.0266143,96.999997,145.22164)" />
    <linearGradient
       x1="53.469795"
       y1="59.878456"
       x2="60.324341"
       y2="39.70118"
       id="linearGradient3977"
       xlink:href="#linearGradient3851"
       gradientUnits="userSpaceOnUse"
       gradientTransform="matrix(-0.72592593,-0.72592593,0.72592593,-0.72592593,49.25749,166.03897)" />
    <linearGradient
       x1="61.628212"
       y1="39.683075"
       x2="52.881298"
       y2="60.715324"
       id="linearGradient3979"
       xlink:href="#linearGradient3861"
       gradientUnits="userSpaceOnUse"
       gradientTransform="matrix(0,-1.0266143,1.0266143,0,0.77836254,147)" />
    <linearGradient
       x1="53.034939"
       y1="61.183025"
       x2="61.802849"
       y2="40.483921"
       id="linearGradient3981"
       xlink:href="#linearGradient3871"
       gradientUnits="userSpaceOnUse"
       gradientTransform="matrix(0.72592593,-0.72592593,0.72592593,0.72592593,-20.03897,99.25749)" />
    <filter
       color-interpolation-filters="sRGB"
       id="filter3987">
      <feGaussianBlur
         id="feGaussianBlur3989"
         stdDeviation="0.42020394" />
    </filter>
    <linearGradient
       x1="64.072342"
       y1="64.036171"
       x2="46.604744"
       y2="46.568573"
       id="linearGradient3817"
       xlink:href="#linearGradient3761"
       gradientUnits="userSpaceOnUse" />
    <linearGradient
       x1="45.447727"
       y1="92.539597"
       x2="45.447727"
       y2="7.0165396"
       id="ButtonShadow-0"
       gradientUnits="userSpaceOnUse"
       gradientTransform="matrix(1.0058652,0,0,0.994169,100,0)">
      <stop
         id="stop3750-8"
         style="stop-color:#000000;stop-opacity:1"
         offset="0" />
      <stop
         id="stop3752-5"
         style="stop-color:#000000;stop-opacity:0.58823532"
         offset="1" />
    </linearGradient>
    <linearGradient
       x1="32.251034"
       y1="6.1317081"
       x2="32.251034"
       y2="90.238609"
       id="linearGradient3780"
       xlink:href="#ButtonShadow-0"
       gradientUnits="userSpaceOnUse"
       gradientTransform="matrix(1.0238095,0,0,1.0119048,-1.1428571,-98.071429)" />
    <linearGradient
       x1="32.251034"
       y1="6.1317081"
       x2="32.251034"
       y2="90.238609"
       id="linearGradient3772"
       xlink:href="#ButtonShadow-0"
       gradientUnits="userSpaceOnUse"
       gradientTransform="matrix(1.0238095,0,0,1.0119048,-1.1428571,-98.071429)" />
    <linearGradient
       x1="32.251034"
       y1="6.1317081"
       x2="32.251034"
       y2="90.238609"
       id="linearGradient3725"
       xlink:href="#ButtonShadow-0"
       gradientUnits="userSpaceOnUse"
       gradientTransform="matrix(1.0238095,0,0,1.0119048,-1.1428571,-98.071429)" />
    <linearGradient
       x1="32.251034"
       y1="6.1317081"
       x2="32.251034"
       y2="90.238609"
       id="linearGradient3721"
       xlink:href="#ButtonShadow-0"
       gradientUnits="userSpaceOnUse"
       gradientTransform="translate(0,-97)" />
    <linearGradient
       x1="32.251034"
       y1="6.1317081"
       x2="32.251034"
       y2="90.238609"
       id="linearGradient2918"
       xlink:href="#ButtonShadow-0"
       gradientUnits="userSpaceOnUse"
       gradientTransform="matrix(1.0238095,0,0,1.0119048,-1.1428571,-98.071429)" />
  </defs>
  <metadata
     id="metadata2413">
    <rdf:RDF>
      <cc:Work
         rdf:about="">
        <dc:format>image/svg+xml</dc:format>
        <dc:type
           rdf:resource="http://purl.org/dc/dcmitype/StillImage" />
        <dc:title />
      </cc:Work>
    </rdf:RDF>
  </metadata>
  <g
     id="layer2"
     style="display:none">
    <rect
       width="86"
       height="85"
       rx="6"
       ry="6"
       x="5"
       y="7"
       id="rect3745"
       style="opacity:0.9;fill:url(#ButtonShadow);fill-opacity:1;fill-rule:nonzero;stroke:none;filter:url(#filter3174)" />
  </g>
  <g
     id="layer7">
    <path
       d="m 12,-95.03125 c -5.5110903,0 -10.03125,4.52016 -10.03125,10.03125 l 0,71 c 0,5.5110902 4.5201598,10.03125 10.03125,10.03125 l 72,0 c 5.51109,0 10.03125,-4.5201597 10.03125,-10.03125 l 0,-71 c 0,-5.51109 -4.52016,-10.03125 -10.03125,-10.03125 l -72,0 z"
       transform="scale(1,-1)"
       id="path3786"
       style="opacity:0.07999998;fill:url(#linearGradient2918);fill-opacity:1;fill-rule:nonzero;stroke:none;display:inline" />
    <path
       d="m 12,-94.03125 c -4.971633,0 -9.03125,4.059617 -9.03125,9.03125 l 0,71 c 0,4.9716329 4.0596171,9.03125 9.03125,9.03125 l 72,0 c 4.971633,0 9.03125,-4.059617 9.03125,-9.03125 l 0,-71 c 0,-4.971633 -4.059617,-9.03125 -9.03125,-9.03125 l -72,0 z"
       transform="scale(1,-1)"
       id="path3778-9"
       style="opacity:0.1;fill:url(#linearGradient3780);fill-opacity:1;fill-rule:nonzero;stroke:none;display:inline" />
    <path
       d="m 12,-93 c -4.4091333,0 -8,3.590867 -8,8 l 0,71 c 0,4.4091333 3.5908667,8 8,8 l 72,0 c 4.409133,0 8,-3.5908667 8,-8 l 0,-71 c 0,-4.409133 -3.590867,-8 -8,-8 l -72,0 z"
       transform="scale(1,-1)"
       id="path3770"
       style="opacity:0.2;fill:url(#linearGradient3772);fill-opacity:1;fill-rule:nonzero;stroke:none;display:inline" />
    <rect
       width="86"
       height="85"
       rx="7"
       ry="7"
       x="5"
       y="-92"
       transform="scale(1,-1)"
       id="rect3723"
       style="opacity:0.3;fill:url(#linearGradient3725);fill-opacity:1;fill-rule:nonzero;stroke:none;display:inline" />
    <rect
       width="84"
       height="84"
       rx="6"
       ry="6"
       x="6"
       y="-91"
       transform="scale(1,-1)"
       id="rect3716"
       style="opacity:0.45;fill:url(#linearGradient3721);fill-opacity:1;fill-rule:nonzero;stroke:none;display:inline" />
  </g>
  <g
     id="layer1">
    <rect
       width="84"
       height="84"
       rx="6"
       ry="6"
       x="6"
       y="6"
       id="rect2419"
       style="fill:url(#linearGradient3617);fill-opacity:1;fill-rule:nonzero;stroke:none" />
    <path
       d="M 12,6 C 8.676,6 6,8.676 6,12 l 0,2 0,68 0,2 c 0,0.334721 0.04135,0.6507 0.09375,0.96875 0.0487,0.295596 0.09704,0.596915 0.1875,0.875 0.00988,0.03038 0.020892,0.0636 0.03125,0.09375 0.098865,0.287771 0.2348802,0.547452 0.375,0.8125 0.1445918,0.273507 0.3156161,0.535615 0.5,0.78125 0.1843839,0.245635 0.3737765,0.473472 0.59375,0.6875 0.439947,0.428056 0.94291,0.814526 1.5,1.09375 0.278545,0.139612 0.5734731,0.246947 0.875,0.34375 -0.2562018,-0.100222 -0.4867109,-0.236272 -0.71875,-0.375 -0.00741,-0.0044 -0.023866,0.0045 -0.03125,0 -0.031933,-0.0193 -0.062293,-0.04251 -0.09375,-0.0625 -0.120395,-0.0767 -0.2310226,-0.163513 -0.34375,-0.25 -0.1061728,-0.0808 -0.2132809,-0.161112 -0.3125,-0.25 C 8.4783201,88.557317 8.3087904,88.373362 8.15625,88.1875 8.0486711,88.057245 7.9378561,87.922215 7.84375,87.78125 7.818661,87.74287 7.805304,87.69538 7.78125,87.65625 7.716487,87.553218 7.6510225,87.451733 7.59375,87.34375 7.4927417,87.149044 7.3880752,86.928049 7.3125,86.71875 7.30454,86.69694 7.288911,86.6782 7.28125,86.65625 7.2494249,86.5643 7.2454455,86.469419 7.21875,86.375 7.1884177,86.268382 7.1483606,86.171969 7.125,86.0625 7.0521214,85.720988 7,85.364295 7,85 L 7,83 7,15 7,13 C 7,10.218152 9.2181517,8 12,8 l 2,0 68,0 2,0 c 2.781848,0 5,2.218152 5,5 l 0,2 0,68 0,2 c 0,0.364295 -0.05212,0.720988 -0.125,1.0625 -0.04415,0.206893 -0.08838,0.397658 -0.15625,0.59375 -0.0077,0.02195 -0.0233,0.04069 -0.03125,0.0625 -0.06274,0.173739 -0.138383,0.367449 -0.21875,0.53125 -0.04158,0.0828 -0.07904,0.169954 -0.125,0.25 -0.0546,0.09721 -0.126774,0.18835 -0.1875,0.28125 -0.09411,0.140965 -0.204921,0.275995 -0.3125,0.40625 -0.143174,0.17445 -0.303141,0.346998 -0.46875,0.5 -0.01117,0.0102 -0.01998,0.02115 -0.03125,0.03125 -0.138386,0.125556 -0.285091,0.234436 -0.4375,0.34375 -0.102571,0.07315 -0.204318,0.153364 -0.3125,0.21875 -0.0074,0.0045 -0.02384,-0.0044 -0.03125,0 -0.232039,0.138728 -0.462548,0.274778 -0.71875,0.375 0.301527,-0.0968 0.596455,-0.204138 0.875,-0.34375 0.55709,-0.279224 1.060053,-0.665694 1.5,-1.09375 0.219973,-0.214028 0.409366,-0.441865 0.59375,-0.6875 0.184384,-0.245635 0.355408,-0.507743 0.5,-0.78125 0.14012,-0.265048 0.276135,-0.524729 0.375,-0.8125 0.01041,-0.03078 0.02133,-0.06274 0.03125,-0.09375 0.09046,-0.278085 0.1388,-0.579404 0.1875,-0.875 C 89.95865,84.6507 90,84.334721 90,84 l 0,-2 0,-68 0,-2 C 90,8.676 87.324,6 84,6 L 12,6 z"
       inkscape:connector-curvature="0"
       id="rect3728"
       style="opacity:0.5;fill:url(#linearGradient3188);fill-opacity:1;fill-rule:nonzero;stroke:none" />
    <path
       d="M 12,90 C 8.676,90 6,87.324 6,84 L 6,82 6,14 6,12 c 0,-0.334721 0.04135,-0.6507 0.09375,-0.96875 0.0487,-0.295596 0.09704,-0.596915 0.1875,-0.875 C 6.29113,10.12587 6.302142,10.09265 6.3125,10.0625 6.411365,9.774729 6.5473802,9.515048 6.6875,9.25 6.8320918,8.976493 7.0031161,8.714385 7.1875,8.46875 7.3718839,8.223115 7.5612765,7.995278 7.78125,7.78125 8.221197,7.353194 8.72416,6.966724 9.28125,6.6875 9.559795,6.547888 9.8547231,6.440553 10.15625,6.34375 9.9000482,6.443972 9.6695391,6.580022 9.4375,6.71875 c -0.00741,0.0044 -0.023866,-0.0045 -0.03125,0 -0.031933,0.0193 -0.062293,0.04251 -0.09375,0.0625 -0.120395,0.0767 -0.2310226,0.163513 -0.34375,0.25 -0.1061728,0.0808 -0.2132809,0.161112 -0.3125,0.25 C 8.4783201,7.442683 8.3087904,7.626638 8.15625,7.8125 8.0486711,7.942755 7.9378561,8.077785 7.84375,8.21875 7.818661,8.25713 7.805304,8.30462 7.78125,8.34375 7.716487,8.446782 7.6510225,8.548267 7.59375,8.65625 7.4927417,8.850956 7.3880752,9.071951 7.3125,9.28125 7.30454,9.30306 7.288911,9.3218 7.28125,9.34375 7.2494249,9.4357 7.2454455,9.530581 7.21875,9.625 7.1884177,9.731618 7.1483606,9.828031 7.125,9.9375 7.0521214,10.279012 7,10.635705 7,11 l 0,2 0,68 0,2 c 0,2.781848 2.2181517,5 5,5 l 2,0 68,0 2,0 c 2.781848,0 5,-2.218152 5,-5 l 0,-2 0,-68 0,-2 C 89,10.635705 88.94788,10.279012 88.875,9.9375 88.83085,9.730607 88.78662,9.539842 88.71875,9.34375 88.71105,9.3218 88.69545,9.30306 88.6875,9.28125 88.62476,9.107511 88.549117,8.913801 88.46875,8.75 88.42717,8.6672 88.38971,8.580046 88.34375,8.5 88.28915,8.40279 88.216976,8.31165 88.15625,8.21875 88.06214,8.077785 87.951329,7.942755 87.84375,7.8125 87.700576,7.63805 87.540609,7.465502 87.375,7.3125 87.36383,7.3023 87.35502,7.29135 87.34375,7.28125 87.205364,7.155694 87.058659,7.046814 86.90625,6.9375 86.803679,6.86435 86.701932,6.784136 86.59375,6.71875 c -0.0074,-0.0045 -0.02384,0.0044 -0.03125,0 -0.232039,-0.138728 -0.462548,-0.274778 -0.71875,-0.375 0.301527,0.0968 0.596455,0.204138 0.875,0.34375 0.55709,0.279224 1.060053,0.665694 1.5,1.09375 0.219973,0.214028 0.409366,0.441865 0.59375,0.6875 0.184384,0.245635 0.355408,0.507743 0.5,0.78125 0.14012,0.265048 0.276135,0.524729 0.375,0.8125 0.01041,0.03078 0.02133,0.06274 0.03125,0.09375 0.09046,0.278085 0.1388,0.579404 0.1875,0.875 C 89.95865,11.3493 90,11.665279 90,12 l 0,2 0,68 0,2 c 0,3.324 -2.676,6 -6,6 l -72,0 z"
       inkscape:connector-curvature="0"
       id="path3615"
       style="opacity:0.3;fill:url(#radialGradient3619);fill-opacity:1;fill-rule:nonzero;stroke:none" />
  </g>
  <g
     id="layer5"
     style="display:inline">
    <rect
       width="66"
       height="66"
       rx="12"
       ry="12"
       x="15"
       y="15"
       clip-path="url(#clipPath3613)"
       id="rect3171"
       style="opacity:0.5;fill:url(#linearGradient3613);fill-opacity:1;fill-rule:nonzero;stroke:#ffffff;stroke-width:0.5;stroke-linecap:round;stroke-linejoin:miter;stroke-miterlimit:4;stroke-opacity:1;stroke-dasharray:none;stroke-dashoffset:0;filter:url(#filter3794)" />
  </g>
  <g
     id="g3134"
     transform="translate(-0.27621347,-0.27621387)">
    <path
       style="fill:#77c8e0"
       d="m 29.658863,66.521659 -8.002934,-7.918787 0.0051,-10.467668 0.0051,-10.467668 8.330004,-8.329026 8.330005,-8.329026 10.023925,0 10.023925,0 8.330004,8.329026 8.330005,8.329026 0,10.466139 0,10.46614 -7.925625,7.925625 -7.925625,7.925625 -10.7605,-0.0053 -10.7605,-0.0053 -8.002935,-7.918786 z"
       id="path3140"
       inkscape:connector-curvature="0" />
    <path
       style="fill:#457582"
       d="M 29.731799,66.447386 21.8018,58.602872 21.8077,48.133926 21.8136,37.66498 l 8.295711,-8.290892 8.295712,-8.290891 9.945086,0 9.945086,0 8.295712,8.290891 8.295711,8.290892 0,10.470811 0,10.470811 -7.853605,7.848519 -7.853604,7.848519 -10.758809,-0.0059 -10.758807,-0.0059 -7.929999,-7.844512 z m 33.806614,-3.679756 6.476346,-6.523559 0.0034,-8.4798 0.0034,-8.479799 -6.744697,-6.820283 -6.744696,-6.820281 -8.18209,0 -8.18209,0 -6.744696,6.820281 -6.744697,6.820283 0.0034,8.479799 0.0034,8.4798 6.476345,6.523559 6.476345,6.523558 8.711954,0 8.711954,0 6.476345,-6.523558 z m -3.558388,-8.580266 c -2.311097,-0.637279 -4.194478,-2.501133 -4.768404,-4.718963 -0.626097,-2.419438 0.102444,-4.877798 1.947485,-6.571517 3.274691,-3.006113 8.457877,-1.92235 10.398272,2.174197 0.448588,0.947052 0.47398,1.091899 0.47398,2.703695 0,1.668196 -0.01122,1.725723 -0.54812,2.81208 -0.593014,1.199882 -1.610631,2.290884 -2.768943,2.968625 -1.332201,0.779485 -3.26396,1.037316 -4.73427,0.631883 z"
       id="path3138"
       inkscape:connector-curvature="0" />
    <path
       style="fill:#050607"
       d="m 29.814634,66.307696 -7.853604,-7.848519 -0.005,-10.395331 -0.005,-10.395331 8.223994,-8.139787 8.223993,-8.139786 10.026702,-0.0054 10.026702,-0.0054 8.143436,8.14834 8.143435,8.14834 0,10.390878 0,10.390876 -7.850895,7.849866 -7.850896,7.849868 -10.684585,0 -10.684583,0 -7.853605,-7.848519 z m 33.828976,-3.247069 6.525412,-6.525412 0,-8.770531 0,-8.770532 -6.818997,-6.817814 -6.818997,-6.817815 -8.180914,0 -8.180914,0 -6.818997,6.817815 -6.818997,6.817814 0,8.770532 0,8.770531 6.525412,6.525412 6.525412,6.525412 8.768084,0 8.768084,0 6.525412,-6.525412 z m -4.108338,-9.294996 c -1.267978,-0.432209 -2.536336,-1.416947 -3.254967,-2.527115 -0.805466,-1.244313 -1.047249,-2.192131 -0.975578,-3.824391 0.04939,-1.124749 0.134751,-1.504286 0.526539,-2.341014 1.302478,-2.78166 4.339221,-4.198244 7.329912,-3.419268 3.17347,0.826584 5.161632,3.862867 4.645398,7.094363 -0.620976,3.887161 -4.56621,6.280364 -8.271304,5.017425 z"
       id="path3136"
       inkscape:connector-curvature="0" />
  </g>
</svg>
