<?xml version="1.0" encoding="UTF-8" standalone="no"?>
<!-- Created with Inkscape (http://www.inkscape.org/) -->

<svg
   xmlns:dc="http://purl.org/dc/elements/1.1/"
   xmlns:cc="http://creativecommons.org/ns#"
   xmlns:rdf="http://www.w3.org/1999/02/22-rdf-syntax-ns#"
   xmlns:svg="http://www.w3.org/2000/svg"
   xmlns="http://www.w3.org/2000/svg"
   xmlns:xlink="http://www.w3.org/1999/xlink"
   xmlns:sodipodi="http://sodipodi.sourceforge.net/DTD/sodipodi-0.dtd"
   xmlns:inkscape="http://www.inkscape.org/namespaces/inkscape"
   version="1.0"
   width="96"
   height="96"
   id="svg2408"
   inkscape:version="0.48.0 r9654"
   sodipodi:docname="pgadmin.svg">
  <sodipodi:namedview
     pagecolor="#ffffff"
     bordercolor="#666666"
     borderopacity="1"
     objecttolerance="10"
     gridtolerance="10"
     guidetolerance="10"
     inkscape:pageopacity="0"
     inkscape:pageshadow="2"
     inkscape:window-width="1280"
     inkscape:window-height="751"
     id="namedview54"
     showgrid="false"
     inkscape:zoom="3.9332815"
     inkscape:cx="63.913372"
     inkscape:cy="50.098314"
     inkscape:window-x="0"
     inkscape:window-y="24"
     inkscape:window-maximized="1"
     inkscape:current-layer="svg2408" />
  <defs
     id="defs2410">
    <linearGradient
       id="linearGradient3666">
      <stop
         id="stop3668"
         style="stop-color:#115575;stop-opacity:1"
         offset="0" />
      <stop
         id="stop3670"
         style="stop-color:#197ba9;stop-opacity:1"
         offset="1" />
    </linearGradient>
    <linearGradient
       x1="45.447727"
       y1="92.539597"
       x2="45.447727"
       y2="7.0165396"
       id="ButtonShadow"
       gradientUnits="userSpaceOnUse"
       gradientTransform="scale(1.0058652,0.994169)">
      <stop
         id="stop3750"
         style="stop-color:#000000;stop-opacity:1"
         offset="0" />
      <stop
         id="stop3752"
         style="stop-color:#000000;stop-opacity:0.58823532"
         offset="1" />
    </linearGradient>
    <linearGradient
       id="linearGradient3737">
      <stop
         id="stop3739"
         style="stop-color:#ffffff;stop-opacity:1"
         offset="0" />
      <stop
         id="stop3741"
         style="stop-color:#ffffff;stop-opacity:0"
         offset="1" />
    </linearGradient>
    <linearGradient
       id="linearGradient3700">
      <stop
         id="stop3702"
         style="stop-color:#146d96;stop-opacity:0.97254902;"
         offset="0" />
      <stop
         id="stop3704"
         style="stop-color:#3cade2;stop-opacity:0.99607843"
         offset="1" />
    </linearGradient>
    <filter
       color-interpolation-filters="sRGB"
       id="filter3174">
      <feGaussianBlur
         id="feGaussianBlur3176"
         stdDeviation="1.71" />
    </filter>
    <linearGradient
       x1="36.357143"
       y1="6"
       x2="36.357143"
       y2="63.893143"
       id="linearGradient3188"
       xlink:href="#linearGradient3737"
       gradientUnits="userSpaceOnUse"
       gradientTransform="translate(122.96634,-10.255091)" />
    <filter
       x="-0.192"
       y="-0.192"
       width="1.3839999"
       height="1.3839999"
       color-interpolation-filters="sRGB"
       id="filter3794">
      <feGaussianBlur
         id="feGaussianBlur3796"
         stdDeviation="5.28" />
    </filter>
    <radialGradient
       cx="48"
       cy="90.171875"
       r="42"
       fx="48"
       fy="90.171875"
       id="radialGradient3619"
       xlink:href="#linearGradient3737"
       gradientUnits="userSpaceOnUse"
       gradientTransform="matrix(1.1573129,0,0,0.99590774,115.41532,-10.401709)" />
    <clipPath
       id="clipPath3613">
      <rect
         width="84"
         height="84"
         rx="6"
         ry="6"
         x="6"
         y="6"
         id="rect3615"
         style="fill:#ffffff;fill-opacity:1;fill-rule:nonzero;stroke:none" />
    </clipPath>
    <linearGradient
       x1="48"
       y1="90"
       x2="48"
       y2="5.9877172"
       id="linearGradient3617"
       xlink:href="#linearGradient3700"
       gradientUnits="userSpaceOnUse"
       gradientTransform="translate(122.96629,-10.426966)" />
    <linearGradient
       x1="45.447727"
       y1="92.539597"
       x2="45.447727"
       y2="7.0165396"
       id="ButtonShadow-0"
       gradientUnits="userSpaceOnUse"
       gradientTransform="matrix(1.0058652,0,0,0.994169,100,0)">
      <stop
         id="stop3750-8"
         style="stop-color:#000000;stop-opacity:1"
         offset="0" />
      <stop
         id="stop3752-5"
         style="stop-color:#000000;stop-opacity:0.58823532"
         offset="1" />
    </linearGradient>
    <linearGradient
       x1="32.251034"
       y1="6.1317081"
       x2="32.251034"
       y2="90.238609"
       id="linearGradient3780"
       xlink:href="#ButtonShadow-0"
       gradientUnits="userSpaceOnUse"
       gradientTransform="matrix(1.0238095,0,0,1.0119048,-1.1428571,-98.071429)" />
    <linearGradient
       x1="32.251034"
       y1="6.1317081"
       x2="32.251034"
       y2="90.238609"
       id="linearGradient3772"
       xlink:href="#ButtonShadow-0"
       gradientUnits="userSpaceOnUse"
       gradientTransform="matrix(1.0238095,0,0,1.0119048,-1.1428571,-98.071429)" />
    <linearGradient
       x1="32.251034"
       y1="6.1317081"
       x2="32.251034"
       y2="90.238609"
       id="linearGradient3725"
       xlink:href="#ButtonShadow-0"
       gradientUnits="userSpaceOnUse"
       gradientTransform="matrix(1.0238095,0,0,1.0119048,-1.1428571,-98.071429)" />
    <linearGradient
       x1="32.251034"
       y1="6.1317081"
       x2="32.251034"
       y2="90.238609"
       id="linearGradient3721"
       xlink:href="#ButtonShadow-0"
       gradientUnits="userSpaceOnUse"
       gradientTransform="translate(0,-97)" />
    <linearGradient
       x1="32.251034"
       y1="6.1317081"
       x2="32.251034"
       y2="90.238609"
       id="linearGradient3026"
       xlink:href="#ButtonShadow-0"
       gradientUnits="userSpaceOnUse"
       gradientTransform="matrix(1.0238095,0,0,1.0119048,-1.1428571,-98.071429)" />
    <linearGradient
       x1="46.796001"
       y1="71.448395"
       x2="46.796001"
       y2="22.992983"
       id="linearGradient3672"
       xlink:href="#linearGradient3666"
       gradientUnits="userSpaceOnUse"
       gradientTransform="translate(20.134831,-77.303371)" />
    <linearGradient
       inkscape:collect="always"
       xlink:href="#linearGradient3666"
       id="linearGradient3842"
       gradientUnits="userSpaceOnUse"
       gradientTransform="matrix(0.78377237,0,0,0.78377237,-100.26507,-839.17248)"
       x1="234.08568"
       y1="437.60461"
       x2="231.29059"
       y2="42.805531" />
    <filter
       inkscape:collect="always"
       id="filter3876">
      <feGaussianBlur
         inkscape:collect="always"
         stdDeviation="8.1232254"
         id="feGaussianBlur3878" />
    </filter>
    <linearGradient
       inkscape:collect="always"
       xlink:href="#linearGradient3700"
       id="linearGradient3880"
       gradientUnits="userSpaceOnUse"
       gradientTransform="translate(122.96629,-10.426966)"
       x1="48"
       y1="90"
       x2="48"
       y2="5.9877172" />
    <linearGradient
       inkscape:collect="always"
       xlink:href="#linearGradient3737"
       id="linearGradient3882"
       gradientUnits="userSpaceOnUse"
       gradientTransform="translate(122.96634,-10.255091)"
       x1="36.357143"
       y1="6"
       x2="36.357143"
       y2="63.893143" />
    <radialGradient
       inkscape:collect="always"
       xlink:href="#linearGradient3737"
       id="radialGradient3884"
       gradientUnits="userSpaceOnUse"
       gradientTransform="matrix(1.1573129,0,0,0.99590774,115.41532,-10.401709)"
       cx="48"
       cy="90.171875"
       fx="48"
       fy="90.171875"
       r="42" />
  </defs>
  <metadata
     id="metadata2413">
    <rdf:RDF>
      <cc:Work
         rdf:about="">
        <dc:format>image/svg+xml</dc:format>
        <dc:type
           rdf:resource="http://purl.org/dc/dcmitype/StillImage" />
        <dc:title></dc:title>
      </cc:Work>
    </rdf:RDF>
  </metadata>
  <g
     id="layer2"
     style="display:none">
    <rect
       width="86"
       height="85"
       rx="6"
       ry="6"
       x="5"
       y="7"
       id="rect3745"
       style="opacity:0.9;fill:url(#ButtonShadow);fill-opacity:1;fill-rule:nonzero;stroke:none;filter:url(#filter3174)" />
  </g>
  <g
     id="layer3"
     transform="matrix(0,1,-1,0,97.5,0)">
    <path
       d="m 12,-95.03125 c -5.5110903,0 -10.03125,4.52016 -10.03125,10.03125 l 0,71 c 0,5.5110902 4.5201598,10.03125 10.03125,10.03125 l 72,0 c 5.51109,0 10.03125,-4.5201597 10.03125,-10.03125 l 0,-71 c 0,-5.51109 -4.52016,-10.03125 -10.03125,-10.03125 l -72,0 z"
       transform="scale(1,-1)"
       id="path3786"
       style="opacity:0.07999998;fill:url(#linearGradient3026);fill-opacity:1;fill-rule:nonzero;stroke:none;display:inline"
       inkscape:connector-curvature="0" />
    <path
       d="m 12,-94.03125 c -4.971633,0 -9.03125,4.059617 -9.03125,9.03125 l 0,71 c 0,4.9716329 4.0596171,9.03125 9.03125,9.03125 l 72,0 c 4.971633,0 9.03125,-4.059617 9.03125,-9.03125 l 0,-71 c 0,-4.971633 -4.059617,-9.03125 -9.03125,-9.03125 l -72,0 z"
       transform="scale(1,-1)"
       id="path3778"
       style="opacity:0.1;fill:url(#linearGradient3780);fill-opacity:1;fill-rule:nonzero;stroke:none;display:inline"
       inkscape:connector-curvature="0" />
    <path
       d="m 12,-93 c -4.4091333,0 -8,3.590867 -8,8 l 0,71 c 0,4.4091333 3.5908667,8 8,8 l 72,0 c 4.409133,0 8,-3.5908667 8,-8 l 0,-71 c 0,-4.409133 -3.590867,-8 -8,-8 l -72,0 z"
       transform="scale(1,-1)"
       id="path3770"
       style="opacity:0.2;fill:url(#linearGradient3772);fill-opacity:1;fill-rule:nonzero;stroke:none;display:inline"
       inkscape:connector-curvature="0" />
    <rect
       width="86"
       height="85"
       rx="7"
       ry="7"
       x="5"
       y="-92"
       transform="scale(1,-1)"
       id="rect3723"
       style="opacity:0.3;fill:url(#linearGradient3725);fill-opacity:1;fill-rule:nonzero;stroke:none;display:inline" />
    <rect
       width="84"
       height="84"
       rx="6"
       ry="6"
       x="6"
       y="-91"
       transform="scale(1,-1)"
       id="rect3716"
       style="opacity:0.45;fill:url(#linearGradient3721);fill-opacity:1;fill-rule:nonzero;stroke:none;display:inline" />
  </g>
  <g
     id="layer1"
     transform="translate(-122.96639,10.426966)">
    <rect
       width="84"
       height="84"
       rx="6"
       ry="6"
       x="128.96629"
       y="-4.4269662"
       id="rect2419"
       style="fill:url(#linearGradient3880);fill-opacity:1;fill-rule:nonzero;stroke:none" />
    <path
       d="m 134.96634,-4.255091 c -3.324,0 -6,2.676 -6,6 l 0,2 0,68 0,2 c 0,0.334721 0.0413,0.6507 0.0937,0.96875 0.0487,0.295596 0.097,0.596915 0.1875,0.875 0.01,0.03038 0.0209,0.0636 0.0312,0.09375 0.0989,0.287771 0.23488,0.547452 0.375,0.8125 0.14459,0.273507 0.31561,0.535615 0.5,0.78125 0.18438,0.245635 0.37378,0.473472 0.59375,0.6875 0.43995,0.428056 0.94291,0.814526 1.5,1.09375 0.27854,0.139612 0.57347,0.246947 0.875,0.34375 -0.2562,-0.100222 -0.48671,-0.236272 -0.71875,-0.375 -0.007,-0.0044 -0.0239,0.0045 -0.0312,0 -0.0319,-0.0193 -0.0623,-0.04251 -0.0937,-0.0625 -0.1204,-0.0767 -0.23102,-0.163513 -0.34375,-0.25 -0.10617,-0.0808 -0.21328,-0.161112 -0.3125,-0.25 -0.17793,-0.161433 -0.34746,-0.345388 -0.5,-0.53125 -0.10758,-0.130255 -0.21839,-0.265285 -0.3125,-0.40625 -0.0251,-0.03838 -0.0385,-0.08587 -0.0625,-0.125 -0.0648,-0.103032 -0.13023,-0.204517 -0.1875,-0.3125 -0.10101,-0.194706 -0.20568,-0.415701 -0.28125,-0.625 -0.008,-0.02181 -0.0236,-0.04055 -0.0312,-0.0625 -0.0318,-0.09195 -0.0358,-0.186831 -0.0625,-0.28125 -0.0303,-0.106618 -0.0704,-0.203031 -0.0937,-0.3125 -0.0729,-0.341512 -0.125,-0.698205 -0.125,-1.0625 l 0,-2 0,-68 0,-2 c 0,-2.781848 2.21815,-5 5,-5 l 2,0 68,0 2,0 c 2.78185,0 5,2.218152 5,5 l 0,2 0,68 0,2 c 0,0.364295 -0.0521,0.720988 -0.125,1.0625 -0.0442,0.206893 -0.0884,0.397658 -0.15625,0.59375 -0.008,0.02195 -0.0233,0.04069 -0.0312,0.0625 -0.0627,0.173739 -0.13838,0.367449 -0.21875,0.53125 -0.0416,0.0828 -0.079,0.169954 -0.125,0.25 -0.0546,0.09721 -0.12678,0.18835 -0.1875,0.28125 -0.0941,0.140965 -0.20492,0.275995 -0.3125,0.40625 -0.14317,0.17445 -0.30314,0.346998 -0.46875,0.5 -0.0112,0.0102 -0.02,0.02115 -0.0312,0.03125 -0.13839,0.125556 -0.28509,0.234436 -0.4375,0.34375 -0.10257,0.07315 -0.20432,0.153364 -0.3125,0.21875 -0.007,0.0045 -0.0238,-0.0044 -0.0312,0 -0.23204,0.138728 -0.46255,0.274778 -0.71875,0.375 0.30153,-0.0968 0.59645,-0.204138 0.875,-0.34375 0.55709,-0.279224 1.06005,-0.665694 1.5,-1.09375 0.21997,-0.214028 0.40936,-0.441865 0.59375,-0.6875 0.18438,-0.245635 0.35541,-0.507743 0.5,-0.78125 0.14012,-0.265048 0.27613,-0.524729 0.375,-0.8125 0.0104,-0.03078 0.0213,-0.06274 0.0312,-0.09375 0.0905,-0.278085 0.1388,-0.579404 0.1875,-0.875 0.0524,-0.31805 0.0937,-0.634029 0.0937,-0.96875 l 0,-2 0,-68 0,-2 c 0,-3.324 -2.676,-6 -6,-6 l -72,0 z"
       inkscape:connector-curvature="0"
       id="rect3728"
       style="opacity:0.4;fill:url(#linearGradient3882);fill-opacity:1;fill-rule:nonzero;stroke:none" />
    <path
       d="m 134.96634,79.401159 c -3.324,0 -6,-2.676 -6,-6 l 0,-2 0,-68 0,-2 c 0,-0.334721 0.0413,-0.6507 0.0937,-0.96875 0.0487,-0.295596 0.097,-0.596915 0.1875,-0.875 0.01,-0.03038 0.0209,-0.0636 0.0312,-0.09375 0.0989,-0.287771 0.23488,-0.547452 0.375,-0.8125 0.14459,-0.273507 0.31561,-0.535615 0.5,-0.78125 0.18438,-0.245635 0.37378,-0.473472 0.59375,-0.6875 0.43995,-0.428056 0.94291,-0.814526 1.5,-1.09375 0.27854,-0.139612 0.57347,-0.246947 0.875,-0.34375 -0.2562,0.100222 -0.48671,0.236272 -0.71875,0.375 -0.007,0.0044 -0.0239,-0.0045 -0.0312,0 -0.0319,0.0193 -0.0623,0.04251 -0.0937,0.0625 -0.1204,0.0767 -0.23102,0.163513 -0.34375,0.25 -0.10617,0.0808 -0.21328,0.161112 -0.3125,0.25 -0.17793,0.161433 -0.34746,0.345388 -0.5,0.53125 -0.10758,0.130255 -0.21839,0.265285 -0.3125,0.40625 -0.0251,0.03838 -0.0385,0.08587 -0.0625,0.125 -0.0648,0.103032 -0.13023,0.204517 -0.1875,0.3125 -0.10101,0.194706 -0.20568,0.415701 -0.28125,0.625 -0.008,0.02181 -0.0236,0.04055 -0.0312,0.0625 -0.0318,0.09195 -0.0358,0.186831 -0.0625,0.28125 -0.0303,0.106618 -0.0704,0.203031 -0.0937,0.3125 -0.0729,0.341512 -0.125,0.698205 -0.125,1.0625 l 0,2 0,68 0,2 c 0,2.781848 2.21815,5 5,5 l 2,0 68,0 2,0 c 2.78185,0 5,-2.218152 5,-5 l 0,-2 0,-68 0,-2 c 0,-0.364295 -0.0521,-0.720988 -0.125,-1.0625 -0.0442,-0.206893 -0.0884,-0.397658 -0.15625,-0.59375 -0.008,-0.02195 -0.0233,-0.04069 -0.0312,-0.0625 -0.0627,-0.173739 -0.13838,-0.367449 -0.21875,-0.53125 -0.0416,-0.0828 -0.079,-0.169954 -0.125,-0.25 -0.0546,-0.09721 -0.12678,-0.18835 -0.1875,-0.28125 -0.0941,-0.140965 -0.20492,-0.275995 -0.3125,-0.40625 -0.14317,-0.17445 -0.30314,-0.346998 -0.46875,-0.5 -0.0112,-0.0102 -0.02,-0.02115 -0.0312,-0.03125 -0.13839,-0.125556 -0.28509,-0.234436 -0.4375,-0.34375 -0.10257,-0.07315 -0.20432,-0.153364 -0.3125,-0.21875 -0.007,-0.0045 -0.0238,0.0044 -0.0312,0 -0.23204,-0.138728 -0.46255,-0.274778 -0.71875,-0.375 0.30153,0.0968 0.59645,0.204138 0.875,0.34375 0.55709,0.279224 1.06005,0.665694 1.5,1.09375 0.21997,0.214028 0.40936,0.441865 0.59375,0.6875 0.18438,0.245635 0.35541,0.507743 0.5,0.78125 0.14012,0.265048 0.27613,0.524729 0.375,0.8125 0.0104,0.03078 0.0213,0.06274 0.0312,0.09375 0.0905,0.278085 0.1388,0.579404 0.1875,0.875 0.0524,0.31805 0.0937,0.634029 0.0937,0.96875 l 0,2 0,68 0,2 c 0,3.324 -2.676,6 -6,6 l -72,0 z"
       inkscape:connector-curvature="0"
       id="path3615"
       style="opacity:0.2;fill:url(#radialGradient3884);fill-opacity:1;fill-rule:nonzero;stroke:none" />
    <g
       transform="matrix(0.20349602,0,0,0.20349602,44.767746,192.76627)"
       id="orginal"
       style="fill-rule:nonzero;stroke:#000000;stroke-miterlimit:4" />
    <g
       transform="matrix(0.20349602,0,0,0.20349602,155.37631,171.95486)"
       id="Layer_x0020_3"
       style="fill:none;stroke:#ffffff;stroke-width:12.46510029;stroke-linecap:round;stroke-linejoin:round;stroke-miterlimit:4">
      <path
         inkscape:connector-curvature="0"
         style="fill:#000000;stroke:#000000;stroke-width:29.30940437;stroke-linecap:butt;stroke-linejoin:miter;stroke-opacity:0.17916667;filter:url(#filter3876)"
         d="m 153.05409,-585.05231 c 2.22042,-18.49782 1.555,-21.21045 15.33294,-18.2141 l 3.49797,0.30725 c 10.59425,0.48202 24.45292,-1.70392 32.59474,-5.48641 17.52672,-8.13242 27.91954,-21.71049 10.63736,-18.14276 -39.42139,8.13242 -42.13169,-5.21601 -42.13169,-5.21601 41.62694,-61.76361 59.02826,-140.16671 44.00805,-159.35817 -40.96779,-52.34737 -111.88194,-27.59348 -113.06857,-26.95079 l -0.37778,0.0697 c -7.78913,-1.61615 -16.506247,-2.58174 -26.298699,-2.74007 -17.839443,-0.29313 -31.375975,4.67677 -41.644177,12.46511 0,0 -126.50713,-52.11929 -120.62179,65.54532 1.25169,25.03056 35.87875,189.40251 77.1780714,139.75445 15.094673,-18.15451 29.6822436,-33.5047 29.6822436,-33.5047 7.243623,4.81236 15.916066,7.26714 25.011744,6.3854 l 0.703043,-0.59959 c -0.220239,2.25413 -0.123052,4.45888 0.281375,7.06884 -10.637359,11.88748 -7.511674,13.97466 -28.782474,18.35281 -21.5200366,4.43537 -8.877005,12.33188 -0.624666,14.39555 10.007206,2.50259 33.157491,6.04759 48.803938,-15.85101 l -0.623099,2.49867 c 4.173588,3.33887 3.89143,23.99832 4.483178,38.75911 0.592532,14.76156 1.580869,28.53637 4.589771,36.65781 3.008903,8.11988 6.559392,29.03877 34.514201,23.04761 23.36347,-5.00674 41.22642,-12.21273 42.85432,-79.24487"
         id="path6" />
      <path
         inkscape:connector-curvature="0"
         style="fill:url(#linearGradient3842);fill-opacity:1;stroke:none"
         d="m 215.12102,-626.5899 c -39.42531,8.13242 -42.13561,-5.216 -42.13561,-5.216 41.62694,-61.76754 59.02826,-140.17221 44.01118,-159.36131 -40.96778,-52.34424 -111.88507,-27.58878 -113.06857,-26.94609 l -0.38091,0.0682 c -7.78913,-1.61691 -16.506247,-2.58017 -26.303401,-2.74007 -17.839443,-0.29234 -31.371273,4.67678 -41.639475,12.46356 0,0 -126.50948,-52.11695 -120.6257,65.54688 1.25168,25.03213 35.87796,189.40408 77.1788464,139.75602 15.095456,-18.15452 29.6806756,-33.50471 29.6806756,-33.50471 7.244407,4.81237 15.91685,7.26715 25.008609,6.3854 l 0.706179,-0.59958 c -0.219456,2.25412 -0.119134,4.45887 0.282941,7.06884 -10.639709,11.88748 -7.513241,13.97466 -28.782473,18.35281 -21.5216046,4.43537 -8.878573,12.33188 -0.623882,14.39555 10.007205,2.50258 33.159058,6.04758 48.80237,-15.85102 l -0.623882,2.49867 c 4.168885,3.33888 7.096275,21.71912 6.605633,38.38055 -0.490641,16.66222 -0.818258,28.10138 2.466532,37.03638 3.28479,8.93501 6.558607,29.03877 34.518907,23.04761 23.36347,-5.00674 35.4704,-17.9813 37.15472,-39.62361 1.19525,-15.38623 3.90005,-13.11173 4.07092,-26.86771 l 2.16947,-6.51237 c 2.50181,-20.85697 0.39738,-27.58566 14.79136,-24.45605 l 3.49797,0.30723 c 10.59426,0.48202 24.45997,-1.70392 32.59788,-5.4864 17.52358,-8.13243 27.91641,-21.7105 10.63815,-18.14276 z"
         id="path8" />
      <path
         inkscape:connector-curvature="0"
         d="m 68.924749,-614.63423 c -1.085525,38.80927 0.272753,77.88894 4.07013,87.3867 3.799728,9.49775 11.931367,27.97126 39.894011,21.98089 23.36113,-5.0083 31.86113,-14.70043 35.54956,-36.0935 2.71656,-15.73972 7.95372,-59.45227 8.62542,-68.40844"
         id="path10"
         style="stroke-width:9.76980114" />
      <path
         inkscape:connector-curvature="0"
         d="m 35.409075,-809.18848 c 0,0 -126.595691,-51.74152 -120.710351,65.92231 1.25168,25.03212 35.88031,189.40956 77.1804174,139.75915 15.092321,-18.15687 28.7417166,-32.39723 28.7417166,-32.39723"
         id="path12"
         style="stroke-width:9.76980114" />
      <path
         inkscape:connector-curvature="0"
         d="m 103.7893,-818.63216 c -4.382076,1.37396 70.42037,-27.34504 112.9314,26.97509 15.01629,19.18989 -2.38502,97.59456 -44.01117,159.36365"
         id="path14"
         style="stroke-width:9.76980114" />
      <path
         inkscape:connector-curvature="0"
         style="stroke-width:9.76980114;stroke-linejoin:bevel"
         d="m 172.70875,-632.29342 c 0,0 2.71263,13.35235 42.13874,5.21444 17.27434,-3.56773 6.87839,10.01191 -10.64128,18.14826 -14.3783,6.67303 -46.61408,8.38322 -47.14077,-0.83786 -1.35515,-23.7914 16.96631,-16.56346 15.64409,-22.52484 -1.19526,-5.36884 -9.38881,-10.63814 -14.80859,-23.77807 -4.73164,-11.46895 -64.893218,-99.42075 16.68416,-86.3584 2.98852,-0.6184 -21.27629,-77.59503 -97.621198,-78.84671 -76.3276726,-1.25169 -73.8235196,93.86614 -73.8235196,93.86614"
         id="path16" />
      <path
         inkscape:connector-curvature="0"
         d="m 47.557546,-624.15707 c -10.641277,11.88669 -7.511674,13.97388 -28.782473,18.35359 -21.5216046,4.43616 -8.8770046,12.3311 -0.624666,14.39398 10.007205,2.50416 33.159058,6.04916 48.80237,-15.85493 4.763769,-6.66912 -0.02822,-17.31039 -6.571931,-20.02303 -3.161737,-1.30969 -7.389405,-2.95091 -12.8233,3.13039 z"
         id="path18"
         style="stroke-width:9.76980114" />
      <path
         inkscape:connector-curvature="0"
         d="m 46.860773,-624.36477 c -1.072201,-6.9889 2.296453,-15.30551 5.906508,-25.03526 5.425272,-14.59854 17.942902,-29.19944 7.929426,-75.50785 -7.463865,-34.50871 -57.5257566,-7.1817 -57.5571076,-2.50258 -0.03057,4.67755 2.264318,23.71696 -0.836286,45.88831 -4.045832,28.93138 18.4092456,53.39998 44.2666806,50.89661"
         id="path20"
         style="stroke-width:9.76980114" />
      <path
         inkscape:connector-curvature="0"
         style="fill:#ffffff;stroke-width:3.25657415;stroke-linecap:butt;stroke-linejoin:miter"
         d="m 34.949,-728.11194 c -0.225726,1.59812 2.925823,5.86262 7.035142,6.43243 4.102264,0.57215 7.613565,-2.76045 7.836156,-4.357 0.222592,-1.59811 -2.925039,-3.35846 -7.035925,-3.93062 -4.104616,-0.57293 -7.617484,0.261 -7.834589,1.85519 z"
         id="path22" />
      <path
         inkscape:connector-curvature="0"
         style="fill:#ffffff;stroke-width:1.62828708;stroke-linecap:butt;stroke-linejoin:miter"
         d="m 159.90112,-731.37008 c 0.2226,1.59811 -2.92504,5.86262 -7.03514,6.43242 -4.1054,0.57215 -7.6167,-2.76045 -7.84163,-4.35699 -0.21711,-1.59811 2.93129,-3.35847 7.03748,-3.93061 4.10619,-0.57216 7.6167,0.26099 7.83929,1.85597 z"
         id="path24" />
      <path
         inkscape:connector-curvature="0"
         d="m 174.5851,-742.42989 c 0.67639,12.53565 -2.7001,21.07407 -3.12569,34.41858 -0.63015,19.3968 9.24773,41.59794 -5.63611,63.82651"
         id="path26"
         style="stroke-width:9.76980114" />
      <path
         inkscape:connector-curvature="0"
         style="stroke-width:2.35131717"
         d="M -100.26507,-791.9643"
         id="path28" />
    </g>
  </g>
  <g
     id="layer5">
    <rect
       width="66"
       height="66"
       rx="12"
       ry="12"
       x="15"
       y="15"
       clip-path="url(#clipPath3613)"
       id="rect3171"
       style="opacity:0.1;fill:#69ffff;fill-opacity:1;fill-rule:nonzero;stroke:#ffffff;stroke-width:0.5;stroke-linecap:round;stroke-linejoin:miter;stroke-miterlimit:4;stroke-opacity:1;stroke-dasharray:none;stroke-dashoffset:0;filter:url(#filter3794)" />
  </g>
</svg>
