<?xml version="1.0" encoding="UTF-8" standalone="no"?>
<!-- Created with Inkscape (http://www.inkscape.org/) -->

<svg
   xmlns:dc="http://purl.org/dc/elements/1.1/"
   xmlns:cc="http://creativecommons.org/ns#"
   xmlns:rdf="http://www.w3.org/1999/02/22-rdf-syntax-ns#"
   xmlns:svg="http://www.w3.org/2000/svg"
   xmlns="http://www.w3.org/2000/svg"
   xmlns:xlink="http://www.w3.org/1999/xlink"
   xmlns:sodipodi="http://sodipodi.sourceforge.net/DTD/sodipodi-0.dtd"
   xmlns:inkscape="http://www.inkscape.org/namespaces/inkscape"
   version="1.0"
   width="96"
   height="96"
   id="svg2408"
   inkscape:version="0.48.0 r9654"
   sodipodi:docname="addressbook.svg">
  <metadata
     id="metadata96">
    <rdf:RDF>
      <cc:Work
         rdf:about="">
        <dc:format>image/svg+xml</dc:format>
        <dc:type
           rdf:resource="http://purl.org/dc/dcmitype/StillImage" />
        <dc:title></dc:title>
      </cc:Work>
    </rdf:RDF>
  </metadata>
  <sodipodi:namedview
     pagecolor="#ffffff"
     bordercolor="#666666"
     borderopacity="1"
     objecttolerance="10"
     gridtolerance="10"
     guidetolerance="10"
     inkscape:pageopacity="0"
     inkscape:pageshadow="2"
     inkscape:window-width="1024"
     inkscape:window-height="576"
     id="namedview94"
     showgrid="false"
     inkscape:zoom="0.83333333"
     inkscape:cx="32.340432"
     inkscape:cy="31.524199"
     inkscape:window-x="0"
     inkscape:window-y="0"
     inkscape:window-maximized="1"
     inkscape:current-layer="svg2408" />
  <defs
     id="defs2410">
    <linearGradient
       id="linearGradient3778">
      <stop
         id="stop3780"
         style="stop-color:#000000;stop-opacity:1"
         offset="0" />
      <stop
         id="stop3786"
         style="stop-color:#000000;stop-opacity:0"
         offset="0.5" />
      <stop
         id="stop3782"
         style="stop-color:#ffffff;stop-opacity:1"
         offset="1" />
    </linearGradient>
    <linearGradient
       id="linearGradient3761">
      <stop
         id="stop3763"
         style="stop-color:#000000;stop-opacity:1"
         offset="0" />
      <stop
         id="stop3769"
         style="stop-color:#000000;stop-opacity:0.19379845"
         offset="0.5" />
      <stop
         id="stop3765"
         style="stop-color:#000000;stop-opacity:0"
         offset="1" />
    </linearGradient>
    <linearGradient
       id="linearGradient3745">
      <stop
         id="stop3747"
         style="stop-color:#8a8a8a;stop-opacity:1"
         offset="0" />
      <stop
         id="stop3753"
         style="stop-color:#d5d5d5;stop-opacity:1"
         offset="0.40964222" />
      <stop
         id="stop3755"
         style="stop-color:#6f6f6f;stop-opacity:1"
         offset="0.72741055" />
      <stop
         id="stop3749"
         style="stop-color:#373737;stop-opacity:1"
         offset="1" />
    </linearGradient>
    <linearGradient
       id="linearGradient3640">
      <stop
         id="stop3642"
         style="stop-color:#1a1a1a;stop-opacity:1"
         offset="0" />
      <stop
         id="stop3644"
         style="stop-color:#2a2a2a;stop-opacity:1"
         offset="1" />
    </linearGradient>
    <linearGradient
       id="linearGradient3627">
      <stop
         id="stop3629"
         style="stop-color:#5f101a;stop-opacity:1"
         offset="0" />
      <stop
         id="stop3631"
         style="stop-color:#811524;stop-opacity:1"
         offset="1" />
    </linearGradient>
    <linearGradient
       x1="45.447727"
       y1="92.539597"
       x2="45.447727"
       y2="7.0165396"
       id="ButtonShadow"
       gradientUnits="userSpaceOnUse"
       gradientTransform="scale(1.0058652,0.994169)">
      <stop
         id="stop3750"
         style="stop-color:#000000;stop-opacity:1"
         offset="0" />
      <stop
         id="stop3752"
         style="stop-color:#000000;stop-opacity:0.58823532"
         offset="1" />
    </linearGradient>
    <linearGradient
       id="linearGradient3737">
      <stop
         id="stop3739"
         style="stop-color:#ffffff;stop-opacity:1"
         offset="0" />
      <stop
         id="stop3741"
         style="stop-color:#ffffff;stop-opacity:0"
         offset="1" />
    </linearGradient>
    <filter
       color-interpolation-filters="sRGB"
       id="filter3174">
      <feGaussianBlur
         id="feGaussianBlur3176"
         stdDeviation="1.71" />
    </filter>
    <linearGradient
       x1="36.357143"
       y1="6"
       x2="36.357143"
       y2="63.893143"
       id="linearGradient3188"
       xlink:href="#linearGradient3737"
       gradientUnits="userSpaceOnUse" />
    <filter
       x="-0.192"
       y="-0.192"
       width="1.3839999"
       height="1.3839999"
       color-interpolation-filters="sRGB"
       id="filter3794">
      <feGaussianBlur
         id="feGaussianBlur3796"
         stdDeviation="5.28" />
    </filter>
    <linearGradient
       x1="48"
       y1="20.220806"
       x2="48"
       y2="138.66119"
       id="linearGradient3613"
       xlink:href="#linearGradient3737"
       gradientUnits="userSpaceOnUse" />
    <radialGradient
       cx="48"
       cy="90.171875"
       r="42"
       fx="48"
       fy="90.171875"
       id="radialGradient3619"
       xlink:href="#linearGradient3737"
       gradientUnits="userSpaceOnUse"
       gradientTransform="matrix(1.1573129,0,0,0.99590774,-7.5510206,0.19713193)" />
    <clipPath
       id="clipPath3613">
      <rect
         width="84"
         height="84"
         rx="6"
         ry="6"
         x="6"
         y="6"
         id="rect3615"
         style="fill:#ffffff;fill-opacity:1;fill-rule:nonzero;stroke:none" />
    </clipPath>
    <linearGradient
       x1="54.75"
       y1="90"
       x2="54.75"
       y2="5.9794726"
       id="linearGradient3633"
       xlink:href="#linearGradient3627"
       gradientUnits="userSpaceOnUse" />
    <linearGradient
       x1="16"
       y1="88"
       x2="16"
       y2="8"
       id="linearGradient3646"
       xlink:href="#linearGradient3640"
       gradientUnits="userSpaceOnUse" />
    <clipPath
       id="clipPath3674">
      <g
         transform="translate(0,-0.500001)"
         id="g3676"
         style="font-size:44.84671402px;font-style:normal;font-variant:normal;font-weight:normal;font-stretch:normal;text-align:start;line-height:125%;writing-mode:lr-tb;text-anchor:start;fill:#ffffff;fill-opacity:1;stroke:none;font-family:Droid Sans;-inkscape-font-specification:Abandoned Bitplane">
        <path
           d="m 73.036498,46.0073 c -3.7e-5,0.905125 -0.07303,1.817532 -0.218978,2.737226 -0.131423,0.905122 -0.335803,1.773734 -0.613139,2.60584 -0.262809,0.817528 -0.605874,1.58395 -1.029197,2.29927 -0.408793,0.700737 -0.890545,1.313875 -1.445255,1.839416 -0.554778,0.525553 -1.189813,0.941611 -1.90511,1.248175 -0.70076,0.291976 -1.474482,0.437961 -2.321168,0.437956 -0.656962,5e-6 -1.255502,-0.109484 -1.79562,-0.328467 -0.525574,-0.218973 -0.978128,-0.510943 -1.357664,-0.875913 -0.379588,-0.364957 -0.693456,-0.781015 -0.941606,-1.248175 -0.233601,-0.481744 -0.394185,-0.978094 -0.481752,-1.489051 l -0.08759,0 c -0.262798,0.540154 -0.591265,1.051103 -0.985402,1.532847 -0.394183,0.481758 -0.854037,0.905116 -1.379562,1.270073 -0.51097,0.35037 -1.094911,0.627742 -1.751824,0.832117 -0.642356,0.204384 -1.350384,0.306574 -2.124088,0.306569 -1.124104,5e-6 -2.124103,-0.204375 -3,-0.613139 -0.861328,-0.408753 -1.591254,-0.978095 -2.189781,-1.708029 -0.598552,-0.744518 -1.058406,-1.635028 -1.379562,-2.671533 -0.30658,-1.036485 -0.459865,-2.182469 -0.459854,-3.437956 -1.1e-5,-1.474438 0.211668,-2.824801 0.635037,-4.051095 0.437944,-1.226258 1.058381,-2.284651 1.861314,-3.175182 C 50.8832,40.62776 51.8686,39.93433 53.0219,39.437957 c 1.153267,-0.496327 2.445236,-0.744502 3.875912,-0.744525 0.656913,2.3e-5 1.313847,0.02922 1.970803,0.08759 0.656911,0.05842 1.284648,0.138709 1.883212,0.240876 0.598515,0.102212 1.14596,0.219001 1.642335,0.350365 0.510923,0.116811 0.93428,0.233599 1.270073,0.350365 l -0.503649,9.109488 c -0.01463,0.321181 -0.02922,0.583955 -0.0438,0.788322 -2.6e-5,0.189793 -2.6e-5,0.343077 0,0.459854 -2.6e-5,0.1168 -2.6e-5,0.204391 0,0.262773 -2.6e-5,0.05841 -2.6e-5,0.109501 0,0.153285 -2.6e-5,0.773733 0.07297,1.408769 0.218978,1.905109 0.160557,0.49636 0.364937,0.89052 0.613139,1.182482 0.248147,0.291979 0.525519,0.496358 0.832117,0.613139 0.321139,0.102197 0.649606,0.153292 0.985401,0.153284 0.671503,8e-6 1.262743,-0.21897 1.773723,-0.656934 0.510917,-0.452546 0.934274,-1.058385 1.270073,-1.817518 0.350332,-0.759113 0.613105,-1.649623 0.788321,-2.671533 0.175149,-1.021884 0.26274,-2.102175 0.262773,-3.240876 -3.3e-5,-2.072974 -0.313901,-3.912388 -0.941605,-5.518248 -0.627769,-1.620414 -1.496382,-2.985376 -2.60584,-4.09489 -1.109517,-1.109462 -2.430684,-1.948877 -3.963503,-2.518248 -1.518273,-0.583913 -3.175205,-0.875883 -4.970803,-0.875912 -2.467172,2.9e-5 -4.642352,0.408787 -6.525547,1.226277 -1.883224,0.802947 -3.467164,1.934332 -4.751825,3.39416 -1.270081,1.445279 -2.233584,3.167905 -2.890511,5.167883 -0.65694,1.985419 -0.985407,4.160599 -0.985401,6.525548 -6e-6,2.20439 0.284665,4.160592 0.854014,5.868613 0.583935,1.708034 1.430649,3.145989 2.540146,4.313868 1.124078,1.167885 2.510938,2.051095 4.160584,2.649635 1.664219,0.59854 3.569326,0.897809 5.715328,0.89781 0.890491,-1e-6 1.766403,-0.0511 2.627738,-0.153284 0.875889,-0.102191 1.715305,-0.240877 2.518248,-0.416059 0.817493,-0.175182 1.591215,-0.372263 2.321167,-0.591241 0.7299,-0.233576 1.408732,-0.474452 2.036497,-0.722627 l 0,3.087591 c -1.255502,0.554742 -2.671559,0.992697 -4.248175,1.313868 -1.576665,0.321164 -3.31389,0.481748 -5.211679,0.481752 -2.613155,-4e-6 -4.948919,-0.372266 -7.007299,-1.116788 -2.043806,-0.744528 -3.78103,-1.824819 -5.211679,-3.240876 -1.416063,-1.430655 -2.496354,-3.167879 -3.240876,-5.211679 -0.744528,-2.058386 -1.11679,-4.39415 -1.116788,-7.007299 -2e-6,-2.74451 0.430654,-5.299252 1.291971,-7.664233 0.861309,-2.379539 2.087585,-4.437931 3.678832,-6.175182 1.60583,-1.737198 3.540135,-3.10216 5.802919,-4.094891 2.277357,-0.992669 4.8248,-1.489019 7.642336,-1.489051 2.277349,3.2e-5 4.372237,0.372295 6.284671,1.116789 1.91238,0.729957 3.562013,1.78835 4.948905,3.175182 1.401427,1.372289 2.489017,3.051119 3.262774,5.036496 0.773686,1.970824 1.160547,4.197099 1.160584,6.678832 m -21.963503,2.824817 c -1.5e-5,1.941618 0.364948,3.350375 1.09489,4.226278 0.74451,0.861322 1.737209,1.291978 2.978102,1.29197 0.802901,8e-6 1.489031,-0.160576 2.058395,-0.481751 0.569321,-0.335758 1.036474,-0.802911 1.401459,-1.40146 0.364941,-0.613129 0.642313,-1.335756 0.832117,-2.167883 0.189758,-0.846703 0.313846,-1.773709 0.372263,-2.781022 l 0.306569,-5.540146 c -0.408782,-0.116768 -0.897833,-0.218958 -1.467153,-0.306569 -0.554766,-0.10217 -1.138707,-0.153264 -1.751825,-0.153285 -1.080311,2.1e-5 -1.992719,0.211699 -2.737226,0.635037 -0.729944,0.423377 -1.328483,0.978121 -1.79562,1.664233 -0.45257,0.686149 -0.781037,1.46717 -0.985402,2.343066 -0.204394,0.875927 -0.306584,1.766437 -0.306569,2.671532"
           id="path3678" />
      </g>
    </clipPath>
    <clipPath
       id="clipPath3724">
      <path
         d="m 32,24 0,48 48,0 0,-48 -48,0 z m 25.375,6 c 2.277349,3.2e-5 4.368816,0.380506 6.28125,1.125 1.91238,0.729957 3.581858,1.769418 4.96875,3.15625 1.401427,1.372289 2.476243,3.077123 3.25,5.0625 0.773686,1.970824 1.156213,4.174517 1.15625,6.65625 -3.7e-5,0.905125 -0.0728,1.830306 -0.21875,2.75 -0.131423,0.905122 -0.316414,1.761644 -0.59375,2.59375 -0.262809,0.817528 -0.607927,1.59718 -1.03125,2.3125 -0.408793,0.700737 -0.91404,1.318209 -1.46875,1.84375 -0.554778,0.525553 -1.190953,0.943436 -1.90625,1.25 -0.70076,0.291976 -1.465814,0.437505 -2.3125,0.4375 -0.656962,5e-6 -1.241132,-0.124767 -1.78125,-0.34375 -0.525574,-0.218973 -0.995464,-0.51003 -1.375,-0.875 -0.379588,-0.364957 -0.68935,-0.78284 -0.9375,-1.25 -0.233601,-0.481744 -0.381183,-0.989043 -0.46875,-1.5 l -0.09375,0 c -0.262798,0.540154 -0.605863,1.080756 -1,1.5625 -0.394183,0.481758 -0.849475,0.885043 -1.375,1.25 -0.51097,0.35037 -1.093087,0.639375 -1.75,0.84375 -0.642356,0.204384 -1.351296,0.312505 -2.125,0.3125 -1.124104,5e-6 -2.124103,-0.216236 -3,-0.625 -0.861328,-0.408753 -1.588973,-0.988816 -2.1875,-1.71875 -0.598552,-0.744518 -1.053844,-1.619745 -1.375,-2.65625 -0.30658,-1.036485 -0.468761,-2.182013 -0.46875,-3.4375 -1.1e-5,-1.474438 0.232881,-2.836206 0.65625,-4.0625 0.437944,-1.226258 1.040817,-2.265719 1.84375,-3.15625 0.817503,-0.890489 1.81545,-1.597377 2.96875,-2.09375 1.153267,-0.496327 2.444324,-0.749977 3.875,-0.75 0.656913,2.3e-5 1.311794,0.03538 1.96875,0.09375 0.656911,0.05842 1.276436,0.147833 1.875,0.25 0.598515,0.102212 1.159875,0.212386 1.65625,0.34375 0.510923,0.116811 0.914207,0.226984 1.25,0.34375 l -0.5,9.125 c -0.01463,0.321181 -0.01667,0.576883 -0.03125,0.78125 -2.6e-5,0.189793 -2.6e-5,0.351973 0,0.46875 -2.6e-5,0.1168 -2.6e-5,0.191618 0,0.25 -2.6e-5,0.05841 -2.6e-5,0.112466 0,0.15625 -2.6e-5,0.773733 0.07274,1.40991 0.21875,1.90625 0.160557,0.49636 0.345548,0.895538 0.59375,1.1875 0.248147,0.291979 0.537152,0.476969 0.84375,0.59375 0.321139,0.102197 0.664205,0.156258 1,0.15625 0.671503,8e-6 1.23902,-0.218286 1.75,-0.65625 0.510917,-0.452546 0.945451,-1.053367 1.28125,-1.8125 0.350332,-0.759113 0.606034,-1.63434 0.78125,-2.65625 0.175149,-1.021884 0.281217,-2.111299 0.28125,-3.25 -3.3e-5,-2.072974 -0.341046,-3.92539 -0.96875,-5.53125 -0.627769,-1.620414 -1.484292,-2.984236 -2.59375,-4.09375 -1.109517,-1.109462 -2.435931,-1.930629 -3.96875,-2.5 -1.518273,-0.583913 -3.173152,-0.874971 -4.96875,-0.875 -2.467172,2.9e-5 -4.648055,0.40126 -6.53125,1.21875 -1.883224,0.802947 -3.465339,1.915172 -4.75,3.375 -1.270081,1.445279 -2.218073,3.187522 -2.875,5.1875 -0.65694,1.985419 -1.000006,4.166301 -1,6.53125 -6e-6,2.20439 0.305651,4.135729 0.875,5.84375 0.583935,1.708034 1.421753,3.144621 2.53125,4.3125 1.124078,1.16789 2.506604,2.05771 4.15625,2.65625 C 51.445469,62.69229 53.353998,63 55.5,63 c 0.890491,0 1.763665,-0.0541 2.625,-0.15625 0.875889,-0.10219 1.728307,-0.23107 2.53125,-0.40625 0.817493,-0.17519 1.582548,-0.37478 2.3125,-0.59375 C 63.69865,61.61017 64.372235,61.37317 65,61.125 l 0,3.09375 c -1.255502,0.55474 -2.673384,0.99133 -4.25,1.3125 C 59.173335,65.85241 57.429039,66 55.53125,66 c -2.613155,0 -4.94162,-0.38048 -7,-1.125 -2.043806,-0.74453 -3.788101,-1.8027 -5.21875,-3.21875 -1.416063,-1.43066 -2.474228,-3.17495 -3.21875,-5.21875 -0.744528,-2.058386 -1.125002,-4.386851 -1.125,-7 -2e-6,-2.74451 0.419933,-5.322519 1.28125,-7.6875 0.861309,-2.379539 2.096253,-4.418999 3.6875,-6.15625 1.60583,-1.737198 3.549716,-3.101019 5.8125,-4.09375 2.277357,-0.992669 4.807464,-1.499968 7.625,-1.5 z m -0.46875,11.53125 c -1.080311,2.1e-5 -2.005493,0.201662 -2.75,0.625 -0.729944,0.423377 -1.314113,0.970138 -1.78125,1.65625 -0.45257,0.686149 -0.795635,1.467854 -1,2.34375 -0.204394,0.875927 -0.312515,1.782405 -0.3125,2.6875 -1.5e-5,1.941618 0.363808,3.342847 1.09375,4.21875 0.74451,0.861322 1.759107,1.281258 3,1.28125 0.802901,8e-6 1.493136,-0.147575 2.0625,-0.46875 0.569321,-0.335758 1.010015,-0.807701 1.375,-1.40625 0.364941,-0.613129 0.653946,-1.324123 0.84375,-2.15625 0.189758,-0.846703 0.316583,-1.773937 0.375,-2.78125 l 0.3125,-5.5625 c -0.408782,-0.116768 -0.89943,-0.224889 -1.46875,-0.3125 -0.554766,-0.10217 -1.136882,-0.124979 -1.75,-0.125 z"
         id="path3726"
         style="opacity:0.2;fill:#ff00ff;fill-opacity:1;stroke:none" />
    </clipPath>
    <linearGradient
       x1="9"
       y1="22"
       x2="9"
       y2="26"
       id="linearGradient3751"
       xlink:href="#linearGradient3745"
       gradientUnits="userSpaceOnUse" />
    <linearGradient
       x1="4"
       y1="24"
       x2="12"
       y2="24"
       id="linearGradient3767"
       xlink:href="#linearGradient3761"
       gradientUnits="userSpaceOnUse"
       spreadMethod="reflect" />
    <linearGradient
       x1="10"
       y1="24"
       x2="18"
       y2="24"
       id="linearGradient3784"
       xlink:href="#linearGradient3778"
       gradientUnits="userSpaceOnUse"
       gradientTransform="matrix(0,1,1,0,-10,10)" />
    <filter
       color-interpolation-filters="sRGB"
       id="filter3669">
      <feGaussianBlur
         id="feGaussianBlur3671"
         stdDeviation="0.52554746" />
    </filter>
    <linearGradient
       x1="45.447727"
       y1="92.539597"
       x2="45.447727"
       y2="7.0165396"
       id="ButtonShadow-0"
       gradientUnits="userSpaceOnUse"
       gradientTransform="matrix(1.0058652,0,0,0.994169,100,0)">
      <stop
         id="stop3750-8"
         style="stop-color:#000000;stop-opacity:1"
         offset="0" />
      <stop
         id="stop3752-5"
         style="stop-color:#000000;stop-opacity:0.58823532"
         offset="1" />
    </linearGradient>
    <linearGradient
       x1="32.251034"
       y1="6.1317081"
       x2="32.251034"
       y2="90.238609"
       id="linearGradient3780"
       xlink:href="#ButtonShadow-0"
       gradientUnits="userSpaceOnUse"
       gradientTransform="matrix(1.0238095,0,0,1.0119048,-1.1428571,-98.071429)" />
    <linearGradient
       x1="32.251034"
       y1="6.1317081"
       x2="32.251034"
       y2="90.238609"
       id="linearGradient3772"
       xlink:href="#ButtonShadow-0"
       gradientUnits="userSpaceOnUse"
       gradientTransform="matrix(1.0238095,0,0,1.0119048,-1.1428571,-98.071429)" />
    <linearGradient
       x1="32.251034"
       y1="6.1317081"
       x2="32.251034"
       y2="90.238609"
       id="linearGradient3725"
       xlink:href="#ButtonShadow-0"
       gradientUnits="userSpaceOnUse"
       gradientTransform="matrix(1.0238095,0,0,1.0119048,-1.1428571,-98.071429)" />
    <linearGradient
       x1="32.251034"
       y1="6.1317081"
       x2="32.251034"
       y2="90.238609"
       id="linearGradient3721"
       xlink:href="#ButtonShadow-0"
       gradientUnits="userSpaceOnUse"
       gradientTransform="translate(0,-97)" />
    <linearGradient
       x1="32.251034"
       y1="6.1317081"
       x2="32.251034"
       y2="90.238609"
       id="linearGradient3059"
       xlink:href="#ButtonShadow-0"
       gradientUnits="userSpaceOnUse"
       gradientTransform="matrix(1.0238095,0,0,1.0119048,-1.1428571,-98.071429)" />
    <linearGradient
       inkscape:collect="always"
       xlink:href="#linearGradient11508"
       id="linearGradient3167"
       gradientUnits="userSpaceOnUse"
       gradientTransform="matrix(0.8665485,0.18119434,-0.27628685,0.56829955,79.868198,-3.286578)"
       x1="43.700191"
       y1="82.473648"
       x2="77.923637"
       y2="16.211916" />
    <linearGradient
       id="linearGradient11508">
      <stop
         id="stop11510"
         style="stop-color:#000000;stop-opacity:1"
         offset="0" />
      <stop
         id="stop11512"
         style="stop-color:#000000;stop-opacity:0"
         offset="1" />
    </linearGradient>
    <linearGradient
       inkscape:collect="always"
       xlink:href="#linearGradient11508"
       id="linearGradient3177"
       gradientUnits="userSpaceOnUse"
       gradientTransform="matrix(0.84442773,0.12130865,-0.12943075,0.79143776,68.641674,-19.302815)"
       x1="43.700191"
       y1="82.473648"
       x2="87.732079"
       y2="6.208179" />
    <linearGradient
       id="linearGradient3205">
      <stop
         id="stop3207"
         style="stop-color:#000000;stop-opacity:1"
         offset="0" />
      <stop
         id="stop3209"
         style="stop-color:#000000;stop-opacity:0"
         offset="1" />
    </linearGradient>
    <linearGradient
       inkscape:collect="always"
       xlink:href="#linearGradient10394"
       id="linearGradient3175"
       gradientUnits="userSpaceOnUse"
       gradientTransform="matrix(0.81423351,0,0,0.81423351,59.195076,-16.04655)"
       x1="60.899021"
       y1="35.60585"
       x2="68.2229"
       y2="39.53442" />
    <linearGradient
       id="linearGradient10394">
      <stop
         id="stop10396"
         style="stop-color:#1a1a1a;stop-opacity:1"
         offset="0" />
      <stop
         id="stop10404"
         style="stop-color:#636363;stop-opacity:1"
         offset="0.35185185" />
      <stop
         id="stop10402"
         style="stop-color:#c7c7c7;stop-opacity:1"
         offset="0.5" />
      <stop
         id="stop10406"
         style="stop-color:#636363;stop-opacity:1"
         offset="0.64999998" />
      <stop
         id="stop10398"
         style="stop-color:#000000;stop-opacity:1"
         offset="1" />
    </linearGradient>
    <linearGradient
       inkscape:collect="always"
       xlink:href="#linearGradient6531"
       id="linearGradient3173"
       gradientUnits="userSpaceOnUse"
       gradientTransform="matrix(0.59071981,-0.15821626,0.15862362,0.59174222,80.57202,-1.172334)"
       x1="24.248737"
       y1="77.502068"
       x2="13.405647"
       y2="67.6745" />
    <linearGradient
       id="linearGradient6531">
      <stop
         id="stop6533"
         style="stop-color:#c38125;stop-opacity:1"
         offset="0" />
      <stop
         id="stop10377"
         style="stop-color:#c68d31;stop-opacity:1"
         offset="0.62962961" />
      <stop
         id="stop6535"
         style="stop-color:#fffce6;stop-opacity:1"
         offset="1" />
    </linearGradient>
    <linearGradient
       inkscape:collect="always"
       xlink:href="#linearGradient10386"
       id="linearGradient3171"
       gradientUnits="userSpaceOnUse"
       gradientTransform="matrix(0.81423351,0,0,0.81423351,59.195076,-16.04655)"
       x1="58.651787"
       y1="68.171875"
       x2="47.450871"
       y2="57.993305" />
    <linearGradient
       id="linearGradient10386">
      <stop
         id="stop10388"
         style="stop-color:#ffffff;stop-opacity:1"
         offset="0" />
      <stop
         id="stop10390"
         style="stop-color:#ffffff;stop-opacity:0"
         offset="1" />
    </linearGradient>
    <radialGradient
       inkscape:collect="always"
       xlink:href="#linearGradient10410"
       id="radialGradient3169"
       gradientUnits="userSpaceOnUse"
       gradientTransform="matrix(0.37707103,-0.72166035,0.09020754,0.04713388,86.327257,54.202286)"
       cx="59.85154"
       cy="41.7043"
       fx="59.85154"
       fy="41.7043"
       r="18.182745" />
    <linearGradient
       id="linearGradient10410">
      <stop
         id="stop10412"
         style="stop-color:#ffffff;stop-opacity:1"
         offset="0" />
      <stop
         id="stop10414"
         style="stop-color:#ffffff;stop-opacity:0"
         offset="1" />
    </linearGradient>
    <radialGradient
       r="18.182745"
       fy="41.7043"
       fx="59.85154"
       cy="41.7043"
       cx="59.85154"
       gradientTransform="matrix(0.37707103,-0.72166035,0.09020754,0.04713388,86.327257,54.202286)"
       gradientUnits="userSpaceOnUse"
       id="radialGradient3241"
       xlink:href="#linearGradient10410"
       inkscape:collect="always" />
    <radialGradient
       inkscape:collect="always"
       xlink:href="#linearGradient3737"
       id="radialGradient3157"
       gradientUnits="userSpaceOnUse"
       gradientTransform="matrix(1.1573129,0,0,0.99590774,-7.5510206,0.19713193)"
       cx="48"
       cy="90.171875"
       fx="48"
       fy="90.171875"
       r="42" />
    <linearGradient
       inkscape:collect="always"
       xlink:href="#linearGradient3737"
       id="linearGradient3160"
       gradientUnits="userSpaceOnUse"
       x1="36.357143"
       y1="6"
       x2="36.357143"
       y2="63.893143" />
    <linearGradient
       inkscape:collect="always"
       xlink:href="#linearGradient3640"
       id="linearGradient3164"
       gradientUnits="userSpaceOnUse"
       x1="16"
       y1="88"
       x2="16"
       y2="8" />
  </defs>
  <g
     id="layer2"
     style="display:none">
    <rect
       width="86"
       height="85"
       rx="6"
       ry="6"
       x="5"
       y="7"
       id="rect3745"
       style="opacity:0.9;fill:url(#ButtonShadow);fill-opacity:1;fill-rule:nonzero;stroke:none;filter:url(#filter3174)" />
  </g>
  <g
     id="layer6"
     style="display:inline">
    <path
       d="m 12,-95.03125 c -5.5110903,0 -10.03125,4.52016 -10.03125,10.03125 l 0,71 c 0,5.5110902 4.5201598,10.03125 10.03125,10.03125 l 72,0 c 5.51109,0 10.03125,-4.5201597 10.03125,-10.03125 l 0,-71 c 0,-5.51109 -4.52016,-10.03125 -10.03125,-10.03125 l -72,0 z"
       transform="scale(1,-1)"
       id="path3786"
       style="opacity:0.07999998;fill:url(#linearGradient3059);fill-opacity:1;fill-rule:nonzero;stroke:none;display:inline" />
    <path
       d="m 12,-94.03125 c -4.971633,0 -9.03125,4.059617 -9.03125,9.03125 l 0,71 c 0,4.9716329 4.0596171,9.03125 9.03125,9.03125 l 72,0 c 4.971633,0 9.03125,-4.059617 9.03125,-9.03125 l 0,-71 c 0,-4.971633 -4.059617,-9.03125 -9.03125,-9.03125 l -72,0 z"
       transform="scale(1,-1)"
       id="path3778"
       style="opacity:0.1;fill:url(#linearGradient3780);fill-opacity:1;fill-rule:nonzero;stroke:none;display:inline" />
    <path
       d="m 12,-93 c -4.4091333,0 -8,3.590867 -8,8 l 0,71 c 0,4.4091333 3.5908667,8 8,8 l 72,0 c 4.409133,0 8,-3.5908667 8,-8 l 0,-71 c 0,-4.409133 -3.590867,-8 -8,-8 l -72,0 z"
       transform="scale(1,-1)"
       id="path3770"
       style="opacity:0.2;fill:url(#linearGradient3772);fill-opacity:1;fill-rule:nonzero;stroke:none;display:inline" />
    <rect
       width="86"
       height="85"
       rx="7"
       ry="7"
       x="5"
       y="-92"
       transform="scale(1,-1)"
       id="rect3723"
       style="opacity:0.3;fill:url(#linearGradient3725);fill-opacity:1;fill-rule:nonzero;stroke:none;display:inline" />
    <rect
       width="84"
       height="84"
       rx="6"
       ry="6"
       x="6"
       y="-91"
       transform="scale(1,-1)"
       id="rect3716"
       style="opacity:0.45;fill:url(#linearGradient3721);fill-opacity:1;fill-rule:nonzero;stroke:none;display:inline" />
  </g>
  <rect
     style="fill:#8b0000;fill-opacity:1;fill-rule:nonzero;stroke:none"
     id="rect2419"
     y="6"
     x="6"
     ry="6"
     rx="6"
     height="84"
     width="84" />
  <rect
     style="opacity:0.15;fill:#ffffff;fill-opacity:1;stroke:none"
     id="rect3650"
     y="6"
     x="24"
     height="84"
     width="1" />
  <path
     inkscape:connector-curvature="0"
     style="fill:url(#linearGradient3164);fill-opacity:1;stroke:none"
     id="rect3635"
     d="M 12,6 C 8.676,6 6,8.676 6,12 l 0,72 c 0,3.324 2.676,6 6,6 L 24,90 24,6 12,6 z" />
  <rect
     style="opacity:0.4;fill:#000000;fill-opacity:1;stroke:none"
     id="rect3648"
     y="6"
     x="23"
     height="84"
     width="1" />
  <path
     inkscape:connector-curvature="0"
     style="opacity:0.3;fill:url(#linearGradient3160);fill-opacity:1;fill-rule:nonzero;stroke:none"
     id="rect3728"
     d="M 12,6 C 8.676,6 6,8.676 6,12 l 0,2 0,68 0,2 c 0,0.334721 0.04135,0.6507 0.09375,0.96875 0.0487,0.295596 0.09704,0.596915 0.1875,0.875 0.00988,0.03038 0.020892,0.0636 0.03125,0.09375 0.098865,0.287771 0.2348802,0.547452 0.375,0.8125 0.1445918,0.273507 0.3156161,0.535615 0.5,0.78125 0.1843839,0.245635 0.3737765,0.473472 0.59375,0.6875 0.439947,0.428056 0.94291,0.814526 1.5,1.09375 0.278545,0.139612 0.5734731,0.246947 0.875,0.34375 -0.2562018,-0.100222 -0.4867109,-0.236272 -0.71875,-0.375 -0.00741,-0.0044 -0.023866,0.0045 -0.03125,0 -0.031933,-0.0193 -0.062293,-0.04251 -0.09375,-0.0625 -0.120395,-0.0767 -0.2310226,-0.163513 -0.34375,-0.25 -0.1061728,-0.0808 -0.2132809,-0.161112 -0.3125,-0.25 C 8.4783201,88.557317 8.3087904,88.373362 8.15625,88.1875 8.0486711,88.057245 7.9378561,87.922215 7.84375,87.78125 7.818661,87.74287 7.805304,87.69538 7.78125,87.65625 7.716487,87.553218 7.6510225,87.451733 7.59375,87.34375 7.4927417,87.149044 7.3880752,86.928049 7.3125,86.71875 7.30454,86.69694 7.288911,86.6782 7.28125,86.65625 7.2494249,86.5643 7.2454455,86.469419 7.21875,86.375 7.1884177,86.268382 7.1483606,86.171969 7.125,86.0625 7.0521214,85.720988 7,85.364295 7,85 L 7,83 7,15 7,13 C 7,10.218152 9.2181517,8 12,8 l 2,0 68,0 2,0 c 2.781848,0 5,2.218152 5,5 l 0,2 0,68 0,2 c 0,0.364295 -0.05212,0.720988 -0.125,1.0625 -0.04415,0.206893 -0.08838,0.397658 -0.15625,0.59375 -0.0077,0.02195 -0.0233,0.04069 -0.03125,0.0625 -0.06274,0.173739 -0.138383,0.367449 -0.21875,0.53125 -0.04158,0.0828 -0.07904,0.169954 -0.125,0.25 -0.0546,0.09721 -0.126774,0.18835 -0.1875,0.28125 -0.09411,0.140965 -0.204921,0.275995 -0.3125,0.40625 -0.143174,0.17445 -0.303141,0.346998 -0.46875,0.5 -0.01117,0.0102 -0.01998,0.02115 -0.03125,0.03125 -0.138386,0.125556 -0.285091,0.234436 -0.4375,0.34375 -0.102571,0.07315 -0.204318,0.153364 -0.3125,0.21875 -0.0074,0.0045 -0.02384,-0.0044 -0.03125,0 -0.232039,0.138728 -0.462548,0.274778 -0.71875,0.375 0.301527,-0.0968 0.596455,-0.204138 0.875,-0.34375 0.55709,-0.279224 1.060053,-0.665694 1.5,-1.09375 0.219973,-0.214028 0.409366,-0.441865 0.59375,-0.6875 0.184384,-0.245635 0.355408,-0.507743 0.5,-0.78125 0.14012,-0.265048 0.276135,-0.524729 0.375,-0.8125 0.01041,-0.03078 0.02133,-0.06274 0.03125,-0.09375 0.09046,-0.278085 0.1388,-0.579404 0.1875,-0.875 C 89.95865,84.6507 90,84.334721 90,84 l 0,-2 0,-68 0,-2 C 90,8.676 87.324,6 84,6 L 12,6 z" />
  <path
     inkscape:connector-curvature="0"
     style="opacity:0.2;fill:url(#radialGradient3157);fill-opacity:1;fill-rule:nonzero;stroke:none"
     id="path3615"
     d="M 12,90 C 8.676,90 6,87.324 6,84 L 6,82 6,14 6,12 c 0,-0.334721 0.04135,-0.6507 0.09375,-0.96875 0.0487,-0.295596 0.09704,-0.596915 0.1875,-0.875 C 6.29113,10.12587 6.302142,10.09265 6.3125,10.0625 6.411365,9.774729 6.5473802,9.515048 6.6875,9.25 6.8320918,8.976493 7.0031161,8.714385 7.1875,8.46875 7.3718839,8.223115 7.5612765,7.995278 7.78125,7.78125 8.221197,7.353194 8.72416,6.966724 9.28125,6.6875 9.559795,6.547888 9.8547231,6.440553 10.15625,6.34375 9.9000482,6.443972 9.6695391,6.580022 9.4375,6.71875 c -0.00741,0.0044 -0.023866,-0.0045 -0.03125,0 -0.031933,0.0193 -0.062293,0.04251 -0.09375,0.0625 -0.120395,0.0767 -0.2310226,0.163513 -0.34375,0.25 -0.1061728,0.0808 -0.2132809,0.161112 -0.3125,0.25 C 8.4783201,7.442683 8.3087904,7.626638 8.15625,7.8125 8.0486711,7.942755 7.9378561,8.077785 7.84375,8.21875 7.818661,8.25713 7.805304,8.30462 7.78125,8.34375 7.716487,8.446782 7.6510225,8.548267 7.59375,8.65625 7.4927417,8.850956 7.3880752,9.071951 7.3125,9.28125 7.30454,9.30306 7.288911,9.3218 7.28125,9.34375 7.2494249,9.4357 7.2454455,9.530581 7.21875,9.625 7.1884177,9.731618 7.1483606,9.828031 7.125,9.9375 7.0521214,10.279012 7,10.635705 7,11 l 0,2 0,68 0,2 c 0,2.781848 2.2181517,5 5,5 l 2,0 68,0 2,0 c 2.781848,0 5,-2.218152 5,-5 l 0,-2 0,-68 0,-2 C 89,10.635705 88.94788,10.279012 88.875,9.9375 88.83085,9.730607 88.78662,9.539842 88.71875,9.34375 88.71105,9.3218 88.69545,9.30306 88.6875,9.28125 88.62476,9.107511 88.549117,8.913801 88.46875,8.75 88.42717,8.6672 88.38971,8.580046 88.34375,8.5 88.28915,8.40279 88.216976,8.31165 88.15625,8.21875 88.06214,8.077785 87.951329,7.942755 87.84375,7.8125 87.700576,7.63805 87.540609,7.465502 87.375,7.3125 87.36383,7.3023 87.35502,7.29135 87.34375,7.28125 87.205364,7.155694 87.058659,7.046814 86.90625,6.9375 86.803679,6.86435 86.701932,6.784136 86.59375,6.71875 c -0.0074,-0.0045 -0.02384,0.0044 -0.03125,0 -0.232039,-0.138728 -0.462548,-0.274778 -0.71875,-0.375 0.301527,0.0968 0.596455,0.204138 0.875,0.34375 0.55709,0.279224 1.060053,0.665694 1.5,1.09375 0.219973,0.214028 0.409366,0.441865 0.59375,0.6875 0.184384,0.245635 0.355408,0.507743 0.5,0.78125 0.14012,0.265048 0.276135,0.524729 0.375,0.8125 0.01041,0.03078 0.02133,0.06274 0.03125,0.09375 0.09046,0.278085 0.1388,0.579404 0.1875,0.875 C 89.95865,11.3493 90,11.665279 90,12 l 0,2 0,68 0,2 c 0,3.324 -2.676,6 -6,6 l -72,0 z" />
  <g
     id="layer5">
    <rect
       width="66"
       height="66"
       rx="12"
       ry="12"
       x="15"
       y="15"
       clip-path="url(#clipPath3613)"
       id="rect3171"
       style="opacity:0.1;fill:url(#linearGradient3613);fill-opacity:1;fill-rule:nonzero;stroke:#ffffff;stroke-width:0.5;stroke-linecap:round;stroke-linejoin:miter;stroke-miterlimit:4;stroke-opacity:1;stroke-dasharray:none;stroke-dashoffset:0;filter:url(#filter3794)" />
  </g>
  <g
     id="layer4">
    <g
       id="g3799">
      <path
         d="m 10,24 c 0,-2.209139 1.790861,-4 4,-4 2.209139,0 4,1.790861 4,4 0,2.209139 -1.790861,4 -4,4 -2.209139,0 -4,-1.790861 -4,-4 z m 1,0 c 0,1.656854 1.343146,3 3,3 1.656854,0 3,-1.343146 3,-3 0,-1.656854 -1.343146,-3 -3,-3 -1.656854,0 -3,1.343146 -3,3 z"
         id="path3773"
         style="opacity:0.3;fill:url(#linearGradient3784);fill-opacity:1;stroke:none" />
      <path
         d="m 6,21 0,7 8,0 c 1.646385,0 3,-1.579217 3,-3.5 C 17,22.579218 15.646385,21 14,21 l -8,0 z"
         id="path3792"
         style="opacity:0.3;fill:#000000;fill-opacity:1;stroke:none" />
      <path
         d="m 17,24 a 3,3 0 1 1 -6,0 3,3 0 1 1 6,0 z"
         id="path3771"
         style="opacity:0.6;fill:#000000;fill-opacity:1;stroke:none" />
      <rect
         width="12"
         height="4"
         rx="2"
         ry="2"
         x="4"
         y="22"
         id="rect3733"
         style="fill:url(#linearGradient3751);fill-opacity:1;stroke:none" />
      <rect
         width="12"
         height="4"
         rx="2"
         ry="2"
         x="4"
         y="22"
         id="rect3759"
         style="opacity:0.6;fill:url(#linearGradient3767);fill-opacity:1;stroke:none" />
    </g>
    <use
       transform="translate(0,12)"
       id="use3806"
       x="0"
       y="0"
       width="96"
       height="96"
       xlink:href="#g3799" />
    <use
       transform="translate(0,24)"
       id="use3808"
       x="0"
       y="0"
       width="96"
       height="96"
       xlink:href="#g3799" />
    <use
       transform="translate(0,36)"
       id="use3810"
       x="0"
       y="0"
       width="96"
       height="96"
       xlink:href="#g3799" />
    <use
       transform="translate(0,48)"
       id="use3812"
       x="0"
       y="0"
       width="96"
       height="96"
       xlink:href="#g3799" />
  </g>
  <g
     transform="translate(-44.668849,35.636784)"
     id="g3179">
    <path
       d="m 132.47609,22.095201 c -3.68576,2.000634 -7.28471,3.988326 -10.53414,6.20853 -4.36505,2.982449 -7.4244,5.968755 -8.82935,8.244115 -0.006,0.01041 -0.0191,0.01507 -0.0254,0.02544 -0.85525,0.51272 -6.98728,4.21247 -10.10158,6.3612 -3.399985,2.345831 -9.134685,8.345893 -9.134685,8.345893 l 0.661564,0.407117 c 5.635631,-2.627661 16.971681,-5.241628 16.971681,-5.241628 l 0.38167,-0.101779 -0.10178,-0.254448 c 0,0 -0.0496,-0.106177 0,-0.432562 0.0496,-0.326383 0.21762,-0.839764 0.63612,-1.526688 0.90936,-1.492626 3.20688,-3.067916 4.75818,-4.020278 3.57789,-0.883217 8.63959,-3.238736 13.35852,-6.462978 0.67025,-0.457957 1.31324,-0.925417 1.95925,-1.399464 l 0,-10.152474 z"
       id="path10456"
       style="opacity:0.3;fill:url(#linearGradient3167);fill-opacity:1;stroke:none"
       inkscape:connector-curvature="0" />
    <path
       d="m 132.47609,-3.324152 c -5.82978,7.272351 -12.57812,13.15294 -17.76047,20.126835 -3.38381,4.553597 -5.54036,8.952846 -6.33575,12.162613 -0.004,0.01466 -0.0219,0.03627 -0.0254,0.05089 -0.67899,0.797208 -5.5292,6.494316 -7.93878,9.770802 C 97.785037,42.364029 93.8,51.10227 93.8,51.10227 l 0.712454,0.458006 C 99.154322,47.302698 109.06688,42.29837 109.06688,42.29837 l 0.33078,-0.178114 -0.12722,-0.330782 c 0,0 -0.075,-0.145659 -0.10178,-0.58523 -0.0268,-0.439571 -0.006,-1.143674 0.229,-2.111919 0.51038,-2.103906 2.31022,-4.503853 3.53683,-5.979527 3.12227,-1.662158 7.28312,-5.458711 10.94126,-10.381477 3.14441,-4.231437 5.76624,-8.827173 8.60034,-13.562077 l 0,-12.493396 z"
       id="path10430"
       style="opacity:0.2;fill:url(#linearGradient3177);fill-opacity:1;stroke:none"
       inkscape:connector-curvature="0" />
    <path
       d="m 117.36467,18.047205 c -4.0496,8.250949 -9.76408,14.11871 -11.84452,13.001 -2.21911,-1.192242 -1.14629,-8.796381 3.0089,-17.262474 4.15422,-8.464108 10.62733,-15.800098 14.88173,-25.250423 0.81079,-1.801005 2.3809,-4.461769 4.61005,-3.33162 2.31056,1.171419 1.68369,3.363479 0.46295,5.853374 -4.71424,9.615464 -7.0695,18.73919 -11.11911,26.990143 z"
       id="path10375"
       style="fill:url(#linearGradient3175);fill-opacity:1;stroke:#000000;stroke-width:1"
       inkscape:connector-curvature="0" />
    <path
       d="m 110.14315,26.451737 a 3.3364013,2.6238036 29.387745 1 1 -5.64924,1.513071 3.3364013,2.6238036 29.387745 1 1 5.64924,-1.513071 z"
       id="path4343"
       style="fill:none;stroke:#2e3436;stroke-width:1.96899939;stroke-linecap:round;stroke-miterlimit:4;stroke-opacity:1;stroke-dasharray:none"
       inkscape:connector-curvature="0" />
    <path
       d="m 94.161559,51.193444 c 0,0 2.407526,-9.38992 4.281362,-13.2553 1.873829,-3.865379 6.304139,-11.55474 6.304139,-11.55474 0,0 1.27823,-1.91199 3.34161,-0.895006 2.06338,1.016983 1.46779,2.970373 1.46779,2.970373 0,0 -3.1117,4.686438 -3.37058,8.302459 -0.14922,2.084416 0.33941,2.936243 0.33941,2.936243 0,0 -8.569633,6.443574 -12.363731,11.495971 z"
       id="path4341"
       style="fill:url(#linearGradient3173);fill-opacity:1;fill-rule:evenodd;stroke:#c17d11;stroke-width:1;stroke-linecap:butt;stroke-linejoin:miter;stroke-miterlimit:4;stroke-opacity:1;stroke-dasharray:none"
       inkscape:connector-curvature="0" />
    <path
       d="m 100.43485,37.866197 a 0.54471218,1.2424658 27.632951 1 1 -1.003865,-0.429988 0.54471218,1.2424658 27.632951 0 1 1.003865,0.429988 z"
       id="path6537"
       style="fill:#000000;fill-opacity:0.6;stroke:#c17d11;stroke-width:0.33466133;stroke-linecap:round;stroke-miterlimit:4;stroke-opacity:1;stroke-dasharray:none"
       inkscape:connector-curvature="0" />
    <path
       d="m 94.209903,50.956262 c 1.69882,-4.379088 2.911293,-8.067331 5.035554,-12.111901"
       id="path8007"
       style="fill:#c17d11;fill-opacity:1;fill-rule:evenodd;stroke:#c17d11;stroke-width:0.34297702;stroke-linecap:butt;stroke-linejoin:miter;stroke-miterlimit:4;stroke-opacity:1;stroke-dasharray:none"
       inkscape:connector-curvature="0" />
    <path
       d="m 107.79464,26.827933 c -0.17821,0.144702 -0.29683,0.295173 -0.30534,0.305338 -5e-5,8.7e-5 -0.0254,-1.01e-4 -0.0254,0 -0.0614,0.106624 -4.405,7.678924 -6.20853,11.399269 -0.6145,1.267612 -1.345488,3.313606 -2.010138,5.419742 2.749348,-2.47473 5.108118,-4.248228 5.750528,-4.732733 -0.12267,-0.603229 -0.20766,-1.446458 -0.12723,-2.569924 0.15355,-2.144791 1.06338,-4.307571 1.90836,-6.004972 0.76484,-1.536417 1.36704,-2.440336 1.50125,-2.646259 0.009,-0.03587 0.0442,-0.171917 0,-0.432562 -0.041,-0.241605 -0.0862,-0.47758 -0.48346,-0.737899 z"
       id="path10381"
       style="fill:url(#linearGradient3171);fill-opacity:1;fill-rule:evenodd;stroke:none"
       inkscape:connector-curvature="0" />
    <path
       d="M 119.51377,-0.146278 A 1.850625,14.805 27.587286 1 1 105.8014,26.097254 1.850625,14.805 27.587286 0 1 119.51377,-0.146278 z"
       id="path10408"
       style="fill:url(#radialGradient3241);fill-opacity:1;stroke:none"
       inkscape:connector-curvature="0" />
  </g>
</svg>
