<?xml version="1.0" encoding="UTF-8" standalone="no"?>
<!-- Created with Inkscape (http://www.inkscape.org/) -->

<svg
   xmlns:dc="http://purl.org/dc/elements/1.1/"
   xmlns:cc="http://creativecommons.org/ns#"
   xmlns:rdf="http://www.w3.org/1999/02/22-rdf-syntax-ns#"
   xmlns:svg="http://www.w3.org/2000/svg"
   xmlns="http://www.w3.org/2000/svg"
   xmlns:xlink="http://www.w3.org/1999/xlink"
   xmlns:sodipodi="http://sodipodi.sourceforge.net/DTD/sodipodi-0.dtd"
   xmlns:inkscape="http://www.inkscape.org/namespaces/inkscape"
   version="1.0"
   width="96"
   height="96"
   id="svg2408"
   inkscape:version="0.48.1 r9760"
   sodipodi:docname="cloudsn.svg">
  <sodipodi:namedview
     pagecolor="#ffffff"
     bordercolor="#666666"
     borderopacity="1"
     objecttolerance="10"
     gridtolerance="10"
     guidetolerance="10"
     inkscape:pageopacity="0"
     inkscape:pageshadow="2"
     inkscape:window-width="640"
     inkscape:window-height="480"
     id="namedview156"
     showgrid="false"
     inkscape:zoom="2.990248"
     inkscape:cx="48"
     inkscape:cy="48"
     inkscape:window-x="89"
     inkscape:window-y="193"
     inkscape:window-maximized="0"
     inkscape:current-layer="svg2408"
     inkscape:object-paths="true" />
  <defs
     id="defs2410">
    <radialGradient
       cx="622.72803"
       cy="621.17328"
       r="510.71881"
       fx="622.72803"
       fy="621.17328"
       id="radialGradient3809"
       gradientUnits="userSpaceOnUse">
      <stop
         id="stop3811"
         style="stop-color:#f0f0f0;stop-opacity:1"
         offset="0" />
      <stop
         id="stop3813"
         style="stop-color:#e1e1e1;stop-opacity:1"
         offset="0.2814" />
      <stop
         id="stop3815"
         style="stop-color:#c0c0c0;stop-opacity:1"
         offset="0.75150001" />
      <stop
         id="stop3817"
         style="stop-color:#b2b2b2;stop-opacity:1"
         offset="1" />
    </radialGradient>
    <linearGradient
       id="linearGradient3985">
      <stop
         id="stop3987"
         style="stop-color:#000000;stop-opacity:1"
         offset="0" />
      <stop
         id="stop3989"
         style="stop-color:#000000;stop-opacity:0"
         offset="1" />
    </linearGradient>
    <linearGradient
       x1="45.447727"
       y1="92.539597"
       x2="45.447727"
       y2="7.0165396"
       id="ButtonShadow"
       gradientUnits="userSpaceOnUse"
       gradientTransform="scale(1.0058652,0.994169)">
      <stop
         id="stop3750"
         style="stop-color:#000000;stop-opacity:1"
         offset="0" />
      <stop
         id="stop3752"
         style="stop-color:#000000;stop-opacity:0.58823532"
         offset="1" />
    </linearGradient>
    <linearGradient
       id="linearGradient3737">
      <stop
         id="stop3739"
         style="stop-color:#ffffff;stop-opacity:1"
         offset="0" />
      <stop
         id="stop3741"
         style="stop-color:#ffffff;stop-opacity:0"
         offset="1" />
    </linearGradient>
    <filter
       color-interpolation-filters="sRGB"
       id="filter3174">
      <feGaussianBlur
         id="feGaussianBlur3176"
         stdDeviation="1.71" />
    </filter>
    <linearGradient
       x1="36.357143"
       y1="6"
       x2="36.357143"
       y2="63.893143"
       id="linearGradient3188"
       xlink:href="#linearGradient3737"
       gradientUnits="userSpaceOnUse" />
    <filter
       x="-0.192"
       y="-0.192"
       width="1.3839999"
       height="1.3839999"
       color-interpolation-filters="sRGB"
       id="filter3794">
      <feGaussianBlur
         id="feGaussianBlur3796"
         stdDeviation="5.28" />
    </filter>
    <linearGradient
       x1="48"
       y1="20.220806"
       x2="48"
       y2="138.66119"
       id="linearGradient3613"
       xlink:href="#linearGradient3737"
       gradientUnits="userSpaceOnUse" />
    <radialGradient
       cx="48"
       cy="90.171875"
       r="42"
       fx="48"
       fy="90.171875"
       id="radialGradient3619"
       xlink:href="#linearGradient3737"
       gradientUnits="userSpaceOnUse"
       gradientTransform="matrix(1.1573129,0,0,0.99590774,-7.5510206,0.19713193)" />
    <clipPath
       id="clipPath3613">
      <rect
         width="84"
         height="84"
         rx="6"
         ry="6"
         x="6"
         y="6"
         id="rect3615"
         style="fill:#ffffff;fill-opacity:1;fill-rule:nonzero;stroke:none" />
    </clipPath>
    <linearGradient
       x1="48"
       y1="90"
       x2="48"
       y2="5.9877172"
       id="linearGradient3617"
       xlink:href="#radialGradient3809"
       gradientUnits="userSpaceOnUse"
       gradientTransform="translate(0,-96)" />
    <radialGradient
       cx="622.72803"
       cy="621.17328"
       r="510.71881"
       fx="622.72803"
       fy="621.17328"
       id="XMLID_22_"
       gradientUnits="userSpaceOnUse">
      <stop
         id="stop14"
         style="stop-color:#ffffff;stop-opacity:1"
         offset="0" />
      <stop
         id="stop16"
         style="stop-color:#e6e6e6;stop-opacity:1"
         offset="0.2814" />
      <stop
         id="stop18"
         style="stop-color:#c0c0c0;stop-opacity:1"
         offset="0.75150001" />
      <stop
         id="stop20"
         style="stop-color:#b2b2b2;stop-opacity:1"
         offset="1" />
    </radialGradient>
    <mask
       id="XMLID_23_">
      <g
         id="g31"
         style="filter:url(#Adobe_OpacityMaskFilter)">
        <radialGradient
           cx="88.977501"
           cy="-20.899401"
           r="673.11609"
           fx="88.977501"
           fy="-20.899401"
           id="XMLID_24_"
           gradientUnits="userSpaceOnUse">
          <stop
             id="stop34"
             style="stop-color:#ffffff;stop-opacity:1"
             offset="0.30899999" />
          <stop
             id="stop36"
             style="stop-color:#000000;stop-opacity:1"
             offset="1" />
        </radialGradient>
        <ellipse
           cx="295.89499"
           cy="286.172"
           rx="512.93402"
           ry="349.10599"
           id="ellipse38"
           style="fill:url(#XMLID_24_) #000000" />
      </g>
    </mask>
    <mask
       id="XMLID_13_">
      <g
         id="g193"
         style="filter:url(#Adobe_OpacityMaskFilter_4_)">
        <linearGradient
           x1="340.0488"
           y1="266.93359"
           x2="372.38071"
           y2="417.81519"
           id="XMLID_14_"
           gradientUnits="userSpaceOnUse">
          <stop
             id="stop196"
             style="stop-color:#ffffff;stop-opacity:1"
             offset="0" />
          <stop
             id="stop198"
             style="stop-color:#f8f8f8;stop-opacity:1"
             offset="0.0867" />
          <stop
             id="stop200"
             style="stop-color:#e4e4e4;stop-opacity:1"
             offset="0.2156" />
          <stop
             id="stop202"
             style="stop-color:#c2c2c2;stop-opacity:1"
             offset="0.37079999" />
          <stop
             id="stop204"
             style="stop-color:#949494;stop-opacity:1"
             offset="0.54650003" />
          <stop
             id="stop206"
             style="stop-color:#595959;stop-opacity:1"
             offset="0.73940003" />
          <stop
             id="stop208"
             style="stop-color:#151515;stop-opacity:1"
             offset="0.94379997" />
          <stop
             id="stop210"
             style="stop-color:#000000;stop-opacity:1"
             offset="0.99440002" />
        </linearGradient>
        <ellipse
           cx="363.052"
           cy="374.28201"
           rx="215.32401"
           ry="183.32201"
           id="ellipse212"
           style="fill:url(#XMLID_14_) #000000" />
      </g>
    </mask>
    <mask
       id="XMLID_10_">
      <g
         id="g159">
        <radialGradient
           cx="657.2124"
           cy="155.23289"
           r="606.95343"
           fx="657.2124"
           fy="155.23289"
           id="XMLID_11_"
           gradientUnits="userSpaceOnUse"
           gradientTransform="matrix(0.931,0,0,0.9299,28.7459,21.6629)">
          <stop
             id="stop162"
             style="stop-color:#c9c9c8;stop-opacity:1"
             offset="0" />
          <stop
             id="stop164"
             style="stop-color:#c4c4c4;stop-opacity:1"
             offset="0.0881" />
          <stop
             id="stop166"
             style="stop-color:#b8b8b7;stop-opacity:1"
             offset="0.2192" />
          <stop
             id="stop168"
             style="stop-color:#a1a0a0;stop-opacity:1"
             offset="0.37689999" />
          <stop
             id="stop170"
             style="stop-color:#7f7f7e;stop-opacity:1"
             offset="0.55559999" />
          <stop
             id="stop172"
             style="stop-color:#4f4f4e;stop-opacity:1"
             offset="0.75169998" />
          <stop
             id="stop174"
             style="stop-color:#121212;stop-opacity:1"
             offset="0.95950001" />
          <stop
             id="stop176"
             style="stop-color:#000000;stop-opacity:1"
             offset="1" />
        </radialGradient>
        <circle
           cx="408.427"
           cy="444.22601"
           r="302.95401"
           id="circle178"
           style="fill:url(#XMLID_11_) #000000" />
      </g>
    </mask>
    <linearGradient
       x1="220.9512"
       y1="634.63232"
       x2="278.14471"
       y2="560.35498"
       id="XMLID_5_"
       gradientUnits="userSpaceOnUse">
      <stop
         id="stop119"
         style="stop-color:#ffffff;stop-opacity:1"
         offset="0" />
      <stop
         id="stop121"
         style="stop-color:#193d6b;stop-opacity:1"
         offset="1" />
    </linearGradient>
    <linearGradient
       x1="429.84909"
       y1="815.45459"
       x2="480.12021"
       y2="643.30768"
       id="XMLID_4_"
       gradientUnits="userSpaceOnUse"
       gradientTransform="matrix(-1.12563,0,0,1.12563,1028.91,-39.5467)">
      <stop
         id="stop112"
         style="stop-color:#ffffff;stop-opacity:1"
         offset="0" />
      <stop
         id="stop114"
         style="stop-color:#e5eaf2;stop-opacity:1"
         offset="1" />
    </linearGradient>
    <mask
       id="XMLID_2_">
      <g
         id="g86">
        <linearGradient
           x1="206.09081"
           y1="397.62061"
           x2="186.92191"
           y2="563.47321"
           id="XMLID_3_"
           gradientUnits="userSpaceOnUse">
          <stop
             id="stop89"
             style="stop-color:#ffffff;stop-opacity:1"
             offset="0" />
          <stop
             id="stop91"
             style="stop-color:#cbcbcb;stop-opacity:1"
             offset="0.1111" />
          <stop
             id="stop93"
             style="stop-color:#969696;stop-opacity:1"
             offset="0.2396" />
          <stop
             id="stop95"
             style="stop-color:#686868;stop-opacity:1"
             offset="0.3698" />
          <stop
             id="stop97"
             style="stop-color:#424242;stop-opacity:1"
             offset="0.4991" />
          <stop
             id="stop99"
             style="stop-color:#252525;stop-opacity:1"
             offset="0.62730002" />
          <stop
             id="stop101"
             style="stop-color:#111111;stop-opacity:1"
             offset="0.75419998" />
          <stop
             id="stop103"
             style="stop-color:#040404;stop-opacity:1"
             offset="0.87919998" />
          <stop
             id="stop105"
             style="stop-color:#000000;stop-opacity:1"
             offset="1" />
        </linearGradient>
        <ellipse
           cx="194.76401"
           cy="495.62299"
           rx="160.94"
           ry="123.604"
           id="ellipse107"
           style="fill:url(#XMLID_3_) #000000" />
      </g>
    </mask>
    <mask
       id="XMLID_26_">
      <g
         id="g69">
        <linearGradient
           x1="211.7222"
           y1="562.85791"
           x2="200.0733"
           y2="466.75449"
           id="XMLID_1_"
           gradientUnits="userSpaceOnUse">
          <stop
             id="stop72"
             style="stop-color:#ffffff;stop-opacity:1"
             offset="0" />
          <stop
             id="stop74"
             style="stop-color:#000000;stop-opacity:1"
             offset="1" />
        </linearGradient>
        <ellipse
           cx="203.617"
           cy="495.98801"
           rx="80.542"
           ry="59.682999"
           id="ellipse76"
           style="fill:url(#XMLID_1_) #000000" />
      </g>
    </mask>
    <linearGradient
       id="linearGradient5498">
      <stop
         id="stop5500"
         style="stop-color:#eeeeee;stop-opacity:1"
         offset="0" />
      <stop
         id="stop5502"
         style="stop-color:#eeeeee;stop-opacity:0"
         offset="1" />
    </linearGradient>
    <radialGradient
       cx="375.21439"
       cy="783.16357"
       r="300.5752"
       fx="375.21439"
       fy="783.16357"
       id="radialGradient29545"
       gradientUnits="userSpaceOnUse"
       gradientTransform="matrix(1.12563,0,0,1.12563,-41.8734,-39.5467)">
      <stop
         id="stop29547"
         style="stop-color:#eeeeef;stop-opacity:0.941176"
         offset="0.0112" />
      <stop
         id="stop29549"
         style="stop-color:#6193cf;stop-opacity:1"
         offset="0.29210001" />
      <stop
         id="stop29551"
         style="stop-color:#2c72c7;stop-opacity:1"
         offset="0.45750001" />
      <stop
         id="stop29553"
         style="stop-color:#0057ae;stop-opacity:1"
         offset="0.6767" />
      <stop
         id="stop29555"
         style="stop-color:#004d9a;stop-opacity:1"
         offset="0.8653" />
      <stop
         id="stop29557"
         style="stop-color:#00438a;stop-opacity:1"
         offset="1" />
    </radialGradient>
    <linearGradient
       x1="220.36789"
       y1="756.76105"
       x2="185.21225"
       y2="491.06723"
       id="linearGradient3928"
       xlink:href="#linearGradient5498"
       gradientUnits="userSpaceOnUse"
       gradientTransform="matrix(0.08428564,0,0,0.08428564,12.002509,12.007535)" />
    <linearGradient
       x1="247.47713"
       y1="274.88394"
       x2="130.31757"
       y2="580.54669"
       id="linearGradient3931"
       xlink:href="#linearGradient5498"
       gradientUnits="userSpaceOnUse"
       gradientTransform="matrix(0.08428564,0,0,0.08428564,12.002509,12.007535)" />
    <linearGradient
       x1="370.62177"
       y1="-309.6048"
       x2="370.20648"
       y2="458.38397"
       id="linearGradient3934"
       xlink:href="#linearGradient5498"
       gradientUnits="userSpaceOnUse"
       gradientTransform="matrix(0.08428564,0,0,0.08428564,12.002509,12.007535)" />
    <linearGradient
       x1="1508.4957"
       y1="-363.42487"
       x2="361.1441"
       y2="630.52039"
       id="linearGradient3937"
       xlink:href="#linearGradient5498"
       gradientUnits="userSpaceOnUse"
       gradientTransform="matrix(0.08428564,0,0,0.08428564,12.002509,12.007535)" />
    <linearGradient
       x1="331.49609"
       y1="790.51508"
       x2="409.85471"
       y2="688.75092"
       id="linearGradient3940"
       xlink:href="#XMLID_5_"
       gradientUnits="userSpaceOnUse"
       gradientTransform="matrix(0.09487444,0,0,0.09487444,8.473189,8.6743156)" />
    <linearGradient
       x1="319.186"
       y1="713.54639"
       x2="373.12509"
       y2="626.00598"
       id="linearGradient3943"
       xlink:href="#XMLID_5_"
       gradientUnits="userSpaceOnUse"
       gradientTransform="matrix(0.09487444,0,0,0.09487444,8.473189,8.6743156)" />
    <linearGradient
       x1="264.5405"
       y1="704.23578"
       x2="335.09619"
       y2="612.60522"
       id="linearGradient3946"
       xlink:href="#XMLID_5_"
       gradientUnits="userSpaceOnUse"
       gradientTransform="matrix(0.09487444,0,0,0.09487444,8.473189,8.6743156)" />
    <linearGradient
       x1="237.20799"
       y1="684.01898"
       x2="328.18469"
       y2="565.86761"
       id="linearGradient3949"
       xlink:href="#XMLID_5_"
       gradientUnits="userSpaceOnUse"
       gradientTransform="matrix(0.09487444,0,0,0.09487444,8.473189,8.6743156)" />
    <linearGradient
       x1="220.9512"
       y1="634.63232"
       x2="278.14471"
       y2="560.35498"
       id="linearGradient3952"
       xlink:href="#XMLID_5_"
       gradientUnits="userSpaceOnUse"
       gradientTransform="matrix(0.09487444,0,0,0.09487444,8.473189,8.6743156)" />
    <linearGradient
       x1="429.84909"
       y1="815.45459"
       x2="480.12021"
       y2="643.30768"
       id="linearGradient3955"
       xlink:href="#XMLID_4_"
       gradientUnits="userSpaceOnUse"
       gradientTransform="matrix(-0.09487444,0,0,0.09487444,98.72485,8.6743156)" />
    <radialGradient
       cx="375.21439"
       cy="783.16357"
       r="300.5752"
       fx="375.21439"
       fy="783.16357"
       id="radialGradient3959"
       xlink:href="#radialGradient29545"
       gradientUnits="userSpaceOnUse"
       gradientTransform="matrix(0.09487444,0,0,0.09487444,8.473189,8.6743156)" />
    <radialGradient
       cx="663.91144"
       cy="649.22662"
       r="427.12018"
       fx="663.91144"
       fy="649.22662"
       id="radialGradient3972"
       xlink:href="#XMLID_22_"
       gradientUnits="userSpaceOnUse"
       gradientTransform="matrix(0.08428564,0,0,0.08428564,12.002509,12.007534)" />
    <linearGradient
       x1="13.1875"
       y1="48"
       x2="82.8125"
       y2="48"
       id="linearGradient3991"
       xlink:href="#linearGradient3985"
       gradientUnits="userSpaceOnUse"
       gradientTransform="matrix(0,1,-1,0,96,0)" />
    <linearGradient
       x1="45.447727"
       y1="92.539597"
       x2="45.447727"
       y2="7.0165396"
       id="ButtonShadow-0"
       gradientUnits="userSpaceOnUse"
       gradientTransform="matrix(1.0058652,0,0,0.994169,100,0)">
      <stop
         id="stop3750-8"
         style="stop-color:#000000;stop-opacity:1"
         offset="0" />
      <stop
         id="stop3752-5"
         style="stop-color:#000000;stop-opacity:0.58823532"
         offset="1" />
    </linearGradient>
    <linearGradient
       x1="32.251034"
       y1="6.1317081"
       x2="32.251034"
       y2="90.238609"
       id="linearGradient3780"
       xlink:href="#ButtonShadow-0"
       gradientUnits="userSpaceOnUse"
       gradientTransform="matrix(1.0238095,0,0,1.0119048,-1.1428571,-98.071429)" />
    <linearGradient
       x1="32.251034"
       y1="6.1317081"
       x2="32.251034"
       y2="90.238609"
       id="linearGradient3772"
       xlink:href="#ButtonShadow-0"
       gradientUnits="userSpaceOnUse"
       gradientTransform="matrix(1.0238095,0,0,1.0119048,-1.1428571,-98.071429)" />
    <linearGradient
       x1="32.251034"
       y1="6.1317081"
       x2="32.251034"
       y2="90.238609"
       id="linearGradient3725"
       xlink:href="#ButtonShadow-0"
       gradientUnits="userSpaceOnUse"
       gradientTransform="matrix(1.0238095,0,0,1.0119048,-1.1428571,-98.071429)" />
    <linearGradient
       x1="32.251034"
       y1="6.1317081"
       x2="32.251034"
       y2="90.238609"
       id="linearGradient3721"
       xlink:href="#ButtonShadow-0"
       gradientUnits="userSpaceOnUse"
       gradientTransform="translate(0,-97)" />
    <linearGradient
       x1="32.251034"
       y1="6.1317081"
       x2="32.251034"
       y2="90.238609"
       id="linearGradient3059"
       xlink:href="#ButtonShadow-0"
       gradientUnits="userSpaceOnUse"
       gradientTransform="matrix(1.0238095,0,0,1.0119048,-1.1428571,-98.071429)" />
    <linearGradient
       id="linearGradient14183">
      <stop
         style="stop-color:#f6d4d3;stop-opacity:1;"
         offset="0"
         id="stop14185" />
      <stop
         style="stop-color:#cccccf;stop-opacity:0;"
         offset="1"
         id="stop14187" />
    </linearGradient>
    <linearGradient
       y2="432.98026"
       x2="127.72591"
       y1="526.02496"
       x1="171.40753"
       gradientUnits="userSpaceOnUse"
       id="linearGradient3184"
       xlink:href="#linearGradient7088"
       inkscape:collect="always" />
    <linearGradient
       inkscape:collect="always"
       id="linearGradient7088">
      <stop
         style="stop-color:#ffffff;stop-opacity:0.54285717"
         offset="0"
         id="stop7090" />
      <stop
         style="stop-color:#ffffff;stop-opacity:0;"
         offset="1"
         id="stop7092" />
    </linearGradient>
    <linearGradient
       id="lG2399">
      <stop
         offset="0"
         style="stop-color:#929470"
         id="stop2775" />
      <stop
         offset=".26471"
         style="stop-color:#fcffc1"
         id="stop2777" />
      <stop
         offset=".63235"
         style="stop-color:#f3f5ba"
         id="stop2779" />
      <stop
         offset="1"
         style="stop-color:#929470"
         id="stop2781" />
    </linearGradient>
    <linearGradient
       id="lG20393">
      <stop
         offset="0"
         style="stop-color:#ff1708"
         id="stop2794" />
      <stop
         offset=".41176"
         style="stop-color:#ff4f04;stop-opacity:.43922"
         id="stop2796" />
      <stop
         offset="1"
         style="stop-color:#4c3e1c;stop-opacity:.47843"
         id="stop2798" />
    </linearGradient>
    <linearGradient
       x1="18.995"
       x2="30.17"
       y1="37.227"
       gradientUnits="userSpaceOnUse"
       y2="37.227"
       id="lG19894">
      <stop
         offset=".005618"
         style="stop-color:#a3a349"
         id="stop2842" />
      <stop
         offset=".020787"
         style="stop-color:#acac54"
         id="stop2844" />
      <stop
         offset=".066"
         style="stop-color:#c1c172"
         id="stop2846" />
      <stop
         offset=".1148"
         style="stop-color:#d4d68e"
         id="stop2848" />
      <stop
         offset=".1677"
         style="stop-color:#e2e4a6"
         id="stop2850" />
      <stop
         offset=".2265"
         style="stop-color:#edf0b8"
         id="stop2852" />
      <stop
         offset=".2963"
         style="stop-color:#f3f6c3"
         id="stop2854" />
      <stop
         offset=".4045"
         style="stop-color:#f5f8c7"
         id="stop2856" />
      <stop
         offset=".5239"
         style="stop-color:#eef0be"
         id="stop2858" />
      <stop
         offset=".6666"
         style="stop-color:#dbdda9"
         id="stop2860" />
      <stop
         offset=".8211"
         style="stop-color:#bebd88"
         id="stop2862" />
      <stop
         offset=".9832"
         style="stop-color:#989564"
         id="stop2864" />
      <stop
         offset="1"
         style="stop-color:#949160"
         id="stop2866" />
    </linearGradient>
    <linearGradient
       x1="16.999"
       x2="32.097"
       gradientTransform="matrix(1.0885,0,0,0.91662,0.70435,-1.5744)"
       y1="10.061"
       gradientUnits="userSpaceOnUse"
       y2="36.726"
       id="linearGradient2937">
      <stop
         offset="0"
         style="stop-color:#fff"
         id="stop2784" />
      <stop
         offset="1"
         style="stop-color:#fff;stop-opacity:0"
         id="stop2786" />
    </linearGradient>
    <linearGradient
       x1="14.637"
       x2="9.3648"
       gradientTransform="matrix(1.861,0,0,0.46695,1.2554,5.4734)"
       y1="31.504"
       gradientUnits="userSpaceOnUse"
       y2="32.251"
       id="linearGradient2940">
      <stop
         offset="0"
         style="stop-color:#ffb812"
         id="stop2789" />
      <stop
         offset="1"
         style="stop-color:#ffb812;stop-opacity:0"
         id="stop2791" />
    </linearGradient>
    <linearGradient
       x1="30.62"
       x2="32.166"
       gradientTransform="matrix(0.58997,0,0,1.473,0.90381,4.894)"
       y1="10.314"
       gradientUnits="userSpaceOnUse"
       xlink:href="#lG20393"
       y2="18.163"
       id="linearGradient2943" />
    <linearGradient
       x1="30.62"
       x2="32.166"
       gradientTransform="matrix(-0.58997,0,0,1.473,47.1,4.7782)"
       y1="10.314"
       gradientUnits="userSpaceOnUse"
       xlink:href="#lG20393"
       y2="18.163"
       id="linearGradient2946" />
    <linearGradient
       x1="37.94"
       x2="-5.2517"
       gradientTransform="matrix(0.85339,0,0,0.97525,1.8913,1.6641)"
       y1="16.652"
       gradientUnits="userSpaceOnUse"
       y2="3.8557"
       id="linearGradient2949">
      <stop
         offset="0"
         style="stop-color:#fffff1"
         id="stop2770" />
      <stop
         offset="1"
         style="stop-color:#f1f3ff;stop-opacity:0"
         id="stop2772" />
    </linearGradient>
    <radialGradient
       gradientTransform="matrix(0.52617,0,0,0.75827,-9.5648,5.1186)"
       r="33.934"
       cy="29.869"
       cx="68.138"
       gradientUnits="userSpaceOnUse"
       id="radialGradient2952">
      <stop
         offset="0"
         style="stop-color:#fff;stop-opacity:.17526"
         id="stop2808" />
      <stop
         offset="0.882"
         style="stop-color:#f30"
         id="stop2810" />
      <stop
         offset="1"
         style="stop-color:#ff5600"
         id="stop2812" />
    </radialGradient>
    <linearGradient
       x1="23.413"
       x2="23.413"
       y1="1.9997"
       gradientUnits="userSpaceOnUse"
       y2="34.005"
       id="linearGradient2954">
      <stop
         offset="0"
         style="stop-color:#ab1d04"
         id="stop2737" />
      <stop
         offset=".73603"
         style="stop-color:#ab4704"
         id="stop2739" />
      <stop
         offset="1"
         style="stop-color:#616471"
         id="stop2741" />
    </linearGradient>
    <linearGradient
       x1="17.88"
       x2="11.906"
       gradientTransform="matrix(1.5304,0,0,0.54383,1.0306,1.6641)"
       y1="55.363"
       gradientUnits="userSpaceOnUse"
       y2="54.863"
       id="linearGradient2957">
      <stop
         offset="0"
         style="stop-color:#d6d87b"
         id="stop2756" />
      <stop
         offset="1"
         style="stop-color:#fbe843"
         id="stop2758" />
    </linearGradient>
    <linearGradient
       x1="-29.007"
       x2="-37.641"
       gradientTransform="matrix(-0.86446,-0.043417,0.18088,-0.95368,1.0306,1.6641)"
       y1="-29.799"
       gradientUnits="userSpaceOnUse"
       y2="-29.598"
       id="linearGradient2959">
      <stop
         offset="0"
         style="stop-color:#dcd763"
         id="stop2761" />
      <stop
         offset=".26471"
         style="stop-color:#d9bb05"
         id="stop2763" />
      <stop
         offset=".63235"
         style="stop-color:#dcd763"
         id="stop2765" />
      <stop
         offset="1"
         style="stop-color:#c7a107"
         id="stop2767" />
    </linearGradient>
    <linearGradient
       x1="-22.874"
       x2="-4.3908"
       gradientTransform="matrix(0.61192,-0.13118,0.061943,0.73641,30.371,9.2548)"
       y1="38.676"
       gradientUnits="userSpaceOnUse"
       xlink:href="#lG19894"
       y2="38.676"
       id="linearGradient2967" />
    <linearGradient
       x1="-10.481"
       x2="-23.851"
       gradientTransform="matrix(0.61192,-0.13118,0.061943,0.73641,30.371,9.2548)"
       y1="39.034"
       gradientUnits="userSpaceOnUse"
       xlink:href="#lG2399"
       y2="39.143"
       id="linearGradient2969" />
    <linearGradient
       x1="-22.874"
       x2="-4.3908"
       gradientTransform="matrix(0.61192,-0.13118,0.061943,0.73641,30.371,12.33)"
       y1="38.676"
       gradientUnits="userSpaceOnUse"
       xlink:href="#lG19894"
       y2="38.676"
       id="linearGradient2972" />
    <linearGradient
       x1="-10.481"
       x2="-23.851"
       gradientTransform="matrix(0.61192,-0.13118,0.061943,0.73641,30.371,12.33)"
       y1="39.034"
       gradientUnits="userSpaceOnUse"
       xlink:href="#lG2399"
       y2="39.143"
       id="linearGradient2974" />
    <linearGradient
       x1="-22.874"
       x2="-4.3908"
       gradientTransform="matrix(0.61192,-0.13118,0.061943,0.73641,30.371,15.406)"
       y1="38.676"
       gradientUnits="userSpaceOnUse"
       xlink:href="#lG19894"
       y2="38.676"
       id="linearGradient2977" />
    <linearGradient
       x1="-10.481"
       x2="-23.851"
       gradientTransform="matrix(0.61192,-0.13118,0.061943,0.73641,30.371,15.406)"
       y1="39.034"
       gradientUnits="userSpaceOnUse"
       xlink:href="#lG2399"
       y2="39.143"
       id="linearGradient2979" />
    <linearGradient
       x1="-22.874"
       x2="-4.3908"
       gradientTransform="matrix(0.56043,0.029697,-0.11726,0.65231,35.381,20.962)"
       y1="38.676"
       gradientUnits="userSpaceOnUse"
       xlink:href="#lG19894"
       y2="38.676"
       id="linearGradient2982" />
    <linearGradient
       x1="-10.481"
       x2="-23.851"
       gradientTransform="matrix(0.56043,0.029697,-0.11726,0.65231,35.381,20.962)"
       y1="39.034"
       gradientUnits="userSpaceOnUse"
       xlink:href="#lG2399"
       y2="39.143"
       id="linearGradient2984" />
    <linearGradient
       x1="24.613"
       x2="24.613"
       gradientTransform="matrix(0.9917,0,0,0.99093,-0.40874,1.0079)"
       y1="31.146"
       gradientUnits="userSpaceOnUse"
       y2="26.74"
       id="linearGradient2987">
      <stop
         offset="0"
         style="stop-color:#4c4428"
         id="stop2751" />
      <stop
         offset="1"
         style="stop-color:#e7b600;stop-opacity:0"
         id="stop2753" />
    </linearGradient>
    <linearGradient
       x1="23.124"
       x2="26.478"
       gradientTransform="matrix(1.7634,0,0,1.5367,-19.733,-23.884)"
       y1="43.165"
       gradientUnits="userSpaceOnUse"
       y2="43.165"
       id="linearGradient2990">
      <stop
         offset=".005618"
         style="stop-color:#686868"
         id="stop2815" />
      <stop
         offset=".030121"
         style="stop-color:#777"
         id="stop2817" />
      <stop
         offset=".083666"
         style="stop-color:#929292"
         id="stop2819" />
      <stop
         offset=".1422"
         style="stop-color:#a7a7a7"
         id="stop2821" />
      <stop
         offset=".2074"
         style="stop-color:#b6b6b6"
         id="stop2823" />
      <stop
         offset=".2846"
         style="stop-color:#bebebe"
         id="stop2825" />
      <stop
         offset=".4045"
         style="stop-color:#c1c1c1"
         id="stop2827" />
      <stop
         offset=".4962"
         style="stop-color:#bcbcbc"
         id="stop2829" />
      <stop
         offset=".6057"
         style="stop-color:#adadad"
         id="stop2831" />
      <stop
         offset=".7245"
         style="stop-color:#959595"
         id="stop2833" />
      <stop
         offset=".8497"
         style="stop-color:#747474"
         id="stop2835" />
      <stop
         offset=".9789"
         style="stop-color:#494949"
         id="stop2837" />
      <stop
         offset="1"
         style="stop-color:#414141"
         id="stop2839" />
    </linearGradient>
    <radialGradient
       gradientTransform="matrix(2.1122,0,0,0.62269,-6.2016,-3.2095)"
       r="7.829"
       cy="74.21"
       cx="14.772"
       gradientUnits="userSpaceOnUse"
       id="radialGradient2993">
      <stop
         offset="0"
         style="stop-opacity:.51546"
         id="stop2801" />
      <stop
         offset=".55172"
         style="stop-opacity:.14433"
         id="stop2803" />
      <stop
         offset="1"
         style="stop-opacity:0"
         id="stop2805" />
    </radialGradient>
    <radialGradient
       gradientTransform="matrix(1.3418,0,0,1.0894,-13.234,-3.7454)"
       r="15.062"
       cy="18.625"
       cx="27.75"
       gradientUnits="userSpaceOnUse"
       id="radialGradient2996">
      <stop
         offset="0"
         style="stop-color:#ff4300;stop-opacity:0"
         id="stop2744" />
      <stop
         offset=".5"
         style="stop-color:#ff2c00;stop-opacity:.32549"
         id="stop2746" />
      <stop
         offset="1"
         style="stop-color:#ff5600;stop-opacity:0"
         id="stop2748" />
    </radialGradient>
    <radialGradient
       gradientTransform="matrix(0.021289,0,0,0.027586,323.37,-435.1)"
       r="358.45"
       cy="-405.91"
       cx="97.468"
       gradientUnits="userSpaceOnUse"
       id="radialGradient7778">
      <stop
         offset="0"
         style="stop-color:#787974"
         id="stop9644" />
      <stop
         offset="1"
         style="stop-color:#787974;stop-opacity:0"
         id="stop9646" />
    </radialGradient>
  </defs>
  <metadata
     id="metadata2413">
    <rdf:RDF>
      <cc:Work
         rdf:about="">
        <dc:format>image/svg+xml</dc:format>
        <dc:type
           rdf:resource="http://purl.org/dc/dcmitype/StillImage" />
      </cc:Work>
    </rdf:RDF>
  </metadata>
  <g
     id="layer2"
     style="display:none">
    <rect
       width="86"
       height="85"
       rx="6"
       ry="6"
       x="5"
       y="7"
       id="rect3745"
       style="opacity:0.9;fill:url(#ButtonShadow);fill-opacity:1;fill-rule:nonzero;stroke:none;filter:url(#filter3174)" />
  </g>
  <g
     id="layer4"
     style="display:inline">
    <path
       d="m 12,-95.03125 c -5.5110903,0 -10.03125,4.52016 -10.03125,10.03125 l 0,71 c 0,5.5110902 4.5201598,10.03125 10.03125,10.03125 l 72,0 c 5.51109,0 10.03125,-4.5201597 10.03125,-10.03125 l 0,-71 c 0,-5.51109 -4.52016,-10.03125 -10.03125,-10.03125 l -72,0 z"
       transform="scale(1,-1)"
       id="path3786"
       style="opacity:0.07999998;fill:url(#linearGradient3059);fill-opacity:1;fill-rule:nonzero;stroke:none;display:inline" />
    <path
       d="m 12,-94.03125 c -4.971633,0 -9.03125,4.059617 -9.03125,9.03125 l 0,71 c 0,4.9716329 4.0596171,9.03125 9.03125,9.03125 l 72,0 c 4.971633,0 9.03125,-4.059617 9.03125,-9.03125 l 0,-71 c 0,-4.971633 -4.059617,-9.03125 -9.03125,-9.03125 l -72,0 z"
       transform="scale(1,-1)"
       id="path3778"
       style="opacity:0.1;fill:url(#linearGradient3780);fill-opacity:1;fill-rule:nonzero;stroke:none;display:inline" />
    <path
       d="m 12,-93 c -4.4091333,0 -8,3.590867 -8,8 l 0,71 c 0,4.4091333 3.5908667,8 8,8 l 72,0 c 4.409133,0 8,-3.5908667 8,-8 l 0,-71 c 0,-4.409133 -3.590867,-8 -8,-8 l -72,0 z"
       transform="scale(1,-1)"
       id="path3770"
       style="opacity:0.2;fill:url(#linearGradient3772);fill-opacity:1;fill-rule:nonzero;stroke:none;display:inline" />
    <rect
       width="86"
       height="85"
       rx="7"
       ry="7"
       x="5"
       y="-92"
       transform="scale(1,-1)"
       id="rect3723"
       style="opacity:0.3;fill:url(#linearGradient3725);fill-opacity:1;fill-rule:nonzero;stroke:none;display:inline" />
    <rect
       width="84"
       height="84"
       rx="6"
       ry="6"
       x="6"
       y="-91"
       transform="scale(1,-1)"
       id="rect3716"
       style="opacity:0.45;fill:url(#linearGradient3721);fill-opacity:1;fill-rule:nonzero;stroke:none;display:inline" />
  </g>
  <g
     id="layer1">
    <rect
       width="84"
       height="84"
       rx="6"
       ry="6"
       x="6"
       y="-90"
       transform="scale(1,-1)"
       id="rect2419"
       style="fill:url(#linearGradient3617);fill-opacity:1;fill-rule:nonzero;stroke:none" />
    <path
       d="M 12,6 C 8.676,6 6,8.676 6,12 l 0,2 0,68 0,2 c 0,0.334721 0.04135,0.6507 0.09375,0.96875 0.0487,0.295596 0.09704,0.596915 0.1875,0.875 0.00988,0.03038 0.020892,0.0636 0.03125,0.09375 0.098865,0.287771 0.2348802,0.547452 0.375,0.8125 0.1445918,0.273507 0.3156161,0.535615 0.5,0.78125 0.1843839,0.245635 0.3737765,0.473472 0.59375,0.6875 0.439947,0.428056 0.94291,0.814526 1.5,1.09375 0.278545,0.139612 0.5734731,0.246947 0.875,0.34375 -0.2562018,-0.100222 -0.4867109,-0.236272 -0.71875,-0.375 -0.00741,-0.0044 -0.023866,0.0045 -0.03125,0 -0.031933,-0.0193 -0.062293,-0.04251 -0.09375,-0.0625 -0.120395,-0.0767 -0.2310226,-0.163513 -0.34375,-0.25 -0.1061728,-0.0808 -0.2132809,-0.161112 -0.3125,-0.25 C 8.4783201,88.557317 8.3087904,88.373362 8.15625,88.1875 8.0486711,88.057245 7.9378561,87.922215 7.84375,87.78125 7.818661,87.74287 7.805304,87.69538 7.78125,87.65625 7.716487,87.553218 7.6510225,87.451733 7.59375,87.34375 7.4927417,87.149044 7.3880752,86.928049 7.3125,86.71875 7.30454,86.69694 7.288911,86.6782 7.28125,86.65625 7.2494249,86.5643 7.2454455,86.469419 7.21875,86.375 7.1884177,86.268382 7.1483606,86.171969 7.125,86.0625 7.0521214,85.720988 7,85.364295 7,85 L 7,83 7,15 7,13 C 7,10.218152 9.2181517,8 12,8 l 2,0 68,0 2,0 c 2.781848,0 5,2.218152 5,5 l 0,2 0,68 0,2 c 0,0.364295 -0.05212,0.720988 -0.125,1.0625 -0.04415,0.206893 -0.08838,0.397658 -0.15625,0.59375 -0.0077,0.02195 -0.0233,0.04069 -0.03125,0.0625 -0.06274,0.173739 -0.138383,0.367449 -0.21875,0.53125 -0.04158,0.0828 -0.07904,0.169954 -0.125,0.25 -0.0546,0.09721 -0.126774,0.18835 -0.1875,0.28125 -0.09411,0.140965 -0.204921,0.275995 -0.3125,0.40625 -0.143174,0.17445 -0.303141,0.346998 -0.46875,0.5 -0.01117,0.0102 -0.01998,0.02115 -0.03125,0.03125 -0.138386,0.125556 -0.285091,0.234436 -0.4375,0.34375 -0.102571,0.07315 -0.204318,0.153364 -0.3125,0.21875 -0.0074,0.0045 -0.02384,-0.0044 -0.03125,0 -0.232039,0.138728 -0.462548,0.274778 -0.71875,0.375 0.301527,-0.0968 0.596455,-0.204138 0.875,-0.34375 0.55709,-0.279224 1.060053,-0.665694 1.5,-1.09375 0.219973,-0.214028 0.409366,-0.441865 0.59375,-0.6875 0.184384,-0.245635 0.355408,-0.507743 0.5,-0.78125 0.14012,-0.265048 0.276135,-0.524729 0.375,-0.8125 0.01041,-0.03078 0.02133,-0.06274 0.03125,-0.09375 0.09046,-0.278085 0.1388,-0.579404 0.1875,-0.875 C 89.95865,84.6507 90,84.334721 90,84 l 0,-2 0,-68 0,-2 C 90,8.676 87.324,6 84,6 L 12,6 z"
       inkscape:connector-curvature="0"
       id="rect3728"
       style="opacity:0.5;fill:url(#linearGradient3188);fill-opacity:1;fill-rule:nonzero;stroke:none" />
    <path
       d="M 12,90 C 8.676,90 6,87.324 6,84 L 6,82 6,14 6,12 c 0,-0.334721 0.04135,-0.6507 0.09375,-0.96875 0.0487,-0.295596 0.09704,-0.596915 0.1875,-0.875 C 6.29113,10.12587 6.302142,10.09265 6.3125,10.0625 6.411365,9.774729 6.5473802,9.515048 6.6875,9.25 6.8320918,8.976493 7.0031161,8.714385 7.1875,8.46875 7.3718839,8.223115 7.5612765,7.995278 7.78125,7.78125 8.221197,7.353194 8.72416,6.966724 9.28125,6.6875 9.559795,6.547888 9.8547231,6.440553 10.15625,6.34375 9.9000482,6.443972 9.6695391,6.580022 9.4375,6.71875 c -0.00741,0.0044 -0.023866,-0.0045 -0.03125,0 -0.031933,0.0193 -0.062293,0.04251 -0.09375,0.0625 -0.120395,0.0767 -0.2310226,0.163513 -0.34375,0.25 -0.1061728,0.0808 -0.2132809,0.161112 -0.3125,0.25 C 8.4783201,7.442683 8.3087904,7.626638 8.15625,7.8125 8.0486711,7.942755 7.9378561,8.077785 7.84375,8.21875 7.818661,8.25713 7.805304,8.30462 7.78125,8.34375 7.716487,8.446782 7.6510225,8.548267 7.59375,8.65625 7.4927417,8.850956 7.3880752,9.071951 7.3125,9.28125 7.30454,9.30306 7.288911,9.3218 7.28125,9.34375 7.2494249,9.4357 7.2454455,9.530581 7.21875,9.625 7.1884177,9.731618 7.1483606,9.828031 7.125,9.9375 7.0521214,10.279012 7,10.635705 7,11 l 0,2 0,68 0,2 c 0,2.781848 2.2181517,5 5,5 l 2,0 68,0 2,0 c 2.781848,0 5,-2.218152 5,-5 l 0,-2 0,-68 0,-2 C 89,10.635705 88.94788,10.279012 88.875,9.9375 88.83085,9.730607 88.78662,9.539842 88.71875,9.34375 88.71105,9.3218 88.69545,9.30306 88.6875,9.28125 88.62476,9.107511 88.549117,8.913801 88.46875,8.75 88.42717,8.6672 88.38971,8.580046 88.34375,8.5 88.28915,8.40279 88.216976,8.31165 88.15625,8.21875 88.06214,8.077785 87.951329,7.942755 87.84375,7.8125 87.700576,7.63805 87.540609,7.465502 87.375,7.3125 87.36383,7.3023 87.35502,7.29135 87.34375,7.28125 87.205364,7.155694 87.058659,7.046814 86.90625,6.9375 86.803679,6.86435 86.701932,6.784136 86.59375,6.71875 c -0.0074,-0.0045 -0.02384,0.0044 -0.03125,0 -0.232039,-0.138728 -0.462548,-0.274778 -0.71875,-0.375 0.301527,0.0968 0.596455,0.204138 0.875,0.34375 0.55709,0.279224 1.060053,0.665694 1.5,1.09375 0.219973,0.214028 0.409366,0.441865 0.59375,0.6875 0.184384,0.245635 0.355408,0.507743 0.5,0.78125 0.14012,0.265048 0.276135,0.524729 0.375,0.8125 0.01041,0.03078 0.02133,0.06274 0.03125,0.09375 0.09046,0.278085 0.1388,0.579404 0.1875,0.875 C 89.95865,11.3493 90,11.665279 90,12 l 0,2 0,68 0,2 c 0,3.324 -2.676,6 -6,6 l -72,0 z"
       inkscape:connector-curvature="0"
       id="path3615"
       style="opacity:0.25;fill:url(#radialGradient3619);fill-opacity:1;fill-rule:nonzero;stroke:none" />
  </g>
  <g
     id="layer5">
    <rect
       width="66"
       height="66"
       rx="12"
       ry="12"
       x="15"
       y="15"
       clip-path="url(#clipPath3613)"
       id="rect3171"
       style="opacity:0.1;fill:url(#linearGradient3613);fill-opacity:1;fill-rule:nonzero;stroke:#ffffff;stroke-width:0.5;stroke-linecap:round;stroke-linejoin:miter;stroke-miterlimit:4;stroke-opacity:1;stroke-dasharray:none;stroke-dashoffset:0;filter:url(#filter3794)" />
  </g>
  <g
     transform="matrix(1.299656,0,0,1.2909856,20.071036,-1279.6136)"
     id="layer1-5">
    <g
       transform="matrix(0.76551,0,0,0.76551,15.682,1006)"
       id="layer1-1">
      <g
         transform="matrix(0.9987,0,0,0.9987,-342.54,469.41)"
         id="g7594">
        <path
           transform="matrix(1.3865,0,0,1.3865,444.99,-446.47)"
           d="m -46.5,0.25 c 0,5.3848 -4.365,9.75 -9.75,9.75 -5.385,0 -9.75,-4.3652 -9.75,-9.75 0,-5.3848 4.365,-9.75 9.75,-9.75 5.3848,0 9.75,4.3652 9.75,9.75 z"
           style="fill:#eaece8"
           id="path7596"
           inkscape:connector-curvature="0" />
        <g
           transform="translate(37.125,-1.625)"
           id="g7598">
          <path
             d="m 323.85,-456.08 c 0.0486,0.17562 -0.12591,0.39397 -0.27934,0.59855 -0.20144,0.2686 -0.31042,0.44775 -0.0798,0.67837 0.14329,0.14328 0.57893,0.0158 0.71827,-0.0399 0.3214,-0.12856 0.67358,-0.22953 0.9976,-0.35913 0.24571,-0.0983 0.4292,-0.13723 0.67836,-0.19952 0.28672,-0.0717 0.57153,0.0571 0.67837,0.19952 0.0681,0.0908 -0.46179,0.49026 -0.51875,0.51874 -0.24201,0.12101 -0.47287,0.21798 -0.71827,0.27933 -0.30202,0.0755 -0.57153,0.17815 -0.87788,0.23942 -0.30771,0.0615 -0.52362,0.15456 -0.79808,0.31923 -0.34006,0.20404 -0.62606,0.50635 -0.91778,0.79808 -0.27257,0.27257 -0.36706,0.56686 -0.27933,0.91778 0.0844,0.33751 0.21002,0.457 0.51875,0.51875 0.3433,0.0687 0.51056,-0.0955 0.67836,-0.31923 0.21824,-0.29099 0.30168,-0.66081 0.55865,-0.91778 0.21494,-0.21495 0.36222,-0.4213 0.59856,-0.59856 0.23962,-0.17971 0.42089,-0.27386 0.71827,-0.19952 0.24731,0.0618 0.44872,0.30522 0.71826,0.35914 0.22729,0.0455 0.56158,-0.26084 0.75817,-0.35914 0.0429,-0.0215 0.0798,-0.0532 0.11972,-0.0798 0.20735,-0.13824 0.55041,-0.0798 0.79807,-0.0798 0.26905,0 0.49616,0.12837 0.71826,0.23942 0.26878,0.13438 0.50065,0.12608 0.75817,0.31923 0.27256,0.20441 0.41892,0.35898 0.55866,0.63846 0.13199,0.26397 0.19033,0.42976 0.39904,0.63846 0.22072,0.22072 0.56031,0.36079 0.79806,0.59855 0.14292,0.14291 0.23261,0.53136 0.27934,0.71827 0.0733,0.29311 0.1394,0.59907 0,0.87788 -0.15089,0.30177 -0.33188,0.58396 -0.47885,0.87788 -0.1446,0.28922 -0.54921,0.53162 -0.79807,0.71827 -0.34301,0.25726 -0.75121,0.27237 -1.0774,0.59856 -0.37514,0.37513 -0.41054,0.59585 -0.75818,1.1173 -0.25687,0.38531 0.0488,0.55643 0.35914,0.47885 0.32847,-0.0821 0.63271,-0.15818 0.95769,-0.23943 0.0532,-0.0133 0.10641,-0.0266 0.15961,-0.0399 0.40008,-0.10002 0.71782,-0.41888 1.1173,-0.51875 0.49734,-0.12433 1.5428,0.64638 1.9952,0.91779 0.35667,0.214 -0.0691,0.63308 -0.23942,0.71826 -0.31687,0.15844 -0.63299,0.19952 -0.99759,0.19952 -0.23599,0 -0.49249,-0.0745 -0.71827,-0.11971 -0.30515,-0.061 -0.5178,-0.0606 -0.75817,0.11971 -0.26721,0.20042 -0.2359,0.45813 -0.0798,0.71827 0.15594,0.25989 0.41021,0.4437 0.47884,0.71827 0.0866,0.34645 -0.19337,0.53102 -0.43893,0.67836 -0.24655,0.14793 -0.67219,-0.0399 -0.95769,-0.0399 -0.3617,0 -0.71143,0.18442 -0.99759,0.39904 -0.12967,0.0973 -0.24307,0.61316 -0.27933,0.75817 -0.0133,0.0532 -0.0266,0.10641 -0.0399,0.15962 -0.0973,0.38907 0.0274,0.58727 0.15962,0.91778 0.0957,0.23926 0.32804,0.45656 0.43894,0.67837 0.13845,0.27689 0.22919,0.4594 0.0798,0.75817 -0.12733,0.25465 -0.17554,0.46276 -0.23943,0.71826 -0.0447,0.17901 0.20742,0.65822 0.27933,0.83798 0.14424,0.36058 0.0101,0.42884 -0.23943,0.67837 -0.2208,0.2208 -0.55161,0.2758 -0.79806,0.39903 -0.2292,0.1146 -0.68093,-0.0206 -0.91779,-0.0798 -0.26703,-0.0668 -0.51539,0.0582 -0.71827,0.15962 -0.32213,0.16107 -0.3211,0.31673 -0.55865,0 -0.25189,-0.33585 -0.46083,-0.68615 -0.55865,-1.0774 -0.0133,-0.0532 -0.0266,-0.10641 -0.0399,-0.15962 -0.0668,-0.26738 -0.0399,-0.59608 -0.0399,-0.87788 0,-0.28763 0.0798,-0.54462 0.0798,-0.83798 0,-0.31598 -0.75459,0.2779 -0.95768,0.35914 -0.0941,0.0376 -0.18623,0.0798 -0.27934,0.11971 -0.39873,0.17089 -0.35913,0.53524 -0.35913,0.87788 0,0.34152 0.19951,0.60231 0.19951,0.95769 0,0.34243 -0.40342,0.43894 -0.67835,0.43894 -0.39099,0 -0.5722,-0.45249 -0.83798,-0.71827 -0.25426,-0.25425 -0.68805,-0.53811 -0.83798,-0.83797 -0.21217,-0.42435 -0.28391,-0.66496 0.15961,-0.9976 0.25414,-0.1906 0.60842,-0.22596 0.79808,-0.47884 0.19924,-0.26566 0.48175,-0.63773 0,-0.75817 -0.32828,-0.0821 -0.45563,-0.19618 -0.83798,-0.11971 -0.0665,0.0133 -0.13301,0.0266 -0.19952,0.0399 -0.65946,0.13189 -0.65494,0.0716 -1.2769,-0.23942 -0.44759,-0.2238 -0.60098,-0.56108 -0.91778,-0.87788 -0.29493,-0.29493 -0.46228,-0.69193 -0.55865,-1.0774 -0.0887,-0.3548 -0.19371,-0.69501 -0.27933,-1.0375 -0.0701,-0.28054 -0.0798,-0.62556 -0.0798,-0.91778 0,-0.29704 -0.0798,-0.61345 -0.0798,-0.91779 v -0.99759 c 0,-0.33653 0.0399,-0.63407 0.0399,-0.95769 0,-0.27723 0.0542,-0.61602 0.11971,-0.87789 0.006,-0.0258 0,-0.0532 0,-0.0798 0,-0.34036 0.19708,-0.69223 0.31923,-0.9976 0.10762,-0.26907 0.27463,-0.54927 0.39904,-0.79807 0.13029,-0.26057 0.26091,-0.48091 0.43894,-0.71827 0.1922,-0.25627 0.39689,-0.51616 0.59855,-0.75817 0.34733,-0.41679 0.70836,-0.80669 1.1173,-1.1572 0.23897,-0.20482 0.35656,-0.54674 0.63846,-0.75816 0.34879,-0.2616 0.65243,-0.53921 0.99759,-0.79808 0.2624,-0.1968 0.50187,-0.4241 0.67836,-0.71827 0.14357,-0.23929 0.22463,-0.46405 0.43894,-0.67836 0.0527,-0.0527 0.22985,-0.13487 0.27934,-0.15961 z"
             style="opacity:0.10556;fill:#787974;fill-rule:evenodd"
             id="path7600"
             inkscape:connector-curvature="0" />
          <path
             d="m 334.86,-450.97 c -0.38499,0.0925 -1.1527,0.22436 -1.676,0.11971 -0.40086,-0.0802 -0.41421,-0.30406 -0.79807,0.0798 l -0.0798,0.0798 c -0.24233,0.24233 -0.27932,0.27859 -0.27932,0.63846 0,0.2363 0.004,0.4611 -0.0399,0.67836 -0.0467,0.23338 -0.0115,0.59226 0.0399,0.79807 0.0784,0.31372 0.12792,0.53517 0.27932,0.83798 0.12091,0.24181 0.17725,0.43221 0.39904,0.59856 0.288,0.21599 0.68441,0.27376 0.9976,0.39903 0.22083,0.0883 0.59074,0.0399 0.83797,0.0399 0.31364,0 0.35914,0.0355 0.35914,0.39903 0,0.31202 -0.58566,0.74998 -0.75817,1.0375 -0.19089,0.31814 -0.11781,0.56436 0,0.91779 0.0878,0.26347 0.1448,0.5245 0.19951,0.79807 0.057,0.28517 0.13143,0.49056 0.35914,0.71827 0.24219,0.2422 0.68895,-0.0258 0.91778,0.27933 0.11503,0.15336 0.11972,0.40725 0.11972,0.59855 0,0.31727 0.10251,0.46749 0.39903,0.31923 0.26993,-0.13496 0.4726,-0.12467 0.67837,-0.39904 0.19592,-0.26123 0.29408,-0.58817 0.43894,-0.87788 0.12918,-0.25837 0.35001,-0.27932 0.63846,-0.27932 0.26664,0 0.4808,0.0693 0.75817,0 0.40637,-0.1016 0.46832,-0.2289 0.75816,-0.51875 0.36667,-0.36667 0.32315,-0.62199 0.39904,-1.0774 0.0342,-0.20545 -0.0338,-0.45465 -0.0798,-0.63846 -0.0133,-0.0532 -0.0266,-0.10641 -0.0399,-0.15962 -0.0556,-0.22243 -0.54378,-0.23942 -0.71826,-0.23942 -0.38567,0 -0.95765,-0.18953 -1.3168,-0.27933 -0.18343,-0.0458 -0.69207,-0.65216 -0.83797,-0.79807 -0.2109,-0.21089 -0.25241,-0.37116 -0.31923,-0.63846 -0.0823,-0.32931 -0.0384,-0.67226 -0.11971,-0.99759 -0.0932,-0.37293 0.0159,-0.5827 -0.27933,-0.87788 -0.20899,-0.209 -0.34674,-0.49671 -0.39904,-0.75818 -0.0504,-0.25226 -0.28717,-0.53461 -0.47884,-0.67836 -0.14021,-0.10515 -0.15679,-0.0792 -0.35913,-0.11971 z"
             style="opacity:0.18888999;fill:#787974;fill-rule:evenodd"
             id="path7602"
             inkscape:connector-curvature="0" />
          <path
             d="m 341,-448.66 c -0.20686,0.007 -0.41855,0.25893 -0.59856,0.43894 -0.17692,0.17692 -0.11971,0.4801 -0.11971,0.71826 0,0.26057 0.056,0.5433 0.11971,0.79808 0.054,0.21611 0.253,0.49242 0.39904,0.63846 0.22008,0.22008 0.50176,0.34965 0.79807,0.39903 0.38807,0.0647 0.60185,0.11149 0.75818,-0.27932 0.10737,-0.26842 0.15961,-0.45302 0.15961,-0.75817 0,-0.27625 -0.0124,-0.48851 -0.0798,-0.75817 -0.0815,-0.32585 -0.18635,-0.49221 -0.47884,-0.63846 -0.20729,-0.10364 -0.41834,-0.34368 -0.59856,-0.47885 -0.10339,-0.0775 -0.23587,-0.0798 -0.35913,-0.0798 z"
             style="opacity:0.18332998;fill:#787974;fill-rule:evenodd"
             id="path7604"
             inkscape:connector-curvature="0" />
          <path
             d="m 328.36,-436.21 c 0.21632,-0.14825 0.84563,-0.79382 1.2769,-1.1173 0.0831,-0.0623 0.15961,-0.13301 0.23942,-0.19952 0.43011,-0.35842 0.80496,-0.92811 1.1173,-1.3966 0.49552,-0.74328 0.71315,-1.411 0.87788,-2.2346 0.20928,-1.0464 0.26214,-0.34748 0.0399,0.31924 -0.0347,0.10405 -0.0532,0.21282 -0.0798,0.31922 -0.10903,0.43615 -0.15211,0.89903 -0.31922,1.3168 -0.22556,0.5639 -0.65123,1.0486 -0.79808,1.636 -0.0784,0.31342 -0.18502,0.69649 -0.11972,0.95769 0.078,0.31211 0.53278,-0.37711 0.83799,-0.47885 0.4153,-0.13843 0.51874,-0.22895 0.51874,0.23943 0,0.28308 -0.14275,0.67387 -0.19952,0.95769 -0.0979,0.48934 1.288,0.077 1.5962,0 1.0073,-0.25183 1.6982,-0.59713 2.5139,-1.2769 0.89829,-0.74857 1.6454,-1.5656 2.474,-2.3942 0.66669,-0.66668 0.98041,-1.0848 0.55866,0.0399 -0.0399,0.10641 -0.0798,0.21282 -0.11971,0.31923 -0.0399,0.10641 -0.0798,0.21282 -0.11971,0.31923 -0.22087,0.58898 -0.62389,1.2406 -1.1572,1.5962 -0.83096,0.55397 -1.3696,1.5826 -2.2745,2.0351 -0.36626,0.18313 -0.74917,0.25488 -1.1173,0.43894 -0.36945,0.18473 0.71851,0.31485 0.91778,0.35914 2.0033,0.44518 -1.6212,0.63846 -2.075,0.63846 -0.74853,0 -1.1228,-0.15633 -1.7159,0.19951 -0.20269,0.12161 0.94323,0.58769 0.99758,0.59856 0.4676,0.0935 0.88473,0.39904 1.3966,0.39904 0.84991,0 -1.7729,0.26507 -2.5139,0.0798 -0.62118,-0.1553 -1.2098,-0.2825 -1.8356,-0.43895 -0.31755,-0.0794 -0.63616,-0.0305 -0.9178,0.0399 -0.056,0.014 0.0399,0.82339 0.0399,0.91778 0,0.591 -0.15469,1.0522 -0.43894,0.19952 -0.15311,-0.45935 -0.43894,-0.94432 -0.43894,-1.4365 0,-0.31166 -0.41156,0.46894 -0.59855,0.71827 -0.26333,0.3511 -0.78197,0.8539 -0.87788,0.87788 -0.0131,0.003 0.25819,-0.55392 0.35913,-0.95769 0.0759,-0.3034 0.56595,-1.1155 0.23942,-1.1971 -0.3049,-0.0762 -0.72505,-0.0173 -1.0375,-0.0798 -0.46341,-0.0927 -0.96027,-0.18086 -1.3966,-0.39904 -0.84451,-0.42225 -2.1628,-0.81006 -3.0726,-1.0375 -0.0838,-0.0209 -1.4555,-1.4954 -0.15962,-0.19951 0.85544,0.85544 2.1906,1.4365 3.3918,1.4365 0.38491,0 0.95655,-0.14935 1.3168,-0.23942 0.21699,-0.0543 0.51677,-0.38229 0.75817,-0.47885 0.26199,-0.10479 -0.41791,-0.38179 -0.59855,-0.59855 -0.0665,-0.0798 -0.13302,-0.15962 -0.19953,-0.23942 -0.71532,-0.8584 -0.96642,-2.0438 -1.7956,-2.8731 -0.13341,-0.1334 -2.0778,-2.4032 -1.1572,-1.636 0.95189,0.79324 1.8316,1.4984 2.6336,2.4341 0.41125,0.4798 0.76487,1.1057 1.1572,1.5962 0.39477,0.49348 0.31152,-0.10291 0.19951,-0.43894 -0.24012,-0.72038 -0.1197,-1.7215 -0.1197,-2.474 0,-0.99806 0.51551,1.0246 0.55865,1.1971 0.12401,0.49605 0.38047,1.1421 0.75816,0.63846 0.39026,-0.52034 0.43894,-0.61871 0.43894,0.0399 v 0.15961 c 0,0.24765 -0.0131,0.53284 0.0399,0.79807 z"
             style="opacity:0.47222003;fill:#f3f4f2;fill-rule:evenodd"
             id="path7606"
             inkscape:connector-curvature="0" />
          <path
             d="m 340.05,-444.98 c 0.08,0.0851 0.15962,0.37727 0.15962,0.63846 0,0.10627 -0.65983,0.61991 -0.75818,0.71827 -0.19197,0.19196 -0.23069,0.51496 -0.27932,0.75816 -0.0627,0.31332 -0.14128,0.53067 -0.0798,0.83798 0.0521,0.26046 0.16017,0.51987 0.27932,0.75817 0.14338,0.28674 0.35124,0.43104 0.59856,0.67837 0.27549,0.27549 0.61563,0.27362 0.95768,0.35913 0.43482,0.1087 -0.25838,0.523 -0.35913,0.59856 -0.26793,0.20095 -0.5291,0.26013 -0.67836,0.55865 -0.1729,0.3458 0.18476,0.47294 0.39904,0.55865 0.2419,0.0968 0.60668,-0.33006 0.71827,-0.47885 0.15065,-0.20087 0.39904,-0.42712 0.39904,-0.67836 0,-0.24697 0.1197,-0.50826 0.1197,-0.79807 0,-0.27029 0.0614,-0.56478 0.11971,-0.79808 0.0889,-0.35541 0.21725,-0.49656 0.43894,-0.71826 0.17864,-0.17863 0.17417,-0.6202 0.11972,-0.83798 -0.0624,-0.24974 -0.21901,-0.47698 -0.27933,-0.71827 -0.0615,-0.24606 -0.36202,-0.38978 -0.55865,-0.43894 -0.23626,-0.0591 -0.56748,-0.48767 -0.71827,-0.63846 -0.20761,-0.20761 -0.2995,-0.35913 -0.59855,-0.35913 z"
             style="opacity:0.11667002;fill:#787974;fill-rule:evenodd"
             id="path7608"
             inkscape:connector-curvature="0" />
          <path
             d="m 322.69,-446.02 c -0.009,-0.009 0.0266,0 0,0 z"
             style="fill:none;stroke:#000000;stroke-width:1.00129998px"
             id="path7610"
             inkscape:connector-curvature="0" />
          <path
             d="m 327.6,-455.68 c 0.17193,-0.0426 0.57166,-0.17284 0.83797,-0.23942 0.34034,-0.0851 0.69744,0.11971 1.0375,0.11971 0.0345,0 0.25527,0.43894 0.63846,0.43894 h 0.15962 c 0.24164,0 0.51173,0.1925 0.67836,0.35914 0.16091,0.1609 0.0136,0.54508 -0.0798,0.63846 -0.25418,0.25417 -0.48157,0.0771 -0.67836,-0.11972 -0.21053,-0.21053 -0.32098,-0.28974 -0.59856,-0.35913 -0.27563,-0.0689 -0.57017,-0.0271 -0.83797,0.0399 -0.32704,0.0818 -0.54193,0.15961 -0.91779,0.15961 -0.12562,0 -0.5121,-0.54536 -0.55866,-0.63846 -0.0821,-0.16419 0.21875,-0.37391 0.31924,-0.39904 z"
             style="opacity:0.2;fill:#938f8b;fill-rule:evenodd"
             id="path7612"
             inkscape:connector-curvature="0" />
          <path
             d="m 332.43,-455 c 0.19753,0.0512 0.64044,0.0394 0.95768,-0.0399 0.35162,-0.0879 0.90828,-0.13206 1.2769,-0.0399 0.22336,0.0558 1.5873,0.32367 0.95768,0.63846 -0.31149,0.15575 -0.64122,0.19319 -0.91778,0.35913 -0.33295,0.19977 0.40229,0.27933 0.55865,0.27933 0.42422,0 0.18044,0.51064 0.0798,0.67836 -0.15693,0.26154 -0.0504,0.66587 0,0.91779 0.0571,0.28533 0.54752,0.23942 0.79807,0.23942 0.34322,0 0.63189,0.0444 0.83798,0.31923 0.18225,0.243 0.43466,0.4874 0.31923,0.71827 -0.11889,0.23778 -0.72141,0.27932 -0.91778,0.27932 -0.15157,0 -0.75039,-0.7629 -0.83799,-0.83798 -0.23047,-0.19755 -0.49986,-0.0147 -0.71825,0.0399 -0.38884,0.0972 -0.67608,-0.39713 -0.9178,-0.59856 -0.26154,-0.21795 -0.42515,-0.53108 -0.55865,-0.79807 -0.16889,-0.33778 0.10385,-0.47885 -0.39903,-0.47885 -0.3123,0 -0.48314,-0.0631 -0.71828,-0.23942 -0.31928,-0.23946 -0.55864,-0.14689 -0.55864,-0.59856 0,-0.39868 0.0217,-0.5158 0.35913,-0.71826 0.10827,-0.065 0.25395,-0.0327 0.39904,-0.11971 z"
             style="opacity:0.28888999;fill:#938f8b;fill-rule:evenodd"
             id="path7614"
             inkscape:connector-curvature="0" />
          <path
             d="m 323.88,-456.19 c 0.0486,0.17563 -0.12589,0.39398 -0.27933,0.59856 -0.20144,0.2686 -0.31042,0.44774 -0.0798,0.67836 0.14329,0.14329 0.57893,0.0158 0.71827,-0.0399 0.3214,-0.12856 0.67358,-0.22953 0.99759,-0.35914 0.24572,-0.0983 0.42921,-0.13723 0.67837,-0.19952 0.28672,-0.0717 0.57153,0.0571 0.67836,0.19952 0.0681,0.0908 -0.46179,0.49027 -0.51875,0.51875 -0.24201,0.12101 -0.47286,0.21798 -0.71826,0.27933 -0.30202,0.0755 -0.57153,0.17815 -0.87789,0.23942 -0.3077,0.0615 -0.52361,0.15455 -0.79807,0.31923 -0.34006,0.20404 -0.62606,0.50635 -0.91778,0.79807 -0.27258,0.27258 -0.36706,0.56687 -0.27933,0.91779 0.0844,0.33751 0.21002,0.457 0.51874,0.51875 0.34331,0.0687 0.51057,-0.0955 0.67837,-0.31923 0.21824,-0.29099 0.30168,-0.66081 0.55865,-0.91779 0.21494,-0.21494 0.36221,-0.4213 0.59856,-0.59855 0.23961,-0.17971 0.42089,-0.27386 0.71826,-0.19952 0.24732,0.0618 0.44873,0.30522 0.71827,0.35913 0.22729,0.0455 0.56158,-0.26083 0.75817,-0.35913 0.0429,-0.0215 0.0798,-0.0532 0.11972,-0.0798 0.20735,-0.13823 0.55041,-0.0798 0.79807,-0.0798 0.26905,0 0.49616,0.12837 0.71826,0.23943 0.26878,0.13438 0.50064,0.12608 0.75817,0.31922 0.27256,0.20442 0.41891,0.35898 0.55865,0.63846 0.132,0.26398 0.19034,0.42976 0.39905,0.63846 0.22072,0.22073 0.5603,0.3608 0.79806,0.59856 0.14292,0.14291 0.23261,0.53136 0.27934,0.71827 0.0733,0.29311 0.1394,0.59907 0,0.87788 -0.15089,0.30177 -0.33189,0.58395 -0.47885,0.87788 -0.14461,0.28922 -0.54921,0.53161 -0.79808,0.71827 -0.343,0.25726 -0.75121,0.27237 -1.0774,0.59855 -0.37514,0.37514 -0.41054,0.59586 -0.75818,1.1173 -0.25687,0.38531 0.0488,0.55643 0.35914,0.47884 0.32847,-0.0821 0.63271,-0.15818 0.95769,-0.23942 0.0532,-0.0133 0.10641,-0.0266 0.15961,-0.0399 0.40007,-0.10002 0.71782,-0.41888 1.1173,-0.51875 0.49733,-0.12434 1.5428,0.64638 1.9952,0.91778 0.35667,0.214 -0.0691,0.63309 -0.23943,0.71827 -0.31686,0.15844 -0.63298,0.19952 -0.99758,0.19952 -0.23599,0 -0.49249,-0.0746 -0.71827,-0.11971 -0.30515,-0.061 -0.51781,-0.0606 -0.75817,0.11971 -0.26722,0.20041 -0.2359,0.45813 -0.0798,0.71827 0.15594,0.25988 0.4102,0.4437 0.47884,0.71826 0.0866,0.34646 -0.19337,0.53103 -0.43894,0.67837 -0.24654,0.14793 -0.67218,-0.0399 -0.95768,-0.0399 -0.36171,0 -0.71143,0.18442 -0.99759,0.39904 -0.12968,0.0972 -0.24307,0.61316 -0.27933,0.75817 -0.0133,0.0532 -0.0266,0.10641 -0.0399,0.15961 -0.0973,0.38907 0.0274,0.58727 0.15962,0.91779 0.0957,0.23925 0.32804,0.45656 0.43894,0.67836 0.13845,0.2769 0.22919,0.45941 0.0798,0.75817 -0.12733,0.25466 -0.17555,0.46276 -0.23943,0.71827 -0.0447,0.17901 0.20742,0.65821 0.27933,0.83798 0.14423,0.36058 0.0101,0.42884 -0.23942,0.67836 -0.22081,0.22081 -0.55162,0.27581 -0.79808,0.39904 -0.22919,0.11459 -0.68092,-0.0206 -0.91778,-0.0798 -0.26703,-0.0668 -0.51539,0.0582 -0.71827,0.15962 -0.32213,0.16106 -0.32111,0.31673 -0.55865,0 -0.25189,-0.33586 -0.46084,-0.68615 -0.55865,-1.0774 -0.0133,-0.0532 -0.0266,-0.10641 -0.0399,-0.15962 -0.0669,-0.26738 -0.0399,-0.59608 -0.0399,-0.87788 0,-0.28764 0.0798,-0.54462 0.0798,-0.83798 0,-0.31598 -0.75459,0.2779 -0.95769,0.35914 -0.094,0.0376 -0.18622,0.0798 -0.27933,0.11971 -0.39874,0.17088 -0.35913,0.53524 -0.35913,0.87788 0,0.34152 0.19952,0.60231 0.19952,0.95769 0,0.34242 -0.40343,0.43894 -0.67836,0.43894 -0.39099,0 -0.5722,-0.45249 -0.83798,-0.71827 -0.25427,-0.25426 -0.68805,-0.53811 -0.83798,-0.83798 -0.21218,-0.42434 -0.28391,-0.66495 0.15961,-0.99759 0.25414,-0.1906 0.60842,-0.22596 0.79808,-0.47885 0.19924,-0.26565 0.48175,-0.63773 0,-0.75816 -0.32828,-0.0821 -0.45564,-0.19619 -0.83798,-0.11972 -0.0665,0.0133 -0.13301,0.0266 -0.19952,0.0399 -0.65946,0.13189 -0.65494,0.0716 -1.2769,-0.23943 -0.44759,-0.22379 -0.60098,-0.56108 -0.91778,-0.87787 -0.29493,-0.29493 -0.46228,-0.69193 -0.55865,-1.0774 -0.0887,-0.3548 -0.19371,-0.69501 -0.27933,-1.0375 -0.0701,-0.28055 -0.0798,-0.62556 -0.0798,-0.91779 0,-0.29703 -0.0798,-0.61344 -0.0798,-0.91778 v -0.9976 c 0,-0.33652 0.0399,-0.63406 0.0399,-0.95769 0,-0.27723 0.0542,-0.61602 0.11971,-0.87788 0.006,-0.0258 0,-0.0532 0,-0.0798 0,-0.34035 0.19708,-0.69222 0.31923,-0.99759 0.10762,-0.26907 0.27463,-0.54927 0.39904,-0.79807 0.13028,-0.26058 0.26091,-0.48091 0.43893,-0.71827 0.19221,-0.25628 0.3969,-0.51617 0.59856,-0.75817 0.34733,-0.4168 0.70836,-0.80669 1.1173,-1.1572 0.23897,-0.20483 0.35655,-0.54675 0.63846,-0.75817 0.34879,-0.26159 0.65243,-0.5392 0.99759,-0.79807 0.2624,-0.1968 0.50186,-0.42411 0.67837,-0.71827 0.14356,-0.23929 0.22462,-0.46405 0.43893,-0.67836 0.0527,-0.0527 0.22984,-0.13487 0.27933,-0.15962 z"
             style="opacity:0.17778003;fill:url(#radialGradient7778);fill-rule:evenodd"
             id="path7616"
             inkscape:connector-curvature="0" />
          <path
             transform="matrix(0.021289,0,0,0.021289,345.15,-457.77)"
             d="m -824.73,649.37 c 0,17.598 -14.266,31.865 -31.865,31.865 -17.598,0 -31.865,-14.266 -31.865,-31.865 0,-17.598 14.266,-31.865 31.865,-31.865 17.598,0 31.865,14.266 31.865,31.865 z"
             style="opacity:0.61667002;fill:#ffffff"
             id="path7618"
             inkscape:connector-curvature="0" />
          <path
             transform="matrix(0.011271,0,0,0.011271,330.39,-456.65)"
             d="m -824.73,649.37 c 0,17.598 -14.266,31.865 -31.865,31.865 -17.598,0 -31.865,-14.266 -31.865,-31.865 0,-17.598 14.266,-31.865 31.865,-31.865 17.598,0 31.865,14.266 31.865,31.865 z"
             style="opacity:0.54444;fill:#ffffff"
             id="path7620"
             inkscape:connector-curvature="0" />
          <path
             transform="matrix(0.021289,0,0,0.021289,354.93,-458.53)"
             d="m -824.73,649.37 c 0,17.598 -14.266,31.865 -31.865,31.865 -17.598,0 -31.865,-14.266 -31.865,-31.865 0,-17.598 14.266,-31.865 31.865,-31.865 17.598,0 31.865,14.266 31.865,31.865 z"
             style="opacity:0.54444;fill:#c2c3be"
             id="path7622"
             inkscape:connector-curvature="0" />
          <path
             transform="matrix(0.021289,0,0,0.021289,349.82,-448.31)"
             d="m -824.73,649.37 c 0,17.598 -14.266,31.865 -31.865,31.865 -17.598,0 -31.865,-14.266 -31.865,-31.865 0,-17.598 14.266,-31.865 31.865,-31.865 17.598,0 31.865,14.266 31.865,31.865 z"
             style="opacity:0.56667002;fill:#c2c3be"
             id="path7624"
             inkscape:connector-curvature="0" />
          <path
             transform="matrix(0.013775,0,0,0.013775,347.86,-453.49)"
             d="m -824.73,649.37 c 0,17.598 -14.266,31.865 -31.865,31.865 -17.598,0 -31.865,-14.266 -31.865,-31.865 0,-17.598 14.266,-31.865 31.865,-31.865 17.598,0 31.865,14.266 31.865,31.865 z"
             style="opacity:0.61667002;fill:#ffffff"
             id="path7626"
             inkscape:connector-curvature="0" />
          <path
             transform="matrix(0.011271,0,0,0.011271,337.49,-441.33)"
             d="m -824.73,649.37 c 0,17.598 -14.266,31.865 -31.865,31.865 -17.598,0 -31.865,-14.266 -31.865,-31.865 0,-17.598 14.266,-31.865 31.865,-31.865 17.598,0 31.865,14.266 31.865,31.865 z"
             style="opacity:0.61667002;fill:#ffffff"
             id="path7628"
             inkscape:connector-curvature="0" />
          <path
             transform="matrix(0.013775,0,0,0.013775,346.18,-447.59)"
             d="m -824.73,649.37 c 0,17.598 -14.266,31.865 -31.865,31.865 -17.598,0 -31.865,-14.266 -31.865,-31.865 0,-17.598 14.266,-31.865 31.865,-31.865 17.598,0 31.865,14.266 31.865,31.865 z"
             style="opacity:0.61667002;fill:#ffffff"
             id="path7630"
             inkscape:connector-curvature="0" />
          <path
             transform="matrix(0.013775,0,0,0.013775,351.37,-459)"
             d="m -824.73,649.37 c 0,17.598 -14.266,31.865 -31.865,31.865 -17.598,0 -31.865,-14.266 -31.865,-31.865 0,-17.598 14.266,-31.865 31.865,-31.865 17.598,0 31.865,14.266 31.865,31.865 z"
             style="opacity:0.61667002;fill:#ffffff"
             id="path7632"
             inkscape:connector-curvature="0" />
          <path
             transform="matrix(0.013775,0,0,0.013775,348.34,-458.2)"
             d="m -824.73,649.37 c 0,17.598 -14.266,31.865 -31.865,31.865 -17.598,0 -31.865,-14.266 -31.865,-31.865 0,-17.598 14.266,-31.865 31.865,-31.865 17.598,0 31.865,14.266 31.865,31.865 z"
             style="opacity:0.61667002;fill:#ffffff"
             id="path7634"
             inkscape:connector-curvature="0" />
          <path
             transform="matrix(0.013775,0,0,0.013775,349.53,-462.67)"
             d="m -824.73,649.37 c 0,17.598 -14.266,31.865 -31.865,31.865 -17.598,0 -31.865,-14.266 -31.865,-31.865 0,-17.598 14.266,-31.865 31.865,-31.865 17.598,0 31.865,14.266 31.865,31.865 z"
             style="opacity:0.61667002;fill:#ffffff"
             id="path7636"
             inkscape:connector-curvature="0" />
          <path
             transform="matrix(0.013775,0,0,0.013775,340.67,-449.42)"
             d="m -824.73,649.37 c 0,17.598 -14.266,31.865 -31.865,31.865 -17.598,0 -31.865,-14.266 -31.865,-31.865 0,-17.598 14.266,-31.865 31.865,-31.865 17.598,0 31.865,14.266 31.865,31.865 z"
             style="opacity:0.61667002;fill:#ffffff"
             id="path7638"
             inkscape:connector-curvature="0" />
          <path
             d="m 328.31,-435.94 c 0.20049,-0.13569 0.7838,-0.72662 1.1836,-1.0227 0.077,-0.0571 0.14794,-0.12175 0.22192,-0.18263 0.39866,-0.32808 0.74611,-0.84954 1.0356,-1.2784 0.45929,-0.68036 0.66102,-1.2915 0.81369,-2.0454 0.19399,-0.95783 0.24299,-0.31807 0.037,0.2922 -0.0322,0.0953 -0.0493,0.1948 -0.074,0.29221 -0.10106,0.39921 -0.14098,0.82291 -0.29589,1.2053 -0.20907,0.51616 -0.60361,0.95987 -0.73973,1.4976 -0.0726,0.28688 -0.17148,0.63753 -0.11095,0.87661 0.0723,0.28568 0.49382,-0.34519 0.77671,-0.43831 0.38495,-0.12671 0.48082,-0.20957 0.48082,0.21916 0,0.25912 -0.13232,0.61682 -0.18493,0.87661 -0.0907,0.44791 1.1939,0.0705 1.4794,0 0.93365,-0.23051 1.574,-0.54658 2.3302,-1.1688 0.83261,-0.6852 1.5251,-1.4331 2.2932,-2.1915 0.61795,-0.61025 0.90873,-0.99294 0.51781,0.0365 -0.037,0.0974 -0.074,0.19481 -0.11096,0.29221 -0.037,0.0974 -0.074,0.1948 -0.11095,0.2922 -0.20473,0.53913 -0.57829,1.1356 -1.0726,1.461 -0.77021,0.50708 -1.2694,1.4486 -2.1082,1.8628 -0.33947,0.16763 -0.6944,0.2333 -1.0356,0.40179 -0.34243,0.16909 0.66599,0.28819 0.85069,0.32873 1.8569,0.40749 -1.5026,0.58441 -1.9233,0.58441 -0.6938,0 -1.0407,-0.14309 -1.5904,0.18263 -0.18787,0.11131 0.87427,0.53793 0.92465,0.54788 0.43341,0.0856 0.82005,0.36525 1.2945,0.36525 0.78777,0 -1.6432,0.24264 -2.3302,0.0731 -0.57575,-0.14215 -1.1214,-0.25859 -1.7014,-0.40179 -0.29434,-0.0727 -0.58965,-0.0279 -0.85069,0.0365 -0.0519,0.0128 0.037,0.75369 0.037,0.84009 0,0.54096 -0.1434,0.96316 -0.40685,0.18263 -0.14193,-0.42047 -0.40686,-0.86438 -0.40686,-1.3149 0,-0.28528 -0.38147,0.42924 -0.55479,0.65746 -0.24407,0.32138 -0.7248,0.78161 -0.8137,0.80356 -0.0121,0.003 0.23931,-0.50702 0.33287,-0.87662 0.0703,-0.27771 0.52458,-1.021 0.22192,-1.0958 -0.28262,-0.0698 -0.67204,-0.0159 -0.96164,-0.0731 -0.42953,-0.0848 -0.89007,-0.16554 -1.2945,-0.36525 -0.78276,-0.38651 -2.0047,-0.74149 -2.848,-0.94967 -0.0777,-0.0192 -1.3491,-1.3688 -0.14795,-0.18262 0.7929,0.78302 2.0304,1.3149 3.1438,1.3149 0.35677,0 0.88662,-0.13671 1.2206,-0.21916 0.20112,-0.0496 0.47898,-0.34992 0.70274,-0.4383 0.24283,-0.0959 -0.38736,-0.34947 -0.5548,-0.54788 -0.0616,-0.0731 -0.12328,-0.14611 -0.18493,-0.21916 -0.66303,-0.78573 -0.89577,-1.8708 -1.6644,-2.6298 -0.12365,-0.12211 -1.9259,-2.1997 -1.0726,-1.4976 0.8823,0.72609 1.6977,1.3716 2.4411,2.2281 0.38119,0.43918 0.70895,1.0121 1.0726,1.461 0.36592,0.45169 0.28875,-0.0942 0.18493,-0.40178 -0.22258,-0.6594 -0.11096,-1.5758 -0.11096,-2.2646 0,-0.91357 0.47782,0.93782 0.51781,1.0958 0.11494,0.45405 0.35266,1.0454 0.70274,0.58441 0.36173,-0.47629 0.40685,-0.56634 0.40685,0.0365 v 0.1461 c 0,0.22669 -0.0122,0.48773 0.037,0.73051 z"
             style="fill:#ffffff;fill-rule:evenodd"
             id="path7640"
             inkscape:connector-curvature="0" />
          <g
             transform="translate(461.7,-517.21)"
             style="opacity:0.31667002"
             id="g7642">
            <path
               transform="matrix(1,0,0,1.0556,-0.17678,-4.0809)"
               d="m -125.69,68.683 c 0,0.87868 -0.79146,1.591 -1.7678,1.591 -0.97631,0 -1.7678,-0.71231 -1.7678,-1.591 0,-0.87868 0.79146,-1.591 1.7678,-1.591 0.97631,0 1.7678,0.71231 1.7678,1.591 z"
               style="fill:#a3a4a0"
               id="path7644"
               inkscape:connector-curvature="0" />
            <path
               transform="matrix(1,0,0,1.0556,1.7678,-0.10344)"
               d="m -125.69,68.683 c 0,0.87868 -0.79146,1.591 -1.7678,1.591 -0.97631,0 -1.7678,-0.71231 -1.7678,-1.591 0,-0.87868 0.79146,-1.591 1.7678,-1.591 0.97631,0 1.7678,0.71231 1.7678,1.591 z"
               style="fill:#a3a4a0"
               id="path7646"
               inkscape:connector-curvature="0" />
            <path
               transform="matrix(0.65,0,0,0.68611,-40.279,25.214)"
               d="m -125.69,68.683 c 0,0.87868 -0.79146,1.591 -1.7678,1.591 -0.97631,0 -1.7678,-0.71231 -1.7678,-1.591 0,-0.87868 0.79146,-1.591 1.7678,-1.591 0.97631,0 1.7678,0.71231 1.7678,1.591 z"
               style="fill:#a3a4a0"
               id="path7648"
               inkscape:connector-curvature="0" />
            <path
               transform="matrix(1.55,0,0,1.6361,63.03,-45.537)"
               d="m -125.69,68.683 c 0,0.87868 -0.79146,1.591 -1.7678,1.591 -0.97631,0 -1.7678,-0.71231 -1.7678,-1.591 0,-0.87868 0.79146,-1.591 1.7678,-1.591 0.97631,0 1.7678,0.71231 1.7678,1.591 z"
               style="fill:#a3a4a0"
               id="path7651"
               inkscape:connector-curvature="0" />
            <path
               transform="matrix(1.8,0,0,1.9,89.148,-57.506)"
               d="m -125.69,68.683 c 0,0.87868 -0.79146,1.591 -1.7678,1.591 -0.97631,0 -1.7678,-0.71231 -1.7678,-1.591 0,-0.87868 0.79146,-1.591 1.7678,-1.591 0.97631,0 1.7678,0.71231 1.7678,1.591 z"
               style="fill:#a3a4a0"
               id="path7653"
               inkscape:connector-curvature="0" />
            <path
               transform="matrix(1.4,0,0,1.4778,42.32,-25.709)"
               d="m -125.69,68.683 c 0,0.87868 -0.79146,1.591 -1.7678,1.591 -0.97631,0 -1.7678,-0.71231 -1.7678,-1.591 0,-0.87868 0.79146,-1.591 1.7678,-1.591 0.97631,0 1.7678,0.71231 1.7678,1.591 z"
               style="fill:#a3a4a0"
               id="path7655"
               inkscape:connector-curvature="0" />
            <path
               transform="matrix(1.4,0,0,1.4778,40.729,-32.285)"
               d="m -125.69,68.683 c 0,0.87868 -0.79146,1.591 -1.7678,1.591 -0.97631,0 -1.7678,-0.71231 -1.7678,-1.591 0,-0.87868 0.79146,-1.591 1.7678,-1.591 0.97631,0 1.7678,0.71231 1.7678,1.591 z"
               style="fill:#a3a4a0"
               id="path7657"
               inkscape:connector-curvature="0" />
          </g>
          <path
             transform="translate(490.91,-504.26)"
             d="m -161.84,69.523 c 0,0.36612 -0.2968,0.66291 -0.66291,0.66291 -0.36612,0 -0.66292,-0.2968 -0.66292,-0.66291 0,-0.36612 0.2968,-0.66291 0.66292,-0.66291 0.36611,0 0.66291,0.2968 0.66291,0.66291 z"
             style="fill:#ffffff"
             id="path7659"
             inkscape:connector-curvature="0" />
        </g>
        <path
           transform="matrix(1.3865,0,0,1.3865,445.01,-446.36)"
           d="m -46.5,0.25 c 0,5.3848 -4.365,9.75 -9.75,9.75 -5.385,0 -9.75,-4.3652 -9.75,-9.75 0,-5.3848 4.365,-9.75 9.75,-9.75 5.3848,0 9.75,4.3652 9.75,9.75 z"
           style="fill:none;stroke:#888a85;stroke-width:0.72219002"
           id="path7661"
           inkscape:connector-curvature="0" />
        <path
           transform="matrix(0.77807,-1.0613,1.0613,0.77807,410.47,-466.35)"
           d="m -22.5,-17.5 c 0,5.2467 -4.2533,9.5 -9.5,9.5 -5.2467,0 -9.5,-4.2533 -9.5,-9.5 0,-5.2467 4.2533,-9.5 9.5,-9.5 5.2467,0 9.5,4.2533 9.5,9.5 z"
           style="fill:none;stroke:#ffffff;stroke-width:0.76089001;stroke-linecap:square"
           id="path7663"
           inkscape:connector-curvature="0" />
      </g>
    </g>
    <g
       transform="matrix(0.93552,0,0,0.93552,-5.4801,1005.6)"
       id="g3397">
      <path
         d="m 44.21,16.545 c 0,9.0629 -9.0485,16.41 -20.21,16.41 -11.1615,0 -20.21,-7.3469 -20.21,-16.41 0,-9.0629 9.0485,-16.41 20.21,-16.41 11.1615,0 20.21,7.3469 20.21,16.41 z"
         style="fill:url(#radialGradient2996)"
         id="path2891"
         inkscape:connector-curvature="0" />
      <path
         d="m 41.536,43 c 0,2.6924 -7.4035,4.875 -16.536,4.875 -9.1326,0 -16.536,-2.1826 -16.536,-4.875 0,-2.6924 7.4035,-4.875 16.536,-4.875 9.1326,0 16.536,2.1826 16.536,4.875 z"
         style="opacity:0.8;fill:url(#radialGradient2993)"
         id="path2893"
         inkscape:connector-curvature="0" />
      <path
         d="m 21.002,40.503 v 1.383 c 0,1.383 1.4107,2.6123 2.9978,2.6123 1.5871,0 2.9978,-1.2293 2.9978,-2.6123 V 40.503 H 21.002 z"
         style="fill:url(#linearGradient2990);stroke:#565656"
         id="path2895"
         inkscape:connector-curvature="0" />
      <path
         d="m 23.835,28.498 c -3.2668,-0.0079 -6.9714,0.95698 -4.964,2.781 -0.49772,0.2017 -1.2092,0.65215 -1.1253,1.7062 0.04631,0.55049 0.62715,0.88841 1.4215,1.1365 -0.9005,0.6345 -1.4735,1.305 -1.4215,1.9233 0.04576,0.54408 0.61438,0.91666 1.3925,1.1657 -0.87781,0.6272 -1.4438,1.3135 -1.3925,1.9233 0.0784,0.93209 2.0796,1.9762 6.4129,1.8559 3.1199,-0.08543 5.8731,-0.64719 6.0904,-1.8559 0.08532,-0.47462 -0.30136,-0.91747 -0.89931,-1.3114 0.44763,-0.45322 0.76122,-0.91292 0.72525,-1.3405 -0.04598,-0.54664 -0.60791,-0.91701 -1.3925,-1.1657 0.87781,-0.6272 1.4438,-1.3135 1.3925,-1.9233 -0.04598,-0.54664 -0.60791,-0.88787 -1.3925,-1.1365 0.88828,-0.63058 1.4441,-1.3095 1.3925,-1.9233 -0.05739,-0.68228 -3.1696,-1.8279 -6.24,-1.8354 z"
         style="fill:#aeae57;stroke:url(#linearGradient2987);stroke-width:2"
         id="path2897"
         inkscape:connector-curvature="0" />
      <path
         d="m 30.174,39.091 c -0.21729,1.2087 -3.2924,1.8908 -8.2143,1.6432 -3.1172,-0.1568 -3.2956,-1.0329 -3.0783,-2.2416 0.21729,-1.2087 2.9232,-2.0557 6.0399,-1.8905 3.1168,0.16516 5.47,1.2802 5.2527,2.4889 z"
         style="fill:url(#linearGradient2982);stroke:url(#linearGradient2984);stroke-width:0.088289"
         id="path2899"
         inkscape:connector-curvature="0" />
      <path
         d="m 29.995,36.44 c 0.11484,1.3653 -2.5523,3.0637 -5.9572,3.7936 -3.4049,0.7299 -6.2582,0.21483 -6.373,-1.1504 -0.11484,-1.3653 2.5523,-3.0637 5.9572,-3.7936 3.4049,-0.7299 6.2582,-0.21483 6.373,1.1504 z"
         style="fill:url(#linearGradient2977);stroke:url(#linearGradient2979);stroke-width:0.088289"
         id="path2901"
         inkscape:connector-curvature="0" />
      <path
         d="m 29.995,33.364 c 0.11484,1.3653 -2.5523,3.0637 -5.9572,3.7936 -3.4049,0.7299 -6.2582,0.21483 -6.373,-1.1504 -0.11484,-1.3653 2.5523,-3.0637 5.9572,-3.7936 3.4049,-0.7299 6.2582,-0.21483 6.373,1.1504 z"
         style="fill:url(#linearGradient2972);stroke:url(#linearGradient2974);stroke-width:0.088289"
         id="path2903"
         inkscape:connector-curvature="0" />
      <path
         d="m 29.954,30.453 c 0,1.3694 -2.513,2.8992 -5.9161,3.6288 -3.4031,0.72952 -6.2582,0.21413 -6.373,-1.1504 -0.11478,-1.3646 2.2121,-2.9562 5.6172,-3.1416 3.4321,-0.1869 6.672,-0.04364 6.672,0.66326 z"
         style="fill:url(#linearGradient2967);stroke:url(#linearGradient2969);stroke-width:0.088289"
         id="path2905"
         inkscape:connector-curvature="0" />
      <path
         d="m 21.495,35.516 c 0,0.59825 -0.48279,1.0832 -1.0783,1.0832 -0.59555,0 -1.0783,-0.48498 -1.0783,-1.0832 0,-0.59825 0.48279,-1.0832 1.0783,-1.0832 0.59555,0 1.0783,0.48498 1.0783,1.0832 z"
         style="fill:#ffffff"
         id="path2907"
         inkscape:connector-curvature="0" />
      <path
         d="m 18.722,34.172 c 3.3573,0.50142 6.9026,-0.03246 9.7643,-1.8958 0.8024,-0.52246 0.92309,-1.1196 1.2923,-1.5867 -1.4086,1.1196 -4.971,4.135 -11.057,3.4824 z"
         style="fill-opacity:0.23391999;fill-rule:evenodd"
         id="path2909"
         inkscape:connector-curvature="0" />
      <path
         d="m 21.495,38.504 c 0,0.59825 -0.48279,1.0832 -1.0783,1.0832 -0.59555,0 -1.0783,-0.48498 -1.0783,-1.0832 0,-0.59825 0.48279,-1.0832 1.0783,-1.0832 0.59555,0 1.0783,0.48498 1.0783,1.0832 z"
         style="fill:#ffffff"
         id="path2911"
         inkscape:connector-curvature="0" />
      <path
         d="m 18.845,40.271 c 3.3573,0.50142 6.9026,-0.03246 9.7643,-1.8958 0.8024,-0.52246 0.92309,-1.1196 1.2923,-1.5867 -1.4086,1.1196 -4.971,4.135 -11.057,3.4824 z"
         style="fill-opacity:0.23391999;fill-rule:evenodd"
         id="path2913"
         inkscape:connector-curvature="0" />
      <path
         d="m 18.866,37.18 c 3.3573,0.50142 6.9026,-0.03246 9.7643,-1.8958 0.8024,-0.52246 0.92309,-1.1196 1.2923,-1.5867 -1.4086,1.1196 -4.971,4.135 -11.057,3.4824 z"
         style="fill-opacity:0.23391999;fill-rule:evenodd"
         id="path2915"
         inkscape:connector-curvature="0" />
      <path
         d="m 18.456,30.968 c 0,-0.78342 1.5024,-1.7205 5.2954,-1.6681 3.5142,0.04859 5.8291,0.88661 5.8291,2.1405 0,1.2273 -3.0727,2.0481 -6.3489,1.8835 -3.2762,-0.16454 -4.7757,-1.1286 -4.7757,-2.3559 z"
         style="fill:url(#linearGradient2957);stroke:url(#linearGradient2959);stroke-width:0.088289"
         id="path2917"
         inkscape:connector-curvature="0" />
      <path
         d="m 24,2.4934 c -7.4656,0 -13.528,5.9144 -13.528,13.198 0,7.4661 5.48,8.2931 5.48,11.045 0,3.233 3.2129,6.8991 8.4959,6.7667 5.6177,-0.14072 7.936,-3.3293 7.936,-6.7667 0,-2.9389 5.144,-3.0172 5.144,-11.045 0,-7.2831 -6.062,-13.198 -13.528,-13.198 z"
         style="fill:url(#radialGradient2952);stroke:url(#linearGradient2954);stroke-width:0.98750001"
         id="path2919"
         inkscape:connector-curvature="0" />
      <path
         d="m 24,3.5481 c -6.9579,0 -12.608,5.5122 -12.608,12.3 0,6.9584 5.1073,7.729 5.1073,10.293 0,3.0131 2.9944,6.4299 7.9181,6.3065 5.2356,-0.13115 7.3963,-3.1028 7.3963,-6.3065 0,-2.739 4.7942,-2.812 4.7942,-10.293 0,-6.7888 -5.65,-12.301 -12.608,-12.301 z"
         style="fill:none;stroke:url(#linearGradient2949);stroke-width:0.92034"
         id="path2921"
         inkscape:connector-curvature="0" />
      <path
         d="m 29.531,19.07 c 0.2932,0.09663 0.48866,0.38652 0.39093,0.67642 l -3.6161,10.726 c -0.09773,0.28989 -0.39093,0.48315 -0.68412,0.38652 -0.29319,-0.09663 -0.48866,-0.38652 -0.39093,-0.67642 l 3.6161,-10.726 C 28.94461,19.16663 29.23781,18.97337 29.531,19.07 z"
         style="fill:url(#linearGradient2946)"
         id="path2923"
         inkscape:connector-curvature="0" />
      <path
         d="m 18.473,19.186 c -0.2932,0.09663 -0.48866,0.38652 -0.39093,0.67642 l 3.6161,10.726 c 0.09773,0.28989 0.39093,0.48315 0.68412,0.38652 0.29319,-0.09663 0.48866,-0.38652 0.39093,-0.67641 l -3.6161,-10.726 C 19.05939,19.28264 18.76619,19.08938 18.473,19.18601 z"
         style="fill:url(#linearGradient2943)"
         id="path2925"
         inkscape:connector-curvature="0" />
      <path
         d="m 18.57,19.117 c -0.23054,0.03899 -0.41115,0.2175 -0.45066,0.44543 -0.03952,0.22793 0.07064,0.45572 0.27488,0.56841 0,0 1.7271,1.0019 3.9844,1.5063 2.2573,0.50438 5.1458,0.53709 7.3242,-1.5642 0.16429,-0.12888 0.24046,-0.33872 0.19654,-0.54148 -0.04392,-0.20276 -0.20033,-0.36335 -0.40359,-0.41439 -0.20326,-0.05104 -0.41822,0.0163 -0.55467,0.17376 -1.8286,1.7639 -4.2608,1.7654 -6.3281,1.3035 -2.0673,-0.46193 -3.6621,-1.3904 -3.6621,-1.3904 -0.11197,-0.07396 -0.24743,-0.10487 -0.38086,-0.0869 z"
         style="fill:#ff4600;stroke:url(#linearGradient2940);stroke-width:0.2"
         id="path2927"
         inkscape:connector-curvature="0" />
      <path
         d="m 24.307,5.1682 c -5.9782,0 -10.829,3.9848 -10.829,8.8924 0,1.9601 0.93302,3.6763 2.2436,5.1465 1.4819,0.62546 3.096,1.0749 4.876,1.0749 5.9782,0 10.829,-3.9848 10.829,-8.8924 0,-1.9719 -0.94853,-3.7042 -2.2735,-5.1791 C 27.6781,5.59245 26.0757,5.1682 24.307,5.1682 z"
         style="opacity:0.59777;fill:url(#linearGradient2937)"
         id="path2929"
         inkscape:connector-curvature="0" />
    </g>
  </g>
</svg>
