<?xml version="1.0" encoding="UTF-8" standalone="no"?>
<!-- Created with Inkscape (http://www.inkscape.org/) -->

<svg
   xmlns:dc="http://purl.org/dc/elements/1.1/"
   xmlns:cc="http://creativecommons.org/ns#"
   xmlns:rdf="http://www.w3.org/1999/02/22-rdf-syntax-ns#"
   xmlns:svg="http://www.w3.org/2000/svg"
   xmlns="http://www.w3.org/2000/svg"
   xmlns:xlink="http://www.w3.org/1999/xlink"
   xmlns:sodipodi="http://sodipodi.sourceforge.net/DTD/sodipodi-0.dtd"
   xmlns:inkscape="http://www.inkscape.org/namespaces/inkscape"
   version="1.0"
   width="96"
   height="96"
   id="svg2408"
   inkscape:version="0.48.0 r9654"
   sodipodi:docname="revelation.svg">
  <sodipodi:namedview
     pagecolor="#ffffff"
     bordercolor="#666666"
     borderopacity="1"
     objecttolerance="10"
     gridtolerance="10"
     guidetolerance="10"
     inkscape:pageopacity="0"
     inkscape:pageshadow="2"
     inkscape:window-width="1280"
     inkscape:window-height="681"
     id="namedview71"
     showgrid="false"
     inkscape:zoom="3.0833333"
     inkscape:cx="-18.863925"
     inkscape:cy="44.682218"
     inkscape:window-x="0"
     inkscape:window-y="24"
     inkscape:window-maximized="1"
     inkscape:current-layer="svg2408" />
  <defs
     id="defs2410">
    <linearGradient
       id="linearGradient3424">
      <stop
         id="stop3426"
         style="stop-color:#ffffff;stop-opacity:1"
         offset="0" />
      <stop
         id="stop3432"
         style="stop-color:#ffffff;stop-opacity:1"
         offset="0.67213112" />
      <stop
         id="stop3428"
         style="stop-color:#ffffff;stop-opacity:0"
         offset="1" />
    </linearGradient>
    <linearGradient
       id="linearGradient5226">
      <stop
         id="stop5228"
         style="stop-color:#115da6;stop-opacity:1"
         offset="0" />
      <stop
         id="stop5230"
         style="stop-color:#3989d4;stop-opacity:1"
         offset="1" />
    </linearGradient>
    <radialGradient
       cx="63.98003"
       cy="61.948856"
       r="58.01997"
       fx="63.98003"
       fy="61.948856"
       id="radialGradient5232"
       xlink:href="#linearGradient5226"
       gradientUnits="userSpaceOnUse"
       gradientTransform="matrix(1.090012,0,0,0.8408658,-21.739001,-5.5082501)" />
    <linearGradient
       x1="45.447727"
       y1="92.539597"
       x2="45.447727"
       y2="7.0165396"
       id="ButtonShadow"
       gradientUnits="userSpaceOnUse"
       gradientTransform="scale(1.0058652,0.994169)">
      <stop
         id="stop3750"
         style="stop-color:#000000;stop-opacity:1"
         offset="0" />
      <stop
         id="stop3752"
         style="stop-color:#000000;stop-opacity:0.58823532"
         offset="1" />
    </linearGradient>
    <linearGradient
       id="linearGradient3737">
      <stop
         id="stop3739"
         style="stop-color:#ffffff;stop-opacity:1"
         offset="0" />
      <stop
         id="stop3741"
         style="stop-color:#ffffff;stop-opacity:0"
         offset="1" />
    </linearGradient>
    <linearGradient
       id="linearGradient3700">
      <stop
         id="stop3702"
         style="stop-color:#2276c5;stop-opacity:1"
         offset="0" />
      <stop
         id="stop3704"
         style="stop-color:#69a9e6;stop-opacity:1"
         offset="1" />
    </linearGradient>
    <linearGradient
       x1="48"
       y1="90"
       x2="48"
       y2="5.9877172"
       id="linearGradient3706"
       xlink:href="#linearGradient3700"
       gradientUnits="userSpaceOnUse" />
    <filter
       color-interpolation-filters="sRGB"
       id="filter3174">
      <feGaussianBlur
         id="feGaussianBlur3176"
         stdDeviation="1.71" />
    </filter>
    <linearGradient
       x1="36.357143"
       y1="6"
       x2="36.357143"
       y2="63.893143"
       id="linearGradient3188"
       xlink:href="#linearGradient3737"
       gradientUnits="userSpaceOnUse" />
    <radialGradient
       cx="48"
       cy="46.582424"
       r="42"
       fx="48"
       fy="46.582424"
       id="radialGradient3430"
       xlink:href="#linearGradient3424"
       gradientUnits="userSpaceOnUse"
       gradientTransform="matrix(1,0,0,0.9665987,0,1.555912)" />
    <filter
       color-interpolation-filters="sRGB"
       id="filter3434">
      <feGaussianBlur
         id="feGaussianBlur3436"
         stdDeviation="2.4779144" />
    </filter>
    <linearGradient
       id="linearGradient3737-1">
      <stop
         id="stop3739-7"
         style="stop-color:#ffffff;stop-opacity:1"
         offset="0" />
      <stop
         id="stop3741-2"
         style="stop-color:#ffffff;stop-opacity:0"
         offset="1" />
    </linearGradient>
    <radialGradient
       cx="48"
       cy="90.171875"
       r="42"
       fx="48"
       fy="90.171875"
       id="radialGradient2855"
       xlink:href="#linearGradient3737-1"
       gradientUnits="userSpaceOnUse"
       gradientTransform="matrix(1.1573129,0,0,0.99590774,-7.551021,0.1971319)" />
    <linearGradient
       id="linearGradient3737-6">
      <stop
         id="stop3739-73"
         style="stop-color:#ffffff;stop-opacity:1"
         offset="0" />
      <stop
         id="stop3741-6"
         style="stop-color:#ffffff;stop-opacity:0"
         offset="1" />
    </linearGradient>
    <clipPath
       id="clipPath3613">
      <rect
         width="84"
         height="84"
         rx="6"
         ry="6"
         x="6"
         y="6"
         id="rect3615"
         style="fill:#ffffff;fill-opacity:1;fill-rule:nonzero;stroke:none" />
    </clipPath>
    <filter
       x="-0.192"
       y="-0.192"
       width="1.3839999"
       height="1.3839999"
       color-interpolation-filters="sRGB"
       id="filter3794">
      <feGaussianBlur
         id="feGaussianBlur3796"
         stdDeviation="5.28" />
    </filter>
    <linearGradient
       x1="48"
       y1="20.220806"
       x2="48"
       y2="138.66119"
       id="linearGradient2885"
       xlink:href="#linearGradient3737-6"
       gradientUnits="userSpaceOnUse" />
    <linearGradient
       x1="45.447727"
       y1="92.539597"
       x2="45.447727"
       y2="7.0165396"
       id="ButtonShadow-0"
       gradientUnits="userSpaceOnUse"
       gradientTransform="matrix(1.0058652,0,0,0.994169,100,0)">
      <stop
         id="stop3750-8"
         style="stop-color:#000000;stop-opacity:1"
         offset="0" />
      <stop
         id="stop3752-5"
         style="stop-color:#000000;stop-opacity:0.58823532"
         offset="1" />
    </linearGradient>
    <linearGradient
       x1="32.251034"
       y1="6.1317081"
       x2="32.251034"
       y2="90.238609"
       id="linearGradient3780"
       xlink:href="#ButtonShadow-0"
       gradientUnits="userSpaceOnUse"
       gradientTransform="matrix(1.0238095,0,0,1.0119048,-1.1428571,-98.071429)" />
    <linearGradient
       x1="32.251034"
       y1="6.1317081"
       x2="32.251034"
       y2="90.238609"
       id="linearGradient3772"
       xlink:href="#ButtonShadow-0"
       gradientUnits="userSpaceOnUse"
       gradientTransform="matrix(1.0238095,0,0,1.0119048,-1.1428571,-98.071429)" />
    <linearGradient
       x1="32.251034"
       y1="6.1317081"
       x2="32.251034"
       y2="90.238609"
       id="linearGradient3725"
       xlink:href="#ButtonShadow-0"
       gradientUnits="userSpaceOnUse"
       gradientTransform="matrix(1.0238095,0,0,1.0119048,-1.1428571,-98.071429)" />
    <linearGradient
       x1="32.251034"
       y1="6.1317081"
       x2="32.251034"
       y2="90.238609"
       id="linearGradient3721"
       xlink:href="#ButtonShadow-0"
       gradientUnits="userSpaceOnUse"
       gradientTransform="translate(0,-97)" />
    <linearGradient
       x1="32.251034"
       y1="6.1317081"
       x2="32.251034"
       y2="90.238609"
       id="linearGradient3059"
       xlink:href="#ButtonShadow-0"
       gradientUnits="userSpaceOnUse"
       gradientTransform="matrix(1.0238095,0,0,1.0119048,-1.1428571,-98.071429)" />
    <linearGradient
       x1="48"
       y1="90"
       x2="48"
       y2="5.9877172"
       id="linearGradient3427"
       xlink:href="#linearGradient3187"
       gradientUnits="userSpaceOnUse" />
    <linearGradient
       id="linearGradient3187">
      <stop
         id="stop3189"
         style="stop-color:#616161;stop-opacity:1;"
         offset="0" />
      <stop
         id="stop3191"
         style="stop-color:#e6e6e6;stop-opacity:1"
         offset="1" />
    </linearGradient>
    <linearGradient
       x1="36.357143"
       y1="6"
       x2="36.357143"
       y2="63.893143"
       id="linearGradient3188-4"
       xlink:href="#linearGradient3737-76"
       gradientUnits="userSpaceOnUse" />
    <linearGradient
       id="linearGradient3737-76">
      <stop
         id="stop3739-5"
         style="stop-color:#ffffff;stop-opacity:1"
         offset="0" />
      <stop
         id="stop3741-6-3"
         style="stop-color:#ffffff;stop-opacity:0"
         offset="1" />
    </linearGradient>
    <linearGradient
       x1="43.17857"
       y1="13"
       x2="43.17857"
       y2="83.294571"
       id="linearGradient3279"
       xlink:href="#linearGradient3465"
       gradientUnits="userSpaceOnUse"
       gradientTransform="matrix(1.0294118,0,0,1.0294118,-1.4117647,-1.411765)" />
    <linearGradient
       id="linearGradient3465">
      <stop
         id="stop3467"
         style="stop-color:#919191;stop-opacity:1"
         offset="0" />
      <stop
         id="stop3469"
         style="stop-color:#b5b5b5;stop-opacity:0.93548387;"
         offset="1" />
    </linearGradient>
    <radialGradient
       r="42"
       fy="90.171875"
       fx="48"
       cy="90.171875"
       cx="48"
       gradientTransform="matrix(1.1573129,0,0,0.99590774,-7.551021,0.1971319)"
       gradientUnits="userSpaceOnUse"
       id="radialGradient3189"
       xlink:href="#linearGradient3737-7"
       inkscape:collect="always" />
    <linearGradient
       id="linearGradient3737-7">
      <stop
         id="stop3739-2"
         style="stop-color:#ffffff;stop-opacity:1"
         offset="0" />
      <stop
         id="stop3741-7"
         style="stop-color:#ffffff;stop-opacity:0"
         offset="1" />
    </linearGradient>
    <linearGradient
       id="linearGradient3950">
      <stop
         style="stop-color:#848484;stop-opacity:1;"
         offset="0"
         id="stop3952" />
      <stop
         style="stop-color:#aeaeae;stop-opacity:0;"
         offset="1"
         id="stop3954" />
    </linearGradient>
    <linearGradient
       id="linearGradient3906">
      <stop
         style="stop-color:#6e6e6e;stop-opacity:1;"
         offset="0"
         id="stop3908" />
      <stop
         id="stop3948"
         offset="0.5"
         style="stop-color:#8d8d8d;stop-opacity:0.49803922;" />
      <stop
         style="stop-color:#484848;stop-opacity:0;"
         offset="1"
         id="stop3910" />
    </linearGradient>
    <linearGradient
       id="linearGradient3950-4">
      <stop
         style="stop-color:#434343;stop-opacity:1;"
         offset="0"
         id="stop3952-3" />
      <stop
         id="stop4011"
         offset="0.66336632"
         style="stop-color:#999999;stop-opacity:0.49803922;" />
      <stop
         style="stop-color:#aeaeae;stop-opacity:0;"
         offset="1"
         id="stop3954-6" />
    </linearGradient>
    <linearGradient
       id="linearGradient3906-3">
      <stop
         style="stop-color:#c0c0c0;stop-opacity:1;"
         offset="0"
         id="stop3908-0" />
      <stop
         style="stop-color:#707070;stop-opacity:1;"
         offset="1"
         id="stop3910-3" />
    </linearGradient>
    <linearGradient
       id="linearGradient3465-4">
      <stop
         id="stop3467-3"
         style="stop-color:#919191;stop-opacity:1"
         offset="0" />
      <stop
         id="stop3469-0"
         style="stop-color:#e6e6e6;stop-opacity:0.93548387;"
         offset="1" />
    </linearGradient>
    <linearGradient
       id="linearGradient4083">
      <stop
         style="stop-color:#5f5f5f;stop-opacity:1;"
         offset="0"
         id="stop4085" />
      <stop
         id="stop4093"
         offset="0.25"
         style="stop-color:#6b6b6b;stop-opacity:0.74901961;" />
      <stop
         id="stop4091"
         offset="1"
         style="stop-color:#ffffff;stop-opacity:1;" />
      <stop
         style="stop-color:#ffffff;stop-opacity:0;"
         offset="1"
         id="stop4087" />
    </linearGradient>
    <filter
       color-interpolation-filters="sRGB"
       inkscape:collect="always"
       id="filter4194-4">
      <feGaussianBlur
         inkscape:collect="always"
         stdDeviation="0.030164447"
         id="feGaussianBlur4196-0" />
    </filter>
    <linearGradient
       id="linearGradient4232">
      <stop
         style="stop-color:#616161;stop-opacity:1;"
         offset="0"
         id="stop4234" />
      <stop
         style="stop-color:#858585;stop-opacity:0;"
         offset="1"
         id="stop4236" />
    </linearGradient>
    <filter
       color-interpolation-filters="sRGB"
       inkscape:collect="always"
       id="filter4264">
      <feGaussianBlur
         inkscape:collect="always"
         stdDeviation="0.89045487"
         id="feGaussianBlur4266" />
    </filter>
    <linearGradient
       inkscape:collect="always"
       id="linearGradient4278">
      <stop
         style="stop-color:#979797;stop-opacity:1;"
         offset="0"
         id="stop4280" />
      <stop
         style="stop-color:#979797;stop-opacity:0;"
         offset="1"
         id="stop4282" />
    </linearGradient>
    <linearGradient
       inkscape:collect="always"
       id="linearGradient4314">
      <stop
         style="stop-color:#ebebeb;stop-opacity:1;"
         offset="0"
         id="stop4316" />
      <stop
         style="stop-color:#ebebeb;stop-opacity:0;"
         offset="1"
         id="stop4318" />
    </linearGradient>
    <linearGradient
       id="linearGradient4462">
      <stop
         style="stop-color:#464646;stop-opacity:1;"
         offset="0"
         id="stop4464" />
      <stop
         style="stop-color:#e3e3e3;stop-opacity:1;"
         offset="1"
         id="stop4466" />
    </linearGradient>
    <linearGradient
       id="linearGradient4342">
      <stop
         style="stop-color:#d5d5d5;stop-opacity:1;"
         offset="0"
         id="stop4344" />
      <stop
         style="stop-color:#d5d5d5;stop-opacity:0;"
         offset="1"
         id="stop4346" />
    </linearGradient>
    <linearGradient
       inkscape:collect="always"
       xlink:href="#linearGradient4342"
       id="linearGradient4048"
       x1="3.5999217"
       y1="24.094204"
       x2="3.7679319"
       y2="71.371277"
       gradientUnits="userSpaceOnUse" />
    <linearGradient
       inkscape:collect="always"
       xlink:href="#linearGradient4342"
       id="linearGradient4102"
       gradientUnits="userSpaceOnUse"
       x1="3.5999217"
       y1="24.094204"
       x2="3.7679319"
       y2="71.371277" />
    <linearGradient
       inkscape:collect="always"
       xlink:href="#linearGradient4342"
       id="linearGradient4150"
       gradientUnits="userSpaceOnUse"
       gradientTransform="matrix(0.46177297,0,0,0.50146115,123.62692,46.178704)"
       x1="-107.36486"
       y1="38.270271"
       x2="-107.66216"
       y2="16.540541" />
    <linearGradient
       inkscape:collect="always"
       xlink:href="#linearGradient4462"
       id="linearGradient4152"
       gradientUnits="userSpaceOnUse"
       x1="-55.79916"
       y1="36.889698"
       x2="-55.770824"
       y2="61.772209" />
    <linearGradient
       inkscape:collect="always"
       xlink:href="#linearGradient4314"
       id="linearGradient4154"
       gradientUnits="userSpaceOnUse"
       x1="-101.31033"
       y1="25.090227"
       x2="-101.31215"
       y2="-15.778312" />
    <linearGradient
       inkscape:collect="always"
       xlink:href="#linearGradient4278"
       id="linearGradient4156"
       gradientUnits="userSpaceOnUse"
       x1="-76.274834"
       y1="19.802862"
       x2="-76.274826"
       y2="29.570745" />
    <linearGradient
       inkscape:collect="always"
       xlink:href="#linearGradient4232"
       id="linearGradient4158"
       gradientUnits="userSpaceOnUse"
       x1="-90.538673"
       y1="22.330914"
       x2="-90.827919"
       y2="85.923538" />
    <linearGradient
       inkscape:collect="always"
       xlink:href="#linearGradient4083"
       id="linearGradient4160"
       gradientUnits="userSpaceOnUse"
       x1="-94.554054"
       y1="106.7027"
       x2="-93.878387"
       y2="47.351349" />
    <linearGradient
       inkscape:collect="always"
       xlink:href="#linearGradient4342"
       id="linearGradient4162"
       gradientUnits="userSpaceOnUse"
       x1="3.5999217"
       y1="24.094204"
       x2="3.7679319"
       y2="71.371277" />
    <linearGradient
       inkscape:collect="always"
       xlink:href="#linearGradient3950"
       id="linearGradient4164"
       gradientUnits="userSpaceOnUse"
       x1="-80.432434"
       y1="78.162163"
       x2="-80.75676"
       y2="-1.6216214" />
    <linearGradient
       inkscape:collect="always"
       xlink:href="#linearGradient4342"
       id="linearGradient4166"
       gradientUnits="userSpaceOnUse"
       x1="3.5999217"
       y1="24.094204"
       x2="3.7679319"
       y2="71.371277" />
    <linearGradient
       inkscape:collect="always"
       xlink:href="#linearGradient3950-4"
       id="linearGradient4168"
       gradientUnits="userSpaceOnUse"
       x1="-80.432434"
       y1="78.162163"
       x2="-80.75676"
       y2="-1.6216214" />
    <linearGradient
       inkscape:collect="always"
       xlink:href="#linearGradient4342"
       id="linearGradient4170"
       gradientUnits="userSpaceOnUse"
       x1="3.5999217"
       y1="24.094204"
       x2="3.7679319"
       y2="71.371277" />
    <linearGradient
       inkscape:collect="always"
       xlink:href="#linearGradient4342"
       id="linearGradient4172"
       gradientUnits="userSpaceOnUse"
       x1="3.5999217"
       y1="24.094204"
       x2="3.7679319"
       y2="71.371277" />
    <linearGradient
       inkscape:collect="always"
       xlink:href="#linearGradient4342"
       id="linearGradient4174"
       gradientUnits="userSpaceOnUse"
       x1="3.5999217"
       y1="24.094204"
       x2="3.7679319"
       y2="71.371277" />
    <linearGradient
       inkscape:collect="always"
       xlink:href="#linearGradient3700"
       id="linearGradient4297"
       gradientUnits="userSpaceOnUse"
       gradientTransform="matrix(0.80557329,0,0,0.81430803,111.86925,9.4186827)"
       x1="48"
       y1="90"
       x2="48"
       y2="5.9877172" />
    <radialGradient
       inkscape:collect="always"
       xlink:href="#linearGradient3424"
       id="radialGradient4299"
       gradientUnits="userSpaceOnUse"
       gradientTransform="matrix(1,0,0,0.9665987,0,1.555912)"
       cx="48"
       cy="46.582424"
       fx="48"
       fy="46.582424"
       r="42" />
    <radialGradient
       inkscape:collect="always"
       xlink:href="#linearGradient5226"
       id="radialGradient4301"
       gradientUnits="userSpaceOnUse"
       gradientTransform="matrix(0.87808455,0,0,0.68472377,94.032568,5.9062437)"
       cx="63.98003"
       cy="61.948856"
       fx="63.98003"
       fy="61.948856"
       r="58.01997" />
    <linearGradient
       inkscape:collect="always"
       xlink:href="#linearGradient3737-6"
       id="linearGradient4303"
       gradientUnits="userSpaceOnUse"
       x1="48"
       y1="20.220806"
       x2="48"
       y2="138.66119" />
    <filter
       inkscape:collect="always"
       id="filter4424"
       x="-0.16218278"
       width="1.3243656"
       y="-0.16423046"
       height="1.3284609">
      <feGaussianBlur
         inkscape:collect="always"
         stdDeviation="2.8977393"
         id="feGaussianBlur4426" />
    </filter>
    <radialGradient
       inkscape:collect="always"
       xlink:href="#linearGradient3737-7"
       id="radialGradient3922"
       gradientUnits="userSpaceOnUse"
       gradientTransform="matrix(1.1662497,0,0,0.98821733,-7.0070103,1.2149148)"
       cx="48"
       cy="90.171875"
       fx="48"
       fy="90.171875"
       r="42" />
    <linearGradient
       inkscape:collect="always"
       xlink:href="#linearGradient3187"
       id="linearGradient3925"
       gradientUnits="userSpaceOnUse"
       gradientTransform="matrix(1.0373609,0,0,1.0214627,-1.4689956,-0.38155814)"
       x1="43.17857"
       y1="13"
       x2="43.17857"
       y2="83.294571" />
    <linearGradient
       inkscape:collect="always"
       xlink:href="#linearGradient3737-76"
       id="linearGradient3928"
       gradientUnits="userSpaceOnUse"
       x1="36.357143"
       y1="6"
       x2="36.357143"
       y2="63.893143"
       gradientTransform="matrix(1.007722,0,0,0.99227799,-0.0463293,1.0193052)" />
    <linearGradient
       inkscape:collect="always"
       xlink:href="#linearGradient3465"
       id="linearGradient3931"
       gradientUnits="userSpaceOnUse"
       x1="48"
       y1="90"
       x2="48"
       y2="5.9877172"
       gradientTransform="matrix(1.007722,0,0,0.99227799,-0.0463293,1.0193052)" />
  </defs>
  <metadata
     id="metadata2413">
    <rdf:RDF>
      <cc:Work
         rdf:about="">
        <dc:format>image/svg+xml</dc:format>
        <dc:type
           rdf:resource="http://purl.org/dc/dcmitype/StillImage" />
        <dc:title />
      </cc:Work>
    </rdf:RDF>
  </metadata>
  <g
     id="layer2"
     style="display:none">
    <rect
       width="86"
       height="85"
       rx="6"
       ry="6"
       x="5"
       y="7"
       id="rect3745"
       style="opacity:0.9;fill:url(#ButtonShadow);fill-opacity:1;fill-rule:nonzero;stroke:none;filter:url(#filter3174)" />
  </g>
  <g
     id="layer3"
     transform="translate(120.32432,155.67568)">
    <path
       d="m 47.5625,14.03125 0.0625,1 L 47.8125,16 c 0,0 -0.56855,-1.872463 -0.5625,-1.875 -0.0029,0.0012 -0.02423,-0.0028 -0.03125,0 8.26e-4,-2.05e-4 -0.05616,0.01919 -0.09375,0.03125 -0.0043,10e-4 -0.03069,-1.37e-4 -0.03125,0 -0.01211,0.003 -0.04685,0.02732 -0.0625,0.03125 -0.01565,0.0039 -0.02025,-0.0027 -0.03125,0 0.0078,-0.0018 -0.03125,0 -0.03125,0 0,0 -0.189616,0.09483 -0.1875,0.09375 -0.0029,0.0014 -0.0255,-0.0029 -0.03125,0 -0.0115,0.0058 -0.01559,0.02342 -0.03125,0.03125 -0.01566,0.0078 -0.05084,-0.0058 -0.0625,0 -0.0058,0.0029 0.0032,0.02964 0,0.03125 0,0 -0.161259,0.09763 -0.15625,0.09375 -0.0023,0.0017 -0.02564,-0.0042 -0.03125,0 -0.0056,0.0042 0.0073,0.0258 0,0.03125 -0.0073,0.0054 -0.02341,-0.0059 -0.03125,0 -0.0073,0.0036 -0.02569,-0.0028 -0.03125,0 0.0063,-0.003 0,0.03125 0,0.03125 -0.006,0.0045 -0.02725,0.02825 -0.03125,0.03125 -0.05331,0.03963 -0.254717,0.16115 -0.25,0.15625 -0.01186,0.0089 -0.01559,0.01949 -0.03125,0.03125 -0.01176,0.01173 -0.02217,0.02219 -0.03125,0.03125 -0.0057,0.0043 -0.02869,-0.0019 -0.03125,0 0.0037,-0.0027 0,0.03125 0,0.03125 0,0 -0.1256,0.09435 -0.125,0.09375 -0.0087,0.0087 -0.01951,0.0195 -0.03125,0.03125 -0.01174,0.01175 -0.02262,0.02263 -0.03125,0.03125 0.0016,-0.0016 0,0.03125 0,0.03125 -0.0014,0.0014 -0.02981,-0.0014 -0.03125,0 -0.0089,0.0089 -0.01951,0.0195 -0.03125,0.03125 -0.01174,0.01175 -0.02284,0.02285 -0.03125,0.03125 0.0041,-0.004 0,0.03125 0,0.03125 0,0 -0.15054,0.167328 -0.1875,0.21875 -0.003,0.0042 0.0014,0.02942 0,0.03125 -0.0012,0.0016 -0.03149,4.99e-4 -0.03125,0 -0.0055,0.0074 0.0059,0.02341 0,0.03125 -0.0059,0.0078 0.0055,0.02396 0,0.03125 -0.0055,0.0073 -0.02699,-0.0057 -0.03125,0 -0.0037,0.0074 0.0031,0.02515 0,0.03125 0,0 0.0036,0.02541 0,0.03125 0,0 -0.03393,0.0055 -0.03125,0 -0.02656,0.0435 -0.06332,0.126671 -0.0625,0.125 -0.0014,0.0029 -0.02838,-0.0058 -0.03125,0 -0.0057,0.0115 0.0078,0.04684 0,0.0625 -0.0078,0.01566 -0.02542,0.01959 -0.03125,0.03125 -0.0029,0.0058 0.0016,0.02801 0,0.03125 -0.0017,0.0035 -0.02831,-0.0059 -0.03125,0 -0.0059,0.01177 0.0078,0.04684 0,0.0625 -0.0078,0.01566 -0.02555,0.01986 -0.03125,0.03125 -0.0029,0.0057 0.0013,0.02861 0,0.03125 0,0 -0.09524,0.225144 -0.09375,0.21875 -0.0028,0.01113 0.0039,0.01559 0,0.03125 -0.0039,0.01566 -0.02825,0.05052 -0.03125,0.0625 0,0 -7.07e-4,0.03418 0,0.03125 -0.0029,0.01143 0.0039,0.01559 0,0.03125 -0.0039,0.01566 -0.02833,0.05083 -0.03125,0.0625 l -3.5625,13.0625 c -6.298719,2.068363 -11.156148,6.955026 -13.21875,13.25 l -12.9375,3.53125 -0.125,0.03125 a 0.99149819,0.99149819 0 0 0 -0.03125,0 c 0.0022,-5.96e-4 -0.03958,0.02562 -0.0625,0.03125 -0.01146,0.0028 -0.02415,-0.0017 -0.03125,0 l 0.21875,0.96875 0.3125,0.9375 c 0,0 -0.687441,-1.843775 -0.6875,-1.84375 -0.0036,0.0014 -0.02407,-0.0029 -0.03125,0 -0.01437,0.0058 -0.01167,0.02342 -0.03125,0.03125 -0.01958,0.0078 -0.04791,-0.0058 -0.0625,0 -0.0073,0.0029 -0.02715,-0.0016 -0.03125,0 -0.0014,5.46e-4 1.44e-4,0.03119 0,0.03125 -0.0043,0.0017 -0.02391,-0.0029 -0.03125,0 -0.01469,0.0059 -0.01168,0.02341 -0.03125,0.03125 -0.0098,0.0039 -0.02213,-0.0037 -0.03125,0 0,0 0.3125,0.9375 0.3125,0.9375 0,0 -0.536802,-0.840301 -0.53125,-0.84375 -0.01444,0.0087 -0.04292,0.0195 -0.0625,0.03125 -0.01958,0.01175 -0.04792,0.02251 -0.0625,0.03125 -0.0073,0.0044 0.0041,0.02882 0,0.03125 0,0 0.5,0.84375 0.5,0.84375 0,0 -0.624954,-0.781286 -0.625,-0.78125 -0.01142,0.0086 -0.01559,0.01951 -0.03125,0.03125 -0.01566,0.01174 -0.01954,0.02248 -0.03125,0.03125 -0.0059,0.0044 -0.0279,-0.0025 -0.03125,0 -0.0017,0.0013 8.29e-4,0.03063 0,0.03125 -0.0034,0.0025 -0.02539,-0.0044 -0.03125,0 -0.01171,0.0088 -0.01559,0.0195 -0.03125,0.03125 -0.01566,0.01175 -0.01984,0.0227 -0.03125,0.03125 0,0 0.5625,0.8125 0.5625,0.8125 0,0 -0.722983,-0.683144 -0.71875,-0.6875 -0.01156,0.01156 -0.01558,0.04684 -0.03125,0.0625 -0.01567,0.01566 -0.05086,0.01962 -0.0625,0.03125 0,0 0.6875,0.71875 0.6875,0.71875 0,0 -0.812466,-0.562548 -0.8125,-0.5625 -0.0085,0.01131 -0.0195,0.0156 -0.03125,0.03125 -0.01175,0.01565 -0.02238,0.01944 -0.03125,0.03125 -0.0044,0.0059 0.0027,0.02766 0,0.03125 -9.82e-4,-7.15e-4 -0.03125,0 -0.03125,0 -0.0023,0.0031 0.0044,0.02544 0,0.03125 -0.0087,0.01161 -0.01951,0.01559 -0.03125,0.03125 -0.01174,0.01566 -0.02261,0.01973 -0.03125,0.03125 0,0 0.78125,0.625 0.78125,0.625 0,0 -0.846297,-0.495636 -0.84375,-0.5 -0.0023,0.0039 -0.02691,-0.0072 -0.03125,0 -0.0035,0.0058 0.0043,0.02415 0,0.03125 -0.0064,0.01065 -0.0242,0.0195 -0.03125,0.03125 -0.0047,0.0078 0.0045,0.02374 0,0.03125 -0.0068,0.01127 -0.02602,0.02254 -0.03125,0.03125 0,0 0.120962,0.08364 0.1875,0.125 0.193621,0.183108 0.5625,0.53125 0.5625,0.53125 0,0 -0.939199,-0.339362 -0.9375,-0.34375 -0.0058,0.01449 0.0078,0.04292 0,0.0625 -0.0078,0.01958 -0.02545,0.01678 -0.03125,0.03125 -0.0029,0.0072 0.0015,0.02742 0,0.03125 0,0 0.90625,0.375 0.90625,0.375 0,0 -0.968741,-0.156309 -0.96875,-0.15625 -0.0028,0.01405 -0.02732,0.01168 -0.03125,0.03125 -0.0039,0.01957 0.003,0.04763 0,0.0625 -0.0015,0.0074 9.44e-4,0.02653 0,0.03125 0,0 0,0.03125 0,0.03125 -0.0029,0.01441 -0.02733,0.01167 -0.03125,0.03125 -0.0039,0.01958 0.0029,0.04798 0,0.0625 0,0 0.96875,0.21875 0.96875,0.21875 0,0 -0.9688,-0.155948 -0.96875,-0.15625 -8.36e-4,0.005 0.0015,0.02247 0,0.03125 -0.0029,0.01756 -0.02734,0.039 -0.03125,0.0625 -0.0039,0.0235 0.0029,0.04521 0,0.0625 0,0 0.96875,0.1875 0.96875,0.1875 0,0 -1.000001,0.03119 -1,0.03125 5e-6,0.01427 6e-6,0.01168 0,0.03125 -6e-6,0.01957 8e-6,0.04786 0,0.0625 -4e-6,0.0073 2e-6,0.02705 0,0.03125 2e-6,0.0042 -4e-6,0.02393 0,0.03125 8e-6,0.01464 -6e-6,0.04293 0,0.0625 6e-6,0.01957 5e-6,0.01698 0,0.03125 0,0 1,0.03125 1,0.03125 0,0 -0.968764,0.187426 -0.96875,0.1875 0.0029,0.01729 -0.0039,0.039 0,0.0625 0.0039,0.0235 0.02833,0.04494 0.03125,0.0625 0.0015,0.0088 -8.36e-4,0.02622 0,0.03125 0,0 0.96875,-0.15625 0.96875,-0.15625 0,0 -0.967993,0.191117 -0.96875,0.1875 7.88e-4,0.0039 -0.0015,0.02399 0,0.03125 0.0029,0.01452 -0.0039,0.04292 0,0.0625 0.0039,0.01958 0.02837,0.01684 0.03125,0.03125 0,0 0.96875,-0.15625 0.96875,-0.15625 0,0 -0.968761,0.187441 -0.96875,0.1875 9.44e-4,0.0047 -0.0015,0.02382 0,0.03125 0.003,0.01487 -0.0039,0.04293 0,0.0625 0.002,0.0098 0.02943,-0.0091 0.03125,0 0,0 0.96875,-0.125 0.96875,-0.125 0,0 -0.904281,0.379755 -0.90625,0.375 0.0015,0.0038 -0.0029,0.02401 0,0.03125 0.0058,0.01447 0.02342,0.01167 0.03125,0.03125 0.0078,0.01958 -0.0058,0.04801 0,0.0625 0,0 0.9375,-0.34375 0.9375,-0.34375 0,0 -0.750038,0.656205 -0.75,0.65625 0.01172,0.01568 0.02211,0.01905 0.03125,0.03125 0.0045,0.0075 -0.0047,0.02342 0,0.03125 0.007,0.01175 0.02486,0.0206 0.03125,0.03125 0.0043,0.0071 -0.0035,0.02545 0,0.03125 0,0 0.03004,6.94e-4 0.03125,0 0,0 0.05181,-0.05323 0.0625,-0.0625 0.15155,-0.08665 0.78125,-0.4375 0.78125,-0.4375 0,0 -0.781286,0.593704 -0.78125,0.59375 0.0022,0.0029 -0.0043,0.02549 0,0.03125 0.0086,0.01152 0.01951,0.01559 0.03125,0.03125 0.01174,0.01566 0.02255,0.01964 0.03125,0.03125 0.0044,0.0058 -0.0023,0.02812 0,0.03125 0,0 0.03027,7.13e-4 0.03125,0 0.0027,0.0036 -0.0044,0.02535 0,0.03125 0.0089,0.01181 0.0195,0.0156 0.03125,0.03125 0.0059,0.0078 0.02579,-0.0073 0.03125,0 0,0 0.8125,-0.53125 0.8125,-0.53125 0,0 -0.685314,0.720904 -0.6875,0.71875 0.01164,0.01163 0.04683,0.01559 0.0625,0.03125 0.01567,0.01566 0.01969,0.05094 0.03125,0.0625 0,0 0.71875,-0.6875 0.71875,-0.6875 0,0 -0.562548,0.812466 -0.5625,0.8125 0.01141,0.0086 0.01559,0.0195 0.03125,0.03125 0.01566,0.01175 0.01954,0.02246 0.03125,0.03125 0.0059,0.0044 0.02788,-0.0025 0.03125,0 8.29e-4,6.21e-4 -0.0017,0.03 0,0.03125 0.0033,0.0025 0.0254,-0.0044 0.03125,0 0.01171,0.0088 0.01559,0.01951 0.03125,0.03125 0.01566,0.01174 0.01983,0.02268 0.03125,0.03125 0,0 0.625,-0.78125 0.625,-0.78125 0,0 -0.498118,0.844865 -0.5,0.84375 0.0041,0.0024 -0.0073,0.02688 0,0.03125 0.01458,0.0087 0.04292,0.0195 0.0625,0.03125 0.01958,0.01175 0.04806,0.02258 0.0625,0.03125 0,0 0.53125,-0.84375 0.53125,-0.84375 0,0 -0.34381,0.937478 -0.34375,0.9375 0.01428,0.0057 0.04293,-0.0078 0.0625,0 0.01957,0.0078 0.01656,0.02537 0.03125,0.03125 0.0073,0.0029 0.02694,-0.0017 0.03125,0 -6.2e-4,0.0015 4e-5,0.03127 0,0.03125 0.0041,0.0016 0.02395,-0.0029 0.03125,0 0.01459,0.0058 0.04292,-0.0078 0.0625,0 0.01958,0.0078 0.01688,0.0255 0.03125,0.03125 0,0 0.40625,-0.90625 0.40625,-0.90625 l 0.3125,-0.9375 c 0,0 -0.525415,1.907559 -0.53125,1.90625 0.0071,0.0017 0.01979,-0.0028 0.03125,0 0.02292,0.0056 0.06467,0.03185 0.0625,0.03125 0.05391,0.01478 0.02675,-0.0071 0.0625,0 l 13.03125,3.5625 c 2.060012,6.280846 6.910832,11.146067 13.1875,13.21875 l 3.59375,13.03125 0,0.03125 a 0.99149819,0.99149819 0 0 0 0,0.0625 c 0.0039,0.01425 0.02758,0.01892 0.03125,0.03125 0.01153,0.03876 0.02261,0.100509 0.03125,0.125 0.0057,0.01614 -0.0041,0.02047 0,0.03125 9.17e-4,0.0024 -0.0016,0.02716 0,0.03125 8.09e-4,0.002 0.03122,-7.1e-5 0.03125,0 0.0014,0.0036 -0.0029,0.02407 0,0.03125 0.0058,0.01437 0.02342,0.01167 0.03125,0.03125 0.0078,0.01958 -0.0058,0.04791 0,0.0625 0.0029,0.0073 -0.0016,0.02715 0,0.03125 0,0 0.02977,5.81e-4 0.03125,0 0.0017,0.0043 -0.0029,0.02391 0,0.03125 0.0059,0.01469 0.02341,0.01167 0.03125,0.03125 0.0039,0.0098 -0.0037,0.02213 0,0.03125 0,0 0.09746,-0.02167 0.125,-0.03125 a 0.99149819,0.99149819 0 0 0 0.03125,0 0.99149819,0.99149819 0 0 0 0.15625,0.125 c -0.0804,0.0496 -0.217879,0.126402 -0.21875,0.125 0.0087,0.01444 0.0195,0.04292 0.03125,0.0625 0.01175,0.01958 0.02251,0.04792 0.03125,0.0625 0.0044,0.0073 0.02882,-0.0041 0.03125,0 0,0 0.16414,-0.100402 0.3125,-0.1875 a 0.99149819,0.99149819 0 0 0 0.09375,0.03125 c -0.170617,0.134525 -0.343766,0.28123 -0.34375,0.28125 0.0086,0.01142 0.01951,0.01559 0.03125,0.03125 0.01174,0.01566 0.02248,0.01954 0.03125,0.03125 0.0044,0.0059 -0.0025,0.0279 0,0.03125 0.0013,0.0017 0.03063,-8.29e-4 0.03125,0 0.0025,0.0034 -0.0044,0.0254 0,0.03125 0.0088,0.01171 0.0195,0.01559 0.03125,0.03125 0.01175,0.01566 0.0227,0.01984 0.03125,0.03125 0,0 0.65079,-0.463662 0.75,-0.53125 0.0028,-0.0019 0.02946,0.0012 0.03125,0 -0.0557,0.05802 -0.652088,0.691545 -0.65625,0.6875 0.01156,0.01156 0.04684,0.01559 0.0625,0.03125 0.01566,0.01566 0.01962,0.05086 0.03125,0.0625 0,0 0.71875,-0.6875 0.71875,-0.6875 0,0 -0.562548,0.812466 -0.5625,0.8125 0.01131,0.0085 0.0156,0.0195 0.03125,0.03125 0.01565,0.01175 0.01944,0.02238 0.03125,0.03125 0.0059,0.0044 0.02766,-0.0027 0.03125,0 -7.9e-4,9.27e-4 7.8e-5,0.03131 0,0.03125 0.0031,0.0023 0.02544,-0.0044 0.03125,0 0.01161,0.0087 0.01559,0.01951 0.03125,0.03125 0.01566,0.01174 0.01973,0.02261 0.03125,0.03125 0,0 0.625,-0.78125 0.625,-0.78125 0,0 -0.495636,0.846297 -0.5,0.84375 0.0039,0.0023 -0.0072,0.02691 0,0.03125 0.0058,0.0035 0.02415,-0.0043 0.03125,0 0.01065,0.0064 0.0195,0.0242 0.03125,0.03125 0.0026,0.0019 0.0282,-0.0023 0.03125,0 0,0 0.03125,0.03125 0.03125,0.03125 0,0 0.08364,-0.120962 0.125,-0.1875 0.183108,-0.193621 0.53125,-0.5625 0.53125,-0.5625 0,0 -0.339362,0.939199 -0.34375,0.9375 0.01449,0.0058 0.04292,-0.0078 0.0625,0 0.01958,0.0078 0.01678,0.02545 0.03125,0.03125 0.0072,0.0029 0.02742,-0.0015 0.03125,0 0,0 0.375,-0.90625 0.375,-0.90625 0,0 -0.156309,0.968741 -0.15625,0.96875 0.01405,0.0028 0.01168,0.02732 0.03125,0.03125 0.01957,0.0039 0.04763,-0.003 0.0625,0 0.0074,0.0015 0.02653,-9.44e-4 0.03125,0 0,0 0.03125,0 0.03125,0 0.01441,0.0029 0.01167,0.02733 0.03125,0.03125 0.01958,0.0039 0.04798,-0.0029 0.0625,0 0,0 0.21875,-0.96875 0.21875,-0.96875 0,0 -0.155948,0.9688 -0.15625,0.96875 0.005,8.36e-4 0.02247,-0.0015 0.03125,0 0.01756,0.0029 0.039,0.02734 0.0625,0.03125 0.0235,0.0039 0.04521,-0.0029 0.0625,0 0,0 0.1875,-0.96875 0.1875,-0.96875 0,0 0.03119,1.000001 0.03125,1 0.01427,-5e-6 0.01168,-6e-6 0.03125,0 0.01957,6e-6 0.04786,-8e-6 0.0625,0 0.0073,4e-6 0.02705,-2e-6 0.03125,0 0.0042,-2e-6 0.02393,4e-6 0.03125,0 0.01464,-8e-6 0.04293,6e-6 0.0625,0 0.01957,-6e-6 0.01698,-5e-6 0.03125,0 0,0 0.03125,-1 0.03125,-1 0,0 0.187426,0.968764 0.1875,0.96875 0.01729,-0.0029 0.039,0.0039 0.0625,0 0.0235,-0.0039 0.04494,-0.02833 0.0625,-0.03125 0.0088,-0.0015 0.02622,8.36e-4 0.03125,0 0,0 -0.15625,-0.96875 -0.15625,-0.96875 0,0 0.191117,0.967993 0.1875,0.96875 0.0039,-7.88e-4 0.02399,0.0015 0.03125,0 0.01452,-0.0029 0.04292,0.0039 0.0625,0 0.01958,-0.0039 0.01684,-0.02837 0.03125,-0.03125 0,0 -0.15625,-0.96875 -0.15625,-0.96875 0,0 0.187441,0.968761 0.1875,0.96875 0.0047,-9.44e-4 0.02382,0.0015 0.03125,0 0.01487,-0.003 0.04293,0.0039 0.0625,0 0.0098,-0.002 -0.0091,-0.02943 0,-0.03125 0,0 -0.125,-0.96875 -0.125,-0.96875 0,0 0.379755,0.904281 0.375,0.90625 0.0038,-0.0015 0.02401,0.0029 0.03125,0 0.01447,-0.0058 0.01167,-0.02342 0.03125,-0.03125 0.01958,-0.0078 0.04801,0.0058 0.0625,0 0,0 -0.34375,-0.9375 -0.34375,-0.9375 0,0 0.656205,0.750038 0.65625,0.75 0.01568,-0.01172 0.01905,-0.02211 0.03125,-0.03125 0.0031,-0.0023 0.02865,0.0019 0.03125,0 0.01175,-0.007 0.0206,-0.02486 0.03125,-0.03125 0.0071,-0.0043 0.02545,0.0035 0.03125,0 0,0 6.94e-4,-0.03004 0,-0.03125 0,0 -0.05323,-0.05181 -0.0625,-0.0625 -0.08665,-0.15155 -0.4375,-0.78125 -0.4375,-0.78125 0,0 0.593704,0.781286 0.59375,0.78125 0.0029,-0.0022 0.02549,0.0043 0.03125,0 0.01152,-0.0086 0.01559,-0.01951 0.03125,-0.03125 0.01566,-0.01174 0.01964,-0.02255 0.03125,-0.03125 0.0058,-0.0044 0.02812,0.0023 0.03125,0 0,0 7.13e-4,-0.03027 0,-0.03125 0.0036,-0.0027 0.02535,0.0044 0.03125,0 0.01181,-0.0089 0.0156,-0.0195 0.03125,-0.03125 0.0078,-0.0059 -0.0073,-0.02578 0,-0.03125 0,0 -0.53125,-0.8125 -0.53125,-0.8125 0,0 0.720904,0.685314 0.71875,0.6875 0.01163,-0.01164 0.01559,-0.04684 0.03125,-0.0625 0.01566,-0.01566 0.05094,-0.01969 0.0625,-0.03125 0,0 -0.6875,-0.71875 -0.6875,-0.71875 0,0 0.812466,0.562548 0.8125,0.5625 0.0086,-0.01141 0.0195,-0.01559 0.03125,-0.03125 0.01175,-0.01566 0.02246,-0.01954 0.03125,-0.03125 0.0044,-0.0059 -0.0025,-0.02788 0,-0.03125 6.21e-4,-8.29e-4 0.03,0.0017 0.03125,0 0.0025,-0.0033 -0.0044,-0.0254 0,-0.03125 0.0088,-0.01171 0.01951,-0.01559 0.03125,-0.03125 0.01174,-0.01566 0.02268,-0.01983 0.03125,-0.03125 0,0 -0.78125,-0.625 -0.78125,-0.625 0,0 0.844865,0.498118 0.84375,0.5 0.0024,-0.0041 0.02688,0.0073 0.03125,0 0.0087,-0.01458 0.0195,-0.04292 0.03125,-0.0625 0.01175,-0.01958 0.02258,-0.04806 0.03125,-0.0625 0,0 -0.84375,-0.53125 -0.84375,-0.53125 0,0 0.937478,0.34381 0.9375,0.34375 0.0057,-0.01428 -0.0078,-0.04292 0,-0.0625 0.0078,-0.01958 0.02537,-0.01656 0.03125,-0.03125 0.0029,-0.0073 -0.0017,-0.02694 0,-0.03125 0,0 0.03125,0 0.03125,0 0.0016,-0.0041 -0.0029,-0.02395 0,-0.03125 0.0058,-0.01459 -0.0078,-0.04292 0,-0.0625 0.0078,-0.01958 0.0255,-0.01688 0.03125,-0.03125 0,0 -0.90625,-0.40625 -0.90625,-0.40625 l -0.9375,-0.3125 c 0,0 1.907559,0.525415 1.90625,0.53125 0.0017,-0.0071 -0.0028,-0.01979 0,-0.03125 0.0056,-0.02292 0.03185,-0.06467 0.03125,-0.0625 0.0074,-0.02696 -0.0053,-0.0091 0,-0.03125 a 0.99149819,0.99149819 0 0 1 0,-0.03125 L 54.4375,68.65625 C 60.727589,66.591591 65.591591,61.72759 67.65625,55.4375 l 13.03125,-3.5625 0.03125,0 a 0.99149819,0.99149819 0 0 0 0.03125,0 0.99149819,0.99149819 0 0 0 0.09375,-0.0625 A 0.99149819,0.99149819 0 0 0 81,51.75 c 3.01e-4,8.1e-4 -10e-7,0.03125 0,0.03125 0.0036,-0.0014 0.02407,0.0029 0.03125,0 0.01437,-0.0058 0.01167,-0.02342 0.03125,-0.03125 0.01958,-0.0078 0.04791,0.0058 0.0625,0 0.0073,-0.0029 0.02715,0.0016 0.03125,0 0,0 5.81e-4,-0.02977 0,-0.03125 0.0043,-0.0017 0.02391,0.0029 0.03125,0 0.01469,-0.0059 0.01167,-0.02341 0.03125,-0.03125 0.0098,-0.0039 0.02213,0.0037 0.03125,0 0,0 -0.02167,-0.09746 -0.03125,-0.125 -0.0022,-0.0064 0.0026,-0.0237 0,-0.03125 a 0.99149819,0.99149819 0 0 0 0.125,-0.15625 c 0.0496,0.0804 0.126402,0.217879 0.125,0.21875 0.01444,-0.0087 0.04292,-0.0195 0.0625,-0.03125 0.01958,-0.01175 0.04792,-0.02251 0.0625,-0.03125 0.0073,-0.0044 -0.0041,-0.02882 0,-0.03125 0,0 -0.100402,-0.16414 -0.1875,-0.3125 a 0.99149819,0.99149819 0 0 0 0.03125,-0.09375 c 0.134525,0.170617 0.28123,0.343766 0.28125,0.34375 0.01142,-0.0086 0.01559,-0.01951 0.03125,-0.03125 0.01566,-0.01174 0.01954,-0.02248 0.03125,-0.03125 0.0059,-0.0044 0.0279,0.0025 0.03125,0 0.0017,-0.0013 -8.29e-4,-0.03063 0,-0.03125 0.0034,-0.0025 0.0254,0.0044 0.03125,0 0.01171,-0.0088 0.01559,-0.0195 0.03125,-0.03125 0.01566,-0.01175 0.01984,-0.0227 0.03125,-0.03125 0,0 -0.463662,-0.65079 -0.53125,-0.75 a 0.99149819,0.99149819 0 0 0 0,-0.03125 c 0.05802,0.0557 0.691545,0.652088 0.6875,0.65625 0.01156,-0.01156 0.01559,-0.04684 0.03125,-0.0625 0.01566,-0.01566 0.05086,-0.01962 0.0625,-0.03125 0,0 -0.6875,-0.71875 -0.6875,-0.71875 0,0 0.812466,0.562548 0.8125,0.5625 0.0085,-0.01131 0.0195,-0.0156 0.03125,-0.03125 0.01175,-0.01565 0.02238,-0.01944 0.03125,-0.03125 0.0044,-0.0059 -0.0027,-0.02766 0,-0.03125 9.27e-4,7.9e-4 0.03131,-7.8e-5 0.03125,0 0.0023,-0.0031 -0.0044,-0.02544 0,-0.03125 0.0087,-0.01161 0.01951,-0.01559 0.03125,-0.03125 0.01174,-0.01566 0.02261,-0.01973 0.03125,-0.03125 0,0 -0.78125,-0.625 -0.78125,-0.625 0,0 0.846297,0.495636 0.84375,0.5 0.0023,-0.0039 0.02691,0.0072 0.03125,0 0.0035,-0.0058 -0.0043,-0.02415 0,-0.03125 0.0064,-0.01065 0.0242,-0.0195 0.03125,-0.03125 0.0019,-0.0026 -0.0023,-0.0282 0,-0.03125 0,0 0.03125,-0.03125 0.03125,-0.03125 0,0 -0.120962,-0.08364 -0.1875,-0.125 -0.193621,-0.183108 -0.5625,-0.53125 -0.5625,-0.53125 0,0 0.939199,0.339362 0.9375,0.34375 0.0058,-0.01449 -0.0078,-0.04292 0,-0.0625 0.0078,-0.01958 0.02545,-0.01678 0.03125,-0.03125 0.0029,-0.0072 -0.0015,-0.02742 0,-0.03125 0,0 -0.90625,-0.375 -0.90625,-0.375 0,0 0.968741,0.156309 0.96875,0.15625 0.0028,-0.01405 0.02732,-0.01168 0.03125,-0.03125 0.0039,-0.01957 -0.003,-0.04763 0,-0.0625 0.0015,-0.0074 -9.44e-4,-0.02653 0,-0.03125 7.31e-4,-0.0037 -0.0014,-0.02405 0,-0.03125 0.0029,-0.01441 0.02733,-0.01167 0.03125,-0.03125 0.0039,-0.01958 -0.0029,-0.04798 0,-0.0625 0,0 -0.96875,-0.21875 -0.96875,-0.21875 0,0 0.9688,0.155948 0.96875,0.15625 8.36e-4,-0.005 -0.0015,-0.02247 0,-0.03125 0.0029,-0.01756 0.02734,-0.039 0.03125,-0.0625 0.0039,-0.0235 -0.0029,-0.04521 0,-0.0625 0,0 -0.96875,-0.1875 -0.96875,-0.1875 0,0 1.000001,-0.03119 1,-0.03125 -5e-6,-0.01427 -6e-6,-0.01168 0,-0.03125 6e-6,-0.01957 -8e-6,-0.04786 0,-0.0625 4e-6,-0.0073 -2e-6,-0.02705 0,-0.03125 -2e-6,-0.0042 4e-6,-0.02393 0,-0.03125 -8e-6,-0.01464 6e-6,-0.04293 0,-0.0625 -6e-6,-0.01957 -5e-6,-0.01698 0,-0.03125 0,0 -1,-0.03125 -1,-0.03125 0,0 0.968764,-0.187426 0.96875,-0.1875 -0.0029,-0.01729 0.0039,-0.039 0,-0.0625 -0.0039,-0.0235 -0.02833,-0.04494 -0.03125,-0.0625 -0.0015,-0.0088 8.36e-4,-0.02622 0,-0.03125 0,0 -0.96875,0.15625 -0.96875,0.15625 0,0 0.967993,-0.191117 0.96875,-0.1875 -7.88e-4,-0.0039 0.0015,-0.02399 0,-0.03125 -0.0029,-0.01452 0.0039,-0.04292 0,-0.0625 -0.0039,-0.01958 -0.02837,-0.01684 -0.03125,-0.03125 0,0 -0.96875,0.15625 -0.96875,0.15625 0,0 0.968761,-0.187441 0.96875,-0.1875 -9.44e-4,-0.0047 0.0015,-0.02382 0,-0.03125 -0.003,-0.01487 0.0039,-0.04293 0,-0.0625 -0.002,-0.0098 -0.02943,0.0091 -0.03125,0 0,0 -0.96875,0.125 -0.96875,0.125 0,0 0.904281,-0.379755 0.90625,-0.375 -0.0015,-0.0038 0.0029,-0.02401 0,-0.03125 -0.0058,-0.01447 -0.02342,-0.01167 -0.03125,-0.03125 -0.0078,-0.01958 0.0058,-0.04801 0,-0.0625 0,0 -0.9375,0.34375 -0.9375,0.34375 0,0 0.750038,-0.656205 0.75,-0.65625 C 82.58203,47.51557 82.57164,47.5122 82.5625,47.5 c -0.0023,-0.0031 0.0019,-0.02865 0,-0.03125 -0.0024,-0.0039 -0.02892,0.0039 -0.03125,0 -0.0022,-0.0028 3.7e-5,-0.0312 0,-0.03125 -0.0043,-0.0071 0.0035,-0.02545 0,-0.03125 0,0 -0.03125,0 -0.03125,0 0,0 -0.05181,0.05323 -0.0625,0.0625 -0.15155,0.08665 -0.78125,0.4375 -0.78125,0.4375 0,0 0.781286,-0.593704 0.78125,-0.59375 -0.0022,-0.0029 0.0043,-0.02549 0,-0.03125 C 82.4289,47.26973 82.41799,47.26566 82.40625,47.25 82.39451,47.23434 82.3837,47.23036 82.375,47.21875 c -0.0044,-0.0058 0.0023,-0.02812 0,-0.03125 -0.0012,-0.0016 -0.03098,3.6e-4 -0.03125,0 -0.0027,-0.0036 0.0044,-0.02535 0,-0.03125 -0.0089,-0.01181 -0.0195,-0.0156 -0.03125,-0.03125 -0.0059,-0.0078 -0.02578,0.0073 -0.03125,0 0,0 -0.8125,0.53125 -0.8125,0.53125 0,0 0.685314,-0.720904 0.6875,-0.71875 -0.01164,-0.01163 -0.04684,-0.01559 -0.0625,-0.03125 -0.01566,-0.01566 -0.01969,-0.05094 -0.03125,-0.0625 0,0 -0.71875,0.6875 -0.71875,0.6875 0,0 0.562548,-0.812466 0.5625,-0.8125 -0.01141,-0.0086 -0.01559,-0.0195 -0.03125,-0.03125 -0.01566,-0.01175 -0.01954,-0.02246 -0.03125,-0.03125 -0.0059,-0.0044 -0.02788,0.0025 -0.03125,0 -8.29e-4,-6.21e-4 0.0017,-0.03 0,-0.03125 -0.0033,-0.0025 -0.0254,0.0044 -0.03125,0 -0.01171,-0.0088 -0.01559,-0.01951 -0.03125,-0.03125 -0.01566,-0.01174 -0.01983,-0.02268 -0.03125,-0.03125 0,0 -0.625,0.78125 -0.625,0.78125 0,0 0.498118,-0.844865 0.5,-0.84375 -0.0041,-0.0024 0.0073,-0.02688 0,-0.03125 -0.01458,-0.0087 -0.04292,-0.0195 -0.0625,-0.03125 -0.01958,-0.01175 -0.04806,-0.02258 -0.0625,-0.03125 0,0 -0.53125,0.84375 -0.53125,0.84375 0,0 0.34381,-0.937478 0.34375,-0.9375 -0.01428,-0.0057 -0.04292,0.0078 -0.0625,0 -0.01958,-0.0078 -0.01656,-0.02537 -0.03125,-0.03125 -0.0073,-0.0029 -0.02694,0.0017 -0.03125,0 -8.5e-4,-3.39e-4 0.002,-0.03043 0,-0.03125 -0.0041,-0.0016 -0.02395,0.0029 -0.03125,0 -0.01459,-0.0058 -0.04292,0.0078 -0.0625,0 -0.01958,-0.0078 -0.01688,-0.0255 -0.03125,-0.03125 0,0 -0.40625,0.90625 -0.40625,0.90625 l -0.3125,0.9375 c 0,0 0.525415,-1.907559 0.53125,-1.90625 -0.0071,-0.0017 -0.01979,0.0028 -0.03125,0 C 80.78958,46.15065 80.74783,46.1244 80.75,46.125 a 0.99149819,0.99149819 0 0 0 -0.03125,0 l -0.0625,0 A 0.99149819,0.99149819 0 0 0 80.5625,46.09375 L 67.65625,42.5625 C 65.591591,36.27241 60.72759,31.408409 54.4375,29.34375 L 50.875,16.25 a 0.99149819,0.99149819 0 0 0 -0.0625,-0.15625 c -0.0057,-0.01412 -0.02343,-0.01167 -0.03125,-0.03125 -0.0078,-0.01958 0.0059,-0.04769 0,-0.0625 -0.003,-0.0074 0.0018,-0.02667 0,-0.03125 -9.16e-4,-0.0023 -0.03049,0.0019 -0.03125,0 -0.0015,-0.0038 0.0029,-0.02402 0,-0.03125 -0.0058,-0.01447 -0.02342,-0.01168 -0.03125,-0.03125 -0.0078,-0.01957 0.0058,-0.04805 0,-0.0625 -0.0022,-0.0056 4.63e-4,-0.03008 0,-0.03125 -9.27e-4,-0.0023 -0.03085,10e-4 -0.03125,0 -0.0019,-0.0046 0.003,-0.02384 0,-0.03125 -0.0059,-0.01482 -0.02341,-0.01168 -0.03125,-0.03125 -0.0039,-0.0098 0.0036,-0.02215 0,-0.03125 0,0 -0.09725,0.02233 -0.125,0.03125 A 0.99149819,0.99149819 0 0 0 50.375,15.625 c 0.06699,-0.04063 0.187192,-0.125506 0.1875,-0.125 -0.0087,-0.01456 -0.0195,-0.04292 -0.03125,-0.0625 -0.007,-0.01175 -0.02487,-0.02061 -0.03125,-0.03125 0,0 -0.173667,0.07857 -0.3125,0.15625 a 0.99149819,0.99149819 0 0 0 -0.15625,-0.03125 c 0.17198,-0.143007 0.341794,-0.283616 0.34375,-0.28125 -0.0023,-0.0029 0.0029,-0.02764 0,-0.03125 C 50.36344,15.2043 50.35941,15.20708 50.34375,15.1875 50.332,15.17281 50.32256,15.13759 50.3125,15.125 c -3.4e-5,-4.7e-5 -0.03038,0.0012 -0.03125,0 -0.0028,-0.0038 0.0045,-0.0253 0,-0.03125 -0.0089,-0.01189 -0.0195,-0.0156 -0.03125,-0.03125 -0.0059,-0.0078 -0.0258,0.0073 -0.03125,0 -0.04213,0.02663 -0.8125,0.53125 -0.8125,0.53125 0,0 0.687351,-0.687649 0.6875,-0.6875 -8.42e-4,-8.41e-4 0.0017,-0.02957 0,-0.03125 -0.01171,-0.0117 -0.04683,-0.01559 -0.0625,-0.03125 C 50.02185,14.83435 50.00849,14.82099 50,14.8125 c 0,0 -0.71875,0.65625 -0.71875,0.65625 0,0 0.468812,-0.874966 0.46875,-0.875 -0.01055,-0.0063 -0.01951,-0.02419 -0.03125,-0.03125 -0.01957,-0.01176 -0.04763,-0.02232 -0.0625,-0.03125 -0.0024,-0.0014 -0.02903,0.0013 -0.03125,0 -0.0037,-0.0022 0.0072,-0.02693 0,-0.03125 C 49.61059,14.4914 49.58208,14.4805 49.5625,14.46875 49.54292,14.457 49.51457,14.44625 49.5,14.4375 c 0,0 -0.53125,0.84375 -0.53125,0.84375 0,0 0.502002,-0.842537 0.5,-0.84375 -0.0044,-0.0026 0.0074,-0.02684 0,-0.03125 -0.01472,-0.0088 -0.04292,-0.01951 -0.0625,-0.03125 -0.0078,-0.0047 -0.02376,0.0045 -0.03125,0 0,0 -0.5625,0.8125 -0.5625,0.8125 0,0 0.343809,-0.937477 0.34375,-0.9375 -0.01444,-0.0058 -0.04292,0.0078 -0.0625,0 -0.01958,-0.0078 -0.01677,-0.02545 -0.03125,-0.03125 -0.0072,-0.0029 -0.0274,0.0015 -0.03125,0 0,0 -0.375,0.90625 -0.375,0.90625 0,0 0.156308,-0.968741 0.15625,-0.96875 -0.01399,-0.0028 -0.01168,-0.02732 -0.03125,-0.03125 -0.01957,-0.0039 -0.04762,0.003 -0.0625,0 -0.0074,-0.0015 -0.02649,9.51e-4 -0.03125,0 0,0 -0.03125,0 -0.03125,0 -0.0043,-7.12e-4 -0.02263,0.0014 -0.03125,0 -0.01724,-0.0029 -0.03901,-0.02733 -0.0625,-0.03125 -0.01175,-0.002 -0.02023,0.0018 -0.03125,0 -0.01102,-0.0018 -0.02247,0.0015 -0.03125,0 -0.0088,-0.0015 -0.02621,8.43e-4 -0.03125,0 -0.01479,-0.0029 -0.01168,-0.02735 -0.03125,-0.03125 -0.0098,-0.002 -0.02215,0.0018 -0.03125,0 0,0 -0.25,0.96875 -0.25,0.96875 0,0 -0.03118,-1.000001 -0.03125,-1 -0.01728,6e-6 -0.039,5e-6 -0.0625,0 -0.0235,-5e-6 -0.04498,8e-6 -0.0625,0 -0.0088,-4e-6 -0.02632,3e-6 -0.03125,0 0,0 0,1 0,1 l -0.0625,1 c 0,0 0.0593,-1.999974 0.0625,-2 -0.0021,3e-6 -0.0263,-2e-6 -0.03125,0 -0.0099,4e-6 -0.01524,2e-6 -0.03125,0 -0.03202,-3e-6 -0.06577,10e-6 -0.09375,0 -2.56e-4,-1.6e-5 -0.124744,0 -0.125,0 -2.56e-4,0 -0.124744,-1.6e-5 -0.125,0 z M 48,39.96875 c 5.032777,-10e-7 9.03125,3.998474 9.03125,9.03125 10e-7,5.032771 -3.998475,9.03125 -9.03125,9.03125 -5.032777,-3e-6 -9.03125,-3.998474 -9.03125,-9.03125 0,-5.032777 3.998474,-9.03125 9.03125,-9.03125 z"
       id="path3654"
       style="opacity:0.05;fill:#000000;fill-opacity:1;fill-rule:nonzero;stroke:none"
       inkscape:connector-curvature="0" />
    <path
       d="m 47.625,15.03125 c 9.78e-4,-1.92e-4 -0.157211,0.06276 -0.15625,0.0625 9.61e-4,-2.61e-4 -0.12594,0.03158 -0.125,0.03125 9.4e-4,-3.29e-4 -0.125915,0.03164 -0.125,0.03125 9.15e-4,-3.95e-4 -0.125884,0.06296 -0.125,0.0625 8.84e-4,-4.59e-4 -0.125849,0.09427 -0.125,0.09375 8.49e-4,-5.21e-4 -0.12581,0.06308 -0.125,0.0625 8.1e-4,-5.8e-4 -0.09452,0.09439 -0.09375,0.09375 7.67e-4,-6.36e-4 -0.125719,0.09444 -0.125,0.09375 7.19e-4,-6.89e-4 -0.09442,0.09449 -0.09375,0.09375 6.68e-4,-7.39e-4 -0.09436,0.09454 -0.09375,0.09375 6.14e-4,-7.85e-4 -0.06306,0.125826 -0.0625,0.125 5.57e-4,-8.26e-4 -0.09425,0.125864 -0.09375,0.125 4.96e-4,-8.64e-4 -0.06293,0.125897 -0.0625,0.125 4.33e-4,-8.97e-4 -0.06287,0.125926 -0.0625,0.125 3.68e-4,-9.26e-4 -0.03155,0.12595 -0.03125,0.125 3.02e-4,-9.5e-4 -0.03148,0.125969 -0.03125,0.125 L 42.40625,30 c -6.465018,1.911271 -11.467677,6.944164 -13.375,13.40625 l -13.5,3.6875 -0.03125,0 c -0.03993,0.01095 -0.125904,0.03154 -0.125,0.03125 0.0011,-3.57e-4 -0.157335,0.06295 -0.15625,0.0625 0.0011,-4.5e-4 -0.157294,0.06304 -0.15625,0.0625 10e-4,-5.4e-4 -0.157245,0.09438 -0.15625,0.09375 9.95e-4,-6.26e-4 -0.125939,0.09446 -0.125,0.09375 9.39e-4,-7.07e-4 -0.125876,0.09453 -0.125,0.09375 8.76e-4,-7.83e-4 -0.125807,0.125854 -0.125,0.125 8.07e-4,-8.54e-4 -0.09448,0.125919 -0.09375,0.125 7.32e-4,-9.19e-4 -0.0944,0.125977 -0.09375,0.125 6.53e-4,-9.77e-4 -0.09432,0.157279 -0.09375,0.15625 5.68e-4,-10e-4 -0.09423,0.126073 -0.09375,0.125 4.8e-4,-0.0011 -0.06289,0.157359 -0.0625,0.15625 3.88e-4,-0.0011 -0.03154,0.157388 -0.03125,0.15625 2.93e-4,-0.0011 -0.03145,0.157408 -0.03125,0.15625 1.97e-4,-0.0012 -0.03135,0.188671 -0.03125,0.1875 9.9e-5,-0.0012 0,0.157425 0,0.15625 0,-0.0012 9.9e-5,0.157421 0,0.15625 -9.9e-5,-0.0012 0.03145,0.188658 0.03125,0.1875 -1.97e-4,-0.0012 0.03154,0.157388 0.03125,0.15625 -2.93e-4,-0.0011 0.03164,0.157359 0.03125,0.15625 -3.88e-4,-0.0011 0.06298,0.157323 0.0625,0.15625 -4.8e-4,-0.0011 0.09432,0.126029 0.09375,0.125 -5.68e-4,-10e-4 0.0944,0.157227 0.09375,0.15625 -6.53e-4,-9.77e-4 0.09448,0.125919 0.09375,0.125 -7.32e-4,-9.19e-4 0.09456,0.125854 0.09375,0.125 -8.07e-4,-8.54e-4 0.125876,0.125783 0.125,0.125 -8.76e-4,-7.83e-4 0.125939,0.09446 0.125,0.09375 -9.39e-4,-7.07e-4 0.125995,0.09438 0.125,0.09375 -9.95e-4,-6.26e-4 0.157294,0.09429 0.15625,0.09375 -10e-4,-5.4e-4 0.157335,0.06295 0.15625,0.0625 -0.0011,-4.5e-4 0.157369,0.06286 0.15625,0.0625 -9.04e-4,-2.89e-4 0.08507,0.0203 0.125,0.03125 0.0095,0.0026 0.03147,5e-5 0.03125,0 l 13.5,3.6875 c 1.905149,6.448541 6.899166,11.458001 13.34375,13.375 l 3.71875,13.5 c -1.01e-4,-4.41e-4 -0.008,0.03329 0,0.0625 0.01279,0.04673 0.03147,0.09444 0.03125,0.09375 -3.57e-4,-0.0011 0.06295,0.157335 0.0625,0.15625 -4.5e-4,-0.0011 0.06304,0.157294 0.0625,0.15625 -5.4e-4,-0.001 0.09438,0.157245 0.09375,0.15625 -6.26e-4,-9.95e-4 0.09446,0.125939 0.09375,0.125 -7.07e-4,-9.39e-4 0.09453,0.125876 0.09375,0.125 -7.83e-4,-8.76e-4 0.125854,0.125807 0.125,0.125 -8.54e-4,-8.07e-4 0.125919,0.09448 0.125,0.09375 -9.19e-4,-7.32e-4 0.125977,0.0944 0.125,0.09375 -9.77e-4,-6.53e-4 0.157279,0.09432 0.15625,0.09375 -10e-4,-5.68e-4 0.126073,0.09423 0.125,0.09375 -0.0011,-4.8e-4 0.157359,0.06289 0.15625,0.0625 -0.0011,-3.88e-4 0.157388,0.03154 0.15625,0.03125 -0.0011,-2.93e-4 0.157408,0.03145 0.15625,0.03125 -0.0012,-1.97e-4 0.188671,0.03135 0.1875,0.03125 -0.0012,-9.9e-5 0.157425,0 0.15625,0 -0.0012,0 0.157421,-9.9e-5 0.15625,0 -0.0012,9.9e-5 0.188658,-0.03145 0.1875,-0.03125 -0.0012,1.97e-4 0.157388,-0.03154 0.15625,-0.03125 -0.0011,2.93e-4 0.157359,-0.03164 0.15625,-0.03125 -0.0011,3.88e-4 0.157323,-0.06298 0.15625,-0.0625 -0.0011,4.8e-4 0.126029,-0.09432 0.125,-0.09375 -10e-4,5.68e-4 0.157227,-0.0944 0.15625,-0.09375 -9.77e-4,6.53e-4 0.125919,-0.09448 0.125,-0.09375 -9.19e-4,7.32e-4 0.125854,-0.09456 0.125,-0.09375 -8.54e-4,8.07e-4 0.125783,-0.125876 0.125,-0.125 -7.83e-4,8.76e-4 0.09446,-0.125939 0.09375,-0.125 -7.07e-4,9.39e-4 0.09438,-0.125995 0.09375,-0.125 -6.26e-4,9.95e-4 0.09429,-0.157294 0.09375,-0.15625 -5.4e-4,0.001 0.06295,-0.157335 0.0625,-0.15625 -4.5e-4,0.0011 0.06286,-0.157369 0.0625,-0.15625 -2.89e-4,9.04e-4 0.0203,-0.08507 0.03125,-0.125 0.0026,-0.0095 5e-5,-0.03147 0,-0.03125 l 3.6875,-13.5 c 6.457558,-1.908918 11.466082,-6.917441 13.375,-13.375 l 13.5,-3.6875 c -2.2e-4,5e-5 0.02174,0.0026 0.03125,0 0.03993,-0.01095 0.125904,-0.03154 0.125,-0.03125 -0.0011,3.57e-4 0.157335,-0.06295 0.15625,-0.0625 -0.0011,4.5e-4 0.157294,-0.06304 0.15625,-0.0625 -0.001,5.4e-4 0.157245,-0.09438 0.15625,-0.09375 -9.95e-4,6.26e-4 0.125939,-0.09446 0.125,-0.09375 -9.39e-4,7.07e-4 0.125876,-0.09453 0.125,-0.09375 -8.76e-4,7.83e-4 0.125807,-0.125854 0.125,-0.125 -8.07e-4,8.54e-4 0.09448,-0.125919 0.09375,-0.125 -7.32e-4,9.19e-4 0.0944,-0.125977 0.09375,-0.125 -6.53e-4,9.77e-4 0.09432,-0.157279 0.09375,-0.15625 -5.68e-4,10e-4 0.09423,-0.126073 0.09375,-0.125 -4.8e-4,0.0011 0.06289,-0.157359 0.0625,-0.15625 -3.88e-4,0.0011 0.03154,-0.157388 0.03125,-0.15625 -2.93e-4,0.0011 0.03145,-0.157408 0.03125,-0.15625 -1.97e-4,0.0012 0.03135,-0.188671 0.03125,-0.1875 -9.9e-5,0.0012 0,-0.157425 0,-0.15625 0,0.0012 -9.9e-5,-0.157421 0,-0.15625 9.9e-5,0.0012 -0.03145,-0.188658 -0.03125,-0.1875 1.97e-4,0.0012 -0.03154,-0.157388 -0.03125,-0.15625 2.93e-4,0.0011 -0.03164,-0.157359 -0.03125,-0.15625 3.88e-4,0.0011 -0.06298,-0.157323 -0.0625,-0.15625 4.8e-4,0.0011 -0.09432,-0.126029 -0.09375,-0.125 5.68e-4,10e-4 -0.0944,-0.157227 -0.09375,-0.15625 6.53e-4,9.77e-4 -0.09448,-0.125919 -0.09375,-0.125 7.32e-4,9.19e-4 -0.09456,-0.125854 -0.09375,-0.125 8.07e-4,8.54e-4 -0.125876,-0.125783 -0.125,-0.125 8.76e-4,7.83e-4 -0.125939,-0.09446 -0.125,-0.09375 9.39e-4,7.07e-4 -0.125995,-0.09438 -0.125,-0.09375 9.95e-4,6.26e-4 -0.157294,-0.09429 -0.15625,-0.09375 0.001,5.4e-4 -0.157335,-0.06295 -0.15625,-0.0625 0.0011,4.5e-4 -0.157369,-0.06286 -0.15625,-0.0625 9.04e-4,2.89e-4 -0.08507,-0.0203 -0.125,-0.03125 l -0.03125,0 -13.5,-3.6875 c -1.908918,-6.457559 -6.917441,-11.466082 -13.375,-13.375 L 49.90625,16.5 c 3.08e-4,0.0012 -0.06291,-0.157423 -0.0625,-0.15625 4.13e-4,0.0012 -0.06302,-0.157382 -0.0625,-0.15625 5.16e-4,0.0011 -0.06312,-0.157331 -0.0625,-0.15625 6.15e-4,0.0011 -0.09446,-0.157272 -0.09375,-0.15625 7.08e-4,10e-4 -0.125796,-0.157205 -0.125,-0.15625 7.96e-4,9.55e-4 -0.09463,-0.125881 -0.09375,-0.125 8.78e-4,8.81e-4 -0.125953,-0.125799 -0.125,-0.125 9.53e-4,7.99e-4 -0.15727,-0.09446 -0.15625,-0.09375 10e-4,7.11e-4 -0.15733,-0.09437 -0.15625,-0.09375 0.0011,6.18e-4 -0.15738,-0.09427 -0.15625,-0.09375 0.0011,5.19e-4 -0.157422,-0.06292 -0.15625,-0.0625 0.0012,4.17e-4 -0.157454,-0.03156 -0.15625,-0.03125 0.0012,3.11e-4 -0.188727,-0.03145 -0.1875,-0.03125 0.0012,2.03e-4 -0.15749,-0.03134 -0.15625,-0.03125 0.0012,9.3e-5 -0.188744,1.8e-5 -0.1875,0 9.72e-4,4.7e-5 -0.100176,2e-5 -0.15625,0 -0.02243,-8e-6 -0.06289,1.9e-5 -0.0625,0 a 1.0037426,1.0037426 0 0 0 -0.125,0 z M 48,38.96875 C 53.563531,38.968749 58.03125,43.436471 58.03125,49 58.031251,54.563525 53.563529,59.03125 48,59.03125 42.43647,59.031247 37.96875,54.563529 37.96875,49 37.96875,43.43647 42.436471,38.96875 48,38.96875 z"
       id="path3650"
       style="opacity:0.1;fill:#000000;fill-opacity:1;fill-rule:nonzero;stroke:none"
       inkscape:connector-curvature="0" />
    <path
       d="M 47.90625,16.03125 A 0.96173271,0.96173271 0 0 0 47.0625,16.75 L 43.25,30.71875 C 36.621677,32.442683 31.47257,37.623684 29.75,44.25 l -14,3.8125 a 0.96173271,0.96173271 0 0 0 0,1.875 l 14,3.8125 c 1.720502,6.612289 6.860518,11.767962 13.46875,13.5 l 3.84375,14 a 0.96173271,0.96173271 0 0 0 1.875,0 l 3.8125,-14 c 6.621749,-1.723517 11.776483,-6.87825 13.5,-13.5 l 14,-3.8125 a 0.96173271,0.96173271 0 0 0 0,-1.875 L 66.25,44.25 C 64.526483,37.628251 59.371749,32.473517 52.75,30.75 l -3.8125,-14 A 0.96173271,0.96173271 0 0 0 47.90625,16.03125 z M 48,37.96875 C 54.103696,37.968749 59.03125,42.896306 59.03125,49 59.031251,55.103691 54.103694,60.03125 48,60.03125 41.896306,60.031247 36.96875,55.103694 36.96875,49 36.96875,42.896305 41.896306,37.96875 48,37.96875 z"
       id="path3646"
       style="opacity:0.15;fill:#000000;fill-opacity:1;fill-rule:nonzero;stroke:none"
       inkscape:connector-curvature="0" />
    <path
       d="m 48,17 -3.937499,14.4375 c -6.771954,1.514228 -12.07667,6.854121 -13.593751,13.625 L 16,49 30.46875,52.9375 c 1.514289,6.758414 6.808301,12.068282 13.5625,13.59375 L 48,81 51.9375,66.53125 C 58.70585,65.014736 64.014736,59.705851 65.53125,52.9375 L 80,49 65.53125,45.0625 C 64.014736,38.29415 58.70585,32.985264 51.9375,31.46875 L 48,17 z m 0,20 c 6.624002,-10e-7 12,5.376 12,12 10e-7,6.623997 -5.376,12 -12,12 -6.623999,-3e-6 -12,-5.376 -12,-12 0,-6.624001 5.376,-12 12,-12 z"
       inkscape:connector-curvature="0"
       id="path2870"
       style="opacity:0.3;fill:#000000;fill-opacity:1;fill-rule:nonzero;stroke:none" />
    <path
       d="m 48,16 -3.937499,14.4375 c -6.771954,1.514228 -12.07667,6.854121 -13.593751,13.625 L 16,48 30.46875,51.9375 c 1.514289,6.758414 6.808301,12.068282 13.5625,13.59375 L 48,80 51.9375,65.53125 C 58.70585,64.014736 64.014736,58.705851 65.53125,51.9375 L 80,48 65.53125,44.0625 C 64.014736,37.29415 58.70585,31.985264 51.9375,30.46875 L 48,16 z m 0,20 c 6.624002,-10e-7 12,5.376 12,12 10e-7,6.623997 -5.376,12 -12,12 -6.623999,-3e-6 -12,-5.376 -12,-12 0,-6.624001 5.376,-12 12,-12 z"
       inkscape:connector-curvature="0"
       id="path3439"
       style="fill:#ffffff;fill-opacity:1;fill-rule:nonzero;stroke:none" />
  </g>
  <g
     id="g3933">
    <g
       style="display:inline"
       id="layer5">
      <path
         style="opacity:0.07999998;fill:url(#linearGradient3059);fill-opacity:1;fill-rule:nonzero;stroke:none;display:inline"
         id="path3786"
         transform="scale(1,-1)"
         d="m 12,-95.03125 c -5.5110903,0 -10.03125,4.52016 -10.03125,10.03125 l 0,71 c 0,5.5110902 4.5201598,10.03125 10.03125,10.03125 l 72,0 c 5.51109,0 10.03125,-4.5201597 10.03125,-10.03125 l 0,-71 c 0,-5.51109 -4.52016,-10.03125 -10.03125,-10.03125 l -72,0 z" />
      <path
         style="opacity:0.1;fill:url(#linearGradient3780);fill-opacity:1;fill-rule:nonzero;stroke:none;display:inline"
         id="path3778"
         transform="scale(1,-1)"
         d="m 12,-94.03125 c -4.971633,0 -9.03125,4.059617 -9.03125,9.03125 l 0,71 c 0,4.9716329 4.0596171,9.03125 9.03125,9.03125 l 72,0 c 4.971633,0 9.03125,-4.059617 9.03125,-9.03125 l 0,-71 c 0,-4.971633 -4.059617,-9.03125 -9.03125,-9.03125 l -72,0 z" />
      <path
         style="opacity:0.2;fill:url(#linearGradient3772);fill-opacity:1;fill-rule:nonzero;stroke:none;display:inline"
         id="path3770"
         transform="scale(1,-1)"
         d="m 12,-93 c -4.4091333,0 -8,3.590867 -8,8 l 0,71 c 0,4.4091333 3.5908667,8 8,8 l 72,0 c 4.409133,0 8,-3.5908667 8,-8 l 0,-71 c 0,-4.409133 -3.590867,-8 -8,-8 l -72,0 z" />
      <rect
         style="opacity:0.3;fill:url(#linearGradient3725);fill-opacity:1;fill-rule:nonzero;stroke:none;display:inline"
         id="rect3723"
         transform="scale(1,-1)"
         y="-92"
         x="5"
         ry="7"
         rx="7"
         height="85"
         width="86" />
      <rect
         style="opacity:0.45;fill:url(#linearGradient3721);fill-opacity:1;fill-rule:nonzero;stroke:none;display:inline"
         id="rect3716"
         transform="scale(1,-1)"
         y="-91"
         x="6"
         ry="6"
         rx="6"
         height="84"
         width="84" />
    </g>
    <g
       transform="matrix(1.0307692,0,0,1.0193798,-106.7975,-1.4575739)"
       id="g4290">
      <rect
         style="fill:url(#linearGradient4297);fill-opacity:1;fill-rule:nonzero;stroke:none"
         id="rect2419"
         y="14.304531"
         x="116.70269"
         ry="3.9128754"
         rx="2.8874938"
         height="68.401871"
         width="67.668159" />
      <path
         style="fill:url(#radialGradient4299);fill-opacity:1;stroke:none;display:inline;filter:url(#filter3434)"
         id="path3414"
         inkscape:connector-curvature="0"
         d="m 36.273888,6.0817019 c 1.650116,2.216692 0.112581,5.9183371 2.601472,5.8815911 1.2119,1.714016 -2.415455,0.511296 0.203594,1.832342 1.506105,1.186578 -1.593388,1.86454 0.27179,2.929374 -2.149689,1.109666 0.348443,5.803987 1.945119,6.978848 2.627954,2.213161 1.162204,-4.685722 4.094495,-5.044597 1.593359,-1.819699 4.391847,-2.987811 6.379273,-4.818381 -1.942301,-0.15774 -3.076464,-1.367135 -1.237028,-2.116304 3.385456,3.470394 0.848905,-1.643528 -1.025128,-2.4532401 1.813361,-0.577046 3.576977,-0.154481 3.325361,-1.65137 1.916325,-1.402516 -1.842255,-1.855344 -3.183935,-1.538263 -4.458342,0 -8.916678,0 -13.375013,0 z M 8.4720356,7.5294789 C 6.0222753,8.2276739 5.8513922,14.084357 8.313685,10.832218 8.9180283,9.4968519 11.710763,7.8875459 8.4720356,7.5294789 z m 11.4464914,0.203593 c -1.412257,2.2153416 0.204915,3.9914991 1.379912,1.289427 0.831709,-1.128343 -0.617926,-1.248085 -1.379912,-1.289427 z m 3.528956,0.497674 c -2.72875,1.265212 -0.672602,4.2155641 -0.605059,4.8717381 2.87456,0.994829 4.473227,-0.650437 5.560693,2.161488 2.73516,1.576935 -0.05382,4.317061 -1.080544,5.030674 1.849342,-1.611189 5.404158,4.380481 4.472249,1.214924 -1.11178,-0.812076 2.985161,1.304563 0.859619,-1.334669 -1.956059,-3.152657 0.155272,-1.411414 0.979953,-0.675608 2.804888,-2.516097 -3.173595,-2.820214 -1.681217,-5.409578 -1.307758,-1.059583 -3.02289,-4.2694931 -5.33868,-3.642063 -1.550241,2.005564 -0.214153,-4.3699601 -2.488605,-1.1795631 -0.117891,1.7834151 -0.04285,4.0464551 -0.705711,0.9568241 -0.444071,-0.5408721 0.764001,-1.7982981 0.0273,-1.9941671 z m -5.564894,0.022621 c -1.8316,0.610853 -1.733228,3.0865051 0.518957,3.3519111 0.771435,-0.879633 0.306491,-3.1853381 -0.518957,-3.3519111 z m -7.148401,0.791753 c -2.3790789,0.563878 -1.4079923,2.4828651 -0.679573,3.0233211 -2.9449177,0.737923 4.495691,0.943126 0.792681,1.410494 -3.0807906,1.230835 2.966663,2.680942 3.958766,1.221561 3.804391,0.930735 0.136908,-3.046545 -0.19704,-5.2025321 -1.612752,-1.731481 -0.06366,3.9915331 -1.521869,0.184408 -0.508786,1.1305431 -2.126527,0.166598 -2.352965,-0.637252 z m 75.601127,0.248837 c -3.192449,1.2498621 1.98418,5.9664341 0.697641,1.6754941 -0.128164,-0.518125 0.288199,-1.8871051 -0.697641,-1.6754941 z M 19.669689,11.194162 c -2.29408,2.156707 2.915989,3.940201 -0.658895,5.546906 -0.536018,-2.002938 -1.458273,1.002105 -3.503464,-0.615417 -3.515899,1.464466 -5.313868,-0.762828 -8.2575357,-2.28957 -1.7680291,-0.220164 -1.1037806,1.680533 -1.220883,3.460193 0,4.918306 0,9.836614 0,14.75492 1.7334888,1.82448 0.6763288,0.804976 0,0.301752 0.9514666,3.241642 -0.4195722,7.980231 3.3308509,9.86583 0.6375636,1.183033 3.3128828,6.223076 3.4362208,4.715046 -1.341215,-1.405066 -2.717353,-5.617387 -0.447896,-1.863024 2.032755,3.568795 4.774749,5.883507 8.780477,6.73276 2.190057,0.745225 3.991169,3.306965 5.917116,2.743325 1.089051,2.871967 -3.227416,5.629887 0.144912,8.308597 1.760515,2.7118 4.716185,4.4904 3.11596,8.29758 -1.119073,3.71826 -0.639926,7.76974 -1.607786,11.23409 -0.300394,2.10873 2.938037,7.46101 2.65747,3.17511 0.945569,-2.9784 0.92064,-6.25562 3.147579,-8.36483 3.047115,0.02413 0.582377,-3.27775 3.60701,-2.84642 1.845644,-2.42007 2.380233,-5.30712 5.49491,-6.26809 0.372042,-2.9376 5.178821,-7.43659 0.213139,-8.580318 -1.349609,-0.665451 -4.824504,-0.904732 -4.55895,-1.233078 0.538034,-2.914877 -4.493466,-3.744701 -6.634228,-4.937269 -2.810759,-1.995848 -7.034237,3.315594 -8.024515,-1.261025 -0.590876,-1.439948 -2.751326,-1.463301 -1.758429,-3.68521 -1.789388,1.780326 -5.289343,1.23924 -4.373033,-2.198916 1.39157,-2.895595 6.735639,-3.032599 7.64626,0.450282 -1.264352,-3.841203 2.443938,-6.83143 4.502527,-9.564217 0.419165,-1.3062 2.909742,-2.428425 2.052679,-0.692421 1.460154,-0.05269 3.673291,-2.688637 1.079407,-1.472012 -0.03668,-2.403896 -2.272976,-1.720272 -2.997994,-1.378934 1.34377,-2.133574 8.24499,-0.967127 5.355098,-4.454587 -2.239305,-0.907679 -2.053024,-6.204449 -4.317999,-3.253597 0.190595,-1.818146 -4.610012,-5.377145 -4.505255,-2.328319 0.585986,2.728128 0.107133,5.870869 -1.139926,7.659113 -0.260245,-3.99762 -7.075678,-3.114085 -6.199423,-7.373995 1.26944,-2.030291 2.752851,-4.83791 2.894179,-4.585337 2.275048,-0.868941 4.104591,-3.396512 1.46783,-5.058122 -0.140917,1.448202 -1.98303,4.436139 -1.72366,0.822325 -1.705794,2.02318 -1.316199,-3.219407 -2.913753,-3.763121 z m 54.450004,1.402533 c -3.995941,0.977838 -5.580067,4.795836 -7.556815,7.958163 -2.913853,1.314237 -2.802938,6.958318 0.452411,5.155674 0.87128,1.522277 -0.609505,3.921673 1.928313,1.931216 2.046994,-2.709901 0.357939,-7.092756 3.841419,-8.801515 0.253727,1.32865 -3.213334,6.289871 0.836994,5.474405 3.66156,0.138209 -2.661851,0.364969 -0.881001,2.704729 -1.850264,-1.098211 -0.888827,2.999333 -3.303976,2.045788 -2.092333,1.138533 -3.464338,-0.528629 -2.985033,-2.35496 -1.645958,0.960573 0.517696,3.67045 -2.339585,3.83331 -0.640044,2.273659 -5.903378,1.930962 -2.910208,4.246159 1.328901,3.445358 -4.95153,0.215986 -3.16853,4.35053 1.525447,4.088438 4.722394,-1.354722 6.019433,-2.406348 2.502474,-1.941872 6.210661,3.311089 3.958763,3.506335 2.525083,-0.338912 2.006191,-2.74125 -0.01696,-3.671301 -1.092676,-2.834933 3.459035,1.390324 3.206601,2.811683 1.605944,3.008346 0.944615,-3.080088 2.578854,-0.384565 -0.190808,2.843378 6.574181,0.668556 3.344389,4.292415 -2.776877,0.559513 -5.510134,-0.716143 -7.900831,0.100926 -2.22511,-0.01969 -2.113469,-2.397964 -2.923585,-2.993542 -2.830365,0.23004 -6.327933,0.204027 -8.222767,2.491404 -2.049016,2.812343 -5.00383,6.743795 -2.770526,10.334807 2.234877,5.321462 7.777183,0.276028 10.962975,3.418767 0.946936,1.310381 -0.820594,2.868035 1.296711,4.287425 0.796704,3.02353 -0.904488,5.89433 1.052264,8.78464 1.011837,2.7182 1.639779,6.78664 5.40576,4.30281 3.985771,-2.39945 2.924161,-6.8227 6.212939,-9.27265 -2.60227,-5.038063 3.183628,-7.247103 4.627218,-11.337101 -3.153943,0.461909 -5.963772,-2.68376 -6.725787,-5.84994 -1.324936,-1.537885 -0.983676,-3.805502 0.496326,-0.916468 2.034259,1.971905 2.078217,7.823061 5.841274,4.813019 1.720349,-0.719835 6.418604,-3.465723 2.675109,-4.71532 C 84.738799,48.485587 82.07659,41.512928 85.620023,45.557218 88.196064,46.650521 90,47.301924 90,43.677069 c 0,-9.766125 0,-19.664578 0,-29.496868 -0.802399,0.82028 -2.863802,2.335242 -3.904284,1.328569 -1.790368,0.249406 -4.153886,3.734285 -3.59125,0.365539 -1.556235,-0.103093 -0.278581,3.020534 -2.416637,3.107891 -0.215289,1.605887 -2.159868,0.297377 -1.429431,1.822369 -1.500645,-1.064875 -2.770669,-4.427041 0.186146,-2.316729 4.391021,-1.317844 -2.895608,-4.290405 -3.458045,-5.008905 0.945455,-0.226615 -1.028609,-1.212248 -1.266806,-0.88224 z m -36.239676,0.88224 c -1.461507,1.2182 2.778528,1.447612 0,0 z m -19.522376,0.656023 c -1.634652,1.710504 2.603281,1.572448 0,0 z m 9.478418,1.696613 c -1.237867,2.028578 1.829027,0.748943 0,0 z m 27.100586,2.39788 c -1.449235,1.669078 -3.362051,-0.439263 -3.39323,0.995347 0.262642,0.433474 1.314671,3.527292 3.619439,1.244183 1.236985,-0.52171 0.749963,-1.836879 -0.226209,-2.23953 z m -30.855759,0.995347 c -2.748806,2.401478 4.668304,2.622741 0.582324,0.275426 l -0.582324,-0.275426 z m 36.262298,6.650724 c -1.979083,1.291041 0.949434,4.032808 -0.04308,5.320723 C 59.06,33.35771 64.908429,31.04399 61.784718,29.319485 61.562154,27.837869 59.9547,26.030129 60.343179,25.875522 z m -1.334668,2.601473 c -2.757392,0.779858 -0.625964,4.806237 0.350657,1.013998 0.05497,-0.219858 0.12936,-1.021351 -0.350657,-1.013998 z M 36.929913,31.39517 c -2.565224,1.749832 -0.39843,3.496444 1.481561,2.709121 -0.385959,-1.055763 -1.46417,-1.720956 -1.481561,-2.709121 z m 48.455298,2.940797 c 1.279946,0.646198 -2.345536,1.750082 -0.04983,2.887358 1.335978,1.571671 0.832312,4.945457 -1.339202,2.557643 0.403442,-2.665992 -2.943559,-4.656978 1.389033,-5.445001 z m -6.582867,0.02262 c -0.173666,1.712793 3.69395,4.375139 -0.475048,3.506334 -2.204744,0.258725 -5.506966,-0.06739 -2.729423,-2.815681 0.87765,-0.527085 3.182055,1.818498 1.982912,-0.373952 0.42514,-0.02713 0.821079,-0.187672 1.221559,-0.316701 z m -12.735913,3.709927 c -1.608116,1.036413 1.111982,1.831121 0,0 z M 25.687014,47.7279 c -0.271103,0.904805 5.085991,1.821755 1.389301,0.372149 L 26.525247,47.906003 25.687014,47.7279 z m 4.16236,1.289426 c -1.624915,1.650213 3.347807,0.493017 0,0 z M 84.186275,64.15112 c -3.530727,0.09113 -3.061331,9.20159 -0.600138,3.81083 0.233406,-1.16979 1.168903,-2.71377 0.600138,-3.81083 z"
         transform="matrix(0.80557329,0,0,0.81430803,111.54493,12.013278)" />
      <path
         style="fill:url(#radialGradient4301);fill-opacity:1;stroke:none;display:inline"
         id="path3522"
         inkscape:connector-curvature="0"
         d="m 140.7662,15.344035 c 1.32929,1.80507 0.0907,4.81935 2.09568,4.789427 0.97627,1.395737 -1.94583,0.416352 0.16401,1.492091 1.21327,0.96624 -1.2836,1.51831 0.21894,2.385413 -1.73173,0.903609 0.2807,4.726233 1.56694,5.682931 2.11701,1.802195 0.93624,-3.815621 3.29841,-4.107855 1.28357,-1.481796 3.53796,-2.432999 5.13898,-3.923647 -1.56467,-0.128449 -2.47832,-1.113269 -0.99652,-1.723323 2.72723,2.82597 0.68385,-1.338338 -0.82582,-1.997693 1.4608,-0.469893 2.88152,-0.125795 2.67883,-1.344724 1.54374,-1.14208 -1.48408,-1.510822 -2.5649,-1.25262 -3.59152,0 -7.18304,0 -10.77455,0 z m -22.39643,1.178937 c -1.97346,0.568545 -2.11112,5.337689 -0.12756,2.689447 0.48684,-1.0874 2.73659,-2.397871 0.12756,-2.689447 z m 9.22099,0.165787 c -1.13768,1.80397 0.16507,3.25031 1.11162,1.049991 0.67,-0.918819 -0.49779,-1.016326 -1.11162,-1.049991 z m 2.84283,0.40526 c -2.19821,1.030272 -0.54183,3.432768 -0.48742,3.967095 2.31567,0.810098 3.60351,-0.529656 4.47955,1.760117 2.20337,1.284111 -0.0434,3.515418 -0.87046,4.096519 1.48978,-1.312005 4.35344,3.56706 3.60272,0.989322 -0.89562,-0.66128 2.40477,1.062316 0.69249,-1.086832 -1.57575,-2.567234 0.12508,-1.149325 0.78942,-0.550153 2.25955,-2.048878 -2.55656,-2.296523 -1.35434,-4.405063 -1.0535,-0.862826 -2.43516,-3.476682 -4.3007,-2.965761 -1.24883,1.633147 -0.17251,-3.558493 -2.00475,-0.960527 -0.095,1.452249 -0.0345,3.29506 -0.5685,0.779149 -0.35774,-0.440436 0.61545,-1.464368 0.022,-1.623866 z m -4.48293,0.01842 c -1.47549,0.497423 -1.39624,2.513366 0.41806,2.729488 0.62144,-0.716292 0.2469,-2.593846 -0.41806,-2.729488 z m -5.75856,0.644731 c -1.91652,0.459171 -1.13424,2.021817 -0.54745,2.461915 -2.37234,0.600896 3.62161,0.767995 0.63857,1.148576 -2.48181,1.002279 2.38986,2.183113 3.18907,0.994727 3.06472,0.757905 0.11029,-2.480826 -0.15873,-4.236463 -1.29919,-1.409959 -0.0513,3.250337 -1.22598,0.150165 -0.40986,0.92061 -1.71307,0.135662 -1.89548,-0.51892 z m 60.90225,0.20263 c -2.57175,1.017773 1.5984,4.858515 0.562,1.364368 -0.10324,-0.421913 0.23217,-1.536684 -0.562,-1.364368 z m -53.70405,1.547352 c -1.84805,1.756224 2.34904,3.208538 -0.53079,4.516891 -0.4318,-1.631009 -1.17474,0.816022 -2.8223,-0.50114 -2.83231,1.192527 -4.28071,-0.621176 -6.65205,-1.864415 -1.42427,-0.179281 -0.88917,1.368472 -0.98351,2.817663 0,4.005016 0,8.010034 0,12.01505 1.39646,1.485689 0.54484,0.655498 0,0.245719 0.76648,2.639695 -0.33799,6.498366 2.68325,8.033825 0.5136,0.963353 2.66877,5.0675 2.76813,3.8395 -1.08045,-1.144157 -2.18903,-4.574284 -0.36082,-1.517076 1.63754,2.906099 3.84641,4.790987 7.07332,5.482541 1.76425,0.606842 3.21518,2.692888 4.76667,2.233911 0.87731,2.338666 -2.59992,4.584462 0.11674,6.765757 1.41822,2.208241 3.79923,3.656569 2.51013,6.756787 -0.90149,3.027808 -0.5155,6.326961 -1.29519,9.148009 -0.24199,1.717156 2.36681,6.075561 2.14079,2.585518 0.76172,-2.425335 0.74164,-5.094002 2.53561,-6.811548 2.45467,0.01965 0.46914,-2.669099 2.90571,-2.317863 1.4868,-1.970683 1.91745,-4.321631 4.42655,-5.104156 0.29971,-2.392111 4.17192,-6.055675 0.1717,-6.987022 -1.08721,-0.541882 -3.88649,-0.736731 -3.67257,-1.004105 0.43343,-2.373608 -3.61982,-3.04934 -5.34436,-4.020458 -2.26427,-1.625235 -5.66659,2.699915 -6.46433,-1.026863 -0.476,-1.172561 -2.2164,-1.191578 -1.41655,-3.000896 -1.44148,1.449734 -4.26095,1.009123 -3.52279,-1.790595 1.12101,-2.357906 5.42605,-2.46947 6.15962,0.366668 -1.01853,-3.127922 1.96877,-5.562888 3.62711,-7.788218 0.33767,-1.06365 2.34401,-1.977486 1.65359,-0.563844 1.17626,-0.04291 2.9591,-2.189379 0.86954,-1.198672 -0.0296,-1.957511 -1.83105,-1.400831 -2.4151,-1.122877 1.0825,-1.737386 6.64194,-0.787539 4.31392,-3.627406 -1.80393,-0.73913 -1.65386,-5.052332 -3.47847,-2.64943 0.15354,-1.480531 -3.7137,-4.378652 -3.62931,-1.895969 0.47206,2.221537 0.0863,4.780696 -0.91829,6.236878 -0.20965,-3.255294 -5.69998,-2.535825 -4.99409,-6.004704 1.02262,-1.653282 2.21762,-3.939549 2.33147,-3.733876 1.83272,-0.707586 3.30655,-2.765807 1.18245,-4.11887 -0.11352,1.179283 -1.59748,3.612384 -1.38854,0.669626 -1.37414,1.647492 -1.06029,-2.621589 -2.34724,-3.06434 z m 43.86347,1.142094 c -3.21902,0.796262 -4.49515,3.905288 -6.08757,6.480396 -2.34732,1.070194 -2.25797,5.666215 0.36445,4.198307 0.70188,1.239602 -0.491,3.19345 1.5534,1.572605 1.649,-2.206694 0.28835,-5.775688 3.09455,-7.167145 0.20439,1.081931 -2.58858,5.121893 0.67426,4.457852 2.94965,0.112545 -2.14432,0.297198 -0.70972,2.202483 -1.49052,-0.894282 -0.71601,2.442381 -2.66159,1.665902 -1.68553,0.927116 -2.79078,-0.430467 -2.40466,-1.917663 -1.32595,0.782202 0.41704,2.988877 -1.88471,3.121495 -0.51561,1.851459 -4.75561,1.572398 -2.34439,3.457681 1.07053,2.805583 -3.98882,0.175879 -2.55248,3.542672 1.22886,3.329248 3.80423,-1.103161 4.84909,-1.959509 2.01593,-1.581282 5.00315,2.696247 3.18908,2.855237 2.03414,-0.275979 1.61613,-2.232222 -0.0137,-2.98957 -0.88023,-2.308509 2.7865,1.132152 2.58315,2.289576 1.2937,2.44972 0.76096,-2.50814 2.07745,-0.313154 -0.15371,2.315385 5.29599,0.54441 2.69416,3.495348 -2.23698,0.455616 -4.43882,-0.583161 -6.3647,0.08218 -1.79249,-0.01603 -1.70256,-1.952682 -2.35517,-2.437666 -2.28007,0.187324 -5.09761,0.166141 -6.62404,2.028771 -1.65063,2.290113 -4.03095,5.491526 -2.23186,8.415716 1.80036,4.333309 6.26509,0.224772 8.83148,2.783929 0.76283,1.067054 -0.66105,2.335464 1.0446,3.491285 0.6418,2.462085 -0.72863,4.7998 0.84767,7.153403 0.81511,2.213452 1.32097,5.526415 4.35474,3.503813 3.21083,-1.953892 2.35562,-5.55578 5.00498,-7.550794 -2.09632,-4.102535 2.56464,-5.901374 3.72756,-9.231892 -2.54073,0.376136 -4.80426,-2.185408 -5.41811,-4.763653 -1.06734,-1.252312 -0.79243,-3.098851 0.39982,-0.746288 1.63875,1.605739 1.67416,6.370382 4.70558,3.91928 1.38586,-0.586167 5.17065,-2.822166 2.15499,-3.839722 -1.94388,1.423733 -4.08848,-4.254159 -1.23399,-0.960861 2.07519,0.890285 3.52839,1.420728 3.52839,-1.531021 0,-7.952634 0,-16.013023 0,-24.019536 -0.64639,0.667961 -2.307,1.901606 -3.14518,1.081864 -1.44228,0.203094 -3.34626,3.040859 -2.89302,0.297662 -1.25366,-0.08395 -0.22442,2.459645 -1.94678,2.53078 -0.17343,1.307687 -1.73993,0.242157 -1.15151,1.48397 -1.20888,-0.867136 -2.23198,-3.604975 0.14996,-1.886531 3.53728,-1.073131 -2.33263,-3.493711 -2.78571,-4.078792 0.76163,-0.184534 -0.82862,-0.987143 -1.02051,-0.718415 z m -29.19372,0.718415 c -1.17735,0.99199 2.23831,1.178802 0,0 z m -15.7267,0.534205 c -1.31683,1.392877 2.09713,1.280457 0,0 z m 7.63556,1.381566 c -0.99719,1.651887 1.47341,0.60987 0,0 z m 21.83151,1.952613 c -1.16747,1.359143 -2.70838,-0.357696 -2.7335,0.810519 0.21158,0.352981 1.05907,2.872302 2.91573,1.013148 0.99648,-0.424833 0.60415,-1.495785 -0.18223,-1.823667 z m -24.85658,0.810519 c -2.21436,1.955543 3.76066,2.135719 0.46911,0.224281 l -0.46911,-0.224281 z m 29.21194,5.415738 c -1.5943,1.051305 0.76484,3.283948 -0.0347,4.332707 -0.99899,1.760099 3.71234,-0.123982 1.19597,-1.528261 -0.1793,-1.206491 -1.47422,-2.678549 -1.16127,-2.804446 z m -1.07517,2.1184 c -2.22128,0.635045 -0.50426,3.913757 0.28248,0.825707 0.0443,-0.179032 0.10421,-0.831695 -0.28248,-0.825707 z m -17.78593,2.376293 c -2.06648,1.424903 -0.32097,2.847183 1.1935,2.206059 -0.31092,-0.859716 -1.1795,-1.401388 -1.1935,-2.206059 z m 39.03429,2.394715 c 1.03109,0.526204 -1.8895,1.425106 -0.0401,2.351199 1.07623,1.279824 0.67049,4.027125 -1.07882,2.082709 0.325,-2.170939 -2.37126,-3.792214 1.11896,-4.433908 z m -5.30298,0.01842 c -0.1399,1.394741 2.97575,3.562711 -0.38269,2.855236 -1.77608,0.210681 -4.43626,-0.05488 -2.19875,-2.292832 0.70702,-0.42921 2.56338,1.480818 1.59739,-0.304512 0.34248,-0.02209 0.66143,-0.152823 0.98405,-0.257892 z m -10.25971,3.021023 c -1.29546,0.843959 0.89578,1.491097 0,0 z m -32.52858,7.865716 c -0.2184,0.73679 4.09713,1.483469 1.11918,0.303044 l -0.44393,-0.158014 -0.67525,-0.14503 z m 3.35308,1.04999 c -1.30899,1.343781 2.69691,0.401467 0,0 z m 43.77236,12.32357 c -2.84426,0.07421 -2.46612,7.492928 -0.48345,3.103189 0.18802,-0.952569 0.94163,-2.209845 0.48345,-3.103189 z" />
      <g
         id="layer4"
         transform="matrix(1.003861,0,0,0.996139,102.46333,2.2934367)">
        <rect
           width="66"
           height="66"
           rx="12"
           ry="12"
           x="15"
           y="15"
           clip-path="url(#clipPath3613)"
           id="rect3171"
           style="opacity:0.15;fill:url(#linearGradient4303);fill-opacity:1;fill-rule:nonzero;stroke:#ffffff;stroke-width:0.5;stroke-linecap:round;stroke-linejoin:miter;stroke-miterlimit:4;stroke-opacity:1;stroke-dasharray:none;stroke-dashoffset:0;filter:url(#filter3794)" />
      </g>
    </g>
    <path
       d="m 14.5663,14.537162 c -3.242433,0 -5.8437499,2.767501 -5.8437499,6.187501 l 0,49.062499 C 27.546604,55.928264 54.534214,45.993505 86.6288,48.005912 l 0,-27.281249 c 0,-3.420001 -2.63257,-6.187501 -5.875,-6.187501 l -66.1875,0 z"
       inkscape:connector-curvature="0"
       id="rect3256"
       style="opacity:0.12000002;fill:#d9c6ed;fill-opacity:1;stroke:none" />
    <path
       d="m 12.046335,6.9729731 c -3.3496682,0 -6.0463323,2.6553359 -6.0463323,5.9536679 l 0,71.444015 c 0,3.298332 2.6966641,5.953668 6.0463323,5.953668 l 72.555984,0 c 3.349668,0 6.046332,-2.655336 6.046332,-5.953668 l 0,-71.444015 c 0,-3.298332 -2.696664,-5.9536679 -6.046332,-5.9536679 l -72.555984,0 z m 5.03861,6.9459459 62.478764,0 c 2.233113,0 4.030888,1.770224 4.030888,3.969112 l 0,61.521235 c 1e-6,2.198889 -1.797776,3.969112 -4.030888,3.969112 l -62.478764,0 c -2.233111,10e-7 -4.030888,-1.770224 -4.030888,-3.969112 l 0,-61.521235 c 0,-2.198887 1.797776,-3.969112 4.030888,-3.969112 z"
       id="rect2419-3"
       style="fill:url(#linearGradient3931);fill-opacity:1.0;fill-rule:nonzero;stroke:none"
       inkscape:connector-curvature="0" />
    <path
       d="m 12.046335,6.9729731 c -3.3496682,0 -6.0463323,2.6553359 -6.0463323,5.9536679 l 0,1.984556 0,67.474903 0,1.984556 c 0,0.332137 0.041669,0.645676 0.094474,0.96127 0.049076,0.293313 0.097789,0.592305 0.1889479,0.868243 0.00996,0.03015 0.021053,0.06311 0.031491,0.09303 0.099629,0.285549 0.236694,0.543225 0.3778958,0.806226 0.1457083,0.271395 0.3180533,0.531479 0.503861,0.775217 0.1858077,0.243738 0.3766628,0.469816 0.5983349,0.682191 0.4433443,0.424751 0.9501912,0.808236 1.511583,1.085304 0.2806959,0.138534 0.5779015,0.24504 0.8817565,0.341096 -0.2581799,-0.09945 -0.490469,-0.234448 -0.7242999,-0.372105 -0.00747,-0.0044 -0.02405,0.0045 -0.031491,0 -0.03218,-0.01915 -0.062774,-0.04218 -0.094474,-0.06202 C 9.2167571,89.472999 9.1052753,89.386857 8.9916774,89.301038 8.8846847,89.220862 8.7767495,89.14117 8.6767643,89.052968 8.4974604,88.892782 8.3266216,88.710247 8.1729033,88.52582 8.0644936,88.396571 7.9528229,88.262584 7.8579901,88.122708 7.8327074,88.084624 7.8192473,88.037501 7.7950075,87.998673 7.7297444,87.896436 7.6637744,87.795735 7.6060596,87.688586 7.5042714,87.495383 7.3987966,87.276095 7.3226378,87.068412 c -0.00802,-0.02164 -0.023771,-0.04024 -0.031491,-0.06202 -0.032071,-0.09124 -0.036081,-0.185389 -0.062983,-0.279078 C 7.1975974,86.621522 7.1572309,86.525853 7.1336899,86.41723 7.0602486,86.078355 7.0077247,85.724416 7.0077247,85.362934 l 0,-1.984556 0,-67.474903 0,-1.984556 c 0,-2.760366 2.2352803,-4.9613899 5.0386103,-4.9613899 l 2.015444,0 68.525096,0 2.015444,0 c 2.803329,0 5.03861,2.2010239 5.03861,4.9613899 l 0,1.984556 0,67.474903 0,1.984556 c 0,0.361482 -0.05252,0.715421 -0.125966,1.054296 -0.04449,0.205295 -0.08906,0.394587 -0.157456,0.589165 -0.0078,0.02178 -0.02348,0.04038 -0.03149,0.06202 -0.06322,0.172398 -0.139452,0.364612 -0.22044,0.527148 -0.0419,0.08216 -0.07965,0.168641 -0.125965,0.248069 -0.05502,0.09646 -0.127753,0.186896 -0.188948,0.279079 -0.09484,0.139876 -0.206503,0.273863 -0.314913,0.403112 -0.144279,0.173103 -0.305482,0.344319 -0.47237,0.496139 -0.01126,0.01012 -0.02013,0.02099 -0.03149,0.03101 -0.139454,0.124587 -0.287292,0.232626 -0.440878,0.341096 -0.103363,0.07259 -0.205896,0.152179 -0.314913,0.21706 -0.0075,0.0045 -0.02402,-0.0044 -0.03149,0 -0.23383,0.137657 -0.466119,0.272657 -0.7243,0.372105 0.303856,-0.09605 0.601061,-0.202562 0.881757,-0.341096 0.561392,-0.277068 1.068239,-0.660553 1.511583,-1.085304 0.221672,-0.212375 0.412527,-0.438453 0.598335,-0.682191 0.185808,-0.243738 0.358152,-0.503822 0.503861,-0.775217 0.141202,-0.263001 0.278267,-0.520677 0.377896,-0.806226 0.01049,-0.03054 0.02149,-0.06226 0.03149,-0.09303 0.09116,-0.275938 0.139872,-0.57493 0.188948,-0.868243 0.0528,-0.315594 0.09447,-0.629133 0.09447,-0.96127 l 0,-1.984556 0,-67.474903 0,-1.984556 c 0,-3.298332 -2.696664,-5.9536679 -6.046332,-5.9536679 l -72.555984,0 z"
       id="rect3728-7"
       style="opacity:0.5;fill:url(#linearGradient3928);fill-opacity:1;fill-rule:nonzero;stroke:none"
       inkscape:connector-curvature="0" />
    <path
       d="m 17.084945,12.926641 c -2.77396,0 -5.03861,2.229943 -5.03861,4.96139 l 0,61.521235 c 0,2.731447 2.264651,4.96139 5.03861,4.96139 l 62.478764,0 c 2.773959,0 5.038611,-2.229943 5.03861,-4.96139 l 0,-61.521235 c 0,-2.731447 -2.264651,-4.96139 -5.03861,-4.96139 l -62.478764,0 z m 0,1.984556 62.478764,0 c 1.692265,0 3.023166,1.310505 3.023166,2.976834 l 0,61.521235 c 10e-7,1.66633 -1.330902,2.976834 -3.023166,2.976834 l -62.478764,0 c -1.692264,0 -3.023166,-1.310504 -3.023166,-2.976834 l 0,-61.521235 c 0,-1.666329 1.330901,-2.976834 3.023166,-2.976834 z"
       id="rect3425"
       style="fill:url(#linearGradient3925);fill-opacity:1;fill-rule:nonzero;stroke:none;opacity:0.72540984"
       inkscape:connector-curvature="0" />
    <path
       d="m 12.694984,90.324324 c -3.3496683,0 -6.0463323,-2.655336 -6.0463323,-5.953668 l 0,-1.984556 0,-67.474903 0,-1.984556 c 0,-0.332136 0.04167,-0.645675 0.09447,-0.961269 0.04908,-0.293314 0.09779,-0.592306 0.188948,-0.868243 0.01,-0.03015 0.02105,-0.06311 0.03149,-0.09303 0.09963,-0.285548 0.236694,-0.543224 0.377896,-0.806225 0.145708,-0.271392 0.318053,-0.531476 0.503861,-0.775215 0.185808,-0.243738 0.376663,-0.469815 0.598335,-0.682191 0.443344,-0.42475 0.950191,-0.8082359 1.511583,-1.0853037 0.2806963,-0.138534 0.5779013,-0.2450401 0.8817563,-0.3410956 -0.25818,0.099448 -0.490469,0.2344475 -0.7243,0.3721042 -0.0075,0.00437 -0.02405,-0.00447 -0.03149,0 -0.03218,0.019151 -0.06277,0.042182 -0.09447,0.062017 -0.121325,0.076108 -0.232806,0.1622508 -0.346404,0.2480699 -0.106993,0.080176 -0.214928,0.1598682 -0.314913,0.2480692 -0.179304,0.160187 -0.350143,0.342721 -0.503861,0.527148 -0.10841,0.129249 -0.220081,0.263236 -0.314914,0.403113 -0.02528,0.03808 -0.03874,0.08521 -0.06298,0.124035 -0.06526,0.102236 -0.131233,0.202937 -0.188948,0.310087 -0.101788,0.193202 -0.207263,0.412491 -0.283422,0.620173 -0.008,0.02164 -0.02377,0.04024 -0.03149,0.06202 -0.03207,0.09124 -0.03608,0.185388 -0.06298,0.279078 -0.03057,0.105795 -0.07093,0.201463 -0.09447,0.310087 -0.07344,0.338875 -0.125965,0.692813 -0.125965,1.054295 l 0,1.984556 0,67.474903 0,1.984556 c 0,2.760367 2.23528,4.96139 5.0386103,4.96139 l 2.015444,0 68.525096,0 2.015444,0 c 2.803329,0 5.03861,-2.201023 5.03861,-4.96139 l 0,-1.984556 0,-67.474903 0,-1.984556 c 0,-0.361482 -0.05252,-0.71542 -0.125966,-1.054295 -0.04449,-0.205296 -0.08906,-0.394588 -0.157456,-0.589165 -0.0078,-0.02178 -0.02348,-0.04038 -0.03149,-0.06202 C 89.911446,10.056488 89.835223,9.864274 89.754235,9.701738 89.712335,9.619578 89.674585,9.533096 89.62827,9.453668 89.57325,9.357208 89.500517,9.266773 89.439322,9.17459 89.344482,9.034713 89.232819,8.900726 89.124409,8.771477 88.98013,8.598374 88.818927,8.427158 88.652039,8.275338 88.640779,8.265218 88.631909,8.254348 88.620549,8.244328 88.481084,8.119743 88.333246,8.0117036 88.17966,7.9032338 88.076297,7.8306486 87.973764,7.751054 87.864747,7.6861729 c -0.0075,-0.00447 -0.02402,0.00437 -0.03149,0 -0.23383,-0.1376567 -0.466119,-0.2726561 -0.7243,-0.3721042 0.303856,0.096052 0.601061,0.2025616 0.881757,0.3410956 0.561392,0.2770678 1.068239,0.6605537 1.511583,1.0853037 0.221672,0.212376 0.412527,0.438453 0.598335,0.682191 0.185808,0.243739 0.358152,0.503823 0.503861,0.775218 0.141202,0.263001 0.278267,0.520677 0.377896,0.806225 0.01049,0.03054 0.02149,0.06226 0.03149,0.09303 0.09116,0.275937 0.139872,0.574929 0.188948,0.868243 0.0528,0.315594 0.09447,0.629133 0.09447,0.961269 l 0,1.984556 0,67.474903 0,1.984556 c 0,3.298332 -2.696664,5.953668 -6.046332,5.953668 l -72.555984,0 z"
       id="path3615-4"
       style="opacity:0.4;fill:url(#radialGradient3922);fill-opacity:1;fill-rule:nonzero;stroke:none"
       inkscape:connector-curvature="0" />
    <g
       id="g4428">
      <g
         id="g4528"
         transform="matrix(0.85261103,0,0,0.85228808,44.705244,7.3065018)"
         style="stroke:url(#linearGradient4174);stroke-opacity:1;opacity:1;filter:url(#filter4424)">
        <path
           sodipodi:type="arc"
           style="fill:#ffffff;fill-opacity:1;stroke:url(#linearGradient4162);stroke-width:2.19000006000000003;stroke-linecap:round;stroke-linejoin:round;stroke-miterlimit:4;stroke-opacity:1;stroke-dasharray:none"
           id="path4025"
           sodipodi:cx="-104.10811"
           sodipodi:cy="45.729729"
           sodipodi:rx="28.216217"
           sodipodi:ry="27.243244"
           d="m -75.891891,45.729729 c 0,15.046028 -12.632831,27.243244 -28.216219,27.243244 -15.58338,0 -28.21622,-12.197216 -28.21622,-27.243244 0,-15.046029 12.63284,-27.243244 28.21622,-27.243244 15.583388,0 28.216219,12.197215 28.216219,27.243244 z"
           transform="matrix(0.75571717,0,0,0.77495801,82.160202,12.624348)" />
        <path
           transform="matrix(0.68152936,0,0,0.66858561,49.680562,17.689451)"
           d="m -36.324324,45.567566 c 0,17.46414 -14.084879,31.621622 -31.459459,31.621622 -17.37458,0 -31.459459,-14.157482 -31.459459,-31.621622 0,-17.46414 14.084879,-31.621622 31.459459,-31.621622 17.37458,0 31.459459,14.157482 31.459459,31.621622 z"
           sodipodi:ry="31.621622"
           sodipodi:rx="31.459459"
           sodipodi:cy="45.567566"
           sodipodi:cx="-67.783783"
           id="path3904"
           style="fill:url(#linearGradient4164);fill-opacity:1;stroke:url(#linearGradient4166);stroke-width:2.50000000000000000;stroke-linecap:round;stroke-linejoin:round;stroke-miterlimit:4;stroke-opacity:1;stroke-dasharray:none"
           sodipodi:type="arc" />
        <path
           transform="matrix(0.63924182,0,0,0.62568825,46.865612,19.522336)"
           d="m -36.324324,45.567566 c 0,17.46414 -14.084879,31.621622 -31.459459,31.621622 -17.37458,0 -31.459459,-14.157482 -31.459459,-31.621622 0,-17.46414 14.084879,-31.621622 31.459459,-31.621622 17.37458,0 31.459459,14.157482 31.459459,31.621622 z"
           sodipodi:ry="31.621622"
           sodipodi:rx="31.459459"
           sodipodi:cy="45.567566"
           sodipodi:cx="-67.783783"
           id="path3904-0"
           style="fill:url(#linearGradient4168);fill-opacity:1;stroke:url(#linearGradient4170);stroke-width:2.49978852000000007;stroke-linecap:round;stroke-linejoin:round;stroke-miterlimit:4;stroke-opacity:1;stroke-dasharray:none"
           sodipodi:type="arc" />
        <path
           transform="matrix(0.61424575,0,0,0.59132084,45.311492,21.02549)"
           d="m -36.324324,45.567566 c 0,17.46414 -14.084879,31.621622 -31.459459,31.621622 -17.37458,0 -31.459459,-14.157482 -31.459459,-31.621622 0,-17.46414 14.084879,-31.621622 31.459459,-31.621622 17.37458,0 31.459459,14.157482 31.459459,31.621622 z"
           sodipodi:ry="31.621622"
           sodipodi:rx="31.459459"
           sodipodi:cy="45.567566"
           sodipodi:cx="-67.783783"
           id="path3904-3"
           style="fill:none;stroke:url(#linearGradient4172);stroke-width:2.50000000000000000;stroke-linecap:round;stroke-linejoin:round;stroke-miterlimit:4;stroke-opacity:1;stroke-dasharray:none"
           sodipodi:type="arc" />
      </g>
      <path
         sodipodi:type="arc"
         style="fill:none;stroke:#6e6e6e;stroke-width:0.3733699;stroke-linecap:round;stroke-linejoin:round;stroke-miterlimit:4;stroke-opacity:1;stroke-dasharray:none"
         id="path4071"
         sodipodi:cx="-116.43243"
         sodipodi:cy="19.621622"
         sodipodi:rx="11.027027"
         sodipodi:ry="4.0870056"
         d="m -105.4054,19.621622 a 11.027027,4.0870056 0 1 1 -22.05405,0 11.027027,4.0870056 0 1 1 22.05405,0 z"
         transform="matrix(1.4397079,0,0,3.7680893,215.55742,-25.927176)" />
      <path
         sodipodi:type="arc"
         style="fill:none;stroke:url(#linearGradient4160);stroke-width:2.17298889;stroke-linecap:round;stroke-linejoin:round;stroke-miterlimit:4;stroke-opacity:1;stroke-dasharray:none"
         id="path4073"
         sodipodi:cx="-94.054054"
         sodipodi:cy="77.189186"
         sodipodi:rx="30.486486"
         sodipodi:ry="29.837837"
         d="m -63.567568,77.189186 a 30.486486,29.837837 0 1 1 -60.972972,0 30.486486,29.837837 0 1 1 60.972972,0 z"
         transform="matrix(0.4729673,0,0,-0.48311677,92.468861,85.454511)" />
      <path
         sodipodi:type="arc"
         style="fill:none;stroke:#858585;stroke-width:4.28705835;stroke-linecap:round;stroke-linejoin:round;stroke-miterlimit:4;stroke-opacity:1;stroke-dasharray:none;filter:url(#filter4194-4)"
         id="path4073-4-3"
         sodipodi:cx="-94.054054"
         sodipodi:cy="77.189186"
         sodipodi:rx="30.486486"
         sodipodi:ry="29.837837"
         d="m -63.567568,77.189186 a 30.486486,29.837837 0 1 1 -60.972972,0 30.486486,29.837837 0 1 1 60.972972,0 z"
         transform="matrix(0.42364551,0,0,-0.44188363,87.834575,82.102496)" />
      <path
         sodipodi:type="arc"
         style="fill:none;stroke:url(#linearGradient4158);stroke-width:2.5;stroke-linecap:round;stroke-linejoin:round;stroke-miterlimit:4;stroke-opacity:1;stroke-dasharray:none;filter:url(#filter4264)"
         id="path4222"
         sodipodi:cx="-91.135132"
         sodipodi:cy="60.486488"
         sodipodi:rx="26.270269"
         sodipodi:ry="28.702703"
         d="m -64.864862,60.486488 a 26.270269,28.702703 0 1 1 -52.540538,0 26.270269,28.702703 0 1 1 52.540538,0 z"
         transform="matrix(0.4429368,0,0,0.35632832,88.112495,24.614604)" />
      <path
         sodipodi:type="arc"
         style="opacity:0.64489794;fill:url(#linearGradient4156);fill-opacity:1;stroke:none"
         id="path4268"
         sodipodi:cx="-77.027023"
         sodipodi:cy="35.675674"
         sodipodi:rx="12.486486"
         sodipodi:ry="12.972973"
         d="m -64.540537,35.675674 a 12.486486,12.972973 0 1 1 -24.972973,0 12.486486,12.972973 0 1 1 24.972973,0 z"
         transform="matrix(0.91904827,0,0,0.90555608,118.18888,15.738261)" />
      <path
         sodipodi:type="arc"
         style="opacity:0.64489794;fill:none;stroke:#3a3a3a;stroke-width:0.5;stroke-linecap:round;stroke-linejoin:round;stroke-miterlimit:4;stroke-opacity:1;stroke-dasharray:none"
         id="path4294"
         sodipodi:cx="-101.51351"
         sodipodi:cy="9.2432432"
         sodipodi:rx="14.918919"
         sodipodi:ry="14.756757"
         d="m -86.594593,9.2432432 a 14.918919,14.756757 0 1 1 -29.837837,0 14.918919,14.756757 0 1 1 29.837837,0 z"
         transform="matrix(0.68356703,0,0,0.69425971,117.26688,41.378207)" />
      <path
         sodipodi:type="arc"
         style="opacity:0.64489794;fill:none;stroke:url(#linearGradient4154);stroke-width:0.5;stroke-linecap:round;stroke-linejoin:round;stroke-miterlimit:4;stroke-opacity:1;stroke-dasharray:none"
         id="path4294-2"
         sodipodi:cx="-101.51351"
         sodipodi:cy="9.2432432"
         sodipodi:rx="14.918919"
         sodipodi:ry="14.756757"
         d="m -86.594593,9.2432432 a 14.918919,14.756757 0 1 1 -29.837837,0 14.918919,14.756757 0 1 1 29.837837,0 z"
         transform="matrix(0.68356703,0,0,0.71021534,117.2034,41.333728)" />
      <g
         id="g4472"
         transform="matrix(0.7460347,0,0,0.85228808,-6.5842618,18.12322)">
        <rect
           y="26.701931"
           x="71.319916"
           height="15.891892"
           width="4.5405407"
           id="rect4360"
           style="fill:#494949;fill-opacity:1;stroke:none" />
        <path
           sodipodi:nodetypes="cccccccccccc"
           inkscape:connector-curvature="0"
           id="path4358"
           d="m 75.077603,27.7536 -2.035415,1.215625 1.252562,1.878693 -0.939422,1.989204 1.565704,3.757385 -1.565704,1.105114 0.469711,1.436647 1.095993,0.773579 0,2.099715 c -1.236173,-0.211804 -1.868673,-0.262974 -3.444548,0 L 71.319914,27.7536 z"
           style="fill:#000000;fill-opacity:1;stroke:none" />
        <rect
           rx="0"
           ry="0"
           y="40.387005"
           x="71.43689"
           height="1.7199897"
           width="3.4399762"
           id="rect4470"
           style="opacity:0.98000004;fill:#000000;fill-opacity:1;stroke:none" />
      </g>
      <rect
         style="opacity:0.98000004;fill:none;stroke:#000000;stroke-width:0.32591662;stroke-opacity:1"
         id="rect4368"
         width="2.8726192"
         height="13.535466"
         x="46.575256"
         y="40.998611" />
      <path
         sodipodi:type="arc"
         style="opacity:0.98000004;fill:none;stroke:url(#linearGradient4152);stroke-width:1.24300003;stroke-linecap:round;stroke-linejoin:round;stroke-miterlimit:4;stroke-opacity:1;stroke-dasharray:none"
         id="path4446"
         sodipodi:cx="-56.358322"
         sodipodi:cy="49.617619"
         sodipodi:rx="12.899921"
         sodipodi:ry="12.09726"
         d="m -43.458401,49.617619 a 12.899921,12.09726 0 1 1 -25.799843,0 12.899921,12.09726 0 1 1 25.799843,0 z"
         transform="matrix(1.1476925,0,0,1.2000894,112.67614,-11.323068)" />
      <rect
         style="opacity:0.98000004;fill:none;stroke:#242424;stroke-width:0.64988762;stroke-miterlimit:4;stroke-opacity:1;stroke-dasharray:none"
         id="rect4368-6"
         width="2.6189954"
         height="12.59284"
         x="46.692905"
         y="41.505077" />
      <g
         id="g4392"
         transform="matrix(0.79379622,0,0,0.83227009,-10.772122,0.71704018)"
         style="stroke-width:0.93274617;stroke-miterlimit:4;stroke-dasharray:none">
        <rect
           ry="0"
           rx="0"
           y="48.536926"
           x="71.733627"
           height="16.426243"
           width="4.3431616"
           id="rect4322-9"
           style="fill:none;stroke:url(#linearGradient4150);stroke-width:0.93274617;stroke-miterlimit:4;stroke-opacity:1;stroke-dasharray:none" />
        <rect
           ry="0"
           rx="0"
           y="48.140854"
           x="71.773407"
           height="16.426243"
           width="4.3431616"
           id="rect4322"
           style="fill:none;stroke:#595959;stroke-width:0.93274617;stroke-miterlimit:4;stroke-opacity:1;stroke-dasharray:none" />
      </g>
    </g>
  </g>
</svg>
